<svg version="1.1" viewBox="0.0 0.0 960.0 540.0" fill="none" stroke="none" stroke-linecap="square" stroke-miterlimit="10" xmlns:xlink="http://www.w3.org/1999/xlink" xmlns="http://www.w3.org/2000/svg"><clipPath id="p.0"><path d="m0 0l960.0 0l0 540.0l-960.0 0l0 -540.0z" clip-rule="nonzero"/></clipPath><g clip-path="url(#p.0)"><path fill="#ffffff" d="m0 0l960.0 0l0 540.0l-960.0 0z" fill-rule="evenodd"/><path fill="#cfe2f3" d="m30.497667 179.15178l113.25984 0l0 75.55905l-113.25984 0z" fill-rule="evenodd"/><path stroke="#000000" stroke-width="0.3963254593175853" stroke-linejoin="round" stroke-linecap="butt" d="m30.497667 179.15178l113.25984 0l0 75.55905l-113.25984 0z" fill-rule="evenodd"/><path fill="#cfe2f3" d="m219.8455 176.30951l121.732285 0l0 81.22836l-121.732285 0z" fill-rule="evenodd"/><path stroke="#000000" stroke-width="0.4015748031496063" stroke-linejoin="round" stroke-linecap="butt" d="m219.8455 176.30951l121.732285 0l0 81.22836l-121.732285 0z" fill-rule="evenodd"/><path fill="#000000" fill-opacity="0.0" d="m42.10159 262.45978l90.04724 0l0 23.055115l-90.04724 0z" fill-rule="evenodd"/><path fill="#000000" d="m49.023464 268.59042q1.75 0 2.578125 0.734375q0.84375 0.71875 0.84375 2.046875q0 0.59375 -0.1875 1.140625q-0.171875 0.546875 -0.59375 0.984375q-0.40625 0.4375 -1.078125 0.6875q-0.671875 0.25 -1.640625 0.25l-0.828125 0l0 3.203125l-1.9375 0l0 -9.046875l2.84375 0zm-0.0625 1.578125l-0.84375 0l0 2.671875l0.640625 0q0.53125 0 0.921875 -0.125q0.390625 -0.140625 0.59375 -0.453125q0.21875 -0.3125 0.21875 -0.828125q0 -0.609375 -0.375 -0.9375q-0.375 -0.328125 -1.15625 -0.328125zm11.306778 0.546875l0 6.921875l-1.46875 0l-0.234375 -0.890625l-0.125 0q-0.203125 0.359375 -0.546875 0.59375q-0.328125 0.21875 -0.734375 0.3125q-0.40625 0.109375 -0.84375 0.109375q-0.734375 0 -1.28125 -0.265625q-0.546875 -0.265625 -0.859375 -0.8125q-0.3125 -0.5625 -0.3125 -1.453125l0 -4.515625l1.921875 0l0 4.03125q0 0.734375 0.25 1.109375q0.265625 0.375 0.84375 0.375q0.578125 0 0.890625 -0.25q0.328125 -0.265625 0.453125 -0.765625q0.140625 -0.515625 0.140625 -1.25l0 -3.25l1.90625 0zm3.7836494 -0.46875q0 0.390625 -0.03125 0.75q-0.015625 0.359375 -0.046878815 0.625l0.078128815 0q0.28125 -0.4375 0.75 -0.734375q0.46875 -0.296875 1.203125 -0.296875q1.15625 0 1.875 0.90625q0.734375 0.90625 0.734375 2.671875q0 1.171875 -0.34375 1.984375q-0.328125 0.796875 -0.9375 1.203125q-0.59375 0.40625 -1.375 0.40625q-0.765625 0 -1.203125 -0.265625q-0.421875 -0.28125 -0.703125 -0.609375l-0.12500381 0l-0.328125 0.75l-1.46875 0l0 -9.625l1.9218788 0l0 2.234375zm1.34375 1.859375q-0.484375 0 -0.78125 0.203125q-0.296875 0.203125 -0.4375 0.625q-0.125 0.40625 -0.125 1.0625l0 0.234375q0 0.96875 0.296875 1.484375q0.296875 0.5 1.0625 0.5q0.625 0 0.9375 -0.53125q0.328125 -0.53125 0.328125 -1.546875q0 -1.0 -0.3125 -1.515625q-0.3125 -0.515625 -0.96875 -0.515625zm6.664917 5.53125l-1.921875 0l0 -9.625l1.921875 0l0 9.625zm3.776245 -6.921875l0 6.921875l-1.90625 0l0 -6.921875l1.90625 0zm-0.9375 -2.71875q0.40625 0 0.71875 0.203125q0.3125 0.1875 0.3125 0.734375q0 0.515625 -0.3125 0.71875q-0.3125 0.203125 -0.71875 0.203125q-0.4375 0 -0.75 -0.203125q-0.296875 -0.203125 -0.296875 -0.71875q0 -0.546875 0.296875 -0.734375q0.3125 -0.203125 0.75 -0.203125zm7.710785 7.59375q0 0.671875 -0.3125 1.15625q-0.3125 0.484375 -0.953125 0.75q-0.625 0.265625 -1.59375 0.265625q-0.734375 0 -1.296875 -0.09375q-0.5625 -0.09375 -1.078125 -0.3125l0 -1.578125q0.5625 0.265625 1.203125 0.421875q0.65625 0.140625 1.125 0.140625q0.578125 0 0.828125 -0.15625q0.265625 -0.171875 0.265625 -0.453125q0 -0.1875 -0.140625 -0.328125q-0.125 -0.15625 -0.46875 -0.3125q-0.328125 -0.171875 -0.953125 -0.421875q-0.609375 -0.25 -1.03125 -0.515625q-0.421875 -0.28125 -0.640625 -0.65625q-0.203125 -0.390625 -0.203125 -0.953125q0 -0.953125 0.75 -1.453125q0.765625 -0.5 2.0 -0.5q0.671875 0 1.25 0.140625q0.578125 0.140625 1.171875 0.390625l-0.546875 1.3125q-0.484375 -0.21875 -1.0 -0.359375q-0.5 -0.140625 -0.890625 -0.140625q-0.4375 0 -0.6875 0.140625q-0.234375 0.125 -0.234375 0.359375q0 0.1875 0.125 0.328125q0.140625 0.140625 0.46875 0.296875q0.34375 0.140625 0.953125 0.390625q0.625 0.234375 1.046875 0.515625q0.421875 0.265625 0.625 0.65625q0.21875 0.375 0.21875 0.96875zm3.3769379 -5.640625q0 0.546875 -0.03125 0.984375q-0.03125 0.421875 -0.0625 0.671875l0.09375 0q0.234375 -0.375 0.53125 -0.578125q0.3125 -0.21875 0.6875 -0.328125q0.375 -0.109375 0.796875 -0.109375q0.734375 0 1.296875 0.265625q0.5625 0.265625 0.875 0.828125q0.3125 0.546875 0.3125 1.4375l0 4.515625l-1.921875 0l0 -4.03125q0 -0.75 -0.265625 -1.125q-0.265625 -0.375 -0.828125 -0.375q-0.5625 0 -0.890625 0.265625q-0.3125 0.265625 -0.453125 0.78125q-0.140625 0.5 -0.140625 1.234375l0 3.25l-1.921875 0l0 -9.625l1.921875 0l0 1.9375zm9.268021 0.640625q0.96875 0 1.65625 0.359375q0.703125 0.359375 1.078125 1.0625q0.375 0.703125 0.375 1.71875l0 0.921875l-4.453125 0q0.03125 0.796875 0.484375 1.25q0.453125 0.4375 1.3125 0.4375q0.640625 0 1.171875 -0.125q0.53125 -0.125 1.09375 -0.375l0 1.421875q-0.515625 0.265625 -1.078125 0.375q-0.5625 0.125 -1.390625 0.125q-1.03125 0 -1.828125 -0.375q-0.78125 -0.390625 -1.25 -1.171875q-0.453125 -0.796875 -0.453125 -1.984375q0 -1.21875 0.40625 -2.015625q0.421875 -0.8125 1.15625 -1.21875q0.75 -0.40625 1.71875 -0.40625zm0.046875 1.359375q-0.5625 0 -0.921875 0.359375q-0.359375 0.359375 -0.421875 1.078125l2.625 0q0 -0.421875 -0.140625 -0.734375q-0.140625 -0.328125 -0.4375 -0.515625q-0.28125 -0.1875 -0.703125 -0.1875zm8.39328 -1.359375q0.1875 0 0.40625 0.03125q0.234375 0.015625 0.359375 0.046875l-0.1875 1.78125q-0.140625 -0.015625 -0.34375 -0.046875q-0.1875 -0.03125 -0.453125 -0.03125q-0.28125 0 -0.578125 0.09375q-0.296875 0.09375 -0.5625 0.296875q-0.25 0.203125 -0.40625 0.53125q-0.140625 0.328125 -0.140625 0.828125l0 3.515625l-1.921875 0l0 -6.921875l1.453125 0l0.28125 1.171875l0.09375 0q0.203125 -0.375 0.5 -0.65625q0.3125 -0.296875 0.6875 -0.46875q0.390625 -0.171875 0.8125 -0.171875z" fill-rule="nonzero"/><path fill="#000000" fill-opacity="0.0" d="m235.81094 256.44217l99.77951 0l0 23.40158l-99.77951 0z" fill-rule="evenodd"/><path fill="#000000" d="m272.0904 262.615q1.21875 0 2.015625 0.296875q0.796875 0.296875 1.1875 0.890625q0.390625 0.59375 0.390625 1.484375q0 0.625 -0.21875 1.109375q-0.21875 0.46875 -0.59375 0.796875q-0.359375 0.328125 -0.84375 0.546875l2.609375 4.0625l-2.25 0l-2.046875 -3.53125l-1.09375 0l0 3.53125l-1.96875 0l0 -9.1875l2.8125 0zm-0.03125 1.53125l-0.8125 0l0 2.609375l0.8125 0q0.78125 0 1.203125 -0.3125q0.4375 -0.328125 0.4375 -1.0625q0 -0.421875 -0.1875 -0.6875q-0.171875 -0.265625 -0.53125 -0.40625q-0.359375 -0.140625 -0.921875 -0.140625zm8.508575 0.5q0.984375 0 1.6875 0.375q0.703125 0.359375 1.078125 1.078125q0.390625 0.703125 0.390625 1.734375l0 0.9375l-4.515625 0q0.015625 0.796875 0.484375 1.265625q0.46875 0.453125 1.328125 0.453125q0.65625 0 1.1875 -0.125q0.546875 -0.140625 1.109375 -0.390625l0 1.453125q-0.5 0.265625 -1.078125 0.375q-0.578125 0.125 -1.421875 0.125q-1.046875 0 -1.859375 -0.375q-0.796875 -0.390625 -1.265625 -1.1875q-0.453125 -0.8125 -0.453125 -2.03125q0 -1.234375 0.40625 -2.046875q0.421875 -0.8125 1.171875 -1.21875q0.765625 -0.421875 1.75 -0.421875zm0.046875 1.375q-0.578125 0 -0.9375 0.375q-0.359375 0.359375 -0.421875 1.078125l2.65625 0q0 -0.421875 -0.140625 -0.734375q-0.140625 -0.328125 -0.4375 -0.515625q-0.28125 -0.203125 -0.71875 -0.203125zm6.5926514 5.78125l-1.953125 0l0 -9.78125l1.953125 0l0 9.78125zm5.024292 -7.15625q1.328125 0 2.015625 0.625q0.703125 0.625 0.703125 1.84375l0 4.6875l-1.34375 0l-0.375 -0.953125l-0.0625 0q-0.296875 0.375 -0.609375 0.625q-0.3125 0.234375 -0.734375 0.34375q-0.40625 0.109375 -1.0 0.109375q-0.609375 0 -1.109375 -0.234375q-0.484375 -0.234375 -0.765625 -0.71875q-0.28125 -0.5 -0.28125 -1.25q0 -1.109375 0.796875 -1.65625q0.796875 -0.546875 2.375 -0.625l1.171875 -0.03125l0 -0.21875q0 -0.625 -0.28125 -0.875q-0.28125 -0.265625 -0.796875 -0.265625q-0.46875 0 -0.984375 0.15625q-0.5 0.15625 -0.984375 0.375l-0.5625 -1.328125q0.546875 -0.28125 1.265625 -0.4375q0.71875 -0.171875 1.5625 -0.171875zm0.0625 3.9375q-0.921875 0.03125 -1.28125 0.296875q-0.359375 0.265625 -0.359375 0.765625q0 0.4375 0.25 0.65625q0.25 0.21875 0.671875 0.21875q0.609375 0 1.015625 -0.359375q0.421875 -0.375 0.421875 -1.03125l0 -0.578125l-0.71875 0.03125zm3.5715332 -3.8125l2.046875 0l1.328125 4.015625q0.0625 0.203125 0.109375 0.40625q0.0625 0.1875 0.109375 0.390625q0.046875 0.203125 0.078125 0.40625l0.046875 0q0.046875 -0.265625 0.140625 -0.59375q0.09375 -0.328125 0.1875 -0.609375l1.296875 -4.015625l2.015625 0l-2.890625 7.671875q-0.28125 0.78125 -0.671875 1.328125q-0.390625 0.5625 -0.96875 0.84375q-0.5625 0.28125 -1.40625 0.28125q-0.3125 0 -0.5625 -0.03125q-0.234375 -0.03125 -0.40625 -0.078125l0 -1.53125q0.140625 0.03125 0.328125 0.046875q0.203125 0.03125 0.421875 0.03125q0.40625 0 0.671875 -0.171875q0.28125 -0.15625 0.453125 -0.421875q0.1875 -0.25 0.3125 -0.59375l0.15625 -0.390625l-2.796875 -6.984375z" fill-rule="nonzero"/><path fill="#cfe2f3" d="m464.74612 39.879265l121.73227 0l0 81.22835l-121.73227 0z" fill-rule="evenodd"/><path stroke="#000000" stroke-width="0.4015748031496063" stroke-linejoin="round" stroke-linecap="butt" d="m464.74612 39.879265l121.73227 0l0 81.22835l-121.73227 0z" fill-rule="evenodd"/><path fill="#cfe2f3" d="m464.74612 176.30951l121.73227 0l0 81.22836l-121.73227 0z" fill-rule="evenodd"/><path stroke="#000000" stroke-width="0.4015748031496063" stroke-linejoin="round" stroke-linecap="butt" d="m464.74612 176.30951l121.73227 0l0 81.22836l-121.73227 0z" fill-rule="evenodd"/><path fill="#cfe2f3" d="m464.74612 301.72464l121.73227 0l0 81.22836l-121.73227 0z" fill-rule="evenodd"/><path stroke="#000000" stroke-width="0.4015748031496063" stroke-linejoin="round" stroke-linecap="butt" d="m464.74612 301.72464l121.73227 0l0 81.22836l-121.73227 0z" fill-rule="evenodd"/><path fill="#000000" fill-opacity="0.0" d="m341.5778 216.92369l61.591766 0l0 -136.44095l61.589325 0" fill-rule="evenodd"/><path stroke="#000000" stroke-width="0.6430446194225722" stroke-linejoin="round" stroke-linecap="butt" d="m341.5778 216.92368l61.591797 0l0 -136.44093l57.73105 0" fill-rule="evenodd"/><path fill="#000000" stroke="#000000" stroke-width="0.6430446194225722" stroke-linecap="butt" d="m460.90063 81.544876l2.9181824 -1.0621338l-2.9181824 -1.0621414z" fill-rule="evenodd"/><path fill="#000000" fill-opacity="0.0" d="m341.5778 216.92369l61.591766 0l0 125.41731l61.589325 0" fill-rule="evenodd"/><path stroke="#000000" stroke-width="0.6430446194225722" stroke-linejoin="round" stroke-linecap="butt" d="m341.5778 216.92368l61.591797 0l0 125.41733l57.73105 0" fill-rule="evenodd"/><path fill="#000000" stroke="#000000" stroke-width="0.6430446194225722" stroke-linecap="butt" d="m460.90063 343.40314l2.9181824 -1.0621338l-2.9181824 -1.0621338z" fill-rule="evenodd"/><path fill="#000000" fill-opacity="0.0" d="m341.5778 216.92369l61.591766 0l0 0.06298828l61.589325 0" fill-rule="evenodd"/><path stroke="#000000" stroke-width="0.6430446194225722" stroke-linejoin="round" stroke-linecap="butt" d="m341.5778 216.92368l61.591797 0l0 0.06300354l57.73105 0" fill-rule="evenodd"/><path fill="#000000" stroke="#000000" stroke-width="0.6430446194225722" stroke-linecap="butt" d="m460.90063 218.04881l2.9181824 -1.0621338l-2.9181824 -1.062149z" fill-rule="evenodd"/><path fill="#000000" fill-opacity="0.0" d="m143.7575 216.9313l76.0945 0" fill-rule="evenodd"/><path stroke="#000000" stroke-width="0.6430446194225722" stroke-linejoin="round" stroke-linecap="butt" d="m143.7575 216.9313l72.23622 0" fill-rule="evenodd"/><path fill="#000000" stroke="#000000" stroke-width="0.6430446194225722" stroke-linecap="butt" d="m215.99373 217.99344l2.9181976 -1.0621338l-2.9181976 -1.0621338z" fill-rule="evenodd"/><path fill="#000000" fill-opacity="0.0" d="m470.1065 121.09439l90.04724 0l0 23.055115l-90.04724 0z" fill-rule="evenodd"/><path fill="#000000" d="m479.57526 133.7563q0 0.8125 -0.390625 1.40625q-0.390625 0.59375 -1.140625 0.921875q-0.734375 0.3125 -1.796875 0.3125q-0.46875 0 -0.921875 -0.0625q-0.4375 -0.0625 -0.859375 -0.171875q-0.40625 -0.125 -0.78125 -0.3125l0 -1.78125q0.65625 0.28125 1.34375 0.515625q0.6875 0.234375 1.375 0.234375q0.46875 0 0.75 -0.125q0.28125 -0.125 0.40625 -0.34375q0.140625 -0.21875 0.140625 -0.5q0 -0.34375 -0.234375 -0.578125q-0.234375 -0.25 -0.625 -0.453125q-0.390625 -0.203125 -0.890625 -0.453125q-0.328125 -0.15625 -0.703125 -0.359375q-0.359375 -0.203125 -0.703125 -0.515625q-0.328125 -0.3125 -0.546875 -0.75q-0.203125 -0.453125 -0.203125 -1.078125q0 -0.796875 0.375 -1.375q0.375 -0.578125 1.0625 -0.875q0.6875 -0.3125 1.625 -0.3125q0.703125 0 1.34375 0.171875q0.640625 0.15625 1.34375 0.453125l-0.625 1.5q-0.609375 -0.25 -1.109375 -0.390625q-0.5 -0.140625 -1.015625 -0.140625q-0.359375 0 -0.609375 0.125q-0.25 0.109375 -0.390625 0.3125q-0.125 0.203125 -0.125 0.46875q0 0.328125 0.1875 0.546875q0.1875 0.21875 0.5625 0.421875q0.390625 0.203125 0.953125 0.484375q0.703125 0.328125 1.1875 0.6875q0.484375 0.34375 0.75 0.828125q0.265625 0.484375 0.265625 1.1875zm7.810364 -4.40625l0 6.921875l-1.46875 0l-0.234375 -0.890625l-0.125 0q-0.203125 0.359375 -0.546875 0.59375q-0.328125 0.21875 -0.734375 0.3125q-0.40625 0.109375 -0.84375 0.109375q-0.734375 0 -1.28125 -0.265625q-0.546875 -0.265625 -0.859375 -0.8125q-0.3125 -0.5625 -0.3125 -1.453125l0 -4.515625l1.921875 0l0 4.03125q0 0.734375 0.25 1.109375q0.265625 0.375 0.84375 0.375q0.578125 0 0.890625 -0.25q0.328125 -0.265625 0.453125 -0.765625q0.140625 -0.515625 0.140625 -1.25l0 -3.25l1.90625 0zm3.7836304 -0.46875q0 0.390625 -0.03125 0.75q-0.015625 0.359375 -0.046875 0.625l0.078125 0q0.28125 -0.4375 0.75 -0.734375q0.46875 -0.296875 1.203125 -0.296875q1.15625 0 1.875 0.90625q0.734375 0.90625 0.734375 2.671875q0 1.171875 -0.34375 1.984375q-0.328125 0.796875 -0.9375 1.203125q-0.59375 0.40625 -1.375 0.40625q-0.765625 0 -1.203125 -0.265625q-0.421875 -0.28125 -0.703125 -0.609375l-0.125 0l-0.328125 0.75l-1.46875 0l0 -9.625l1.921875 0l0 2.234375zm1.34375 1.859375q-0.484375 0 -0.78125 0.203125q-0.296875 0.203125 -0.4375 0.625q-0.125 0.40625 -0.125 1.0625l0 0.234375q0 0.96875 0.296875 1.484375q0.296875 0.5 1.0625 0.5q0.625 0 0.9375 -0.53125q0.328125 -0.53125 0.328125 -1.546875q0 -1.0 -0.3125 -1.515625q-0.3125 -0.515625 -0.96875 -0.515625zm9.649292 3.484375q0 0.671875 -0.3125 1.15625q-0.3125 0.484375 -0.953125 0.75q-0.625 0.265625 -1.59375 0.265625q-0.734375 0 -1.296875 -0.09375q-0.5625 -0.09375 -1.078125 -0.3125l0 -1.578125q0.5625 0.265625 1.203125 0.421875q0.65625 0.140625 1.125 0.140625q0.578125 0 0.828125 -0.15625q0.265625 -0.171875 0.265625 -0.453125q0 -0.1875 -0.140625 -0.328125q-0.125 -0.15625 -0.46875 -0.3125q-0.328125 -0.171875 -0.953125 -0.421875q-0.609375 -0.25 -1.03125 -0.515625q-0.421875 -0.28125 -0.640625 -0.65625q-0.203125 -0.390625 -0.203125 -0.953125q0 -0.953125 0.75 -1.453125q0.765625 -0.5 2.0 -0.5q0.671875 0 1.25 0.140625q0.578125 0.140625 1.171875 0.390625l-0.546875 1.3125q-0.484375 -0.21875 -1.0 -0.359375q-0.5 -0.140625 -0.890625 -0.140625q-0.4375 0 -0.6875 0.140625q-0.234375 0.125 -0.234375 0.359375q0 0.1875 0.125 0.328125q0.140625 0.140625 0.46875 0.296875q0.34375 0.140625 0.953125 0.390625q0.625 0.234375 1.046875 0.515625q0.421875 0.265625 0.625 0.65625q0.21875 0.375 0.21875 0.96875zm4.470703 2.171875q-1.0 0 -1.75 -0.375q-0.75 -0.375 -1.171875 -1.15625q-0.421875 -0.796875 -0.421875 -2.015625q0 -1.28125 0.453125 -2.078125q0.46875 -0.796875 1.25 -1.171875q0.78125 -0.375 1.78125 -0.375q0.609375 0 1.140625 0.125q0.546875 0.125 0.96875 0.34375l-0.578125 1.453125q-0.375 -0.171875 -0.765625 -0.28125q-0.390625 -0.109375 -0.765625 -0.109375q-0.484375 0 -0.828125 0.234375q-0.34375 0.21875 -0.53125 0.6875q-0.171875 0.46875 -0.171875 1.15625q0 0.6875 0.171875 1.140625q0.1875 0.4375 0.53125 0.65625q0.34375 0.21875 0.8125 0.21875q0.53125 0 1.015625 -0.140625q0.484375 -0.140625 0.921875 -0.390625l0 1.5625q-0.40625 0.234375 -0.90625 0.375q-0.484375 0.140625 -1.15625 0.140625zm7.3511963 -7.171875q0.1875 0 0.40625 0.03125q0.234375 0.015625 0.359375 0.046875l-0.1875 1.78125q-0.140625 -0.015625 -0.34375 -0.046875q-0.1875 -0.03125 -0.453125 -0.03125q-0.28125 0 -0.578125 0.09375q-0.296875 0.09375 -0.5625 0.296875q-0.25 0.203125 -0.40625 0.53125q-0.140625 0.328125 -0.140625 0.828125l0 3.515625l-1.9218445 0l0 -6.921875l1.453125 0l0.28125 1.171875l0.09375 0q0.20309448 -0.375 0.49996948 -0.65625q0.3125 -0.296875 0.6875 -0.46875q0.390625 -0.171875 0.8125 -0.171875zm3.7581177 0.125l0 6.921875l-1.90625 0l0 -6.921875l1.90625 0zm-0.9375 -2.71875q0.40625 0 0.71875 0.203125q0.3125 0.1875 0.3125 0.734375q0 0.515625 -0.3125 0.71875q-0.3125 0.203125 -0.71875 0.203125q-0.4375 0 -0.75 -0.203125q-0.296875 -0.203125 -0.296875 -0.71875q0 -0.546875 0.296875 -0.734375q0.3125 -0.203125 0.75 -0.203125zm4.7264404 2.25q0 0.390625 -0.03125 0.75q-0.015625 0.359375 -0.046875 0.625l0.078125 0q0.28125 -0.4375 0.75 -0.734375q0.46875 -0.296875 1.203125 -0.296875q1.15625 0 1.875 0.90625q0.734375 0.90625 0.734375 2.671875q0 1.171875 -0.34375 1.984375q-0.328125 0.796875 -0.9375 1.203125q-0.59375 0.40625 -1.375 0.40625q-0.765625 0 -1.203125 -0.265625q-0.421875 -0.28125 -0.703125 -0.609375l-0.125 0l-0.328125 0.75l-1.46875 0l0 -9.625l1.921875 0l0 2.234375zm1.34375 1.859375q-0.484375 0 -0.78125 0.203125q-0.296875 0.203125 -0.4375 0.625q-0.125 0.40625 -0.125 1.0625l0 0.234375q0 0.96875 0.296875 1.484375q0.296875 0.5 1.0625 0.5q0.625 0 0.9375 -0.53125q0.328125 -0.53125 0.328125 -1.546875q0 -1.0 -0.3125 -1.515625q-0.3125 -0.515625 -0.96875 -0.515625zm7.696167 -1.515625q0.96875 0 1.65625 0.359375q0.703125 0.359375 1.078125 1.0625q0.375 0.703125 0.375 1.71875l0 0.921875l-4.453125 0q0.03125 0.796875 0.484375 1.25q0.453125 0.4375 1.3125 0.4375q0.640625 0 1.171875 -0.125q0.53125 -0.125 1.09375 -0.375l0 1.421875q-0.515625 0.265625 -1.078125 0.375q-0.5625 0.125 -1.390625 0.125q-1.03125 0 -1.828125 -0.375q-0.78125 -0.390625 -1.25 -1.171875q-0.453125 -0.796875 -0.453125 -1.984375q0 -1.21875 0.40625 -2.015625q0.421875 -0.8125 1.15625 -1.21875q0.75 -0.40625 1.71875 -0.40625zm0.046875 1.359375q-0.5625 0 -0.921875 0.359375q-0.359375 0.359375 -0.421875 1.078125l2.625 0q0 -0.421875 -0.140625 -0.734375q-0.140625 -0.328125 -0.4375 -0.515625q-0.28125 -0.1875 -0.703125 -0.1875zm8.3932495 -1.359375q0.1875 0 0.40625 0.03125q0.234375 0.015625 0.359375 0.046875l-0.1875 1.78125q-0.140625 -0.015625 -0.34375 -0.046875q-0.1875 -0.03125 -0.453125 -0.03125q-0.28125 0 -0.578125 0.09375q-0.296875 0.09375 -0.5625 0.296875q-0.25 0.203125 -0.40625 0.53125q-0.140625 0.328125 -0.140625 0.828125l0 3.515625l-1.921875 0l0 -6.921875l1.453125 0l0.28125 1.171875l0.09375 0q0.203125 -0.375 0.5 -0.65625q0.3125 -0.296875 0.6875 -0.46875q0.390625 -0.171875 0.8125 -0.171875z" fill-rule="nonzero"/><path fill="#000000" fill-opacity="0.0" d="m464.74646 257.52463l90.04724 0l0 23.055145l-90.04724 0z" fill-rule="evenodd"/><path fill="#000000" d="m474.2152 270.18655q0 0.8125 -0.390625 1.40625q-0.390625 0.59375 -1.140625 0.921875q-0.734375 0.3125 -1.796875 0.3125q-0.46875 0 -0.921875 -0.0625q-0.4375 -0.0625 -0.859375 -0.171875q-0.40625 -0.125 -0.78125 -0.3125l0 -1.78125q0.65625 0.28125 1.34375 0.515625q0.6875 0.234375 1.375 0.234375q0.46875 0 0.75 -0.125q0.28125 -0.125 0.40625 -0.34375q0.140625 -0.21875 0.140625 -0.5q0 -0.34375 -0.234375 -0.578125q-0.234375 -0.25 -0.625 -0.453125q-0.390625 -0.203125 -0.890625 -0.453125q-0.328125 -0.15625 -0.703125 -0.359375q-0.359375 -0.203125 -0.703125 -0.515625q-0.328125 -0.3125 -0.546875 -0.75q-0.203125 -0.453125 -0.203125 -1.078125q0 -0.796875 0.375 -1.375q0.375 -0.578125 1.0625 -0.875q0.6875 -0.3125 1.625 -0.3125q0.703125 0 1.34375 0.171875q0.640625 0.15625 1.34375 0.453125l-0.625 1.5q-0.609375 -0.25 -1.109375 -0.390625q-0.5 -0.140625 -1.015625 -0.140625q-0.359375 0 -0.609375 0.125q-0.25 0.109375 -0.390625 0.3125q-0.125 0.203125 -0.125 0.46875q0 0.328125 0.1875 0.546875q0.1875 0.21875 0.5625 0.421875q0.390625 0.203125 0.953125 0.484375q0.703125 0.328125 1.1875 0.6875q0.484375 0.34375 0.75 0.828125q0.265625 0.484375 0.265625 1.1875zm7.810364 -4.40625l0 6.921875l-1.46875 0l-0.234375 -0.890625l-0.125 0q-0.203125 0.359375 -0.546875 0.59375q-0.328125 0.21875 -0.734375 0.3125q-0.40625 0.109375 -0.84375 0.109375q-0.734375 0 -1.28125 -0.265625q-0.546875 -0.265625 -0.859375 -0.8125q-0.3125 -0.5625 -0.3125 -1.453125l0 -4.515625l1.921875 0l0 4.03125q0 0.734375 0.25 1.109375q0.265625 0.375 0.84375 0.375q0.578125 0 0.890625 -0.25q0.328125 -0.265625 0.453125 -0.765625q0.140625 -0.515625 0.140625 -1.25l0 -3.25l1.90625 0zm3.783661 -0.46875q0 0.390625 -0.03125 0.75q-0.015625 0.359375 -0.046875 0.625l0.078125 0q0.28125 -0.4375 0.75 -0.734375q0.46875 -0.296875 1.203125 -0.296875q1.15625 0 1.875 0.90625q0.734375 0.90625 0.734375 2.671875q0 1.171875 -0.34375 1.984375q-0.328125 0.796875 -0.9375 1.203125q-0.59375 0.40625 -1.375 0.40625q-0.765625 0 -1.203125 -0.265625q-0.421875 -0.28125 -0.703125 -0.609375l-0.125 0l-0.328125 0.75l-1.46875 0l0 -9.625l1.921875 0l0 2.234375zm1.34375 1.859375q-0.484375 0 -0.78125 0.203125q-0.296875 0.203125 -0.4375 0.625q-0.125 0.40625 -0.125 1.0625l0 0.234375q0 0.96875 0.296875 1.484375q0.296875 0.5 1.0625 0.5q0.625 0 0.9375 -0.53125q0.328125 -0.53125 0.328125 -1.546875q0 -1.0 -0.3125 -1.515625q-0.3125 -0.515625 -0.96875 -0.515625zm9.649292 3.484375q0 0.671875 -0.3125 1.15625q-0.3125 0.484375 -0.953125 0.75q-0.625 0.265625 -1.59375 0.265625q-0.734375 0 -1.296875 -0.09375q-0.5625 -0.09375 -1.078125 -0.3125l0 -1.578125q0.5625 0.265625 1.203125 0.421875q0.65625 0.140625 1.125 0.140625q0.578125 0 0.828125 -0.15625q0.265625 -0.171875 0.265625 -0.453125q0 -0.1875 -0.140625 -0.328125q-0.125 -0.15625 -0.46875 -0.3125q-0.328125 -0.171875 -0.953125 -0.421875q-0.609375 -0.25 -1.03125 -0.515625q-0.421875 -0.28125 -0.640625 -0.65625q-0.203125 -0.390625 -0.203125 -0.953125q0 -0.953125 0.75 -1.453125q0.765625 -0.5 2.0 -0.5q0.671875 0 1.25 0.140625q0.578125 0.140625 1.171875 0.390625l-0.546875 1.3125q-0.484375 -0.21875 -1.0 -0.359375q-0.5 -0.140625 -0.890625 -0.140625q-0.4375 0 -0.6875 0.140625q-0.234375 0.125 -0.234375 0.359375q0 0.1875 0.125 0.328125q0.140625 0.140625 0.46875 0.296875q0.34375 0.140625 0.953125 0.390625q0.625 0.234375 1.046875 0.515625q0.421875 0.265625 0.625 0.65625q0.21875 0.375 0.21875 0.96875zm4.4706726 2.171875q-1.0 0 -1.75 -0.375q-0.75 -0.375 -1.171875 -1.15625q-0.421875 -0.796875 -0.421875 -2.015625q0 -1.28125 0.453125 -2.078125q0.46875 -0.796875 1.25 -1.171875q0.78125 -0.375 1.78125 -0.375q0.609375 0 1.140625 0.125q0.546875 0.125 0.96875 0.34375l-0.578125 1.453125q-0.375 -0.171875 -0.765625 -0.28125q-0.390625 -0.109375 -0.765625 -0.109375q-0.484375 0 -0.828125 0.234375q-0.34375 0.21875 -0.53125 0.6875q-0.171875 0.46875 -0.171875 1.15625q0 0.6875 0.171875 1.140625q0.1875 0.4375 0.53125 0.65625q0.34375 0.21875 0.8125 0.21875q0.53125 0 1.015625 -0.140625q0.484375 -0.140625 0.921875 -0.390625l0 1.5625q-0.40625 0.234375 -0.90625 0.375q-0.484375 0.140625 -1.15625 0.140625zm7.351227 -7.171875q0.1875 0 0.40625 0.03125q0.234375 0.015625 0.359375 0.046875l-0.1875 1.78125q-0.140625 -0.015625 -0.34375 -0.046875q-0.1875 -0.03125 -0.453125 -0.03125q-0.28125 0 -0.578125 0.09375q-0.296875 0.09375 -0.5625 0.296875q-0.25 0.203125 -0.40625 0.53125q-0.140625 0.328125 -0.140625 0.828125l0 3.515625l-1.921875 0l0 -6.921875l1.453125 0l0.28125 1.171875l0.09375 0q0.203125 -0.375 0.5 -0.65625q0.3125 -0.296875 0.6875 -0.46875q0.390625 -0.171875 0.8125 -0.171875zm3.7581482 0.125l0 6.921875l-1.9062805 0l0 -6.921875l1.9062805 0zm-0.9375305 -2.71875q0.40625 0 0.7187805 0.203125q0.3125 0.1875 0.3125 0.734375q0 0.515625 -0.3125 0.71875q-0.31253052 0.203125 -0.7187805 0.203125q-0.4375 0 -0.75 -0.203125q-0.296875 -0.203125 -0.296875 -0.71875q0 -0.546875 0.296875 -0.734375q0.3125 -0.203125 0.75 -0.203125zm4.72641 2.25q0 0.390625 -0.03125 0.75q-0.015625 0.359375 -0.046875 0.625l0.078125 0q0.28125 -0.4375 0.75 -0.734375q0.46875 -0.296875 1.203125 -0.296875q1.15625 0 1.875 0.90625q0.734375 0.90625 0.734375 2.671875q0 1.171875 -0.34375 1.984375q-0.328125 0.796875 -0.9375 1.203125q-0.59375 0.40625 -1.375 0.40625q-0.765625 0 -1.203125 -0.265625q-0.421875 -0.28125 -0.703125 -0.609375l-0.125 0l-0.328125 0.75l-1.46875 0l0 -9.625l1.921875 0l0 2.234375zm1.34375 1.859375q-0.484375 0 -0.78125 0.203125q-0.296875 0.203125 -0.4375 0.625q-0.125 0.40625 -0.125 1.0625l0 0.234375q0 0.96875 0.296875 1.484375q0.296875 0.5 1.0625 0.5q0.625 0 0.9375 -0.53125q0.328125 -0.53125 0.328125 -1.546875q0 -1.0 -0.3125 -1.515625q-0.3125 -0.515625 -0.96875 -0.515625zm7.696167 -1.515625q0.96875 0 1.65625 0.359375q0.703125 0.359375 1.078125 1.0625q0.375 0.703125 0.375 1.71875l0 0.921875l-4.453125 0q0.03125 0.796875 0.484375 1.25q0.453125 0.4375 1.3125 0.4375q0.640625 0 1.171875 -0.125q0.53125 -0.125 1.09375 -0.375l0 1.421875q-0.515625 0.265625 -1.078125 0.375q-0.5625 0.125 -1.390625 0.125q-1.03125 0 -1.828125 -0.375q-0.78125 -0.390625 -1.25 -1.171875q-0.453125 -0.796875 -0.453125 -1.984375q0 -1.21875 0.40625 -2.015625q0.421875 -0.8125 1.15625 -1.21875q0.75 -0.40625 1.71875 -0.40625zm0.046875 1.359375q-0.5625 0 -0.921875 0.359375q-0.359375 0.359375 -0.421875 1.078125l2.625 0q0 -0.421875 -0.140625 -0.734375q-0.140625 -0.328125 -0.4375 -0.515625q-0.28125 -0.1875 -0.703125 -0.1875zm8.393311 -1.359375q0.1875 0 0.40625 0.03125q0.234375 0.015625 0.359375 0.046875l-0.1875 1.78125q-0.140625 -0.015625 -0.34375 -0.046875q-0.1875 -0.03125 -0.453125 -0.03125q-0.28125 0 -0.578125 0.09375q-0.296875 0.09375 -0.5625 0.296875q-0.25 0.203125 -0.40625 0.53125q-0.140625 0.328125 -0.140625 0.828125l0 3.515625l-1.921875 0l0 -6.921875l1.453125 0l0.28125 1.171875l0.09375 0q0.203125 -0.375 0.5 -0.65625q0.3125 -0.296875 0.6875 -0.46875q0.390625 -0.171875 0.8125 -0.171875z" fill-rule="nonzero"/><path fill="#000000" fill-opacity="0.0" d="m464.74646 382.9398l90.04724 0l0 23.055115l-90.04724 0z" fill-rule="evenodd"/><path fill="#000000" d="m471.60583 389.07043q1.1875 0 1.96875 0.296875q0.78125 0.296875 1.171875 0.890625q0.390625 0.578125 0.390625 1.453125q0 0.609375 -0.21875 1.078125q-0.21875 0.46875 -0.59375 0.796875q-0.359375 0.328125 -0.828125 0.546875l2.578125 3.984375l-2.21875 0l-2.015625 -3.46875l-1.078125 0l0 3.46875l-1.9375 0l0 -9.046875l2.78125 0zm-0.046875 1.5l-0.796875 0l0 2.578125l0.796875 0q0.78125 0 1.1875 -0.3125q0.421875 -0.3125 0.421875 -1.046875q0 -0.40625 -0.171875 -0.671875q-0.171875 -0.265625 -0.53125 -0.40625q-0.34375 -0.140625 -0.90625 -0.140625zm8.375305 0.5q0.96875 0 1.65625 0.359375q0.703125 0.359375 1.078125 1.0625q0.375 0.703125 0.375 1.71875l0 0.921875l-4.453125 0q0.03125 0.796875 0.484375 1.25q0.453125 0.4375 1.3125 0.4375q0.640625 0 1.171875 -0.125q0.53125 -0.125 1.09375 -0.375l0 1.421875q-0.515625 0.265625 -1.078125 0.375q-0.5625 0.125 -1.390625 0.125q-1.03125 0 -1.828125 -0.375q-0.78125 -0.390625 -1.25 -1.171875q-0.453125 -0.796875 -0.453125 -1.984375q0 -1.21875 0.40625 -2.015625q0.421875 -0.8125 1.15625 -1.21875q0.75 -0.40625 1.71875 -0.40625zm0.046875 1.359375q-0.5625 0 -0.921875 0.359375q-0.359375 0.359375 -0.421875 1.078125l2.625 0q0 -0.421875 -0.140625 -0.734375q-0.140625 -0.328125 -0.4375 -0.515625q-0.28125 -0.1875 -0.703125 -0.1875zm6.48703 5.6875l-1.921875 0l0 -9.625l1.921875 0l0 9.625zm4.94812 -7.046875q1.3125 0 1.984375 0.625q0.6875 0.609375 0.6875 1.8125l0 4.609375l-1.328125 0l-0.359375 -0.9375l-0.0625 0q-0.28125 0.375 -0.59375 0.609375q-0.3125 0.234375 -0.71875 0.34375q-0.40625 0.109375 -0.984375 0.109375q-0.609375 0 -1.09375 -0.234375q-0.484375 -0.234375 -0.765625 -0.71875q-0.28125 -0.484375 -0.28125 -1.21875q0 -1.078125 0.78125 -1.625q0.796875 -0.546875 2.359375 -0.609375l1.15625 -0.046875l0 -0.203125q0 -0.625 -0.28125 -0.875q-0.28125 -0.25 -0.796875 -0.25q-0.46875 0 -0.96875 0.15625q-0.484375 0.15625 -0.96875 0.375l-0.546875 -1.3125q0.546875 -0.28125 1.25 -0.4375q0.703125 -0.171875 1.53125 -0.171875zm0.046875 3.875q-0.890625 0.03125 -1.25 0.296875q-0.359375 0.265625 -0.359375 0.75q0 0.4375 0.25 0.65625q0.25 0.203125 0.671875 0.203125q0.59375 0 1.0 -0.359375q0.421875 -0.359375 0.421875 -1.015625l0 -0.5625l-0.734375 0.03125zm3.5280151 -3.75l2.015625 0l1.296875 3.953125q0.078125 0.1875 0.125 0.390625q0.0625 0.203125 0.109375 0.40625q0.046875 0.1875 0.0625 0.390625l0.046875 0q0.046875 -0.265625 0.140625 -0.578125q0.09375 -0.328125 0.1875 -0.609375l1.28125 -3.953125l1.96875 0l-2.84375 7.5625q-0.265625 0.765625 -0.65625 1.296875q-0.390625 0.546875 -0.953125 0.828125q-0.546875 0.28125 -1.375 0.28125q-0.3125 0 -0.5625 -0.03125q-0.234375 -0.03125 -0.40625 -0.078125l0 -1.5q0.140625 0.015625 0.328125 0.046875q0.203125 0.03125 0.421875 0.03125q0.390625 0 0.65625 -0.171875q0.265625 -0.15625 0.4375 -0.421875q0.1875 -0.25 0.3125 -0.578125l0.15625 -0.390625l-2.75 -6.875zm17.35849 6.921875l-6.3280945 0l0 -1.328125l2.28125 -2.296875q0.671875 -0.703125 1.09375 -1.171875q0.421875 -0.484375 0.609375 -0.875q0.1875 -0.390625 0.1875 -0.828125q0 -0.546875 -0.296875 -0.8125q-0.296875 -0.265625 -0.796875 -0.265625q-0.53125 0 -1.03125 0.25q-0.484375 0.234375 -1.03125 0.671875l-1.03125 -1.21875q0.390625 -0.34375 0.828125 -0.640625q0.4375 -0.296875 1.015625 -0.46875q0.578125 -0.1875 1.390625 -0.1875q0.875 0 1.515625 0.328125q0.640625 0.3125 0.984375 0.875q0.35934448 0.546875 0.35934448 1.234375q0 0.75 -0.29684448 1.375q-0.296875 0.625 -0.859375 1.234375q-0.5625 0.609375 -1.359375 1.34375l-1.171875 1.078125l0 0.09375l3.9374695 0l0 1.609375z" fill-rule="nonzero"/><path fill="#000000" d="m153.46922 211.92987l8.629913 4.9921265l-8.629913 4.9921265z" fill-rule="evenodd"/><path fill="#000000" d="m173.76956 211.92987l8.629913 4.9921265l-8.629913 4.9921265z" fill-rule="evenodd"/><path fill="#000000" d="m192.1191 211.9501l8.629929 4.9921265l-8.629929 4.9921265z" fill-rule="evenodd"/><path fill="#000000" d="m374.2286 211.9501l8.629944 4.9921265l-8.629944 4.9921265z" fill-rule="evenodd"/><path fill="#000000" d="m426.4025 75.49962l8.629944 4.9921265l-8.629944 4.9921265z" fill-rule="evenodd"/><path fill="#000000" d="m426.4025 211.9501l8.629944 4.9921265l-8.629944 4.9921265z" fill-rule="evenodd"/><path fill="#000000" d="m426.4025 337.345l8.629944 4.9921265l-8.629944 4.9921265z" fill-rule="evenodd"/><path fill="#cfe2f3" d="m724.4154 169.49344l121.7323 0l0 81.22835l-121.7323 0z" fill-rule="evenodd"/><path stroke="#000000" stroke-width="0.4015748031496063" stroke-linejoin="round" stroke-linecap="butt" d="m724.4154 169.49344l121.7323 0l0 81.22835l-121.7323 0z" fill-rule="evenodd"/><path fill="#cfe2f3" d="m724.4154 305.92368l121.7323 0l0 81.22836l-121.7323 0z" fill-rule="evenodd"/><path stroke="#000000" stroke-width="0.4015748031496063" stroke-linejoin="round" stroke-linecap="butt" d="m724.4154 305.92368l121.7323 0l0 81.22836l-121.7323 0z" fill-rule="evenodd"/><path fill="#000000" fill-opacity="0.0" d="m729.7758 250.70857l90.04724 0l0 23.0551l-90.04724 0z" fill-rule="evenodd"/><path fill="#000000" d="m739.24457 263.37048q0 0.8125 -0.390625 1.40625q-0.390625 0.59375 -1.140625 0.921875q-0.734375 0.3125 -1.796875 0.3125q-0.46875 0 -0.921875 -0.0625q-0.4375 -0.0625 -0.859375 -0.171875q-0.40625 -0.125 -0.78125 -0.3125l0 -1.78125q0.65625 0.28125 1.34375 0.515625q0.6875 0.234375 1.375 0.234375q0.46875 0 0.75 -0.125q0.28125 -0.125 0.40625 -0.34375q0.140625 -0.21875 0.140625 -0.5q0 -0.34375 -0.234375 -0.578125q-0.234375 -0.25 -0.625 -0.453125q-0.390625 -0.203125 -0.890625 -0.453125q-0.328125 -0.15625 -0.703125 -0.359375q-0.359375 -0.203125 -0.703125 -0.515625q-0.328125 -0.3125 -0.546875 -0.75q-0.203125 -0.453125 -0.203125 -1.078125q0 -0.796875 0.375 -1.375q0.375 -0.578125 1.0625 -0.875q0.6875 -0.3125 1.625 -0.3125q0.703125 0 1.34375 0.171875q0.640625 0.15625 1.34375 0.453125l-0.625 1.5q-0.609375 -0.25 -1.109375 -0.390625q-0.5 -0.140625 -1.015625 -0.140625q-0.359375 0 -0.609375 0.125q-0.25 0.109375 -0.390625 0.3125q-0.125 0.203125 -0.125 0.46875q0 0.328125 0.1875 0.546875q0.1875 0.21875 0.5625 0.421875q0.390625 0.203125 0.953125 0.484375q0.703125 0.328125 1.1875 0.6875q0.484375 0.34375 0.75 0.828125q0.265625 0.484375 0.265625 1.1875zm7.810364 -4.40625l0 6.921875l-1.46875 0l-0.234375 -0.890625l-0.125 0q-0.203125 0.359375 -0.546875 0.59375q-0.328125 0.21875 -0.734375 0.3125q-0.40625 0.109375 -0.84375 0.109375q-0.734375 0 -1.28125 -0.265625q-0.546875 -0.265625 -0.859375 -0.8125q-0.3125 -0.5625 -0.3125 -1.453125l0 -4.515625l1.921875 0l0 4.03125q0 0.734375 0.25 1.109375q0.265625 0.375 0.84375 0.375q0.578125 0 0.890625 -0.25q0.328125 -0.265625 0.453125 -0.765625q0.140625 -0.515625 0.140625 -1.25l0 -3.25l1.90625 0zm3.7836304 -0.46875q0 0.390625 -0.03125 0.75q-0.015625 0.359375 -0.046875 0.625l0.078125 0q0.28125 -0.4375 0.75 -0.734375q0.46875 -0.296875 1.203125 -0.296875q1.15625 0 1.875 0.90625q0.734375 0.90625 0.734375 2.671875q0 1.171875 -0.34375 1.984375q-0.328125 0.796875 -0.9375 1.203125q-0.59375 0.40625 -1.375 0.40625q-0.765625 0 -1.203125 -0.265625q-0.421875 -0.28125 -0.703125 -0.609375l-0.125 0l-0.328125 0.75l-1.46875 0l0 -9.625l1.921875 0l0 2.234375zm1.34375 1.859375q-0.484375 0 -0.78125 0.203125q-0.296875 0.203125 -0.4375 0.625q-0.125 0.40625 -0.125 1.0625l0 0.234375q0 0.96875 0.296875 1.484375q0.296875 0.5 1.0625 0.5q0.625 0 0.9375 -0.53125q0.328125 -0.53125 0.328125 -1.546875q0 -1.0 -0.3125 -1.515625q-0.3125 -0.515625 -0.96875 -0.515625zm9.649292 3.484375q0 0.671875 -0.3125 1.15625q-0.3125 0.484375 -0.953125 0.75q-0.625 0.265625 -1.59375 0.265625q-0.734375 0 -1.296875 -0.09375q-0.5625 -0.09375 -1.078125 -0.3125l0 -1.578125q0.5625 0.265625 1.203125 0.421875q0.65625 0.140625 1.125 0.140625q0.578125 0 0.828125 -0.15625q0.265625 -0.171875 0.265625 -0.453125q0 -0.1875 -0.140625 -0.328125q-0.125 -0.15625 -0.46875 -0.3125q-0.328125 -0.171875 -0.953125 -0.421875q-0.609375 -0.25 -1.03125 -0.515625q-0.421875 -0.28125 -0.640625 -0.65625q-0.203125 -0.390625 -0.203125 -0.953125q0 -0.953125 0.75 -1.453125q0.765625 -0.5 2.0 -0.5q0.671875 0 1.25 0.140625q0.578125 0.140625 1.171875 0.390625l-0.546875 1.3125q-0.484375 -0.21875 -1.0 -0.359375q-0.5 -0.140625 -0.890625 -0.140625q-0.4375 0 -0.6875 0.140625q-0.234375 0.125 -0.234375 0.359375q0 0.1875 0.125 0.328125q0.140625 0.140625 0.46875 0.296875q0.34375 0.140625 0.953125 0.390625q0.625 0.234375 1.046875 0.515625q0.421875 0.265625 0.625 0.65625q0.21875 0.375 0.21875 0.96875zm4.470703 2.171875q-1.0 0 -1.75 -0.375q-0.75 -0.375 -1.171875 -1.15625q-0.421875 -0.796875 -0.421875 -2.015625q0 -1.28125 0.453125 -2.078125q0.46875 -0.796875 1.25 -1.171875q0.78125 -0.375 1.78125 -0.375q0.609375 0 1.140625 0.125q0.546875 0.125 0.96875 0.34375l-0.578125 1.453125q-0.375 -0.171875 -0.765625 -0.28125q-0.390625 -0.109375 -0.765625 -0.109375q-0.484375 0 -0.828125 0.234375q-0.34375 0.21875 -0.53125 0.6875q-0.171875 0.46875 -0.171875 1.15625q0 0.6875 0.171875 1.140625q0.1875 0.4375 0.53125 0.65625q0.34375 0.21875 0.8125 0.21875q0.53125 0 1.015625 -0.140625q0.484375 -0.140625 0.921875 -0.390625l0 1.5625q-0.40625 0.234375 -0.90625 0.375q-0.484375 0.140625 -1.15625 0.140625zm7.3511963 -7.171875q0.1875 0 0.40625 0.03125q0.234375 0.015625 0.359375 0.046875l-0.1875 1.78125q-0.140625 -0.015625 -0.34375 -0.046875q-0.1875 -0.03125 -0.453125 -0.03125q-0.28125 0 -0.578125 0.09375q-0.296875 0.09375 -0.5625 0.296875q-0.25 0.203125 -0.40625 0.53125q-0.140625 0.328125 -0.140625 0.828125l0 3.515625l-1.921875 0l0 -6.921875l1.453125 0l0.28125 1.171875l0.09375 0q0.203125 -0.375 0.5 -0.65625q0.3125 -0.296875 0.6875 -0.46875q0.390625 -0.171875 0.8125 -0.171875zm3.7581177 0.125l0 6.921875l-1.90625 0l0 -6.921875l1.90625 0zm-0.9375 -2.71875q0.40625 0 0.71875 0.203125q0.3125 0.1875 0.3125 0.734375q0 0.515625 -0.3125 0.71875q-0.3125 0.203125 -0.71875 0.203125q-0.4375 0 -0.75 -0.203125q-0.296875 -0.203125 -0.296875 -0.71875q0 -0.546875 0.296875 -0.734375q0.3125 -0.203125 0.75 -0.203125zm4.7264404 2.25q0 0.390625 -0.03125 0.75q-0.015625 0.359375 -0.046875 0.625l0.078125 0q0.28125 -0.4375 0.75 -0.734375q0.46875 -0.296875 1.203125 -0.296875q1.15625 0 1.875 0.90625q0.734375 0.90625 0.734375 2.671875q0 1.171875 -0.34375 1.984375q-0.328125 0.796875 -0.9375 1.203125q-0.59375 0.40625 -1.375 0.40625q-0.765625 0 -1.203125 -0.265625q-0.421875 -0.28125 -0.703125 -0.609375l-0.125 0l-0.328125 0.75l-1.46875 0l0 -9.625l1.921875 0l0 2.234375zm1.34375 1.859375q-0.484375 0 -0.78125 0.203125q-0.296875 0.203125 -0.4375 0.625q-0.125 0.40625 -0.125 1.0625l0 0.234375q0 0.96875 0.296875 1.484375q0.296875 0.5 1.0625 0.5q0.625 0 0.9375 -0.53125q0.328125 -0.53125 0.328125 -1.546875q0 -1.0 -0.3125 -1.515625q-0.3125 -0.515625 -0.96875 -0.515625zm7.696167 -1.515625q0.96875 0 1.65625 0.359375q0.703125 0.359375 1.078125 1.0625q0.375 0.703125 0.375 1.71875l0 0.921875l-4.453125 0q0.03125 0.796875 0.484375 1.25q0.453125 0.4375 1.3125 0.4375q0.640625 0 1.171875 -0.125q0.53125 -0.125 1.09375 -0.375l0 1.421875q-0.515625 0.265625 -1.078125 0.375q-0.5625 0.125 -1.390625 0.125q-1.03125 0 -1.828125 -0.375q-0.78125 -0.390625 -1.25 -1.171875q-0.453125 -0.796875 -0.453125 -1.984375q0 -1.21875 0.40625 -2.015625q0.421875 -0.8125 1.15625 -1.21875q0.75 -0.40625 1.71875 -0.40625zm0.046875 1.359375q-0.5625 0 -0.921875 0.359375q-0.359375 0.359375 -0.421875 1.078125l2.625 0q0 -0.421875 -0.140625 -0.734375q-0.140625 -0.328125 -0.4375 -0.515625q-0.28125 -0.1875 -0.703125 -0.1875zm8.3932495 -1.359375q0.1875 0 0.40625 0.03125q0.234375 0.015625 0.359375 0.046875l-0.1875 1.78125q-0.140625 -0.015625 -0.34375 -0.046875q-0.1875 -0.03125 -0.453125 -0.03125q-0.28125 0 -0.578125 0.09375q-0.296875 0.09375 -0.5625 0.296875q-0.25 0.203125 -0.40625 0.53125q-0.140625 0.328125 -0.140625 0.828125l0 3.515625l-1.921875 0l0 -6.921875l1.453125 0l0.28125 1.171875l0.09375 0q0.203125 -0.375 0.5 -0.65625q0.3125 -0.296875 0.6875 -0.46875q0.390625 -0.171875 0.8125 -0.171875z" fill-rule="nonzero"/><path fill="#000000" fill-opacity="0.0" d="m724.4158 387.13882l90.04724 0l0 23.055115l-90.04724 0z" fill-rule="evenodd"/><path fill="#000000" d="m733.8845 399.80072q0 0.8125 -0.390625 1.40625q-0.390625 0.59375 -1.140625 0.921875q-0.734375 0.3125 -1.796875 0.3125q-0.46875 0 -0.921875 -0.0625q-0.4375 -0.0625 -0.859375 -0.171875q-0.40625 -0.125 -0.78125 -0.3125l0 -1.78125q0.65625 0.28125 1.34375 0.515625q0.6875 0.234375 1.375 0.234375q0.46875 0 0.75 -0.125q0.28125 -0.125 0.40625 -0.34375q0.140625 -0.21875 0.140625 -0.5q0 -0.34375 -0.234375 -0.578125q-0.234375 -0.25 -0.625 -0.453125q-0.390625 -0.203125 -0.890625 -0.453125q-0.328125 -0.15625 -0.703125 -0.359375q-0.359375 -0.203125 -0.703125 -0.515625q-0.328125 -0.3125 -0.546875 -0.75q-0.203125 -0.453125 -0.203125 -1.078125q0 -0.796875 0.375 -1.375q0.375 -0.578125 1.0625 -0.875q0.6875 -0.3125 1.625 -0.3125q0.703125 0 1.34375 0.171875q0.640625 0.15625 1.34375 0.453125l-0.625 1.5q-0.609375 -0.25 -1.109375 -0.390625q-0.5 -0.140625 -1.015625 -0.140625q-0.359375 0 -0.609375 0.125q-0.25 0.109375 -0.390625 0.3125q-0.125 0.203125 -0.125 0.46875q0 0.328125 0.1875 0.546875q0.1875 0.21875 0.5625 0.421875q0.390625 0.203125 0.953125 0.484375q0.703125 0.328125 1.1875 0.6875q0.484375 0.34375 0.75 0.828125q0.265625 0.484375 0.265625 1.1875zm7.810364 -4.40625l0 6.921875l-1.46875 0l-0.234375 -0.890625l-0.125 0q-0.203125 0.359375 -0.546875 0.59375q-0.328125 0.21875 -0.734375 0.3125q-0.40625 0.109375 -0.84375 0.109375q-0.734375 0 -1.28125 -0.265625q-0.546875 -0.265625 -0.859375 -0.8125q-0.3125 -0.5625 -0.3125 -1.453125l0 -4.515625l1.921875 0l0 4.03125q0 0.734375 0.25 1.109375q0.265625 0.375 0.84375 0.375q0.578125 0 0.890625 -0.25q0.328125 -0.265625 0.453125 -0.765625q0.140625 -0.515625 0.140625 -1.25l0 -3.25l1.90625 0zm3.7836304 -0.46875q0 0.390625 -0.03125 0.75q-0.015625 0.359375 -0.046875 0.625l0.078125 0q0.28125 -0.4375 0.75 -0.734375q0.46875 -0.296875 1.203125 -0.296875q1.15625 0 1.875 0.90625q0.734375 0.90625 0.734375 2.671875q0 1.171875 -0.34375 1.984375q-0.328125 0.796875 -0.9375 1.203125q-0.59375 0.40625 -1.375 0.40625q-0.765625 0 -1.203125 -0.265625q-0.421875 -0.28125 -0.703125 -0.609375l-0.125 0l-0.328125 0.75l-1.46875 0l0 -9.625l1.921875 0l0 2.234375zm1.34375 1.859375q-0.484375 0 -0.78125 0.203125q-0.296875 0.203125 -0.4375 0.625q-0.125 0.40625 -0.125 1.0625l0 0.234375q0 0.96875 0.296875 1.484375q0.296875 0.5 1.0625 0.5q0.625 0 0.9375 -0.53125q0.328125 -0.53125 0.328125 -1.546875q0 -1.0 -0.3125 -1.515625q-0.3125 -0.515625 -0.96875 -0.515625zm9.649292 3.484375q0 0.671875 -0.3125 1.15625q-0.3125 0.484375 -0.953125 0.75q-0.625 0.265625 -1.59375 0.265625q-0.734375 0 -1.296875 -0.09375q-0.5625 -0.09375 -1.078125 -0.3125l0 -1.578125q0.5625 0.265625 1.203125 0.421875q0.65625 0.140625 1.125 0.140625q0.578125 0 0.828125 -0.15625q0.265625 -0.171875 0.265625 -0.453125q0 -0.1875 -0.140625 -0.328125q-0.125 -0.15625 -0.46875 -0.3125q-0.328125 -0.171875 -0.953125 -0.421875q-0.609375 -0.25 -1.03125 -0.515625q-0.421875 -0.28125 -0.640625 -0.65625q-0.203125 -0.390625 -0.203125 -0.953125q0 -0.953125 0.75 -1.453125q0.765625 -0.5 2.0 -0.5q0.671875 0 1.25 0.140625q0.578125 0.140625 1.171875 0.390625l-0.546875 1.3125q-0.484375 -0.21875 -1.0 -0.359375q-0.5 -0.140625 -0.890625 -0.140625q-0.4375 0 -0.6875 0.140625q-0.234375 0.125 -0.234375 0.359375q0 0.1875 0.125 0.328125q0.140625 0.140625 0.46875 0.296875q0.34375 0.140625 0.953125 0.390625q0.625 0.234375 1.046875 0.515625q0.421875 0.265625 0.625 0.65625q0.21875 0.375 0.21875 0.96875zm4.470703 2.171875q-1.0 0 -1.75 -0.375q-0.75 -0.375 -1.171875 -1.15625q-0.421875 -0.796875 -0.421875 -2.015625q0 -1.28125 0.453125 -2.078125q0.46875 -0.796875 1.25 -1.171875q0.78125 -0.375 1.78125 -0.375q0.609375 0 1.140625 0.125q0.546875 0.125 0.96875 0.34375l-0.578125 1.453125q-0.375 -0.171875 -0.765625 -0.28125q-0.390625 -0.109375 -0.765625 -0.109375q-0.484375 0 -0.828125 0.234375q-0.34375 0.21875 -0.53125 0.6875q-0.171875 0.46875 -0.171875 1.15625q0 0.6875 0.171875 1.140625q0.1875 0.4375 0.53125 0.65625q0.34375 0.21875 0.8125 0.21875q0.53125 0 1.015625 -0.140625q0.484375 -0.140625 0.921875 -0.390625l0 1.5625q-0.40625 0.234375 -0.90625 0.375q-0.484375 0.140625 -1.15625 0.140625zm7.3511963 -7.171875q0.1875 0 0.40625 0.03125q0.234375 0.015625 0.359375 0.046875l-0.1875 1.78125q-0.140625 -0.015625 -0.34375 -0.046875q-0.1875 -0.03125 -0.453125 -0.03125q-0.28125 0 -0.578125 0.09375q-0.296875 0.09375 -0.5625 0.296875q-0.25 0.203125 -0.40625 0.53125q-0.140625 0.328125 -0.140625 0.828125l0 3.515625l-1.921875 0l0 -6.921875l1.453125 0l0.28125 1.171875l0.09375 0q0.203125 -0.375 0.5 -0.65625q0.3125 -0.296875 0.6875 -0.46875q0.390625 -0.171875 0.8125 -0.171875zm3.7581177 0.125l0 6.921875l-1.90625 0l0 -6.921875l1.90625 0zm-0.9375 -2.71875q0.40625 0 0.71875 0.203125q0.3125 0.1875 0.3125 0.734375q0 0.515625 -0.3125 0.71875q-0.3125 0.203125 -0.71875 0.203125q-0.4375 0 -0.75 -0.203125q-0.296875 -0.203125 -0.296875 -0.71875q0 -0.546875 0.296875 -0.734375q0.3125 -0.203125 0.75 -0.203125zm4.7264404 2.25q0 0.390625 -0.03125 0.75q-0.015625 0.359375 -0.046875 0.625l0.078125 0q0.28125 -0.4375 0.75 -0.734375q0.46875 -0.296875 1.203125 -0.296875q1.15625 0 1.875 0.90625q0.734375 0.90625 0.734375 2.671875q0 1.171875 -0.34375 1.984375q-0.328125 0.796875 -0.9375 1.203125q-0.59375 0.40625 -1.375 0.40625q-0.765625 0 -1.203125 -0.265625q-0.421875 -0.28125 -0.703125 -0.609375l-0.125 0l-0.328125 0.75l-1.46875 0l0 -9.625l1.921875 0l0 2.234375zm1.34375 1.859375q-0.484375 0 -0.78125 0.203125q-0.296875 0.203125 -0.4375 0.625q-0.125 0.40625 -0.125 1.0625l0 0.234375q0 0.96875 0.296875 1.484375q0.296875 0.5 1.0625 0.5q0.625 0 0.9375 -0.53125q0.328125 -0.53125 0.328125 -1.546875q0 -1.0 -0.3125 -1.515625q-0.3125 -0.515625 -0.96875 -0.515625zm7.696167 -1.515625q0.96875 0 1.65625 0.359375q0.703125 0.359375 1.078125 1.0625q0.375 0.703125 0.375 1.71875l0 0.921875l-4.453125 0q0.03125 0.796875 0.484375 1.25q0.453125 0.4375 1.3125 0.4375q0.640625 0 1.171875 -0.125q0.53125 -0.125 1.09375 -0.375l0 1.421875q-0.515625 0.265625 -1.078125 0.375q-0.5625 0.125 -1.390625 0.125q-1.03125 0 -1.828125 -0.375q-0.78125 -0.390625 -1.25 -1.171875q-0.453125 -0.796875 -0.453125 -1.984375q0 -1.21875 0.40625 -2.015625q0.421875 -0.8125 1.15625 -1.21875q0.75 -0.40625 1.71875 -0.40625zm0.046875 1.359375q-0.5625 0 -0.921875 0.359375q-0.359375 0.359375 -0.421875 1.078125l2.625 0q0 -0.421875 -0.140625 -0.734375q-0.140625 -0.328125 -0.4375 -0.515625q-0.28125 -0.1875 -0.703125 -0.1875zm8.3932495 -1.359375q0.1875 0 0.40625 0.03125q0.234375 0.015625 0.359375 0.046875l-0.1875 1.78125q-0.140625 -0.015625 -0.34375 -0.046875q-0.1875 -0.03125 -0.453125 -0.03125q-0.28125 0 -0.578125 0.09375q-0.296875 0.09375 -0.5625 0.296875q-0.25 0.203125 -0.40625 0.53125q-0.140625 0.328125 -0.140625 0.828125l0 3.515625l-1.921875 0l0 -6.921875l1.453125 0l0.28125 1.171875l0.09375 0q0.203125 -0.375 0.5 -0.65625q0.3125 -0.296875 0.6875 -0.46875q0.390625 -0.171875 0.8125 -0.171875z" fill-rule="nonzero"/><path fill="#000000" fill-opacity="0.0" d="m586.51215 347.84625l61.591797 0l0 -136.44093l61.589355 0" fill-rule="evenodd"/><path stroke="#000000" stroke-width="0.6430446194225722" stroke-linejoin="round" stroke-linecap="butt" d="m586.5122 347.84625l61.591736 0l0 -136.44095l57.731018 0" fill-rule="evenodd"/><path fill="#000000" stroke="#000000" stroke-width="0.6430446194225722" stroke-linecap="butt" d="m705.83496 212.46744l2.918213 -1.0621338l-2.918213 -1.0621338z" fill-rule="evenodd"/><path fill="#000000" fill-opacity="0.0" d="m586.51215 347.84625l61.591797 0l0 0.06298828l61.589355 0" fill-rule="evenodd"/><path stroke="#000000" stroke-width="0.6430446194225722" stroke-linejoin="round" stroke-linecap="butt" d="m586.5122 347.84625l61.591736 0l0 0.06298828l57.731018 0" fill-rule="evenodd"/><path fill="#000000" stroke="#000000" stroke-width="0.6430446194225722" stroke-linecap="butt" d="m705.83496 348.97137l2.918213 -1.0621338l-2.918213 -1.0621338z" fill-rule="evenodd"/><path fill="#000000" d="m619.163 342.87268l8.629883 4.9921265l-8.629883 4.9921265z" fill-rule="evenodd"/><path fill="#000000" d="m671.3369 206.4222l8.629883 4.9921265l-8.629883 4.9921265z" fill-rule="evenodd"/><path fill="#000000" d="m671.3369 342.87268l8.629883 4.9921265l-8.629883 4.9921265z" fill-rule="evenodd"/></g></svg>