<svg version="1.1" viewBox="0.0 0.0 960.0 540.0" fill="none" stroke="none" stroke-linecap="square" stroke-miterlimit="10" xmlns:xlink="http://www.w3.org/1999/xlink" xmlns="http://www.w3.org/2000/svg"><clipPath id="p.0"><path d="m0 0l960.0 0l0 540.0l-960.0 0l0 -540.0z" clip-rule="nonzero"/></clipPath><g clip-path="url(#p.0)"><path fill="#ffffff" d="m0 0l960.0 0l0 540.0l-960.0 0z" fill-rule="evenodd"/><path fill="#f4cccc" d="m335.6505 68.04684l213.35431 0l0 84.37795l-213.35431 0z" fill-rule="evenodd"/><path fill="#d9ead3" d="m335.6505 376.5144l213.35431 0l0 84.37793l-213.35431 0z" fill-rule="evenodd"/><path fill="#d9d2e9" d="m29.167273 214.72043l213.35434 0l0 84.37796l-213.35434 0z" fill-rule="evenodd"/><path fill="#000000" d="m107.50453 251.14217l-1.71875 0l0 2.421875l-2.609375 0l0 1.3125l2.609375 0l0 5.4218903q0 0.921875 0.25 1.578125q0.25 0.640625 0.671875 1.046875q0.421875 0.421875 1.0 0.609375q0.578125 0.1875 1.234375 0.1875q0.390625 0 0.796875 -0.046875q0.40625 -0.03125 0.765625 -0.109375q0.359375 -0.0625 0.65625 -0.15625q0.3125 -0.09375 0.515625 -0.21875l-0.234375 -1.21875q-0.15625 0.046875 -0.40625 0.09375q-0.234375 0.046875 -0.515625 0.09375q-0.28125 0.046875 -0.578125 0.078125q-0.296875 0.03125 -0.578125 0.03125q-0.375 0 -0.71875 -0.09375q-0.328125 -0.09375 -0.59375 -0.3125q-0.25 -0.234375 -0.40625 -0.609375q-0.140625 -0.375 -0.140625 -0.953125l0 -5.4218903l3.796875 0l0 -1.3125l-3.796875 0l0 -2.421875zm7.5612183 2.421875l0 1.484375l3.390625 0l0 7.0156403l-3.390625 0l0 1.46875l8.34375 0l0 -1.46875l-3.25 0l0 -8.500015l-5.09375 0zm3.171875 -2.625q0 0.421875 0.25 0.703125q0.25 0.265625 0.765625 0.265625q0.515625 0 0.765625 -0.265625q0.265625 -0.28125 0.265625 -0.703125q0 -0.21875 -0.078125 -0.40625q-0.078125 -0.203125 -0.21875 -0.34375q-0.125 -0.109375 -0.3125 -0.171875q-0.1875 -0.078125 -0.421875 -0.078125q-0.234375 0 -0.421875 0.078125q-0.1875 0.0625 -0.3125 0.171875q-0.15625 0.140625 -0.21875 0.34375q-0.0625 0.1875 -0.0625 0.40625zm12.139343 11.39064q-0.8125 0 -1.359375 -0.3125q-0.53125 -0.3125 -0.84375 -0.828125q-0.34375 -0.515625 -0.484375 -1.15625q-0.140625 -0.640625 -0.140625 -1.296875l0 -0.375q0 -0.65625 0.140625 -1.28125q0.140625 -0.640625 0.484375 -1.1562653q0.328125 -0.515625 0.859375 -0.828125q0.546875 -0.3125 1.34375 -0.3125q0.515625 0 0.953125 0.171875q0.453125 0.171875 0.765625 0.484375q0.328125 0.296875 0.515625 0.70314026q0.1875 0.390625 0.203125 0.84375l1.609375 0q0 -0.75 -0.3125 -1.4062653q-0.296875 -0.671875 -0.828125 -1.15625q-0.546875 -0.484375 -1.296875 -0.765625q-0.734375 -0.28125 -1.609375 -0.28125q-1.140625 0 -2.0 0.40625q-0.84375 0.40625 -1.40625 1.09375q-0.5625 0.6875 -0.859375 1.5937653q-0.28125 0.890625 -0.28125 1.890625l0 0.375q0 1.0 0.28125 1.90625q0.296875 0.890625 0.859375 1.578125q0.5625 0.6875 1.40625 1.09375q0.859375 0.40625 2.0 0.40625q0.78125 0 1.5 -0.265625q0.734375 -0.28125 1.296875 -0.734375q0.5625 -0.453125 0.890625 -1.0625q0.34375 -0.609375 0.359375 -1.265625l-1.609375 0q-0.015625 0.40625 -0.21875 0.765625q-0.203125 0.359375 -0.546875 0.609375q-0.34375 0.265625 -0.78125 0.421875q-0.4375 0.140625 -0.890625 0.140625zm10.061218 -3.453125l3.65625 4.65625l2.171875 0l-4.65625 -5.8125l4.03125 -4.1562653l-2.078125 0l-3.265625 3.2812653l-1.109375 1.1875l0 -8.656265l-1.71875 0l0 14.156265l1.71875 0l0 -3.453125l1.25 -1.203125zm10.029968 -0.796875l0 0.09375q0 1.328125 0.203125 2.484375q0.203125 1.15625 0.5625 2.140625q0.328125 1.0 0.78125 1.8125q0.46875 0.828125 0.96875 1.453125q0.5 0.640625 1.015625 1.09375q0.515625 0.453125 0.96875 0.703125l0.359375 -1.03125q-0.375 -0.3125 -0.75 -0.75q-0.375 -0.421875 -0.71875 -0.96875q-0.34375 -0.578125 -0.65625 -1.3125q-0.3125 -0.734375 -0.5625 -1.59375q-0.21875 -0.84375 -0.34375 -1.84375q-0.125 -1.015625 -0.125 -2.171875l0 -0.125q0 -1.1875 0.125 -2.2343903q0.140625 -1.046875 0.390625 -1.90625q0.265625 -0.96875 0.640625 -1.765625q0.390625 -0.8125 0.828125 -1.40625q0.28125 -0.390625 0.578125 -0.703125q0.296875 -0.3125 0.59375 -0.53125l-0.359375 -1.125q-0.453125 0.25 -0.96875 0.703125q-0.5 0.453125 -1.0 1.09375q-0.515625 0.640625 -0.96875 1.46875q-0.453125 0.8125 -0.796875 1.796875q-0.359375 0.984375 -0.5625 2.15625q-0.203125 1.1562653 -0.203125 2.4687653zm15.858078 0.09375l0 -0.09375q0 -1.40625 -0.21875 -2.5312653q-0.21875 -1.125 -0.546875 -2.09375q-0.34375 -1.015625 -0.796875 -1.8125q-0.453125 -0.796875 -0.96875 -1.453125q-0.5 -0.640625 -1.015625 -1.09375q-0.515625 -0.453125 -0.96875 -0.703125l-0.359375 1.046875q0.296875 0.234375 0.625 0.59375q0.328125 0.359375 0.625 0.828125q0.390625 0.59375 0.765625 1.40625q0.390625 0.8125 0.65625 1.8125q0.1875 0.71875 0.328125 1.734375q0.15625 1.0156403 0.15625 2.2500153l0 0.125q0 1.109375 -0.125 2.078125q-0.109375 0.953125 -0.3125 1.78125q-0.203125 0.890625 -0.53125 1.640625q-0.3125 0.75 -0.65625 1.359375q-0.359375 0.578125 -0.75 1.03125q-0.390625 0.453125 -0.78125 0.75l0.359375 1.03125q0.453125 -0.25 0.96875 -0.703125q0.515625 -0.453125 1.015625 -1.09375q0.5 -0.625 0.953125 -1.453125q0.453125 -0.8125 0.8125 -1.8125q0.34375 -0.984375 0.546875 -2.140625q0.21875 -1.15625 0.21875 -2.484375z" fill-rule="nonzero"/><path fill="#000000" fill-opacity="0.0" d="m19.87664 172.69029l86.11024 0l0 42.48819l-86.11024 0z" fill-rule="evenodd"/><path fill="#000000" d="m39.40789 195.61055l-2.59375 0q-0.046875 0.609375 -0.21875 1.046875q-0.15625 0.421875 -0.4375 0.703125q-0.28125 0.28125 -0.6875 0.40625q-0.40625 0.125 -0.921875 0.125q-0.375 0 -0.6875 -0.078125q-0.296875 -0.09375 -0.546875 -0.28125q-0.234375 -0.15625 -0.421875 -0.40625q-0.171875 -0.25 -0.296875 -0.578125q-0.1875 -0.46875 -0.28125 -1.09375q-0.078125 -0.640625 -0.078125 -1.4375l0 -1.828125q0 -0.59375 0.046875 -1.09375q0.0625 -0.515625 0.171875 -0.9375q0.15625 -0.546875 0.421875 -0.953125q0.265625 -0.40625 0.640625 -0.640625q0.21875 -0.125 0.484375 -0.1875q0.265625 -0.0625 0.578125 -0.0625q0.5625 0 0.96875 0.15625q0.421875 0.140625 0.6875 0.4375q0.265625 0.3125 0.40625 0.765625q0.15625 0.4375 0.1875 1.046875l2.578125 0q-0.09375 -1.046875 -0.453125 -1.890625q-0.34375 -0.84375 -0.9375 -1.421875q-0.609375 -0.578125 -1.484375 -0.890625q-0.859375 -0.3125 -1.953125 -0.3125q-0.75 0 -1.40625 0.1875q-0.640625 0.1875 -1.1875 0.53125q-0.609375 0.421875 -1.09375 1.03125q-0.46875 0.59375 -0.765625 1.359375q-0.265625 0.625 -0.390625 1.359375q-0.125 0.71875 -0.125 1.53125l0 1.8125q0 0.859375 0.140625 1.640625q0.140625 0.78125 0.40625 1.421875q0.28125 0.640625 0.671875 1.1875q0.40625 0.53125 0.921875 0.90625q0.5625 0.40625 1.265625 0.625q0.703125 0.203125 1.53125 0.203125q1.0625 0 1.921875 -0.296875q0.859375 -0.3125 1.5 -0.890625q0.625 -0.5625 0.984375 -1.375q0.375 -0.8125 0.453125 -1.828125zm2.6237183 -9.953125l0 2.09375l2.984375 0l0 9.984375l-2.984375 0l0 2.078125l8.4375 0l0 -2.078125l-2.859375 0l0 -12.078125l-5.578125 0zm10.451843 9.078125l0 0.1875q0 1.109375 0.3125 2.03125q0.3125 0.921875 0.921875 1.609375q0.59375 0.671875 1.46875 1.0625q0.890625 0.375 2.015625 0.375q1.109375 0 1.984375 -0.375q0.875 -0.390625 1.484375 -1.0625q0.59375 -0.6875 0.90625 -1.609375q0.3125 -0.921875 0.3125 -2.03125l0 -0.1875q0 -1.09375 -0.3125 -2.015625q-0.3125 -0.921875 -0.90625 -1.609375q-0.609375 -0.671875 -1.484375 -1.0625q-0.875 -0.390625 -2.0 -0.390625q-1.125 0 -2.0 0.390625q-0.875 0.390625 -1.46875 1.0625q-0.609375 0.6875 -0.921875 1.609375q-0.3125 0.921875 -0.3125 2.015625zm2.5625 0.1875l0 -0.1875q0 -0.609375 0.109375 -1.15625q0.125 -0.546875 0.390625 -0.953125q0.25 -0.421875 0.65625 -0.65625q0.40625 -0.234375 0.984375 -0.234375q0.578125 0 0.984375 0.234375q0.40625 0.234375 0.65625 0.65625q0.25 0.40625 0.359375 0.953125q0.125 0.546875 0.125 1.15625l0 0.1875q0 0.625 -0.125 1.1875q-0.109375 0.546875 -0.359375 0.953125q-0.25 0.40625 -0.65625 0.65625q-0.40625 0.234375 -0.96875 0.234375q-0.578125 0 -1.0 -0.234375q-0.40625 -0.25 -0.65625 -0.65625q-0.265625 -0.40625 -0.390625 -0.953125q-0.109375 -0.5625 -0.109375 -1.1875zm13.529968 3.03125q-0.625 0 -1.03125 -0.25q-0.390625 -0.25 -0.625 -0.671875q-0.234375 -0.390625 -0.328125 -0.9375q-0.09375 -0.546875 -0.09375 -1.125l0 -0.265625q0 -0.578125 0.09375 -1.109375q0.09375 -0.53125 0.34375 -0.953125q0.21875 -0.40625 0.609375 -0.65625q0.40625 -0.25 1.015625 -0.25q0.421875 0 0.765625 0.140625q0.34375 0.140625 0.59375 0.375q0.25 0.25 0.375 0.578125q0.140625 0.328125 0.125 0.703125l2.40625 0q0.015625 -0.890625 -0.296875 -1.59375q-0.3125 -0.71875 -0.875 -1.234375q-0.5625 -0.5 -1.359375 -0.765625q-0.78125 -0.28125 -1.703125 -0.28125q-1.140625 0 -2.015625 0.40625q-0.875 0.390625 -1.453125 1.0625q-0.59375 0.6875 -0.890625 1.609375q-0.296875 0.90625 -0.296875 1.96875l0 0.265625q0 1.0625 0.296875 1.984375q0.296875 0.90625 0.890625 1.59375q0.578125 0.671875 1.453125 1.0625q0.875 0.390625 2.046875 0.390625q0.859375 0 1.625 -0.265625q0.765625 -0.265625 1.34375 -0.75q0.578125 -0.484375 0.90625 -1.140625q0.34375 -0.671875 0.328125 -1.4375l-2.40625 0q0.015625 0.34375 -0.125 0.640625q-0.140625 0.28125 -0.40625 0.484375q-0.25 0.203125 -0.59375 0.3125q-0.34375 0.109375 -0.71875 0.109375zm10.654968 -2.265625l2.828125 4.125l3.140625 0l-4.28125 -5.8125l3.765625 -4.15625l-3.078125 0l-2.765625 3.015625l-0.765625 0.890625l0 -8.09375l-2.5625 0l0 14.15625l2.5625 0l0 -3.046875l1.15625 -1.078125z" fill-rule="nonzero"/><path fill="#000000" fill-opacity="0.0" d="m335.6505 28.065561l166.99213 0l0 42.48819l-166.99213 0z" fill-rule="evenodd"/><path fill="#000000" d="m352.463 52.392075l0.78125 2.796875l2.71875 0l-4.3125 -13.421875l-2.34375 0l-4.390625 13.421875l2.71875 0l0.796875 -2.796875l4.03125 0zm-3.390625 -2.203125l1.40625 -4.9375l1.375 4.9375l-2.78125 0zm14.717468 5.0l2.3125 0l0 -9.96875l-2.5625 0l0 6.984375q-0.125 0.25 -0.296875 0.453125q-0.15625 0.1875 -0.375 0.3125q-0.25 0.15625 -0.578125 0.25q-0.328125 0.078125 -0.734375 0.078125q-0.4375 0 -0.765625 -0.109375q-0.3125 -0.109375 -0.5 -0.375q-0.1875 -0.25 -0.28125 -0.65625q-0.09375 -0.421875 -0.09375 -1.03125l0 -5.90625l-2.5625 0l0 5.890625q0 1.140625 0.25 1.953125q0.265625 0.796875 0.71875 1.3125q0.46875 0.53125 1.109375 0.765625q0.640625 0.234375 1.421875 0.234375q0.84375 0 1.5625 -0.421875q0.71875 -0.421875 1.21875 -1.171875l0.15625 1.40625zm4.5455933 -5.0625l0 0.203125q0 1.078125 0.265625 2.015625q0.265625 0.921875 0.78125 1.59375q0.5 0.671875 1.21875 1.0625q0.71875 0.375 1.640625 0.375q0.828125 0 1.46875 -0.3125q0.640625 -0.328125 1.109375 -0.921875l0.125 1.046875l2.3125 0l0 -14.15625l-2.578125 0l0 5.078125q-0.453125 -0.515625 -1.046875 -0.796875q-0.59375 -0.28125 -1.375 -0.28125q-0.9375 0 -1.65625 0.375q-0.71875 0.359375 -1.234375 1.03125q-0.5 0.671875 -0.765625 1.625q-0.265625 0.9375 -0.265625 2.0625zm2.5625 0.203125l0 -0.203125q0 -0.625 0.109375 -1.171875q0.109375 -0.546875 0.359375 -0.96875q0.234375 -0.40625 0.609375 -0.640625q0.390625 -0.234375 0.9375 -0.234375q0.65625 0 1.078125 0.28125q0.4375 0.28125 0.6875 0.796875l0 4.03125q-0.25 0.5 -0.6875 0.78125q-0.4375 0.28125 -1.109375 0.28125q-0.53125 0 -0.921875 -0.21875q-0.375 -0.234375 -0.609375 -0.640625q-0.234375 -0.390625 -0.34375 -0.921875q-0.109375 -0.546875 -0.109375 -1.171875zm9.717468 -5.109375l0 2.09375l2.828125 0l0 5.796875l-2.828125 0l0 2.078125l8.125 0l0 -2.078125l-2.703125 0l0 -7.890625l-5.421875 0zm2.65625 -2.5625q0 0.296875 0.09375 0.5625q0.109375 0.25 0.3125 0.421875q0.1875 0.1875 0.453125 0.296875q0.28125 0.09375 0.609375 0.09375q0.6875 0 1.078125 -0.375q0.40625 -0.390625 0.40625 -1.0q0 -0.59375 -0.40625 -0.96875q-0.390625 -0.390625 -1.078125 -0.390625q-0.328125 0 -0.609375 0.109375q-0.265625 0.09375 -0.453125 0.265625q-0.203125 0.1875 -0.3125 0.453125q-0.09375 0.25 -0.09375 0.53125zm7.6393433 7.453125l0 0.1875q0 1.109375 0.3125 2.03125q0.3125 0.921875 0.921875 1.609375q0.59375 0.671875 1.46875 1.0625q0.890625 0.375 2.015625 0.375q1.109375 0 1.984375 -0.375q0.875 -0.390625 1.484375 -1.0625q0.59375 -0.6875 0.90625 -1.609375q0.3125 -0.921875 0.3125 -2.03125l0 -0.1875q0 -1.09375 -0.3125 -2.015625q-0.3125 -0.921875 -0.90625 -1.609375q-0.609375 -0.671875 -1.484375 -1.0625q-0.875 -0.390625 -2.0 -0.390625q-1.125 0 -2.0 0.390625q-0.875 0.390625 -1.46875 1.0625q-0.609375 0.6875 -0.921875 1.609375q-0.3125 0.921875 -0.3125 2.015625zm2.5625 0.1875l0 -0.1875q0 -0.609375 0.109375 -1.15625q0.125 -0.546875 0.390625 -0.953125q0.25 -0.421875 0.65625 -0.65625q0.40625 -0.234375 0.984375 -0.234375q0.578125 0 0.984375 0.234375q0.40625 0.234375 0.65625 0.65625q0.25 0.40625 0.359375 0.953125q0.125 0.546875 0.125 1.15625l0 0.1875q0 0.625 -0.125 1.1875q-0.109375 0.546875 -0.359375 0.953125q-0.25 0.40625 -0.65625 0.65625q-0.40625 0.234375 -0.96875 0.234375q-0.578125 0 -1.0 -0.234375q-0.40625 -0.25 -0.65625 -0.65625q-0.265625 -0.40625 -0.390625 -0.953125q-0.109375 -0.5625 -0.109375 -1.1875zm13.576843 -0.125l2.515625 5.015625l2.78125 0l0 -0.125l-2.890625 -5.53125q0.5625 -0.25 1.0 -0.59375q0.453125 -0.34375 0.765625 -0.796875q0.3125 -0.453125 0.484375 -1.03125q0.171875 -0.578125 0.171875 -1.296875q0 -1.0 -0.34375 -1.75q-0.34375 -0.75 -0.984375 -1.265625q-0.640625 -0.5 -1.546875 -0.765625q-0.90625 -0.265625 -2.015625 -0.265625l-4.5 0l0 13.421875l2.59375 0l0 -5.015625l1.96875 0zm-1.96875 -2.09375l0 -4.203125l1.90625 0q0.53125 0 0.9375 0.125q0.421875 0.125 0.71875 0.375q0.3125 0.265625 0.46875 0.671875q0.171875 0.40625 0.171875 0.9375q0 0.453125 -0.125 0.8125q-0.125 0.359375 -0.359375 0.609375q-0.296875 0.328125 -0.75 0.5q-0.453125 0.171875 -1.046875 0.171875l-1.921875 0zm13.670593 7.296875q1.4375 0 2.5 -0.5625q1.0625 -0.5625 1.546875 -1.25l-1.28125 -1.390625q-0.4375 0.578125 -1.15625 0.859375q-0.703125 0.28125 -1.453125 0.28125q-0.53125 0 -0.984375 -0.15625q-0.453125 -0.171875 -0.8125 -0.46875q-0.328125 -0.296875 -0.53125 -0.65625q-0.203125 -0.375 -0.34375 -0.96875l0 -0.03125l6.765625 0l0 -1.09375q0 -1.09375 -0.3125 -2.0q-0.296875 -0.90625 -0.875 -1.546875q-0.578125 -0.65625 -1.421875 -1.0q-0.84375 -0.359375 -1.921875 -0.359375q-1.046875 0 -1.9375 0.375q-0.875 0.375 -1.53125 1.0625q-0.640625 0.6875 -1.0 1.640625q-0.359375 0.9375 -0.359375 2.078125l0 0.359375q0 1.015625 0.359375 1.890625q0.375 0.875 1.046875 1.53125q0.671875 0.640625 1.609375 1.03125q0.9375 0.375 2.09375 0.375zm-0.3125 -8.265625q0.5 0 0.859375 0.15625q0.375 0.140625 0.640625 0.40625q0.25 0.265625 0.390625 0.625q0.15625 0.359375 0.15625 0.765625l0 0.203125l-4.203125 0q0.09375 -0.5 0.28125 -0.890625q0.1875 -0.390625 0.46875 -0.6875q0.265625 -0.28125 0.625 -0.421875q0.359375 -0.15625 0.78125 -0.15625zm6.7955933 8.078125l2.578125 0l0 -7.09375q0.125 -0.203125 0.28125 -0.359375q0.15625 -0.171875 0.34375 -0.28125q0.25 -0.171875 0.546875 -0.25q0.3125 -0.09375 0.6875 -0.09375q0.4375 0 0.78125 0.09375q0.359375 0.09375 0.609375 0.3125q0.25 0.21875 0.375 0.609375q0.140625 0.375 0.140625 0.96875l0 6.09375l2.5625 0l0 -6.140625q0 -1.078125 -0.25 -1.84375q-0.25 -0.765625 -0.703125 -1.25q-0.46875 -0.484375 -1.09375 -0.703125q-0.625 -0.21875 -1.375 -0.21875q-0.59375 0 -1.125 0.171875q-0.515625 0.15625 -0.96875 0.46875q-0.25 0.1875 -0.484375 0.421875q-0.234375 0.234375 -0.421875 0.5l-0.15625 -1.375l-2.328125 0l0 9.96875zm11.061218 -5.0625l0 0.203125q0 1.078125 0.265625 2.015625q0.265625 0.921875 0.78125 1.59375q0.5 0.671875 1.21875 1.0625q0.71875 0.375 1.640625 0.375q0.828125 0 1.46875 -0.3125q0.640625 -0.328125 1.109375 -0.921875l0.125 1.046875l2.3125 0l0 -14.15625l-2.578125 0l0 5.078125q-0.453125 -0.515625 -1.046875 -0.796875q-0.59375 -0.28125 -1.375 -0.28125q-0.9375 0 -1.65625 0.375q-0.71875 0.359375 -1.234375 1.03125q-0.5 0.671875 -0.765625 1.625q-0.265625 0.9375 -0.265625 2.0625zm2.5625 0.203125l0 -0.203125q0 -0.625 0.109375 -1.171875q0.109375 -0.546875 0.359375 -0.96875q0.234375 -0.40625 0.609375 -0.640625q0.390625 -0.234375 0.9375 -0.234375q0.65625 0 1.078125 0.28125q0.4375 0.28125 0.6875 0.796875l0 4.03125q-0.25 0.5 -0.6875 0.78125q-0.4375 0.28125 -1.109375 0.28125q-0.53125 0 -0.921875 -0.21875q-0.375 -0.234375 -0.609375 -0.640625q-0.234375 -0.390625 -0.34375 -0.921875q-0.109375 -0.546875 -0.109375 -1.171875zm13.873718 5.046875q1.4375 0 2.5 -0.5625q1.0625 -0.5625 1.546875 -1.25l-1.28125 -1.390625q-0.4375 0.578125 -1.15625 0.859375q-0.703125 0.28125 -1.453125 0.28125q-0.53125 0 -0.984375 -0.15625q-0.453125 -0.171875 -0.8125 -0.46875q-0.328125 -0.296875 -0.53125 -0.65625q-0.203125 -0.375 -0.34375 -0.96875l0 -0.03125l6.765625 0l0 -1.09375q0 -1.09375 -0.3125 -2.0q-0.296875 -0.90625 -0.875 -1.546875q-0.578125 -0.65625 -1.421875 -1.0q-0.84375 -0.359375 -1.921875 -0.359375q-1.046875 0 -1.9375 0.375q-0.875 0.375 -1.53125 1.0625q-0.640625 0.6875 -1.0 1.640625q-0.359375 0.9375 -0.359375 2.078125l0 0.359375q0 1.015625 0.359375 1.890625q0.375 0.875 1.046875 1.53125q0.671875 0.640625 1.609375 1.03125q0.9375 0.375 2.09375 0.375zm-0.3125 -8.265625q0.5 0 0.859375 0.15625q0.375 0.140625 0.640625 0.40625q0.25 0.265625 0.390625 0.625q0.15625 0.359375 0.15625 0.765625l0 0.203125l-4.203125 0q0.09375 -0.5 0.28125 -0.890625q0.1875 -0.390625 0.46875 -0.6875q0.265625 -0.28125 0.625 -0.421875q0.359375 -0.15625 0.78125 -0.15625zm13.951843 -2.078125q-1.0 0 -1.84375 0.484375q-0.84375 0.484375 -1.453125 1.328125l-0.015625 -0.21875l-0.109375 -1.40625l-2.390625 0l0 9.96875l2.5625 0l0 -5.984375q0.171875 -0.4375 0.4375 -0.75q0.28125 -0.3125 0.65625 -0.515625q0.3125 -0.171875 0.703125 -0.25q0.40625 -0.09375 0.90625 -0.09375q0.484375 0 1.015625 0.0625q0.53125 0.0625 1.03125 0.171875l0.375 -2.546875q-0.296875 -0.09375 -0.796875 -0.171875q-0.484375 -0.078125 -1.078125 -0.078125zm9.014343 10.34375q1.4375 0 2.5 -0.5625q1.0625 -0.5625 1.546875 -1.25l-1.28125 -1.390625q-0.4375 0.578125 -1.15625 0.859375q-0.703125 0.28125 -1.453125 0.28125q-0.53125 0 -0.984375 -0.15625q-0.453125 -0.171875 -0.8125 -0.46875q-0.328125 -0.296875 -0.53125 -0.65625q-0.203125 -0.375 -0.34375 -0.96875l0 -0.03125l6.765625 0l0 -1.09375q0 -1.09375 -0.3125 -2.0q-0.296875 -0.90625 -0.875 -1.546875q-0.578125 -0.65625 -1.421875 -1.0q-0.84375 -0.359375 -1.921875 -0.359375q-1.046875 0 -1.9375 0.375q-0.875 0.375 -1.53125 1.0625q-0.640625 0.6875 -1.0 1.640625q-0.359375 0.9375 -0.359375 2.078125l0 0.359375q0 1.015625 0.359375 1.890625q0.375 0.875 1.046875 1.53125q0.671875 0.640625 1.609375 1.03125q0.9375 0.375 2.09375 0.375zm-0.3125 -8.265625q0.5 0 0.859375 0.15625q0.375 0.140625 0.640625 0.40625q0.25 0.265625 0.390625 0.625q0.15625 0.359375 0.15625 0.765625l0 0.203125l-4.203125 0q0.09375 -0.5 0.28125 -0.890625q0.1875 -0.390625 0.46875 -0.6875q0.265625 -0.28125 0.625 -0.421875q0.359375 -0.15625 0.78125 -0.15625zm13.951843 -2.078125q-1.0 0 -1.84375 0.484375q-0.84375 0.484375 -1.453125 1.328125l-0.015625 -0.21875l-0.109375 -1.40625l-2.390625 0l0 9.96875l2.5625 0l0 -5.984375q0.171875 -0.4375 0.4375 -0.75q0.28125 -0.3125 0.65625 -0.515625q0.3125 -0.171875 0.703125 -0.25q0.40625 -0.09375 0.90625 -0.09375q0.484375 0 1.015625 0.0625q0.53125 0.0625 1.03125 0.171875l0.375 -2.546875q-0.296875 -0.09375 -0.796875 -0.171875q-0.484375 -0.078125 -1.078125 -0.078125z" fill-rule="nonzero"/><path fill="#000000" fill-opacity="0.0" d="m335.6505 334.18924l166.99213 0l0 42.48819l-166.99213 0z" fill-rule="evenodd"/><path fill="#000000" d="m348.99426 361.31262l2.640625 0l4.0625 -13.421875l-2.859375 0l-2.28125 8.765625l-0.25 0.90625l-0.234375 -0.90625l-2.28125 -8.765625l-2.859375 0l4.0625 13.421875zm8.967468 -9.96875l0 2.09375l2.828125 0l0 5.796875l-2.828125 0l0 2.078125l8.125 0l0 -2.078125l-2.703125 0l0 -7.890625l-5.421875 0zm2.65625 -2.5625q0 0.296875 0.09375 0.5625q0.109375 0.25 0.3125 0.421875q0.1875 0.1875 0.453125 0.296875q0.28125 0.09375 0.609375 0.09375q0.6875 0 1.078125 -0.375q0.40625 -0.390625 0.40625 -1.0q0 -0.59375 -0.40625 -0.96875q-0.390625 -0.390625 -1.078125 -0.390625q-0.328125 0 -0.609375 0.109375q-0.265625 0.09375 -0.453125 0.265625q-0.203125 0.1875 -0.3125 0.453125q-0.09375 0.25 -0.09375 0.53125zm7.7174683 7.46875l0 0.203125q0 1.078125 0.265625 2.015625q0.265625 0.921875 0.78125 1.59375q0.5 0.671875 1.21875 1.0625q0.71875 0.375 1.640625 0.375q0.828125 0 1.46875 -0.3125q0.640625 -0.328125 1.109375 -0.921875l0.125 1.046875l2.3125 0l0 -14.15625l-2.578125 0l0 5.078125q-0.453125 -0.515625 -1.046875 -0.796875q-0.59375 -0.28125 -1.375 -0.28125q-0.9375 0 -1.65625 0.375q-0.71875 0.359375 -1.234375 1.03125q-0.5 0.671875 -0.765625 1.625q-0.265625 0.9375 -0.265625 2.0625zm2.5625 0.203125l0 -0.203125q0 -0.625 0.109375 -1.171875q0.109375 -0.546875 0.359375 -0.96875q0.234375 -0.40625 0.609375 -0.640625q0.390625 -0.234375 0.9375 -0.234375q0.65625 0 1.078125 0.28125q0.4375 0.28125 0.6875 0.796875l0 4.03125q-0.25 0.5 -0.6875 0.78125q-0.4375 0.28125 -1.109375 0.28125q-0.53125 0 -0.921875 -0.21875q-0.375 -0.234375 -0.609375 -0.640625q-0.234375 -0.390625 -0.34375 -0.921875q-0.109375 -0.546875 -0.109375 -1.171875zm13.873718 5.046875q1.4375 0 2.5 -0.5625q1.0625 -0.5625 1.546875 -1.25l-1.28125 -1.390625q-0.4375 0.578125 -1.15625 0.859375q-0.703125 0.28125 -1.453125 0.28125q-0.53125 0 -0.984375 -0.15625q-0.453125 -0.171875 -0.8125 -0.46875q-0.328125 -0.296875 -0.53125 -0.65625q-0.203125 -0.375 -0.34375 -0.96875l0 -0.03125l6.765625 0l0 -1.09375q0 -1.09375 -0.3125 -2.0q-0.296875 -0.90625 -0.875 -1.546875q-0.578125 -0.65625 -1.421875 -1.0q-0.84375 -0.359375 -1.921875 -0.359375q-1.046875 0 -1.9375 0.375q-0.875 0.375 -1.53125 1.0625q-0.640625 0.6875 -1.0 1.640625q-0.359375 0.9375 -0.359375 2.078125l0 0.359375q0 1.015625 0.359375 1.890625q0.375 0.875 1.046875 1.53125q0.671875 0.640625 1.609375 1.03125q0.9375 0.375 2.09375 0.375zm-0.3125 -8.265625q0.5 0 0.859375 0.15625q0.375 0.140625 0.640625 0.40625q0.25 0.265625 0.390625 0.625q0.15625 0.359375 0.15625 0.765625l0 0.203125l-4.203125 0q0.09375 -0.5 0.28125 -0.890625q0.1875 -0.390625 0.46875 -0.6875q0.265625 -0.28125 0.625 -0.421875q0.359375 -0.15625 0.78125 -0.15625zm6.4518433 3.0l0 0.1875q0 1.109375 0.3125 2.03125q0.3125 0.921875 0.921875 1.609375q0.59375 0.671875 1.46875 1.0625q0.890625 0.375 2.015625 0.375q1.109375 0 1.984375 -0.375q0.875 -0.390625 1.484375 -1.0625q0.59375 -0.6875 0.90625 -1.609375q0.3125 -0.921875 0.3125 -2.03125l0 -0.1875q0 -1.09375 -0.3125 -2.015625q-0.3125 -0.921875 -0.90625 -1.609375q-0.609375 -0.671875 -1.484375 -1.0625q-0.875 -0.390625 -2.0 -0.390625q-1.125 0 -2.0 0.390625q-0.875 0.390625 -1.46875 1.0625q-0.609375 0.6875 -0.921875 1.609375q-0.3125 0.921875 -0.3125 2.015625zm2.5625 0.1875l0 -0.1875q0 -0.609375 0.109375 -1.15625q0.125 -0.546875 0.390625 -0.953125q0.25 -0.421875 0.65625 -0.65625q0.40625 -0.234375 0.984375 -0.234375q0.578125 0 0.984375 0.234375q0.40625 0.234375 0.65625 0.65625q0.25 0.40625 0.359375 0.953125q0.125 0.546875 0.125 1.15625l0 0.1875q0 0.625 -0.125 1.1875q-0.109375 0.546875 -0.359375 0.953125q-0.25 0.40625 -0.65625 0.65625q-0.40625 0.234375 -0.96875 0.234375q-0.578125 0 -1.0 -0.234375q-0.40625 -0.25 -0.65625 -0.65625q-0.265625 -0.40625 -0.390625 -0.953125q-0.109375 -0.5625 -0.109375 -1.1875zm13.576843 -0.125l2.515625 5.015625l2.78125 0l0 -0.125l-2.890625 -5.53125q0.5625 -0.25 1.0 -0.59375q0.453125 -0.34375 0.765625 -0.796875q0.3125 -0.453125 0.484375 -1.03125q0.171875 -0.578125 0.171875 -1.296875q0 -1.0 -0.34375 -1.75q-0.34375 -0.75 -0.984375 -1.265625q-0.640625 -0.5 -1.546875 -0.765625q-0.90625 -0.265625 -2.015625 -0.265625l-4.5 0l0 13.421875l2.59375 0l0 -5.015625l1.96875 0zm-1.96875 -2.09375l0 -4.203125l1.90625 0q0.53125 0 0.9375 0.125q0.421875 0.125 0.71875 0.375q0.3125 0.265625 0.46875 0.671875q0.171875 0.40625 0.171875 0.9375q0 0.453125 -0.125 0.8125q-0.125 0.359375 -0.359375 0.609375q-0.296875 0.328125 -0.75 0.5q-0.453125 0.171875 -1.046875 0.171875l-1.921875 0zm13.670593 7.296875q1.4375 0 2.5 -0.5625q1.0625 -0.5625 1.546875 -1.25l-1.28125 -1.390625q-0.4375 0.578125 -1.15625 0.859375q-0.703125 0.28125 -1.453125 0.28125q-0.53125 0 -0.984375 -0.15625q-0.453125 -0.171875 -0.8125 -0.46875q-0.328125 -0.296875 -0.53125 -0.65625q-0.203125 -0.375 -0.34375 -0.96875l0 -0.03125l6.765625 0l0 -1.09375q0 -1.09375 -0.3125 -2.0q-0.296875 -0.90625 -0.875 -1.546875q-0.578125 -0.65625 -1.421875 -1.0q-0.84375 -0.359375 -1.921875 -0.359375q-1.046875 0 -1.9375 0.375q-0.875 0.375 -1.53125 1.0625q-0.640625 0.6875 -1.0 1.640625q-0.359375 0.9375 -0.359375 2.078125l0 0.359375q0 1.015625 0.359375 1.890625q0.375 0.875 1.046875 1.53125q0.671875 0.640625 1.609375 1.03125q0.9375 0.375 2.09375 0.375zm-0.3125 -8.265625q0.5 0 0.859375 0.15625q0.375 0.140625 0.640625 0.40625q0.25 0.265625 0.390625 0.625q0.15625 0.359375 0.15625 0.765625l0 0.203125l-4.203125 0q0.09375 -0.5 0.28125 -0.890625q0.1875 -0.390625 0.46875 -0.6875q0.265625 -0.28125 0.625 -0.421875q0.359375 -0.15625 0.78125 -0.15625zm6.7955933 8.078125l2.578125 0l0 -7.09375q0.125 -0.203125 0.28125 -0.359375q0.15625 -0.171875 0.34375 -0.28125q0.25 -0.171875 0.546875 -0.25q0.3125 -0.09375 0.6875 -0.09375q0.4375 0 0.78125 0.09375q0.359375 0.09375 0.609375 0.3125q0.25 0.21875 0.375 0.609375q0.140625 0.375 0.140625 0.96875l0 6.09375l2.5625 0l0 -6.140625q0 -1.078125 -0.25 -1.84375q-0.25 -0.765625 -0.703125 -1.25q-0.46875 -0.484375 -1.09375 -0.703125q-0.625 -0.21875 -1.375 -0.21875q-0.59375 0 -1.125 0.171875q-0.515625 0.15625 -0.96875 0.46875q-0.25 0.1875 -0.484375 0.421875q-0.234375 0.234375 -0.421875 0.5l-0.15625 -1.375l-2.328125 0l0 9.96875zm11.061218 -5.0625l0 0.203125q0 1.078125 0.265625 2.015625q0.265625 0.921875 0.78125 1.59375q0.5 0.671875 1.21875 1.0625q0.71875 0.375 1.640625 0.375q0.828125 0 1.46875 -0.3125q0.640625 -0.328125 1.109375 -0.921875l0.125 1.046875l2.3125 0l0 -14.15625l-2.578125 0l0 5.078125q-0.453125 -0.515625 -1.046875 -0.796875q-0.59375 -0.28125 -1.375 -0.28125q-0.9375 0 -1.65625 0.375q-0.71875 0.359375 -1.234375 1.03125q-0.5 0.671875 -0.765625 1.625q-0.265625 0.9375 -0.265625 2.0625zm2.5625 0.203125l0 -0.203125q0 -0.625 0.109375 -1.171875q0.109375 -0.546875 0.359375 -0.96875q0.234375 -0.40625 0.609375 -0.640625q0.390625 -0.234375 0.9375 -0.234375q0.65625 0 1.078125 0.28125q0.4375 0.28125 0.6875 0.796875l0 4.03125q-0.25 0.5 -0.6875 0.78125q-0.4375 0.28125 -1.109375 0.28125q-0.53125 0 -0.921875 -0.21875q-0.375 -0.234375 -0.609375 -0.640625q-0.234375 -0.390625 -0.34375 -0.921875q-0.109375 -0.546875 -0.109375 -1.171875zm13.873718 5.046875q1.4375 0 2.5 -0.5625q1.0625 -0.5625 1.546875 -1.25l-1.28125 -1.390625q-0.4375 0.578125 -1.15625 0.859375q-0.703125 0.28125 -1.453125 0.28125q-0.53125 0 -0.984375 -0.15625q-0.453125 -0.171875 -0.8125 -0.46875q-0.328125 -0.296875 -0.53125 -0.65625q-0.203125 -0.375 -0.34375 -0.96875l0 -0.03125l6.765625 0l0 -1.09375q0 -1.09375 -0.3125 -2.0q-0.296875 -0.90625 -0.875 -1.546875q-0.578125 -0.65625 -1.421875 -1.0q-0.84375 -0.359375 -1.921875 -0.359375q-1.046875 0 -1.9375 0.375q-0.875 0.375 -1.53125 1.0625q-0.640625 0.6875 -1.0 1.640625q-0.359375 0.9375 -0.359375 2.078125l0 0.359375q0 1.015625 0.359375 1.890625q0.375 0.875 1.046875 1.53125q0.671875 0.640625 1.609375 1.03125q0.9375 0.375 2.09375 0.375zm-0.3125 -8.265625q0.5 0 0.859375 0.15625q0.375 0.140625 0.640625 0.40625q0.25 0.265625 0.390625 0.625q0.15625 0.359375 0.15625 0.765625l0 0.203125l-4.203125 0q0.09375 -0.5 0.28125 -0.890625q0.1875 -0.390625 0.46875 -0.6875q0.265625 -0.28125 0.625 -0.421875q0.359375 -0.15625 0.78125 -0.15625zm13.951843 -2.078125q-1.0 0 -1.84375 0.484375q-0.84375 0.484375 -1.453125 1.328125l-0.015625 -0.21875l-0.109375 -1.40625l-2.390625 0l0 9.96875l2.5625 0l0 -5.984375q0.171875 -0.4375 0.4375 -0.75q0.28125 -0.3125 0.65625 -0.515625q0.3125 -0.171875 0.703125 -0.25q0.40625 -0.09375 0.90625 -0.09375q0.484375 0 1.015625 0.0625q0.53125 0.0625 1.03125 0.171875l0.375 -2.546875q-0.296875 -0.09375 -0.796875 -0.171875q-0.484375 -0.078125 -1.078125 -0.078125zm9.014343 10.34375q1.4375 0 2.5 -0.5625q1.0625 -0.5625 1.546875 -1.25l-1.28125 -1.390625q-0.4375 0.578125 -1.15625 0.859375q-0.703125 0.28125 -1.453125 0.28125q-0.53125 0 -0.984375 -0.15625q-0.453125 -0.171875 -0.8125 -0.46875q-0.328125 -0.296875 -0.53125 -0.65625q-0.203125 -0.375 -0.34375 -0.96875l0 -0.03125l6.765625 0l0 -1.09375q0 -1.09375 -0.3125 -2.0q-0.296875 -0.90625 -0.875 -1.546875q-0.578125 -0.65625 -1.421875 -1.0q-0.84375 -0.359375 -1.921875 -0.359375q-1.046875 0 -1.9375 0.375q-0.875 0.375 -1.53125 1.0625q-0.640625 0.6875 -1.0 1.640625q-0.359375 0.9375 -0.359375 2.078125l0 0.359375q0 1.015625 0.359375 1.890625q0.375 0.875 1.046875 1.53125q0.671875 0.640625 1.609375 1.03125q0.9375 0.375 2.09375 0.375zm-0.3125 -8.265625q0.5 0 0.859375 0.15625q0.375 0.140625 0.640625 0.40625q0.25 0.265625 0.390625 0.625q0.15625 0.359375 0.15625 0.765625l0 0.203125l-4.203125 0q0.09375 -0.5 0.28125 -0.890625q0.1875 -0.390625 0.46875 -0.6875q0.265625 -0.28125 0.625 -0.421875q0.359375 -0.15625 0.78125 -0.15625zm13.951843 -2.078125q-1.0 0 -1.84375 0.484375q-0.84375 0.484375 -1.453125 1.328125l-0.015625 -0.21875l-0.109375 -1.40625l-2.390625 0l0 9.96875l2.5625 0l0 -5.984375q0.171875 -0.4375 0.4375 -0.75q0.28125 -0.3125 0.65625 -0.515625q0.3125 -0.171875 0.703125 -0.25q0.40625 -0.09375 0.90625 -0.09375q0.484375 0 1.015625 0.0625q0.53125 0.0625 1.03125 0.171875l0.375 -2.546875q-0.296875 -0.09375 -0.796875 -0.171875q-0.484375 -0.078125 -1.078125 -0.078125z" fill-rule="nonzero"/><path fill="#000000" fill-opacity="0.0" d="m335.6505 110.23582l-199.81102 0l0 104.472435" fill-rule="evenodd"/><path stroke="#000000" stroke-width="1.0131233595800524" stroke-linejoin="round" stroke-linecap="butt" d="m335.65054 110.23581l-199.81105 0l0 98.39371" fill-rule="evenodd"/><path fill="#000000" stroke="#000000" stroke-width="1.0131233595800524" stroke-linecap="butt" d="m134.16609 208.62952l1.6734009 4.597641l1.6734161 -4.597641z" fill-rule="evenodd"/><path fill="#ffffff" d="m143.28014 91.11115l142.17323 0l0 34.33071l-142.17323 0z" fill-rule="evenodd"/><path fill="#000000" d="m153.10826 108.51184l0 0.125q0 0.6875 0.171875 1.28125q0.1875 0.59375 0.515625 1.03125q0.328125 0.4375 0.796875 0.6875q0.46875 0.25 1.0625 0.25q0.34375 0 0.640625 -0.078125q0.3125 -0.078125 0.5625 -0.21875q0.15625 -0.078125 0.296875 -0.1875q0.140625 -0.125 0.265625 -0.28125l0 0.5625q0 0.40625 -0.125 0.71875q-0.109375 0.328125 -0.328125 0.546875q-0.234375 0.21875 -0.546875 0.328125q-0.3125 0.109375 -0.703125 0.109375q-0.21875 0 -0.4375 -0.046875q-0.21875 -0.03125 -0.4375 -0.140625q-0.21875 -0.09375 -0.4375 -0.265625q-0.203125 -0.171875 -0.40625 -0.40625l-0.5625 0.65625q0.21875 0.3125 0.515625 0.515625q0.3125 0.21875 0.640625 0.34375q0.328125 0.125 0.640625 0.171875q0.328125 0.0625 0.5625 0.0625q0.609375 0 1.109375 -0.171875q0.5 -0.171875 0.859375 -0.515625q0.359375 -0.34375 0.546875 -0.84375q0.203125 -0.484375 0.203125 -1.125l0 -6.265625l-1.0 0l-0.046875 0.703125q-0.109375 -0.140625 -0.25 -0.265625q-0.125 -0.125 -0.265625 -0.203125q-0.25 -0.171875 -0.578125 -0.265625q-0.328125 -0.09375 -0.703125 -0.09375q-0.609375 0 -1.078125 0.25q-0.46875 0.25 -0.796875 0.671875q-0.34375 0.4375 -0.515625 1.046875q-0.171875 0.59375 -0.171875 1.3125zm1.09375 0.125l0 -0.125q0 -0.46875 0.09375 -0.890625q0.109375 -0.4375 0.3125 -0.75q0.21875 -0.328125 0.546875 -0.515625q0.328125 -0.1875 0.78125 -0.1875q0.28125 0 0.5 0.078125q0.21875 0.0625 0.40625 0.171875q0.1875 0.125 0.328125 0.296875q0.140625 0.15625 0.25 0.359375l0 2.9375q-0.109375 0.203125 -0.25 0.375q-0.140625 0.171875 -0.3125 0.296875q-0.1875 0.125 -0.421875 0.203125q-0.21875 0.0625 -0.515625 0.0625q-0.453125 0 -0.78125 -0.1875q-0.3125 -0.1875 -0.53125 -0.5q-0.203125 -0.328125 -0.3125 -0.75q-0.09375 -0.421875 -0.09375 -0.875zm9.213684 3.25q0.9375 0 1.5625 -0.375q0.640625 -0.390625 0.96875 -0.875l-0.671875 -0.515625q-0.296875 0.390625 -0.765625 0.625q-0.453125 0.234375 -1.03125 0.234375q-0.453125 0 -0.828125 -0.15625q-0.359375 -0.171875 -0.609375 -0.453125q-0.265625 -0.28125 -0.40625 -0.625q-0.140625 -0.359375 -0.1875 -0.828125l0 -0.046875l4.578125 0l0 -0.484375q0 -0.671875 -0.171875 -1.25q-0.15625 -0.578125 -0.5 -1.0q-0.34375 -0.421875 -0.875 -0.65625q-0.515625 -0.25 -1.203125 -0.25q-0.546875 0 -1.078125 0.234375q-0.515625 0.21875 -0.921875 0.640625q-0.421875 0.421875 -0.671875 1.046875q-0.25 0.609375 -0.25 1.375l0 0.25q0 0.671875 0.21875 1.25q0.234375 0.5625 0.640625 0.96875q0.390625 0.421875 0.953125 0.65625q0.578125 0.234375 1.25 0.234375zm-0.140625 -5.75q0.421875 0 0.71875 0.15625q0.3125 0.15625 0.515625 0.40625q0.203125 0.25 0.3125 0.59375q0.109375 0.328125 0.109375 0.625l0 0.046875l-3.4375 0q0.0625 -0.4375 0.21875 -0.765625q0.171875 -0.34375 0.40625 -0.59375q0.234375 -0.21875 0.53125 -0.34375q0.296875 -0.125 0.625 -0.125zm7.182434 -2.328125l-1.109375 0l0 1.546875l-1.671875 0l0 0.84375l1.671875 0l0 3.484375q0 0.59375 0.15625 1.015625q0.15625 0.40625 0.4375 0.671875q0.265625 0.265625 0.640625 0.390625q0.375 0.125 0.796875 0.125q0.25 0 0.5 -0.03125q0.265625 -0.015625 0.5 -0.0625q0.234375 -0.046875 0.421875 -0.109375q0.203125 -0.0625 0.34375 -0.140625l-0.15625 -0.78125q-0.109375 0.015625 -0.265625 0.0625q-0.15625 0.03125 -0.328125 0.0625q-0.1875 0.015625 -0.375 0.046875q-0.1875 0.015625 -0.375 0.015625q-0.234375 0 -0.453125 -0.046875q-0.21875 -0.0625 -0.375 -0.21875q-0.171875 -0.140625 -0.265625 -0.375q-0.09375 -0.25 -0.09375 -0.625l0 -3.484375l2.4375 0l0 -0.84375l-2.4375 0l0 -1.546875zm10.260559 5.359375l-1.09375 0q-0.046875 0.390625 -0.1875 0.734375q-0.125 0.328125 -0.34375 0.5625q-0.21875 0.25 -0.546875 0.390625q-0.3125 0.140625 -0.734375 0.140625q-0.40625 0 -0.703125 -0.125q-0.28125 -0.140625 -0.5 -0.359375q-0.21875 -0.21875 -0.375 -0.5q-0.140625 -0.296875 -0.21875 -0.625q-0.09375 -0.328125 -0.140625 -0.671875q-0.03125 -0.34375 -0.03125 -0.65625l0 -1.21875q0 -0.3125 0.03125 -0.65625q0.046875 -0.34375 0.140625 -0.671875q0.078125 -0.328125 0.21875 -0.609375q0.15625 -0.296875 0.375 -0.515625q0.21875 -0.21875 0.515625 -0.34375q0.296875 -0.125 0.6875 -0.125q0.421875 0 0.734375 0.15625q0.328125 0.140625 0.546875 0.390625q0.21875 0.25 0.34375 0.59375q0.140625 0.328125 0.1875 0.71875l1.09375 0q-0.0625 -0.609375 -0.296875 -1.109375q-0.21875 -0.515625 -0.578125 -0.890625q-0.375 -0.359375 -0.890625 -0.546875q-0.5 -0.203125 -1.140625 -0.203125q-0.546875 0 -0.984375 0.15625q-0.421875 0.140625 -0.765625 0.40625q-0.34375 0.265625 -0.59375 0.640625q-0.234375 0.359375 -0.390625 0.78125q-0.171875 0.421875 -0.25 0.890625q-0.078125 0.46875 -0.078125 0.953125l0 1.203125q0 0.46875 0.078125 0.9375q0.078125 0.46875 0.25 0.90625q0.15625 0.421875 0.390625 0.78125q0.25 0.359375 0.59375 0.625q0.34375 0.265625 0.78125 0.421875q0.4375 0.15625 0.96875 0.15625q0.625 0 1.125 -0.203125q0.5 -0.203125 0.875 -0.5625q0.375 -0.359375 0.59375 -0.859375q0.234375 -0.5 0.3125 -1.09375zm5.916809 2.59375l1.0 0l0 -6.40625l-1.109375 0l0 4.59375q-0.078125 0.203125 -0.21875 0.390625q-0.125 0.171875 -0.3125 0.296875q-0.203125 0.140625 -0.5 0.234375q-0.296875 0.078125 -0.65625 0.078125q-0.3125 0 -0.5625 -0.078125q-0.234375 -0.078125 -0.390625 -0.28125q-0.171875 -0.203125 -0.265625 -0.546875q-0.078125 -0.34375 -0.078125 -0.875l0 -3.8125l-1.09375 0l0 3.8125q0 0.71875 0.15625 1.234375q0.15625 0.5 0.453125 0.828125q0.28125 0.328125 0.6875 0.5q0.421875 0.15625 0.921875 0.15625q0.625 0 1.09375 -0.265625q0.484375 -0.265625 0.8125 -0.734375l0.0625 0.875zm7.260559 -6.53125q-0.703125 0 -1.25 0.3125q-0.546875 0.296875 -0.9375 0.828125l-0.015625 -0.15625l-0.046875 -0.859375l-1.03125 0l0 6.40625l1.09375 0l0 -4.109375q0.109375 -0.296875 0.265625 -0.53125q0.171875 -0.25 0.390625 -0.40625q0.234375 -0.1875 0.5625 -0.28125q0.328125 -0.109375 0.734375 -0.109375q0.3125 0 0.59375 0.03125q0.296875 0.03125 0.609375 0.109375l0.15625 -1.078125q-0.171875 -0.0625 -0.5 -0.109375q-0.328125 -0.046875 -0.625 -0.046875zm7.276184 0q-0.703125 0 -1.25 0.3125q-0.546875 0.296875 -0.9375 0.828125l-0.015625 -0.15625l-0.046875 -0.859375l-1.03125 0l0 6.40625l1.09375 0l0 -4.109375q0.109375 -0.296875 0.265625 -0.53125q0.171875 -0.25 0.390625 -0.40625q0.234375 -0.1875 0.5625 -0.28125q0.328125 -0.109375 0.734375 -0.109375q0.3125 0 0.59375 0.03125q0.296875 0.03125 0.609375 0.109375l0.15625 -1.078125q-0.171875 -0.0625 -0.5 -0.109375q-0.328125 -0.046875 -0.625 -0.046875zm5.901184 6.65625q0.9375 0 1.5625 -0.375q0.640625 -0.390625 0.96875 -0.875l-0.671875 -0.515625q-0.296875 0.390625 -0.765625 0.625q-0.453125 0.234375 -1.03125 0.234375q-0.453125 0 -0.828125 -0.15625q-0.359375 -0.171875 -0.609375 -0.453125q-0.265625 -0.28125 -0.40625 -0.625q-0.140625 -0.359375 -0.1875 -0.828125l0 -0.046875l4.578125 0l0 -0.484375q0 -0.671875 -0.171875 -1.25q-0.15625 -0.578125 -0.5 -1.0q-0.34375 -0.421875 -0.875 -0.65625q-0.515625 -0.25 -1.203125 -0.25q-0.546875 0 -1.078125 0.234375q-0.515625 0.21875 -0.921875 0.640625q-0.421875 0.421875 -0.671875 1.046875q-0.25 0.609375 -0.25 1.375l0 0.25q0 0.671875 0.21875 1.25q0.234375 0.5625 0.640625 0.96875q0.390625 0.421875 0.953125 0.65625q0.578125 0.234375 1.25 0.234375zm-0.140625 -5.75q0.421875 0 0.71875 0.15625q0.3125 0.15625 0.515625 0.40625q0.203125 0.25 0.3125 0.59375q0.109375 0.328125 0.109375 0.625l0 0.046875l-3.4375 0q0.0625 -0.4375 0.21875 -0.765625q0.171875 -0.34375 0.40625 -0.59375q0.234375 -0.21875 0.53125 -0.34375q0.296875 -0.125 0.625 -0.125zm4.588684 5.625l1.09375 0l0 -4.59375q0.109375 -0.203125 0.265625 -0.375q0.15625 -0.171875 0.328125 -0.3125q0.21875 -0.140625 0.46875 -0.21875q0.265625 -0.09375 0.578125 -0.09375q0.34375 0 0.609375 0.09375q0.265625 0.078125 0.46875 0.25q0.171875 0.1875 0.265625 0.484375q0.09375 0.296875 0.09375 0.71875l0 4.046875l1.109375 0l0 -4.0625q0 -0.640625 -0.171875 -1.109375q-0.15625 -0.46875 -0.4375 -0.765625q-0.296875 -0.296875 -0.703125 -0.4375q-0.40625 -0.15625 -0.921875 -0.15625q-0.359375 0.015625 -0.703125 0.125q-0.328125 0.09375 -0.609375 0.28125q-0.203125 0.125 -0.375 0.296875q-0.15625 0.171875 -0.296875 0.375l-0.078125 -0.953125l-0.984375 0l0 6.40625zm9.869934 -7.953125l-1.109375 0l0 1.546875l-1.671875 0l0 0.84375l1.671875 0l0 3.484375q0 0.59375 0.15625 1.015625q0.15625 0.40625 0.4375 0.671875q0.265625 0.265625 0.640625 0.390625q0.375 0.125 0.796875 0.125q0.25 0 0.5 -0.03125q0.265625 -0.015625 0.5 -0.0625q0.234375 -0.046875 0.421875 -0.109375q0.203125 -0.0625 0.34375 -0.140625l-0.15625 -0.78125q-0.109375 0.015625 -0.265625 0.0625q-0.15625 0.03125 -0.328125 0.0625q-0.1875 0.015625 -0.375 0.046875q-0.1875 0.015625 -0.375 0.015625q-0.234375 0 -0.453125 -0.046875q-0.21875 -0.0625 -0.375 -0.21875q-0.171875 -0.140625 -0.265625 -0.375q-0.09375 -0.25 -0.09375 -0.625l0 -3.484375l2.4375 0l0 -0.84375l-2.4375 0l0 -1.546875zm10.494934 0.265625l0 -0.9375l-6.390625 0l0 0.9375l2.65625 0l0 7.6875l1.078125 0l0 -7.6875l2.65625 0zm1.6355591 1.28125l0 0.953125l2.171875 0l0 4.5l-2.171875 0l0 0.953125l5.359375 0l0 -0.953125l-2.09375 0l0 -5.453125l-3.265625 0zm2.03125 -1.6875q0 0.265625 0.15625 0.453125q0.171875 0.171875 0.5 0.171875q0.328125 0 0.484375 -0.171875q0.171875 -0.1875 0.171875 -0.453125q0 -0.140625 -0.046875 -0.265625q-0.046875 -0.125 -0.140625 -0.203125q-0.078125 -0.078125 -0.203125 -0.125q-0.109375 -0.046875 -0.265625 -0.046875q-0.15625 0 -0.28125 0.046875q-0.109375 0.046875 -0.1875 0.125q-0.09375 0.078125 -0.140625 0.203125q-0.046875 0.125 -0.046875 0.265625zm5.573059 1.6875l-0.984375 0l0 6.40625l1.046875 0l0 -5.09375q0.03125 -0.09375 0.078125 -0.171875q0.0625 -0.09375 0.140625 -0.15625q0.109375 -0.078125 0.25 -0.125q0.140625 -0.046875 0.34375 -0.046875q0.171875 0 0.296875 0.046875q0.140625 0.046875 0.234375 0.140625q0.09375 0.09375 0.140625 0.25q0.046875 0.15625 0.046875 0.359375l0 4.796875l1.03125 0l0 -4.796875q0 -0.03125 0 -0.0625q0 -0.03125 0 -0.046875q0.03125 -0.15625 0.078125 -0.28125q0.046875 -0.125 0.140625 -0.21875q0.09375 -0.078125 0.234375 -0.125q0.15625 -0.0625 0.34375 -0.0625q0.1875 0 0.328125 0.046875q0.140625 0.046875 0.234375 0.140625q0.078125 0.09375 0.125 0.25q0.0625 0.15625 0.0625 0.359375l0 4.796875l1.03125 0l0 -4.78125q0 -0.46875 -0.109375 -0.796875q-0.09375 -0.34375 -0.296875 -0.5625q-0.1875 -0.1875 -0.453125 -0.28125q-0.265625 -0.109375 -0.59375 -0.109375q-0.25 0.015625 -0.453125 0.078125q-0.203125 0.046875 -0.375 0.15625q-0.125 0.09375 -0.234375 0.21875q-0.109375 0.109375 -0.203125 0.234375q-0.0625 -0.140625 -0.15625 -0.25q-0.09375 -0.125 -0.203125 -0.21875q-0.15625 -0.09375 -0.359375 -0.15625q-0.203125 -0.0625 -0.453125 -0.0625q-0.453125 0.015625 -0.765625 0.203125q-0.3125 0.1875 -0.515625 0.53125l-0.03125 -0.609375zm9.604309 6.53125q0.9375 0 1.5625 -0.375q0.640625 -0.390625 0.96875 -0.875l-0.671875 -0.515625q-0.296875 0.390625 -0.765625 0.625q-0.453125 0.234375 -1.03125 0.234375q-0.453125 0 -0.828125 -0.15625q-0.359375 -0.171875 -0.609375 -0.453125q-0.265625 -0.28125 -0.40625 -0.625q-0.140625 -0.359375 -0.1875 -0.828125l0 -0.046875l4.578125 0l0 -0.484375q0 -0.671875 -0.171875 -1.25q-0.15625 -0.578125 -0.5 -1.0q-0.34375 -0.421875 -0.875 -0.65625q-0.515625 -0.25 -1.203125 -0.25q-0.546875 0 -1.078125 0.234375q-0.515625 0.21875 -0.921875 0.640625q-0.421875 0.421875 -0.671875 1.046875q-0.25 0.609375 -0.25 1.375l0 0.25q0 0.671875 0.21875 1.25q0.234375 0.5625 0.640625 0.96875q0.390625 0.421875 0.953125 0.65625q0.578125 0.234375 1.25 0.234375zm-0.140625 -5.75q0.421875 0 0.71875 0.15625q0.3125 0.15625 0.515625 0.40625q0.203125 0.25 0.3125 0.59375q0.109375 0.328125 0.109375 0.625l0 0.046875l-3.4375 0q0.0625 -0.4375 0.21875 -0.765625q0.171875 -0.34375 0.40625 -0.59375q0.234375 -0.21875 0.53125 -0.34375q0.296875 -0.125 0.625 -0.125zm5.6668243 2.125l0 0.0625q0 0.84375 0.125 1.59375q0.140625 0.75 0.375 1.375q0.21875 0.640625 0.5 1.15625q0.296875 0.53125 0.625 0.9375q0.328125 0.421875 0.65625 0.703125q0.328125 0.28125 0.625 0.453125l0.21875 -0.671875q-0.234375 -0.1875 -0.484375 -0.46875q-0.234375 -0.265625 -0.453125 -0.625q-0.21875 -0.375 -0.421875 -0.84375q-0.203125 -0.46875 -0.359375 -1.03125q-0.140625 -0.53125 -0.234375 -1.171875q-0.078125 -0.65625 -0.078125 -1.390625l0 -0.09375q0 -0.765625 0.09375 -1.4375q0.09375 -0.671875 0.25 -1.21875q0.171875 -0.625 0.40625 -1.140625q0.25 -0.515625 0.53125 -0.90625q0.1875 -0.234375 0.375 -0.4375q0.1875 -0.203125 0.375 -0.34375l-0.21875 -0.734375q-0.296875 0.171875 -0.625 0.46875q-0.328125 0.28125 -0.65625 0.6875q-0.3125 0.40625 -0.609375 0.9375q-0.296875 0.53125 -0.515625 1.15625q-0.234375 0.640625 -0.375 1.390625q-0.125 0.75 -0.125 1.59375zm10.198059 0.0625l0 -0.0625q0 -0.90625 -0.140625 -1.625q-0.140625 -0.734375 -0.359375 -1.359375q-0.21875 -0.640625 -0.515625 -1.15625q-0.28125 -0.515625 -0.609375 -0.9375q-0.328125 -0.40625 -0.65625 -0.6875q-0.328125 -0.296875 -0.625 -0.46875l-0.234375 0.671875q0.203125 0.171875 0.40625 0.40625q0.203125 0.21875 0.40625 0.515625q0.25 0.390625 0.484375 0.90625q0.25 0.515625 0.421875 1.171875q0.125 0.453125 0.21875 1.109375q0.09375 0.640625 0.09375 1.4375l0 0.09375q0 0.703125 -0.078125 1.328125q-0.0625 0.609375 -0.203125 1.140625q-0.125 0.578125 -0.328125 1.0625q-0.203125 0.484375 -0.421875 0.859375q-0.234375 0.375 -0.5 0.671875q-0.25 0.296875 -0.5 0.46875l0.234375 0.671875q0.296875 -0.171875 0.625 -0.453125q0.328125 -0.28125 0.65625 -0.703125q0.3125 -0.40625 0.609375 -0.9375q0.296875 -0.515625 0.515625 -1.15625q0.234375 -0.625 0.359375 -1.375q0.140625 -0.75 0.140625 -1.59375z" fill-rule="nonzero"/><path fill="#000000" fill-opacity="0.0" d="m335.6505 418.70337l-199.81102 0l0 -119.590546" fill-rule="evenodd"/><path stroke="#000000" stroke-width="1.0131233595800524" stroke-linejoin="round" stroke-linecap="butt" d="m329.57178 418.70337l-193.73228 0l0 -119.590546" fill-rule="evenodd"/><path fill="#000000" stroke="#000000" stroke-width="1.0131233595800524" stroke-linecap="butt" d="m329.57178 420.37677l4.5976562 -1.6734009l-4.5976562 -1.6734009z" fill-rule="evenodd"/><path fill="#ffffff" d="m168.01576 399.57742l120.28346 0l0 34.33072l-120.28346 0z" fill-rule="evenodd"/><path fill="#000000" d="m182.25014 413.69687q-0.703125 0 -1.25 0.3125q-0.546875 0.296875 -0.9375 0.828125l-0.015625 -0.15625l-0.046875 -0.859375l-1.03125 0l0 6.40625l1.09375 0l0 -4.109375q0.109375 -0.296875 0.265625 -0.53125q0.171875 -0.25 0.390625 -0.40625q0.234375 -0.1875 0.5625 -0.28125q0.328125 -0.109375 0.734375 -0.109375q0.3125 0 0.59375 0.03125q0.296875 0.03125 0.609375 0.109375l0.15625 -1.078125q-0.171875 -0.0625 -0.5 -0.109375q-0.328125 -0.046875 -0.625 -0.046875zm5.901184 6.65625q0.9375 0 1.5625 -0.375q0.640625 -0.390625 0.96875 -0.875l-0.671875 -0.515625q-0.296875 0.390625 -0.765625 0.625q-0.453125 0.234375 -1.03125 0.234375q-0.453125 0 -0.828125 -0.15625q-0.359375 -0.171875 -0.609375 -0.453125q-0.265625 -0.28125 -0.40625 -0.625q-0.140625 -0.359375 -0.1875 -0.828125l0 -0.046875l4.578125 0l0 -0.484375q0 -0.671875 -0.171875 -1.25q-0.15625 -0.578125 -0.5 -1.0q-0.34375 -0.421875 -0.875 -0.65625q-0.515625 -0.25 -1.203125 -0.25q-0.546875 0 -1.078125 0.234375q-0.515625 0.21875 -0.921875 0.640625q-0.421875 0.421875 -0.671875 1.046875q-0.25 0.609375 -0.25 1.375l0 0.25q0 0.671875 0.21875 1.25q0.234375 0.5625 0.640625 0.96875q0.390625 0.421875 0.953125 0.65625q0.578125 0.234375 1.25 0.234375zm-0.140625 -5.75q0.421875 0 0.71875 0.15625q0.3125 0.15625 0.515625 0.40625q0.203125 0.25 0.3125 0.59375q0.109375 0.328125 0.109375 0.625l0 0.046875l-3.4375 0q0.0625 -0.4375 0.21875 -0.765625q0.171875 -0.34375 0.40625 -0.59375q0.234375 -0.21875 0.53125 -0.34375q0.296875 -0.125 0.625 -0.125zm4.588684 5.625l1.09375 0l0 -4.59375q0.109375 -0.203125 0.265625 -0.375q0.15625 -0.171875 0.328125 -0.3125q0.21875 -0.140625 0.46875 -0.21875q0.265625 -0.09375 0.578125 -0.09375q0.34375 0 0.609375 0.09375q0.265625 0.078125 0.46875 0.25q0.171875 0.1875 0.265625 0.484375q0.09375 0.296875 0.09375 0.71875l0 4.046875l1.109375 0l0 -4.0625q0 -0.640625 -0.171875 -1.109375q-0.15625 -0.46875 -0.4375 -0.765625q-0.296875 -0.296875 -0.703125 -0.4375q-0.40625 -0.15625 -0.921875 -0.15625q-0.359375 0.015625 -0.703125 0.125q-0.328125 0.09375 -0.609375 0.28125q-0.203125 0.125 -0.375 0.296875q-0.15625 0.171875 -0.296875 0.375l-0.078125 -0.953125l-0.984375 0l0 6.40625zm7.073059 -3.25l0 0.125q0 0.6875 0.171875 1.28125q0.1875 0.59375 0.515625 1.03125q0.34375 0.4375 0.8125 0.6875q0.46875 0.25 1.046875 0.25q0.59375 0 1.03125 -0.203125q0.453125 -0.203125 0.765625 -0.59375l0.046875 0.671875l1.015625 0l0 -9.09375l-1.09375 0l0 3.328125q-0.328125 -0.375 -0.765625 -0.5625q-0.421875 -0.203125 -0.984375 -0.203125q-0.59375 0 -1.0625 0.25q-0.46875 0.25 -0.8125 0.671875q-0.328125 0.4375 -0.515625 1.046875q-0.171875 0.59375 -0.171875 1.3125zm1.09375 0.125l0 -0.125q0 -0.46875 0.09375 -0.890625q0.109375 -0.4375 0.3125 -0.75q0.21875 -0.328125 0.546875 -0.515625q0.328125 -0.1875 0.78125 -0.1875q0.546875 0 0.90625 0.25q0.359375 0.25 0.578125 0.640625l0 2.96875q-0.21875 0.421875 -0.578125 0.671875q-0.359375 0.25 -0.921875 0.25q-0.453125 0 -0.78125 -0.1875q-0.3125 -0.1875 -0.53125 -0.5q-0.203125 -0.328125 -0.3125 -0.75q-0.09375 -0.421875 -0.09375 -0.875zm9.213684 3.25q0.9375 0 1.5625 -0.375q0.640625 -0.390625 0.96875 -0.875l-0.671875 -0.515625q-0.296875 0.390625 -0.765625 0.625q-0.453125 0.234375 -1.03125 0.234375q-0.453125 0 -0.828125 -0.15625q-0.359375 -0.171875 -0.609375 -0.453125q-0.265625 -0.28125 -0.40625 -0.625q-0.140625 -0.359375 -0.1875 -0.828125l0 -0.046875l4.578125 0l0 -0.484375q0 -0.671875 -0.171875 -1.25q-0.15625 -0.578125 -0.5 -1.0q-0.34375 -0.421875 -0.875 -0.65625q-0.515625 -0.25 -1.203125 -0.25q-0.546875 0 -1.078125 0.234375q-0.515625 0.21875 -0.921875 0.640625q-0.421875 0.421875 -0.671875 1.046875q-0.25 0.609375 -0.25 1.375l0 0.25q0 0.671875 0.21875 1.25q0.234375 0.5625 0.640625 0.96875q0.390625 0.421875 0.953125 0.65625q0.578125 0.234375 1.25 0.234375zm-0.140625 -5.75q0.421875 0 0.71875 0.15625q0.3125 0.15625 0.515625 0.40625q0.203125 0.25 0.3125 0.59375q0.109375 0.328125 0.109375 0.625l0 0.046875l-3.4375 0q0.0625 -0.4375 0.21875 -0.765625q0.171875 -0.34375 0.40625 -0.59375q0.234375 -0.21875 0.53125 -0.34375q0.296875 -0.125 0.625 -0.125zm8.791809 -0.90625q-0.703125 0 -1.25 0.3125q-0.546875 0.296875 -0.9375 0.828125l-0.015625 -0.15625l-0.046875 -0.859375l-1.03125 0l0 6.40625l1.09375 0l0 -4.109375q0.109375 -0.296875 0.265625 -0.53125q0.171875 -0.25 0.390625 -0.40625q0.234375 -0.1875 0.5625 -0.28125q0.328125 -0.109375 0.734375 -0.109375q0.3125 0 0.59375 0.03125q0.296875 0.03125 0.609375 0.109375l0.15625 -1.078125q-0.171875 -0.0625 -0.5 -0.109375q-0.328125 -0.046875 -0.625 -0.046875zm4.151184 3.03125l0 0.0625q0 0.84375 0.125 1.59375q0.140625 0.75 0.375 1.375q0.21875 0.640625 0.5 1.15625q0.296875 0.53125 0.625 0.9375q0.328125 0.421875 0.65625 0.703125q0.328125 0.28125 0.625 0.453125l0.21875 -0.671875q-0.234375 -0.1875 -0.484375 -0.46875q-0.234375 -0.265625 -0.453125 -0.625q-0.21875 -0.375 -0.421875 -0.84375q-0.203125 -0.46875 -0.359375 -1.03125q-0.140625 -0.53125 -0.234375 -1.171875q-0.078125 -0.65625 -0.078125 -1.390625l0 -0.09375q0 -0.765625 0.09375 -1.4375q0.09375 -0.671875 0.25 -1.21875q0.171875 -0.625 0.40625 -1.140625q0.25 -0.515625 0.53125 -0.90625q0.1875 -0.234375 0.375 -0.4375q0.1875 -0.203125 0.375 -0.34375l-0.21875 -0.734375q-0.296875 0.171875 -0.625 0.46875q-0.328125 0.28125 -0.65625 0.6875q-0.3125 0.40625 -0.609375 0.9375q-0.296875 0.53125 -0.515625 1.15625q-0.234375 0.640625 -0.375 1.390625q-0.125 0.75 -0.125 1.59375zm8.791809 -4.453125l-1.109375 0l0 1.546875l-1.671875 0l0 0.84375l1.671875 0l0 3.484375q0 0.59375 0.15625 1.015625q0.15625 0.40625 0.4375 0.671875q0.265625 0.265625 0.640625 0.390625q0.375 0.125 0.796875 0.125q0.25 0 0.5 -0.03125q0.265625 -0.015625 0.5 -0.0625q0.234375 -0.046875 0.421875 -0.109375q0.203125 -0.0625 0.34375 -0.140625l-0.15625 -0.78125q-0.109375 0.015625 -0.265625 0.0625q-0.15625 0.03125 -0.328125 0.0625q-0.1875 0.015625 -0.375 0.046875q-0.1875 0.015625 -0.375 0.015625q-0.234375 0 -0.453125 -0.046875q-0.21875 -0.0625 -0.375 -0.21875q-0.171875 -0.140625 -0.265625 -0.375q-0.09375 -0.25 -0.09375 -0.625l0 -3.484375l2.4375 0l0 -0.84375l-2.4375 0l0 -1.546875zm4.854309 1.546875l0 0.953125l2.171875 0l0 4.5l-2.171875 0l0 0.953125l5.359375 0l0 -0.953125l-2.09375 0l0 -5.453125l-3.265625 0zm2.03125 -1.6875q0 0.265625 0.15625 0.453125q0.171875 0.171875 0.5 0.171875q0.328125 0 0.484375 -0.171875q0.171875 -0.1875 0.171875 -0.453125q0 -0.140625 -0.046875 -0.265625q-0.046875 -0.125 -0.140625 -0.203125q-0.078125 -0.078125 -0.203125 -0.125q-0.109375 -0.046875 -0.265625 -0.046875q-0.15625 0 -0.28125 0.046875q-0.109375 0.046875 -0.1875 0.125q-0.09375 0.078125 -0.140625 0.203125q-0.046875 0.125 -0.046875 0.265625zm5.573059 1.6875l-0.984375 0l0 6.40625l1.046875 0l0 -5.09375q0.03125 -0.09375 0.078125 -0.171875q0.0625 -0.09375 0.140625 -0.15625q0.109375 -0.078125 0.25 -0.125q0.140625 -0.046875 0.34375 -0.046875q0.171875 0 0.296875 0.046875q0.140625 0.046875 0.234375 0.140625q0.09375 0.09375 0.140625 0.25q0.046875 0.15625 0.046875 0.359375l0 4.796875l1.03125 0l0 -4.796875q0 -0.03125 0 -0.0625q0 -0.03125 0 -0.046875q0.03125 -0.15625 0.078125 -0.28125q0.046875 -0.125 0.140625 -0.21875q0.09375 -0.078125 0.234375 -0.125q0.15625 -0.0625 0.34375 -0.0625q0.1875 0 0.328125 0.046875q0.140625 0.046875 0.234375 0.140625q0.078125 0.09375 0.125 0.25q0.0625 0.15625 0.0625 0.359375l0 4.796875l1.03125 0l0 -4.78125q0 -0.46875 -0.109375 -0.796875q-0.09375 -0.34375 -0.296875 -0.5625q-0.1875 -0.1875 -0.453125 -0.28125q-0.265625 -0.109375 -0.59375 -0.109375q-0.25 0.015625 -0.453125 0.078125q-0.203125 0.046875 -0.375 0.15625q-0.125 0.09375 -0.234375 0.21875q-0.109375 0.109375 -0.203125 0.234375q-0.0625 -0.140625 -0.15625 -0.25q-0.09375 -0.125 -0.203125 -0.21875q-0.15625 -0.09375 -0.359375 -0.15625q-0.203125 -0.0625 -0.453125 -0.0625q-0.453125 0.015625 -0.765625 0.203125q-0.3125 0.1875 -0.515625 0.53125l-0.03125 -0.609375zm9.604309 6.53125q0.9375 0 1.5625 -0.375q0.640625 -0.390625 0.96873474 -0.875l-0.67185974 -0.515625q-0.296875 0.390625 -0.765625 0.625q-0.453125 0.234375 -1.03125 0.234375q-0.453125 0 -0.828125 -0.15625q-0.359375 -0.171875 -0.609375 -0.453125q-0.265625 -0.28125 -0.40625 -0.625q-0.140625 -0.359375 -0.1875 -0.828125l0 -0.046875l4.5781097 0l0 -0.484375q0 -0.671875 -0.171875 -1.25q-0.15623474 -0.578125 -0.49998474 -1.0q-0.34375 -0.421875 -0.875 -0.65625q-0.515625 -0.25 -1.203125 -0.25q-0.546875 0 -1.078125 0.234375q-0.515625 0.21875 -0.921875 0.640625q-0.421875 0.421875 -0.671875 1.046875q-0.25 0.609375 -0.25 1.375l0 0.25q0 0.671875 0.21875 1.25q0.234375 0.5625 0.640625 0.96875q0.390625 0.421875 0.953125 0.65625q0.578125 0.234375 1.25 0.234375zm-0.140625 -5.75q0.421875 0 0.71875 0.15625q0.3125 0.15625 0.515625 0.40625q0.203125 0.25 0.3125 0.59375q0.109375 0.328125 0.109375 0.625l0 0.046875l-3.4375 0q0.0625 -0.4375 0.21875 -0.765625q0.171875 -0.34375 0.40625 -0.59375q0.234375 -0.21875 0.53125 -0.34375q0.296875 -0.125 0.625 -0.125zm8.588669 2.1875l0 -0.0625q0 -0.90625 -0.140625 -1.625q-0.140625 -0.734375 -0.359375 -1.359375q-0.21875 -0.640625 -0.515625 -1.15625q-0.28125 -0.515625 -0.609375 -0.9375q-0.328125 -0.40625 -0.65625 -0.6875q-0.328125 -0.296875 -0.625 -0.46875l-0.234375 0.671875q0.203125 0.171875 0.40625 0.40625q0.203125 0.21875 0.40625 0.515625q0.25 0.390625 0.484375 0.90625q0.25 0.515625 0.421875 1.171875q0.125 0.453125 0.21875 1.109375q0.09375 0.640625 0.09375 1.4375l0 0.09375q0 0.703125 -0.078125 1.328125q-0.0625 0.609375 -0.203125 1.140625q-0.125 0.578125 -0.328125 1.0625q-0.203125 0.484375 -0.421875 0.859375q-0.234375 0.375 -0.5 0.671875q-0.25 0.296875 -0.5 0.46875l0.234375 0.671875q0.296875 -0.171875 0.625 -0.453125q0.328125 -0.28125 0.65625 -0.703125q0.3125 -0.40625 0.609375 -0.9375q0.296875 -0.515625 0.515625 -1.15625q0.234375 -0.625 0.359375 -1.375q0.140625 -0.75 0.140625 -1.59375z" fill-rule="nonzero"/><path fill="#000000" fill-opacity="0.0" d="m89.16743 237.40291l90.89764 0l0 37.952774l-90.89764 0z" fill-rule="evenodd"/><path fill="#000000" fill-opacity="0.0" d="m134.61624 237.40291l0 -6.003357l-94.291336 0l0 54.032944l94.354324 0l0 -10.076813" fill-rule="evenodd"/><path stroke="#000000" stroke-width="0.6561679790026247" stroke-linejoin="round" stroke-linecap="butt" stroke-dasharray="5.2493438320209975,1.968503937007874" d="m134.61624 237.40291l0 -6.003357l-94.291336 0l0 54.032944l94.354324 0l0 -10.076813" fill-rule="evenodd"/><path fill="#000000" d="m105.022514 234.04419l-7.244095 -3.3700714l7.244095 -3.3700867z" fill-rule="evenodd"/><path fill="#000000" d="m98.74076 282.06567l7.244095 3.3700867l-7.244095 3.3700867z" fill-rule="evenodd"/><path fill="#c9daf8" d="m712.43304 217.16483l219.18115 0l0 86.70865l-219.18115 0z" fill-rule="evenodd"/><path fill="#000000" fill-opacity="0.0" d="m712.43304 176.0945l171.52759 0l0 43.653534l-171.52759 0z" fill-rule="evenodd"/><path fill="#000000" d="m722.62054 203.7112l3.703125 0q0.90625 0 1.71875 -0.21875q0.8125 -0.234375 1.484375 -0.65625q0.578125 -0.359375 1.0625 -0.890625q0.484375 -0.546875 0.84375 -1.171875q0.375 -0.71875 0.578125 -1.5625q0.21875 -0.859375 0.21875 -1.8125l0 -1.140625q0 -1.0 -0.234375 -1.875q-0.21875 -0.875 -0.625 -1.609375q-0.34375 -0.59375 -0.8125 -1.09375q-0.46875 -0.515625 -1.0625 -0.859375q-0.6875 -0.4375 -1.53125 -0.65625q-0.828125 -0.234375 -1.78125 -0.234375l-3.5625 0l0 13.78125zm2.671875 -11.625l0.890625 0q0.484375 0 0.890625 0.109375q0.421875 0.109375 0.765625 0.3125q0.4375 0.265625 0.765625 0.6875q0.34375 0.40625 0.546875 0.9375q0.171875 0.4375 0.265625 0.984375q0.09375 0.53125 0.09375 1.125l0 1.15625q0 0.625 -0.09375 1.171875q-0.09375 0.546875 -0.265625 1.0q-0.203125 0.5 -0.5 0.890625q-0.28125 0.375 -0.640625 0.625q-0.34375 0.234375 -0.78125 0.359375q-0.421875 0.125 -0.90625 0.125l-1.03125 0l0 -9.484375zm14.0894165 11.8125q1.484375 0 2.5625 -0.578125q1.09375 -0.578125 1.59375 -1.28125l-1.3125 -1.421875q-0.453125 0.578125 -1.1875 0.875q-0.71875 0.296875 -1.5 0.296875q-0.546875 0 -1.015625 -0.171875q-0.46875 -0.171875 -0.828125 -0.484375q-0.34375 -0.296875 -0.5625 -0.671875q-0.203125 -0.375 -0.328125 -0.984375l0 -0.03125l6.953125 0l0 -1.125q0 -1.125 -0.3125 -2.046875q-0.3125 -0.9375 -0.921875 -1.609375q-0.59375 -0.65625 -1.46875 -1.015625q-0.859375 -0.375 -1.96875 -0.375q-1.078125 0 -1.984375 0.390625q-0.90625 0.390625 -1.5625 1.09375q-0.671875 0.703125 -1.046875 1.671875q-0.359375 0.96875 -0.359375 2.140625l0 0.375q0 1.03125 0.375 1.9375q0.375 0.90625 1.0625 1.5625q0.6875 0.671875 1.65625 1.0625q0.96875 0.390625 2.15625 0.390625zm-0.3125 -8.484375q0.5 0 0.875 0.15625q0.390625 0.15625 0.65625 0.421875q0.265625 0.265625 0.40625 0.640625q0.15625 0.359375 0.15625 0.78125l0 0.203125l-4.3125 0q0.09375 -0.5 0.28125 -0.90625q0.1875 -0.40625 0.46875 -0.703125q0.28125 -0.28125 0.640625 -0.4375q0.375 -0.15625 0.828125 -0.15625zm8.6050415 -1.953125l-2.265625 0l0 10.25l2.40625 0l0 -7.671875q0.046875 -0.125 0.09375 -0.21875q0.0625 -0.109375 0.140625 -0.1875q0.109375 -0.109375 0.234375 -0.15625q0.140625 -0.0625 0.296875 -0.0625q0.15625 0 0.28125 0.046875q0.140625 0.046875 0.25 0.140625q0.09375 0.109375 0.140625 0.296875q0.0625 0.1875 0.0625 0.484375l0 7.328125l2.328125 0l0 -7.5625q0 -0.109375 0 -0.171875q0 -0.0625 0 -0.09375q0.046875 -0.09375 0.109375 -0.171875q0.0625 -0.078125 0.15625 -0.15625q0.09375 -0.0625 0.203125 -0.09375q0.125 -0.046875 0.28125 -0.046875q0.140625 0 0.28125 0.046875q0.140625 0.046875 0.234375 0.140625q0.109375 0.125 0.171875 0.3125q0.0625 0.1875 0.0625 0.484375l0 7.3125l2.390625 0l0 -7.3125q0 -0.84375 -0.171875 -1.4375q-0.15625 -0.59375 -0.453125 -0.96875q-0.296875 -0.375 -0.703125 -0.546875q-0.40625 -0.171875 -0.859375 -0.171875q-0.375 0 -0.6875 0.09375q-0.3125 0.09375 -0.5625 0.265625q-0.1875 0.140625 -0.359375 0.328125q-0.171875 0.171875 -0.296875 0.40625q-0.09375 -0.234375 -0.21875 -0.421875q-0.109375 -0.1875 -0.265625 -0.3125q-0.203125 -0.1875 -0.5 -0.265625q-0.28125 -0.09375 -0.640625 -0.09375q-0.734375 0 -1.25 0.390625q-0.515625 0.375 -0.8125 1.046875l-0.078125 -1.25zm16.683167 10.25l2.390625 0l0 -10.25l-2.640625 0l0 7.1875q-0.125 0.25 -0.296875 0.453125q-0.171875 0.1875 -0.390625 0.34375q-0.25 0.15625 -0.59375 0.25q-0.328125 0.078125 -0.75 0.078125q-0.453125 0 -0.78125 -0.109375q-0.328125 -0.125 -0.515625 -0.390625q-0.203125 -0.25 -0.296875 -0.671875q-0.09375 -0.4375 -0.09375 -1.0625l0 -6.078125l-2.625 0l0 6.0625q0 1.171875 0.25 2.0q0.265625 0.828125 0.75 1.359375q0.46875 0.53125 1.125 0.78125q0.671875 0.25 1.46875 0.25q0.859375 0 1.59375 -0.4375q0.734375 -0.4375 1.265625 -1.203125l0.140625 1.4375zm9.63623 -7.046875l-2.203125 -3.203125l-2.84375 0l3.4375 5.03125l-3.5625 5.21875l2.84375 0l2.34375 -3.359375l2.359375 3.359375l2.84375 0l-3.5625 -5.21875l3.4375 -5.03125l-2.828125 0l-2.265625 3.203125zm11.9331665 7.234375q1.484375 0 2.5625 -0.578125q1.09375 -0.578125 1.59375 -1.28125l-1.3125 -1.421875q-0.453125 0.578125 -1.1875 0.875q-0.71875 0.296875 -1.5 0.296875q-0.546875 0 -1.015625 -0.171875q-0.46875 -0.171875 -0.828125 -0.484375q-0.34375 -0.296875 -0.5625 -0.671875q-0.203125 -0.375 -0.328125 -0.984375l0 -0.03125l6.953125 0l0 -1.125q0 -1.125 -0.3125 -2.046875q-0.3125 -0.9375 -0.921875 -1.609375q-0.59375 -0.65625 -1.46875 -1.015625q-0.859375 -0.375 -1.96875 -0.375q-1.078125 0 -1.984375 0.390625q-0.90625 0.390625 -1.5625 1.09375q-0.671875 0.703125 -1.046875 1.671875q-0.359375 0.96875 -0.359375 2.140625l0 0.375q0 1.03125 0.375 1.9375q0.375 0.90625 1.0625 1.5625q0.6875 0.671875 1.65625 1.0625q0.96875 0.390625 2.15625 0.390625zm-0.3125 -8.484375q0.5 0 0.875 0.15625q0.390625 0.15625 0.65625 0.421875q0.265625 0.265625 0.40625 0.640625q0.15625 0.359375 0.15625 0.78125l0 0.203125l-4.3125 0q0.09375 -0.5 0.28125 -0.90625q0.1875 -0.40625 0.46875 -0.703125q0.28125 -0.28125 0.640625 -0.4375q0.375 -0.15625 0.828125 -0.15625zm14.3237915 -2.140625q-1.03125 0 -1.90625 0.5q-0.859375 0.5 -1.484375 1.375l-0.015625 -0.234375l-0.109375 -1.453125l-2.453125 0l0 10.25l2.625 0l0 -6.15625q0.1875 -0.4375 0.453125 -0.75q0.28125 -0.328125 0.671875 -0.53125q0.3125 -0.1875 0.71875 -0.265625q0.421875 -0.09375 0.9375 -0.09375q0.484375 0 1.03125 0.0625q0.546875 0.0625 1.0625 0.171875l0.390625 -2.609375q-0.3125 -0.09375 -0.828125 -0.171875q-0.5 -0.09375 -1.09375 -0.09375z" fill-rule="nonzero"/><path fill="#000000" fill-opacity="0.0" d="m769.0209 238.68356l80.06299 0l0 43.653534l-80.06299 0z" fill-rule="evenodd"/><path stroke="#4a86e8" stroke-width="2.020997375328084" stroke-linejoin="round" stroke-linecap="butt" d="m769.0209 238.68356l80.06299 0l0 43.653534l-80.06299 0z" fill-rule="evenodd"/><path fill="#000000" d="m788.00525 260.59714l0 -2.171875l-5.90625 0l0 -3.75l6.65625 0l0 -2.15625l-9.328125 0l0 13.78125l2.671875 0l0 -5.703125l5.90625 0zm3.6831055 -4.546875l0 2.15625l2.921875 0l0 5.953125l-2.921875 0l0 2.140625l8.359375 0l0 -2.140625l-2.78125 0l0 -8.109375l-5.578125 0zm2.734375 -2.609375q0 0.296875 0.109375 0.5625q0.109375 0.25 0.296875 0.4375q0.203125 0.1875 0.484375 0.296875q0.28125 0.09375 0.625 0.09375q0.703125 0 1.109375 -0.390625q0.40625 -0.390625 0.40625 -1.0q0 -0.625 -0.40625 -1.015625q-0.40625 -0.390625 -1.109375 -0.390625q-0.34375 0 -0.625 0.109375q-0.28125 0.09375 -0.484375 0.28125q-0.1875 0.1875 -0.296875 0.453125q-0.109375 0.25 -0.109375 0.5625zm8.7612915 -1.6875l0 2.15625l3.0625 0l0 10.25l-3.0625 0l0 2.140625l8.65625 0l0 -2.140625l-2.9375 0l0 -12.40625l-5.71875 0zm16.058167 14.734375q1.484375 0 2.5625 -0.578125q1.09375 -0.578125 1.59375 -1.28125l-1.3125 -1.421875q-0.453125 0.578125 -1.1875 0.875q-0.71875 0.296875 -1.5 0.296875q-0.546875 0 -1.015625 -0.171875q-0.46875 -0.171875 -0.828125 -0.484375q-0.34375 -0.296875 -0.5625 -0.671875q-0.203125 -0.375 -0.328125 -0.984375l0 -0.03125l6.953125 0l0 -1.125q0 -1.125 -0.3125 -2.046875q-0.3125 -0.9375 -0.921875 -1.609375q-0.59375 -0.65625 -1.46875 -1.015625q-0.859375 -0.375 -1.96875 -0.375q-1.078125 0 -1.984375 0.390625q-0.90625 0.390625 -1.5625 1.09375q-0.671875 0.703125 -1.046875 1.671875q-0.359375 0.96875 -0.359375 2.140625l0 0.375q0 1.03125 0.375 1.9375q0.375 0.90625 1.0625 1.5625q0.6875 0.671875 1.65625 1.0625q0.96875 0.390625 2.15625 0.390625zm-0.3125 -8.484375q0.5 0 0.875 0.15625q0.390625 0.15625 0.65625 0.421875q0.265625 0.265625 0.40625 0.640625q0.15625 0.359375 0.15625 0.78125l0 0.203125l-4.3125 0q0.09375 -0.5 0.28125 -0.90625q0.1875 -0.40625 0.46875 -0.703125q0.28125 -0.28125 0.640625 -0.4375q0.375 -0.15625 0.828125 -0.15625z" fill-rule="nonzero"/><path fill="#000000" fill-opacity="0.0" d="m712.43304 260.51917l-81.714905 0l0 -150.26773l-81.71814 0" fill-rule="evenodd"/><path stroke="#000000" stroke-width="1.0" stroke-linejoin="round" stroke-linecap="butt" d="m712.43304 260.51917l-81.71484 0l0 -150.26773l-75.7182 0" fill-rule="evenodd"/><path fill="#000000" stroke="#000000" stroke-width="1.0" stroke-linecap="butt" d="m555.0 108.5997l-4.538086 1.6517334l4.538086 1.6517334z" fill-rule="evenodd"/><path fill="#000000" fill-opacity="0.0" d="m712.43304 260.51917l-81.714905 0l0 158.17322l-81.71814 0" fill-rule="evenodd"/><path stroke="#000000" stroke-width="1.0" stroke-linejoin="round" stroke-linecap="butt" d="m712.43304 260.51917l-81.71484 0l0 158.17322l-75.7182 0" fill-rule="evenodd"/><path fill="#000000" stroke="#000000" stroke-width="1.0" stroke-linecap="butt" d="m555.0 417.04065l-4.538086 1.6517334l4.538086 1.6517334z" fill-rule="evenodd"/><path fill="#fce5cd" d="m563.8346 336.18896l148.59845 0l0 38.48819l-148.59845 0z" fill-rule="evenodd"/><path fill="#000000" d="m580.7565 354.72168l0 -0.796875l-3.078125 0l0 -2.359375l3.53125 0l0 -0.796875l-4.453125 0l0 7.34375l4.5 0l0 -0.796875l-3.578125 0l0 -2.59375l3.078125 0zm2.151001 3.390625l0.9375 0l0 -3.90625q0.09375 -0.1875 0.21875 -0.328125q0.125 -0.140625 0.28125 -0.265625q0.1875 -0.125 0.40625 -0.1875q0.21875 -0.078125 0.484375 -0.078125q0.296875 0 0.515625 0.078125q0.234375 0.0625 0.40625 0.21875q0.15625 0.15625 0.234375 0.40625q0.078125 0.25 0.078125 0.625l0 3.4375l0.9375 0l0 -3.46875q0 -0.546875 -0.140625 -0.9375q-0.125 -0.390625 -0.375 -0.65625q-0.25 -0.25 -0.609375 -0.375q-0.34375 -0.125 -0.765625 -0.125q-0.328125 0.015625 -0.609375 0.109375q-0.28125 0.078125 -0.53125 0.234375q-0.15625 0.109375 -0.296875 0.25q-0.140625 0.140625 -0.265625 0.3125l-0.0625 -0.796875l-0.84375 0l0 5.453125zm8.526062 -0.65625q-0.4375 0 -0.734375 -0.171875q-0.296875 -0.171875 -0.46875 -0.453125q-0.1875 -0.28125 -0.265625 -0.625q-0.078125 -0.359375 -0.078125 -0.71875l0 -0.203125q0 -0.359375 0.078125 -0.703125q0.078125 -0.359375 0.265625 -0.640625q0.171875 -0.265625 0.46875 -0.4375q0.296875 -0.1875 0.734375 -0.1875q0.28125 0 0.515625 0.109375q0.25 0.09375 0.4375 0.25q0.171875 0.171875 0.265625 0.390625q0.109375 0.21875 0.109375 0.46875l0.890625 0q0 -0.421875 -0.171875 -0.78125q-0.15625 -0.359375 -0.453125 -0.625q-0.296875 -0.265625 -0.703125 -0.421875q-0.40625 -0.15625 -0.890625 -0.15625q-0.625 0 -1.09375 0.234375q-0.453125 0.21875 -0.765625 0.59375q-0.3125 0.375 -0.46875 0.875q-0.15625 0.484375 -0.15625 1.03125l0 0.203125q0 0.546875 0.15625 1.046875q0.15625 0.484375 0.46875 0.859375q0.3125 0.375 0.765625 0.59375q0.46875 0.21875 1.09375 0.21875q0.4375 0 0.828125 -0.140625q0.40625 -0.15625 0.703125 -0.40625q0.3125 -0.25 0.5 -0.578125q0.1875 -0.328125 0.1875 -0.6875l-0.890625 0q0 0.21875 -0.109375 0.421875q-0.109375 0.1875 -0.296875 0.328125q-0.1875 0.15625 -0.4375 0.234375q-0.234375 0.078125 -0.484375 0.078125zm3.604126 -2.125l0 0.109375q0 0.59375 0.171875 1.109375q0.171875 0.5 0.5 0.859375q0.3125 0.375 0.765625 0.59375q0.46875 0.203125 1.046875 0.203125q0.578125 0 1.03125 -0.203125q0.46875 -0.21875 0.796875 -0.59375q0.3125 -0.359375 0.484375 -0.859375q0.171875 -0.515625 0.171875 -1.109375l0 -0.109375q0 -0.59375 -0.171875 -1.09375q-0.171875 -0.5 -0.484375 -0.875q-0.328125 -0.375 -0.796875 -0.59375q-0.453125 -0.21875 -1.03125 -0.21875q-0.578125 0 -1.046875 0.21875q-0.453125 0.21875 -0.765625 0.59375q-0.328125 0.375 -0.5 0.875q-0.171875 0.5 -0.171875 1.09375zm0.9375 0.109375l0 -0.109375q0 -0.390625 0.09375 -0.75q0.09375 -0.375 0.296875 -0.65625q0.1875 -0.28125 0.46875 -0.4375q0.296875 -0.171875 0.6875 -0.171875q0.390625 0 0.671875 0.171875q0.296875 0.15625 0.484375 0.4375q0.203125 0.28125 0.296875 0.65625q0.09375 0.359375 0.09375 0.75l0 0.109375q0 0.40625 -0.09375 0.78125q-0.09375 0.359375 -0.28125 0.640625q-0.203125 0.265625 -0.5 0.4375q-0.28125 0.15625 -0.671875 0.15625q-0.375 0 -0.671875 -0.15625q-0.296875 -0.171875 -0.484375 -0.4375q-0.203125 -0.28125 -0.296875 -0.640625q-0.09375 -0.375 -0.09375 -0.78125zm5.354126 -0.109375l0 0.109375q0 0.59375 0.15625 1.109375q0.15625 0.5 0.4375 0.859375q0.28125 0.375 0.671875 0.59375q0.40625 0.203125 0.90625 0.203125q0.5 0 0.875 -0.15625q0.390625 -0.171875 0.65625 -0.515625l0.046875 0.578125l0.859375 0l0 -7.75l-0.9375 0l0 2.828125q-0.265625 -0.3125 -0.640625 -0.46875q-0.359375 -0.171875 -0.84375 -0.171875q-0.5 0 -0.90625 0.21875q-0.40625 0.203125 -0.6875 0.5625q-0.28125 0.375 -0.4375 0.890625q-0.15625 0.5 -0.15625 1.109375zm0.9375 0.109375l0 -0.109375q0 -0.390625 0.078125 -0.75q0.09375 -0.359375 0.265625 -0.640625q0.171875 -0.265625 0.453125 -0.421875q0.28125 -0.171875 0.671875 -0.171875q0.46875 0 0.765625 0.21875q0.3125 0.203125 0.5 0.546875l0 2.53125q-0.1875 0.359375 -0.5 0.578125q-0.296875 0.203125 -0.765625 0.203125q-0.390625 0 -0.671875 -0.15625q-0.28125 -0.171875 -0.453125 -0.4375q-0.171875 -0.265625 -0.265625 -0.625q-0.078125 -0.359375 -0.078125 -0.765625zm7.838501 2.765625q0.796875 0 1.34375 -0.3125q0.546875 -0.328125 0.8125 -0.734375l-0.5625 -0.4375q-0.265625 0.328125 -0.65625 0.53125q-0.375 0.203125 -0.875 0.203125q-0.390625 0 -0.703125 -0.140625q-0.3125 -0.140625 -0.53125 -0.390625q-0.21875 -0.234375 -0.34375 -0.53125q-0.109375 -0.3125 -0.15625 -0.703125l0 -0.046875l3.90625 0l0 -0.40625q0 -0.578125 -0.15625 -1.0625q-0.140625 -0.484375 -0.421875 -0.859375q-0.296875 -0.359375 -0.75 -0.5625q-0.4375 -0.203125 -1.015625 -0.203125q-0.46875 0 -0.921875 0.203125q-0.4375 0.1875 -0.796875 0.546875q-0.34375 0.359375 -0.5625 0.890625q-0.203125 0.515625 -0.203125 1.171875l0 0.21875q0 0.5625 0.1875 1.046875q0.1875 0.484375 0.53125 0.84375q0.34375 0.34375 0.828125 0.546875q0.484375 0.1875 1.046875 0.1875zm-0.109375 -4.890625q0.359375 0 0.609375 0.140625q0.265625 0.125 0.4375 0.34375q0.171875 0.203125 0.265625 0.5q0.09375 0.28125 0.09375 0.546875l0 0.03125l-2.9375 0q0.0625 -0.375 0.203125 -0.65625q0.140625 -0.296875 0.328125 -0.5q0.203125 -0.1875 0.453125 -0.296875q0.265625 -0.109375 0.546875 -0.109375zm3.729187 2.015625l0 0.109375q0 0.59375 0.15625 1.109375q0.15625 0.5 0.4375 0.859375q0.28125 0.375 0.671875 0.59375q0.40625 0.203125 0.90625 0.203125q0.5 0 0.875 -0.15625q0.390625 -0.171875 0.65625 -0.515625l0.046875 0.578125l0.859375 0l0 -7.75l-0.9375 0l0 2.828125q-0.265625 -0.3125 -0.640625 -0.46875q-0.359375 -0.171875 -0.84375 -0.171875q-0.5 0 -0.90625 0.21875q-0.40625 0.203125 -0.6875 0.5625q-0.28125 0.375 -0.4375 0.890625q-0.15625 0.5 -0.15625 1.109375zm0.9375 0.109375l0 -0.109375q0 -0.390625 0.078125 -0.75q0.09375 -0.359375 0.265625 -0.640625q0.171875 -0.265625 0.453125 -0.421875q0.28125 -0.171875 0.671875 -0.171875q0.46875 0 0.765625 0.21875q0.3125 0.203125 0.5 0.546875l0 2.53125q-0.1875 0.359375 -0.5 0.578125q-0.296875 0.203125 -0.765625 0.203125q-0.390625 0 -0.671875 -0.15625q-0.28125 -0.171875 -0.453125 -0.4375q-0.171875 -0.265625 -0.265625 -0.625q-0.078125 -0.359375 -0.078125 -0.765625zm7.229126 2.671875l0.8125 0l2.3125 -7.34375l-0.984375 0l-1.625 5.46875l-0.109375 0.375l-0.109375 -0.359375l-1.609375 -5.484375l-1.0 0l2.3125 7.34375zm4.557251 -5.453125l0 0.8125l1.84375 0l0 3.828125l-1.84375 0l0 0.8125l4.5625 0l0 -0.8125l-1.78125 0l0 -4.640625l-2.78125 0zm1.734375 -1.4375q0 0.234375 0.125 0.390625q0.140625 0.140625 0.421875 0.140625q0.28125 0 0.421875 -0.140625q0.140625 -0.15625 0.140625 -0.390625q0 -0.125 -0.046875 -0.234375q-0.03125 -0.109375 -0.109375 -0.171875q-0.0625 -0.0625 -0.171875 -0.09375q-0.09375 -0.046875 -0.234375 -0.046875q-0.125 0 -0.234375 0.046875q-0.09375 0.03125 -0.15625 0.09375q-0.09375 0.078125 -0.125 0.1875q-0.03125 0.09375 -0.03125 0.21875zm4.135376 4.109375l0 0.109375q0 0.59375 0.15625 1.109375q0.15625 0.5 0.4375 0.859375q0.28125 0.375 0.671875 0.59375q0.40625 0.203125 0.90625 0.203125q0.5 0 0.875 -0.15625q0.390625 -0.171875 0.65625 -0.515625l0.046875 0.578125l0.859375 0l0 -7.75l-0.9375 0l0 2.828125q-0.265625 -0.3125 -0.640625 -0.46875q-0.359375 -0.171875 -0.84375 -0.171875q-0.5 0 -0.90625 0.21875q-0.40625 0.203125 -0.6875 0.5625q-0.28125 0.375 -0.4375 0.890625q-0.15625 0.5 -0.15625 1.109375zm0.9375 0.109375l0 -0.109375q0 -0.390625 0.078125 -0.75q0.09375 -0.359375 0.265625 -0.640625q0.171875 -0.265625 0.453125 -0.421875q0.28125 -0.171875 0.671875 -0.171875q0.46875 0 0.765625 0.21875q0.3125 0.203125 0.5 0.546875l0 2.53125q-0.1875 0.359375 -0.5 0.578125q-0.296875 0.203125 -0.765625 0.203125q-0.390625 0 -0.671875 -0.15625q-0.28125 -0.171875 -0.453125 -0.4375q-0.171875 -0.265625 -0.265625 -0.625q-0.078125 -0.359375 -0.078125 -0.765625zm7.838562 2.765625q0.796875 0 1.34375 -0.3125q0.546875 -0.328125 0.8125 -0.734375l-0.5625 -0.4375q-0.265625 0.328125 -0.65625 0.53125q-0.375 0.203125 -0.875 0.203125q-0.390625 0 -0.703125 -0.140625q-0.3125 -0.140625 -0.53125 -0.390625q-0.21875 -0.234375 -0.34375 -0.53125q-0.109375 -0.3125 -0.15625 -0.703125l0 -0.046875l3.90625 0l0 -0.40625q0 -0.578125 -0.15625 -1.0625q-0.140625 -0.484375 -0.421875 -0.859375q-0.296875 -0.359375 -0.75 -0.5625q-0.4375 -0.203125 -1.015625 -0.203125q-0.46875 0 -0.921875 0.203125q-0.4375 0.1875 -0.796875 0.546875q-0.34375 0.359375 -0.5625 0.890625q-0.203125 0.515625 -0.203125 1.171875l0 0.21875q0 0.5625 0.1875 1.046875q0.1875 0.484375 0.53125 0.84375q0.34375 0.34375 0.828125 0.546875q0.484375 0.1875 1.046875 0.1875zm-0.109375 -4.890625q0.359375 0 0.609375 0.140625q0.265625 0.125 0.4375 0.34375q0.171875 0.203125 0.265625 0.5q0.09375 0.28125 0.09375 0.546875l0 0.03125l-2.9375 0q0.0625 -0.375 0.203125 -0.65625q0.140625 -0.296875 0.328125 -0.5q0.203125 -0.1875 0.453125 -0.296875q0.265625 -0.109375 0.546875 -0.109375zm3.635376 2.015625l0 0.109375q0 0.59375 0.171875 1.109375q0.171875 0.5 0.5 0.859375q0.3125 0.375 0.765625 0.59375q0.46875 0.203125 1.046875 0.203125q0.578125 0 1.03125 -0.203125q0.46875 -0.21875 0.796875 -0.59375q0.3125 -0.359375 0.484375 -0.859375q0.171875 -0.515625 0.171875 -1.109375l0 -0.109375q0 -0.59375 -0.171875 -1.09375q-0.171875 -0.5 -0.484375 -0.875q-0.328125 -0.375 -0.796875 -0.59375q-0.453125 -0.21875 -1.03125 -0.21875q-0.578125 0 -1.046875 0.21875q-0.453125 0.21875 -0.765625 0.59375q-0.328125 0.375 -0.5 0.875q-0.171875 0.5 -0.171875 1.09375zm0.9375 0.109375l0 -0.109375q0 -0.390625 0.09375 -0.75q0.09375 -0.375 0.296875 -0.65625q0.1875 -0.28125 0.46875 -0.4375q0.296875 -0.171875 0.6875 -0.171875q0.390625 0 0.671875 0.171875q0.296875 0.15625 0.484375 0.4375q0.203125 0.28125 0.296875 0.65625q0.09375 0.359375 0.09375 0.75l0 0.109375q0 0.40625 -0.09375 0.78125q-0.09375 0.359375 -0.28125 0.640625q-0.203125 0.265625 -0.5 0.4375q-0.28125 0.15625 -0.671875 0.15625q-0.375 0 -0.671875 -0.15625q-0.296875 -0.171875 -0.484375 -0.4375q-0.203125 -0.28125 -0.296875 -0.640625q-0.09375 -0.375 -0.09375 -0.78125zm10.291626 0.46875l-0.9375 0q-0.046875 0.328125 -0.15625 0.609375q-0.109375 0.28125 -0.296875 0.5q-0.1875 0.203125 -0.46875 0.328125q-0.265625 0.109375 -0.625 0.109375q-0.34375 0 -0.59375 -0.109375q-0.25 -0.109375 -0.4375 -0.296875q-0.1875 -0.1875 -0.3125 -0.4375q-0.125 -0.25 -0.1875 -0.53125q-0.078125 -0.265625 -0.109375 -0.5625q-0.03125 -0.296875 -0.03125 -0.5625l0 -1.03125q0 -0.28125 0.03125 -0.5625q0.03125 -0.296875 0.109375 -0.578125q0.0625 -0.265625 0.1875 -0.515625q0.125 -0.25 0.3125 -0.4375q0.1875 -0.1875 0.4375 -0.296875q0.25 -0.109375 0.59375 -0.109375q0.359375 0 0.625 0.125q0.28125 0.125 0.46875 0.34375q0.1875 0.21875 0.296875 0.515625q0.109375 0.28125 0.15625 0.609375l0.9375 0q-0.0625 -0.53125 -0.265625 -0.953125q-0.1875 -0.4375 -0.5 -0.75q-0.3125 -0.3125 -0.75 -0.46875q-0.421875 -0.171875 -0.96875 -0.171875q-0.46875 0 -0.84375 0.125q-0.359375 0.125 -0.640625 0.359375q-0.296875 0.21875 -0.515625 0.53125q-0.203125 0.3125 -0.328125 0.671875q-0.140625 0.359375 -0.21875 0.765625q-0.0625 0.390625 -0.0625 0.796875l0 1.03125q0 0.40625 0.0625 0.8125q0.078125 0.390625 0.21875 0.75q0.125 0.375 0.328125 0.6875q0.21875 0.296875 0.515625 0.515625q0.28125 0.234375 0.65625 0.359375q0.375 0.125 0.828125 0.125q0.53125 0 0.953125 -0.15625q0.4375 -0.171875 0.75 -0.484375q0.3125 -0.296875 0.5 -0.71875q0.203125 -0.4375 0.28125 -0.9375zm2.369751 -2.4375l0 -3.109375l-0.9375 0l0 7.75l0.9375 0l0 -3.96875q0.09375 -0.15625 0.21875 -0.28125q0.140625 -0.140625 0.28125 -0.25q0.203125 -0.125 0.421875 -0.1875q0.234375 -0.078125 0.484375 -0.078125q0.3125 0 0.546875 0.09375q0.234375 0.078125 0.390625 0.25q0.140625 0.171875 0.21875 0.421875q0.078125 0.234375 0.078125 0.5625l0 3.4375l0.9375 0l0 -3.4375q0 -0.546875 -0.140625 -0.9375q-0.125 -0.40625 -0.375 -0.671875q-0.25 -0.265625 -0.609375 -0.390625q-0.34375 -0.125 -0.765625 -0.125q-0.328125 0.015625 -0.625 0.109375q-0.28125 0.078125 -0.53125 0.265625q-0.15625 0.09375 -0.296875 0.234375q-0.125 0.140625 -0.234375 0.3125zm8.854187 4.640625l0.859375 0l0 -5.453125l-0.953125 0l0 3.90625q-0.0625 0.1875 -0.1875 0.34375q-0.109375 0.140625 -0.265625 0.234375q-0.171875 0.140625 -0.421875 0.21875q-0.25 0.0625 -0.5625 0.0625q-0.265625 0 -0.46875 -0.0625q-0.203125 -0.078125 -0.34375 -0.25q-0.140625 -0.171875 -0.21875 -0.46875q-0.0625 -0.296875 -0.0625 -0.734375l0 -3.25l-0.9375 0l0 3.234375q0 0.609375 0.125 1.046875q0.140625 0.4375 0.390625 0.71875q0.25 0.28125 0.59375 0.421875q0.34375 0.125 0.78125 0.125q0.53125 0 0.9375 -0.21875q0.40625 -0.21875 0.6875 -0.625l0.046875 0.75zm2.604126 0l0.9375 0l0 -3.90625q0.09375 -0.1875 0.21875 -0.328125q0.125 -0.140625 0.28125 -0.265625q0.1875 -0.125 0.40625 -0.1875q0.21875 -0.078125 0.484375 -0.078125q0.296875 0 0.515625 0.078125q0.234375 0.0625 0.40625 0.21875q0.15625 0.15625 0.234375 0.40625q0.078125 0.25 0.078125 0.625l0 3.4375l0.9375 0l0 -3.46875q0 -0.546875 -0.140625 -0.9375q-0.125 -0.390625 -0.375 -0.65625q-0.25 -0.25 -0.609375 -0.375q-0.34375 -0.125 -0.765625 -0.125q-0.328125 0.015625 -0.609375 0.109375q-0.28125 0.078125 -0.53125 0.234375q-0.15625 0.109375 -0.296875 0.25q-0.140625 0.140625 -0.265625 0.3125l-0.0625 -0.796875l-0.84375 0l0 5.453125zm7.838501 -2.546875l2.0 2.546875l1.1875 0l-2.546875 -3.1875l2.203125 -2.265625l-1.140625 0l-1.78125 1.796875l-0.609375 0.65625l0 -4.75l-0.9375 0l0 7.75l0.9375 0l0 -1.890625l0.6875 -0.65625zm7.822876 -5.078125l0 -0.765625l-2.0 0l0 9.96875l2.0 0l0 -0.765625l-1.109375 0l0 -8.4375l1.109375 0zm4.104187 -0.765625l0 0.765625l1.109375 0l0 8.4375l-1.109375 0l0 0.765625l2.0 0l0 -9.96875l-2.0 0z" fill-rule="nonzero"/><path fill="#fce5cd" d="m552.3753 169.79002l148.59839 0l0 38.48819l-148.59839 0z" fill-rule="evenodd"/><path fill="#000000" d="m569.2972 188.32272l0 -0.796875l-3.078125 0l0 -2.359375l3.53125 0l0 -0.796875l-4.453125 0l0 7.34375l4.5 0l0 -0.796875l-3.578125 0l0 -2.59375l3.078125 0zm2.151001 3.390625l0.9375 0l0 -3.90625q0.09375 -0.1875 0.21875 -0.328125q0.125 -0.140625 0.28125 -0.265625q0.1875 -0.125 0.40625 -0.1875q0.21875 -0.078125 0.484375 -0.078125q0.296875 0 0.515625 0.078125q0.234375 0.0625 0.40625 0.21875q0.15625 0.15625 0.234375 0.40625q0.078125 0.25 0.078125 0.625l0 3.4375l0.9375 0l0 -3.46875q0 -0.546875 -0.140625 -0.9375q-0.125 -0.390625 -0.375 -0.65625q-0.25 -0.25 -0.609375 -0.375q-0.34375 -0.125 -0.765625 -0.125q-0.328125 0.015625 -0.609375 0.109375q-0.28125 0.078125 -0.53125 0.234375q-0.15625 0.109375 -0.296875 0.25q-0.140625 0.140625 -0.265625 0.3125l-0.0625 -0.796875l-0.84375 0l0 5.453125zm8.526001 -0.65625q-0.4375 0 -0.734375 -0.171875q-0.296875 -0.171875 -0.46875 -0.453125q-0.1875 -0.28125 -0.265625 -0.625q-0.078125 -0.359375 -0.078125 -0.71875l0 -0.203125q0 -0.359375 0.078125 -0.703125q0.078125 -0.359375 0.265625 -0.640625q0.171875 -0.265625 0.46875 -0.4375q0.296875 -0.1875 0.734375 -0.1875q0.28125 0 0.515625 0.109375q0.25 0.09375 0.4375 0.25q0.171875 0.171875 0.265625 0.390625q0.109375 0.21875 0.109375 0.46875l0.890625 0q0 -0.421875 -0.171875 -0.78125q-0.15625 -0.359375 -0.453125 -0.625q-0.296875 -0.265625 -0.703125 -0.421875q-0.40625 -0.15625 -0.890625 -0.15625q-0.625 0 -1.09375 0.234375q-0.453125 0.21875 -0.765625 0.59375q-0.3125 0.375 -0.46875 0.875q-0.15625 0.484375 -0.15625 1.03125l0 0.203125q0 0.546875 0.15625 1.046875q0.15625 0.484375 0.46875 0.859375q0.3125 0.375 0.765625 0.59375q0.46875 0.21875 1.09375 0.21875q0.4375 0 0.828125 -0.140625q0.40625 -0.15625 0.703125 -0.40625q0.3125 -0.25 0.5 -0.578125q0.1875 -0.328125 0.1875 -0.6875l-0.890625 0q0 0.21875 -0.109375 0.421875q-0.109375 0.1875 -0.296875 0.328125q-0.1875 0.15625 -0.4375 0.234375q-0.234375 0.078125 -0.484375 0.078125zm3.604126 -2.125l0 0.109375q0 0.59375 0.171875 1.109375q0.171875 0.5 0.5 0.859375q0.3125 0.375 0.765625 0.59375q0.46875 0.203125 1.046875 0.203125q0.578125 0 1.03125 -0.203125q0.46875 -0.21875 0.796875 -0.59375q0.3125 -0.359375 0.484375 -0.859375q0.171875 -0.515625 0.171875 -1.109375l0 -0.109375q0 -0.59375 -0.171875 -1.09375q-0.171875 -0.5 -0.484375 -0.875q-0.328125 -0.375 -0.796875 -0.59375q-0.453125 -0.21875 -1.03125 -0.21875q-0.578125 0 -1.046875 0.21875q-0.453125 0.21875 -0.765625 0.59375q-0.328125 0.375 -0.5 0.875q-0.171875 0.5 -0.171875 1.09375zm0.9375 0.109375l0 -0.109375q0 -0.390625 0.09375 -0.75q0.09375 -0.375 0.296875 -0.65625q0.1875 -0.28125 0.46875 -0.4375q0.296875 -0.171875 0.6875 -0.171875q0.390625 0 0.671875 0.171875q0.296875 0.15625 0.484375 0.4375q0.203125 0.28125 0.296875 0.65625q0.09375 0.359375 0.09375 0.75l0 0.109375q0 0.40625 -0.09375 0.78125q-0.09375 0.359375 -0.28125 0.640625q-0.203125 0.265625 -0.5 0.4375q-0.28125 0.15625 -0.671875 0.15625q-0.375 0 -0.671875 -0.15625q-0.296875 -0.171875 -0.484375 -0.4375q-0.203125 -0.28125 -0.296875 -0.640625q-0.09375 -0.375 -0.09375 -0.78125zm5.354187 -0.109375l0 0.109375q0 0.59375 0.15625 1.109375q0.15625 0.5 0.4375 0.859375q0.28125 0.375 0.671875 0.59375q0.40625 0.203125 0.90625 0.203125q0.5 0 0.875 -0.15625q0.390625 -0.171875 0.65625 -0.515625l0.046875 0.578125l0.859375 0l0 -7.75l-0.9375 0l0 2.828125q-0.265625 -0.3125 -0.640625 -0.46875q-0.359375 -0.171875 -0.84375 -0.171875q-0.5 0 -0.90625 0.21875q-0.40625 0.203125 -0.6875 0.5625q-0.28125 0.375 -0.4375 0.890625q-0.15625 0.5 -0.15625 1.109375zm0.9375 0.109375l0 -0.109375q0 -0.390625 0.078125 -0.75q0.09375 -0.359375 0.265625 -0.640625q0.171875 -0.265625 0.453125 -0.421875q0.28125 -0.171875 0.671875 -0.171875q0.46875 0 0.765625 0.21875q0.3125 0.203125 0.5 0.546875l0 2.53125q-0.1875 0.359375 -0.5 0.578125q-0.296875 0.203125 -0.765625 0.203125q-0.390625 0 -0.671875 -0.15625q-0.28125 -0.171875 -0.453125 -0.4375q-0.171875 -0.265625 -0.265625 -0.625q-0.078125 -0.359375 -0.078125 -0.765625zm7.838501 2.765625q0.796875 0 1.34375 -0.3125q0.546875 -0.328125 0.8125 -0.734375l-0.5625 -0.4375q-0.265625 0.328125 -0.65625 0.53125q-0.375 0.203125 -0.875 0.203125q-0.390625 0 -0.703125 -0.140625q-0.3125 -0.140625 -0.53125 -0.390625q-0.21875 -0.234375 -0.34375 -0.53125q-0.109375 -0.3125 -0.15625 -0.703125l0 -0.046875l3.90625 0l0 -0.40625q0 -0.578125 -0.15625 -1.0625q-0.140625 -0.484375 -0.421875 -0.859375q-0.296875 -0.359375 -0.75 -0.5625q-0.4375 -0.203125 -1.015625 -0.203125q-0.46875 0 -0.921875 0.203125q-0.4375 0.1875 -0.796875 0.546875q-0.34375 0.359375 -0.5625 0.890625q-0.203125 0.515625 -0.203125 1.171875l0 0.21875q0 0.5625 0.1875 1.046875q0.1875 0.484375 0.53125 0.84375q0.34375 0.34375 0.828125 0.546875q0.484375 0.1875 1.046875 0.1875zm-0.109375 -4.890625q0.359375 0 0.609375 0.140625q0.265625 0.125 0.4375 0.34375q0.171875 0.203125 0.265625 0.5q0.09375 0.28125 0.09375 0.546875l0 0.03125l-2.9375 0q0.0625 -0.375 0.203125 -0.65625q0.140625 -0.296875 0.328125 -0.5q0.203125 -0.1875 0.453125 -0.296875q0.265625 -0.109375 0.546875 -0.109375zm3.729126 2.015625l0 0.109375q0 0.59375 0.15625 1.109375q0.15625 0.5 0.4375 0.859375q0.28125 0.375 0.671875 0.59375q0.40625 0.203125 0.90625 0.203125q0.5 0 0.875 -0.15625q0.390625 -0.171875 0.65625 -0.515625l0.046875 0.578125l0.859375 0l0 -7.75l-0.9375 0l0 2.828125q-0.265625 -0.3125 -0.640625 -0.46875q-0.359375 -0.171875 -0.84375 -0.171875q-0.5 0 -0.90625 0.21875q-0.40625 0.203125 -0.6875 0.5625q-0.28125 0.375 -0.4375 0.890625q-0.15625 0.5 -0.15625 1.109375zm0.9375 0.109375l0 -0.109375q0 -0.390625 0.078125 -0.75q0.09375 -0.359375 0.265625 -0.640625q0.171875 -0.265625 0.453125 -0.421875q0.28125 -0.171875 0.671875 -0.171875q0.46875 0 0.765625 0.21875q0.3125 0.203125 0.5 0.546875l0 2.53125q-0.1875 0.359375 -0.5 0.578125q-0.296875 0.203125 -0.765625 0.203125q-0.390625 0 -0.671875 -0.15625q-0.28125 -0.171875 -0.453125 -0.4375q-0.171875 -0.265625 -0.265625 -0.625q-0.078125 -0.359375 -0.078125 -0.765625zm8.932251 0.765625l0.59375 1.90625l0.921875 0l-2.328125 -7.34375l-0.78125 0l-2.375 7.34375l0.9375 0l0.59375 -1.90625l2.4375 0zm-2.1875 -0.8125l0.984375 -3.1875l0.96875 3.1875l-1.953125 0zm8.479187 2.71875l0.859375 0l0 -5.453125l-0.953125 0l0 3.90625q-0.0625 0.1875 -0.1875 0.34375q-0.109375 0.140625 -0.265625 0.234375q-0.171875 0.140625 -0.421875 0.21875q-0.25 0.0625 -0.5625 0.0625q-0.265625 0 -0.46875 -0.0625q-0.203125 -0.078125 -0.34375 -0.25q-0.140625 -0.171875 -0.21875 -0.46875q-0.0625 -0.296875 -0.0625 -0.734375l0 -3.25l-0.9375 0l0 3.234375q0 0.609375 0.125 1.046875q0.140625 0.4375 0.390625 0.71875q0.25 0.28125 0.59375 0.421875q0.34375 0.125 0.78125 0.125q0.53125 0 0.9375 -0.21875q0.40625 -0.21875 0.6875 -0.625l0.046875 0.75zm2.432251 -2.78125l0 0.109375q0 0.59375 0.15625 1.109375q0.15625 0.5 0.4375 0.859375q0.28125 0.375 0.671875 0.59375q0.40625 0.203125 0.90625 0.203125q0.5 0 0.875 -0.15625q0.390625 -0.171875 0.65625 -0.515625l0.046875 0.578125l0.859375 0l0 -7.75l-0.9375 0l0 2.828125q-0.265625 -0.3125 -0.640625 -0.46875q-0.359375 -0.171875 -0.84375 -0.171875q-0.5 0 -0.90625 0.21875q-0.40625 0.203125 -0.6875 0.5625q-0.28125 0.375 -0.4375 0.890625q-0.15625 0.5 -0.15625 1.109375zm0.9375 0.109375l0 -0.109375q0 -0.390625 0.078125 -0.75q0.09375 -0.359375 0.265625 -0.640625q0.171875 -0.265625 0.453125 -0.421875q0.28125 -0.171875 0.671875 -0.171875q0.46875 0 0.765625 0.21875q0.3125 0.203125 0.5 0.546875l0 2.53125q-0.1875 0.359375 -0.5 0.578125q-0.296875 0.203125 -0.765625 0.203125q-0.390625 0 -0.671875 -0.15625q-0.28125 -0.171875 -0.453125 -0.4375q-0.171875 -0.265625 -0.265625 -0.625q-0.078125 -0.359375 -0.078125 -0.765625zm5.588501 -2.78125l0 0.8125l1.84375 0l0 3.828125l-1.84375 0l0 0.8125l4.5625 0l0 -0.8125l-1.78125 0l0 -4.640625l-2.78125 0zm1.734375 -1.4375q0 0.234375 0.125 0.390625q0.140625 0.140625 0.421875 0.140625q0.28125 0 0.421875 -0.140625q0.140625 -0.15625 0.140625 -0.390625q0 -0.125 -0.046875 -0.234375q-0.03125 -0.109375 -0.109375 -0.171875q-0.0625 -0.0625 -0.171875 -0.09375q-0.09375 -0.046875 -0.234375 -0.046875q-0.125 0 -0.234375 0.046875q-0.09375 0.03125 -0.15625 0.09375q-0.09375 0.078125 -0.125 0.1875q-0.03125 0.09375 -0.03125 0.21875zm4.041626 4.109375l0 0.109375q0 0.59375 0.171875 1.109375q0.171875 0.5 0.5 0.859375q0.3125 0.375 0.765625 0.59375q0.46875 0.203125 1.046875 0.203125q0.578125 0 1.03125 -0.203125q0.46875 -0.21875 0.796875 -0.59375q0.3125 -0.359375 0.484375 -0.859375q0.171875 -0.515625 0.171875 -1.109375l0 -0.109375q0 -0.59375 -0.171875 -1.09375q-0.171875 -0.5 -0.484375 -0.875q-0.328125 -0.375 -0.796875 -0.59375q-0.453125 -0.21875 -1.03125 -0.21875q-0.578125 0 -1.046875 0.21875q-0.453125 0.21875 -0.765625 0.59375q-0.328125 0.375 -0.5 0.875q-0.171875 0.5 -0.171875 1.09375zm0.9375 0.109375l0 -0.109375q0 -0.390625 0.09375 -0.75q0.09375 -0.375 0.296875 -0.65625q0.1875 -0.28125 0.46875 -0.4375q0.296875 -0.171875 0.6875 -0.171875q0.390625 0 0.671875 0.171875q0.296875 0.15625 0.484375 0.4375q0.203125 0.28125 0.296875 0.65625q0.09375 0.359375 0.09375 0.75l0 0.109375q0 0.40625 -0.09375 0.78125q-0.09375 0.359375 -0.28125 0.640625q-0.203125 0.265625 -0.5 0.4375q-0.28125 0.15625 -0.671875 0.15625q-0.375 0 -0.671875 -0.15625q-0.296875 -0.171875 -0.484375 -0.4375q-0.203125 -0.28125 -0.296875 -0.640625q-0.09375 -0.375 -0.09375 -0.78125zm10.291687 0.46875l-0.9375 0q-0.046875 0.328125 -0.15625 0.609375q-0.109375 0.28125 -0.296875 0.5q-0.1875 0.203125 -0.46875 0.328125q-0.265625 0.109375 -0.625 0.109375q-0.34375 0 -0.59375 -0.109375q-0.25 -0.109375 -0.4375 -0.296875q-0.1875 -0.1875 -0.3125 -0.4375q-0.125 -0.25 -0.1875 -0.53125q-0.078125 -0.265625 -0.109375 -0.5625q-0.03125 -0.296875 -0.03125 -0.5625l0 -1.03125q0 -0.28125 0.03125 -0.5625q0.03125 -0.296875 0.109375 -0.578125q0.0625 -0.265625 0.1875 -0.515625q0.125 -0.25 0.3125 -0.4375q0.1875 -0.1875 0.4375 -0.296875q0.25 -0.109375 0.59375 -0.109375q0.359375 0 0.625 0.125q0.28125 0.125 0.46875 0.34375q0.1875 0.21875 0.296875 0.515625q0.109375 0.28125 0.15625 0.609375l0.9375 0q-0.0625 -0.53125 -0.265625 -0.953125q-0.1875 -0.4375 -0.5 -0.75q-0.3125 -0.3125 -0.75 -0.46875q-0.421875 -0.171875 -0.96875 -0.171875q-0.46875 0 -0.84375 0.125q-0.359375 0.125 -0.640625 0.359375q-0.296875 0.21875 -0.515625 0.53125q-0.203125 0.3125 -0.328125 0.671875q-0.140625 0.359375 -0.21875 0.765625q-0.0625 0.390625 -0.0625 0.796875l0 1.03125q0 0.40625 0.0625 0.8125q0.078125 0.390625 0.21875 0.75q0.125 0.375 0.328125 0.6875q0.21875 0.296875 0.515625 0.515625q0.28125 0.234375 0.65625 0.359375q0.375 0.125 0.828125 0.125q0.53125 0 0.953125 -0.15625q0.4375 -0.171875 0.75 -0.484375q0.3125 -0.296875 0.5 -0.71875q0.203125 -0.4375 0.28125 -0.9375zm2.369751 -2.4375l0 -3.109375l-0.9375 0l0 7.75l0.9375 0l0 -3.96875q0.09375 -0.15625 0.21875 -0.28125q0.140625 -0.140625 0.28125 -0.25q0.203125 -0.125 0.421875 -0.1875q0.234375 -0.078125 0.484375 -0.078125q0.3125 0 0.546875 0.09375q0.234375 0.078125 0.390625 0.25q0.140625 0.171875 0.21875 0.421875q0.078125 0.234375 0.078125 0.5625l0 3.4375l0.9375 0l0 -3.4375q0 -0.546875 -0.140625 -0.9375q-0.125 -0.40625 -0.375 -0.671875q-0.25 -0.265625 -0.609375 -0.390625q-0.34375 -0.125 -0.765625 -0.125q-0.328125 0.015625 -0.625 0.109375q-0.28125 0.078125 -0.53125 0.265625q-0.15625 0.09375 -0.296875 0.234375q-0.125 0.140625 -0.234375 0.3125zm8.854126 4.640625l0.859375 0l0 -5.453125l-0.953125 0l0 3.90625q-0.0625 0.1875 -0.1875 0.34375q-0.109375 0.140625 -0.265625 0.234375q-0.171875 0.140625 -0.421875 0.21875q-0.25 0.0625 -0.5625 0.0625q-0.265625 0 -0.46875 -0.0625q-0.203125 -0.078125 -0.34375 -0.25q-0.140625 -0.171875 -0.21875 -0.46875q-0.0625 -0.296875 -0.0625 -0.734375l0 -3.25l-0.9375 0l0 3.234375q0 0.609375 0.125 1.046875q0.140625 0.4375 0.390625 0.71875q0.25 0.28125 0.59375 0.421875q0.34375 0.125 0.78125 0.125q0.53125 0 0.9375 -0.21875q0.40625 -0.21875 0.6875 -0.625l0.046875 0.75zm2.604126 0l0.9375 0l0 -3.90625q0.09375 -0.1875 0.21875 -0.328125q0.125 -0.140625 0.28125 -0.265625q0.1875 -0.125 0.40625 -0.1875q0.21875 -0.078125 0.484375 -0.078125q0.296875 0 0.515625 0.078125q0.234375 0.0625 0.40625 0.21875q0.15625 0.15625 0.234375 0.40625q0.078125 0.25 0.078125 0.625l0 3.4375l0.9375 0l0 -3.46875q0 -0.546875 -0.140625 -0.9375q-0.125 -0.390625 -0.375 -0.65625q-0.25 -0.25 -0.609375 -0.375q-0.34375 -0.125 -0.765625 -0.125q-0.328125 0.015625 -0.609375 0.109375q-0.28125 0.078125 -0.53125 0.234375q-0.15625 0.109375 -0.296875 0.25q-0.140625 0.140625 -0.265625 0.3125l-0.0625 -0.796875l-0.84375 0l0 5.453125zm7.838562 -2.546875l2.0 2.546875l1.1875 0l-2.546875 -3.1875l2.203125 -2.265625l-1.140625 0l-1.78125 1.796875l-0.609375 0.65625l0 -4.75l-0.9375 0l0 7.75l0.9375 0l0 -1.890625l0.6875 -0.65625zm7.822876 -5.078125l0 -0.765625l-2.0 0l0 9.96875l2.0 0l0 -0.765625l-1.109375 0l0 -8.4375l1.109375 0zm4.104126 -0.765625l0 0.765625l1.109375 0l0 8.4375l-1.109375 0l0 0.765625l2.0 0l0 -9.96875l-2.0 0z" fill-rule="nonzero"/></g></svg>