<svg version="1.1" viewBox="0.0 0.0 960.0 540.0" fill="none" stroke="none" stroke-linecap="square" stroke-miterlimit="10" xmlns:xlink="http://www.w3.org/1999/xlink" xmlns="http://www.w3.org/2000/svg"><clipPath id="p.0"><path d="m0 0l960.0 0l0 540.0l-960.0 0l0 -540.0z" clip-rule="nonzero"/></clipPath><g clip-path="url(#p.0)"><path fill="#ffffff" d="m0 0l960.0 0l0 540.0l-960.0 0z" fill-rule="evenodd"/><path fill="#f4cccc" d="m599.40125 100.830795l325.29132 0l0 128.6614l-325.29132 0z" fill-rule="evenodd"/><path fill="#d9ead3" d="m599.40125 353.81668l325.29132 0l0 128.6614l-325.29132 0z" fill-rule="evenodd"/><path fill="#d9d2e9" d="m43.19368 196.8453l325.29132 0l0 128.66144l-325.29132 0z" fill-rule="evenodd"/><path fill="#000000" d="m162.61842 252.41689l-2.609375 0l0 3.6874847l-3.984375 0l0 2.0l3.984375 0l0 8.265625q0 1.40625 0.375 2.40625q0.375 0.984375 1.015625 1.609375q0.65625 0.625 1.53125 0.921875q0.875 0.28125 1.890625 0.28125q0.59375 0 1.203125 -0.0625q0.625 -0.046875 1.171875 -0.15625q0.546875 -0.109375 1.0 -0.25q0.46875 -0.15625 0.796875 -0.34375l-0.375 -1.84375q-0.234375 0.0625 -0.609375 0.140625q-0.359375 0.0625 -0.78125 0.140625q-0.4375 0.0625 -0.890625 0.125q-0.453125 0.046875 -0.875 0.046875q-0.578125 0 -1.09375 -0.140625q-0.5 -0.140625 -0.90625 -0.5q-0.390625 -0.328125 -0.625 -0.90625q-0.21875 -0.578125 -0.21875 -1.46875l0 -8.265625l5.796875 0l0 -2.0l-5.796875 0l0 -3.6874847zm11.537186 3.6874847l0 2.265625l5.171875 0l0 10.6875l-5.171875 0l0 2.25l12.71875 0l0 -2.25l-4.953125 0l0 -12.953125l-7.765625 0zm4.828125 -3.9999847q0 0.640625 0.375 1.0625q0.390625 0.421875 1.1875 0.421875q0.765625 0 1.15625 -0.421875q0.40625 -0.421875 0.40625 -1.0625q0 -0.34375 -0.125 -0.640625q-0.109375 -0.296875 -0.328125 -0.484375q-0.1875 -0.1875 -0.46875 -0.296875q-0.28125 -0.109375 -0.640625 -0.109375q-0.375 0 -0.65625 0.109375q-0.28125 0.109375 -0.46875 0.296875q-0.234375 0.203125 -0.34375 0.5q-0.09375 0.296875 -0.09375 0.625zm18.505936 17.374985q-1.21875 0 -2.046875 -0.484375q-0.8125 -0.484375 -1.3125 -1.265625q-0.5 -0.78125 -0.71875 -1.75q-0.21875 -0.984375 -0.21875 -1.984375l0 -0.578125q0 -0.984375 0.21875 -1.953125q0.21875 -0.984375 0.71875 -1.765625q0.515625 -0.765625 1.328125 -1.25q0.828125 -0.484375 2.03125 -0.484375q0.78125 0 1.46875 0.265625q0.6875 0.265625 1.171875 0.71875q0.5 0.46875 0.78125 1.078125q0.296875 0.609375 0.296875 1.296875l2.46875 0q0 -1.140625 -0.46875 -2.15625q-0.453125 -1.015625 -1.28125 -1.765625q-0.828125 -0.71875 -1.96875 -1.140625q-1.125 -0.43748474 -2.46875 -0.43748474q-1.71875 0 -3.015625 0.62498474q-1.296875 0.609375 -2.15625 1.65625q-0.875 1.046875 -1.3125 2.421875q-0.421875 1.375 -0.421875 2.890625l0 0.578125q0 1.515625 0.421875 2.890625q0.4375 1.375 1.3125 2.40625q0.859375 1.0625 2.15625 1.6875q1.296875 0.609375 3.015625 0.609375q1.203125 0 2.3125 -0.40625q1.125 -0.421875 1.96875 -1.125q0.859375 -0.6875 1.375 -1.609375q0.515625 -0.921875 0.53125 -1.9375l-2.46875 0q0 0.640625 -0.328125 1.1875q-0.3125 0.53125 -0.828125 0.921875q-0.515625 0.40625 -1.1875 0.640625q-0.671875 0.21875 -1.375 0.21875zm15.349686 -5.265625l5.578125 7.09375l3.296875 0l-7.09375 -8.875l6.15625 -6.328125l-3.15625 0l-5.0 5.0l-1.6875 1.828125l0 -13.218735l-2.625 0l0 21.593735l2.625 0l0 -5.25l1.90625 -1.84375zm15.287186 -1.21875l0 0.140625q0 2.015625 0.3125 3.796875q0.328125 1.765625 0.859375 3.265625q0.515625 1.515625 1.203125 2.75q0.703125 1.25 1.484375 2.21875q0.75 0.984375 1.53125 1.671875q0.78125 0.6875 1.484375 1.078125l0.546875 -1.59375q-0.578125 -0.46875 -1.15625 -1.125q-0.5625 -0.640625 -1.09375 -1.484375q-0.515625 -0.890625 -1.0 -2.015625q-0.46875 -1.109375 -0.84375 -2.421875q-0.328125 -1.28125 -0.53125 -2.8125q-0.203125 -1.53125 -0.203125 -3.296875l0 -0.1875q0 -1.828125 0.203125 -3.421875q0.21875 -1.59375 0.609375 -2.90625q0.390625 -1.4687347 0.96875 -2.6874847q0.59375 -1.234375 1.25 -2.140625q0.4375 -0.59375 0.890625 -1.0625q0.453125 -0.484375 0.90625 -0.828125l-0.546875 -1.71875q-0.703125 0.390625 -1.484375 1.09375q-0.765625 0.6875 -1.53125 1.65625q-0.765625 0.96875 -1.46875 2.21875q-0.6875 1.25 -1.21875 2.75q-0.53125 1.5156097 -0.859375 3.2968597q-0.3125 1.765625 -0.3125 3.765625zm24.193436 0.140625l0 -0.140625q0 -2.140625 -0.34375 -3.859375q-0.328125 -1.734375 -0.828125 -3.2031097q-0.515625 -1.53125 -1.203125 -2.75q-0.6875 -1.21875 -1.484375 -2.21875q-0.75 -0.96875 -1.546875 -1.65625q-0.78125 -0.703125 -1.484375 -1.09375l-0.546875 1.59375q0.453125 0.375 0.9375 0.921875q0.5 0.53125 0.96875 1.25q0.609375 0.921875 1.1875 2.15625q0.578125 1.21875 0.984375 2.7656097q0.28125 1.078125 0.5 2.625q0.234375 1.546875 0.234375 3.453125l0 0.1875q0 1.671875 -0.171875 3.140625q-0.171875 1.46875 -0.5 2.734375q-0.3125 1.359375 -0.796875 2.5q-0.484375 1.15625 -1.0 2.078125q-0.546875 0.890625 -1.15625 1.578125q-0.59375 0.6875 -1.1875 1.125l0.546875 1.59375q0.703125 -0.390625 1.484375 -1.078125q0.78125 -0.6875 1.546875 -1.671875q0.765625 -0.96875 1.453125 -2.21875q0.703125 -1.234375 1.234375 -2.75q0.53125 -1.5 0.84375 -3.265625q0.328125 -1.78125 0.328125 -3.796875z" fill-rule="nonzero"/><path fill="#000000" fill-opacity="0.0" d="m29.028872 132.76413l189.10237 0l0 64.7874l-189.10237 0z" fill-rule="evenodd"/><path fill="#000000" d="m59.075745 167.98936l-3.953125 0q-0.046875 0.921875 -0.3125 1.59375q-0.25 0.65625 -0.671875 1.078125q-0.4375 0.421875 -1.0625 0.625q-0.609375 0.1875 -1.390625 0.1875q-0.578125 0 -1.046875 -0.125q-0.46875 -0.140625 -0.84375 -0.421875q-0.359375 -0.25 -0.640625 -0.625q-0.265625 -0.390625 -0.46875 -0.875q-0.28125 -0.71875 -0.421875 -1.671875q-0.125 -0.96875 -0.125 -2.203125l0 -2.78125q0 -0.890625 0.078125 -1.671875q0.09375 -0.78125 0.28125 -1.4375q0.234375 -0.828125 0.625 -1.453125q0.40625 -0.625 0.984375 -0.953125q0.34375 -0.203125 0.734375 -0.296875q0.40625 -0.09375 0.875 -0.09375q0.875 0 1.5 0.234375q0.625 0.21875 1.046875 0.671875q0.40625 0.46875 0.625 1.15625q0.21875 0.6875 0.265625 1.59375l3.9375 0q-0.140625 -1.59375 -0.671875 -2.875q-0.53125 -1.28125 -1.46875 -2.171875q-0.921875 -0.875 -2.234375 -1.34375q-1.3125 -0.484375 -3.0 -0.484375q-1.140625 0 -2.140625 0.28125q-0.984375 0.28125 -1.8125 0.828125q-0.921875 0.625 -1.65625 1.546875q-0.734375 0.90625 -1.1875 2.078125q-0.390625 0.953125 -0.59375 2.078125q-0.1875 1.109375 -0.1875 2.34375l0 2.75q0 1.328125 0.21875 2.515625q0.21875 1.171875 0.625 2.15625q0.421875 0.984375 1.03125 1.796875q0.609375 0.8125 1.40625 1.390625q0.84375 0.625 1.921875 0.953125q1.078125 0.328125 2.34375 0.328125q1.609375 0 2.921875 -0.46875q1.328125 -0.46875 2.28125 -1.34375q0.953125 -0.875 1.515625 -2.109375q0.578125 -1.234375 0.671875 -2.78125zm4.0215607 -15.1875l0 3.203125l4.546875 0l0 15.21875l-4.546875 0l0 3.171875l12.859375 0l0 -3.171875l-4.359375 0l0 -18.421875l-8.5 0zm15.927811 13.84375l0 0.296875q0 1.671875 0.46875 3.09375q0.484375 1.40625 1.40625 2.453125q0.921875 1.03125 2.25 1.625q1.34375 0.578125 3.0625 0.578125q1.703125 0 3.03125 -0.578125q1.34375 -0.59375 2.25 -1.625q0.921875 -1.046875 1.390625 -2.453125q0.484375 -1.421875 0.484375 -3.09375l0 -0.296875q0 -1.65625 -0.484375 -3.0625q-0.46875 -1.40625 -1.390625 -2.453125q-0.921875 -1.046875 -2.265625 -1.625q-1.328125 -0.59375 -3.046875 -0.59375q-1.703125 0 -3.03125 0.59375q-1.328125 0.578125 -2.25 1.625q-0.921875 1.046875 -1.40625 2.453125q-0.46875 1.40625 -0.46875 3.0625zm3.90625 0.296875l0 -0.296875q0 -0.921875 0.171875 -1.75q0.1875 -0.828125 0.578125 -1.46875q0.390625 -0.625 1.015625 -0.984375q0.625 -0.375 1.484375 -0.375q0.890625 0 1.5 0.375q0.625 0.359375 1.015625 0.984375q0.390625 0.640625 0.5625 1.46875q0.1875 0.828125 0.1875 1.75l0 0.296875q0 0.953125 -0.1875 1.796875q-0.171875 0.84375 -0.5625 1.453125q-0.390625 0.640625 -1.015625 1.0q-0.609375 0.359375 -1.46875 0.359375q-0.890625 0 -1.515625 -0.359375q-0.625 -0.359375 -1.015625 -1.0q-0.390625 -0.609375 -0.578125 -1.453125q-0.171875 -0.84375 -0.171875 -1.796875zm20.630936 4.609375q-0.953125 0 -1.5625 -0.375q-0.609375 -0.375 -0.953125 -1.015625q-0.375 -0.609375 -0.515625 -1.4375q-0.140625 -0.828125 -0.140625 -1.703125l0 -0.421875q0 -0.875 0.140625 -1.6875q0.15625 -0.8125 0.53125 -1.453125q0.34375 -0.625 0.9375 -1.0q0.609375 -0.390625 1.546875 -0.390625q0.625 0 1.15625 0.21875q0.546875 0.21875 0.921875 0.578125q0.375 0.375 0.5625 0.890625q0.203125 0.5 0.1875 1.0625l3.671875 0q0.03125 -1.359375 -0.453125 -2.4375q-0.46875 -1.09375 -1.328125 -1.875q-0.875 -0.75 -2.078125 -1.171875q-1.1875 -0.421875 -2.59375 -0.421875q-1.75 0 -3.078125 0.609375q-1.328125 0.59375 -2.234375 1.640625q-0.890625 1.03125 -1.34375 2.4375q-0.453125 1.390625 -0.453125 3.0l0 0.421875q0 1.59375 0.453125 3.0q0.46875 1.390625 1.359375 2.4375q0.890625 1.03125 2.21875 1.640625q1.34375 0.59375 3.109375 0.59375q1.3125 0 2.484375 -0.40625q1.171875 -0.421875 2.0625 -1.15625q0.875 -0.734375 1.390625 -1.734375q0.515625 -1.015625 0.484375 -2.203125l-3.671875 0q0.015625 0.53125 -0.203125 0.96875q-0.21875 0.4375 -0.609375 0.75q-0.390625 0.3125 -0.90625 0.484375q-0.515625 0.15625 -1.09375 0.15625zm16.255936 -3.4375l4.3125 6.28125l4.796875 0l-6.546875 -8.875l5.734375 -6.328125l-4.6875 0l-4.203125 4.609375l-1.171875 1.34375l0 -12.34375l-3.90625 0l0 21.59375l3.90625 0l0 -4.640625l1.765625 -1.640625z" fill-rule="nonzero"/><path fill="#000000" fill-opacity="0.0" d="m599.40125 39.873947l254.58264 0l0 64.7874l-254.58264 0z" fill-rule="evenodd"/><path fill="#000000" d="m625.3075 77.23981l1.1875 4.265625l4.15625 0l-6.5625 -20.46875l-3.59375 0l-6.703125 20.46875l4.15625 0l1.21875 -4.265625l6.140625 0zm-5.171875 -3.359375l2.140625 -7.53125l2.09375 7.53125l-4.234375 0zm22.44342 7.625l3.53125 0l0 -15.203125l-3.90625 0l0 10.65625q-0.1875 0.375 -0.453125 0.671875q-0.25 0.296875 -0.5625 0.5q-0.390625 0.234375 -0.890625 0.375q-0.484375 0.125 -1.109375 0.125q-0.6875 0 -1.171875 -0.171875q-0.46875 -0.171875 -0.765625 -0.5625q-0.296875 -0.375 -0.4375 -1.0q-0.125 -0.640625 -0.125 -1.578125l0 -9.015625l-3.90625 0l0 8.984375q0 1.734375 0.375 2.96875q0.390625 1.21875 1.09375 2.015625q0.703125 0.796875 1.6875 1.171875q0.984375 0.359375 2.171875 0.359375q1.296875 0 2.375 -0.640625q1.09375 -0.65625 1.859375 -1.796875l0.234375 2.140625zm6.9434204 -7.71875l0 0.296875q0 1.65625 0.40625 3.078125q0.40625 1.40625 1.171875 2.4375q0.765625 1.015625 1.859375 1.609375q1.109375 0.578125 2.5 0.578125q1.28125 0 2.25 -0.484375q0.96875 -0.5 1.6875 -1.390625l0.203125 1.59375l3.515625 0l0 -21.59375l-3.921875 0l0 7.75q-0.703125 -0.78125 -1.609375 -1.203125q-0.90625 -0.4375 -2.09375 -0.4375q-1.421875 0 -2.53125 0.5625q-1.09375 0.5625 -1.875 1.578125q-0.765625 1.03125 -1.171875 2.46875q-0.390625 1.4375 -0.390625 3.15625zm3.90625 0.296875l0 -0.296875q0 -0.953125 0.15625 -1.78125q0.171875 -0.84375 0.546875 -1.46875q0.359375 -0.625 0.9375 -0.984375q0.59375 -0.359375 1.421875 -0.359375q1.0 0 1.65625 0.4375q0.65625 0.421875 1.046875 1.1875l0 6.15625q-0.390625 0.765625 -1.0625 1.203125q-0.65625 0.4375 -1.671875 0.4375q-0.828125 0 -1.40625 -0.34375q-0.578125 -0.359375 -0.9375 -0.984375q-0.375 -0.59375 -0.53125 -1.421875q-0.15625 -0.828125 -0.15625 -1.78125zm14.802795 -7.78125l0 3.1875l4.328125 0l0 8.84375l-4.328125 0l0 3.171875l12.40625 0l0 -3.171875l-4.125 0l0 -12.03125l-8.28125 0zm4.046875 -3.890625q0 0.4375 0.15625 0.828125q0.171875 0.390625 0.46875 0.65625q0.296875 0.28125 0.703125 0.4375q0.421875 0.15625 0.921875 0.15625q1.046875 0 1.65625 -0.578125q0.609375 -0.59375 0.609375 -1.5q0 -0.921875 -0.609375 -1.5q-0.609375 -0.578125 -1.65625 -0.578125q-0.5 0 -0.921875 0.15625q-0.40625 0.140625 -0.703125 0.40625q-0.296875 0.28125 -0.46875 0.671875q-0.15625 0.390625 -0.15625 0.84375zm11.662231 11.34375l0 0.296875q0 1.671875 0.46875 3.09375q0.484375 1.40625 1.40625 2.453125q0.921875 1.03125 2.25 1.625q1.34375 0.578125 3.0625 0.578125q1.703125 0 3.03125 -0.578125q1.34375 -0.59375 2.25 -1.625q0.921875 -1.046875 1.390625 -2.453125q0.484375 -1.421875 0.484375 -3.09375l0 -0.296875q0 -1.65625 -0.484375 -3.0625q-0.46875 -1.40625 -1.390625 -2.453125q-0.921875 -1.046875 -2.265625 -1.625q-1.328125 -0.59375 -3.046875 -0.59375q-1.703125 0 -3.03125 0.59375q-1.328125 0.578125 -2.25 1.625q-0.921875 1.046875 -1.40625 2.453125q-0.46875 1.40625 -0.46875 3.0625zm3.90625 0.296875l0 -0.296875q0 -0.921875 0.171875 -1.75q0.1875 -0.828125 0.578125 -1.46875q0.390625 -0.625 1.015625 -0.984375q0.625 -0.375 1.484375 -0.375q0.890625 0 1.5 0.375q0.625 0.359375 1.015625 0.984375q0.390625 0.640625 0.5625 1.46875q0.1875 0.828125 0.1875 1.75l0 0.296875q0 0.953125 -0.1875 1.796875q-0.171875 0.84375 -0.5625 1.453125q-0.390625 0.640625 -1.015625 1.0q-0.609375 0.359375 -1.46875 0.359375q-0.890625 0 -1.515625 -0.359375q-0.625 -0.359375 -1.015625 -1.0q-0.390625 -0.609375 -0.578125 -1.453125q-0.171875 -0.84375 -0.171875 -1.796875zm20.69342 -0.1875l3.859375 7.640625l4.21875 0l0 -0.1875l-4.390625 -8.4375q0.84375 -0.390625 1.515625 -0.90625q0.6875 -0.515625 1.171875 -1.21875q0.484375 -0.6875 0.734375 -1.5625q0.265625 -0.890625 0.265625 -1.984375q0 -1.515625 -0.53125 -2.65625q-0.515625 -1.15625 -1.484375 -1.9375q-0.984375 -0.765625 -2.359375 -1.171875q-1.375 -0.40625 -3.078125 -0.40625l-6.859375 0l0 20.46875l3.953125 0l0 -7.640625l2.984375 0zm-2.984375 -3.203125l0 -6.40625l2.90625 0q0.8125 0 1.4375 0.203125q0.640625 0.1875 1.078125 0.546875q0.484375 0.40625 0.734375 1.03125q0.25 0.625 0.25 1.4375q0 0.6875 -0.203125 1.234375q-0.1875 0.546875 -0.546875 0.9375q-0.4375 0.484375 -1.140625 0.75q-0.6875 0.265625 -1.59375 0.265625l-2.921875 0zm20.834045 11.125q2.203125 0 3.8125 -0.859375q1.625 -0.859375 2.375 -1.90625l-1.953125 -2.109375q-0.671875 0.875 -1.765625 1.3125q-1.078125 0.421875 -2.234375 0.421875q-0.8125 0 -1.5 -0.25q-0.6875 -0.25 -1.21875 -0.71875q-0.515625 -0.4375 -0.828125 -0.984375q-0.3125 -0.5625 -0.515625 -1.484375l0 -0.046875l10.328125 0l0 -1.65625q0 -1.671875 -0.46875 -3.046875q-0.46875 -1.390625 -1.34375 -2.375q-0.90625 -0.984375 -2.203125 -1.515625q-1.28125 -0.546875 -2.921875 -0.546875q-1.59375 0 -2.9375 0.578125q-1.34375 0.578125 -2.328125 1.609375q-0.984375 1.046875 -1.53125 2.484375q-0.546875 1.4375 -0.546875 3.1875l0 0.5625q0 1.53125 0.546875 2.875q0.5625 1.328125 1.578125 2.3125q1.03125 1.0 2.46875 1.578125q1.4375 0.578125 3.1875 0.578125zm-0.46875 -12.609375q0.75 0 1.3125 0.234375q0.578125 0.234375 0.96875 0.625q0.390625 0.40625 0.609375 0.953125q0.234375 0.546875 0.234375 1.171875l0 0.3125l-6.40625 0q0.140625 -0.75 0.421875 -1.34375q0.28125 -0.609375 0.703125 -1.046875q0.40625 -0.4375 0.953125 -0.671875q0.546875 -0.234375 1.203125 -0.234375zm10.365295 12.328125l3.921875 0l0 -10.8125q0.1875 -0.296875 0.421875 -0.546875q0.25 -0.265625 0.546875 -0.453125q0.359375 -0.25 0.828125 -0.375q0.46875 -0.125 1.03125 -0.125q0.6875 0 1.21875 0.140625q0.53125 0.125 0.90625 0.46875q0.390625 0.328125 0.59375 0.921875q0.203125 0.578125 0.203125 1.484375l0 9.296875l3.90625 0l0 -9.359375q0 -1.65625 -0.390625 -2.8125q-0.390625 -1.171875 -1.078125 -1.90625q-0.703125 -0.734375 -1.65625 -1.0625q-0.953125 -0.34375 -2.109375 -0.34375q-0.890625 0 -1.703125 0.25q-0.796875 0.25 -1.46875 0.734375q-0.390625 0.28125 -0.75 0.640625q-0.34375 0.34375 -0.640625 0.765625l-0.25 -2.109375l-3.53125 0l0 15.203125zm16.865356 -7.71875l0 0.296875q0 1.65625 0.40625 3.078125q0.40625 1.40625 1.171875 2.4375q0.765625 1.015625 1.859375 1.609375q1.109375 0.578125 2.5 0.578125q1.28125 0 2.25 -0.484375q0.96875 -0.5 1.6875 -1.390625l0.203125 1.59375l3.515625 0l0 -21.59375l-3.921875 0l0 7.75q-0.703125 -0.78125 -1.609375 -1.203125q-0.90625 -0.4375 -2.09375 -0.4375q-1.421875 0 -2.53125 0.5625q-1.09375 0.5625 -1.875 1.578125q-0.765625 1.03125 -1.171875 2.46875q-0.390625 1.4375 -0.390625 3.15625zm3.90625 0.296875l0 -0.296875q0 -0.953125 0.15625 -1.78125q0.171875 -0.84375 0.546875 -1.46875q0.359375 -0.625 0.9375 -0.984375q0.59375 -0.359375 1.421875 -0.359375q1.0 0 1.65625 0.4375q0.65625 0.421875 1.046875 1.1875l0 6.15625q-0.390625 0.765625 -1.0625 1.203125q-0.65625 0.4375 -1.671875 0.4375q-0.828125 0 -1.40625 -0.34375q-0.578125 -0.359375 -0.9375 -0.984375q-0.375 -0.59375 -0.53125 -1.421875q-0.15625 -0.828125 -0.15625 -1.78125zm21.146545 7.703125q2.203125 0 3.8125 -0.859375q1.625 -0.859375 2.375 -1.90625l-1.953125 -2.109375q-0.671875 0.875 -1.765625 1.3125q-1.078125 0.421875 -2.234375 0.421875q-0.8125 0 -1.5 -0.25q-0.6875 -0.25 -1.21875 -0.71875q-0.515625 -0.4375 -0.828125 -0.984375q-0.3125 -0.5625 -0.515625 -1.484375l0 -0.046875l10.328125 0l0 -1.65625q0 -1.671875 -0.46875 -3.046875q-0.46875 -1.390625 -1.34375 -2.375q-0.90625 -0.984375 -2.203125 -1.515625q-1.28125 -0.546875 -2.921875 -0.546875q-1.59375 0 -2.9375 0.578125q-1.34375 0.578125 -2.328125 1.609375q-0.984375 1.046875 -1.53125 2.484375q-0.546875 1.4375 -0.546875 3.1875l0 0.5625q0 1.53125 0.546875 2.875q0.5625 1.328125 1.578125 2.3125q1.03125 1.0 2.46875 1.578125q1.4375 0.578125 3.1875 0.578125zm-0.46875 -12.609375q0.75 0 1.3125 0.234375q0.578125 0.234375 0.96875 0.625q0.390625 0.40625 0.609375 0.953125q0.234375 0.546875 0.234375 1.171875l0 0.3125l-6.40625 0q0.140625 -0.75 0.421875 -1.34375q0.28125 -0.609375 0.703125 -1.046875q0.40625 -0.4375 0.953125 -0.671875q0.546875 -0.234375 1.203125 -0.234375zm21.28717 -3.15625q-1.53125 0 -2.828125 0.734375q-1.296875 0.734375 -2.21875 2.03125l-0.03125 -0.34375l-0.15625 -2.140625l-3.640625 0l0 15.203125l3.90625 0l0 -9.140625q0.265625 -0.640625 0.671875 -1.109375q0.40625 -0.484375 0.984375 -0.796875q0.484375 -0.265625 1.09375 -0.390625q0.609375 -0.140625 1.375 -0.140625q0.71875 0 1.53125 0.09375q0.8125 0.09375 1.578125 0.265625l0.578125 -3.890625q-0.453125 -0.140625 -1.21875 -0.25q-0.75 -0.125 -1.625 -0.125zm13.72467 15.765625q2.203125 0 3.8125 -0.859375q1.625 -0.859375 2.375 -1.90625l-1.953125 -2.109375q-0.671875 0.875 -1.765625 1.3125q-1.078125 0.421875 -2.234375 0.421875q-0.8125 0 -1.5 -0.25q-0.6875 -0.25 -1.21875 -0.71875q-0.515625 -0.4375 -0.828125 -0.984375q-0.3125 -0.5625 -0.515625 -1.484375l0 -0.046875l10.328125 0l0 -1.65625q0 -1.671875 -0.46875 -3.046875q-0.46875 -1.390625 -1.34375 -2.375q-0.90625 -0.984375 -2.203125 -1.515625q-1.28125 -0.546875 -2.921875 -0.546875q-1.59375 0 -2.9375 0.578125q-1.34375 0.578125 -2.328125 1.609375q-0.984375 1.046875 -1.53125 2.484375q-0.546875 1.4375 -0.546875 3.1875l0 0.5625q0 1.53125 0.546875 2.875q0.5625 1.328125 1.578125 2.3125q1.03125 1.0 2.46875 1.578125q1.4375 0.578125 3.1875 0.578125zm-0.46875 -12.609375q0.75 0 1.3125 0.234375q0.578125 0.234375 0.96875 0.625q0.390625 0.40625 0.609375 0.953125q0.234375 0.546875 0.234375 1.171875l0 0.3125l-6.40625 0q0.140625 -0.75 0.421875 -1.34375q0.28125 -0.609375 0.703125 -1.046875q0.40625 -0.4375 0.953125 -0.671875q0.546875 -0.234375 1.203125 -0.234375zm21.287231 -3.15625q-1.53125 0 -2.828125 0.734375q-1.296875 0.734375 -2.21875 2.03125l-0.03125 -0.34375l-0.15625 -2.140625l-3.640625 0l0 15.203125l3.90625 0l0 -9.140625q0.265625 -0.640625 0.671875 -1.109375q0.40625 -0.484375 0.984375 -0.796875q0.484375 -0.265625 1.09375 -0.390625q0.609375 -0.140625 1.375 -0.140625q0.71875 0 1.53125 0.09375q0.8125 0.09375 1.578125 0.265625l0.578125 -3.890625q-0.453125 -0.140625 -1.21875 -0.25q-0.75 -0.125 -1.625 -0.125z" fill-rule="nonzero"/><path fill="#000000" fill-opacity="0.0" d="m599.40125 289.2863l254.58264 0l0 64.787384l-254.58264 0z" fill-rule="evenodd"/><path fill="#000000" d="m620.02625 330.91776l4.015625 0l6.1875 -20.46875l-4.34375 0l-3.484375 13.359375l-0.390625 1.390625l-0.34375 -1.375l-3.46875 -13.375l-4.359375 0l6.1875 20.46875zm13.66217 -15.203125l0 3.1875l4.328125 0l0 8.84375l-4.328125 0l0 3.171875l12.40625 0l0 -3.171875l-4.125 0l0 -12.03125l-8.28125 0zm4.046875 -3.890625q0 0.4375 0.15625 0.828125q0.171875 0.390625 0.46875 0.65625q0.296875 0.28125 0.703125 0.4375q0.421875 0.15625 0.921875 0.15625q1.046875 0 1.65625 -0.578125q0.609375 -0.59375 0.609375 -1.5q0 -0.921875 -0.609375 -1.5q-0.609375 -0.578125 -1.65625 -0.578125q-0.5 0 -0.921875 0.15625q-0.40625 0.140625 -0.703125 0.40625q-0.296875 0.28125 -0.46875 0.671875q-0.15625 0.390625 -0.15625 0.84375zm11.78717 11.375l0 0.296875q0 1.65625 0.40625 3.078125q0.40625 1.40625 1.171875 2.4375q0.765625 1.015625 1.859375 1.609375q1.109375 0.578125 2.5 0.578125q1.28125 0 2.25 -0.484375q0.96875 -0.5 1.6875 -1.390625l0.203125 1.59375l3.515625 0l0 -21.59375l-3.921875 0l0 7.75q-0.703125 -0.78125 -1.609375 -1.203125q-0.90625 -0.4375 -2.09375 -0.4375q-1.421875 0 -2.53125 0.5625q-1.09375 0.5625 -1.875 1.578125q-0.765625 1.03125 -1.171875 2.46875q-0.390625 1.4375 -0.390625 3.15625zm3.90625 0.296875l0 -0.296875q0 -0.953125 0.15625 -1.78125q0.171875 -0.84375 0.546875 -1.46875q0.359375 -0.625 0.9375 -0.984375q0.59375 -0.359375 1.421875 -0.359375q1.0 0 1.65625 0.4375q0.65625 0.421875 1.046875 1.1875l0 6.15625q-0.390625 0.765625 -1.0625 1.203125q-0.65625 0.4375 -1.671875 0.4375q-0.828125 0 -1.40625 -0.34375q-0.578125 -0.359375 -0.9375 -0.984375q-0.375 -0.59375 -0.53125 -1.421875q-0.15625 -0.828125 -0.15625 -1.78125zm21.146545 7.703125q2.203125 0 3.8125 -0.859375q1.625 -0.859375 2.375 -1.90625l-1.953125 -2.109375q-0.671875 0.875 -1.765625 1.3125q-1.078125 0.421875 -2.234375 0.421875q-0.8125 0 -1.5 -0.25q-0.6875 -0.25 -1.21875 -0.71875q-0.515625 -0.4375 -0.828125 -0.984375q-0.3125 -0.5625 -0.515625 -1.484375l0 -0.046875l10.328125 0l0 -1.65625q0 -1.671875 -0.46875 -3.046875q-0.46875 -1.390625 -1.34375 -2.375q-0.90625 -0.984375 -2.203125 -1.515625q-1.28125 -0.546875 -2.921875 -0.546875q-1.59375 0 -2.9375 0.578125q-1.34375 0.578125 -2.328125 1.609375q-0.984375 1.046875 -1.53125 2.484375q-0.546875 1.4375 -0.546875 3.1875l0 0.5625q0 1.53125 0.546875 2.875q0.5625 1.328125 1.578125 2.3125q1.03125 1.0 2.46875 1.578125q1.4375 0.578125 3.1875 0.578125zm-0.46875 -12.609375q0.75 0 1.3125 0.234375q0.578125 0.234375 0.96875 0.625q0.390625 0.40625 0.609375 0.953125q0.234375 0.546875 0.234375 1.171875l0 0.3125l-6.40625 0q0.140625 -0.75 0.421875 -1.34375q0.28125 -0.609375 0.703125 -1.046875q0.40625 -0.4375 0.953125 -0.671875q0.546875 -0.234375 1.203125 -0.234375zm9.834106 4.578125l0 0.296875q0 1.671875 0.46875 3.09375q0.484375 1.40625 1.40625 2.453125q0.921875 1.03125 2.25 1.625q1.34375 0.578125 3.0625 0.578125q1.703125 0 3.03125 -0.578125q1.34375 -0.59375 2.25 -1.625q0.921875 -1.046875 1.390625 -2.453125q0.484375 -1.421875 0.484375 -3.09375l0 -0.296875q0 -1.65625 -0.484375 -3.0625q-0.46875 -1.40625 -1.390625 -2.453125q-0.921875 -1.046875 -2.265625 -1.625q-1.328125 -0.59375 -3.046875 -0.59375q-1.703125 0 -3.03125 0.59375q-1.328125 0.578125 -2.25 1.625q-0.921875 1.046875 -1.40625 2.453125q-0.46875 1.40625 -0.46875 3.0625zm3.90625 0.296875l0 -0.296875q0 -0.921875 0.171875 -1.75q0.1875 -0.828125 0.578125 -1.46875q0.390625 -0.625 1.015625 -0.984375q0.625 -0.375 1.484375 -0.375q0.890625 0 1.5 0.375q0.625 0.359375 1.015625 0.984375q0.390625 0.640625 0.5625 1.46875q0.1875 0.828125 0.1875 1.75l0 0.296875q0 0.953125 -0.1875 1.796875q-0.171875 0.84375 -0.5625 1.453125q-0.390625 0.640625 -1.015625 1.0q-0.609375 0.359375 -1.46875 0.359375q-0.890625 0 -1.515625 -0.359375q-0.625 -0.359375 -1.015625 -1.0q-0.390625 -0.609375 -0.578125 -1.453125q-0.171875 -0.84375 -0.171875 -1.796875zm20.69342 -0.1875l3.859375 7.640625l4.21875 0l0 -0.1875l-4.390625 -8.4375q0.84375 -0.390625 1.515625 -0.90625q0.6875 -0.515625 1.171875 -1.21875q0.484375 -0.6875 0.734375 -1.5625q0.265625 -0.890625 0.265625 -1.984375q0 -1.515625 -0.53125 -2.65625q-0.515625 -1.15625 -1.484375 -1.9375q-0.984375 -0.765625 -2.359375 -1.171875q-1.375 -0.40625 -3.078125 -0.40625l-6.859375 0l0 20.46875l3.953125 0l0 -7.640625l2.984375 0zm-2.984375 -3.203125l0 -6.40625l2.90625 0q0.8125 0 1.4375 0.203125q0.640625 0.1875 1.078125 0.546875q0.484375 0.40625 0.734375 1.03125q0.25 0.625 0.25 1.4375q0 0.6875 -0.203125 1.234375q-0.1875 0.546875 -0.546875 0.9375q-0.4375 0.484375 -1.140625 0.75q-0.6875 0.265625 -1.59375 0.265625l-2.921875 0zm20.834045 11.125q2.203125 0 3.8125 -0.859375q1.625 -0.859375 2.375 -1.90625l-1.953125 -2.109375q-0.671875 0.875 -1.765625 1.3125q-1.078125 0.421875 -2.234375 0.421875q-0.8125 0 -1.5 -0.25q-0.6875 -0.25 -1.21875 -0.71875q-0.515625 -0.4375 -0.828125 -0.984375q-0.3125 -0.5625 -0.515625 -1.484375l0 -0.046875l10.328125 0l0 -1.65625q0 -1.671875 -0.46875 -3.046875q-0.46875 -1.390625 -1.34375 -2.375q-0.90625 -0.984375 -2.203125 -1.515625q-1.28125 -0.546875 -2.921875 -0.546875q-1.59375 0 -2.9375 0.578125q-1.34375 0.578125 -2.328125 1.609375q-0.984375 1.046875 -1.53125 2.484375q-0.546875 1.4375 -0.546875 3.1875l0 0.5625q0 1.53125 0.546875 2.875q0.5625 1.328125 1.578125 2.3125q1.03125 1.0 2.46875 1.578125q1.4375 0.578125 3.1875 0.578125zm-0.46875 -12.609375q0.75 0 1.3125 0.234375q0.578125 0.234375 0.96875 0.625q0.390625 0.40625 0.609375 0.953125q0.234375 0.546875 0.234375 1.171875l0 0.3125l-6.40625 0q0.140625 -0.75 0.421875 -1.34375q0.28125 -0.609375 0.703125 -1.046875q0.40625 -0.4375 0.953125 -0.671875q0.546875 -0.234375 1.203125 -0.234375zm10.365295 12.328125l3.921875 0l0 -10.8125q0.1875 -0.296875 0.421875 -0.546875q0.25 -0.265625 0.546875 -0.453125q0.359375 -0.25 0.828125 -0.375q0.46875 -0.125 1.03125 -0.125q0.6875 0 1.21875 0.140625q0.53125 0.125 0.90625 0.46875q0.390625 0.328125 0.59375 0.921875q0.203125 0.578125 0.203125 1.484375l0 9.296875l3.90625 0l0 -9.359375q0 -1.65625 -0.390625 -2.8125q-0.390625 -1.171875 -1.078125 -1.90625q-0.703125 -0.734375 -1.65625 -1.0625q-0.953125 -0.34375 -2.109375 -0.34375q-0.890625 0 -1.703125 0.25q-0.796875 0.25 -1.46875 0.734375q-0.390625 0.28125 -0.75 0.640625q-0.34375 0.34375 -0.640625 0.765625l-0.25 -2.109375l-3.53125 0l0 15.203125zm16.865356 -7.71875l0 0.296875q0 1.65625 0.40625 3.078125q0.40625 1.40625 1.171875 2.4375q0.765625 1.015625 1.859375 1.609375q1.109375 0.578125 2.5 0.578125q1.28125 0 2.25 -0.484375q0.96875 -0.5 1.6875 -1.390625l0.203125 1.59375l3.515625 0l0 -21.59375l-3.921875 0l0 7.75q-0.703125 -0.78125 -1.609375 -1.203125q-0.90625 -0.4375 -2.09375 -0.4375q-1.421875 0 -2.53125 0.5625q-1.09375 0.5625 -1.875 1.578125q-0.765625 1.03125 -1.171875 2.46875q-0.390625 1.4375 -0.390625 3.15625zm3.90625 0.296875l0 -0.296875q0 -0.953125 0.15625 -1.78125q0.171875 -0.84375 0.546875 -1.46875q0.359375 -0.625 0.9375 -0.984375q0.59375 -0.359375 1.421875 -0.359375q1.0 0 1.65625 0.4375q0.65625 0.421875 1.046875 1.1875l0 6.15625q-0.390625 0.765625 -1.0625 1.203125q-0.65625 0.4375 -1.671875 0.4375q-0.828125 0 -1.40625 -0.34375q-0.578125 -0.359375 -0.9375 -0.984375q-0.375 -0.59375 -0.53125 -1.421875q-0.15625 -0.828125 -0.15625 -1.78125zm21.146545 7.703125q2.203125 0 3.8125 -0.859375q1.625 -0.859375 2.375 -1.90625l-1.953125 -2.109375q-0.671875 0.875 -1.765625 1.3125q-1.078125 0.421875 -2.234375 0.421875q-0.8125 0 -1.5 -0.25q-0.6875 -0.25 -1.21875 -0.71875q-0.515625 -0.4375 -0.828125 -0.984375q-0.3125 -0.5625 -0.515625 -1.484375l0 -0.046875l10.328125 0l0 -1.65625q0 -1.671875 -0.46875 -3.046875q-0.46875 -1.390625 -1.34375 -2.375q-0.90625 -0.984375 -2.203125 -1.515625q-1.28125 -0.546875 -2.921875 -0.546875q-1.59375 0 -2.9375 0.578125q-1.34375 0.578125 -2.328125 1.609375q-0.984375 1.046875 -1.53125 2.484375q-0.546875 1.4375 -0.546875 3.1875l0 0.5625q0 1.53125 0.546875 2.875q0.5625 1.328125 1.578125 2.3125q1.03125 1.0 2.46875 1.578125q1.4375 0.578125 3.1875 0.578125zm-0.46875 -12.609375q0.75 0 1.3125 0.234375q0.578125 0.234375 0.96875 0.625q0.390625 0.40625 0.609375 0.953125q0.234375 0.546875 0.234375 1.171875l0 0.3125l-6.40625 0q0.140625 -0.75 0.421875 -1.34375q0.28125 -0.609375 0.703125 -1.046875q0.40625 -0.4375 0.953125 -0.671875q0.546875 -0.234375 1.203125 -0.234375zm21.28717 -3.15625q-1.53125 0 -2.828125 0.734375q-1.296875 0.734375 -2.21875 2.03125l-0.03125 -0.34375l-0.15625 -2.140625l-3.640625 0l0 15.203125l3.90625 0l0 -9.140625q0.265625 -0.640625 0.671875 -1.109375q0.40625 -0.484375 0.984375 -0.796875q0.484375 -0.265625 1.09375 -0.390625q0.609375 -0.140625 1.375 -0.140625q0.71875 0 1.53125 0.09375q0.8125 0.09375 1.578125 0.265625l0.578125 -3.890625q-0.453125 -0.140625 -1.21875 -0.25q-0.75 -0.125 -1.625 -0.125zm13.72467 15.765625q2.203125 0 3.8125 -0.859375q1.625 -0.859375 2.375 -1.90625l-1.953125 -2.109375q-0.671875 0.875 -1.765625 1.3125q-1.078125 0.421875 -2.234375 0.421875q-0.8125 0 -1.5 -0.25q-0.6875 -0.25 -1.21875 -0.71875q-0.515625 -0.4375 -0.828125 -0.984375q-0.3125 -0.5625 -0.515625 -1.484375l0 -0.046875l10.328125 0l0 -1.65625q0 -1.671875 -0.46875 -3.046875q-0.46875 -1.390625 -1.34375 -2.375q-0.90625 -0.984375 -2.203125 -1.515625q-1.28125 -0.546875 -2.921875 -0.546875q-1.59375 0 -2.9375 0.578125q-1.34375 0.578125 -2.328125 1.609375q-0.984375 1.046875 -1.53125 2.484375q-0.546875 1.4375 -0.546875 3.1875l0 0.5625q0 1.53125 0.546875 2.875q0.5625 1.328125 1.578125 2.3125q1.03125 1.0 2.46875 1.578125q1.4375 0.578125 3.1875 0.578125zm-0.46875 -12.609375q0.75 0 1.3125 0.234375q0.578125 0.234375 0.96875 0.625q0.390625 0.40625 0.609375 0.953125q0.234375 0.546875 0.234375 1.171875l0 0.3125l-6.40625 0q0.140625 -0.75 0.421875 -1.34375q0.28125 -0.609375 0.703125 -1.046875q0.40625 -0.4375 0.953125 -0.671875q0.546875 -0.234375 1.203125 -0.234375zm21.287231 -3.15625q-1.53125 0 -2.828125 0.734375q-1.296875 0.734375 -2.21875 2.03125l-0.03125 -0.34375l-0.15625 -2.140625l-3.640625 0l0 15.203125l3.90625 0l0 -9.140625q0.265625 -0.640625 0.671875 -1.109375q0.40625 -0.484375 0.984375 -0.796875q0.484375 -0.265625 1.09375 -0.390625q0.609375 -0.140625 1.375 -0.140625q0.71875 0 1.53125 0.09375q0.8125 0.09375 1.578125 0.265625l0.578125 -3.890625q-0.453125 -0.140625 -1.21875 -0.25q-0.75 -0.125 -1.625 -0.125z" fill-rule="nonzero"/><path fill="#000000" fill-opacity="0.0" d="m599.4141 165.16028l-393.57477 0l0 31.685028" fill-rule="evenodd"/><path stroke="#000000" stroke-width="1.5433070866141732" stroke-linejoin="round" stroke-linecap="butt" d="m599.4142 165.16026l-393.57483 0l0 22.425201" fill-rule="evenodd"/><path fill="#000000" stroke="#000000" stroke-width="1.5433070866141732" stroke-linecap="butt" d="m203.2902 187.58546l2.5491333 7.0036774l2.5491333 -7.0036774z" fill-rule="evenodd"/><path fill="#ffffff" d="m309.86847 139.0047l216.75592 0l0 52.314972l-216.75592 0z" fill-rule="evenodd"/><path fill="#000000" d="m325.1341 165.79903l0 0.1875q0 1.046875 0.265625 1.953125q0.28125 0.90625 0.78125 1.578125q0.5 0.671875 1.21875 1.0625q0.71875 0.375 1.625 0.375q0.53125 0 0.984375 -0.125q0.46875 -0.109375 0.84375 -0.3125q0.25 -0.140625 0.453125 -0.3125q0.21875 -0.1875 0.40625 -0.40625l0 0.84375q0 0.625 -0.1875 1.109375q-0.171875 0.5 -0.515625 0.828125q-0.34375 0.328125 -0.828125 0.5q-0.46875 0.171875 -1.0625 0.171875q-0.328125 0 -0.671875 -0.078125q-0.328125 -0.0625 -0.671875 -0.21875q-0.328125 -0.140625 -0.65625 -0.40625q-0.328125 -0.25 -0.625 -0.625l-0.875 1.0q0.34375 0.484375 0.796875 0.796875q0.46875 0.328125 0.96875 0.53125q0.5 0.1875 0.984375 0.265625q0.5 0.09375 0.875 0.09375q0.921875 0 1.671875 -0.265625q0.765625 -0.265625 1.3125 -0.796875q0.546875 -0.515625 0.84375 -1.265625q0.3125 -0.75 0.3125 -1.71875l0 -9.578125l-1.515625 0l-0.09375 1.078125q-0.171875 -0.21875 -0.359375 -0.390625q-0.1875 -0.1875 -0.40625 -0.328125q-0.40625 -0.265625 -0.90625 -0.390625q-0.484375 -0.140625 -1.0625 -0.140625q-0.921875 0 -1.640625 0.375q-0.71875 0.359375 -1.234375 1.03125q-0.5 0.65625 -0.765625 1.578125q-0.265625 0.90625 -0.265625 2.0zm1.671875 0.1875l0 -0.1875q0 -0.71875 0.140625 -1.359375q0.15625 -0.640625 0.484375 -1.140625q0.3125 -0.484375 0.8125 -0.765625q0.5 -0.296875 1.203125 -0.296875q0.421875 0 0.765625 0.109375q0.34375 0.09375 0.625 0.28125q0.28125 0.1875 0.484375 0.4375q0.21875 0.25 0.390625 0.5625l0 4.46875q-0.171875 0.328125 -0.390625 0.59375q-0.203125 0.25 -0.484375 0.4375q-0.28125 0.1875 -0.625 0.296875q-0.34375 0.109375 -0.78125 0.109375q-0.6875 0 -1.1875 -0.28125q-0.5 -0.296875 -0.8125 -0.78125q-0.328125 -0.484375 -0.484375 -1.125q-0.140625 -0.640625 -0.140625 -1.359375zm14.054932 4.96875q1.421875 0 2.390625 -0.578125q0.984375 -0.578125 1.46875 -1.3125l-1.03125 -0.796875q-0.453125 0.59375 -1.15625 0.953125q-0.6875 0.359375 -1.578125 0.359375q-0.6875 0 -1.25 -0.25q-0.546875 -0.25 -0.953125 -0.6875q-0.390625 -0.421875 -0.609375 -0.953125q-0.21875 -0.546875 -0.28125 -1.265625l0 -0.0625l6.984375 0l0 -0.75q0 -1.015625 -0.265625 -1.890625q-0.25 -0.890625 -0.78125 -1.53125q-0.515625 -0.640625 -1.3125 -1.0q-0.78125 -0.375 -1.84375 -0.375q-0.84375 0 -1.640625 0.34375q-0.796875 0.34375 -1.421875 0.984375q-0.625 0.65625 -1.015625 1.59375q-0.375 0.921875 -0.375 2.109375l0 0.375q0 1.03125 0.34375 1.90625q0.34375 0.859375 0.953125 1.484375q0.625 0.625 1.484375 0.984375q0.859375 0.359375 1.890625 0.359375zm-0.21875 -8.765625q0.640625 0 1.109375 0.234375q0.46875 0.234375 0.765625 0.609375q0.3125 0.375 0.484375 0.90625q0.171875 0.515625 0.171875 0.96875l0 0.078125l-5.265625 0q0.109375 -0.671875 0.359375 -1.1875q0.25 -0.53125 0.609375 -0.890625q0.359375 -0.359375 0.8125 -0.53125q0.453125 -0.1875 0.953125 -0.1875zm10.961182 -3.5625l-1.6875 0l0 2.359375l-2.5625 0l0 1.296875l2.5625 0l0 5.3125q0 0.90625 0.234375 1.546875q0.25 0.625 0.671875 1.03125q0.40625 0.40625 0.96875 0.59375q0.5625 0.1875 1.21875 0.1875q0.390625 0 0.78125 -0.046875q0.390625 -0.03125 0.75 -0.109375q0.34375 -0.0625 0.640625 -0.15625q0.296875 -0.09375 0.515625 -0.21875l-0.234375 -1.1875q-0.15625 0.046875 -0.40625 0.09375q-0.234375 0.046875 -0.5 0.09375q-0.28125 0.046875 -0.578125 0.078125q-0.28125 0.03125 -0.546875 0.03125q-0.375 0 -0.703125 -0.09375q-0.328125 -0.09375 -0.578125 -0.3125q-0.265625 -0.21875 -0.40625 -0.59375q-0.140625 -0.375 -0.140625 -0.9375l0 -5.3125l3.71875 0l0 -1.296875l-3.71875 0l0 -2.359375zm15.664307 8.1875l-1.671875 0q-0.078125 0.59375 -0.28125 1.109375q-0.203125 0.5 -0.53125 0.875q-0.34375 0.375 -0.828125 0.59375q-0.46875 0.203125 -1.140625 0.203125q-0.59375 0 -1.046875 -0.1875q-0.453125 -0.203125 -0.796875 -0.546875q-0.328125 -0.328125 -0.546875 -0.765625q-0.21875 -0.453125 -0.34375 -0.953125q-0.140625 -0.5 -0.203125 -1.015625q-0.0625 -0.53125 -0.0625 -1.015625l0 -1.84375q0 -0.5 0.0625 -1.015625q0.0625 -0.515625 0.203125 -1.015625q0.125 -0.5 0.34375 -0.9375q0.234375 -0.4375 0.5625 -0.78125q0.328125 -0.328125 0.78125 -0.515625q0.453125 -0.203125 1.046875 -0.203125q0.671875 0 1.140625 0.21875q0.484375 0.21875 0.828125 0.609375q0.328125 0.390625 0.53125 0.90625q0.203125 0.515625 0.28125 1.109375l1.671875 0q-0.109375 -0.9375 -0.453125 -1.703125q-0.34375 -0.78125 -0.890625 -1.34375q-0.5625 -0.5625 -1.34375 -0.859375q-0.78125 -0.296875 -1.765625 -0.296875q-0.8125 0 -1.484375 0.234375q-0.65625 0.21875 -1.171875 0.625q-0.515625 0.40625 -0.890625 0.96875q-0.375 0.546875 -0.625 1.203125q-0.25 0.65625 -0.375 1.375q-0.125 0.703125 -0.125 1.4375l0 1.828125q0 0.734375 0.125 1.453125q0.125 0.703125 0.375 1.359375q0.25 0.65625 0.625 1.203125q0.375 0.546875 0.890625 0.953125q0.515625 0.40625 1.171875 0.640625q0.671875 0.234375 1.484375 0.234375q0.953125 0 1.71875 -0.296875q0.78125 -0.3125 1.34375 -0.859375q0.5625 -0.546875 0.90625 -1.3125q0.359375 -0.765625 0.484375 -1.671875zm9.023682 3.953125l1.515625 0l0 -9.78125l-1.6875 0l0 7.015625q-0.125 0.3125 -0.328125 0.578125q-0.203125 0.265625 -0.484375 0.46875q-0.3125 0.234375 -0.765625 0.359375q-0.4375 0.125 -1.0 0.125q-0.484375 0 -0.84375 -0.125q-0.359375 -0.125 -0.625 -0.4375q-0.25 -0.3125 -0.375 -0.828125q-0.125 -0.53125 -0.125 -1.328125l0 -5.828125l-1.671875 0l0 5.8125q0 1.09375 0.234375 1.875q0.25 0.78125 0.6875 1.296875q0.4375 0.5 1.0625 0.75q0.625 0.234375 1.390625 0.234375q0.96875 0 1.6875 -0.40625q0.734375 -0.40625 1.21875 -1.125l0.109375 1.34375zm11.054932 -9.953125q-1.0625 0 -1.90625 0.46875q-0.828125 0.453125 -1.421875 1.265625l0 -0.25l-0.078125 -1.3125l-1.59375 0l0 9.78125l1.6875 0l0 -6.265625q0.15625 -0.453125 0.40625 -0.8125q0.25 -0.375 0.578125 -0.625q0.375 -0.296875 0.875 -0.4375q0.5 -0.15625 1.109375 -0.15625q0.484375 0 0.921875 0.0625q0.4375 0.046875 0.921875 0.15625l0.21875 -1.640625q-0.25 -0.109375 -0.75 -0.171875q-0.5 -0.0625 -0.96875 -0.0625zm11.101807 0q-1.0625 0 -1.90625 0.46875q-0.828125 0.453125 -1.421875 1.265625l0 -0.25l-0.078125 -1.3125l-1.59375 0l0 9.78125l1.6875 0l0 -6.265625q0.15625 -0.453125 0.40625 -0.8125q0.25 -0.375 0.578125 -0.625q0.375 -0.296875 0.875 -0.4375q0.5 -0.15625 1.109375 -0.15625q0.484375 0 0.921875 0.0625q0.4375 0.046875 0.921875 0.15625l0.21875 -1.640625q-0.25 -0.109375 -0.75 -0.171875q-0.5 -0.0625 -0.96875 -0.0625zm9.023682 10.140625q1.421875 0 2.390625 -0.578125q0.984375 -0.578125 1.46875 -1.3125l-1.03125 -0.796875q-0.453125 0.59375 -1.15625 0.953125q-0.6875 0.359375 -1.578125 0.359375q-0.6875 0 -1.25 -0.25q-0.546875 -0.25 -0.953125 -0.6875q-0.390625 -0.421875 -0.609375 -0.953125q-0.21875 -0.546875 -0.28125 -1.265625l0 -0.0625l6.984375 0l0 -0.75q0 -1.015625 -0.265625 -1.890625q-0.25 -0.890625 -0.78125 -1.53125q-0.515625 -0.640625 -1.3125 -1.0q-0.78125 -0.375 -1.84375 -0.375q-0.84375 0 -1.640625 0.34375q-0.796875 0.34375 -1.421875 0.984375q-0.625 0.65625 -1.015625 1.59375q-0.375 0.921875 -0.375 2.109375l0 0.375q0 1.03125 0.34375 1.90625q0.34375 0.859375 0.953125 1.484375q0.625 0.625 1.484375 0.984375q0.859375 0.359375 1.890625 0.359375zm-0.21875 -8.765625q0.640625 0 1.109375 0.234375q0.46875 0.234375 0.765625 0.609375q0.3125 0.375 0.484375 0.90625q0.171875 0.515625 0.171875 0.96875l0 0.078125l-5.265625 0q0.109375 -0.671875 0.359375 -1.1875q0.25 -0.53125 0.609375 -0.890625q0.359375 -0.359375 0.8125 -0.53125q0.453125 -0.1875 0.953125 -0.1875zm7.0080566 8.578125l1.671875 0l0 -7.015625q0.171875 -0.3125 0.390625 -0.5625q0.234375 -0.265625 0.5 -0.46875q0.34375 -0.234375 0.734375 -0.359375q0.40625 -0.125 0.859375 -0.125q0.53125 0 0.9375 0.125q0.421875 0.125 0.703125 0.40625q0.28125 0.28125 0.421875 0.734375q0.15625 0.453125 0.15625 1.09375l0 6.171875l1.671875 0l0 -6.203125q0 -0.984375 -0.25 -1.6875q-0.234375 -0.703125 -0.671875 -1.171875q-0.453125 -0.453125 -1.078125 -0.671875q-0.625 -0.21875 -1.390625 -0.21875q-0.578125 0 -1.09375 0.171875q-0.5 0.15625 -0.9375 0.4375q-0.28125 0.1875 -0.546875 0.453125q-0.25 0.25 -0.46875 0.5625l-0.109375 -1.453125l-1.5 0l0 9.78125zm15.054932 -12.140625l-1.6875 0l0 2.359375l-2.5625 0l0 1.296875l2.5625 0l0 5.3125q0 0.90625 0.234375 1.546875q0.25 0.625 0.671875 1.03125q0.40625 0.40625 0.96875 0.59375q0.5625 0.1875 1.21875 0.1875q0.390625 0 0.78125 -0.046875q0.390625 -0.03125 0.75 -0.109375q0.34375 -0.0625 0.640625 -0.15625q0.296875 -0.09375 0.515625 -0.21875l-0.234375 -1.1875q-0.15625 0.046875 -0.40625 0.09375q-0.234375 0.046875 -0.5 0.09375q-0.28125 0.046875 -0.578125 0.078125q-0.28125 0.03125 -0.546875 0.03125q-0.375 0 -0.703125 -0.09375q-0.328125 -0.09375 -0.578125 -0.3125q-0.265625 -0.21875 -0.40625 -0.59375q-0.140625 -0.375 -0.140625 -0.9375l0 -5.3125l3.71875 0l0 -1.296875l-3.71875 0l0 -2.359375zm16.008057 0.421875l0 -1.4375l-9.75 0l0 1.4375l4.0625 0l0 11.71875l1.625 0l0 -11.71875l4.0625 0zm2.4924316 1.9375l0 1.46875l3.328125 0l0 6.859375l-3.328125 0l0 1.453125l8.1875 0l0 -1.453125l-3.1875 0l0 -8.328125l-5.0 0zm3.109375 -2.5625q0 0.40625 0.25 0.6875q0.25 0.265625 0.75 0.265625q0.5 0 0.75 -0.265625q0.265625 -0.28125 0.265625 -0.6875q0 -0.21875 -0.078125 -0.40625q-0.078125 -0.1875 -0.21875 -0.328125q-0.109375 -0.109375 -0.296875 -0.171875q-0.1875 -0.078125 -0.421875 -0.078125q-0.234375 0 -0.421875 0.078125q-0.171875 0.0625 -0.296875 0.171875q-0.140625 0.140625 -0.21875 0.328125q-0.0625 0.1875 -0.0625 0.40625zm8.508057 2.5625l-1.5 0l0 9.78125l1.59375 0l0 -7.78125q0.046875 -0.140625 0.125 -0.265625q0.09375 -0.125 0.203125 -0.234375q0.15625 -0.125 0.375 -0.1875q0.234375 -0.0625 0.53125 -0.0625q0.265625 0 0.46875 0.0625q0.203125 0.0625 0.34375 0.21875q0.140625 0.140625 0.203125 0.375q0.078125 0.234375 0.078125 0.546875l0 7.328125l1.578125 0l0 -7.3125q0 -0.0625 0 -0.09375q0 -0.046875 0 -0.09375q0.03125 -0.21875 0.109375 -0.40625q0.09375 -0.1875 0.234375 -0.328125q0.140625 -0.140625 0.359375 -0.21875q0.21875 -0.078125 0.515625 -0.078125q0.28125 0 0.484375 0.078125q0.21875 0.0625 0.359375 0.203125q0.140625 0.15625 0.203125 0.390625q0.078125 0.234375 0.078125 0.546875l0 7.3125l1.59375 0l0 -7.296875q0 -0.703125 -0.171875 -1.21875q-0.15625 -0.53125 -0.46875 -0.859375q-0.265625 -0.28125 -0.6875 -0.421875q-0.40625 -0.15625 -0.90625 -0.15625q-0.375 0 -0.6875 0.09375q-0.296875 0.09375 -0.5625 0.25q-0.1875 0.140625 -0.359375 0.328125q-0.171875 0.171875 -0.296875 0.375q-0.109375 -0.21875 -0.25 -0.40625q-0.140625 -0.1875 -0.3125 -0.3125q-0.234375 -0.15625 -0.546875 -0.234375q-0.3125 -0.09375 -0.6875 -0.09375q-0.6875 0 -1.171875 0.296875q-0.484375 0.28125 -0.78125 0.796875l-0.046875 -0.921875zm14.648682 9.96875q1.421875 0 2.390625 -0.578125q0.984375 -0.578125 1.46875 -1.3125l-1.03125 -0.796875q-0.453125 0.59375 -1.15625 0.953125q-0.6875 0.359375 -1.578125 0.359375q-0.6875 0 -1.25 -0.25q-0.546875 -0.25 -0.953125 -0.6875q-0.390625 -0.421875 -0.609375 -0.953125q-0.21875 -0.546875 -0.28125 -1.265625l0 -0.0625l6.984375 0l0 -0.75q0 -1.015625 -0.265625 -1.890625q-0.25 -0.890625 -0.78125 -1.53125q-0.515625 -0.640625 -1.3125 -1.0q-0.78125 -0.375 -1.84375 -0.375q-0.84375 0 -1.640625 0.34375q-0.796875 0.34375 -1.421875 0.984375q-0.625 0.65625 -1.015625 1.59375q-0.375 0.921875 -0.375 2.109375l0 0.375q0 1.03125 0.34375 1.90625q0.34375 0.859375 0.953125 1.484375q0.625 0.625 1.484375 0.984375q0.859375 0.359375 1.890625 0.359375zm-0.21875 -8.765625q0.640625 0 1.109375 0.234375q0.46875 0.234375 0.765625 0.609375q0.3125 0.375 0.484375 0.90625q0.171875 0.515625 0.171875 0.96875l0 0.078125l-5.265625 0q0.109375 -0.671875 0.359375 -1.1875q0.25 -0.53125 0.609375 -0.890625q0.359375 -0.359375 0.8125 -0.53125q0.453125 -0.1875 0.953125 -0.1875zm8.648682 3.234375l0 0.09375q0 1.296875 0.203125 2.4375q0.203125 1.125 0.546875 2.09375q0.34375 0.984375 0.78125 1.78125q0.453125 0.796875 0.953125 1.421875q0.484375 0.625 0.984375 1.0625q0.5 0.453125 0.953125 0.703125l0.359375 -1.03125q-0.375 -0.296875 -0.75 -0.71875q-0.359375 -0.40625 -0.703125 -0.953125q-0.328125 -0.578125 -0.640625 -1.296875q-0.3125 -0.703125 -0.546875 -1.546875q-0.203125 -0.828125 -0.34375 -1.8125q-0.125 -0.984375 -0.125 -2.125l0 -0.125q0 -1.171875 0.140625 -2.1875q0.140625 -1.03125 0.375 -1.875q0.25 -0.9375 0.625 -1.71875q0.390625 -0.796875 0.8125 -1.390625q0.28125 -0.375 0.5625 -0.671875q0.296875 -0.3125 0.59375 -0.53125l-0.359375 -1.109375q-0.453125 0.25 -0.953125 0.703125q-0.484375 0.4375 -0.984375 1.0625q-0.484375 0.625 -0.9375 1.4375q-0.453125 0.796875 -0.796875 1.765625q-0.34375 0.96875 -0.546875 2.109375q-0.203125 1.140625 -0.203125 2.421875zm15.554932 0.09375l0 -0.09375q0 -1.375 -0.21875 -2.484375q-0.203125 -1.109375 -0.53125 -2.046875q-0.34375 -0.984375 -0.78125 -1.765625q-0.4375 -0.796875 -0.953125 -1.4375q-0.484375 -0.625 -1.0 -1.0625q-0.5 -0.453125 -0.9375 -0.703125l-0.359375 1.015625q0.296875 0.25 0.609375 0.609375q0.328125 0.34375 0.625 0.796875q0.375 0.59375 0.75 1.390625q0.375 0.78125 0.640625 1.765625q0.171875 0.703125 0.3125 1.703125q0.15625 0.984375 0.15625 2.203125l0 0.125q0 1.078125 -0.109375 2.03125q-0.109375 0.9375 -0.3125 1.75q-0.203125 0.875 -0.515625 1.609375q-0.3125 0.734375 -0.640625 1.328125q-0.359375 0.578125 -0.75 1.015625q-0.390625 0.4375 -0.765625 0.71875l0.359375 1.03125q0.4375 -0.25 0.9375 -0.703125q0.515625 -0.4375 1.0 -1.0625q0.5 -0.625 0.9375 -1.421875q0.453125 -0.796875 0.796875 -1.78125q0.34375 -0.96875 0.546875 -2.09375q0.203125 -1.140625 0.203125 -2.4375z" fill-rule="nonzero"/><path fill="#000000" fill-opacity="0.0" d="m599.40125 418.1474l-393.57483 0l0 -92.629944" fill-rule="evenodd"/><path stroke="#000000" stroke-width="1.5433070866141732" stroke-linejoin="round" stroke-linecap="butt" d="m590.1414 418.1474l-384.315 0l0 -92.629944" fill-rule="evenodd"/><path fill="#000000" stroke="#000000" stroke-width="1.5433070866141732" stroke-linecap="butt" d="m590.1414 420.69653l7.003662 -2.5491333l-7.003662 -2.5491333z" fill-rule="evenodd"/><path fill="#ffffff" d="m294.24268 397.54315l216.75589 0l0 52.314972l-216.75589 0z" fill-rule="evenodd"/><path fill="#000000" d="m316.21143 419.35312q-1.0625 0 -1.90625 0.46875q-0.828125 0.453125 -1.421875 1.265625l0 -0.25l-0.078125 -1.3125l-1.59375 0l0 9.78125l1.6875 0l0 -6.265625q0.15625 -0.453125 0.40625 -0.8125q0.25 -0.375 0.578125 -0.625q0.375 -0.296875 0.875 -0.4375q0.5 -0.15625 1.109375 -0.15625q0.484375 0 0.921875 0.0625q0.4375 0.046875 0.921875 0.15625l0.21875 -1.640625q-0.25 -0.109375 -0.75 -0.171875q-0.5 -0.0625 -0.96875 -0.0625zm9.023682 10.140625q1.421875 0 2.390625 -0.578125q0.984375 -0.578125 1.46875 -1.3125l-1.03125 -0.796875q-0.453125 0.59375 -1.15625 0.953125q-0.6875 0.359375 -1.578125 0.359375q-0.6875 0 -1.25 -0.25q-0.546875 -0.25 -0.953125 -0.6875q-0.390625 -0.421875 -0.609375 -0.953125q-0.21875 -0.546875 -0.28125 -1.265625l0 -0.0625l6.984375 0l0 -0.75q0 -1.015625 -0.265625 -1.890625q-0.25 -0.890625 -0.78125 -1.53125q-0.515625 -0.640625 -1.3125 -1.0q-0.78125 -0.375 -1.84375 -0.375q-0.84375 0 -1.640625 0.34375q-0.796875 0.34375 -1.421875 0.984375q-0.625 0.65625 -1.015625 1.59375q-0.375 0.921875 -0.375 2.109375l0 0.375q0 1.03125 0.34375 1.90625q0.34375 0.859375 0.953125 1.484375q0.625 0.625 1.484375 0.984375q0.859375 0.359375 1.890625 0.359375zm-0.21875 -8.765625q0.640625 0 1.109375 0.234375q0.46875 0.234375 0.765625 0.609375q0.3125 0.375 0.484375 0.90625q0.171875 0.515625 0.171875 0.96875l0 0.078125l-5.265625 0q0.109375 -0.671875 0.359375 -1.1875q0.25 -0.53125 0.609375 -0.890625q0.359375 -0.359375 0.8125 -0.53125q0.453125 -0.1875 0.953125 -0.1875zm7.0080566 8.578125l1.671875 0l0 -7.015625q0.171875 -0.3125 0.390625 -0.5625q0.234375 -0.265625 0.5 -0.46875q0.34375 -0.234375 0.734375 -0.359375q0.40625 -0.125 0.859375 -0.125q0.53125 0 0.9375 0.125q0.421875 0.125 0.703125 0.40625q0.28125 0.28125 0.421875 0.734375q0.15625 0.453125 0.15625 1.09375l0 6.171875l1.671875 0l0 -6.203125q0 -0.984375 -0.25 -1.6875q-0.234375 -0.703125 -0.671875 -1.171875q-0.453125 -0.453125 -1.078125 -0.671875q-0.625 -0.21875 -1.390625 -0.21875q-0.578125 0 -1.09375 0.171875q-0.5 0.15625 -0.9375 0.4375q-0.28125 0.1875 -0.546875 0.453125q-0.25 0.25 -0.46875 0.5625l-0.109375 -1.453125l-1.5 0l0 9.78125zm10.773682 -4.96875l0 0.1875q0 1.046875 0.28125 1.953125q0.28125 0.90625 0.796875 1.578125q0.5 0.671875 1.21875 1.0625q0.71875 0.375 1.609375 0.375q0.890625 0 1.5625 -0.3125q0.6875 -0.3125 1.171875 -0.90625l0.078125 1.03125l1.53125 0l0 -13.875l-1.671875 0l0 5.0625q-0.46875 -0.5625 -1.125 -0.84375q-0.65625 -0.296875 -1.53125 -0.296875q-0.90625 0 -1.625 0.375q-0.71875 0.359375 -1.21875 1.03125q-0.515625 0.65625 -0.796875 1.578125q-0.28125 0.90625 -0.28125 2.0zm1.671875 0.1875l0 -0.1875q0 -0.71875 0.15625 -1.359375q0.15625 -0.640625 0.484375 -1.140625q0.3125 -0.484375 0.8125 -0.765625q0.5 -0.296875 1.203125 -0.296875q0.828125 0 1.375 0.390625q0.546875 0.375 0.875 0.96875l0 4.53125q-0.328125 0.640625 -0.875 1.03125q-0.546875 0.375 -1.390625 0.375q-0.6875 0 -1.1875 -0.28125q-0.5 -0.296875 -0.8125 -0.78125q-0.328125 -0.484375 -0.484375 -1.125q-0.15625 -0.640625 -0.15625 -1.359375zm14.070557 4.96875q1.421875 0 2.390625 -0.578125q0.984375 -0.578125 1.46875 -1.3125l-1.03125 -0.796875q-0.453125 0.59375 -1.15625 0.953125q-0.6875 0.359375 -1.578125 0.359375q-0.6875 0 -1.25 -0.25q-0.546875 -0.25 -0.953125 -0.6875q-0.390625 -0.421875 -0.609375 -0.953125q-0.21875 -0.546875 -0.28125 -1.265625l0 -0.0625l6.984375 0l0 -0.75q0 -1.015625 -0.265625 -1.890625q-0.25 -0.890625 -0.78125 -1.53125q-0.515625 -0.640625 -1.3125 -1.0q-0.78125 -0.375 -1.84375 -0.375q-0.84375 0 -1.640625 0.34375q-0.796875 0.34375 -1.421875 0.984375q-0.625 0.65625 -1.015625 1.59375q-0.375 0.921875 -0.375 2.109375l0 0.375q0 1.03125 0.34375 1.90625q0.34375 0.859375 0.953125 1.484375q0.625 0.625 1.484375 0.984375q0.859375 0.359375 1.890625 0.359375zm-0.21875 -8.765625q0.640625 0 1.109375 0.234375q0.46875 0.234375 0.765625 0.609375q0.3125 0.375 0.484375 0.90625q0.171875 0.515625 0.171875 0.96875l0 0.078125l-5.265625 0q0.109375 -0.671875 0.359375 -1.1875q0.25 -0.53125 0.609375 -0.890625q0.359375 -0.359375 0.8125 -0.53125q0.453125 -0.1875 0.953125 -0.1875zm13.398682 -1.375q-1.0625 0 -1.90625 0.46875q-0.828125 0.453125 -1.421875 1.265625l0 -0.25l-0.078125 -1.3125l-1.59375 0l0 9.78125l1.6875 0l0 -6.265625q0.15625 -0.453125 0.40625 -0.8125q0.25 -0.375 0.578125 -0.625q0.375 -0.296875 0.875 -0.4375q0.5 -0.15625 1.109375 -0.15625q0.484375 0 0.921875 0.0625q0.4375 0.046875 0.921875 0.15625l0.21875 -1.640625q-0.25 -0.109375 -0.75 -0.171875q-0.5 -0.0625 -0.96875 -0.0625zm6.3518066 4.609375l0 0.09375q0 1.296875 0.203125 2.4375q0.203125 1.125 0.546875 2.09375q0.34375 0.984375 0.78125 1.78125q0.453125 0.796875 0.953125 1.421875q0.484375 0.625 0.984375 1.0625q0.5 0.453125 0.953125 0.703125l0.359375 -1.03125q-0.375 -0.296875 -0.75 -0.71875q-0.359375 -0.40625 -0.703125 -0.953125q-0.328125 -0.578125 -0.640625 -1.296875q-0.3125 -0.703125 -0.546875 -1.546875q-0.203125 -0.828125 -0.34375 -1.8125q-0.125 -0.984375 -0.125 -2.125l0 -0.125q0 -1.171875 0.140625 -2.1875q0.140625 -1.03125 0.375 -1.875q0.25 -0.9375 0.625 -1.71875q0.390625 -0.796875 0.8125 -1.390625q0.28125 -0.375 0.5625 -0.671875q0.296875 -0.3125 0.59375 -0.53125l-0.359375 -1.109375q-0.453125 0.25 -0.953125 0.703125q-0.484375 0.4375 -0.984375 1.0625q-0.484375 0.625 -0.9375 1.4375q-0.453125 0.796875 -0.796875 1.765625q-0.34375 0.96875 -0.546875 2.109375q-0.203125 1.140625 -0.203125 2.421875zm13.414307 -6.796875l-1.6875 0l0 2.359375l-2.5625 0l0 1.296875l2.5625 0l0 5.3125q0 0.90625 0.234375 1.546875q0.25 0.625 0.671875 1.03125q0.40625 0.40625 0.96875 0.59375q0.5625 0.1875 1.21875 0.1875q0.390625 0 0.78125 -0.046875q0.390625 -0.03125 0.75 -0.109375q0.34375 -0.0625 0.640625 -0.15625q0.296875 -0.09375 0.515625 -0.21875l-0.234375 -1.1875q-0.15625 0.046875 -0.40625 0.09375q-0.234375 0.046875 -0.5 0.09375q-0.28125 0.046875 -0.578125 0.078125q-0.28125 0.03125 -0.546875 0.03125q-0.375 0 -0.703125 -0.09375q-0.328125 -0.09375 -0.578125 -0.3125q-0.265625 -0.21875 -0.40625 -0.59375q-0.140625 -0.375 -0.140625 -0.9375l0 -5.3125l3.71875 0l0 -1.296875l-3.71875 0l0 -2.359375zm7.3986816 2.359375l0 1.46875l3.328125 0l0 6.859375l-3.328125 0l0 1.453125l8.1875 0l0 -1.453125l-3.1875 0l0 -8.328125l-5.0 0zm3.109375 -2.5625q0 0.40625 0.25 0.6875q0.25 0.265625 0.75 0.265625q0.5 0 0.75 -0.265625q0.265625 -0.28125 0.265625 -0.6875q0 -0.21875 -0.078125 -0.40625q-0.078125 -0.1875 -0.21875 -0.328125q-0.109375 -0.109375 -0.296875 -0.171875q-0.1875 -0.078125 -0.421875 -0.078125q-0.234375 0 -0.421875 0.078125q-0.171875 0.0625 -0.296875 0.171875q-0.140625 0.140625 -0.21875 0.328125q-0.0625 0.1875 -0.0625 0.40625zm8.508057 2.5625l-1.5 0l0 9.78125l1.59375 0l0 -7.78125q0.046875 -0.140625 0.125 -0.265625q0.09375 -0.125 0.203125 -0.234375q0.15625 -0.125 0.375 -0.1875q0.234375 -0.0625 0.53125 -0.0625q0.265625 0 0.46875 0.0625q0.203125 0.0625 0.34375 0.21875q0.140625 0.140625 0.203125 0.375q0.078125 0.234375 0.078125 0.546875l0 7.328125l1.578125 0l0 -7.3125q0 -0.0625 0 -0.09375q0 -0.046875 0 -0.09375q0.03125 -0.21875 0.109375 -0.40625q0.09375 -0.1875 0.234375 -0.328125q0.140625 -0.140625 0.359375 -0.21875q0.21875 -0.078125 0.515625 -0.078125q0.28125 0 0.484375 0.078125q0.21875 0.0625 0.359375 0.203125q0.140625 0.15625 0.203125 0.390625q0.078125 0.234375 0.078125 0.546875l0 7.3125l1.59375 0l0 -7.296875q0 -0.703125 -0.171875 -1.21875q-0.15625 -0.53125 -0.46875 -0.859375q-0.265625 -0.28125 -0.6875 -0.421875q-0.40625 -0.15625 -0.90625 -0.15625q-0.375 0 -0.6875 0.09375q-0.296875 0.09375 -0.5625 0.25q-0.1875 0.140625 -0.359375 0.328125q-0.171875 0.171875 -0.296875 0.375q-0.109375 -0.21875 -0.25 -0.40625q-0.140625 -0.1875 -0.3125 -0.3125q-0.234375 -0.15625 -0.546875 -0.234375q-0.3125 -0.09375 -0.6875 -0.09375q-0.6875 0 -1.171875 0.296875q-0.484375 0.28125 -0.78125 0.796875l-0.046875 -0.921875zm14.648682 9.96875q1.421875 0 2.390625 -0.578125q0.984375 -0.578125 1.46875 -1.3125l-1.03125 -0.796875q-0.453125 0.59375 -1.15625 0.953125q-0.6875 0.359375 -1.578125 0.359375q-0.6875 0 -1.25 -0.25q-0.546875 -0.25 -0.953125 -0.6875q-0.390625 -0.421875 -0.609375 -0.953125q-0.21875 -0.546875 -0.28125 -1.265625l0 -0.0625l6.984375 0l0 -0.75q0 -1.015625 -0.265625 -1.890625q-0.25 -0.890625 -0.78125 -1.53125q-0.515625 -0.640625 -1.3125 -1.0q-0.78125 -0.375 -1.84375 -0.375q-0.84375 0 -1.640625 0.34375q-0.796875 0.34375 -1.421875 0.984375q-0.625 0.65625 -1.015625 1.59375q-0.375 0.921875 -0.375 2.109375l0 0.375q0 1.03125 0.34375 1.90625q0.34375 0.859375 0.953125 1.484375q0.625 0.625 1.484375 0.984375q0.859375 0.359375 1.890625 0.359375zm-0.21875 -8.765625q0.640625 0 1.109375 0.234375q0.46875 0.234375 0.765625 0.609375q0.3125 0.375 0.484375 0.90625q0.171875 0.515625 0.171875 0.96875l0 0.078125l-5.265625 0q0.109375 -0.671875 0.359375 -1.1875q0.25 -0.53125 0.609375 -0.890625q0.359375 -0.359375 0.8125 -0.53125q0.453125 -0.1875 0.953125 -0.1875zm13.101807 3.328125l0 -0.09375q0 -1.375 -0.21875 -2.484375q-0.203125 -1.109375 -0.53125 -2.046875q-0.34375 -0.984375 -0.78125 -1.765625q-0.4375 -0.796875 -0.953125 -1.4375q-0.484375 -0.625 -1.0 -1.0625q-0.5 -0.453125 -0.9375 -0.703125l-0.359375 1.015625q0.296875 0.25 0.609375 0.609375q0.328125 0.34375 0.625 0.796875q0.375 0.59375 0.75 1.390625q0.375 0.78125 0.640625 1.765625q0.171875 0.703125 0.3125 1.703125q0.15625 0.984375 0.15625 2.203125l0 0.125q0 1.078125 -0.109375 2.03125q-0.109375 0.9375 -0.3125 1.75q-0.203125 0.875 -0.515625 1.609375q-0.3125 0.734375 -0.640625 1.328125q-0.359375 0.578125 -0.75 1.015625q-0.390625 0.4375 -0.765625 0.71875l0.359375 1.03125q0.4375 -0.25 0.9375 -0.703125q0.515625 -0.4375 1.0 -1.0625q0.5 -0.625 0.9375 -1.421875q0.453125 -0.796875 0.796875 -1.78125q0.34375 -0.96875 0.546875 -2.09375q0.203125 -1.140625 0.203125 -2.4375z" fill-rule="nonzero"/><path fill="#000000" fill-opacity="0.0" d="m134.67192 231.42783l138.58269 0l0 57.858276l-138.58269 0z" fill-rule="evenodd"/><path fill="#000000" fill-opacity="0.0" d="m203.96326 231.42783l0 -9.152023l-94.29134 0l0 82.37224l94.35433 0l0 -15.361938" fill-rule="evenodd"/><path stroke="#000000" stroke-width="1.0" stroke-linejoin="round" stroke-linecap="butt" stroke-dasharray="8.0,3.0" d="m203.96326 231.42783l0 -9.152023l-94.29134 0l0 82.37224l94.35433 0l0 -15.361938" fill-rule="evenodd"/><path fill="#000000" d="m158.85564 226.307l-11.055115 -5.1338654l11.055115 -5.13385z" fill-rule="evenodd"/><path fill="#000000" d="m149.25722 299.52222l11.055115 5.1338806l-11.055115 5.13385z" fill-rule="evenodd"/></g></svg>