<svg version="1.1" viewBox="0.0 0.0 960.0 384.0" fill="none" stroke="none" stroke-linecap="square" stroke-miterlimit="10" xmlns:xlink="http://www.w3.org/1999/xlink" xmlns="http://www.w3.org/2000/svg"><clipPath id="p.0"><path d="m0 0l960.0 0l0 384.0l-960.0 0l0 -384.0z" clip-rule="nonzero"/></clipPath><g clip-path="url(#p.0)"><path fill="#ffffff" d="m0 0l960.0 0l0 384.0l-960.0 0z" fill-rule="evenodd"/><path fill="#c9daf8" d="m493.5052 132.08826l435.71655 0l0 172.34647l-435.71655 0z" fill-rule="evenodd"/><path fill="#000000" fill-opacity="0.0" d="m493.5052 50.437897l341.00787 0l0 86.77165l-341.00787 0z" fill-rule="evenodd"/><path fill="#000000" d="m514.86456 106.449486l7.359375 0q1.8125 0 3.421875 -0.453125q1.609375 -0.453125 2.953125 -1.296875q1.140625 -0.71875 2.09375 -1.78125q0.96875 -1.0625 1.6875 -2.328125q0.75 -1.40625 1.15625 -3.09375q0.421875 -1.703125 0.421875 -3.59375l0 -2.265625q0 -1.96875 -0.4375 -3.71875q-0.4375 -1.765625 -1.25 -3.203125q-0.703125 -1.1875 -1.640625 -2.1875q-0.921875 -1.015625 -2.109375 -1.71875q-1.359375 -0.84375 -3.015625 -1.296875q-1.65625 -0.46875 -3.546875 -0.46875l-7.09375 0l0 27.40625zm5.3125 -23.109375l1.78125 0q0.953125 0 1.765625 0.21875q0.828125 0.203125 1.5 0.609375q0.890625 0.515625 1.546875 1.34375q0.671875 0.828125 1.09375 1.890625q0.34375 0.890625 0.515625 1.953125q0.1875 1.0625 0.1875 2.25l0 2.296875q0 1.25 -0.1875 2.34375q-0.171875 1.078125 -0.515625 1.953125q-0.421875 1.015625 -1.0 1.78125q-0.5625 0.765625 -1.28125 1.25q-0.6875 0.46875 -1.546875 0.71875q-0.84375 0.25 -1.8125 0.25l-2.046875 0l0 -18.859375zm27.991272 23.484375q2.953125 0 5.109375 -1.140625q2.171875 -1.15625 3.171875 -2.5625l-2.609375 -2.828125q-0.90625 1.171875 -2.359375 1.75q-1.4375 0.578125 -2.984375 0.578125q-1.09375 0 -2.015625 -0.328125q-0.921875 -0.34375 -1.640625 -0.96875q-0.703125 -0.59375 -1.125 -1.328125q-0.40625 -0.75 -0.65625 -1.984375l0 -0.046875l13.8125 0l0 -2.21875q0 -2.25 -0.625 -4.09375q-0.625 -1.859375 -1.8125 -3.171875q-1.203125 -1.328125 -2.921875 -2.046875q-1.71875 -0.71875 -3.921875 -0.71875q-2.125 0 -3.9375 0.765625q-1.796875 0.765625 -3.125 2.15625q-1.3125 1.40625 -2.046875 3.34375q-0.734375 1.921875 -0.734375 4.25l0 0.75q0 2.046875 0.734375 3.84375q0.75 1.796875 2.125 3.125q1.375 1.328125 3.296875 2.109375q1.921875 0.765625 4.265625 0.765625zm-0.609375 -16.875q0.984375 0 1.75 0.3125q0.765625 0.296875 1.296875 0.828125q0.515625 0.546875 0.8125 1.28125q0.3125 0.734375 0.3125 1.5625l0 0.40625l-8.578125 0q0.1875 -0.984375 0.5625 -1.796875q0.375 -0.8125 0.9375 -1.390625q0.546875 -0.59375 1.28125 -0.890625q0.734375 -0.3125 1.625 -0.3125zm17.116272 -3.859375l-4.5 0l0 20.359375l4.765625 0l0 -15.25q0.09375 -0.234375 0.203125 -0.4375q0.125 -0.21875 0.265625 -0.375q0.203125 -0.203125 0.46875 -0.3125q0.265625 -0.109375 0.609375 -0.109375q0.296875 0 0.5625 0.09375q0.265625 0.078125 0.46875 0.28125q0.1875 0.203125 0.296875 0.578125q0.125 0.375 0.125 0.96875l0 14.5625l4.609375 0l0 -15.015625q0 -0.234375 0 -0.359375q0 -0.140625 0 -0.171875q0.09375 -0.203125 0.21875 -0.359375q0.140625 -0.171875 0.296875 -0.296875q0.21875 -0.140625 0.453125 -0.203125q0.234375 -0.078125 0.53125 -0.078125q0.28125 0 0.546875 0.09375q0.28125 0.078125 0.484375 0.28125q0.21875 0.21875 0.328125 0.609375q0.125 0.375 0.125 0.953125l0 14.546875l4.765625 0l0 -14.53125q0 -1.6875 -0.328125 -2.859375q-0.328125 -1.1875 -0.90625 -1.9375q-0.609375 -0.734375 -1.40625 -1.0625q-0.796875 -0.34375 -1.71875 -0.34375q-0.734375 0 -1.359375 0.1875q-0.625 0.1875 -1.109375 0.515625q-0.40625 0.265625 -0.734375 0.640625q-0.328125 0.359375 -0.59375 0.8125q-0.15625 -0.46875 -0.390625 -0.828125q-0.234375 -0.375 -0.5625 -0.640625q-0.40625 -0.359375 -0.984375 -0.515625q-0.5625 -0.171875 -1.28125 -0.171875q-1.453125 0 -2.484375 0.765625q-1.03125 0.75 -1.609375 2.0625l-0.15625 -2.453125zm33.163147 20.359375l4.75 0l0 -20.359375l-5.25 0l0 14.28125q-0.25 0.484375 -0.59375 0.890625q-0.328125 0.390625 -0.765625 0.671875q-0.5 0.3125 -1.171875 0.484375q-0.671875 0.171875 -1.5 0.171875q-0.921875 0 -1.5625 -0.21875q-0.640625 -0.234375 -1.03125 -0.765625q-0.40625 -0.5 -0.578125 -1.34375q-0.171875 -0.859375 -0.171875 -2.09375l0 -12.078125l-5.234375 0l0 12.046875q0 2.3125 0.515625 3.96875q0.515625 1.640625 1.453125 2.6875q0.9375 1.078125 2.25 1.5625q1.328125 0.484375 2.90625 0.484375q1.734375 0 3.1875 -0.859375q1.46875 -0.875 2.5 -2.390625l0.296875 2.859375zm19.163147 -14.0l-4.40625 -6.359375l-5.625 0l6.8125 9.984375l-7.078125 10.375l5.671875 0l4.640625 -6.65625l4.6875 6.65625l5.65625 0l-7.078125 -10.375l6.828125 -9.984375l-5.625 0l-4.484375 6.359375zm23.694397 14.375q2.953125 0 5.109375 -1.140625q2.171875 -1.15625 3.171875 -2.5625l-2.609375 -2.828125q-0.90625 1.171875 -2.359375 1.75q-1.4375 0.578125 -2.984375 0.578125q-1.09375 0 -2.015625 -0.328125q-0.921875 -0.34375 -1.640625 -0.96875q-0.703125 -0.59375 -1.125 -1.328125q-0.40625 -0.75 -0.65625 -1.984375l0 -0.046875l13.8125 0l0 -2.21875q0 -2.25 -0.625 -4.09375q-0.625 -1.859375 -1.8125 -3.171875q-1.203125 -1.328125 -2.921875 -2.046875q-1.71875 -0.71875 -3.921875 -0.71875q-2.125 0 -3.9375 0.765625q-1.796875 0.765625 -3.125 2.15625q-1.3125 1.40625 -2.046875 3.34375q-0.734375 1.921875 -0.734375 4.25l0 0.75q0 2.046875 0.734375 3.84375q0.75 1.796875 2.125 3.125q1.375 1.328125 3.296875 2.109375q1.921875 0.765625 4.265625 0.765625zm-0.609375 -16.875q0.984375 0 1.75 0.3125q0.765625 0.296875 1.296875 0.828125q0.515625 0.546875 0.8125 1.28125q0.3125 0.734375 0.3125 1.5625l0 0.40625l-8.578125 0q0.1875 -0.984375 0.5625 -1.796875q0.375 -0.8125 0.9375 -1.390625q0.546875 -0.59375 1.28125 -0.890625q0.734375 -0.3125 1.625 -0.3125zm28.491272 -4.234375q-2.046875 0 -3.78125 0.984375q-1.734375 0.984375 -2.984375 2.71875l-0.03125 -0.453125l-0.203125 -2.875l-4.875 0l0 20.359375l5.234375 0l0 -12.234375q0.34375 -0.859375 0.890625 -1.5q0.546875 -0.640625 1.328125 -1.0625q0.640625 -0.359375 1.453125 -0.53125q0.8125 -0.1875 1.84375 -0.1875q0.96875 0 2.046875 0.125q1.09375 0.125 2.125 0.375l0.765625 -5.21875q-0.609375 -0.1875 -1.625 -0.34375q-1.0 -0.15625 -2.1875 -0.15625z" fill-rule="nonzero"/><path fill="#000000" fill-opacity="0.0" d="m606.00684 174.86882l159.08661 0l0 86.77165l-159.08661 0z" fill-rule="evenodd"/><path stroke="#4a86e8" stroke-width="4.018372703412074" stroke-linejoin="round" stroke-linecap="butt" d="m606.00684 174.86882l159.08661 0l0 86.77165l-159.08661 0z" fill-rule="evenodd"/><path fill="#000000" d="m644.8662 219.53665l0 -4.296875l-11.75 0l0 -7.453125l13.21875 0l0 -4.3125l-18.53125 0l0 27.40625l5.3125 0l0 -11.34375l11.75 0zm7.319397 -9.015625l0 4.265625l5.796875 0l0 11.84375l-5.796875 0l0 4.25l16.59375 0l0 -4.25l-5.515625 0l0 -16.109375l-11.078125 0zm5.421875 -5.21875q0 0.609375 0.21875 1.125q0.21875 0.515625 0.609375 0.875q0.390625 0.375 0.9375 0.578125q0.5625 0.203125 1.25 0.203125q1.390625 0 2.203125 -0.78125q0.828125 -0.78125 0.828125 -2.0q0 -1.21875 -0.828125 -2.0q-0.8125 -0.78125 -2.203125 -0.78125q-0.6875 0 -1.25 0.203125q-0.546875 0.203125 -0.9375 0.5625q-0.390625 0.375 -0.609375 0.890625q-0.21875 0.515625 -0.21875 1.125zm17.413147 -3.328125l0 4.265625l6.09375 0l0 20.390625l-6.09375 0l0 4.25l17.21875 0l0 -4.25l-5.84375 0l0 -24.65625l-11.375 0zm31.913147 29.28125q2.953125 0 5.109375 -1.140625q2.171875 -1.15625 3.171875 -2.5625l-2.609375 -2.828125q-0.90625 1.171875 -2.359375 1.75q-1.4375 0.578125 -2.984375 0.578125q-1.09375 0 -2.015625 -0.328125q-0.921875 -0.34375 -1.640625 -0.96875q-0.703125 -0.59375 -1.125 -1.328125q-0.40625 -0.75 -0.65625 -1.984375l0 -0.046875l13.8125 0l0 -2.21875q0 -2.25 -0.625 -4.09375q-0.625 -1.859375 -1.8125 -3.171875q-1.203125 -1.328125 -2.921875 -2.046875q-1.71875 -0.71875 -3.921875 -0.71875q-2.125 0 -3.9375 0.765625q-1.796875 0.765625 -3.125 2.15625q-1.3125 1.40625 -2.046875 3.34375q-0.734375 1.921875 -0.734375 4.25l0 0.75q0 2.046875 0.734375 3.84375q0.75 1.796875 2.125 3.125q1.375 1.328125 3.296875 2.109375q1.921875 0.765625 4.265625 0.765625zm-0.609375 -16.875q0.984375 0 1.75 0.3125q0.765625 0.296875 1.296875 0.828125q0.515625 0.546875 0.8125 1.28125q0.3125 0.734375 0.3125 1.5625l0 0.40625l-8.578125 0q0.1875 -0.984375 0.5625 -1.796875q0.375 -0.8125 0.9375 -1.390625q0.546875 -0.59375 1.28125 -0.890625q0.734375 -0.3125 1.625 -0.3125z" fill-rule="nonzero"/><path fill="#000000" fill-opacity="0.0" d="m64.22495 170.60956l429.1024 0" fill-rule="evenodd"/><path stroke="#000000" stroke-width="2.679790026246719" stroke-linejoin="round" stroke-linecap="butt" d="m64.22495 170.60956l413.02362 0" fill-rule="evenodd"/><path fill="#000000" stroke="#000000" stroke-width="2.679790026246719" stroke-linecap="butt" d="m477.24857 175.03586l12.161133 -4.4263l-12.161133 -4.4263z" fill-rule="evenodd"/><path fill="#000000" fill-opacity="0.0" d="m488.06693 254.90527l-444.8819 0" fill-rule="evenodd"/><path stroke="#000000" stroke-width="2.679790026246719" stroke-linejoin="round" stroke-linecap="butt" d="m488.06693 254.90526l-428.80316 0" fill-rule="evenodd"/><path fill="#000000" stroke="#000000" stroke-width="2.679790026246719" stroke-linecap="butt" d="m59.263775 250.47897l-12.161148 4.426285l12.161148 4.4263153z" fill-rule="evenodd"/><path fill="#ffffff" d="m114.14042 137.21753l283.71655 0l0 56.283478l-283.71655 0z" fill-rule="evenodd"/><path fill="#000000" d="m128.07791 166.5021l0 0.25q0 1.296875 0.328125 2.53125q0.328125 1.234375 1.015625 2.171875q0.65625 0.90625 1.609375 1.46875q0.96875 0.546875 2.28125 0.546875q0.65625 0 1.265625 -0.15625q0.625 -0.15625 1.15625 -0.4375q0.453125 -0.234375 0.828125 -0.546875q0.390625 -0.328125 0.6875 -0.75l0 1.453125q0 0.9375 -0.265625 1.703125q-0.265625 0.78125 -0.75 1.328125q-0.515625 0.5625 -1.25 0.859375q-0.71875 0.3125 -1.65625 0.3125q-0.59375 0 -1.140625 -0.15625q-0.546875 -0.140625 -1.03125 -0.4375q-0.40625 -0.21875 -0.796875 -0.546875q-0.375 -0.328125 -0.734375 -0.765625l-0.8125 0.890625q0.390625 0.546875 0.890625 0.9375q0.515625 0.390625 1.0625 0.671875q0.65625 0.328125 1.328125 0.484375q0.6875 0.171875 1.328125 0.171875q1.234375 0 2.203125 -0.40625q0.984375 -0.40625 1.65625 -1.140625q0.6875 -0.71875 1.0625 -1.734375q0.375 -1.0 0.375 -2.21875l0 -12.96875l-1.359375 0l-0.0625 1.84375q-0.28125 -0.4375 -0.640625 -0.78125q-0.359375 -0.359375 -0.78125 -0.609375q-0.546875 -0.34375 -1.1875 -0.515625q-0.640625 -0.1875 -1.359375 -0.1875q-1.375 0 -2.375 0.59375q-0.984375 0.578125 -1.625 1.53125q-0.640625 0.9375 -0.953125 2.125q-0.296875 1.1875 -0.296875 2.484375zm1.46875 0.25l0 -0.25q0 -0.984375 0.203125 -1.9375q0.21875 -0.953125 0.671875 -1.71875q0.46875 -0.78125 1.25 -1.28125q0.78125 -0.515625 1.9375 -0.515625q0.65625 0 1.21875 0.1875q0.5625 0.1875 1.03125 0.53125q0.46875 0.34375 0.8125 0.8125q0.359375 0.453125 0.578125 1.03125l0 6.203125q-0.21875 0.546875 -0.59375 0.984375q-0.375 0.4375 -0.828125 0.75q-0.5 0.296875 -1.0625 0.46875q-0.5625 0.15625 -1.171875 0.15625q-1.078125 0 -1.859375 -0.453125q-0.765625 -0.453125 -1.21875 -1.1875q-0.5 -0.765625 -0.734375 -1.765625q-0.21875 -1.0 -0.234375 -2.015625zm19.596191 6.71875q1.640625 0 2.890625 -0.640625q1.25 -0.65625 2.0 -1.703125l-0.921875 -0.71875q-0.71875 0.890625 -1.703125 1.359375q-0.984375 0.453125 -2.203125 0.453125q-1.0625 -0.015625 -1.9375 -0.421875q-0.859375 -0.421875 -1.484375 -1.140625q-0.609375 -0.6875 -0.96875 -1.578125q-0.34375 -0.90625 -0.390625 -1.96875l0 -0.390625l9.890625 0l0 -0.890625q0 -1.265625 -0.359375 -2.359375q-0.359375 -1.109375 -1.046875 -1.9375q-0.6875 -0.828125 -1.71875 -1.296875q-1.015625 -0.46875 -2.3125 -0.46875q-1.25 0 -2.328125 0.515625q-1.0625 0.515625 -1.859375 1.40625q-0.796875 0.90625 -1.265625 2.140625q-0.453125 1.21875 -0.453125 2.625l0 0.53125q0 1.328125 0.453125 2.515625q0.453125 1.171875 1.265625 2.0625q0.8125 0.875 1.9375 1.390625q1.140625 0.515625 2.515625 0.515625zm-0.265625 -12.4375q0.9375 0 1.65625 0.359375q0.734375 0.359375 1.25 0.953125q0.5 0.59375 0.78125 1.390625q0.296875 0.796875 0.296875 1.59375l0 0.125l-8.359375 0q0.125 -0.953125 0.484375 -1.765625q0.375 -0.8125 0.9375 -1.40625q0.5625 -0.59375 1.3125 -0.921875q0.75 -0.328125 1.640625 -0.328125zm14.502441 -4.40625l-1.484375 0l0 3.390625l-3.671875 0l0 1.203125l3.671875 0l0 8.28125q0.015625 1.078125 0.328125 1.828125q0.3125 0.75 0.859375 1.234375q0.546875 0.46875 1.296875 0.6875q0.75 0.21875 1.625 0.21875q0.4375 0 0.859375 -0.03125q0.4375 -0.03125 0.84375 -0.09375q0.3125 -0.046875 0.59375 -0.125q0.296875 -0.078125 0.53125 -0.1875l-0.234375 -1.109375q-0.1875 0.03125 -0.4375 0.078125q-0.234375 0.03125 -0.5 0.078125q-0.34375 0.046875 -0.703125 0.078125q-0.34375 0.015625 -0.703125 0.015625q-0.59375 0 -1.125 -0.125q-0.515625 -0.140625 -0.90625 -0.46875q-0.390625 -0.296875 -0.625 -0.796875q-0.21875 -0.515625 -0.21875 -1.28125l0 -8.28125l4.890625 0l0 -1.203125l-4.890625 0l0 -3.390625zm21.689941 0.109375l0 -1.296875l-12.78125 0l0 1.296875l5.6875 0l-0.015625 16.484375l1.421875 0l0 -16.484375l5.6875 0zm12.174316 3.03125q-1.796875 -0.015625 -3.125 0.75q-1.3125 0.75 -2.078125 2.109375l-0.015625 -0.59375l-0.09375 -2.015625l-1.390625 0l0 13.203125l1.515625 0l-0.015625 -8.453125q0.234375 -0.90625 0.6875 -1.5625q0.46875 -0.671875 1.09375 -1.125q0.640625 -0.4375 1.453125 -0.65625q0.8125 -0.21875 1.734375 -0.21875q0.546875 0 1.046875 0.0625q0.515625 0.0625 1.015625 0.171875l0.203125 -1.421875q-0.375 -0.109375 -0.9375 -0.171875q-0.546875 -0.078125 -1.09375 -0.078125zm15.346191 13.453125l1.5625 0l0 -0.15625q-0.171875 -0.59375 -0.296875 -1.265625q-0.109375 -0.6875 -0.125 -1.34375l0 -6.390625q0 -1.078125 -0.390625 -1.875q-0.390625 -0.8125 -1.078125 -1.359375q-0.6875 -0.53125 -1.609375 -0.796875q-0.90625 -0.265625 -1.953125 -0.265625q-1.046875 0 -1.96875 0.296875q-0.921875 0.296875 -1.625 0.796875q-0.6875 0.53125 -1.109375 1.25q-0.421875 0.703125 -0.453125 1.53125l1.46875 0.015625q0.015625 -0.625 0.328125 -1.109375q0.3125 -0.5 0.8125 -0.84375q0.484375 -0.34375 1.125 -0.515625q0.65625 -0.1875 1.359375 -0.1875q0.765625 0 1.421875 0.203125q0.671875 0.203125 1.171875 0.578125q0.484375 0.375 0.765625 0.953125q0.28125 0.5625 0.296875 1.296875l0 1.5l-2.875 0q-1.234375 0 -2.359375 0.234375q-1.125 0.21875 -1.96875 0.71875q-0.84375 0.5 -1.359375 1.296875q-0.5 0.796875 -0.5 1.9375q0 0.84375 0.34375 1.546875q0.34375 0.6875 0.921875 1.15625q0.59375 0.484375 1.390625 0.765625q0.8125 0.28125 1.71875 0.28125q0.734375 0 1.40625 -0.15625q0.6875 -0.15625 1.296875 -0.453125q0.59375 -0.28125 1.09375 -0.6875q0.515625 -0.40625 0.890625 -0.90625q0.03125 0.515625 0.09375 1.015625q0.0625 0.5 0.203125 0.9375zm-4.8125 -1.0625q-0.640625 0 -1.203125 -0.171875q-0.5625 -0.1875 -0.984375 -0.53125q-0.421875 -0.328125 -0.65625 -0.796875q-0.234375 -0.484375 -0.234375 -1.078125q-0.015625 -0.734375 0.3125 -1.25q0.328125 -0.515625 0.890625 -0.875q0.6875 -0.4375 1.65625 -0.609375q0.984375 -0.171875 2.0625 -0.1875l2.671875 0l0 2.90625q-0.28125 0.578125 -0.734375 1.0625q-0.453125 0.484375 -1.046875 0.828125q-0.578125 0.34375 -1.28125 0.53125q-0.6875 0.171875 -1.453125 0.171875zm16.111816 0.0625q-1.171875 0 -1.984375 -0.453125q-0.8125 -0.46875 -1.3125 -1.234375q-0.53125 -0.75 -0.765625 -1.703125q-0.234375 -0.953125 -0.234375 -1.953125l0 -0.515625q0 -0.984375 0.234375 -1.9375q0.234375 -0.953125 0.765625 -1.71875q0.5 -0.75 1.3125 -1.203125q0.8125 -0.46875 1.96875 -0.46875q0.78125 0 1.453125 0.25q0.671875 0.25 1.1875 0.703125q0.5 0.46875 0.796875 1.09375q0.3125 0.625 0.359375 1.375l1.390625 0q-0.046875 -1.015625 -0.453125 -1.875q-0.390625 -0.875 -1.078125 -1.5q-0.6875 -0.609375 -1.625 -0.953125q-0.9375 -0.359375 -2.03125 -0.359375q-1.453125 0 -2.53125 0.546875q-1.078125 0.546875 -1.78125 1.453125q-0.71875 0.9375 -1.078125 2.125q-0.34375 1.1875 -0.359375 2.46875l0 0.515625q0.015625 1.28125 0.359375 2.46875q0.359375 1.1875 1.078125 2.09375q0.71875 0.921875 1.796875 1.484375q1.078125 0.546875 2.53125 0.546875q1.0 0 1.921875 -0.328125q0.921875 -0.34375 1.625 -0.90625q0.6875 -0.578125 1.125 -1.375q0.453125 -0.796875 0.5 -1.734375l-1.390625 0q-0.0625 0.71875 -0.390625 1.296875q-0.3125 0.5625 -0.828125 0.953125q-0.515625 0.421875 -1.1875 0.640625q-0.65625 0.203125 -1.375 0.203125zm13.268066 -5.671875l5.65625 6.671875l1.875 0l-6.515625 -7.65625l5.90625 -5.546875l-1.859375 0l-5.375 4.9375l-1.578125 1.546875l0 -12.03125l-1.453125 0l0 18.75l1.453125 0l0 -5.015625l1.890625 -1.65625zm21.080566 2.296875q0 0.875 -0.359375 1.5q-0.359375 0.625 -0.96875 1.03125q-0.578125 0.40625 -1.34375 0.609375q-0.75 0.1875 -1.53125 0.1875q-0.9375 0 -1.75 -0.25q-0.8125 -0.25 -1.4375 -0.75q-0.625 -0.5 -1.03125 -1.21875q-0.390625 -0.71875 -0.5 -1.6875l-1.484375 0q0.046875 1.140625 0.5 2.0625q0.453125 0.90625 1.234375 1.5625q0.859375 0.78125 2.03125 1.1875q1.1875 0.390625 2.4375 0.390625q1.046875 0 2.0625 -0.296875q1.03125 -0.296875 1.859375 -0.875q0.796875 -0.5625 1.296875 -1.4375q0.5 -0.875 0.5 -2.046875q0 -1.171875 -0.5 -2.046875q-0.484375 -0.875 -1.265625 -1.46875q-0.8125 -0.640625 -1.796875 -1.046875q-0.96875 -0.421875 -1.953125 -0.71875q-0.703125 -0.21875 -1.484375 -0.5q-0.765625 -0.28125 -1.421875 -0.71875q-0.640625 -0.4375 -1.046875 -1.046875q-0.40625 -0.609375 -0.421875 -1.5q0 -0.828125 0.359375 -1.4375q0.359375 -0.609375 0.9375 -1.03125q0.59375 -0.40625 1.3125 -0.59375q0.734375 -0.203125 1.46875 -0.203125q0.890625 0 1.625 0.28125q0.75 0.28125 1.28125 0.78125q0.5625 0.515625 0.890625 1.234375q0.328125 0.71875 0.421875 1.578125l1.484375 0q-0.03125 -1.171875 -0.5 -2.125q-0.46875 -0.96875 -1.234375 -1.640625q-0.78125 -0.65625 -1.8125 -1.03125q-1.015625 -0.375 -2.15625 -0.375q-1.0 0 -2.015625 0.296875q-1.0 0.296875 -1.78125 0.875q-0.796875 0.578125 -1.296875 1.453125q-0.484375 0.859375 -0.484375 1.96875q0 1.203125 0.53125 2.03125q0.53125 0.828125 1.359375 1.421875q0.75 0.5625 1.6875 0.953125q0.9375 0.390625 1.84375 0.671875q0.734375 0.21875 1.53125 0.53125q0.796875 0.3125 1.453125 0.75q0.640625 0.453125 1.0625 1.109375q0.421875 0.640625 0.40625 1.578125zm10.924316 4.625q1.640625 0 2.890625 -0.640625q1.25 -0.65625 2.0 -1.703125l-0.921875 -0.71875q-0.71875 0.890625 -1.703125 1.359375q-0.984375 0.453125 -2.203125 0.453125q-1.0625 -0.015625 -1.9375 -0.421875q-0.859375 -0.421875 -1.484375 -1.140625q-0.609375 -0.6875 -0.96875 -1.578125q-0.34375 -0.90625 -0.390625 -1.96875l0 -0.390625l9.890625 0l0 -0.890625q0 -1.265625 -0.359375 -2.359375q-0.359375 -1.109375 -1.046875 -1.9375q-0.6875 -0.828125 -1.71875 -1.296875q-1.015625 -0.46875 -2.3125 -0.46875q-1.25 0 -2.328125 0.515625q-1.0625 0.515625 -1.859375 1.40625q-0.796875 0.90625 -1.265625 2.140625q-0.453125 1.21875 -0.453125 2.625l0 0.53125q0 1.328125 0.453125 2.515625q0.453125 1.171875 1.265625 2.0625q0.8125 0.875 1.9375 1.390625q1.140625 0.515625 2.515625 0.515625zm-0.265625 -12.4375q0.9375 0 1.65625 0.359375q0.734375 0.359375 1.25 0.953125q0.5 0.59375 0.78125 1.390625q0.296875 0.796875 0.296875 1.59375l0 0.125l-8.359375 0q0.125 -0.953125 0.484375 -1.765625q0.375 -0.8125 0.9375 -1.40625q0.5625 -0.59375 1.3125 -0.921875q0.75 -0.328125 1.640625 -0.328125zm9.205566 5.46875l0 0.25q0 1.296875 0.328125 2.53125q0.328125 1.234375 1.015625 2.171875q0.65625 0.90625 1.609375 1.46875q0.96875 0.546875 2.28125 0.546875q0.65625 0 1.265625 -0.15625q0.625 -0.15625 1.15625 -0.4375q0.453125 -0.234375 0.828125 -0.546875q0.390625 -0.328125 0.6875 -0.75l0 1.453125q0 0.9375 -0.265625 1.703125q-0.265625 0.78125 -0.75 1.328125q-0.515625 0.5625 -1.25 0.859375q-0.71875 0.3125 -1.65625 0.3125q-0.59375 0 -1.140625 -0.15625q-0.546875 -0.140625 -1.03125 -0.4375q-0.40625 -0.21875 -0.796875 -0.546875q-0.375 -0.328125 -0.734375 -0.765625l-0.8125 0.890625q0.390625 0.546875 0.890625 0.9375q0.515625 0.390625 1.0625 0.671875q0.65625 0.328125 1.328125 0.484375q0.6875 0.171875 1.328125 0.171875q1.234375 0 2.203125 -0.40625q0.984375 -0.40625 1.65625 -1.140625q0.6875 -0.71875 1.0625 -1.734375q0.375 -1.0 0.375 -2.21875l0 -12.96875l-1.359375 0l-0.0625 1.84375q-0.28125 -0.4375 -0.640625 -0.78125q-0.359375 -0.359375 -0.78125 -0.609375q-0.546875 -0.34375 -1.1875 -0.515625q-0.640625 -0.1875 -1.359375 -0.1875q-1.375 0 -2.375 0.59375q-0.984375 0.578125 -1.625 1.53125q-0.640625 0.9375 -0.953125 2.125q-0.296875 1.1875 -0.296875 2.484375zm1.46875 0.25l0 -0.25q0 -0.984375 0.203125 -1.9375q0.21875 -0.953125 0.671875 -1.71875q0.46875 -0.78125 1.25 -1.28125q0.78125 -0.515625 1.9375 -0.515625q0.65625 0 1.21875 0.1875q0.5625 0.1875 1.03125 0.53125q0.46875 0.34375 0.8125 0.8125q0.359375 0.453125 0.578125 1.03125l0 6.203125q-0.21875 0.546875 -0.59375 0.984375q-0.375 0.4375 -0.828125 0.75q-0.5 0.296875 -1.0625 0.46875q-0.5625 0.15625 -1.171875 0.15625q-1.078125 0 -1.859375 -0.453125q-0.765625 -0.453125 -1.21875 -1.1875q-0.5 -0.765625 -0.734375 -1.765625q-0.21875 -1.0 -0.234375 -2.015625zm14.002441 -6.734375l-1.3125 0l0 13.203125l1.375 0l0.015625 -10.078125q0.09375 -0.359375 0.234375 -0.71875q0.15625 -0.375 0.40625 -0.671875q0.265625 -0.3125 0.6875 -0.5q0.421875 -0.1875 1.0625 -0.203125q0.5625 -0.015625 0.9375 0.171875q0.375 0.1875 0.59375 0.484375q0.21875 0.328125 0.296875 0.734375q0.09375 0.40625 0.09375 0.8125l0.015625 9.96875l1.375 0l0.015625 -9.953125q0 -0.0625 -0.015625 -0.109375q0 -0.046875 0 -0.109375q0.09375 -0.359375 0.25 -0.71875q0.15625 -0.359375 0.421875 -0.640625q0.28125 -0.265625 0.6875 -0.4375q0.421875 -0.1875 1.03125 -0.203125q0.609375 -0.015625 0.984375 0.1875q0.375 0.203125 0.59375 0.53125q0.21875 0.34375 0.296875 0.78125q0.078125 0.421875 0.078125 0.84375l0.015625 9.828125l1.375 0l0.015625 -9.8125q0 -0.765625 -0.15625 -1.421875q-0.15625 -0.671875 -0.53125 -1.171875q-0.328125 -0.46875 -0.921875 -0.75q-0.578125 -0.296875 -1.40625 -0.296875q-0.5625 0 -1.046875 0.15625q-0.46875 0.140625 -0.84375 0.375q-0.359375 0.234375 -0.625 0.546875q-0.265625 0.296875 -0.453125 0.640625q-0.109375 -0.34375 -0.3125 -0.65625q-0.1875 -0.3125 -0.484375 -0.53125q-0.328125 -0.25 -0.78125 -0.390625q-0.453125 -0.140625 -1.046875 -0.140625q-1.078125 0.015625 -1.78125 0.484375q-0.703125 0.46875 -1.09375 1.25l-0.046875 -1.484375zm20.596191 13.453125q1.640625 0 2.890625 -0.640625q1.25 -0.65625 2.0 -1.703125l-0.921875 -0.71875q-0.71875 0.890625 -1.703125 1.359375q-0.984375 0.453125 -2.203125 0.453125q-1.0625 -0.015625 -1.9375 -0.421875q-0.859375 -0.421875 -1.484375 -1.140625q-0.609375 -0.6875 -0.96875 -1.578125q-0.34375 -0.90625 -0.390625 -1.96875l0 -0.390625l9.890625 0l0 -0.890625q0 -1.265625 -0.359375 -2.359375q-0.359375 -1.109375 -1.046875 -1.9375q-0.6875 -0.828125 -1.71875 -1.296875q-1.015625 -0.46875 -2.3125 -0.46875q-1.25 0 -2.328125 0.515625q-1.0625 0.515625 -1.859375 1.40625q-0.796875 0.90625 -1.265625 2.140625q-0.453125 1.21875 -0.453125 2.625l0 0.53125q0 1.328125 0.453125 2.515625q0.453125 1.171875 1.265625 2.0625q0.8125 0.875 1.9375 1.390625q1.140625 0.515625 2.515625 0.515625zm-0.265625 -12.4375q0.9375 0 1.65625 0.359375q0.734375 0.359375 1.25 0.953125q0.5 0.59375 0.78125 1.390625q0.296875 0.796875 0.296875 1.59375l0 0.125l-8.359375 0q0.125 -0.953125 0.484375 -1.765625q0.375 -0.8125 0.9375 -1.40625q0.5625 -0.59375 1.3125 -0.921875q0.75 -0.328125 1.640625 -0.328125zm9.627441 12.1875l1.46875 0l0 -9.015625q0.203125 -0.65625 0.578125 -1.21875q0.390625 -0.5625 0.890625 -0.96875q0.546875 -0.4375 1.21875 -0.703125q0.671875 -0.265625 1.4375 -0.265625q0.859375 -0.015625 1.484375 0.234375q0.640625 0.25 1.0625 0.71875q0.40625 0.46875 0.609375 1.171875q0.203125 0.703125 0.21875 1.59375l0 8.453125l1.46875 0l-0.015625 -8.46875q0 -1.1875 -0.296875 -2.125q-0.296875 -0.9375 -0.84375 -1.5625q-0.578125 -0.640625 -1.421875 -0.96875q-0.828125 -0.328125 -1.921875 -0.328125q-0.8125 0 -1.53125 0.25q-0.71875 0.234375 -1.328125 0.65625q-0.515625 0.359375 -0.9375 0.84375q-0.40625 0.484375 -0.71875 1.0625l-0.0625 -2.5625l-1.359375 0l0 13.203125zm19.877441 -16.59375l-1.484375 0l0 3.390625l-3.671875 0l0 1.203125l3.671875 0l0 8.28125q0.015625 1.078125 0.328125 1.828125q0.3125 0.75 0.859375 1.234375q0.546875 0.46875 1.296875 0.6875q0.75 0.21875 1.625 0.21875q0.4375 0 0.859375 -0.03125q0.4375 -0.03125 0.84375 -0.09375q0.3125 -0.046875 0.59375 -0.125q0.296875 -0.078125 0.53125 -0.1875l-0.234375 -1.109375q-0.1875 0.03125 -0.4375 0.078125q-0.234375 0.03125 -0.5 0.078125q-0.34375 0.046875 -0.703125 0.078125q-0.34375 0.015625 -0.703125 0.015625q-0.59375 0 -1.125 -0.125q-0.515625 -0.140625 -0.90625 -0.46875q-0.390625 -0.296875 -0.625 -0.796875q-0.21875 -0.515625 -0.21875 -1.28125l0 -8.28125l4.890625 0l0 -1.203125l-4.890625 0l0 -3.390625zm12.424316 9.40625l0 0.1875q0 1.40625 0.1875 2.765625q0.203125 1.359375 0.546875 2.59375q0.34375 1.265625 0.828125 2.390625q0.5 1.125 1.125 2.0625q0.609375 0.953125 1.328125 1.6875q0.71875 0.734375 1.5 1.234375l0.34375 -0.953125q-0.671875 -0.515625 -1.265625 -1.234375q-0.59375 -0.703125 -1.078125 -1.5625q-0.484375 -0.890625 -0.875 -1.953125q-0.375 -1.046875 -0.640625 -2.1875q-0.265625 -1.125 -0.40625 -2.34375q-0.125 -1.21875 -0.140625 -2.484375l0 -0.25q0 -1.28125 0.140625 -2.515625q0.15625 -1.25 0.421875 -2.390625q0.28125 -1.21875 0.71875 -2.3125q0.4375 -1.09375 0.96875 -1.984375q0.453125 -0.78125 0.984375 -1.40625q0.546875 -0.640625 1.171875 -1.09375l-0.34375 -1.0q-0.78125 0.484375 -1.5 1.234375q-0.703125 0.75 -1.3125 1.6875q-0.609375 0.953125 -1.109375 2.078125q-0.484375 1.125 -0.84375 2.375q-0.359375 1.265625 -0.5625 2.625q-0.1875 1.34375 -0.1875 2.75zm20.408691 0.1875l0 -0.1875q-0.015625 -1.46875 -0.21875 -2.796875q-0.1875 -1.34375 -0.53125 -2.578125q-0.359375 -1.265625 -0.84375 -2.375q-0.484375 -1.109375 -1.109375 -2.078125q-0.609375 -0.9375 -1.328125 -1.6875q-0.703125 -0.75 -1.484375 -1.234375l-0.359375 0.953125q0.640625 0.46875 1.1875 1.140625q0.5625 0.65625 1.015625 1.46875q0.515625 0.90625 0.9375 2.0q0.4375 1.09375 0.734375 2.34375q0.21875 1.03125 0.359375 2.265625q0.15625 1.21875 0.171875 2.53125l0 0.25q-0.015625 1.21875 -0.140625 2.421875q-0.109375 1.1875 -0.375 2.296875q-0.234375 1.171875 -0.625 2.234375q-0.390625 1.0625 -0.875 1.953125q-0.484375 0.90625 -1.09375 1.625q-0.59375 0.734375 -1.296875 1.234375l0.359375 0.953125q0.78125 -0.5 1.484375 -1.234375q0.71875 -0.734375 1.34375 -1.6875q0.609375 -0.9375 1.09375 -2.0625q0.5 -1.125 0.859375 -2.390625q0.34375 -1.234375 0.53125 -2.59375q0.203125 -1.359375 0.203125 -2.765625z" fill-rule="nonzero"/><path fill="#fce5cd" d="m140.40598 226.76569l267.9685 0l0 56.283478l-267.9685 0z" fill-rule="evenodd"/><path fill="#000000" d="m164.31223 254.55026l0 -1.90625l-7.421875 0l0 -5.71875l8.546875 0l0 -1.9375l-10.8125 0l0 17.78125l10.921875 0l0 -1.921875l-8.65625 0l0 -6.296875l7.421875 0zm5.2211914 8.21875l2.25 0l0 -9.46875q0.234375 -0.4375 0.546875 -0.78125q0.3125 -0.359375 0.6875 -0.625q0.453125 -0.3125 0.984375 -0.484375q0.53125 -0.171875 1.15625 -0.171875q0.71875 0 1.265625 0.171875q0.5625 0.171875 0.953125 0.546875q0.390625 0.375 0.578125 0.984375q0.203125 0.609375 0.203125 1.484375l0 8.34375l2.25 0l0 -8.390625q0 -1.3125 -0.328125 -2.265625q-0.3125 -0.96875 -0.921875 -1.59375q-0.59375 -0.609375 -1.453125 -0.90625q-0.84375 -0.296875 -1.875 -0.296875q-0.765625 0.015625 -1.453125 0.234375q-0.6875 0.203125 -1.28125 0.59375q-0.390625 0.265625 -0.734375 0.609375q-0.34375 0.34375 -0.640625 0.765625l-0.15625 -1.953125l-2.03125 0l0 13.203125zm20.627441 -1.59375q-1.0625 0 -1.78125 -0.40625q-0.703125 -0.421875 -1.140625 -1.109375q-0.4375 -0.671875 -0.625 -1.515625q-0.1875 -0.859375 -0.1875 -1.71875l0 -0.515625q0 -0.859375 0.1875 -1.703125q0.1875 -0.84375 0.625 -1.515625q0.453125 -0.671875 1.15625 -1.09375q0.71875 -0.421875 1.765625 -0.421875q0.6875 0 1.28125 0.234375q0.59375 0.21875 1.015625 0.625q0.421875 0.40625 0.671875 0.9375q0.25 0.53125 0.265625 1.125l2.140625 0q0 -1.0 -0.40625 -1.875q-0.40625 -0.875 -1.109375 -1.53125q-0.71875 -0.625 -1.703125 -1.0q-0.984375 -0.375 -2.15625 -0.375q-1.5 0 -2.625 0.546875q-1.125 0.53125 -1.859375 1.4375q-0.765625 0.90625 -1.140625 2.109375q-0.375 1.1875 -0.375 2.5l0 0.515625q0 1.3125 0.375 2.5q0.375 1.1875 1.140625 2.09375q0.734375 0.921875 1.859375 1.46875q1.125 0.53125 2.625 0.53125q1.046875 0 2.015625 -0.359375q0.96875 -0.359375 1.703125 -0.984375q0.75 -0.59375 1.1875 -1.390625q0.453125 -0.796875 0.46875 -1.671875l-2.140625 0q-0.015625 0.546875 -0.296875 1.015625q-0.265625 0.46875 -0.71875 0.8125q-0.453125 0.34375 -1.03125 0.546875q-0.578125 0.1875 -1.1875 0.1875zm8.736816 -5.125l0 0.265625q0 1.421875 0.40625 2.640625q0.421875 1.21875 1.203125 2.125q0.78125 0.90625 1.890625 1.421875q1.125 0.515625 2.515625 0.515625q1.40625 0 2.515625 -0.515625q1.109375 -0.515625 1.890625 -1.421875q0.765625 -0.90625 1.171875 -2.125q0.421875 -1.21875 0.421875 -2.640625l0 -0.265625q0 -1.4375 -0.421875 -2.65625q-0.40625 -1.234375 -1.171875 -2.140625q-0.78125 -0.90625 -1.90625 -1.421875q-1.109375 -0.515625 -2.515625 -0.515625q-1.390625 0 -2.5 0.515625q-1.109375 0.515625 -1.890625 1.421875q-0.78125 0.90625 -1.203125 2.140625q-0.40625 1.21875 -0.40625 2.65625zm2.265625 0.265625l0 -0.265625q0 -0.96875 0.234375 -1.84375q0.234375 -0.890625 0.703125 -1.5625q0.46875 -0.671875 1.15625 -1.0625q0.703125 -0.40625 1.640625 -0.40625q0.9375 0 1.640625 0.40625q0.703125 0.390625 1.171875 1.0625q0.46875 0.671875 0.703125 1.5625q0.25 0.875 0.25 1.84375l0 0.265625q0 0.96875 -0.234375 1.859375q-0.234375 0.875 -0.703125 1.546875q-0.46875 0.671875 -1.171875 1.0625q-0.703125 0.390625 -1.640625 0.390625q-0.9375 0 -1.640625 -0.390625q-0.703125 -0.390625 -1.171875 -1.0625q-0.46875 -0.671875 -0.703125 -1.546875q-0.234375 -0.890625 -0.234375 -1.859375zm12.955566 -0.265625l0 0.265625q0 1.40625 0.375 2.640625q0.375 1.21875 1.0625 2.125q0.6875 0.90625 1.65625 1.421875q0.96875 0.515625 2.15625 0.515625q1.21875 0 2.140625 -0.421875q0.921875 -0.421875 1.578125 -1.21875l0.09375 1.390625l2.078125 0l0 -18.75l-2.265625 0l0 6.84375q-0.640625 -0.75 -1.53125 -1.140625q-0.875 -0.40625 -2.0625 -0.40625q-1.203125 0 -2.1875 0.5q-0.96875 0.5 -1.65625 1.390625q-0.703125 0.890625 -1.078125 2.140625q-0.359375 1.234375 -0.359375 2.703125zm2.25 0.265625l0 -0.265625q0 -0.953125 0.203125 -1.828125q0.21875 -0.875 0.65625 -1.546875q0.421875 -0.65625 1.09375 -1.046875q0.6875 -0.390625 1.640625 -0.390625q1.109375 0 1.84375 0.515625q0.75 0.515625 1.1875 1.328125l0 6.125q-0.4375 0.859375 -1.1875 1.375q-0.734375 0.515625 -1.875 0.515625q-0.9375 0 -1.609375 -0.375q-0.671875 -0.390625 -1.09375 -1.046875q-0.4375 -0.671875 -0.65625 -1.53125q-0.203125 -0.875 -0.203125 -1.828125zm19.002441 6.703125q1.9375 0 3.25 -0.78125q1.3125 -0.78125 1.96875 -1.78125l-1.375 -1.0625q-0.625 0.796875 -1.5625 1.296875q-0.9375 0.484375 -2.15625 0.484375q-0.90625 0 -1.671875 -0.34375q-0.75 -0.34375 -1.296875 -0.9375q-0.515625 -0.5625 -0.828125 -1.296875q-0.296875 -0.734375 -0.375 -1.703125l0 -0.078125l9.4375 0l0 -1.015625q0 -1.375 -0.359375 -2.5625q-0.34375 -1.1875 -1.046875 -2.0625q-0.703125 -0.875 -1.78125 -1.359375q-1.0625 -0.5 -2.484375 -0.5q-1.140625 0 -2.21875 0.46875q-1.078125 0.453125 -1.921875 1.328125q-0.859375 0.875 -1.375 2.140625q-0.515625 1.265625 -0.515625 2.859375l0 0.515625q0 1.375 0.46875 2.546875q0.46875 1.171875 1.296875 2.03125q0.828125 0.859375 1.984375 1.34375q1.171875 0.46875 2.5625 0.46875zm-0.28125 -11.84375q0.859375 0 1.484375 0.3125q0.640625 0.3125 1.046875 0.828125q0.421875 0.515625 0.640625 1.21875q0.234375 0.703125 0.234375 1.3125l0 0.109375l-7.09375 0q0.125 -0.921875 0.453125 -1.609375q0.34375 -0.703125 0.84375 -1.203125q0.484375 -0.46875 1.09375 -0.71875q0.609375 -0.25 1.296875 -0.25zm9.033691 4.875l0 0.265625q0 1.40625 0.375 2.640625q0.375 1.21875 1.0625 2.125q0.6875 0.90625 1.65625 1.421875q0.96875 0.515625 2.15625 0.515625q1.21875 0 2.140625 -0.421875q0.921875 -0.421875 1.578125 -1.21875l0.09375 1.390625l2.078125 0l0 -18.75l-2.265625 0l0 6.84375q-0.640625 -0.75 -1.53125 -1.140625q-0.875 -0.40625 -2.0625 -0.40625q-1.203125 0 -2.1875 0.5q-0.96875 0.5 -1.65625 1.390625q-0.703125 0.890625 -1.078125 2.140625q-0.359375 1.234375 -0.359375 2.703125zm2.25 0.265625l0 -0.265625q0 -0.953125 0.203125 -1.828125q0.21875 -0.875 0.65625 -1.546875q0.421875 -0.65625 1.09375 -1.046875q0.6875 -0.390625 1.640625 -0.390625q1.109375 0 1.84375 0.515625q0.75 0.515625 1.1875 1.328125l0 6.125q-0.4375 0.859375 -1.1875 1.375q-0.734375 0.515625 -1.875 0.515625q-0.9375 0 -1.609375 -0.375q-0.671875 -0.390625 -1.09375 -1.046875q-0.4375 -0.671875 -0.65625 -1.53125q-0.203125 -0.875 -0.203125 -1.828125zm23.471191 4.0625l0 -2.390625l-7.46875 -2.890625l-0.640625 -0.21875l0.640625 -0.203125l7.46875 -2.921875l0 -2.40625l-10.34375 4.625l0 1.78125l10.34375 4.625zm4.7524414 -0.015625l10.78125 -4.625l0 -1.78125l-10.78125 -4.609375l0 2.328125l7.90625 2.921875l0.71875 0.234375l-0.71875 0.203125l-7.90625 2.984375l0 2.34375zm26.471191 -2.9375l-2.265625 0q-0.109375 0.796875 -0.375 1.5q-0.265625 0.6875 -0.71875 1.1875q-0.453125 0.5 -1.109375 0.78125q-0.65625 0.28125 -1.546875 0.28125q-0.8125 0 -1.421875 -0.25q-0.609375 -0.265625 -1.0625 -0.734375q-0.453125 -0.453125 -0.75 -1.046875q-0.28125 -0.59375 -0.46875 -1.28125q-0.1875 -0.671875 -0.265625 -1.375q-0.078125 -0.703125 -0.078125 -1.359375l0 -2.5q0 -0.65625 0.078125 -1.359375q0.078125 -0.703125 0.265625 -1.375q0.1875 -0.671875 0.484375 -1.265625q0.296875 -0.609375 0.75 -1.0625q0.4375 -0.453125 1.046875 -0.703125q0.625 -0.265625 1.421875 -0.265625q0.890625 0 1.546875 0.296875q0.65625 0.296875 1.109375 0.828125q0.453125 0.515625 0.71875 1.21875q0.265625 0.6875 0.375 1.5l2.265625 0q-0.15625 -1.265625 -0.609375 -2.3125q-0.453125 -1.0625 -1.21875 -1.8125q-0.75 -0.75 -1.8125 -1.15625q-1.046875 -0.40625 -2.375 -0.40625q-1.109375 0 -2.0 0.3125q-0.890625 0.3125 -1.578125 0.859375q-0.71875 0.546875 -1.234375 1.296875q-0.5 0.75 -0.828125 1.625q-0.34375 0.890625 -0.515625 1.859375q-0.15625 0.953125 -0.15625 1.9375l0 2.484375q0 0.984375 0.15625 1.953125q0.171875 0.96875 0.515625 1.84375q0.328125 0.875 0.828125 1.625q0.515625 0.734375 1.234375 1.296875q0.6875 0.546875 1.578125 0.859375q0.90625 0.3125 2.0 0.3125q1.28125 0 2.328125 -0.40625q1.046875 -0.421875 1.8125 -1.15625q0.765625 -0.734375 1.234375 -1.765625q0.484375 -1.03125 0.640625 -2.265625zm5.7368164 -5.90625l0 -7.5l-2.25 0l0 18.75l2.25 0l0 -9.59375q0.25 -0.390625 0.5625 -0.703125q0.3125 -0.328125 0.671875 -0.578125q0.46875 -0.3125 1.015625 -0.484375q0.546875 -0.171875 1.15625 -0.171875q0.75 -0.015625 1.328125 0.203125q0.578125 0.203125 0.953125 0.640625q0.34375 0.390625 0.53125 0.984375q0.1875 0.578125 0.1875 1.359375l0 8.34375l2.25 0l0 -8.3125q0 -1.328125 -0.328125 -2.296875q-0.3125 -0.96875 -0.90625 -1.609375q-0.609375 -0.640625 -1.453125 -0.9375q-0.84375 -0.296875 -1.890625 -0.296875q-0.78125 0.015625 -1.484375 0.234375q-0.703125 0.21875 -1.296875 0.640625q-0.359375 0.265625 -0.6875 0.609375q-0.328125 0.328125 -0.609375 0.71875zm21.455566 11.25l2.046875 0l0 -13.203125l-2.265625 0l0 9.46875q-0.1875 0.421875 -0.46875 0.78125q-0.265625 0.359375 -0.625 0.625q-0.453125 0.3125 -1.046875 0.5q-0.59375 0.171875 -1.359375 0.171875q-0.640625 0 -1.140625 -0.171875q-0.484375 -0.171875 -0.828125 -0.59375q-0.34375 -0.421875 -0.515625 -1.125q-0.171875 -0.71875 -0.171875 -1.78125l0 -7.875l-2.25 0l0 7.84375q0 1.484375 0.3125 2.546875q0.328125 1.046875 0.921875 1.71875q0.609375 0.6875 1.4375 1.015625q0.84375 0.328125 1.890625 0.328125q1.296875 0 2.28125 -0.546875q0.984375 -0.546875 1.640625 -1.515625l0.140625 1.8125zm6.2993164 0l2.25 0l0 -9.46875q0.234375 -0.4375 0.546875 -0.78125q0.3125 -0.359375 0.6875 -0.625q0.453125 -0.3125 0.984375 -0.484375q0.53125 -0.171875 1.15625 -0.171875q0.71875 0 1.265625 0.171875q0.5625 0.171875 0.953125 0.546875q0.390625 0.375 0.578125 0.984375q0.203125 0.609375 0.203125 1.484375l0 8.34375l2.25 0l0 -8.390625q0 -1.3125 -0.328125 -2.265625q-0.3125 -0.96875 -0.921875 -1.59375q-0.59375 -0.609375 -1.453125 -0.90625q-0.84375 -0.296875 -1.875 -0.296875q-0.765625 0.015625 -1.453125 0.234375q-0.6875 0.203125 -1.28125 0.59375q-0.390625 0.265625 -0.734375 0.609375q-0.34375 0.34375 -0.640625 0.765625l-0.15625 -1.953125l-2.03125 0l0 13.203125zm18.955566 -6.171875l4.84375 6.171875l2.875 0l-6.171875 -7.703125l5.34375 -5.5l-2.734375 0l-4.34375 4.34375l-1.46875 1.578125l0 -11.46875l-2.265625 0l0 18.75l2.265625 0l0 -4.5625l1.65625 -1.609375zm18.955566 -12.28125l0 -1.859375l-4.828125 0l0 24.125l4.828125 0l0 -1.859375l-2.6875 0l0 -20.40625l2.6875 0zm9.908691 -1.859375l0 1.859375l2.71875 0l0 20.40625l-2.71875 0l0 1.859375l4.859375 0l0 -24.125l-4.859375 0z" fill-rule="nonzero"/></g></svg>