<svg version="1.1" viewBox="0.0 0.0 960.0 192.0" fill="none" stroke="none" stroke-linecap="square" stroke-miterlimit="10" xmlns:xlink="http://www.w3.org/1999/xlink" xmlns="http://www.w3.org/2000/svg"><clipPath id="p.0"><path d="m0 0l960.0 0l0 192.0l-960.0 0l0 -192.0z" clip-rule="nonzero"/></clipPath><g clip-path="url(#p.0)"><path fill="#ffffff" d="m0 0l960.0 0l0 192.0l-960.0 0z" fill-rule="evenodd"/><path fill="#cfe2f3" d="m75.20735 71.608925l151.93701 0l0 60.15748l-151.93701 0z" fill-rule="evenodd"/><path fill="#000000" d="m97.52209 105.170166l1.046875 3.4375l1.671875 0l-4.203125 -13.265625l-1.421875 0l-4.28125 13.265625l1.6875 0l1.0625 -3.4375l4.4375 0zm-3.984375 -1.46875l1.78125 -5.75l1.75 5.75l-3.53125 0zm15.336197 4.90625l1.53125 0l0 -9.859375l-1.6875 0l0 7.078125q-0.140625 0.3125 -0.34375 0.578125q-0.203125 0.265625 -0.484375 0.46875q-0.328125 0.234375 -0.78125 0.375q-0.4375 0.125 -1.0 0.125q-0.484375 0 -0.859375 -0.125q-0.359375 -0.140625 -0.625 -0.453125q-0.25 -0.3125 -0.375 -0.828125q-0.125 -0.53125 -0.125 -1.34375l0 -5.875l-1.6875 0l0 5.859375q0 1.109375 0.234375 1.890625q0.25 0.78125 0.6875 1.296875q0.453125 0.515625 1.078125 0.765625q0.625 0.234375 1.40625 0.234375q0.96875 0 1.703125 -0.40625q0.734375 -0.40625 1.234375 -1.140625l0.09375 1.359375zm4.383072 -5.015625l0 0.203125q0 1.046875 0.28125 1.96875q0.28125 0.90625 0.796875 1.59375q0.5 0.671875 1.21875 1.0625q0.734375 0.375 1.625 0.375q0.921875 0 1.59375 -0.3125q0.6875 -0.3125 1.1875 -0.90625l0.0625 1.03125l1.546875 0l0 -14.0l-1.6875 0l0 5.125q-0.46875 -0.578125 -1.140625 -0.859375q-0.65625 -0.296875 -1.546875 -0.296875q-0.890625 0 -1.625 0.375q-0.734375 0.359375 -1.234375 1.03125q-0.515625 0.65625 -0.796875 1.59375q-0.28125 0.921875 -0.28125 2.015625zm1.6875 0.203125l0 -0.203125q0 -0.71875 0.15625 -1.359375q0.15625 -0.65625 0.484375 -1.15625q0.3125 -0.5 0.8125 -0.78125q0.515625 -0.296875 1.21875 -0.296875q0.828125 0 1.375 0.390625q0.5625 0.390625 0.890625 0.984375l0 4.578125q-0.328125 0.640625 -0.890625 1.03125q-0.546875 0.375 -1.390625 0.375q-0.703125 0 -1.203125 -0.28125q-0.5 -0.296875 -0.8125 -0.78125q-0.328125 -0.5 -0.484375 -1.140625q-0.15625 -0.640625 -0.15625 -1.359375zm10.086197 -5.046875l0 1.46875l3.3593674 0l0 6.9375l-3.3593674 0l0 1.453125l8.265617 0l0 -1.453125l-3.21875 0l0 -8.40625l-5.0468674 0zm3.1406174 -2.578125q0 0.40625 0.25 0.6875q0.25 0.265625 0.765625 0.265625q0.5 0 0.75 -0.265625q0.25 -0.28125 0.25 -0.6875q0 -0.234375 -0.078125 -0.421875q-0.0625 -0.1875 -0.203125 -0.328125q-0.125 -0.109375 -0.3125 -0.171875q-0.171875 -0.078125 -0.40625 -0.078125q-0.25 0 -0.4375 0.078125q-0.171875 0.0625 -0.296875 0.171875q-0.140625 0.140625 -0.21875 0.34375q-0.0625 0.1875 -0.0625 0.40625zm7.320572 7.421875l0 0.203125q0 1.0625 0.3125 1.96875q0.3125 0.90625 0.890625 1.59375q0.578125 0.671875 1.40625 1.0625q0.84375 0.375 1.890625 0.375q1.03125 0 1.859375 -0.375q0.828125 -0.390625 1.40625 -1.0625q0.578125 -0.6875 0.890625 -1.59375q0.3125 -0.90625 0.3125 -1.96875l0 -0.203125q0 -1.0625 -0.3125 -1.984375q-0.3125 -0.921875 -0.890625 -1.59375q-0.578125 -0.671875 -1.421875 -1.046875q-0.828125 -0.390625 -1.875 -0.390625q-1.03125 0 -1.859375 0.390625q-0.828125 0.375 -1.40625 1.046875q-0.578125 0.671875 -0.890625 1.59375q-0.3125 0.921875 -0.3125 1.984375zm1.6875 0.203125l0 -0.203125q0 -0.71875 0.171875 -1.375q0.171875 -0.671875 0.53125 -1.171875q0.34375 -0.5 0.859375 -0.796875q0.515625 -0.296875 1.21875 -0.296875q0.703125 0 1.21875 0.296875q0.53125 0.296875 0.890625 0.796875q0.34375 0.5 0.515625 1.171875q0.1875 0.65625 0.1875 1.375l0 0.203125q0 0.71875 -0.171875 1.390625q-0.171875 0.65625 -0.515625 1.15625q-0.359375 0.5 -0.890625 0.796875q-0.515625 0.28125 -1.203125 0.28125q-0.703125 0 -1.234375 -0.28125q-0.53125 -0.296875 -0.875 -0.796875q-0.359375 -0.5 -0.53125 -1.15625q-0.171875 -0.671875 -0.171875 -1.390625zm9.961197 4.8125l4.25 0q0.84375 -0.015625 1.640625 -0.265625q0.796875 -0.25 1.40625 -0.734375q0.609375 -0.46875 0.96875 -1.171875q0.375 -0.71875 0.359375 -1.65625q0 -0.59375 -0.171875 -1.09375q-0.171875 -0.515625 -0.5 -0.921875q-0.296875 -0.375 -0.765625 -0.6875q-0.453125 -0.3125 -0.96875 -0.421875l0 -0.03125q0.484375 -0.21875 0.828125 -0.453125q0.34375 -0.234375 0.625 -0.578125q0.28125 -0.34375 0.4375 -0.765625q0.15625 -0.421875 0.171875 -0.953125q0 -0.921875 -0.359375 -1.578125q-0.359375 -0.671875 -0.96875 -1.109375q-0.625 -0.421875 -1.40625 -0.625q-0.78125 -0.203125 -1.59375 -0.21875l-3.953125 0l0 13.265625zm1.703125 -6.203125l2.6875 0q0.53125 0.015625 1.0 0.1875q0.46875 0.15625 0.8125 0.453125q0.34375 0.3125 0.53125 0.75q0.203125 0.4375 0.1875 1.0q0 0.5625 -0.21875 1.0q-0.203125 0.4375 -0.5625 0.734375q-0.375 0.296875 -0.84375 0.46875q-0.46875 0.171875 -1.0 0.171875l-2.59375 0l0 -4.765625zm0 -1.40625l0 -4.21875l2.296875 0q0.5 0.015625 0.96875 0.140625q0.46875 0.109375 0.828125 0.359375q0.359375 0.25 0.5625 0.640625q0.21875 0.390625 0.21875 0.953125q0 0.515625 -0.21875 0.90625q-0.21875 0.390625 -0.578125 0.65625q-0.34375 0.28125 -0.8125 0.421875q-0.453125 0.140625 -0.921875 0.140625l-2.34375 0zm16.008072 7.609375l1.53125 0l0 -9.859375l-1.6875 0l0 7.078125q-0.140625 0.3125 -0.34375 0.578125q-0.203125 0.265625 -0.484375 0.46875q-0.328125 0.234375 -0.78125 0.375q-0.4375 0.125 -1.0 0.125q-0.484375 0 -0.859375 -0.125q-0.359375 -0.140625 -0.625 -0.453125q-0.25 -0.3125 -0.375 -0.828125q-0.125 -0.53125 -0.125 -1.34375l0 -5.875l-1.6875 0l0 5.859375q0 1.109375 0.234375 1.890625q0.25 0.78125 0.6875 1.296875q0.453125 0.515625 1.078125 0.765625q0.625 0.234375 1.40625 0.234375q0.96875 0 1.703125 -0.40625q0.734375 -0.40625 1.234375 -1.140625l0.09375 1.359375zm7.211197 0l1.703125 0l0 -8.546875l3.796875 0l0 -1.3125l-3.796875 0l0 -0.6875q0 -0.625 0.15625 -1.078125q0.15625 -0.46875 0.46875 -0.765625q0.296875 -0.28125 0.734375 -0.421875q0.4375 -0.140625 1.015625 -0.140625q0.5625 0 1.0625 0.09375q0.5 0.09375 0.875 0.21875l0.1875 -1.390625q-0.234375 -0.0625 -0.46875 -0.109375q-0.21875 -0.046875 -0.453125 -0.09375q-0.34375 -0.0625 -0.703125 -0.109375q-0.34375 -0.046875 -0.703125 -0.046875q-0.875 0 -1.59375 0.25q-0.703125 0.25 -1.203125 0.734375q-0.515625 0.484375 -0.796875 1.203125q-0.28125 0.703125 -0.28125 1.65625l0 0.6875l-2.703125 0l0 1.3125l2.703125 0l0 8.546875zm11.195572 0l1.703125 0l0 -8.546875l3.796875 0l0 -1.3125l-3.796875 0l0 -0.6875q0 -0.625 0.15625 -1.078125q0.15625 -0.46875 0.46875 -0.765625q0.296875 -0.28125 0.734375 -0.421875q0.4375 -0.140625 1.015625 -0.140625q0.5625 0 1.0625 0.09375q0.5 0.09375 0.875 0.21875l0.1875 -1.390625q-0.234375 -0.0625 -0.46875 -0.109375q-0.21875 -0.046875 -0.453125 -0.09375q-0.34375 -0.0625 -0.703125 -0.109375q-0.34375 -0.046875 -0.703125 -0.046875q-0.875 0 -1.59375 0.25q-0.703125 0.25 -1.203125 0.734375q-0.515625 0.484375 -0.796875 1.203125q-0.28125 0.703125 -0.28125 1.65625l0 0.6875l-2.703125 0l0 1.3125l2.703125 0l0 8.546875zm13.039322 0.1875q1.4375 0 2.421875 -0.578125q0.984375 -0.578125 1.46875 -1.328125l-1.03125 -0.796875q-0.46875 0.59375 -1.171875 0.96875q-0.6875 0.359375 -1.59375 0.359375q-0.6875 0 -1.25 -0.25q-0.5625 -0.265625 -0.96875 -0.71875q-0.390625 -0.40625 -0.609375 -0.953125q-0.21875 -0.546875 -0.28125 -1.265625l0 -0.078125l7.03125 0l0 -0.75q0 -1.03125 -0.265625 -1.90625q-0.25 -0.890625 -0.78125 -1.546875q-0.53125 -0.640625 -1.328125 -1.0q-0.796875 -0.375 -1.859375 -0.375q-0.84375 0 -1.65625 0.34375q-0.796875 0.34375 -1.4375 0.984375q-0.625 0.65625 -1.015625 1.609375q-0.375 0.9375 -0.375 2.125l0 0.390625q0 1.03125 0.34375 1.90625q0.34375 0.875 0.96875 1.5q0.609375 0.640625 1.484375 1.0q0.875 0.359375 1.90625 0.359375zm-0.21875 -8.84375q0.65625 0 1.125 0.234375q0.46875 0.234375 0.765625 0.625q0.3125 0.375 0.484375 0.90625q0.171875 0.515625 0.171875 0.984375l0 0.078125l-5.296875 0q0.09375 -0.6875 0.34375 -1.203125q0.265625 -0.53125 0.625 -0.890625q0.359375 -0.359375 0.8125 -0.546875q0.453125 -0.1875 0.96875 -0.1875zm13.523697 -1.375q-1.078125 0 -1.921875 0.46875q-0.84375 0.46875 -1.4375 1.265625l-0.015625 -0.234375l-0.078125 -1.328125l-1.59375 0l0 9.859375l1.6875 0l0 -6.328125q0.171875 -0.453125 0.421875 -0.8125q0.25 -0.375 0.578125 -0.625q0.375 -0.296875 0.875 -0.4375q0.5 -0.15625 1.125 -0.15625q0.484375 0 0.921875 0.046875q0.453125 0.046875 0.9375 0.15625l0.234375 -1.640625q-0.265625 -0.109375 -0.765625 -0.171875q-0.5 -0.0625 -0.96875 -0.0625z" fill-rule="nonzero"/><path fill="#cfe2f3" d="m365.24933 71.608925l174.80316 0l0 60.15748l-174.80316 0z" fill-rule="evenodd"/><path fill="#000000" d="m418.33453 103.37329l0 -1.578125l5.65625 0l0 4.953125q-1.296875 1.046875 -2.6875 1.578125q-1.375 0.515625 -2.84375 0.515625q-1.96875 0 -3.578125 -0.84375q-1.609375 -0.84375 -2.421875 -2.4375q-0.8125 -1.59375 -0.8125 -3.5625q0 -1.953125 0.8125 -3.640625q0.8125 -1.6875 2.34375 -2.5q1.53125 -0.828125 3.515625 -0.828125q1.453125 0 2.625 0.46875q1.171875 0.46875 1.828125 1.3125q0.671875 0.828125 1.015625 2.171875l-1.59375 0.4375q-0.296875 -1.015625 -0.75 -1.59375q-0.4375 -0.59375 -1.265625 -0.9375q-0.828125 -0.34375 -1.84375 -0.34375q-1.203125 0 -2.09375 0.375q-0.890625 0.359375 -1.4375 0.96875q-0.53125 0.59375 -0.828125 1.3125q-0.515625 1.234375 -0.515625 2.6875q0 1.78125 0.609375 2.984375q0.625 1.203125 1.796875 1.796875q1.171875 0.578125 2.5 0.578125q1.140625 0 2.234375 -0.4375q1.09375 -0.453125 1.65625 -0.953125l0 -2.484375l-3.921875 0zm14.370789 4.046875q-0.921875 0.765625 -1.765625 1.09375q-0.828125 0.3125 -1.796875 0.3125q-1.59375 0 -2.453125 -0.78125q-0.859375 -0.78125 -0.859375 -1.984375q0 -0.71875 0.328125 -1.296875q0.328125 -0.59375 0.84375 -0.9375q0.53125 -0.359375 1.1875 -0.546875q0.46875 -0.125 1.453125 -0.25q1.984375 -0.234375 2.921875 -0.5625q0.015625 -0.34375 0.015625 -0.421875q0 -1.0 -0.46875 -1.421875q-0.625 -0.546875 -1.875 -0.546875q-1.15625 0 -1.703125 0.40625q-0.546875 0.40625 -0.8125 1.421875l-1.609375 -0.21875q0.21875 -1.015625 0.71875 -1.640625q0.5 -0.640625 1.453125 -0.984375q0.953125 -0.34375 2.1875 -0.34375q1.25 0 2.015625 0.296875q0.78125 0.28125 1.140625 0.734375q0.375 0.4375 0.515625 1.109375q0.078125 0.421875 0.078125 1.515625l0 2.1875q0 2.28125 0.109375 2.890625q0.109375 0.59375 0.40625 1.15625l-1.703125 0q-0.265625 -0.515625 -0.328125 -1.1875zm-0.140625 -3.671875q-0.890625 0.375 -2.671875 0.625q-1.015625 0.140625 -1.4375 0.328125q-0.421875 0.1875 -0.65625 0.53125q-0.21875 0.34375 -0.21875 0.78125q0 0.65625 0.5 1.09375q0.5 0.4375 1.453125 0.4375q0.9375 0 1.671875 -0.40625q0.75 -0.421875 1.09375 -1.140625q0.265625 -0.5625 0.265625 -1.640625l0 -0.609375zm4.2038574 -6.609375l0 -1.890625l1.640625 0l0 1.890625l-1.640625 0zm0 11.46875l0 -9.671875l1.640625 0l0 9.671875l-1.640625 0zm4.144806 0l0 -9.671875l1.46875 0l0 1.375q1.0625 -1.59375 3.078125 -1.59375q0.875 0 1.609375 0.3125q0.734375 0.3125 1.09375 0.828125q0.375 0.5 0.515625 1.203125q0.09375 0.453125 0.09375 1.59375l0 5.953125l-1.640625 0l0 -5.890625q0 -1.0 -0.203125 -1.484375q-0.1875 -0.5 -0.671875 -0.796875q-0.484375 -0.296875 -1.140625 -0.296875q-1.046875 0 -1.8125 0.671875q-0.75 0.65625 -0.75 2.515625l0 5.28125l-1.640625 0zm10.563232 0l0 -13.359375l1.8125 0l7.015625 10.484375l0 -10.484375l1.6875 0l0 13.359375l-1.8125 0l-7.015625 -10.5l0 10.5l-1.6875 0zm12.676056 -4.84375q0 -2.6875 1.484375 -3.96875q1.25 -1.078125 3.046875 -1.078125q2.0 0 3.265625 1.3125q1.265625 1.296875 1.265625 3.609375q0 1.859375 -0.5625 2.9375q-0.5625 1.0625 -1.640625 1.65625q-1.0625 0.59375 -2.328125 0.59375q-2.03125 0 -3.28125 -1.296875q-1.25 -1.3125 -1.25 -3.765625zm1.6875 0q0 1.859375 0.796875 2.796875q0.8125 0.921875 2.046875 0.921875q1.21875 0 2.03125 -0.921875q0.8125 -0.9375 0.8125 -2.84375q0 -1.796875 -0.8125 -2.71875q-0.8125 -0.921875 -2.03125 -0.921875q-1.234375 0 -2.046875 0.921875q-0.796875 0.90625 -0.796875 2.765625zm15.563232 4.84375l0 -1.21875q-0.90625 1.4375 -2.703125 1.4375q-1.15625 0 -2.125 -0.640625q-0.96875 -0.640625 -1.5 -1.78125q-0.53125 -1.140625 -0.53125 -2.625q0 -1.453125 0.484375 -2.625q0.484375 -1.1875 1.4375 -1.8125q0.96875 -0.625 2.171875 -0.625q0.875 0 1.546875 0.375q0.6875 0.359375 1.109375 0.953125l0 -4.796875l1.640625 0l0 13.359375l-1.53125 0zm-5.171875 -4.828125q0 1.859375 0.78125 2.78125q0.78125 0.921875 1.84375 0.921875q1.078125 0 1.828125 -0.875q0.75 -0.890625 0.75 -2.6875q0 -1.984375 -0.765625 -2.90625q-0.765625 -0.9375 -1.890625 -0.9375q-1.078125 0 -1.8125 0.890625q-0.734375 0.890625 -0.734375 2.8125zm15.906952 1.71875l1.6875 0.203125q-0.40625 1.484375 -1.484375 2.3125q-1.078125 0.8125 -2.765625 0.8125q-2.125 0 -3.375 -1.296875q-1.234375 -1.3125 -1.234375 -3.671875q0 -2.453125 1.25 -3.796875q1.265625 -1.34375 3.265625 -1.34375q1.9375 0 3.15625 1.328125q1.234375 1.3125 1.234375 3.703125q0 0.15625 0 0.4375l-7.21875 0q0.09375 1.59375 0.90625 2.453125q0.8125 0.84375 2.015625 0.84375q0.90625 0 1.546875 -0.46875q0.640625 -0.484375 1.015625 -1.515625zm-5.390625 -2.65625l5.40625 0q-0.109375 -1.21875 -0.625 -1.828125q-0.78125 -0.953125 -2.03125 -0.953125q-1.125 0 -1.90625 0.765625q-0.765625 0.75 -0.84375 2.015625z" fill-rule="nonzero"/><path fill="#cfe2f3" d="m684.5722 71.608925l200.22046 0l0 60.15748l-200.22046 0z" fill-rule="evenodd"/><path fill="#000000" d="m706.4969 107.420166q-0.796875 0 -1.328125 -0.3125q-0.53125 -0.3125 -0.84375 -0.828125q-0.328125 -0.5 -0.46875 -1.125q-0.140625 -0.640625 -0.140625 -1.28125l0 -0.390625q0 -0.625 0.140625 -1.25q0.140625 -0.640625 0.46875 -1.15625q0.328125 -0.5 0.859375 -0.8125q0.53125 -0.3125 1.3125 -0.3125q0.515625 0 0.953125 0.171875q0.4375 0.171875 0.765625 0.484375q0.3125 0.296875 0.5 0.6875q0.1875 0.390625 0.203125 0.84375l1.59375 0q0 -0.75 -0.3125 -1.40625q-0.296875 -0.65625 -0.828125 -1.140625q-0.53125 -0.46875 -1.265625 -0.734375q-0.734375 -0.28125 -1.609375 -0.28125q-1.109375 0 -1.953125 0.40625q-0.84375 0.390625 -1.390625 1.0625q-0.5625 0.6875 -0.859375 1.578125q-0.28125 0.890625 -0.28125 1.859375l0 0.390625q0 0.984375 0.28125 1.875q0.296875 0.875 0.859375 1.5625q0.546875 0.671875 1.390625 1.078125q0.84375 0.40625 1.953125 0.40625q0.78125 0 1.5 -0.265625q0.71875 -0.28125 1.28125 -0.734375q0.5625 -0.4375 0.890625 -1.03125q0.328125 -0.609375 0.34375 -1.265625l-1.59375 0q-0.015625 0.40625 -0.21875 0.765625q-0.203125 0.34375 -0.546875 0.609375q-0.328125 0.265625 -0.765625 0.40625q-0.4375 0.140625 -0.890625 0.140625zm10.992432 -11.0625l-1.703125 0l0 2.390625l-2.578125 0l0 1.3125l2.578125 0l0 5.34375q0 0.921875 0.234375 1.5625q0.25 0.640625 0.671875 1.046875q0.421875 0.40625 0.984375 0.59375q0.578125 0.1875 1.234375 0.1875q0.390625 0 0.78125 -0.046875q0.40625 -0.03125 0.75 -0.109375q0.359375 -0.0625 0.65625 -0.15625q0.296875 -0.09375 0.515625 -0.21875l-0.234375 -1.203125q-0.15625 0.046875 -0.40625 0.09375q-0.234375 0.046875 -0.515625 0.09375q-0.28125 0.046875 -0.578125 0.078125q-0.28125 0.03125 -0.546875 0.03125q-0.375 0 -0.71875 -0.09375q-0.328125 -0.09375 -0.578125 -0.3125q-0.265625 -0.21875 -0.40625 -0.59375q-0.140625 -0.375 -0.140625 -0.953125l0 -5.34375l3.75 0l0 -1.3125l-3.75 0l0 -2.390625zm11.273682 6.046875l-2.609375 -3.65625l-1.9375 0l3.65625 4.875l-3.765625 4.984375l1.96875 0l2.71875 -3.75l2.734375 3.75l1.9375 0l-3.765625 -4.984375l3.671875 -4.875l-1.96875 0l-2.640625 3.65625zm10.054993 5.109375q0 0.53125 0.328125 0.90625q0.34375 0.359375 1.0 0.359375q0.640625 0 0.984375 -0.359375q0.34375 -0.375 0.34375 -0.90625q0 -0.546875 -0.34375 -0.921875q-0.328125 -0.375 -0.984375 -0.375q-0.671875 0 -1.0 0.390625q-0.328125 0.375 -0.328125 0.90625zm7.9455566 -3.921875l0 0.203125q0 1.046875 0.28125 1.96875q0.28125 0.90625 0.796875 1.59375q0.5 0.671875 1.21875 1.0625q0.734375 0.375 1.625 0.375q0.921875 0 1.59375 -0.3125q0.6875 -0.3125 1.1875 -0.90625l0.0625 1.03125l1.546875 0l0 -14.0l-1.6875 0l0 5.125q-0.46875 -0.578125 -1.140625 -0.859375q-0.65625 -0.296875 -1.546875 -0.296875q-0.890625 0 -1.625 0.375q-0.734375 0.359375 -1.234375 1.03125q-0.515625 0.65625 -0.796875 1.59375q-0.28125 0.921875 -0.28125 2.015625zm1.6875 0.203125l0 -0.203125q0 -0.71875 0.15625 -1.359375q0.15625 -0.65625 0.484375 -1.15625q0.3125 -0.5 0.8125 -0.78125q0.515625 -0.296875 1.21875 -0.296875q0.828125 0 1.375 0.390625q0.5625 0.390625 0.890625 0.984375l0 4.578125q-0.328125 0.640625 -0.890625 1.03125q-0.546875 0.375 -1.390625 0.375q-0.703125 0 -1.203125 -0.28125q-0.5 -0.296875 -0.8125 -0.78125q-0.328125 -0.5 -0.484375 -1.140625q-0.15625 -0.640625 -0.15625 -1.359375zm14.179932 5.0q1.4375 0 2.421875 -0.578125q0.984375 -0.578125 1.46875 -1.328125l-1.03125 -0.796875q-0.46875 0.59375 -1.171875 0.96875q-0.6875 0.359375 -1.59375 0.359375q-0.6875 0 -1.25 -0.25q-0.5625 -0.265625 -0.96875 -0.71875q-0.390625 -0.40625 -0.609375 -0.953125q-0.21875 -0.546875 -0.28125 -1.265625l0 -0.078125l7.03125 0l0 -0.75q0 -1.03125 -0.265625 -1.90625q-0.25 -0.890625 -0.78125 -1.546875q-0.53125 -0.640625 -1.328125 -1.0q-0.796875 -0.375 -1.859375 -0.375q-0.84375 0 -1.65625 0.34375q-0.796875 0.34375 -1.4375 0.984375q-0.625 0.65625 -1.015625 1.609375q-0.375 0.9375 -0.375 2.125l0 0.390625q0 1.03125 0.34375 1.90625q0.34375 0.875 0.96875 1.5q0.609375 0.640625 1.484375 1.0q0.875 0.359375 1.90625 0.359375zm-0.21875 -8.84375q0.65625 0 1.125 0.234375q0.46875 0.234375 0.765625 0.625q0.3125 0.375 0.484375 0.90625q0.171875 0.515625 0.171875 0.984375l0 0.078125l-5.296875 0q0.09375 -0.6875 0.34375 -1.203125q0.265625 -0.53125 0.625 -0.890625q0.359375 -0.359375 0.8125 -0.546875q0.453125 -0.1875 0.96875 -0.1875zm13.617432 6.046875q0 0.234375 -0.09375 0.453125q-0.09375 0.203125 -0.265625 0.375q-0.28125 0.28125 -0.78125 0.4375q-0.5 0.15625 -1.171875 0.15625q-0.4375 0 -0.875 -0.078125q-0.4375 -0.09375 -0.796875 -0.3125q-0.359375 -0.21875 -0.609375 -0.578125q-0.234375 -0.359375 -0.265625 -0.875l-1.6875 0q0 0.625 0.28125 1.21875q0.296875 0.578125 0.84375 1.015625q0.53125 0.4375 1.3125 0.71875q0.78125 0.265625 1.796875 0.265625q0.875 0 1.609375 -0.203125q0.734375 -0.21875 1.265625 -0.609375q0.53125 -0.375 0.8125 -0.90625q0.296875 -0.546875 0.296875 -1.203125q0 -0.609375 -0.265625 -1.0625q-0.25 -0.46875 -0.734375 -0.828125q-0.5 -0.34375 -1.21875 -0.59375q-0.71875 -0.25 -1.625 -0.453125q-0.6875 -0.125 -1.140625 -0.265625q-0.453125 -0.15625 -0.71875 -0.34375q-0.28125 -0.171875 -0.390625 -0.40625q-0.109375 -0.234375 -0.109375 -0.515625q0 -0.28125 0.140625 -0.546875q0.140625 -0.265625 0.40625 -0.46875q0.265625 -0.203125 0.671875 -0.3125q0.40625 -0.125 0.953125 -0.125q0.515625 0 0.921875 0.15625q0.421875 0.140625 0.71875 0.375q0.28125 0.234375 0.4375 0.546875q0.171875 0.296875 0.171875 0.625l1.6875 0q0 -0.65625 -0.28125 -1.21875q-0.265625 -0.5625 -0.78125 -0.96875q-0.515625 -0.421875 -1.25 -0.65625q-0.71875 -0.234375 -1.625 -0.234375q-0.859375 0 -1.5625 0.234375q-0.703125 0.21875 -1.21875 0.609375q-0.5 0.390625 -0.78125 0.921875q-0.28125 0.515625 -0.28125 1.109375q0 0.609375 0.265625 1.078125q0.28125 0.453125 0.78125 0.796875q0.484375 0.34375 1.171875 0.59375q0.703125 0.234375 1.5625 0.421875q0.6875 0.125 1.140625 0.296875q0.46875 0.171875 0.75 0.375q0.28125 0.203125 0.40625 0.4375q0.125 0.234375 0.125 0.546875zm8.633118 -9.640625l-1.703125 0l0 2.390625l-2.578125 0l0 1.3125l2.578125 0l0 5.34375q0 0.921875 0.234375 1.5625q0.25 0.640625 0.671875 1.046875q0.421875 0.40625 0.984375 0.59375q0.578125 0.1875 1.234375 0.1875q0.390625 0 0.78125 -0.046875q0.40625 -0.03125 0.75 -0.109375q0.359375 -0.0625 0.65625 -0.15625q0.296875 -0.09375 0.515625 -0.21875l-0.234375 -1.203125q-0.15625 0.046875 -0.40625 0.09375q-0.234375 0.046875 -0.515625 0.09375q-0.28125 0.046875 -0.578125 0.078125q-0.28125 0.03125 -0.546875 0.03125q-0.375 0 -0.71875 -0.09375q-0.328125 -0.09375 -0.578125 -0.3125q-0.265625 -0.21875 -0.40625 -0.59375q-0.140625 -0.375 -0.140625 -0.953125l0 -5.34375l3.75 0l0 -1.3125l-3.75 0l0 -2.390625zm7.4611816 2.390625l0 1.46875l3.359375 0l0 6.9375l-3.359375 0l0 1.453125l8.265625 0l0 -1.453125l-3.21875 0l0 -8.40625l-5.046875 0zm3.140625 -2.578125q0 0.40625 0.25 0.6875q0.25 0.265625 0.765625 0.265625q0.5 0 0.75 -0.265625q0.25 -0.28125 0.25 -0.6875q0 -0.234375 -0.078125 -0.421875q-0.0625 -0.1875 -0.203125 -0.328125q-0.125 -0.109375 -0.3125 -0.171875q-0.171875 -0.078125 -0.40625 -0.078125q-0.25 0 -0.4375 0.078125q-0.171875 0.0625 -0.296875 0.171875q-0.140625 0.140625 -0.21875 0.34375q-0.0625 0.1875 -0.0625 0.40625zm7.7893066 12.4375l1.6875 0l0 -7.0625q0.171875 -0.328125 0.40625 -0.59375q0.234375 -0.265625 0.515625 -0.453125q0.328125 -0.234375 0.71875 -0.359375q0.40625 -0.140625 0.875 -0.140625q0.546875 0 0.953125 0.125q0.421875 0.125 0.703125 0.40625q0.28125 0.296875 0.421875 0.75q0.15625 0.453125 0.15625 1.109375l0 6.21875l1.6875 0l0 -6.265625q0 -0.96875 -0.25 -1.6875q-0.234375 -0.71875 -0.6875 -1.1875q-0.4375 -0.453125 -1.078125 -0.671875q-0.625 -0.21875 -1.40625 -0.21875q-0.5625 0 -1.078125 0.171875q-0.515625 0.15625 -0.953125 0.4375q-0.296875 0.1875 -0.5625 0.453125q-0.25 0.265625 -0.46875 0.5625l-0.125 -1.453125l-1.515625 0l0 9.859375zm17.679932 0l1.75 0l0 -0.140625q-0.15625 -0.421875 -0.25 -0.96875q-0.09375 -0.546875 -0.09375 -1.046875l0 -4.578125q0 -0.828125 -0.296875 -1.4375q-0.296875 -0.625 -0.8125 -1.046875q-0.53125 -0.40625 -1.25 -0.609375q-0.71875 -0.203125 -1.5625 -0.203125q-0.921875 0 -1.65625 0.25q-0.71875 0.25 -1.21875 0.65625q-0.5 0.421875 -0.78125 0.953125q-0.265625 0.515625 -0.265625 1.046875l1.6875 0q0 -0.3125 0.140625 -0.59375q0.15625 -0.28125 0.4375 -0.5q0.265625 -0.203125 0.65625 -0.328125q0.40625 -0.140625 0.90625 -0.140625q0.546875 0 0.96875 0.140625q0.4375 0.140625 0.734375 0.390625q0.296875 0.25 0.453125 0.609375q0.171875 0.34375 0.171875 0.796875l0 0.78125l-1.828125 0q-1.03125 0 -1.875 0.203125q-0.828125 0.1875 -1.421875 0.59375q-0.59375 0.40625 -0.921875 1.015625q-0.3125 0.609375 -0.3125 1.421875q0 0.625 0.234375 1.15625q0.25 0.53125 0.6875 0.90625q0.4375 0.40625 1.0625 0.640625q0.640625 0.21875 1.4375 0.21875q0.46875 0 0.890625 -0.109375q0.4375 -0.09375 0.828125 -0.265625q0.375 -0.171875 0.6875 -0.390625q0.3125 -0.234375 0.5625 -0.5q0.03125 0.3125 0.09375 0.609375q0.0625 0.28125 0.15625 0.46875zm-2.984375 -1.28125q-0.484375 0 -0.859375 -0.125q-0.375 -0.140625 -0.625 -0.359375q-0.234375 -0.21875 -0.359375 -0.53125q-0.125 -0.3125 -0.125 -0.671875q0 -0.390625 0.140625 -0.6875q0.140625 -0.296875 0.40625 -0.515625q0.390625 -0.3125 1.03125 -0.453125q0.65625 -0.15625 1.53125 -0.15625l1.5625 0l0 2.0q-0.140625 0.28125 -0.40625 0.5625q-0.25 0.265625 -0.59375 0.46875q-0.34375 0.203125 -0.78125 0.34375q-0.421875 0.125 -0.921875 0.125zm11.695618 -10.96875l-1.703125 0l0 2.390625l-2.578125 0l0 1.3125l2.578125 0l0 5.34375q0 0.921875 0.234375 1.5625q0.25 0.640625 0.671875 1.046875q0.421875 0.40625 0.984375 0.59375q0.578125 0.1875 1.234375 0.1875q0.390625 0 0.78125 -0.046875q0.40625 -0.03125 0.75 -0.109375q0.359375 -0.0625 0.65625 -0.15625q0.296875 -0.09375 0.515625 -0.21875l-0.234375 -1.203125q-0.15625 0.046875 -0.40625 0.09375q-0.234375 0.046875 -0.515625 0.09375q-0.28125 0.046875 -0.578125 0.078125q-0.28125 0.03125 -0.546875 0.03125q-0.375 0 -0.71875 -0.09375q-0.328125 -0.09375 -0.578125 -0.3125q-0.265625 -0.21875 -0.40625 -0.59375q-0.140625 -0.375 -0.140625 -0.953125l0 -5.34375l3.75 0l0 -1.3125l-3.75 0l0 -2.390625zm7.4611816 2.390625l0 1.46875l3.359375 0l0 6.9375l-3.359375 0l0 1.453125l8.265625 0l0 -1.453125l-3.21875 0l0 -8.40625l-5.046875 0zm3.140625 -2.578125q0 0.40625 0.25 0.6875q0.25 0.265625 0.765625 0.265625q0.5 0 0.75 -0.265625q0.25 -0.28125 0.25 -0.6875q0 -0.234375 -0.078125 -0.421875q-0.0625 -0.1875 -0.203125 -0.328125q-0.125 -0.109375 -0.3125 -0.171875q-0.171875 -0.078125 -0.40625 -0.078125q-0.25 0 -0.4375 0.078125q-0.171875 0.0625 -0.296875 0.171875q-0.140625 0.140625 -0.21875 0.34375q-0.0625 0.1875 -0.0625 0.40625zm7.3205566 7.421875l0 0.203125q0 1.0625 0.3125 1.96875q0.3125 0.90625 0.890625 1.59375q0.578125 0.671875 1.40625 1.0625q0.84375 0.375 1.890625 0.375q1.03125 0 1.859375 -0.375q0.828125 -0.390625 1.40625 -1.0625q0.578125 -0.6875 0.890625 -1.59375q0.3125 -0.90625 0.3125 -1.96875l0 -0.203125q0 -1.0625 -0.3125 -1.984375q-0.3125 -0.921875 -0.890625 -1.59375q-0.578125 -0.671875 -1.421875 -1.046875q-0.828125 -0.390625 -1.875 -0.390625q-1.03125 0 -1.859375 0.390625q-0.828125 0.375 -1.40625 1.046875q-0.578125 0.671875 -0.890625 1.59375q-0.3125 0.921875 -0.3125 1.984375zm1.6875 0.203125l0 -0.203125q0 -0.71875 0.171875 -1.375q0.171875 -0.671875 0.53125 -1.171875q0.34375 -0.5 0.859375 -0.796875q0.515625 -0.296875 1.21875 -0.296875q0.703125 0 1.21875 0.296875q0.53125 0.296875 0.890625 0.796875q0.34375 0.5 0.515625 1.171875q0.1875 0.65625 0.1875 1.375l0 0.203125q0 0.71875 -0.171875 1.390625q-0.171875 0.65625 -0.515625 1.15625q-0.359375 0.5 -0.890625 0.796875q-0.515625 0.28125 -1.203125 0.28125q-0.703125 0 -1.234375 -0.28125q-0.53125 -0.296875 -0.875 -0.796875q-0.359375 -0.5 -0.53125 -1.15625q-0.171875 -0.671875 -0.171875 -1.390625zm9.976807 4.8125l1.6875 0l0 -7.0625q0.171875 -0.328125 0.40625 -0.59375q0.234375 -0.265625 0.515625 -0.453125q0.328125 -0.234375 0.71875 -0.359375q0.40625 -0.140625 0.875 -0.140625q0.546875 0 0.953125 0.125q0.421875 0.125 0.703125 0.40625q0.28125 0.296875 0.421875 0.75q0.15625 0.453125 0.15625 1.109375l0 6.21875l1.6875 0l0 -6.265625q0 -0.96875 -0.25 -1.6875q-0.234375 -0.71875 -0.6875 -1.1875q-0.4375 -0.453125 -1.078125 -0.671875q-0.625 -0.21875 -1.40625 -0.21875q-0.5625 0 -1.078125 0.171875q-0.515625 0.15625 -0.953125 0.4375q-0.296875 0.1875 -0.5625 0.453125q-0.25 0.265625 -0.46875 0.5625l-0.125 -1.453125l-1.515625 0l0 9.859375z" fill-rule="nonzero"/><path fill="#000000" d="m216.88452 101.68767l0 0c0 -4.8183594 3.9060516 -8.724411 8.724396 -8.724411l0 0c2.313858 0 4.532959 0.9191742 6.169098 2.5553207c1.6361389 1.6361389 2.555313 3.8552322 2.555313 6.1690903l0 0c0 4.8183517 -3.9060516 8.724403 -8.724411 8.724403l0 0c-4.818344 0 -8.724396 -3.9060516 -8.724396 -8.724403z" fill-rule="evenodd"/><path stroke="#000000" stroke-width="1.0" stroke-linejoin="round" stroke-linecap="butt" d="m216.88452 101.68767l0 0c0 -4.8183594 3.9060516 -8.724411 8.724396 -8.724411l0 0c2.313858 0 4.532959 0.9191742 6.169098 2.5553207c1.6361389 1.6361389 2.555313 3.8552322 2.555313 6.1690903l0 0c0 4.8183517 -3.9060516 8.724403 -8.724411 8.724403l0 0c-4.818344 0 -8.724396 -3.9060516 -8.724396 -8.724403z" fill-rule="evenodd"/><path fill="#000000" fill-opacity="0.0" d="m234.33333 101.68767l122.267715 0" fill-rule="evenodd"/><path stroke="#000000" stroke-width="1.0" stroke-linejoin="round" stroke-linecap="butt" d="m234.33333 101.68767l122.267715 0" fill-rule="evenodd"/><path fill="#000000" d="m356.6063 101.68767l0 0c0 -4.8183594 3.906067 -8.724411 8.724426 -8.724411l0 0c2.3138428 0 4.5329285 0.9191742 6.1690674 2.5553207c1.6361694 1.6361389 2.5553284 3.8552322 2.5553284 6.1690903l0 0c0 4.8183517 -3.9060364 8.724403 -8.724396 8.724403l0 0c-4.8183594 0 -8.724426 -3.9060516 -8.724426 -8.724403z" fill-rule="evenodd"/><path stroke="#000000" stroke-width="1.0" stroke-linejoin="round" stroke-linecap="butt" d="m356.6063 101.68767l0 0c0 -4.8183594 3.906067 -8.724411 8.724426 -8.724411l0 0c2.3138428 0 4.5329285 0.9191742 6.1690674 2.5553207c1.6361694 1.6361389 2.5553284 3.8552322 2.5553284 6.1690903l0 0c0 4.8183517 -3.9060364 8.724403 -8.724396 8.724403l0 0c-4.8183594 0 -8.724426 -3.9060516 -8.724426 -8.724403z" fill-rule="evenodd"/><path fill="#000000" d="m531.6667 101.68767l0 0c0 -4.8183594 3.9060059 -8.724411 8.724365 -8.724411l0 0c2.3139038 0 4.532959 0.9191742 6.1691284 2.5553207c1.6361084 1.6361389 2.5552979 3.8552322 2.5552979 6.1690903l0 0c0 4.8183517 -3.906067 8.724403 -8.724426 8.724403l0 0c-4.8183594 0 -8.724365 -3.9060516 -8.724365 -8.724403z" fill-rule="evenodd"/><path stroke="#000000" stroke-width="1.0" stroke-linejoin="round" stroke-linecap="butt" d="m531.6667 101.68767l0 0c0 -4.8183594 3.9060059 -8.724411 8.724365 -8.724411l0 0c2.3139038 0 4.532959 0.9191742 6.1691284 2.5553207c1.6361084 1.6361389 2.5552979 3.8552322 2.5552979 6.1690903l0 0c0 4.8183517 -3.906067 8.724403 -8.724426 8.724403l0 0c-4.8183594 0 -8.724365 -3.9060516 -8.724365 -8.724403z" fill-rule="evenodd"/><path fill="#000000" fill-opacity="0.0" d="m549.1155 101.68767l126.39374 0" fill-rule="evenodd"/><path stroke="#000000" stroke-width="1.0" stroke-linejoin="round" stroke-linecap="butt" d="m549.1155 101.68767l126.39374 0" fill-rule="evenodd"/><path fill="#000000" d="m675.4934 101.68767l0 0c0 -4.8183594 3.906067 -8.724411 8.724426 -8.724411l0 0c2.3138428 0 4.532959 0.9191742 6.1691284 2.5553207c1.6361084 1.6361389 2.5552979 3.8552322 2.5552979 6.1690903l0 0c0 4.8183517 -3.906067 8.724403 -8.724426 8.724403l0 0c-4.8183594 0 -8.724426 -3.9060516 -8.724426 -8.724403z" fill-rule="evenodd"/><path stroke="#000000" stroke-width="1.0" stroke-linejoin="round" stroke-linecap="butt" d="m675.4934 101.68767l0 0c0 -4.8183594 3.906067 -8.724411 8.724426 -8.724411l0 0c2.3138428 0 4.532959 0.9191742 6.1691284 2.5553207c1.6361084 1.6361389 2.5552979 3.8552322 2.5552979 6.1690903l0 0c0 4.8183517 -3.906067 8.724403 -8.724426 8.724403l0 0c-4.8183594 0 -8.724426 -3.9060516 -8.724426 -8.724403z" fill-rule="evenodd"/><path fill="#4a86e8" d="m259.1942 96.301834l9.322845 5.3858337l-9.322845 5.385826z" fill-rule="evenodd"/><path fill="#4a86e8" d="m303.43045 96.301834l9.322845 5.3858337l-9.322845 5.385826z" fill-rule="evenodd"/><path fill="#4a86e8" d="m577.1391 96.301834l9.322815 5.3858337l-9.322815 5.385826z" fill-rule="evenodd"/><path fill="#4a86e8" d="m626.3163 96.301834l9.322815 5.3858337l-9.322815 5.385826z" fill-rule="evenodd"/></g></svg>