<svg version="1.1" viewBox="0.0 0.0 1344.0 576.0" fill="none" stroke="none" stroke-linecap="square" stroke-miterlimit="10" xmlns:xlink="http://www.w3.org/1999/xlink" xmlns="http://www.w3.org/2000/svg"><clipPath id="p.0"><path d="m0 0l1344.0 0l0 576.0l-1344.0 0l0 -576.0z" clip-rule="nonzero"/></clipPath><g clip-path="url(#p.0)"><path fill="#ffffff" d="m0 0l1344.0 0l0 576.0l-1344.0 0z" fill-rule="evenodd"/><path fill="#000000" fill-opacity="0.0" d="m33.21173 47.19913l951.1496 0l0 115.87402l-951.1496 0z" fill-rule="evenodd"/><path fill="#000000" d="m69.008606 124.618256l-8.609375 0l0 -41.21875l23.609375 0l0 7.171875l-15.0 0l0 10.609375l13.96875 0l0 7.15625l-13.96875 0l0 16.28125zm30.875092 -31.515625l0 31.515625l-8.71875 0l0 -31.515625l8.71875 0zm-4.328125 -12.40625q1.90625 0 3.3125 0.890625q1.421875 0.890625 1.421875 3.375q0 2.375 -1.421875 3.296875q-1.40625 0.921875 -3.3125 0.921875q-1.953125 0 -3.34375 -0.921875q-1.390625 -0.921875 -1.390625 -3.296875q0 -2.484375 1.390625 -3.375q1.390625 -0.890625 3.34375 -0.890625zm21.52353 43.921875l-8.703125 0l0 -43.859375l8.703125 0l0 43.859375zm21.93457 -32.09375q4.390625 0 7.5625 1.65625q3.171875 1.640625 4.875 4.84375q1.703125 3.203125 1.703125 7.8125l0 4.21875l-20.25 0q0.109375 3.578125 2.1875 5.625q2.078125 2.046875 5.953125 2.046875q2.9375 0 5.359375 -0.578125q2.421875 -0.578125 4.96875 -1.734375l0 6.53125q-2.3125 1.15625 -4.890625 1.703125q-2.5625 0.546875 -6.359375 0.546875q-4.6875 0 -8.296875 -1.734375q-3.59375 -1.734375 -5.671875 -5.328125q-2.078125 -3.609375 -2.078125 -9.046875q0 -5.53125 1.875 -9.1875q1.875 -3.671875 5.25 -5.515625q3.375 -1.859375 7.8125 -1.859375zm0.234375 6.171875q-2.59375 0 -4.21875 1.65625q-1.609375 1.640625 -1.890625 4.875l11.890625 0q0 -1.90625 -0.640625 -3.34375q-0.640625 -1.453125 -1.9375 -2.3125q-1.296875 -0.875 -3.203125 -0.875zm49.12123 -15.296875q5.421875 0 9.0 1.359375q3.578125 1.359375 5.34375 4.015625q1.765625 2.65625 1.765625 6.640625q0 2.765625 -0.984375 4.90625q-0.984375 2.140625 -2.65625 3.640625q-1.671875 1.5 -3.8125 2.46875l11.71875 18.1875l-10.09375 0l-9.1875 -15.8125l-4.90625 0l0 15.8125l-8.828125 0l0 -41.21875l12.640625 0zm-0.171875 6.875l-3.640625 0l0 11.71875l3.640625 0q3.515625 0 5.421875 -1.4375q1.90625 -1.453125 1.90625 -4.734375q0 -1.859375 -0.78125 -3.0625q-0.78125 -1.21875 -2.40625 -1.84375q-1.609375 -0.640625 -4.140625 -0.640625zm38.14476 2.25q4.390625 0 7.5625 1.65625q3.171875 1.640625 4.875 4.84375q1.703125 3.203125 1.703125 7.8125l0 4.21875l-20.25 0q0.109375 3.578125 2.1875 5.625q2.078125 2.046875 5.953125 2.046875q2.9375 0 5.359375 -0.578125q2.421875 -0.578125 4.96875 -1.734375l0 6.53125q-2.3125 1.15625 -4.890625 1.703125q-2.5625 0.546875 -6.359375 0.546875q-4.6875 0 -8.296875 -1.734375q-3.59375 -1.734375 -5.671875 -5.328125q-2.078125 -3.609375 -2.078125 -9.046875q0 -5.53125 1.875 -9.1875q1.875 -3.671875 5.25 -5.515625q3.375 -1.859375 7.8125 -1.859375zm0.234375 6.171875q-2.59375 0 -4.21875 1.65625q-1.609375 1.640625 -1.890625 4.875l11.890625 0q0 -1.90625 -0.640625 -3.34375q-0.640625 -1.453125 -1.9375 -2.3125q-1.296875 -0.875 -3.203125 -0.875zm34.86435 -6.171875q5.9375 0 9.046875 2.796875q3.125 2.796875 3.125 8.28125l0 21.015625l-6.046875 0l-1.6875 -4.265625l-0.21875 0q-1.328125 1.671875 -2.75 2.765625q-1.40625 1.09375 -3.265625 1.578125q-1.84375 0.5 -4.5 0.5q-2.765625 0 -4.96875 -1.0625q-2.1875 -1.078125 -3.453125 -3.265625q-1.265625 -2.1875 -1.265625 -5.546875q0 -4.953125 3.578125 -7.4375q3.578125 -2.484375 10.671875 -2.78125l5.25 -0.171875l0 -0.96875q0 -2.828125 -1.265625 -3.953125q-1.265625 -1.140625 -3.578125 -1.140625q-2.140625 0 -4.390625 0.703125q-2.25 0.6875 -4.4375 1.671875l-2.546875 -5.953125q2.484375 -1.265625 5.6875 -2.015625q3.203125 -0.75 7.015625 -0.75zm0.234375 17.65625q-4.09375 0.125 -5.71875 1.34375q-1.609375 1.203125 -1.609375 3.390625q0 2.03125 1.125 2.984375q1.125 0.953125 3.03125 0.953125q2.703125 0 4.578125 -1.609375q1.875 -1.625 1.875 -4.625l0 -2.609375l-3.28125 0.171875zm30.589142 15.015625q-5.203125 0 -8.515625 -4.125q-3.3125 -4.125 -3.3125 -12.15625q0 -8.140625 3.34375 -12.265625q3.34375 -4.125 8.765625 -4.125q2.25 0 3.890625 0.609375q1.65625 0.609375 2.859375 1.65625q1.21875 1.03125 2.09375 2.359375l0.28125 0q-0.171875 -1.046875 -0.328125 -2.921875q-0.140625 -1.875 -0.140625 -3.4375l0 -10.03125l8.78125 0l0 43.859375l-6.703125 0l-1.71875 -4.09375l-0.359375 0q-0.796875 1.328125 -2.015625 2.375q-1.203125 1.03125 -2.90625 1.671875q-1.703125 0.625 -4.015625 0.625zm3.0625 -6.984375q3.578125 0 5.015625 -2.046875q1.4375 -2.046875 1.4375 -6.265625l0 -0.921875q0 -4.5625 -1.390625 -6.984375q-1.375 -2.421875 -5.125 -2.421875q-2.828125 0 -4.421875 2.421875q-1.578125 2.421875 -1.578125 7.046875q0 4.609375 1.578125 6.890625q1.59375 2.28125 4.484375 2.28125zm36.525146 -25.6875q4.390625 0 7.5625 1.65625q3.171875 1.640625 4.875 4.84375q1.703125 3.203125 1.703125 7.8125l0 4.21875l-20.25 0q0.109375 3.578125 2.1875 5.625q2.078125 2.046875 5.953125 2.046875q2.9375 0 5.359375 -0.578125q2.421875 -0.578125 4.96875 -1.734375l0 6.53125q-2.3125 1.15625 -4.890625 1.703125q-2.5625 0.546875 -6.359375 0.546875q-4.6875 0 -8.296875 -1.734375q-3.59375 -1.734375 -5.671875 -5.328125q-2.078125 -3.609375 -2.078125 -9.046875q0 -5.53125 1.875 -9.1875q1.875 -3.671875 5.25 -5.515625q3.375 -1.859375 7.8125 -1.859375zm0.234375 6.171875q-2.59375 0 -4.21875 1.65625q-1.609375 1.640625 -1.890625 4.875l11.890625 0q0 -1.90625 -0.640625 -3.34375q-0.640625 -1.453125 -1.9375 -2.3125q-1.296875 -0.875 -3.203125 -0.875zm38.2081 -6.171875q0.875 0 1.875 0.09375q1.015625 0.078125 1.59375 0.25l-0.875 8.140625q-0.625 -0.109375 -1.5 -0.21875q-0.859375 -0.125 -2.078125 -0.125q-1.328125 0 -2.6875 0.40625q-1.34375 0.40625 -2.5 1.328125q-1.15625 0.921875 -1.859375 2.421875q-0.6875 1.5 -0.6875 3.8125l0 15.984375l-8.703125 0l0 -31.515625l6.625 0l1.28125 5.3125l0.40625 0q0.921875 -1.671875 2.296875 -3.0q1.390625 -1.328125 3.125 -2.109375q1.734375 -0.78125 3.6875 -0.78125z" fill-rule="nonzero"/><path fill="#c9daf8" d="m45.97572 172.16695l598.80316 0l0 278.45667l-598.80316 0z" fill-rule="evenodd"/><path fill="#000000" d="m307.67017 313.74118l0 -4.015625l-15.5 0l0 -12.734375l18.078125 0l0 -4.046875l-22.859375 0l0 37.25l4.78125 0l0 -16.453125l15.5 0zm11.455139 -11.21875l0 4.109375l9.421875 0l0 19.46875l-9.421875 0l0 4.09375l23.1875 0l0 -4.09375l-9.03125 0l0 -23.578125l-14.15625 0zm8.8125 -7.265625q0 1.140625 0.703125 1.90625q0.703125 0.765625 2.125 0.765625q1.40625 0 2.125 -0.765625q0.71875 -0.765625 0.71875 -1.90625q0 -0.640625 -0.203125 -1.171875q-0.203125 -0.546875 -0.609375 -0.90625q-0.34375 -0.328125 -0.859375 -0.515625q-0.5 -0.203125 -1.171875 -0.203125q-0.65625 0 -1.1875 0.203125q-0.515625 0.1875 -0.859375 0.515625q-0.40625 0.390625 -0.59375 0.921875q-0.1875 0.53125 -0.1875 1.15625zm22.626984 -4.359375l0 4.125l9.421875 0l0 31.078125l-9.421875 0l0 4.09375l23.1875 0l0 -4.09375l-9.03125 0l0 -35.203125l-14.15625 0zm42.92386 39.8125q4.046875 0 6.796875 -1.625q2.75 -1.625 4.140625 -3.71875l-2.890625 -2.265625q-1.3125 1.703125 -3.28125 2.734375q-1.96875 1.015625 -4.5 1.015625q-1.921875 0 -3.515625 -0.71875q-1.578125 -0.71875 -2.703125 -1.96875q-1.09375 -1.1875 -1.734375 -2.71875q-0.625 -1.53125 -0.796875 -3.546875l0 -0.1875l19.765625 0l0 -2.125q0 -2.890625 -0.734375 -5.359375q-0.71875 -2.484375 -2.203125 -4.328125q-1.484375 -1.828125 -3.71875 -2.859375q-2.234375 -1.03125 -5.234375 -1.03125q-2.375 0 -4.640625 0.96875q-2.265625 0.96875 -4.03125 2.78125q-1.78125 1.84375 -2.859375 4.5q-1.078125 2.640625 -1.078125 6.0l0 1.0625q0 2.890625 0.96875 5.359375q0.96875 2.453125 2.71875 4.234375q1.734375 1.796875 4.171875 2.796875q2.453125 1.0 5.359375 1.0zm-0.609375 -24.8125q1.8125 0 3.125 0.671875q1.328125 0.65625 2.203125 1.734375q0.859375 1.0625 1.34375 2.546875q0.5 1.46875 0.5 2.734375l0 0.234375l-14.890625 0q0.28125 -1.921875 0.984375 -3.390625q0.703125 -1.46875 1.71875 -2.484375q1.03125 -1.0 2.296875 -1.515625q1.28125 -0.53125 2.71875 -0.53125z" fill-rule="nonzero"/><path fill="#000000" fill-opacity="0.0" d="m45.97572 172.16695l356.59845 0l0 99.779526l-356.59845 0z" fill-rule="evenodd"/><path fill="#000000" d="m82.97572 207.376q3.328125 0 5.484375 0.84375q2.15625 0.84375 3.203125 2.53125q1.046875 1.671875 1.046875 4.21875q0 2.140625 -0.796875 3.5625q-0.78125 1.421875 -2.0 2.265625q-1.203125 0.828125 -2.5625 1.328125l7.34375 11.96875l-3.9375 0l-6.46875 -11.046875l-5.3125 0l0 11.046875l-3.375 0l0 -26.71875l7.375 0zm-0.1875 2.921875l-3.8125 0l0 9.90625l4.0 0q3.25 0 4.75 -1.28125q1.5 -1.296875 1.5 -3.796875q0 -1.765625 -0.703125 -2.8125q-0.6875 -1.046875 -2.109375 -1.53125q-1.421875 -0.484375 -3.625 -0.484375zm23.385818 3.359375q2.59375 0 4.4375 1.125q1.859375 1.125 2.84375 3.171875q1.0 2.03125 1.0 4.765625l0 1.984375l-13.734375 0q0.0625 3.40625 1.734375 5.1875q1.671875 1.765625 4.65625 1.765625q1.90625 0 3.390625 -0.34375q1.484375 -0.359375 3.046875 -1.03125l0 2.875q-1.53125 0.671875 -3.03125 0.984375q-1.5 0.328125 -3.546875 0.328125q-2.84375 0 -5.046875 -1.15625q-2.1875 -1.171875 -3.40625 -3.46875q-1.203125 -2.296875 -1.203125 -5.625q0 -3.296875 1.09375 -5.65625q1.109375 -2.359375 3.109375 -3.625q2.0 -1.28125 4.65625 -1.28125zm-0.03125 2.703125q-2.359375 0 -3.734375 1.515625q-1.359375 1.515625 -1.625 4.203125l10.21875 0q0 -1.71875 -0.53125 -2.984375q-0.515625 -1.28125 -1.578125 -2.0q-1.0625 -0.734375 -2.75 -0.734375zm20.996597 -2.65625q3.65625 0 5.421875 1.609375q1.765625 1.609375 1.765625 5.125l0 13.65625l-2.40625 0l-0.625 -2.84375l-0.15625 0q-0.859375 1.078125 -1.78125 1.8125q-0.90625 0.734375 -2.09375 1.0625q-1.171875 0.34375 -2.859375 0.34375q-1.796875 0 -3.234375 -0.625q-1.4375 -0.640625 -2.265625 -1.96875q-0.828125 -1.34375 -0.828125 -3.359375q0 -2.984375 2.359375 -4.609375q2.359375 -1.640625 7.265625 -1.78125l3.40625 -0.125l0 -1.1875q0 -2.515625 -1.09375 -3.484375q-1.078125 -0.96875 -3.0625 -0.96875q-1.578125 0 -3.0 0.46875q-1.421875 0.46875 -2.65625 1.0625l-1.015625 -2.46875q1.3125 -0.71875 3.109375 -1.21875q1.796875 -0.5 3.75 -0.5zm0.96875 10.703125q-3.734375 0.140625 -5.1875 1.1875q-1.4375 1.046875 -1.4375 2.96875q0 1.671875 1.03125 2.46875q1.03125 0.78125 2.640625 0.78125q2.546875 0 4.21875 -1.40625q1.6875 -1.40625 1.6875 -4.328125l0 -1.78125l-2.953125 0.109375zm19.540588 10.0625q-3.75 0 -6.0 -2.59375q-2.234375 -2.609375 -2.234375 -7.765625q0 -5.171875 2.265625 -7.8125q2.265625 -2.640625 6.0 -2.640625q1.578125 0 2.734375 0.40625q1.15625 0.390625 2.015625 1.0625q0.859375 0.671875 1.46875 1.5l0.21875 0q-0.03125 -0.5 -0.125 -1.453125q-0.09375 -0.953125 -0.09375 -1.515625l0 -8.0l3.28125 0l0 28.4375l-2.65625 0l-0.484375 -2.6875l-0.140625 0q-0.609375 0.859375 -1.46875 1.546875q-0.859375 0.6875 -2.046875 1.109375q-1.171875 0.40625 -2.734375 0.40625zm0.515625 -2.734375q3.1875 0 4.46875 -1.734375q1.296875 -1.75 1.296875 -5.265625l0 -0.59375q0 -3.75 -1.234375 -5.75q-1.234375 -2.0 -4.5625 -2.0q-2.65625 0 -3.984375 2.125q-1.328125 2.109375 -1.328125 5.65625q0 3.59375 1.328125 5.578125q1.328125 1.984375 4.015625 1.984375zm40.71295 -4.78125q0 2.390625 -1.15625 4.0625q-1.15625 1.65625 -3.3125 2.5625q-2.15625 0.890625 -5.0625 0.890625q-1.5 0 -2.875 -0.15625q-1.359375 -0.140625 -2.484375 -0.421875q-1.125 -0.28125 -1.984375 -0.6875l0 -3.21875q1.34375 0.59375 3.34375 1.078125q2.015625 0.484375 4.140625 0.484375q1.984375 0 3.328125 -0.515625q1.359375 -0.53125 2.03125 -1.5q0.671875 -0.96875 0.671875 -2.28125q0 -1.3125 -0.5625 -2.203125q-0.5625 -0.90625 -1.9375 -1.671875q-1.359375 -0.765625 -3.796875 -1.625q-1.71875 -0.640625 -3.015625 -1.359375q-1.28125 -0.734375 -2.140625 -1.671875q-0.859375 -0.9375 -1.296875 -2.140625q-0.421875 -1.203125 -0.421875 -2.765625q0 -2.140625 1.078125 -3.65625q1.09375 -1.515625 3.015625 -2.328125q1.921875 -0.828125 4.4375 -0.828125q2.203125 0 4.03125 0.421875q1.84375 0.40625 3.34375 1.078125l-1.046875 2.875q-1.390625 -0.59375 -3.015625 -1.0q-1.625 -0.421875 -3.390625 -0.421875q-1.6875 0 -2.8125 0.484375q-1.125 0.484375 -1.6875 1.375q-0.546875 0.875 -0.546875 2.03125q0 1.359375 0.546875 2.25q0.5625 0.890625 1.828125 1.609375q1.28125 0.703125 3.453125 1.53125q2.359375 0.859375 3.984375 1.859375q1.640625 0.984375 2.46875 2.375q0.84375 1.375 0.84375 3.484375zm11.638397 4.828125q0.75 0 1.53125 -0.125q0.796875 -0.140625 1.28125 -0.296875l0 2.515625q-0.53125 0.25 -1.5 0.421875q-0.96875 0.171875 -1.875 0.171875q-1.5625 0 -2.890625 -0.546875q-1.328125 -0.546875 -2.15625 -1.890625q-0.828125 -1.34375 -0.828125 -3.78125l0 -11.671875l-2.84375 0l0 -1.5625l2.890625 -1.3125l1.3125 -4.265625l1.9375 0l0 4.59375l5.796875 0l0 2.546875l-5.796875 0l0 11.609375q0 1.828125 0.875 2.71875q0.890625 0.875 2.265625 0.875zm16.165573 -18.125q0.5625 0 1.21875 0.0625q0.65625 0.0625 1.140625 0.171875l-0.40625 3.03125q-0.484375 -0.109375 -1.078125 -0.1875q-0.578125 -0.078125 -1.09375 -0.078125q-1.15625 0 -2.203125 0.484375q-1.046875 0.484375 -1.875 1.375q-0.828125 0.875 -1.296875 2.109375q-0.46875 1.234375 -0.46875 2.765625l0 10.703125l-3.28125 0l0 -20.0625l2.6875 0l0.375 3.671875l0.15625 0q0.625 -1.125 1.515625 -2.03125q0.90625 -0.921875 2.0625 -1.46875q1.171875 -0.546875 2.546875 -0.546875zm13.097397 0q2.59375 0 4.4375 1.125q1.859375 1.125 2.84375 3.171875q1.0 2.03125 1.0 4.765625l0 1.984375l-13.734375 0q0.0625 3.40625 1.734375 5.1875q1.671875 1.765625 4.65625 1.765625q1.90625 0 3.390625 -0.34375q1.484375 -0.359375 3.046875 -1.03125l0 2.875q-1.53125 0.671875 -3.03125 0.984375q-1.5 0.328125 -3.546875 0.328125q-2.84375 0 -5.046875 -1.15625q-2.1875 -1.171875 -3.40625 -3.46875q-1.203125 -2.296875 -1.203125 -5.625q0 -3.296875 1.09375 -5.65625q1.109375 -2.359375 3.109375 -3.625q2.0 -1.28125 4.65625 -1.28125zm-0.03125 2.703125q-2.359375 0 -3.734375 1.515625q-1.359375 1.515625 -1.625 4.203125l10.21875 0q0 -1.71875 -0.53125 -2.984375q-0.515625 -1.28125 -1.578125 -2.0q-1.0625 -0.734375 -2.75 -0.734375zm20.996597 -2.65625q3.65625 0 5.421875 1.609375q1.765625 1.609375 1.765625 5.125l0 13.65625l-2.40625 0l-0.625 -2.84375l-0.15625 0q-0.859375 1.078125 -1.78125 1.8125q-0.90625 0.734375 -2.09375 1.0625q-1.171875 0.34375 -2.859375 0.34375q-1.796875 0 -3.234375 -0.625q-1.4375 -0.640625 -2.265625 -1.96875q-0.828125 -1.34375 -0.828125 -3.359375q0 -2.984375 2.359375 -4.609375q2.359375 -1.640625 7.265625 -1.78125l3.40625 -0.125l0 -1.1875q0 -2.515625 -1.09375 -3.484375q-1.078125 -0.96875 -3.0625 -0.96875q-1.578125 0 -3.0 0.46875q-1.421875 0.46875 -2.65625 1.0625l-1.015625 -2.46875q1.3125 -0.71875 3.109375 -1.21875q1.796875 -0.5 3.75 -0.5zm0.96875 10.703125q-3.734375 0.140625 -5.1875 1.1875q-1.4375 1.046875 -1.4375 2.96875q0 1.671875 1.03125 2.46875q1.03125 0.78125 2.640625 0.78125q2.546875 0 4.21875 -1.40625q1.6875 -1.40625 1.6875 -4.328125l0 -1.78125l-2.953125 0.109375zm34.431213 -10.75q3.40625 0 5.078125 1.75q1.6875 1.734375 1.6875 5.625l0 13.0625l-3.25 0l0 -12.90625q0 -2.359375 -1.0 -3.546875q-0.984375 -1.203125 -3.078125 -1.203125q-2.921875 0 -4.171875 1.6875q-1.25 1.671875 -1.25 4.890625l0 11.078125l-3.265625 0l0 -12.90625q0 -1.578125 -0.453125 -2.640625q-0.4375 -1.0625 -1.34375 -1.578125q-0.890625 -0.53125 -2.3125 -0.53125q-2.03125 0 -3.1875 0.84375q-1.15625 0.828125 -1.671875 2.4375q-0.5 1.609375 -0.5 3.96875l0 10.40625l-3.28125 0l0 -20.0625l2.65625 0l0.484375 2.734375l0.1875 0q0.625 -1.046875 1.546875 -1.734375q0.921875 -0.703125 2.046875 -1.03125q1.125 -0.34375 2.3125 -0.34375q2.328125 0 3.875 0.828125q1.546875 0.828125 2.265625 2.546875l0.1875 0q1.015625 -1.71875 2.75 -2.546875q1.734375 -0.828125 3.6875 -0.828125z" fill-rule="nonzero"/><path fill="#000000" fill-opacity="0.0" d="m644.7789 311.3953l327.4803 0l0 0.1574707l327.48035 0" fill-rule="evenodd"/><path stroke="#000000" stroke-width="2.5354330708661417" stroke-linejoin="round" stroke-linecap="butt" d="m644.7789 311.3953l327.4803 0l0 0.1574707l327.48035 0" fill-rule="evenodd"/><path fill="#fce5cd" d="m776.5467 253.52654l365.22833 0l0 115.9055l-365.22833 0z" fill-rule="evenodd"/><path fill="#000000" d="m818.4684 312.19684l0 -2.328125l-9.03125 0l0 -6.953125l10.390625 0l0 -2.34375l-13.140625 0l0 21.625l13.28125 0l0 -2.328125l-10.53125 0l0 -7.671875l9.03125 0zm6.3498535 10.0l2.75 0l0 -11.53125q0.28125 -0.515625 0.65625 -0.9375q0.390625 -0.4375 0.828125 -0.765625q0.5625 -0.375 1.203125 -0.578125q0.65625 -0.21875 1.421875 -0.21875q0.875 0 1.546875 0.203125q0.671875 0.203125 1.15625 0.671875q0.453125 0.453125 0.6875 1.203125q0.25 0.734375 0.25 1.8125l0 10.140625l2.734375 0l0 -10.203125q0 -1.609375 -0.390625 -2.765625q-0.390625 -1.171875 -1.109375 -1.9375q-0.734375 -0.75 -1.765625 -1.109375q-1.03125 -0.359375 -2.296875 -0.359375q-0.9375 0.015625 -1.78125 0.28125q-0.828125 0.265625 -1.546875 0.734375q-0.46875 0.3125 -0.90625 0.734375q-0.421875 0.421875 -0.765625 0.921875l-0.203125 -2.375l-2.46875 0l0 16.078125zm25.115479 -1.9375q-1.296875 0 -2.171875 -0.5q-0.859375 -0.515625 -1.390625 -1.34375q-0.53125 -0.828125 -0.765625 -1.859375q-0.21875 -1.03125 -0.21875 -2.078125l0 -0.625q0 -1.046875 0.21875 -2.0625q0.234375 -1.03125 0.765625 -1.859375q0.546875 -0.828125 1.40625 -1.328125q0.875 -0.515625 2.15625 -0.515625q0.828125 0 1.546875 0.28125q0.71875 0.28125 1.234375 0.765625q0.53125 0.5 0.828125 1.140625q0.3125 0.640625 0.328125 1.375l2.59375 0q0 -1.21875 -0.5 -2.28125q-0.484375 -1.078125 -1.34375 -1.859375q-0.875 -0.78125 -2.078125 -1.234375q-1.1875 -0.453125 -2.609375 -0.453125q-1.828125 0 -3.203125 0.65625q-1.359375 0.65625 -2.265625 1.75q-0.921875 1.125 -1.390625 2.578125q-0.453125 1.453125 -0.453125 3.046875l0 0.625q0 1.59375 0.453125 3.046875q0.46875 1.453125 1.390625 2.546875q0.90625 1.109375 2.265625 1.765625q1.375 0.65625 3.203125 0.65625q1.265625 0 2.4375 -0.4375q1.1875 -0.4375 2.09375 -1.1875q0.90625 -0.71875 1.4375 -1.6875q0.546875 -0.984375 0.5625 -2.046875l-2.59375 0q-0.015625 0.671875 -0.359375 1.25q-0.328125 0.5625 -0.875 0.96875q-0.546875 0.4375 -1.265625 0.671875q-0.703125 0.234375 -1.4375 0.234375zm10.6311035 -6.25l0 0.328125q0 1.734375 0.5 3.21875q0.515625 1.484375 1.453125 2.59375q0.9375 1.09375 2.296875 1.71875q1.359375 0.625 3.078125 0.625q1.6875 0 3.03125 -0.625q1.359375 -0.625 2.3125 -1.71875q0.9375 -1.109375 1.4375 -2.59375q0.5 -1.484375 0.5 -3.21875l0 -0.328125q0 -1.734375 -0.5 -3.21875q-0.5 -1.5 -1.4375 -2.59375q-0.953125 -1.109375 -2.3125 -1.734375q-1.359375 -0.640625 -3.0625 -0.640625q-1.703125 0 -3.0625 0.640625q-1.34375 0.625 -2.28125 1.734375q-0.9375 1.09375 -1.453125 2.59375q-0.5 1.484375 -0.5 3.21875zm2.75 0.328125l0 -0.328125q0 -1.171875 0.28125 -2.25q0.28125 -1.078125 0.859375 -1.890625q0.5625 -0.8125 1.40625 -1.296875q0.859375 -0.484375 2.0 -0.484375q1.140625 0 1.984375 0.484375q0.859375 0.484375 1.4375 1.296875q0.578125 0.8125 0.859375 1.890625q0.296875 1.078125 0.296875 2.25l0 0.328125q0 1.1875 -0.296875 2.265625q-0.28125 1.078125 -0.84375 1.890625q-0.578125 0.828125 -1.4375 1.296875q-0.84375 0.46875 -1.96875 0.46875q-1.15625 0 -2.015625 -0.46875q-0.859375 -0.46875 -1.421875 -1.296875q-0.578125 -0.8125 -0.859375 -1.890625q-0.28125 -1.078125 -0.28125 -2.265625zm15.7561035 -0.3125l0 0.3125q0 1.71875 0.453125 3.21875q0.46875 1.484375 1.296875 2.59375q0.84375 1.09375 2.015625 1.71875q1.1875 0.625 2.640625 0.625q1.484375 0 2.59375 -0.5q1.125 -0.515625 1.921875 -1.484375l0.125 1.6875l2.515625 0l0 -22.8125l-2.75 0l0 8.328125q-0.78125 -0.921875 -1.859375 -1.40625q-1.078125 -0.484375 -2.515625 -0.484375q-1.46875 0 -2.65625 0.609375q-1.1875 0.609375 -2.03125 1.703125q-0.84375 1.078125 -1.296875 2.59375q-0.453125 1.5 -0.453125 3.296875zm2.75 0.3125l0 -0.3125q0 -1.171875 0.25 -2.234375q0.25 -1.0625 0.796875 -1.875q0.515625 -0.8125 1.328125 -1.28125q0.828125 -0.46875 2.0 -0.46875q1.34375 0 2.25 0.625q0.90625 0.625 1.4375 1.609375l0 7.453125q-0.53125 1.0625 -1.4375 1.6875q-0.90625 0.625 -2.28125 0.625q-1.15625 0 -1.96875 -0.46875q-0.8125 -0.46875 -1.328125 -1.265625q-0.546875 -0.8125 -0.796875 -1.859375q-0.25 -1.0625 -0.25 -2.234375zm23.131104 8.15625q2.34375 0 3.9375 -0.9375q1.59375 -0.953125 2.40625 -2.171875l-1.6875 -1.296875q-0.75 0.96875 -1.90625 1.5625q-1.140625 0.59375 -2.609375 0.59375q-1.109375 0 -2.03125 -0.40625q-0.921875 -0.421875 -1.578125 -1.140625q-0.640625 -0.6875 -1.0 -1.578125q-0.359375 -0.890625 -0.46875 -2.0625l0 -0.109375l11.484375 0l0 -1.234375q0 -1.671875 -0.421875 -3.109375q-0.421875 -1.453125 -1.28125 -2.515625q-0.859375 -1.0625 -2.171875 -1.65625q-1.296875 -0.609375 -3.03125 -0.609375q-1.375 0 -2.703125 0.578125q-1.3125 0.5625 -2.328125 1.609375q-1.046875 1.078125 -1.671875 2.609375q-0.625 1.53125 -0.625 3.484375l0 0.625q0 1.671875 0.5625 3.109375q0.578125 1.421875 1.578125 2.453125q1.015625 1.046875 2.421875 1.625q1.421875 0.578125 3.125 0.578125zm-0.359375 -14.40625q1.0625 0 1.8125 0.390625q0.765625 0.375 1.28125 1.0q0.5 0.625 0.78125 1.484375q0.28125 0.84375 0.28125 1.59375l0 0.140625l-8.640625 0q0.15625 -1.125 0.5625 -1.96875q0.421875 -0.859375 1.015625 -1.453125q0.59375 -0.578125 1.328125 -0.875q0.75 -0.3125 1.578125 -0.3125zm10.9904785 5.9375l0 0.3125q0 1.71875 0.453125 3.21875q0.46875 1.484375 1.296875 2.59375q0.84375 1.09375 2.015625 1.71875q1.1875 0.625 2.640625 0.625q1.484375 0 2.59375 -0.5q1.125 -0.515625 1.921875 -1.484375l0.125 1.6875l2.515625 0l0 -22.8125l-2.75 0l0 8.328125q-0.78125 -0.921875 -1.859375 -1.40625q-1.078125 -0.484375 -2.515625 -0.484375q-1.46875 0 -2.65625 0.609375q-1.1875 0.609375 -2.03125 1.703125q-0.84375 1.078125 -1.296875 2.59375q-0.453125 1.5 -0.453125 3.296875zm2.75 0.3125l0 -0.3125q0 -1.171875 0.25 -2.234375q0.25 -1.0625 0.796875 -1.875q0.515625 -0.8125 1.328125 -1.28125q0.828125 -0.46875 2.0 -0.46875q1.34375 0 2.25 0.625q0.90625 0.625 1.4375 1.609375l0 7.453125q-0.53125 1.0625 -1.4375 1.6875q-0.90625 0.625 -2.28125 0.625q-1.15625 0 -1.96875 -0.46875q-0.8125 -0.46875 -1.328125 -1.265625q-0.546875 -0.8125 -0.796875 -1.859375q-0.25 -1.0625 -0.25 -2.234375zm21.334229 7.859375l2.390625 0l6.8125 -21.625l-2.921875 0l-4.78125 16.109375l-0.328125 1.09375l-0.3125 -1.0625l-4.75 -16.140625l-2.953125 0l6.84375 21.625zm13.3811035 -16.078125l0 2.390625l5.46875 0l0 11.3125l-5.46875 0l0 2.375l13.453125 0l0 -2.375l-5.234375 0l0 -13.703125l-8.21875 0zm5.109375 -4.21875q0 0.671875 0.40625 1.125q0.40625 0.4375 1.25 0.4375q0.8125 0 1.21875 -0.4375q0.421875 -0.453125 0.421875 -1.125q0 -0.359375 -0.125 -0.671875q-0.109375 -0.3125 -0.34375 -0.53125q-0.203125 -0.1875 -0.5 -0.296875q-0.296875 -0.109375 -0.671875 -0.109375q-0.390625 0 -0.703125 0.109375q-0.296875 0.109375 -0.5 0.296875q-0.234375 0.234375 -0.34375 0.546875q-0.109375 0.3125 -0.109375 0.65625zm12.1936035 12.125l0 0.3125q0 1.71875 0.453125 3.21875q0.46875 1.484375 1.296875 2.59375q0.84375 1.09375 2.015625 1.71875q1.1875 0.625 2.640625 0.625q1.484375 0 2.59375 -0.5q1.125 -0.515625 1.921875 -1.484375l0.125 1.6875l2.515625 0l0 -22.8125l-2.75 0l0 8.328125q-0.78125 -0.921875 -1.859375 -1.40625q-1.078125 -0.484375 -2.515625 -0.484375q-1.46875 0 -2.65625 0.609375q-1.1875 0.609375 -2.03125 1.703125q-0.84375 1.078125 -1.296875 2.59375q-0.453125 1.5 -0.453125 3.296875zm2.75 0.3125l0 -0.3125q0 -1.171875 0.25 -2.234375q0.25 -1.0625 0.796875 -1.875q0.515625 -0.8125 1.328125 -1.28125q0.828125 -0.46875 2.0 -0.46875q1.34375 0 2.25 0.625q0.90625 0.625 1.4375 1.609375l0 7.453125q-0.53125 1.0625 -1.4375 1.6875q-0.90625 0.625 -2.28125 0.625q-1.15625 0 -1.96875 -0.46875q-0.8125 -0.46875 -1.328125 -1.265625q-0.546875 -0.8125 -0.796875 -1.859375q-0.25 -1.0625 -0.25 -2.234375zm23.131104 8.15625q2.34375 0 3.9375 -0.9375q1.59375 -0.953125 2.40625 -2.171875l-1.6875 -1.296875q-0.75 0.96875 -1.90625 1.5625q-1.140625 0.59375 -2.609375 0.59375q-1.109375 0 -2.03125 -0.40625q-0.921875 -0.421875 -1.578125 -1.140625q-0.640625 -0.6875 -1.0 -1.578125q-0.359375 -0.890625 -0.46875 -2.0625l0 -0.109375l11.484375 0l0 -1.234375q0 -1.671875 -0.421875 -3.109375q-0.421875 -1.453125 -1.28125 -2.515625q-0.859375 -1.0625 -2.171875 -1.65625q-1.296875 -0.609375 -3.03125 -0.609375q-1.375 0 -2.703125 0.578125q-1.3125 0.5625 -2.328125 1.609375q-1.046875 1.078125 -1.671875 2.609375q-0.625 1.53125 -0.625 3.484375l0 0.625q0 1.671875 0.5625 3.109375q0.578125 1.421875 1.578125 2.453125q1.015625 1.046875 2.421875 1.625q1.421875 0.578125 3.125 0.578125zm-0.359375 -14.40625q1.0625 0 1.8125 0.390625q0.765625 0.375 1.28125 1.0q0.5 0.625 0.78125 1.484375q0.28125 0.84375 0.28125 1.59375l0 0.140625l-8.640625 0q0.15625 -1.125 0.5625 -1.96875q0.421875 -0.859375 1.015625 -1.453125q0.59375 -0.578125 1.328125 -0.875q0.75 -0.3125 1.578125 -0.3125zm10.7404785 5.921875l0 0.328125q0 1.734375 0.5 3.21875q0.515625 1.484375 1.453125 2.59375q0.9375 1.09375 2.296875 1.71875q1.359375 0.625 3.078125 0.625q1.6875 0 3.03125 -0.625q1.359375 -0.625 2.3125 -1.71875q0.9375 -1.109375 1.4375 -2.59375q0.5 -1.484375 0.5 -3.21875l0 -0.328125q0 -1.734375 -0.5 -3.21875q-0.5 -1.5 -1.4375 -2.59375q-0.953125 -1.109375 -2.3125 -1.734375q-1.359375 -0.640625 -3.0625 -0.640625q-1.703125 0 -3.0625 0.640625q-1.34375 0.625 -2.28125 1.734375q-0.9375 1.09375 -1.453125 2.59375q-0.5 1.484375 -0.5 3.21875zm2.75 0.328125l0 -0.328125q0 -1.171875 0.28125 -2.25q0.28125 -1.078125 0.859375 -1.890625q0.5625 -0.8125 1.40625 -1.296875q0.859375 -0.484375 2.0 -0.484375q1.140625 0 1.984375 0.484375q0.859375 0.484375 1.4375 1.296875q0.578125 0.8125 0.859375 1.890625q0.296875 1.078125 0.296875 2.25l0 0.328125q0 1.1875 -0.296875 2.265625q-0.28125 1.078125 -0.84375 1.890625q-0.578125 0.828125 -1.4375 1.296875q-0.84375 0.46875 -1.96875 0.46875q-1.15625 0 -2.015625 -0.46875q-0.859375 -0.46875 -1.421875 -1.296875q-0.578125 -0.8125 -0.859375 -1.890625q-0.28125 -1.078125 -0.28125 -2.265625zm30.287354 1.359375l-2.75 0q-0.140625 0.96875 -0.46875 1.8125q-0.3125 0.84375 -0.875 1.453125q-0.546875 0.625 -1.34375 0.96875q-0.78125 0.328125 -1.875 0.328125q-1.0 0 -1.75 -0.3125q-0.734375 -0.3125 -1.28125 -0.890625q-0.546875 -0.546875 -0.90625 -1.265625q-0.359375 -0.734375 -0.578125 -1.5625q-0.21875 -0.8125 -0.3125 -1.671875q-0.09375 -0.859375 -0.09375 -1.65625l0 -3.046875q0 -0.796875 0.09375 -1.65625q0.09375 -0.859375 0.3125 -1.671875q0.21875 -0.8125 0.578125 -1.53125q0.375 -0.734375 0.921875 -1.296875q0.53125 -0.546875 1.28125 -0.859375q0.75 -0.328125 1.734375 -0.328125q1.09375 0 1.875 0.375q0.796875 0.359375 1.34375 1.0q0.5625 0.640625 0.875 1.484375q0.328125 0.84375 0.46875 1.828125l2.75 0q-0.171875 -1.546875 -0.734375 -2.828125q-0.5625 -1.28125 -1.484375 -2.203125q-0.921875 -0.90625 -2.203125 -1.390625q-1.265625 -0.5 -2.890625 -0.5q-1.34375 0 -2.4375 0.375q-1.078125 0.375 -1.921875 1.046875q-0.859375 0.671875 -1.484375 1.59375q-0.609375 0.90625 -1.015625 1.96875q-0.421875 1.078125 -0.625 2.25q-0.1875 1.171875 -0.203125 2.375l0 3.015625q0.015625 1.203125 0.203125 2.375q0.203125 1.171875 0.625 2.25q0.40625 1.0625 1.015625 1.96875q0.625 0.90625 1.484375 1.578125q0.84375 0.671875 1.9375 1.046875q1.09375 0.375 2.421875 0.375q1.5625 0 2.828125 -0.5q1.28125 -0.5 2.203125 -1.40625q0.921875 -0.890625 1.5 -2.140625q0.59375 -1.25 0.78125 -2.75zm6.9904785 -7.1875l0 -9.125l-2.75 0l0 22.8125l2.75 0l0 -11.671875q0.296875 -0.484375 0.671875 -0.875q0.390625 -0.390625 0.828125 -0.6875q0.5625 -0.390625 1.234375 -0.59375q0.671875 -0.203125 1.421875 -0.203125q0.90625 -0.015625 1.59375 0.25q0.703125 0.25 1.15625 0.765625q0.4375 0.484375 0.65625 1.203125q0.21875 0.71875 0.21875 1.671875l0 10.140625l2.75 0l0 -10.109375q0 -1.625 -0.390625 -2.796875q-0.390625 -1.1875 -1.125 -1.96875q-0.71875 -0.765625 -1.75 -1.125q-1.03125 -0.375 -2.296875 -0.375q-0.96875 0.015625 -1.828125 0.296875q-0.84375 0.265625 -1.5625 0.78125q-0.4375 0.3125 -0.84375 0.71875q-0.40625 0.40625 -0.734375 0.890625zm26.099854 13.6875l2.5 0l0 -16.078125l-2.765625 0l0 11.53125q-0.21875 0.515625 -0.5625 0.953125q-0.328125 0.4375 -0.765625 0.75q-0.546875 0.390625 -1.28125 0.609375q-0.71875 0.21875 -1.640625 0.21875q-0.78125 0 -1.390625 -0.203125q-0.59375 -0.21875 -1.015625 -0.734375q-0.40625 -0.515625 -0.625 -1.375q-0.203125 -0.859375 -0.203125 -2.15625l0 -9.59375l-2.75 0l0 9.5625q0 1.796875 0.390625 3.078125q0.40625 1.28125 1.125 2.109375q0.734375 0.84375 1.75 1.234375q1.03125 0.390625 2.296875 0.390625q1.5625 0 2.765625 -0.65625q1.203125 -0.671875 2.015625 -1.859375l0.15625 2.21875zm7.6623535 0l2.75 0l0 -11.53125q0.28125 -0.515625 0.65625 -0.9375q0.390625 -0.4375 0.828125 -0.765625q0.5625 -0.375 1.203125 -0.578125q0.65625 -0.21875 1.421875 -0.21875q0.875 0 1.546875 0.203125q0.671875 0.203125 1.15625 0.671875q0.453125 0.453125 0.6875 1.203125q0.25 0.734375 0.25 1.8125l0 10.140625l2.734375 0l0 -10.203125q0 -1.609375 -0.390625 -2.765625q-0.390625 -1.171875 -1.109375 -1.9375q-0.734375 -0.75 -1.765625 -1.109375q-1.03125 -0.359375 -2.296875 -0.359375q-0.9375 0.015625 -1.78125 0.28125q-0.828125 0.265625 -1.546875 0.734375q-0.46875 0.3125 -0.90625 0.734375q-0.421875 0.421875 -0.765625 0.921875l-0.203125 -2.375l-2.46875 0l0 16.078125zm23.068604 -7.5l5.90625 7.5l3.484375 0l-7.5 -9.375l6.515625 -6.703125l-3.34375 0l-5.28125 5.296875l-1.796875 1.921875l0 -13.953125l-2.765625 0l0 22.8125l2.765625 0l0 -5.5625l2.015625 -1.9375z" fill-rule="nonzero"/><path fill="#000000" d="m693.13654 291.23074l35.055115 20.251953l-35.055115 20.251984z" fill-rule="evenodd"/><path fill="#000000" d="m1227.7046 291.23074l35.055176 20.251953l-35.055176 20.251984z" fill-rule="evenodd"/></g></svg>