<svg version="1.1" viewBox="0.0 0.0 1344.0 576.0" fill="none" stroke="none" stroke-linecap="square" stroke-miterlimit="10" xmlns:xlink="http://www.w3.org/1999/xlink" xmlns="http://www.w3.org/2000/svg"><clipPath id="p.0"><path d="m0 0l1344.0 0l0 576.0l-1344.0 0l0 -576.0z" clip-rule="nonzero"/></clipPath><g clip-path="url(#p.0)"><path fill="#ffffff" d="m0 0l1344.0 0l0 576.0l-1344.0 0z" fill-rule="evenodd"/><path fill="#d9ead3" d="m462.58667 208.42522l397.16534 0l0 184.72441l-397.16534 0z" fill-rule="evenodd"/><path fill="#000000" d="m540.6066 294.44595q-2.0 0 -3.578125 0.875q-1.5625 0.875 -2.6875 2.390625l-0.015625 -0.46875l-0.140625 -2.453125l-2.984375 0l0 18.359375l3.15625 0l0 -11.78125q0.3125 -0.84375 0.78125 -1.53125q0.46875 -0.6875 1.09375 -1.15625q0.6875 -0.546875 1.625 -0.828125q0.9375 -0.28125 2.09375 -0.28125q0.890625 0 1.703125 0.09375q0.828125 0.09375 1.75 0.296875l0.421875 -3.0625q-0.46875 -0.21875 -1.421875 -0.328125q-0.9375 -0.125 -1.796875 -0.125zm16.931519 19.046875q2.6875 0 4.5 -1.078125q1.828125 -1.078125 2.75 -2.46875l-1.921875 -1.5q-0.859375 1.125 -2.171875 1.8125q-1.3125 0.671875 -2.984375 0.671875q-1.28125 0 -2.328125 -0.46875q-1.046875 -0.484375 -1.796875 -1.3125q-0.734375 -0.78125 -1.15625 -1.796875q-0.40625 -1.03125 -0.515625 -2.359375l0 -0.125l13.109375 0l0 -1.40625q0 -1.921875 -0.484375 -3.5625q-0.484375 -1.640625 -1.46875 -2.875q-0.984375 -1.203125 -2.46875 -1.890625q-1.484375 -0.6875 -3.46875 -0.6875q-1.578125 0 -3.078125 0.65625q-1.5 0.640625 -2.671875 1.84375q-1.1875 1.21875 -1.90625 2.984375q-0.703125 1.75 -0.703125 3.96875l0 0.71875q0 1.90625 0.640625 3.546875q0.640625 1.625 1.796875 2.8125q1.15625 1.1875 2.765625 1.859375q1.625 0.65625 3.5625 0.65625zm-0.40625 -16.46875q1.203125 0 2.078125 0.453125q0.875 0.4375 1.453125 1.140625q0.578125 0.71875 0.890625 1.703125q0.328125 0.96875 0.328125 1.8125l0 0.15625l-9.875 0q0.1875 -1.265625 0.65625 -2.234375q0.46875 -0.984375 1.140625 -1.671875q0.6875 -0.65625 1.53125 -1.0q0.84375 -0.359375 1.796875 -0.359375zm13.150269 16.125l3.140625 0l0 -13.171875q0.3125 -0.59375 0.75 -1.078125q0.4375 -0.5 0.9375 -0.875q0.640625 -0.421875 1.375 -0.65625q0.75 -0.25 1.625 -0.25q1.0 0 1.765625 0.234375q0.765625 0.234375 1.3125 0.765625q0.53125 0.53125 0.796875 1.375q0.28125 0.84375 0.28125 2.0625l0 11.59375l3.140625 0l0 -11.65625q0 -1.828125 -0.453125 -3.15625q-0.453125 -1.34375 -1.28125 -2.203125q-0.828125 -0.875 -2.015625 -1.28125q-1.171875 -0.40625 -2.625 -0.40625q-1.0625 0.015625 -2.03125 0.3125q-0.953125 0.296875 -1.765625 0.84375q-0.546875 0.359375 -1.03125 0.84375q-0.484375 0.484375 -0.890625 1.0625l-0.21875 -2.71875l-2.8125 0l0 18.359375zm20.259644 -9.328125l0 0.359375q0 1.96875 0.515625 3.671875q0.53125 1.703125 1.484375 2.953125q0.953125 1.25 2.296875 1.96875q1.359375 0.71875 3.015625 0.71875q1.703125 0 2.96875 -0.578125q1.265625 -0.578125 2.1875 -1.703125l0.140625 1.9375l2.875 0l0 -26.0625l-3.125 0l0 9.515625q-0.90625 -1.046875 -2.140625 -1.59375q-1.234375 -0.5625 -2.875 -0.5625q-1.671875 0 -3.03125 0.703125q-1.359375 0.6875 -2.3125 1.9375q-0.96875 1.234375 -1.484375 2.953125q-0.515625 1.71875 -0.515625 3.78125zm3.140625 0.359375l0 -0.359375q0 -1.34375 0.28125 -2.546875q0.296875 -1.21875 0.90625 -2.15625q0.59375 -0.921875 1.53125 -1.453125q0.9375 -0.546875 2.265625 -0.546875q1.546875 0 2.578125 0.71875q1.03125 0.71875 1.65625 1.84375l0 8.515625q-0.625 1.203125 -1.65625 1.921875q-1.03125 0.703125 -2.609375 0.703125q-1.3125 0 -2.25 -0.53125q-0.921875 -0.53125 -1.515625 -1.453125q-0.609375 -0.90625 -0.90625 -2.109375q-0.28125 -1.21875 -0.28125 -2.546875zm26.415894 9.3125q2.6875 0 4.5 -1.078125q1.828125 -1.078125 2.75 -2.46875l-1.921875 -1.5q-0.859375 1.125 -2.171875 1.8125q-1.3125 0.671875 -2.984375 0.671875q-1.28125 0 -2.328125 -0.46875q-1.046875 -0.484375 -1.796875 -1.3125q-0.734375 -0.78125 -1.15625 -1.796875q-0.40625 -1.03125 -0.515625 -2.359375l0 -0.125l13.109375 0l0 -1.40625q0 -1.921875 -0.484375 -3.5625q-0.484375 -1.640625 -1.46875 -2.875q-0.984375 -1.203125 -2.46875 -1.890625q-1.484375 -0.6875 -3.46875 -0.6875q-1.578125 0 -3.078125 0.65625q-1.5 0.640625 -2.671875 1.84375q-1.1875 1.21875 -1.90625 2.984375q-0.703125 1.75 -0.703125 3.96875l0 0.71875q0 1.90625 0.640625 3.546875q0.640625 1.625 1.796875 2.8125q1.15625 1.1875 2.765625 1.859375q1.625 0.65625 3.5625 0.65625zm-0.40625 -16.46875q1.203125 0 2.078125 0.453125q0.875 0.4375 1.453125 1.140625q0.578125 0.71875 0.890625 1.703125q0.328125 0.96875 0.328125 1.8125l0 0.15625l-9.875 0q0.1875 -1.265625 0.65625 -2.234375q0.46875 -0.984375 1.140625 -1.671875q0.6875 -0.65625 1.53125 -1.0q0.84375 -0.359375 1.796875 -0.359375zm25.181519 -2.578125q-2.0 0 -3.578125 0.875q-1.5625 0.875 -2.6875 2.390625l-0.015625 -0.46875l-0.140625 -2.453125l-2.984375 0l0 18.359375l3.15625 0l0 -11.78125q0.3125 -0.84375 0.78125 -1.53125q0.46875 -0.6875 1.09375 -1.15625q0.6875 -0.546875 1.625 -0.828125q0.9375 -0.28125 2.09375 -0.28125q0.890625 0 1.703125 0.09375q0.828125 0.09375 1.75 0.296875l0.421875 -3.0625q-0.46875 -0.21875 -1.421875 -0.328125q-0.9375 -0.125 -1.796875 -0.125zm11.931519 8.671875l0 0.171875q0 2.421875 0.375 4.5625q0.390625 2.140625 1.03125 3.953125q0.625 1.828125 1.46875 3.328125q0.84375 1.515625 1.765625 2.6875q0.921875 1.1875 1.859375 2.0q0.9375 0.828125 1.796875 1.296875l0.65625 -1.90625q-0.6875 -0.5625 -1.375 -1.359375q-0.6875 -0.78125 -1.34375 -1.796875q-0.625 -1.078125 -1.203125 -2.421875q-0.578125 -1.34375 -1.015625 -2.921875q-0.40625 -1.5625 -0.640625 -3.40625q-0.234375 -1.859375 -0.234375 -3.984375l0 -0.234375q0 -2.203125 0.25 -4.125q0.25 -1.921875 0.703125 -3.515625q0.484375 -1.765625 1.1875 -3.25q0.71875 -1.484375 1.5 -2.578125q0.53125 -0.71875 1.078125 -1.296875q0.546875 -0.578125 1.09375 -0.984375l-0.65625 -2.0625q-0.859375 0.46875 -1.796875 1.3125q-0.921875 0.828125 -1.84375 2.0q-0.921875 1.15625 -1.765625 2.671875q-0.84375 1.515625 -1.484375 3.328125q-0.640625 1.828125 -1.03125 3.96875q-0.375 2.140625 -0.375 4.5625zm22.431519 10.03125l3.15625 0l0 -15.9375l7.0625 0l0 -2.421875l-7.0625 0l0 -1.296875q0 -1.140625 0.296875 -2.0q0.296875 -0.875 0.875 -1.421875q0.53125 -0.53125 1.359375 -0.78125q0.828125 -0.265625 1.890625 -0.265625q1.046875 0 1.96875 0.1875q0.9375 0.171875 1.625 0.40625l0.375 -2.59375q-0.4375 -0.125 -0.859375 -0.21875q-0.421875 -0.09375 -0.84375 -0.171875q-0.65625 -0.125 -1.3125 -0.203125q-0.65625 -0.078125 -1.34375 -0.078125q-1.625 0 -2.953125 0.46875q-1.328125 0.453125 -2.25 1.34375q-0.953125 0.90625 -1.46875 2.25q-0.515625 1.328125 -0.515625 3.078125l0 1.296875l-5.0625 0l0 2.421875l5.0625 0l0 15.9375zm28.197144 -18.703125q-2.0 0 -3.578125 0.875q-1.5625 0.875 -2.6875 2.390625l-0.015625 -0.46875l-0.140625 -2.453125l-2.984375 0l0 18.359375l3.15625 0l0 -11.78125q0.3125 -0.84375 0.78125 -1.53125q0.46875 -0.6875 1.09375 -1.15625q0.6875 -0.546875 1.625 -0.828125q0.9375 -0.28125 2.09375 -0.28125q0.890625 0 1.703125 0.09375q0.828125 0.09375 1.75 0.296875l0.421875 -3.0625q-0.46875 -0.21875 -1.421875 -0.328125q-0.9375 -0.125 -1.796875 -0.125zm20.884644 18.703125l3.28125 0l0 -0.265625q-0.3125 -0.765625 -0.484375 -1.796875q-0.171875 -1.03125 -0.171875 -1.9375l0 -8.546875q0 -1.53125 -0.5625 -2.6875q-0.546875 -1.15625 -1.515625 -1.9375q-0.984375 -0.765625 -2.328125 -1.140625q-1.34375 -0.390625 -2.90625 -0.390625q-1.703125 0 -3.0625 0.484375q-1.34375 0.46875 -2.28125 1.234375q-0.953125 0.78125 -1.453125 1.75q-0.5 0.96875 -0.515625 1.96875l3.15625 0q0 -0.578125 0.28125 -1.109375q0.28125 -0.546875 0.796875 -0.9375q0.5 -0.375 1.234375 -0.609375q0.75 -0.25 1.671875 -0.25q1.015625 0 1.8125 0.265625q0.8125 0.25 1.375 0.703125q0.546875 0.46875 0.84375 1.140625q0.3125 0.65625 0.3125 1.484375l0 1.453125l-3.421875 0q-1.921875 0 -3.46875 0.375q-1.546875 0.359375 -2.65625 1.109375q-1.09375 0.765625 -1.703125 1.90625q-0.609375 1.140625 -0.609375 2.640625q0 1.15625 0.453125 2.15625q0.453125 0.984375 1.28125 1.703125q0.8125 0.71875 1.984375 1.15625q1.1875 0.421875 2.65625 0.421875q0.890625 0 1.6875 -0.1875q0.796875 -0.1875 1.515625 -0.515625q0.6875 -0.3125 1.265625 -0.734375q0.59375 -0.4375 1.078125 -0.90625q0.046875 0.578125 0.15625 1.109375q0.109375 0.53125 0.296875 0.890625zm-5.546875 -2.390625q-0.921875 0 -1.625 -0.234375q-0.6875 -0.25 -1.140625 -0.671875q-0.453125 -0.40625 -0.6875 -0.984375q-0.234375 -0.578125 -0.234375 -1.25q0 -0.71875 0.265625 -1.265625q0.265625 -0.5625 0.78125 -0.96875q0.703125 -0.578125 1.90625 -0.859375q1.21875 -0.28125 2.859375 -0.28125l2.90625 0l0 3.71875q-0.265625 0.53125 -0.75 1.046875q-0.46875 0.5 -1.109375 0.875q-0.65625 0.390625 -1.453125 0.640625q-0.796875 0.234375 -1.71875 0.234375zm15.775269 -15.96875l-2.8125 0l0 18.359375l2.984375 0l0 -14.609375q0.109375 -0.265625 0.265625 -0.5q0.15625 -0.25 0.375 -0.4375q0.296875 -0.234375 0.703125 -0.359375q0.421875 -0.125 0.984375 -0.125q0.5 0 0.875 0.125q0.390625 0.125 0.65625 0.390625q0.265625 0.296875 0.390625 0.734375q0.125 0.4375 0.125 1.015625l0 13.765625l2.984375 0l0 -13.75q0 -0.09375 0 -0.171875q0 -0.078125 0 -0.15625q0.0625 -0.421875 0.203125 -0.765625q0.15625 -0.359375 0.4375 -0.625q0.265625 -0.265625 0.671875 -0.40625q0.40625 -0.15625 0.96875 -0.15625q0.53125 0 0.921875 0.140625q0.40625 0.125 0.671875 0.40625q0.25 0.28125 0.390625 0.71875q0.140625 0.4375 0.140625 1.015625l0 13.75l2.984375 0l0 -13.703125q0 -1.328125 -0.3125 -2.296875q-0.296875 -0.984375 -0.875 -1.59375q-0.53125 -0.546875 -1.296875 -0.828125q-0.765625 -0.28125 -1.703125 -0.28125q-0.703125 0.015625 -1.296875 0.1875q-0.578125 0.171875 -1.046875 0.46875q-0.375 0.25 -0.703125 0.59375q-0.3125 0.328125 -0.5625 0.71875q-0.1875 -0.421875 -0.453125 -0.75q-0.25 -0.34375 -0.578125 -0.59375q-0.4375 -0.296875 -1.03125 -0.453125q-0.578125 -0.171875 -1.3125 -0.171875q-1.28125 0.015625 -2.1875 0.5625q-0.90625 0.546875 -1.46875 1.515625l-0.09375 -1.734375zm27.525269 18.703125q2.6875 0 4.5 -1.078125q1.828125 -1.078125 2.75 -2.46875l-1.921875 -1.5q-0.859375 1.125 -2.171875 1.8125q-1.3125 0.671875 -2.984375 0.671875q-1.28125 0 -2.328125 -0.46875q-1.046875 -0.484375 -1.796875 -1.3125q-0.734375 -0.78125 -1.15625 -1.796875q-0.40625 -1.03125 -0.515625 -2.359375l0 -0.125l13.109375 0l0 -1.40625q0 -1.921875 -0.484375 -3.5625q-0.484375 -1.640625 -1.46875 -2.875q-0.984375 -1.203125 -2.46875 -1.890625q-1.484375 -0.6875 -3.46875 -0.6875q-1.578125 0 -3.078125 0.65625q-1.5 0.640625 -2.671875 1.84375q-1.1875 1.21875 -1.90625 2.984375q-0.703125 1.75 -0.703125 3.96875l0 0.71875q0 1.90625 0.640625 3.546875q0.640625 1.625 1.796875 2.8125q1.15625 1.1875 2.765625 1.859375q1.625 0.65625 3.5625 0.65625zm-0.40625 -16.46875q1.203125 0 2.078125 0.453125q0.875 0.4375 1.453125 1.140625q0.578125 0.71875 0.890625 1.703125q0.328125 0.96875 0.328125 1.8125l0 0.15625l-9.875 0q0.1875 -1.265625 0.65625 -2.234375q0.46875 -0.984375 1.140625 -1.671875q0.6875 -0.65625 1.53125 -1.0q0.84375 -0.359375 1.796875 -0.359375zm24.603394 6.265625l0 -0.171875q0 -2.59375 -0.40625 -4.671875q-0.390625 -2.078125 -1.0 -3.859375q-0.625 -1.84375 -1.46875 -3.3125q-0.828125 -1.484375 -1.78125 -2.6875q-0.90625 -1.171875 -1.859375 -2.0q-0.953125 -0.84375 -1.796875 -1.3125l-0.65625 1.921875q0.546875 0.453125 1.140625 1.109375q0.59375 0.640625 1.15625 1.515625q0.734375 1.09375 1.421875 2.578125q0.703125 1.484375 1.1875 3.359375q0.34375 1.3125 0.625 3.171875q0.28125 1.859375 0.28125 4.15625l0 0.234375q0 2.015625 -0.21875 3.796875q-0.203125 1.765625 -0.59375 3.296875q-0.375 1.640625 -0.96875 3.03125q-0.578125 1.390625 -1.203125 2.484375q-0.65625 1.09375 -1.390625 1.921875q-0.734375 0.828125 -1.4375 1.359375l0.65625 1.90625q0.84375 -0.46875 1.78125 -1.296875q0.953125 -0.8125 1.875 -2.0q0.921875 -1.171875 1.765625 -2.6875q0.84375 -1.5 1.484375 -3.328125q0.640625 -1.8125 1.015625 -3.953125q0.390625 -2.140625 0.390625 -4.5625z" fill-rule="nonzero"/><path fill="#000000" fill-opacity="0.0" d="m462.58475 125.53807l630.8662 0l0 76.85039l-630.8662 0z" fill-rule="evenodd"/><path fill="#000000" d="m489.41287 149.9677q5.28125 0 7.8125 2.203125q2.53125 2.1875 2.53125 6.21875q0 1.796875 -0.546875 3.453125q-0.53125 1.640625 -1.78125 2.96875q-1.234375 1.3125 -3.265625 2.0625q-2.03125 0.734375 -4.984375 0.734375l-2.484375 0l0 9.6875l-5.859375 0l0 -27.328125l8.578125 0zm-0.1875 4.78125l-2.53125 0l0 8.03125l1.953125 0q1.609375 0 2.765625 -0.390625q1.171875 -0.40625 1.796875 -1.34375q0.640625 -0.9375 0.640625 -2.46875q0 -1.84375 -1.125 -2.828125q-1.125 -1.0 -3.5 -1.0zm26.491364 1.265625q0.5625 0 1.234375 0.0625q0.671875 0.046875 1.0625 0.171875l-0.578125 5.390625q-0.421875 -0.078125 -1.0 -0.15625q-0.5625 -0.078125 -1.375 -0.078125q-0.875 0 -1.78125 0.28125q-0.890625 0.265625 -1.65625 0.875q-0.765625 0.609375 -1.234375 1.609375q-0.453125 0.984375 -0.453125 2.515625l0 10.609375l-5.78125 0l0 -20.90625l4.40625 0l0.828125 3.53125l0.28125 0q0.609375 -1.109375 1.515625 -1.984375q0.921875 -0.890625 2.0625 -1.40625q1.15625 -0.515625 2.46875 -0.515625zm24.080261 10.796875q0 2.59375 -0.71875 4.625q-0.703125 2.03125 -2.03125 3.40625q-1.3125 1.375 -3.1875 2.109375q-1.875 0.71875 -4.25 0.71875q-2.21875 0 -4.0625 -0.71875q-1.828125 -0.734375 -3.171875 -2.109375q-1.34375 -1.375 -2.109375 -3.40625q-0.765625 -2.03125 -0.765625 -4.625q0 -3.484375 1.21875 -5.890625q1.234375 -2.421875 3.53125 -3.65625q2.296875 -1.25 5.46875 -1.25q2.953125 0 5.203125 1.25q2.265625 1.234375 3.5625 3.65625q1.3125 2.40625 1.3125 5.890625zm-14.40625 0q0 2.03125 0.4375 3.484375q0.453125 1.453125 1.390625 2.21875q0.9375 0.765625 2.46875 0.765625q1.484375 0 2.421875 -0.765625q0.9375 -0.765625 1.359375 -2.21875q0.421875 -1.453125 0.421875 -3.484375q0 -2.078125 -0.4375 -3.484375q-0.4375 -1.421875 -1.359375 -2.15625q-0.921875 -0.75 -2.453125 -0.75q-2.21875 0 -3.234375 1.640625q-1.015625 1.640625 -1.015625 4.75zm28.144531 10.859375q-3.03125 0 -5.3125 -1.125q-2.265625 -1.125 -3.53125 -3.515625q-1.265625 -2.390625 -1.265625 -6.0625q0 -3.875 1.375 -6.28125q1.390625 -2.421875 3.75 -3.546875q2.375 -1.125 5.40625 -1.125q1.828125 0 3.453125 0.390625q1.640625 0.375 2.90625 1.015625l-1.734375 4.375q-1.140625 -0.5 -2.3125 -0.828125q-1.171875 -0.328125 -2.3125 -0.328125q-1.5 0 -2.53125 0.6875q-1.03125 0.6875 -1.578125 2.09375q-0.53125 1.390625 -0.53125 3.5q0 2.0625 0.53125 3.40625q0.546875 1.34375 1.578125 2.015625q1.03125 0.671875 2.453125 0.671875q1.640625 0 3.09375 -0.4375q1.46875 -0.453125 2.765625 -1.171875l0 4.703125q-1.1875 0.734375 -2.6875 1.15625q-1.484375 0.40625 -3.515625 0.40625zm19.565613 -21.65625q2.90625 0 5.0 1.09375q2.109375 1.078125 3.234375 3.203125q1.140625 2.125 1.140625 5.1875l0 2.796875l-13.4375 0q0.078125 2.375 1.453125 3.734375q1.375 1.359375 3.9375 1.359375q1.953125 0 3.5625 -0.375q1.609375 -0.390625 3.296875 -1.15625l0 4.328125q-1.53125 0.765625 -3.234375 1.125q-1.703125 0.359375 -4.234375 0.359375q-3.09375 0 -5.484375 -1.140625q-2.390625 -1.140625 -3.78125 -3.53125q-1.375 -2.40625 -1.375 -6.0q0 -3.671875 1.234375 -6.09375q1.25 -2.4375 3.484375 -3.65625q2.25 -1.234375 5.203125 -1.234375zm0.140625 4.09375q-1.71875 0 -2.796875 1.09375q-1.0625 1.09375 -1.25 3.234375l7.875 0q0 -1.265625 -0.421875 -2.21875q-0.40625 -0.96875 -1.28125 -1.53125q-0.859375 -0.578125 -2.125 -0.578125zm28.603882 11.03125q0 1.984375 -0.9375 3.46875q-0.9375 1.46875 -2.859375 2.265625q-1.90625 0.796875 -4.859375 0.796875q-2.21875 0 -3.90625 -0.28125q-1.671875 -0.28125 -3.25 -0.9375l0 -4.78125q1.6875 0.796875 3.640625 1.265625q1.953125 0.453125 3.359375 0.453125q1.765625 0 2.546875 -0.5q0.796875 -0.5 0.796875 -1.328125q0 -0.578125 -0.40625 -1.03125q-0.40625 -0.46875 -1.421875 -0.96875q-1.015625 -0.5 -2.890625 -1.21875q-1.875 -0.765625 -3.140625 -1.59375q-1.25 -0.828125 -1.890625 -1.96875q-0.625 -1.15625 -0.625 -2.875q0 -2.875 2.265625 -4.375q2.28125 -1.515625 6.03125 -1.515625q2.03125 0 3.765625 0.421875q1.75 0.421875 3.546875 1.1875l-1.6875 3.9375q-1.453125 -0.65625 -2.984375 -1.0625q-1.53125 -0.421875 -2.71875 -0.421875q-1.296875 0 -2.03125 0.40625q-0.71875 0.390625 -0.71875 1.125q0 0.53125 0.390625 0.953125q0.40625 0.421875 1.421875 0.890625q1.015625 0.453125 2.859375 1.171875q1.875 0.734375 3.15625 1.5625q1.28125 0.8125 1.90625 1.984375q0.640625 1.15625 0.640625 2.96875zm19.217163 0q0 1.984375 -0.9375 3.46875q-0.9375 1.46875 -2.859375 2.265625q-1.90625 0.796875 -4.859375 0.796875q-2.21875 0 -3.90625 -0.28125q-1.671875 -0.28125 -3.25 -0.9375l0 -4.78125q1.6875 0.796875 3.640625 1.265625q1.953125 0.453125 3.359375 0.453125q1.765625 0 2.546875 -0.5q0.796875 -0.5 0.796875 -1.328125q0 -0.578125 -0.40625 -1.03125q-0.40625 -0.46875 -1.421875 -0.96875q-1.015625 -0.5 -2.890625 -1.21875q-1.875 -0.765625 -3.140625 -1.59375q-1.25 -0.828125 -1.890625 -1.96875q-0.625 -1.15625 -0.625 -2.875q0 -2.875 2.265625 -4.375q2.28125 -1.515625 6.03125 -1.515625q2.03125 0 3.765625 0.421875q1.75 0.421875 3.546875 1.1875l-1.6875 3.9375q-1.453125 -0.65625 -2.984375 -1.0625q-1.53125 -0.421875 -2.71875 -0.421875q-1.296875 0 -2.03125 0.40625q-0.71875 0.390625 -0.71875 1.125q0 0.53125 0.390625 0.953125q0.40625 0.421875 1.421875 0.890625q1.015625 0.453125 2.859375 1.171875q1.875 0.734375 3.15625 1.5625q1.28125 0.8125 1.90625 1.984375q0.640625 1.15625 0.640625 2.96875z" fill-rule="nonzero"/><path fill="#000000" fill-opacity="0.0" d="m8.255946 310.48822l227.16534 0l0 -9.700806l227.16537 0" fill-rule="evenodd"/><path stroke="#000000" stroke-width="1.6824146981627297" stroke-linejoin="round" stroke-linecap="butt" d="m8.255946 310.48822l227.16534 0l0 -9.700806l227.16537 0" fill-rule="evenodd"/><path fill="#fce5cd" d="m125.25312 272.05783l242.23624 0l0 76.8819l-242.23624 0z" fill-rule="evenodd"/><path fill="#000000" d="m191.0801 317.87787l1.578125 0l4.53125 -14.34375l-1.953125 0l-3.171875 10.6875l-0.203125 0.71875l-0.21875 -0.703125l-3.140625 -10.703125l-1.953125 0l4.53125 14.34375zm8.870728 -10.65625l0 1.578125l3.625 0l0 7.5l-3.625 0l0 1.578125l8.921875 0l0 -1.578125l-3.46875 0l0 -9.078125l-5.453125 0zm3.390625 -2.796875q0 0.4375 0.265625 0.734375q0.265625 0.296875 0.828125 0.296875q0.53125 0 0.8125 -0.296875q0.28125 -0.296875 0.28125 -0.734375q0 -0.25 -0.078125 -0.453125q-0.078125 -0.203125 -0.234375 -0.34375q-0.140625 -0.125 -0.34375 -0.203125q-0.1875 -0.078125 -0.4375 -0.078125q-0.265625 0 -0.46875 0.078125q-0.1875 0.078125 -0.328125 0.203125q-0.15625 0.140625 -0.234375 0.359375q-0.0625 0.203125 -0.0625 0.4375zm8.089478 8.03125l0 0.21875q0 1.140625 0.296875 2.125q0.3125 0.984375 0.859375 1.71875q0.546875 0.734375 1.328125 1.15625q0.796875 0.40625 1.75 0.40625q0.984375 0 1.71875 -0.328125q0.75 -0.34375 1.28125 -1.0l0.078125 1.125l1.671875 0l0 -15.125l-1.8125 0l0 5.515625q-0.53125 -0.609375 -1.25 -0.921875q-0.703125 -0.328125 -1.65625 -0.328125q-0.984375 0 -1.78125 0.40625q-0.78125 0.40625 -1.328125 1.125q-0.5625 0.71875 -0.859375 1.71875q-0.296875 1.0 -0.296875 2.1875zm1.8125 0.21875l0 -0.21875q0 -0.78125 0.171875 -1.484375q0.171875 -0.703125 0.515625 -1.234375q0.34375 -0.53125 0.890625 -0.84375q0.546875 -0.328125 1.328125 -0.328125q0.890625 0 1.484375 0.421875q0.609375 0.421875 0.96875 1.0625l0 4.953125q-0.359375 0.703125 -0.96875 1.125q-0.59375 0.40625 -1.515625 0.40625q-0.75 0 -1.296875 -0.3125q-0.546875 -0.3125 -0.890625 -0.84375q-0.34375 -0.53125 -0.515625 -1.234375q-0.171875 -0.703125 -0.171875 -1.46875zm15.339478 5.40625q1.5625 0 2.609375 -0.625q1.0625 -0.625 1.59375 -1.4375l-1.109375 -0.875q-0.5 0.65625 -1.265625 1.046875q-0.75 0.390625 -1.734375 0.390625q-0.734375 0 -1.34375 -0.265625q-0.609375 -0.28125 -1.046875 -0.765625q-0.421875 -0.453125 -0.671875 -1.03125q-0.234375 -0.59375 -0.296875 -1.375l0 -0.078125l7.609375 0l0 -0.8125q0 -1.109375 -0.28125 -2.0625q-0.28125 -0.953125 -0.84375 -1.671875q-0.578125 -0.703125 -1.4375 -1.09375q-0.859375 -0.40625 -2.015625 -0.40625q-0.921875 0 -1.796875 0.375q-0.859375 0.375 -1.546875 1.078125q-0.6875 0.703125 -1.109375 1.734375q-0.40625 1.015625 -0.40625 2.296875l0 0.421875q0 1.109375 0.375 2.0625q0.375 0.9375 1.046875 1.625q0.671875 0.6875 1.609375 1.078125q0.9375 0.390625 2.0625 0.390625zm-0.234375 -9.5625q0.703125 0 1.203125 0.265625q0.515625 0.25 0.84375 0.65625q0.328125 0.421875 0.515625 0.984375q0.1875 0.5625 0.1875 1.0625l0 0.09375l-5.71875 0q0.09375 -0.75 0.359375 -1.3125q0.28125 -0.5625 0.671875 -0.953125q0.40625 -0.390625 0.890625 -0.59375q0.5 -0.203125 1.046875 -0.203125zm7.1207275 3.9375l0 0.21875q0 1.140625 0.328125 2.125q0.34375 0.984375 0.96875 1.71875q0.625 0.734375 1.515625 1.15625q0.90625 0.40625 2.046875 0.40625q1.125 0 2.015625 -0.40625q0.890625 -0.421875 1.53125 -1.15625q0.609375 -0.734375 0.9375 -1.71875q0.34375 -0.984375 0.34375 -2.125l0 -0.21875q0 -1.15625 -0.34375 -2.140625q-0.328125 -1.0 -0.9375 -1.71875q-0.640625 -0.734375 -1.546875 -1.15625q-0.890625 -0.421875 -2.03125 -0.421875q-1.109375 0 -2.015625 0.421875q-0.890625 0.421875 -1.515625 1.15625q-0.625 0.71875 -0.96875 1.71875q-0.328125 0.984375 -0.328125 2.140625zm1.828125 0.21875l0 -0.21875q0 -0.78125 0.171875 -1.5q0.1875 -0.71875 0.578125 -1.25q0.375 -0.546875 0.9375 -0.859375q0.5625 -0.328125 1.3125 -0.328125q0.765625 0 1.328125 0.328125q0.5625 0.3125 0.953125 0.859375q0.375 0.53125 0.5625 1.25q0.203125 0.71875 0.203125 1.5l0 0.21875q0 0.78125 -0.1875 1.5q-0.1875 0.703125 -0.5625 1.25q-0.390625 0.546875 -0.953125 0.859375q-0.5625 0.3125 -1.3125 0.3125q-0.765625 0 -1.34375 -0.3125q-0.5625 -0.3125 -0.9375 -0.859375q-0.390625 -0.546875 -0.578125 -1.25q-0.171875 -0.71875 -0.171875 -1.5zm18.761337 -1.125l0 -1.546875l-5.9687347 0l0 -4.90625l6.9687347 0l0 -1.5625l-8.812485 0l0 14.34375l1.84375 0l0 -6.328125l5.9687347 0zm11.120728 -4.53125q-1.171875 0 -2.078125 0.515625q-0.90625 0.5 -1.5625 1.375l-0.015625 -0.265625l-0.078125 -1.421875l-1.734375 0l0 10.65625l1.84375 0l0 -6.828125q0.171875 -0.5 0.4375 -0.890625q0.28125 -0.40625 0.640625 -0.6875q0.40625 -0.3125 0.9375 -0.46875q0.546875 -0.171875 1.21875 -0.171875q0.515625 0 1.0 0.0625q0.484375 0.046875 1.015625 0.171875l0.234375 -1.78125q-0.265625 -0.125 -0.8125 -0.1875q-0.546875 -0.078125 -1.046875 -0.078125zm12.120728 10.859375l1.90625 0l0 -0.15625q-0.1875 -0.4375 -0.28125 -1.03125q-0.09375 -0.609375 -0.09375 -1.140625l0 -4.953125q0 -0.890625 -0.328125 -1.5625q-0.328125 -0.671875 -0.890625 -1.125q-0.578125 -0.4375 -1.359375 -0.65625q-0.765625 -0.234375 -1.671875 -0.234375q-1.0 0 -1.78125 0.28125q-0.78125 0.28125 -1.328125 0.71875q-0.546875 0.453125 -0.84375 1.015625q-0.28125 0.5625 -0.296875 1.140625l1.828125 0q0 -0.328125 0.15625 -0.640625q0.171875 -0.3125 0.46875 -0.546875q0.296875 -0.21875 0.71875 -0.359375q0.4375 -0.140625 0.984375 -0.140625q0.578125 0 1.046875 0.15625q0.46875 0.140625 0.78125 0.40625q0.328125 0.28125 0.5 0.671875q0.1875 0.375 0.1875 0.859375l0 0.828125l-1.984375 0q-1.125 0 -2.03125 0.21875q-0.890625 0.21875 -1.53125 0.65625q-0.640625 0.4375 -1.0 1.109375q-0.34375 0.65625 -0.34375 1.53125q0 0.671875 0.265625 1.25q0.265625 0.578125 0.75 0.984375q0.46875 0.421875 1.15625 0.671875q0.6875 0.25 1.53125 0.25q0.515625 0 0.96875 -0.109375q0.46875 -0.109375 0.890625 -0.296875q0.40625 -0.1875 0.734375 -0.4375q0.34375 -0.25 0.625 -0.515625q0.03125 0.328125 0.09375 0.640625q0.0625 0.3125 0.171875 0.515625zm-3.21875 -1.390625q-0.53125 0 -0.9375 -0.140625q-0.40625 -0.140625 -0.671875 -0.375q-0.265625 -0.234375 -0.40625 -0.5625q-0.125 -0.34375 -0.125 -0.75q0 -0.40625 0.140625 -0.734375q0.15625 -0.328125 0.453125 -0.5625q0.421875 -0.328125 1.125 -0.484375q0.703125 -0.171875 1.65625 -0.171875l1.6875 0l0 2.15625q-0.15625 0.3125 -0.4375 0.609375q-0.265625 0.28125 -0.640625 0.515625q-0.390625 0.21875 -0.859375 0.359375q-0.453125 0.140625 -0.984375 0.140625zm9.151978 -9.265625l-1.625 0l0 10.65625l1.734375 0l0 -8.484375q0.046875 -0.15625 0.140625 -0.28125q0.09375 -0.140625 0.234375 -0.25q0.15625 -0.140625 0.390625 -0.21875q0.25 -0.078125 0.578125 -0.078125q0.296875 0 0.515625 0.078125q0.21875 0.078125 0.375 0.234375q0.15625 0.171875 0.21875 0.421875q0.078125 0.25 0.078125 0.59375l0 7.984375l1.734375 0l0 -7.984375q0 -0.046875 0 -0.09375q0 -0.046875 0 -0.09375q0.03125 -0.25 0.109375 -0.453125q0.09375 -0.203125 0.25 -0.359375q0.171875 -0.140625 0.40625 -0.234375q0.234375 -0.09375 0.5625 -0.09375q0.296875 0 0.53125 0.078125q0.234375 0.078125 0.390625 0.234375q0.140625 0.171875 0.21875 0.4375q0.078125 0.25 0.078125 0.578125l0 7.984375l1.734375 0l0 -7.953125q0 -0.78125 -0.171875 -1.34375q-0.171875 -0.5625 -0.515625 -0.921875q-0.296875 -0.3125 -0.75 -0.46875q-0.4375 -0.171875 -0.984375 -0.171875q-0.40625 0.015625 -0.75 0.125q-0.34375 0.09375 -0.609375 0.25q-0.21875 0.15625 -0.40625 0.359375q-0.1875 0.1875 -0.328125 0.40625q-0.109375 -0.234375 -0.265625 -0.4375q-0.140625 -0.203125 -0.328125 -0.328125q-0.265625 -0.1875 -0.609375 -0.28125q-0.328125 -0.09375 -0.75 -0.09375q-0.75 0.015625 -1.28125 0.328125q-0.53125 0.3125 -0.859375 0.875l-0.046875 -1.0zm15.980103 10.859375q1.5625 0 2.609375 -0.625q1.0625 -0.625 1.59375 -1.4375l-1.109375 -0.875q-0.5 0.65625 -1.265625 1.046875q-0.75 0.390625 -1.734375 0.390625q-0.734375 0 -1.34375 -0.265625q-0.609375 -0.28125 -1.046875 -0.765625q-0.421875 -0.453125 -0.671875 -1.03125q-0.234375 -0.59375 -0.296875 -1.375l0 -0.078125l7.609375 0l0 -0.8125q0 -1.109375 -0.28125 -2.0625q-0.28125 -0.953125 -0.84375 -1.671875q-0.578125 -0.703125 -1.4375 -1.09375q-0.859375 -0.40625 -2.015625 -0.40625q-0.921875 0 -1.796875 0.375q-0.859375 0.375 -1.546875 1.078125q-0.6875 0.703125 -1.109375 1.734375q-0.40625 1.015625 -0.40625 2.296875l0 0.421875q0 1.109375 0.375 2.0625q0.375 0.9375 1.046875 1.625q0.671875 0.6875 1.609375 1.078125q0.9375 0.390625 2.0625 0.390625zm-0.234375 -9.5625q0.703125 0 1.203125 0.265625q0.515625 0.25 0.84375 0.65625q0.328125 0.421875 0.515625 0.984375q0.1875 0.5625 0.1875 1.0625l0 0.09375l-5.71875 0q0.09375 -0.75 0.359375 -1.3125q0.28125 -0.5625 0.671875 -0.953125q0.40625 -0.390625 0.890625 -0.59375q0.5 -0.203125 1.046875 -0.203125z" fill-rule="nonzero"/><path fill="#000000" d="m47.895786 297.06583l23.244099 13.417328l-23.244099 13.417328z" fill-rule="evenodd"/><path fill="#000000" d="m403.42453 287.34344l23.24411 13.417328l-23.24411 13.417328z" fill-rule="evenodd"/><path fill="#000000" fill-opacity="0.0" d="m859.74677 307.20767l227.16534 0l0 -9.700806l227.1654 0" fill-rule="evenodd"/><path stroke="#000000" stroke-width="1.6824146981627297" stroke-linejoin="round" stroke-linecap="butt" d="m859.74677 307.20767l227.16534 0l0 -9.700806l227.1654 0" fill-rule="evenodd"/><path fill="#fce5cd" d="m976.7419 268.79498l242.23627 0l0 76.88187l-242.23627 0z" fill-rule="evenodd"/><path fill="#000000" d="m1042.5688 314.615l1.578125 0l4.53125 -14.34375l-1.953125 0l-3.171875 10.6875l-0.203125 0.71875l-0.21875 -0.703125l-3.140625 -10.703125l-1.953125 0l4.53125 14.34375zm8.870728 -10.65625l0 1.578125l3.625 0l0 7.5l-3.625 0l0 1.578125l8.921875 0l0 -1.578125l-3.46875 0l0 -9.078125l-5.453125 0zm3.390625 -2.796875q0 0.4375 0.265625 0.734375q0.265625 0.296875 0.828125 0.296875q0.53125 0 0.8125 -0.296875q0.28125 -0.296875 0.28125 -0.734375q0 -0.25 -0.078125 -0.453125q-0.078125 -0.203125 -0.234375 -0.34375q-0.140625 -0.125 -0.34375 -0.203125q-0.1875 -0.078125 -0.4375 -0.078125q-0.265625 0 -0.46875 0.078125q-0.1875 0.078125 -0.328125 0.203125q-0.15625 0.140625 -0.234375 0.359375q-0.0625 0.203125 -0.0625 0.4375zm8.089478 8.03125l0 0.21875q0 1.140625 0.296875 2.125q0.3125 0.984375 0.859375 1.71875q0.546875 0.734375 1.328125 1.15625q0.796875 0.40625 1.75 0.40625q0.984375 0 1.71875 -0.328125q0.75 -0.34375 1.28125 -1.0l0.078125 1.125l1.671875 0l0 -15.125l-1.8125 0l0 5.515625q-0.53125 -0.609375 -1.25 -0.921875q-0.703125 -0.328125 -1.65625 -0.328125q-0.984375 0 -1.78125 0.40625q-0.78125 0.40625 -1.328125 1.125q-0.5625 0.71875 -0.859375 1.71875q-0.296875 1.0 -0.296875 2.1875zm1.8125 0.21875l0 -0.21875q0 -0.78125 0.171875 -1.484375q0.171875 -0.703125 0.515625 -1.234375q0.34375 -0.53125 0.890625 -0.84375q0.546875 -0.328125 1.328125 -0.328125q0.890625 0 1.484375 0.421875q0.609375 0.421875 0.96875 1.0625l0 4.953125q-0.359375 0.703125 -0.96875 1.125q-0.59375 0.40625 -1.515625 0.40625q-0.75 0 -1.296875 -0.3125q-0.546875 -0.3125 -0.890625 -0.84375q-0.34375 -0.53125 -0.515625 -1.234375q-0.171875 -0.703125 -0.171875 -1.46875zm15.339478 5.40625q1.5625 0 2.609375 -0.625q1.0625 -0.625 1.59375 -1.4375l-1.109375 -0.875q-0.5 0.65625 -1.265625 1.046875q-0.75 0.390625 -1.734375 0.390625q-0.734375 0 -1.34375 -0.265625q-0.609375 -0.28125 -1.046875 -0.765625q-0.421875 -0.453125 -0.671875 -1.03125q-0.234375 -0.59375 -0.296875 -1.375l0 -0.078125l7.609375 0l0 -0.8125q0 -1.109375 -0.28125 -2.0625q-0.28125 -0.953125 -0.84375 -1.671875q-0.578125 -0.703125 -1.4375 -1.09375q-0.859375 -0.40625 -2.015625 -0.40625q-0.921875 0 -1.796875 0.375q-0.859375 0.375 -1.546875 1.078125q-0.6875 0.703125 -1.109375 1.734375q-0.40625 1.015625 -0.40625 2.296875l0 0.421875q0 1.109375 0.375 2.0625q0.375 0.9375 1.046875 1.625q0.671875 0.6875 1.609375 1.078125q0.9375 0.390625 2.0625 0.390625zm-0.234375 -9.5625q0.703125 0 1.203125 0.265625q0.515625 0.25 0.84375 0.65625q0.328125 0.421875 0.515625 0.984375q0.1875 0.5625 0.1875 1.0625l0 0.09375l-5.71875 0q0.09375 -0.75 0.359375 -1.3125q0.28125 -0.5625 0.671875 -0.953125q0.40625 -0.390625 0.890625 -0.59375q0.5 -0.203125 1.046875 -0.203125zm7.1207275 3.9375l0 0.21875q0 1.140625 0.328125 2.125q0.34375 0.984375 0.96875 1.71875q0.625 0.734375 1.515625 1.15625q0.90625 0.40625 2.046875 0.40625q1.125 0 2.015625 -0.40625q0.890625 -0.421875 1.53125 -1.15625q0.609375 -0.734375 0.9375 -1.71875q0.34375 -0.984375 0.34375 -2.125l0 -0.21875q0 -1.15625 -0.34375 -2.140625q-0.328125 -1.0 -0.9375 -1.71875q-0.640625 -0.734375 -1.546875 -1.15625q-0.890625 -0.421875 -2.03125 -0.421875q-1.109375 0 -2.015625 0.421875q-0.890625 0.421875 -1.515625 1.15625q-0.625 0.71875 -0.96875 1.71875q-0.328125 0.984375 -0.328125 2.140625zm1.828125 0.21875l0 -0.21875q0 -0.78125 0.171875 -1.5q0.1875 -0.71875 0.578125 -1.25q0.375 -0.546875 0.9375 -0.859375q0.5625 -0.328125 1.3125 -0.328125q0.765625 0 1.328125 0.328125q0.5625 0.3125 0.953125 0.859375q0.375 0.53125 0.5625 1.25q0.203125 0.71875 0.203125 1.5l0 0.21875q0 0.78125 -0.1875 1.5q-0.1875 0.703125 -0.5625 1.25q-0.390625 0.546875 -0.953125 0.859375q-0.5625 0.3125 -1.3125 0.3125q-0.765625 0 -1.34375 -0.3125q-0.5625 -0.3125 -0.9375 -0.859375q-0.390625 -0.546875 -0.578125 -1.25q-0.171875 -0.71875 -0.171875 -1.5zm18.761353 -1.125l0 -1.546875l-5.96875 0l0 -4.90625l6.96875 0l0 -1.5625l-8.8125 0l0 14.34375l1.84375 0l0 -6.328125l5.96875 0zm11.120728 -4.53125q-1.171875 0 -2.078125 0.515625q-0.90625 0.5 -1.5625 1.375l-0.015625 -0.265625l-0.078125 -1.421875l-1.734375 0l0 10.65625l1.84375 0l0 -6.828125q0.171875 -0.5 0.4375 -0.890625q0.28125 -0.40625 0.640625 -0.6875q0.40625 -0.3125 0.9375 -0.46875q0.546875 -0.171875 1.21875 -0.171875q0.515625 0 1.0 0.0625q0.484375 0.046875 1.015625 0.171875l0.234375 -1.78125q-0.265625 -0.125 -0.8125 -0.1875q-0.546875 -0.078125 -1.046875 -0.078125zm12.120728 10.859375l1.90625 0l0 -0.15625q-0.1875 -0.4375 -0.28125 -1.03125q-0.09375 -0.609375 -0.09375 -1.140625l0 -4.953125q0 -0.890625 -0.328125 -1.5625q-0.328125 -0.671875 -0.890625 -1.125q-0.578125 -0.4375 -1.359375 -0.65625q-0.765625 -0.234375 -1.671875 -0.234375q-1.0 0 -1.78125 0.28125q-0.78125 0.28125 -1.328125 0.71875q-0.546875 0.453125 -0.84375 1.015625q-0.28125 0.5625 -0.296875 1.140625l1.828125 0q0 -0.328125 0.15625 -0.640625q0.171875 -0.3125 0.46875 -0.546875q0.296875 -0.21875 0.71875 -0.359375q0.4375 -0.140625 0.984375 -0.140625q0.578125 0 1.046875 0.15625q0.46875 0.140625 0.78125 0.40625q0.328125 0.28125 0.5 0.671875q0.1875 0.375 0.1875 0.859375l0 0.828125l-1.984375 0q-1.125 0 -2.03125 0.21875q-0.890625 0.21875 -1.53125 0.65625q-0.640625 0.4375 -1.0 1.109375q-0.34375 0.65625 -0.34375 1.53125q0 0.671875 0.265625 1.25q0.265625 0.578125 0.75 0.984375q0.46875 0.421875 1.15625 0.671875q0.6875 0.25 1.53125 0.25q0.515625 0 0.96875 -0.109375q0.46875 -0.109375 0.890625 -0.296875q0.40625 -0.1875 0.734375 -0.4375q0.34375 -0.25 0.625 -0.515625q0.03125 0.328125 0.09375 0.640625q0.0625 0.3125 0.171875 0.515625zm-3.21875 -1.390625q-0.53125 0 -0.9375 -0.140625q-0.40625 -0.140625 -0.671875 -0.375q-0.265625 -0.234375 -0.40625 -0.5625q-0.125 -0.34375 -0.125 -0.75q0 -0.40625 0.140625 -0.734375q0.15625 -0.328125 0.453125 -0.5625q0.421875 -0.328125 1.125 -0.484375q0.703125 -0.171875 1.65625 -0.171875l1.6875 0l0 2.15625q-0.15625 0.3125 -0.4375 0.609375q-0.265625 0.28125 -0.640625 0.515625q-0.390625 0.21875 -0.859375 0.359375q-0.453125 0.140625 -0.984375 0.140625zm9.151978 -9.265625l-1.625 0l0 10.65625l1.734375 0l0 -8.484375q0.046875 -0.15625 0.140625 -0.28125q0.09375 -0.140625 0.234375 -0.25q0.15625 -0.140625 0.390625 -0.21875q0.25 -0.078125 0.578125 -0.078125q0.296875 0 0.515625 0.078125q0.21875 0.078125 0.375 0.234375q0.15625 0.171875 0.21875 0.421875q0.078125 0.25 0.078125 0.59375l0 7.984375l1.734375 0l0 -7.984375q0 -0.046875 0 -0.09375q0 -0.046875 0 -0.09375q0.03125 -0.25 0.109375 -0.453125q0.09375 -0.203125 0.25 -0.359375q0.171875 -0.140625 0.40625 -0.234375q0.234375 -0.09375 0.5625 -0.09375q0.296875 0 0.53125 0.078125q0.234375 0.078125 0.390625 0.234375q0.140625 0.171875 0.21875 0.4375q0.078125 0.25 0.078125 0.578125l0 7.984375l1.734375 0l0 -7.953125q0 -0.78125 -0.171875 -1.34375q-0.171875 -0.5625 -0.515625 -0.921875q-0.296875 -0.3125 -0.75 -0.46875q-0.4375 -0.171875 -0.984375 -0.171875q-0.40625 0.015625 -0.75 0.125q-0.34375 0.09375 -0.609375 0.25q-0.21875 0.15625 -0.40625 0.359375q-0.1875 0.1875 -0.328125 0.40625q-0.109375 -0.234375 -0.265625 -0.4375q-0.140625 -0.203125 -0.328125 -0.328125q-0.265625 -0.1875 -0.609375 -0.28125q-0.328125 -0.09375 -0.75 -0.09375q-0.75 0.015625 -1.28125 0.328125q-0.53125 0.3125 -0.859375 0.875l-0.046875 -1.0zm15.980103 10.859375q1.5625 0 2.609375 -0.625q1.0625 -0.625 1.59375 -1.4375l-1.109375 -0.875q-0.5 0.65625 -1.265625 1.046875q-0.75 0.390625 -1.734375 0.390625q-0.734375 0 -1.34375 -0.265625q-0.609375 -0.28125 -1.046875 -0.765625q-0.421875 -0.453125 -0.671875 -1.03125q-0.234375 -0.59375 -0.296875 -1.375l0 -0.078125l7.609375 0l0 -0.8125q0 -1.109375 -0.28125 -2.0625q-0.28125 -0.953125 -0.84375 -1.671875q-0.578125 -0.703125 -1.4375 -1.09375q-0.859375 -0.40625 -2.015625 -0.40625q-0.921875 0 -1.796875 0.375q-0.859375 0.375 -1.546875 1.078125q-0.6875 0.703125 -1.109375 1.734375q-0.40625 1.015625 -0.40625 2.296875l0 0.421875q0 1.109375 0.375 2.0625q0.375 0.9375 1.046875 1.625q0.671875 0.6875 1.609375 1.078125q0.9375 0.390625 2.0625 0.390625zm-0.234375 -9.5625q0.703125 0 1.203125 0.265625q0.515625 0.25 0.84375 0.65625q0.328125 0.421875 0.515625 0.984375q0.1875 0.5625 0.1875 1.0625l0 0.09375l-5.71875 0q0.09375 -0.75 0.359375 -1.3125q0.28125 -0.5625 0.671875 -0.953125q0.40625 -0.390625 0.890625 -0.59375q0.5 -0.203125 1.046875 -0.203125z" fill-rule="nonzero"/><path fill="#000000" d="m899.3846 293.80295l23.24408 13.417328l-23.24408 13.417328z" fill-rule="evenodd"/><path fill="#000000" d="m1254.9133 284.08057l23.24414 13.417328l-23.24414 13.417328z" fill-rule="evenodd"/></g></svg>