<svg version="1.1" viewBox="0.0 0.0 1344.0 288.0" fill="none" stroke="none" stroke-linecap="square" stroke-miterlimit="10" xmlns:xlink="http://www.w3.org/1999/xlink" xmlns="http://www.w3.org/2000/svg"><clipPath id="p.0"><path d="m0 0l1344.0 0l0 288.0l-1344.0 0l0 -288.0z" clip-rule="nonzero"/></clipPath><g clip-path="url(#p.0)"><path fill="#ffffff" d="m0 0l1344.0 0l0 288.0l-1344.0 0z" fill-rule="evenodd"/><path fill="#ffffff" d="m1191.9005 288.0l67.77954 0l0 -10.299225l-67.77954 0z" fill-rule="evenodd"/><path fill="#dfd9ff" fill-opacity="0.7025" d="m437.1015 113.032364l0 0c0 -9.579369 7.765625 -17.344978 17.345001 -17.344978l32.86911 0l0 0c4.6001587 0 9.011932 1.8274155 12.26474 5.0802307c3.2528076 3.2528076 5.0802307 7.6645737 5.0802307 12.264748l0 20.239182c0 9.579361 -7.765625 17.34497 -17.34497 17.34497l-32.86911 0l0 0c-9.579376 0 -17.345001 -7.7656097 -17.345001 -17.34497z" fill-rule="evenodd"/><path fill="#6f42c1" d="m447.77887 120.160515l0 0c0 -0.766037 0.6210022 -1.3870392 1.3870239 -1.3870392l1.2259216 0l0 0c0.3678589 0 0.7206726 0.14613342 0.98080444 0.40625763c0.26010132 0.26011658 0.40625 0.61292267 0.40625 0.98078156l0 6.5172653c0 0.766037 -0.6210022 1.3870392 -1.3870544 1.3870392l-1.2259216 0c-0.7660217 0 -1.3870239 -0.6210022 -1.3870239 -1.3870392z" fill-rule="evenodd"/><path fill="#6f42c1" d="m453.98383 114.429825l0 0c0 -0.766037 0.6210022 -1.3870392 1.3870239 -1.3870392l1.2259216 0l0 0c0.3678894 0 0.7206726 0.14613342 0.98080444 0.40625763c0.26010132 0.26011658 0.40625 0.61291504 0.40625 0.98078156l0 17.351913c0 0.766037 -0.6210022 1.3870392 -1.3870544 1.3870392l-1.2259216 0c-0.7660217 0 -1.3870239 -0.6210022 -1.3870239 -1.3870392z" fill-rule="evenodd"/><path fill="#6f42c1" d="m460.4863 115.860916l0 0c0 -0.766037 0.6209717 -1.3870392 1.3870239 -1.3870392l1.2259216 0l0 0c0.3678589 0 0.7206726 0.14613342 0.9807739 0.40625763c0.26013184 0.26011658 0.40628052 0.61291504 0.40628052 0.98078156l0 14.706238c0 0.766037 -0.6210022 1.3870392 -1.3870544 1.3870392l-1.2259216 0c-0.76605225 0 -1.3870239 -0.6210022 -1.3870239 -1.3870392z" fill-rule="evenodd"/><path fill="#6f42c1" d="m466.98874 110.87515l0 0c0 -0.7660446 0.6210022 -1.3870392 1.3870544 -1.3870392l1.2259216 0l0 0c0.3678589 0 0.7206421 0.14613342 0.9807739 0.40625c0.26013184 0.2601242 0.40625 0.61292267 0.40625 0.9807892l0 24.375519c0 0.76605225 -0.6210022 1.3870544 -1.3870239 1.3870544l-1.2259216 0c-0.76605225 0 -1.3870544 -0.6210022 -1.3870544 -1.3870544z" fill-rule="evenodd"/><path fill="#6f42c1" d="m473.7887 105.73751l0 0c0 -0.7660446 0.6210022 -1.3870392 1.3870544 -1.3870392l1.2259216 0l0 0c0.3678589 0 0.7206421 0.14613342 0.9807739 0.40625c0.26013184 0.2601242 0.40625 0.61292267 0.40625 0.9807892l0 35.367653c0 0.766037 -0.6210022 1.3870392 -1.3870239 1.3870392l-1.2259216 0c-0.76605225 0 -1.3870544 -0.6210022 -1.3870544 -1.3870392z" fill-rule="evenodd"/><path fill="#6f42c1" d="m479.99365 115.24527l0 0c0 -0.7660446 0.6210022 -1.3870392 1.3870544 -1.3870392l1.2259216 0l0 0c0.3678589 0 0.7206726 0.14613342 0.9807739 0.40625c0.26013184 0.2601242 0.40625 0.61292267 0.40625 0.9807892l0 15.934586c0 0.766037 -0.6210022 1.3870392 -1.3870239 1.3870392l-1.2259216 0c-0.76605225 0 -1.3870544 -0.6210022 -1.3870544 -1.3870392z" fill-rule="evenodd"/><path fill="#6f42c1" d="m486.19864 117.99806l0 0c0 -0.7660446 0.6209717 -1.3870392 1.3870239 -1.3870392l1.2259216 0l0 0c0.3678589 0 0.7206726 0.14613342 0.9807739 0.40625c0.26013184 0.2601242 0.40628052 0.61292267 0.40628052 0.9807892l0 10.454269c0 0.766037 -0.6210022 1.3870392 -1.3870544 1.3870392l-1.2259216 0c-0.76605225 0 -1.3870239 -0.6210022 -1.3870239 -1.3870392z" fill-rule="evenodd"/><path fill="#dfd9ff" fill-opacity="0.2549" d="m921.46985 107.5273l65.921265 -0.03149414l0 38.11023l-65.921265 0.03149414z" fill-rule="evenodd"/><path fill="#000000" d="m943.6386 128.00064l-1.015625 4.8828125E-4q-0.046875 0.37501526 -0.171875 0.6875763q-0.125 0.31256104 -0.328125 0.5314026q-0.203125 0.23448181 -0.5 0.35961914q-0.296875 0.12513733 -0.6875 0.12532043q-0.375 1.8310547E-4 -0.65625 -0.109054565q-0.265625 -0.12487793 -0.46875 -0.32789612q-0.203125 -0.21865845 -0.34375 -0.4842224q-0.125 -0.26556396 -0.21875 -0.5780182q-0.078125 -0.29683685 -0.125 -0.60931396q-0.03125 -0.32810974 -0.03125 -0.62498474l0 -1.125q0 -0.296875 0.03125 -0.60939026q0.046875 -0.3281479 0.125 -0.62506104q0.09375 -0.31254578 0.21875 -0.5782242q0.140625 -0.26569366 0.34375 -0.48454285q0.203125 -0.20322418 0.46875 -0.31272125q0.28125 -0.12513733 0.65625 -0.1253128q0.390625 -1.9073486E-4 0.6875 0.14029694q0.296875 0.14048004 0.5 0.37475586q0.203125 0.23428345 0.328125 0.5467224q0.125 0.31243896 0.171875 0.6717911l1.015625 -4.8828125E-4q-0.0625 -0.5624695 -0.265625 -1.0311203q-0.203125 -0.48427582 -0.546875 -0.8278656q-0.34375 -0.32795715 -0.828125 -0.5152283q-0.46875 -0.18727875 -1.0625 -0.18698883q-0.5 2.3651123E-4 -0.90625 0.14105225q-0.40625 0.14082336 -0.71875 0.39096832q-0.328125 0.25016022 -0.5625 0.59402466q-0.21875 0.32822418 -0.359375 0.73454285q-0.15625 0.3907013 -0.234375 0.82823944q-0.078125 0.43753815 -0.078125 0.87503815l0 1.125q0 0.453125 0.078125 0.89058685q0.078125 0.42183685 0.234375 0.82801056q0.140625 0.39056396 0.359375 0.73420715q0.234375 0.3280182 0.5625 0.57785034q0.3125 0.24984741 0.71875 0.3902893q0.40625 0.14042664 0.90625 0.1401825q0.578125 -2.746582E-4 1.046875 -0.18798828q0.46875 -0.18772888 0.8125 -0.5160217q0.34375 -0.32829285 0.5625 -0.7971344q0.21875 -0.4688568 0.28125 -1.0313873zm2.6073608 -2.6575012l0 -3.390625l-1.03125 4.9591064E-4l0 8.468742l1.03125 -4.8828125E-4l0 -4.328125q0.109375 -0.1875534 0.25 -0.32824707q0.140625 -0.14068604 0.296875 -0.26576233q0.21875 -0.14073181 0.46875 -0.21897125q0.25 -0.07824707 0.515625 -0.07837677q0.34375 -1.6021729E-4 0.59375 0.09346771q0.265625 0.0936203 0.4375 0.296669q0.15625 0.1717987 0.234375 0.43738556q0.09375 0.26557922 0.09375 0.6249542l0 3.7656326l1.015625 -4.8828125E-4l0 -3.75q0 -0.6093826 -0.15625 -1.0468063q-0.140625 -0.43743134 -0.40625 -0.71855164q-0.265625 -0.29675293 -0.65625 -0.4215622q-0.375 -0.14044952 -0.84375 -0.14022064q-0.359375 1.6784668E-4 -0.6875 0.109703064q-0.3125 0.09389496 -0.578125 0.28152466q-0.15625 0.1250763 -0.3125 0.28139496q-0.140625 0.14069366 -0.265625 0.3282547zm9.685486 5.0735016l0.921875 -4.4250488E-4l0 -5.96875l-1.015625 4.8065186E-4l0 4.2812576q-0.09375 0.18754578 -0.21875 0.3594818q-0.109375 0.15629578 -0.28125 0.28137207q-0.203125 0.14073181 -0.46875 0.21897888q-0.265625 0.07824707 -0.609375 0.07841492q-0.296875 1.373291E-4 -0.515625 -0.07788086q-0.21875 -0.07801819 -0.375 -0.2654419q-0.15625 -0.1874237 -0.234375 -0.4998932q-0.078125 -0.32807922 -0.078125 -0.8124542l0 -3.5625l-1.015625 4.8065186E-4l0 3.546875q0 0.6718826 0.140625 1.1561813q0.140625 0.46868896 0.421875 0.78105164q0.265625 0.29675293 0.640625 0.45281982q0.390625 0.1404419 0.859375 0.14021301q0.578125 -2.746582E-4 1.015625 -0.23486328q0.453125 -0.25021362 0.75 -0.70347595l0.0625 0.8280945zm2.8417358 -0.0013580322l1.03125 -4.8828125E-4l0 -4.2812576q0.09375 -0.18754578 0.234375 -0.34386444q0.140625 -0.17193604 0.3125 -0.29701996q0.203125 -0.12509918 0.4375 -0.20333862q0.25 -0.09386444 0.53125 -0.09400177q0.328125 -1.5258789E-4 0.578125 0.07785034q0.25 0.07800293 0.421875 0.249794q0.171875 0.1717987 0.265625 0.45300293q0.09375 0.26557922 0.09375 0.6718292l0 3.7656326l1.015625 -4.8828125E-4l0 -3.7968826q0 -0.59375 -0.15625 -1.0155487q-0.140625 -0.43743134 -0.40625 -0.71855164q-0.265625 -0.28112793 -0.65625 -0.4059372q-0.375 -0.14044952 -0.84375 -0.14022064q-0.359375 1.6784668E-4 -0.671875 0.109695435q-0.3125 0.09389496 -0.5625 0.26589203q-0.1875 0.10946655 -0.34375 0.28141022q-0.15625 0.1563263 -0.28125 0.34388733l-0.078125 -0.89058685l-0.921875 4.4250488E-4l0 5.96875zm8.576111 -2.785347l2.1875 2.7802048l1.296875 -6.2561035E-4l-2.78125 -3.4830399l2.40625 -2.485527l-1.234375 5.874634E-4l-1.953125 1.9696808l-0.671875 0.71907806l0 -5.1875076l-1.03125 4.9591064E-4l0 8.46875l1.03125 -4.8828125E-4l0 -2.0625l0.75 -0.7191086z" fill-rule="nonzero"/><path fill="#000000" fill-opacity="0.0" d="m20.08924 186.941l0 0c0 -15.168259 12.296305 -27.46457 27.464567 -27.46457l1257.4803 0c7.2840576 0 14.269775 2.8935852 19.420288 8.044189c5.150635 5.1506042 8.044189 12.136322 8.044189 19.42038l0 0l0 0c0 15.168274 -12.296265 27.46457 -27.464478 27.46457l-1257.4803 0c-15.1682625 0 -27.464567 -12.296295 -27.464567 -27.46457z" fill-rule="evenodd"/><path stroke="#000000" stroke-width="0.6876640419947506" stroke-linejoin="round" stroke-linecap="butt" d="m20.08924 186.941l0 0c0 -15.168259 12.296305 -27.46457 27.464567 -27.46457l1257.4803 0c7.2840576 0 14.269775 2.8935852 19.420288 8.044189c5.150635 5.1506042 8.044189 12.136322 8.044189 19.42038l0 0l0 0c0 15.168274 -12.296265 27.46457 -27.464478 27.46457l-1257.4803 0c-15.1682625 0 -27.464567 -12.296295 -27.464567 -27.46457z" fill-rule="evenodd"/><path fill="#cfe2f3" d="m260.71866 186.93918l0 0c0 -12.976517 10.519531 -23.496063 23.496063 -23.496063l0 0c6.231537 0 12.207855 2.4754639 16.614227 6.881836c4.4063416 4.406372 6.881836 10.38269 6.881836 16.614227l0 0c0 12.976517 -10.519562 23.496063 -23.496063 23.496063l0 0c-12.976532 0 -23.496063 -10.5195465 -23.496063 -23.496063z" fill-rule="evenodd"/><path stroke="#000000" stroke-width="0.6876640419947506" stroke-linejoin="round" stroke-linecap="butt" d="m260.71866 186.93918l0 0c0 -12.976517 10.519531 -23.496063 23.496063 -23.496063l0 0c6.231537 0 12.207855 2.4754639 16.614227 6.881836c4.4063416 4.406372 6.881836 10.38269 6.881836 16.614227l0 0c0 12.976517 -10.519562 23.496063 -23.496063 23.496063l0 0c-12.976532 0 -23.496063 -10.5195465 -23.496063 -23.496063z" fill-rule="evenodd"/><path fill="#cfe2f3" d="m336.3085 186.93918l0 0c0 -12.976517 10.519562 -23.496063 23.496063 -23.496063l0 0c6.231537 0 12.207855 2.4754639 16.614227 6.881836c4.406372 4.406372 6.881836 10.38269 6.881836 16.614227l0 0c0 12.976517 -10.519531 23.496063 -23.496063 23.496063l0 0c-12.976501 0 -23.496063 -10.5195465 -23.496063 -23.496063z" fill-rule="evenodd"/><path stroke="#000000" stroke-width="0.6876640419947506" stroke-linejoin="round" stroke-linecap="butt" d="m336.3085 186.93918l0 0c0 -12.976517 10.519562 -23.496063 23.496063 -23.496063l0 0c6.231537 0 12.207855 2.4754639 16.614227 6.881836c4.406372 4.406372 6.881836 10.38269 6.881836 16.614227l0 0c0 12.976517 -10.519531 23.496063 -23.496063 23.496063l0 0c-12.976501 0 -23.496063 -10.5195465 -23.496063 -23.496063z" fill-rule="evenodd"/><path fill="#cfe2f3" d="m411.89838 186.93918l0 0c0 -12.976517 10.519531 -23.496063 23.496063 -23.496063l0 0c6.231537 0 12.207855 2.4754639 16.614227 6.881836c4.406372 4.406372 6.881836 10.38269 6.881836 16.614227l0 0c0 12.976517 -10.519562 23.496063 -23.496063 23.496063l0 0c-12.976532 0 -23.496063 -10.5195465 -23.496063 -23.496063z" fill-rule="evenodd"/><path stroke="#000000" stroke-width="0.6876640419947506" stroke-linejoin="round" stroke-linecap="butt" d="m411.89838 186.93918l0 0c0 -12.976517 10.519531 -23.496063 23.496063 -23.496063l0 0c6.231537 0 12.207855 2.4754639 16.614227 6.881836c4.406372 4.406372 6.881836 10.38269 6.881836 16.614227l0 0c0 12.976517 -10.519562 23.496063 -23.496063 23.496063l0 0c-12.976532 0 -23.496063 -10.5195465 -23.496063 -23.496063z" fill-rule="evenodd"/><path fill="#cfe2f3" d="m563.07806 186.93918l0 0c0 -12.976517 10.519592 -23.496063 23.496094 -23.496063l0 0c6.2315674 0 12.207886 2.4754639 16.614197 6.881836c4.406372 4.406372 6.881836 10.38269 6.881836 16.614227l0 0c0 12.976517 -10.519531 23.496063 -23.496033 23.496063l0 0c-12.976501 0 -23.496094 -10.5195465 -23.496094 -23.496063z" fill-rule="evenodd"/><path stroke="#000000" stroke-width="0.6876640419947506" stroke-linejoin="round" stroke-linecap="butt" d="m563.07806 186.93918l0 0c0 -12.976517 10.519592 -23.496063 23.496094 -23.496063l0 0c6.2315674 0 12.207886 2.4754639 16.614197 6.881836c4.406372 4.406372 6.881836 10.38269 6.881836 16.614227l0 0c0 12.976517 -10.519531 23.496063 -23.496033 23.496063l0 0c-12.976501 0 -23.496094 -10.5195465 -23.496094 -23.496063z" fill-rule="evenodd"/><path fill="#cfe2f3" d="m487.48822 186.93918l0 0c0 -12.976517 10.519562 -23.496063 23.496063 -23.496063l0 0c6.231537 0 12.207855 2.4754639 16.614227 6.881836c4.406372 4.406372 6.881836 10.38269 6.881836 16.614227l0 0c0 12.976517 -10.519531 23.496063 -23.496063 23.496063l0 0c-12.976501 0 -23.496063 -10.5195465 -23.496063 -23.496063z" fill-rule="evenodd"/><path stroke="#000000" stroke-width="0.6876640419947506" stroke-linejoin="round" stroke-linecap="butt" d="m487.48822 186.93918l0 0c0 -12.976517 10.519562 -23.496063 23.496063 -23.496063l0 0c6.231537 0 12.207855 2.4754639 16.614227 6.881836c4.406372 4.406372 6.881836 10.38269 6.881836 16.614227l0 0c0 12.976517 -10.519531 23.496063 -23.496063 23.496063l0 0c-12.976501 0 -23.496063 -10.5195465 -23.496063 -23.496063z" fill-rule="evenodd"/><path fill="#cfe2f3" d="m642.3471 186.93918l0 0c0 -12.976517 10.519531 -23.496063 23.496033 -23.496063l0 0c6.2315674 0 12.207886 2.4754639 16.614258 6.881836c4.406372 4.406372 6.881836 10.38269 6.881836 16.614227l0 0c0 12.976517 -10.519531 23.496063 -23.496094 23.496063l0 0c-12.976501 0 -23.496033 -10.5195465 -23.496033 -23.496063z" fill-rule="evenodd"/><path stroke="#000000" stroke-width="0.6876640419947506" stroke-linejoin="round" stroke-linecap="butt" d="m642.3471 186.93918l0 0c0 -12.976517 10.519531 -23.496063 23.496033 -23.496063l0 0c6.2315674 0 12.207886 2.4754639 16.614258 6.881836c4.406372 4.406372 6.881836 10.38269 6.881836 16.614227l0 0c0 12.976517 -10.519531 23.496063 -23.496094 23.496063l0 0c-12.976501 0 -23.496033 -10.5195465 -23.496033 -23.496063z" fill-rule="evenodd"/><path fill="#cfe2f3" d="m721.6161 186.93918l0 0c0 -12.976517 10.519592 -23.496063 23.496094 -23.496063l0 0c6.2315674 0 12.207886 2.4754639 16.614197 6.881836c4.406372 4.406372 6.881836 10.38269 6.881836 16.614227l0 0c0 12.976517 -10.519531 23.496063 -23.496033 23.496063l0 0c-12.976501 0 -23.496094 -10.5195465 -23.496094 -23.496063z" fill-rule="evenodd"/><path stroke="#000000" stroke-width="0.6876640419947506" stroke-linejoin="round" stroke-linecap="butt" d="m721.6161 186.93918l0 0c0 -12.976517 10.519592 -23.496063 23.496094 -23.496063l0 0c6.2315674 0 12.207886 2.4754639 16.614197 6.881836c4.406372 4.406372 6.881836 10.38269 6.881836 16.614227l0 0c0 12.976517 -10.519531 23.496063 -23.496033 23.496063l0 0c-12.976501 0 -23.496094 -10.5195465 -23.496094 -23.496063z" fill-rule="evenodd"/><path fill="#cfe2f3" d="m793.52686 186.93918l0 0c0 -12.976517 10.519531 -23.496063 23.496033 -23.496063l0 0c6.2315674 0 12.207886 2.4754639 16.614197 6.881836c4.406372 4.406372 6.881897 10.38269 6.881897 16.614227l0 0c0 12.976517 -10.519592 23.496063 -23.496094 23.496063l0 0c-12.976501 0 -23.496033 -10.5195465 -23.496033 -23.496063z" fill-rule="evenodd"/><path stroke="#000000" stroke-width="0.6876640419947506" stroke-linejoin="round" stroke-linecap="butt" d="m793.52686 186.93918l0 0c0 -12.976517 10.519531 -23.496063 23.496033 -23.496063l0 0c6.2315674 0 12.207886 2.4754639 16.614197 6.881836c4.406372 4.406372 6.881897 10.38269 6.881897 16.614227l0 0c0 12.976517 -10.519592 23.496063 -23.496094 23.496063l0 0c-12.976501 0 -23.496033 -10.5195465 -23.496033 -23.496063z" fill-rule="evenodd"/><path fill="#cfe2f3" d="m872.79584 186.93918l0 0c0 -12.976517 10.519531 -23.496063 23.496094 -23.496063l0 0c6.2315063 0 12.207825 2.4754639 16.614197 6.881836c4.406372 4.406372 6.881836 10.38269 6.881836 16.614227l0 0c0 12.976517 -10.519531 23.496063 -23.496033 23.496063l0 0c-12.9765625 0 -23.496094 -10.5195465 -23.496094 -23.496063z" fill-rule="evenodd"/><path stroke="#000000" stroke-width="0.6876640419947506" stroke-linejoin="round" stroke-linecap="butt" d="m872.79584 186.93918l0 0c0 -12.976517 10.519531 -23.496063 23.496094 -23.496063l0 0c6.2315063 0 12.207825 2.4754639 16.614197 6.881836c4.406372 4.406372 6.881836 10.38269 6.881836 16.614227l0 0c0 12.976517 -10.519531 23.496063 -23.496033 23.496063l0 0c-12.9765625 0 -23.496094 -10.5195465 -23.496094 -23.496063z" fill-rule="evenodd"/><path fill="#cfe2f3" d="m948.3857 186.93918l0 0c0 -12.976517 10.519592 -23.496063 23.496094 -23.496063l0 0c6.2315063 0 12.207825 2.4754639 16.614197 6.881836c4.406372 4.406372 6.881836 10.38269 6.881836 16.614227l0 0c0 12.976517 -10.519531 23.496063 -23.496033 23.496063l0 0c-12.976501 0 -23.496094 -10.5195465 -23.496094 -23.496063z" fill-rule="evenodd"/><path stroke="#000000" stroke-width="0.6876640419947506" stroke-linejoin="round" stroke-linecap="butt" d="m948.3857 186.93918l0 0c0 -12.976517 10.519592 -23.496063 23.496094 -23.496063l0 0c6.2315063 0 12.207825 2.4754639 16.614197 6.881836c4.406372 4.406372 6.881836 10.38269 6.881836 16.614227l0 0c0 12.976517 -10.519531 23.496063 -23.496033 23.496063l0 0c-12.976501 0 -23.496094 -10.5195465 -23.496094 -23.496063z" fill-rule="evenodd"/><path fill="#efefef" d="m449.97952 45.619423l438.67715 0l0 218.01575l-438.67715 0z" fill-rule="evenodd"/><path fill="#000000" d="m580.13605 160.33684l1.15625 4.15625l4.046875 0l-6.390625 -19.890625l-3.484375 0l-6.53125 19.890625l4.046875 0l1.1875 -4.15625l5.96875 0zm-5.03125 -3.265625l2.09375 -7.328125l2.03125 7.328125l-4.125 0zm21.824585 7.421875l3.4375 0l0 -14.78125l-3.8125 0l0 10.375q-0.171875 0.34375 -0.421875 0.640625q-0.25 0.28125 -0.5625 0.484375q-0.359375 0.234375 -0.859375 0.359375q-0.484375 0.125 -1.078125 0.125q-0.671875 0 -1.140625 -0.15625q-0.453125 -0.171875 -0.75 -0.5625q-0.28125 -0.359375 -0.421875 -0.96875q-0.125 -0.625 -0.125 -1.53125l0 -8.765625l-3.796875 0l0 8.734375q0 1.6875 0.375 2.890625q0.375 1.1875 1.0625 1.953125q0.6875 0.78125 1.640625 1.140625q0.953125 0.34375 2.109375 0.34375q1.25 0 2.3125 -0.625q1.0625 -0.625 1.8125 -1.734375l0.21875 2.078125zm6.746521 -7.5l0 0.28125q0 1.609375 0.390625 2.984375q0.40625 1.375 1.15625 2.375q0.734375 1.0 1.796875 1.5625q1.078125 0.5625 2.4375 0.5625q1.234375 0 2.171875 -0.46875q0.953125 -0.484375 1.65625 -1.34375l0.1875 1.546875l3.421875 0l0 -20.984375l-3.8125 0l0 7.53125q-0.671875 -0.765625 -1.5625 -1.1875q-0.875 -0.421875 -2.03125 -0.421875q-1.390625 0 -2.46875 0.546875q-1.0625 0.546875 -1.8125 1.546875q-0.75 1.0 -1.140625 2.390625q-0.390625 1.390625 -0.390625 3.078125zm3.796875 0.28125l0 -0.28125q0 -0.9375 0.15625 -1.75q0.171875 -0.8125 0.53125 -1.421875q0.359375 -0.59375 0.921875 -0.9375q0.5625 -0.359375 1.375 -0.359375q0.96875 0 1.609375 0.421875q0.640625 0.40625 1.015625 1.15625l0 5.984375q-0.375 0.75 -1.03125 1.171875q-0.640625 0.421875 -1.625 0.421875q-0.8125 0 -1.375 -0.34375q-0.546875 -0.34375 -0.90625 -0.9375q-0.359375 -0.59375 -0.515625 -1.390625q-0.15625 -0.796875 -0.15625 -1.734375zm14.40271 -7.5625l0 3.09375l4.203125 0l0 8.59375l-4.203125 0l0 3.09375l12.046875 0l0 -3.09375l-4.0 0l0 -11.6875l-8.046875 0zm3.9375 -3.78125q0 0.4375 0.15625 0.8125q0.15625 0.375 0.4375 0.625q0.296875 0.28125 0.6875 0.4375q0.40625 0.140625 0.90625 0.140625q1.015625 0 1.609375 -0.5625q0.59375 -0.578125 0.59375 -1.453125q0 -0.890625 -0.59375 -1.453125q-0.59375 -0.578125 -1.609375 -0.578125q-0.5 0 -0.90625 0.15625q-0.390625 0.140625 -0.6875 0.40625q-0.28125 0.265625 -0.4375 0.65625q-0.15625 0.375 -0.15625 0.8125zm11.324646 11.03125l0 0.296875q0 1.625 0.46875 3.0q0.46875 1.359375 1.359375 2.375q0.890625 1.015625 2.1875 1.578125q1.3125 0.5625 2.984375 0.5625q1.65625 0 2.953125 -0.5625q1.296875 -0.5625 2.1875 -1.578125q0.875 -1.015625 1.34375 -2.375q0.46875 -1.375 0.46875 -3.0l0 -0.296875q0 -1.609375 -0.46875 -2.984375q-0.46875 -1.375 -1.34375 -2.390625q-0.90625 -1.0 -2.203125 -1.578125q-1.296875 -0.578125 -2.96875 -0.578125q-1.671875 0 -2.96875 0.578125q-1.28125 0.578125 -2.171875 1.578125q-0.890625 1.015625 -1.359375 2.390625q-0.46875 1.375 -0.46875 2.984375zm3.796875 0.296875l0 -0.296875q0 -0.90625 0.171875 -1.703125q0.1875 -0.8125 0.5625 -1.421875q0.390625 -0.609375 0.984375 -0.96875q0.609375 -0.359375 1.453125 -0.359375q0.859375 0 1.453125 0.359375q0.609375 0.359375 1.0 0.96875q0.359375 0.609375 0.53125 1.421875q0.1875 0.796875 0.1875 1.703125l0 0.296875q0 0.921875 -0.1875 1.734375q-0.171875 0.8125 -0.53125 1.421875q-0.390625 0.609375 -1.0 0.96875q-0.59375 0.34375 -1.421875 0.34375q-0.859375 0 -1.46875 -0.34375q-0.609375 -0.359375 -1.0 -0.96875q-0.375 -0.609375 -0.5625 -1.421875q-0.171875 -0.8125 -0.171875 -1.734375zm25.62146 -1.484375l0 -3.03125l-8.171875 0l0 -5.015625l9.515625 0l0 -3.125l-13.359375 0l0 19.890625l13.390625 0l0 -3.109375l-9.546875 0l0 -5.609375l8.171875 0zm4.684021 8.71875l3.8125 0l0 -10.5q0.203125 -0.3125 0.421875 -0.546875q0.234375 -0.25 0.53125 -0.4375q0.34375 -0.234375 0.796875 -0.359375q0.46875 -0.125 1.015625 -0.125q0.65625 0 1.171875 0.140625q0.515625 0.125 0.890625 0.453125q0.375 0.328125 0.5625 0.890625q0.203125 0.5625 0.203125 1.4375l0 9.046875l3.796875 0l0 -9.09375q0 -1.625 -0.375 -2.75q-0.375 -1.125 -1.046875 -1.84375q-0.6875 -0.71875 -1.625 -1.046875q-0.921875 -0.328125 -2.03125 -0.328125q-0.875 0 -1.65625 0.25q-0.78125 0.25 -1.4375 0.71875q-0.375 0.265625 -0.71875 0.609375q-0.34375 0.34375 -0.625 0.75l-0.234375 -2.046875l-3.453125 0l0 14.78125zm23.34021 -2.765625q-0.90625 0 -1.5 -0.359375q-0.59375 -0.375 -0.9375 -0.984375q-0.359375 -0.609375 -0.5 -1.40625q-0.140625 -0.796875 -0.140625 -1.65625l0 -0.40625q0 -0.859375 0.140625 -1.640625q0.15625 -0.796875 0.515625 -1.40625q0.328125 -0.625 0.921875 -0.984375q0.59375 -0.375 1.484375 -0.375q0.625 0 1.140625 0.21875q0.515625 0.203125 0.890625 0.5625q0.359375 0.359375 0.546875 0.859375q0.203125 0.484375 0.171875 1.03125l3.578125 0q0.03125 -1.3125 -0.4375 -2.375q-0.453125 -1.0625 -1.296875 -1.8125q-0.84375 -0.734375 -2.015625 -1.140625q-1.15625 -0.421875 -2.515625 -0.421875q-1.703125 0 -3.0 0.59375q-1.296875 0.578125 -2.171875 1.59375q-0.875 1.015625 -1.3125 2.375q-0.4375 1.359375 -0.4375 2.921875l0 0.40625q0 1.5625 0.4375 2.921875q0.453125 1.359375 1.328125 2.359375q0.859375 1.015625 2.15625 1.59375q1.296875 0.578125 3.03125 0.578125q1.265625 0 2.40625 -0.390625q1.140625 -0.40625 2.0 -1.125q0.859375 -0.703125 1.359375 -1.6875q0.5 -0.984375 0.46875 -2.140625l-3.578125 0q0.03125 0.53125 -0.1875 0.953125q-0.203125 0.421875 -0.59375 0.71875q-0.375 0.296875 -0.890625 0.46875q-0.5 0.15625 -1.0625 0.15625zm9.730896 -4.765625l0 0.296875q0 1.625 0.46875 3.0q0.46875 1.359375 1.359314 2.375q0.890625 1.015625 2.1875 1.578125q1.3125 0.5625 2.984375 0.5625q1.65625 0 2.953125 -0.5625q1.296875 -0.5625 2.1875 -1.578125q0.875 -1.015625 1.34375 -2.375q0.46875 -1.375 0.46875 -3.0l0 -0.296875q0 -1.609375 -0.46875 -2.984375q-0.46875 -1.375 -1.34375 -2.390625q-0.90625 -1.0 -2.203125 -1.578125q-1.296875 -0.578125 -2.96875 -0.578125q-1.671875 0 -2.96875 0.578125q-1.28125 0.578125 -2.171875 1.578125q-0.89056396 1.015625 -1.359314 2.390625q-0.46875 1.375 -0.46875 2.984375zm3.796814 0.296875l0 -0.296875q0 -0.90625 0.171875 -1.703125q0.1875 -0.8125 0.5625 -1.421875q0.390625 -0.609375 0.984375 -0.96875q0.609375 -0.359375 1.453125 -0.359375q0.859375 0 1.453125 0.359375q0.609375 0.359375 1.0 0.96875q0.359375 0.609375 0.53125 1.421875q0.1875 0.796875 0.1875 1.703125l0 0.296875q0 0.921875 -0.1875 1.734375q-0.171875 0.8125 -0.53125 1.421875q-0.390625 0.609375 -1.0 0.96875q-0.59375 0.34375 -1.421875 0.34375q-0.859375 0 -1.46875 -0.34375q-0.609375 -0.359375 -1.0 -0.96875q-0.375 -0.609375 -0.5625 -1.421875q-0.171875 -0.8125 -0.171875 -1.734375zm13.121521 -0.265625l0 0.28125q0 1.609375 0.390625 2.984375q0.40625 1.375 1.15625 2.375q0.734375 1.0 1.796875 1.5625q1.078125 0.5625 2.4375 0.5625q1.234375 0 2.171875 -0.46875q0.953125 -0.484375 1.65625 -1.34375l0.1875 1.546875l3.421875 0l0 -20.984375l-3.8125 0l0 7.53125q-0.671875 -0.765625 -1.5625 -1.1875q-0.875 -0.421875 -2.03125 -0.421875q-1.390625 0 -2.46875 0.546875q-1.0625 0.546875 -1.8125 1.546875q-0.75 1.0 -1.140625 2.390625q-0.390625 1.390625 -0.390625 3.078125zm3.796875 0.28125l0 -0.28125q0 -0.9375 0.15625 -1.75q0.171875 -0.8125 0.53125 -1.421875q0.359375 -0.59375 0.921875 -0.9375q0.5625 -0.359375 1.375 -0.359375q0.96875 0 1.609375 0.421875q0.640625 0.40625 1.015625 1.15625l0 5.984375q-0.375 0.75 -1.03125 1.171875q-0.640625 0.421875 -1.625 0.421875q-0.8125 0 -1.375 -0.34375q-0.546875 -0.34375 -0.90625 -0.9375q-0.359375 -0.59375 -0.515625 -1.390625q-0.15625 -0.796875 -0.15625 -1.734375zm20.55896 7.484375q2.15625 0 3.71875 -0.828125q1.578125 -0.828125 2.296875 -1.859375l-1.890625 -2.046875q-0.65625 0.84375 -1.71875 1.265625q-1.046875 0.421875 -2.171875 0.421875q-0.78125 0 -1.453125 -0.234375q-0.671875 -0.25 -1.1875 -0.703125q-0.515625 -0.4375 -0.8125 -0.96875q-0.296875 -0.546875 -0.484375 -1.4375l0 -0.03125l10.015625 0l0 -1.625q0 -1.625 -0.453125 -2.96875q-0.4375 -1.34375 -1.296875 -2.296875q-0.875 -0.953125 -2.125 -1.484375q-1.25 -0.53125 -2.859375 -0.53125q-1.546875 0 -2.859375 0.5625q-1.296875 0.5625 -2.265625 1.578125q-0.953125 1.0 -1.484375 2.40625q-0.53125 1.40625 -0.53125 3.09375l0 0.546875q0 1.484375 0.53125 2.796875q0.546875 1.296875 1.546875 2.265625q1.0 0.96875 2.390625 1.53125q1.390625 0.546875 3.09375 0.546875zm-0.4375 -12.25q0.71875 0 1.265625 0.234375q0.5625 0.21875 0.9375 0.59375q0.390625 0.40625 0.609375 0.9375q0.21875 0.53125 0.21875 1.125l0 0.3125l-6.234375 0q0.140625 -0.734375 0.40625 -1.3125q0.28125 -0.59375 0.6875 -1.015625q0.390625 -0.421875 0.921875 -0.640625q0.53125 -0.234375 1.1875 -0.234375zm20.684021 -3.078125q-1.5 0 -2.75 0.71875q-1.25 0.71875 -2.15625 1.984375l-0.03125 -0.328125l-0.15625 -2.09375l-3.53125 0l0 14.78125l3.796875 0l0 -8.875q0.265625 -0.640625 0.65625 -1.09375q0.390625 -0.46875 0.953125 -0.765625q0.46875 -0.265625 1.0625 -0.390625q0.59375 -0.140625 1.328125 -0.140625q0.71875 0 1.5 0.09375q0.78125 0.09375 1.53125 0.265625l0.5625 -3.78125q-0.453125 -0.140625 -1.1875 -0.25q-0.71875 -0.125 -1.578125 -0.125z" fill-rule="nonzero"/><path fill="#cfe2f3" d="m185.12878 186.93918l0 0c0 -12.976517 10.5195465 -23.496063 23.496063 -23.496063l0 0c6.231552 0 12.207855 2.4754639 16.614227 6.881836c4.406372 4.406372 6.881836 10.38269 6.881836 16.614227l0 0c0 12.976517 -10.5195465 23.496063 -23.496063 23.496063l0 0c-12.976517 0 -23.496063 -10.5195465 -23.496063 -23.496063z" fill-rule="evenodd"/><path stroke="#000000" stroke-width="0.6876640419947506" stroke-linejoin="round" stroke-linecap="butt" d="m185.12878 186.93918l0 0c0 -12.976517 10.5195465 -23.496063 23.496063 -23.496063l0 0c6.231552 0 12.207855 2.4754639 16.614227 6.881836c4.406372 4.406372 6.881836 10.38269 6.881836 16.614227l0 0c0 12.976517 -10.5195465 23.496063 -23.496063 23.496063l0 0c-12.976517 0 -23.496063 -10.5195465 -23.496063 -23.496063z" fill-rule="evenodd"/><path fill="#cfe2f3" d="m109.538925 186.93918l0 0c0 -12.976517 10.5195465 -23.496063 23.496063 -23.496063l0 0c6.231552 0 12.207855 2.4754639 16.614227 6.881836c4.406372 4.406372 6.881836 10.38269 6.881836 16.614227l0 0c0 12.976517 -10.5195465 23.496063 -23.496063 23.496063l0 0c-12.976517 0 -23.496063 -10.5195465 -23.496063 -23.496063z" fill-rule="evenodd"/><path stroke="#000000" stroke-width="0.6876640419947506" stroke-linejoin="round" stroke-linecap="butt" d="m109.538925 186.93918l0 0c0 -12.976517 10.5195465 -23.496063 23.496063 -23.496063l0 0c6.231552 0 12.207855 2.4754639 16.614227 6.881836c4.406372 4.406372 6.881836 10.38269 6.881836 16.614227l0 0c0 12.976517 -10.5195465 23.496063 -23.496063 23.496063l0 0c-12.976517 0 -23.496063 -10.5195465 -23.496063 -23.496063z" fill-rule="evenodd"/><path fill="#cfe2f3" d="m33.949066 186.93918l0 0c0 -12.976517 10.5195465 -23.496063 23.496063 -23.496063l0 0c6.2315445 0 12.207855 2.4754639 16.614227 6.881836c4.4063644 4.406372 6.881836 10.38269 6.881836 16.614227l0 0c0 12.976517 -10.5195465 23.496063 -23.496063 23.496063l0 0c-12.976517 0 -23.496063 -10.5195465 -23.496063 -23.496063z" fill-rule="evenodd"/><path stroke="#000000" stroke-width="0.6876640419947506" stroke-linejoin="round" stroke-linecap="butt" d="m33.949066 186.93918l0 0c0 -12.976517 10.5195465 -23.496063 23.496063 -23.496063l0 0c6.2315445 0 12.207855 2.4754639 16.614227 6.881836c4.4063644 4.406372 6.881836 10.38269 6.881836 16.614227l0 0c0 12.976517 -10.5195465 23.496063 -23.496063 23.496063l0 0c-12.976517 0 -23.496063 -10.5195465 -23.496063 -23.496063z" fill-rule="evenodd"/><path fill="#cfe2f3" d="m1250.7451 186.93918l0 0c0 -12.976517 10.519531 -23.496063 23.496094 -23.496063l0 0c6.2315674 0 12.207886 2.4754639 16.614258 6.881836c4.406372 4.406372 6.881836 10.38269 6.881836 16.614227l0 0c0 12.976517 -10.519531 23.496063 -23.496094 23.496063l0 0c-12.9765625 0 -23.496094 -10.5195465 -23.496094 -23.496063z" fill-rule="evenodd"/><path stroke="#000000" stroke-width="0.6876640419947506" stroke-linejoin="round" stroke-linecap="butt" d="m1250.7451 186.93918l0 0c0 -12.976517 10.519531 -23.496063 23.496094 -23.496063l0 0c6.2315674 0 12.207886 2.4754639 16.614258 6.881836c4.406372 4.406372 6.881836 10.38269 6.881836 16.614227l0 0c0 12.976517 -10.519531 23.496063 -23.496094 23.496063l0 0c-12.9765625 0 -23.496094 -10.5195465 -23.496094 -23.496063z" fill-rule="evenodd"/><path fill="#cfe2f3" d="m1175.1553 186.93918l0 0c0 -12.976517 10.519531 -23.496063 23.496094 -23.496063l0 0c6.2315674 0 12.207886 2.4754639 16.614258 6.881836c4.406372 4.406372 6.881836 10.38269 6.881836 16.614227l0 0c0 12.976517 -10.519653 23.496063 -23.496094 23.496063l0 0c-12.9765625 0 -23.496094 -10.5195465 -23.496094 -23.496063z" fill-rule="evenodd"/><path stroke="#000000" stroke-width="0.6876640419947506" stroke-linejoin="round" stroke-linecap="butt" d="m1175.1553 186.93918l0 0c0 -12.976517 10.519531 -23.496063 23.496094 -23.496063l0 0c6.2315674 0 12.207886 2.4754639 16.614258 6.881836c4.406372 4.406372 6.881836 10.38269 6.881836 16.614227l0 0c0 12.976517 -10.519653 23.496063 -23.496094 23.496063l0 0c-12.9765625 0 -23.496094 -10.5195465 -23.496094 -23.496063z" fill-rule="evenodd"/><path fill="#cfe2f3" d="m1099.5654 186.93918l0 0c0 -12.976517 10.519531 -23.496063 23.496094 -23.496063l0 0c6.2314453 0 12.207764 2.4754639 16.614136 6.881836c4.406372 4.406372 6.881836 10.38269 6.881836 16.614227l0 0c0 12.976517 -10.519531 23.496063 -23.495972 23.496063l0 0c-12.9765625 0 -23.496094 -10.5195465 -23.496094 -23.496063z" fill-rule="evenodd"/><path stroke="#000000" stroke-width="0.6876640419947506" stroke-linejoin="round" stroke-linecap="butt" d="m1099.5654 186.93918l0 0c0 -12.976517 10.519531 -23.496063 23.496094 -23.496063l0 0c6.2314453 0 12.207764 2.4754639 16.614136 6.881836c4.406372 4.406372 6.881836 10.38269 6.881836 16.614227l0 0c0 12.976517 -10.519531 23.496063 -23.495972 23.496063l0 0c-12.9765625 0 -23.496094 -10.5195465 -23.496094 -23.496063z" fill-rule="evenodd"/><path fill="#cfe2f3" d="m1023.9756 186.93918l0 0c0 -12.976517 10.519531 -23.496063 23.496094 -23.496063l0 0c6.2314453 0 12.207764 2.4754639 16.614136 6.881836c4.406372 4.406372 6.881836 10.38269 6.881836 16.614227l0 0c0 12.976517 -10.519531 23.496063 -23.495972 23.496063l0 0c-12.9765625 0 -23.496094 -10.5195465 -23.496094 -23.496063z" fill-rule="evenodd"/><path stroke="#000000" stroke-width="0.6876640419947506" stroke-linejoin="round" stroke-linecap="butt" d="m1023.9756 186.93918l0 0c0 -12.976517 10.519531 -23.496063 23.496094 -23.496063l0 0c6.2314453 0 12.207764 2.4754639 16.614136 6.881836c4.406372 4.406372 6.881836 10.38269 6.881836 16.614227l0 0c0 12.976517 -10.519531 23.496063 -23.495972 23.496063l0 0c-12.9765625 0 -23.496094 -10.5195465 -23.496094 -23.496063z" fill-rule="evenodd"/><path fill="#dfd9ff" fill-opacity="0.7025" d="m48.390198 112.9694l0 0c0 -9.579361 7.7656097 -17.34497 17.34497 -17.34497l32.86911 0l0 0c4.600174 0 9.01194 1.8274155 12.264748 5.080223c3.2528152 3.2528152 5.0802307 7.6645813 5.0802307 12.264748l0 20.23919c0 9.579361 -7.7656097 17.34497 -17.344978 17.34497l-32.86911 0l0 0c-9.579361 0 -17.34497 -7.7656097 -17.34497 -17.34497z" fill-rule="evenodd"/><path fill="#6f42c1" d="m59.067543 120.09756l0 0c0 -0.766037 0.6210022 -1.3870392 1.387043 -1.3870392l1.2259178 0l0 0c0.36786652 0 0.720665 0.14613342 0.98078537 0.40625763c0.2601204 0.26011658 0.4062538 0.61291504 0.4062538 0.98078156l0 6.5172577c0 0.7660446 -0.6209984 1.3870468 -1.3870392 1.3870468l-1.2259178 0c-0.7660408 0 -1.387043 -0.6210022 -1.387043 -1.3870468z" fill-rule="evenodd"/><path fill="#6f42c1" d="m65.27251 114.36687l0 0c0 -0.766037 0.6210022 -1.3870392 1.3870392 -1.3870392l1.2259216 0l0 0c0.36786652 0 0.720665 0.14613342 0.98078156 0.40625763c0.2601242 0.26011658 0.40625763 0.61291504 0.40625763 0.98078156l0 17.351898c0 0.76605225 -0.6210022 1.3870544 -1.3870392 1.3870544l-1.2259216 0c-0.766037 0 -1.3870392 -0.6210022 -1.3870392 -1.3870544z" fill-rule="evenodd"/><path fill="#6f42c1" d="m71.77496 115.79796l0 0c0 -0.766037 0.6210022 -1.3870392 1.3870468 -1.3870392l1.225914 0l0 0c0.36786652 0 0.720665 0.14613342 0.9807892 0.40625763c0.26011658 0.26011658 0.40625 0.61291504 0.40625 0.98078156l0 14.706238c0 0.766037 -0.62099457 1.3870392 -1.3870392 1.3870392l-1.225914 0c-0.7660446 0 -1.3870468 -0.6210022 -1.3870468 -1.3870392z" fill-rule="evenodd"/><path fill="#6f42c1" d="m78.27743 110.812195l0 0c0 -0.7660446 0.62099457 -1.3870392 1.3870392 -1.3870392l1.2259216 0l0 0c0.36786652 0 0.720665 0.14613342 0.98078156 0.40625c0.2601242 0.2601242 0.40625763 0.61292267 0.40625763 0.9807892l0 24.375519c0 0.76605225 -0.6210022 1.3870392 -1.3870392 1.3870392l-1.2259216 0c-0.7660446 0 -1.3870392 -0.62098694 -1.3870392 -1.3870392z" fill-rule="evenodd"/><path fill="#6f42c1" d="m85.077385 105.67455l0 0c0 -0.7660446 0.6210022 -1.3870468 1.3870392 -1.3870468l1.2259216 0l0 0c0.36786652 0 0.720665 0.14614105 0.98078156 0.40625763c0.2601242 0.2601242 0.40625763 0.61292267 0.40625763 0.9807892l0 35.367653c0 0.766037 -0.6210022 1.3870392 -1.3870392 1.3870392l-1.2259216 0c-0.766037 0 -1.3870392 -0.6210022 -1.3870392 -1.3870392z" fill-rule="evenodd"/><path fill="#6f42c1" d="m91.28235 115.18231l0 0c0 -0.7660446 0.62099457 -1.3870392 1.3870392 -1.3870392l1.2259216 0l0 0c0.36786652 0 0.720665 0.14613342 0.98078156 0.40625c0.2601242 0.2601242 0.40625763 0.61292267 0.40625763 0.9807892l0 15.934586c0 0.766037 -0.6210022 1.3870392 -1.3870392 1.3870392l-1.2259216 0c-0.7660446 0 -1.3870392 -0.6210022 -1.3870392 -1.3870392z" fill-rule="evenodd"/><path fill="#6f42c1" d="m97.48731 117.935104l0 0c0 -0.7660446 0.62099457 -1.3870392 1.3870392 -1.3870392l1.225914 0l0 0c0.36786652 0 0.720665 0.14613342 0.9807892 0.40625c0.26011658 0.2601242 0.40625763 0.61292267 0.40625763 0.9807892l0 10.454269c0 0.766037 -0.6210022 1.3870392 -1.3870468 1.3870392l-1.225914 0c-0.7660446 0 -1.3870392 -0.6210022 -1.3870392 -1.3870392z" fill-rule="evenodd"/><path fill="#dfd9ff" fill-opacity="0.7025" d="m147.80208 113.252716l0 0c0 -9.579361 7.7656097 -17.34497 17.34497 -17.34497l32.86911 0l0 0c4.600174 0 9.011932 1.8274078 12.264755 5.080223c3.2528076 3.2528152 5.0802155 7.6645737 5.0802155 12.264748l0 20.239197c0 9.579361 -7.7656097 17.34497 -17.34497 17.34497l-32.86911 0l0 0c-9.579361 0 -17.34497 -7.7656097 -17.34497 -17.34497z" fill-rule="evenodd"/><path fill="#6f42c1" d="m158.47943 120.380875l0 0c0 -0.7660446 0.62098694 -1.3870392 1.3870392 -1.3870392l1.2259216 0l0 0c0.3678589 0 0.72065735 0.14613342 0.9807739 0.40625c0.26013184 0.2601242 0.40626526 0.61292267 0.40626526 0.9807892l0 6.5172577c0 0.7660446 -0.6210022 1.3870392 -1.3870392 1.3870392l-1.2259216 0c-0.76605225 0 -1.3870392 -0.62099457 -1.3870392 -1.3870392z" fill-rule="evenodd"/><path fill="#6f42c1" d="m164.68439 114.650185l0 0c0 -0.7660446 0.6210022 -1.3870392 1.3870392 -1.3870392l1.2259216 0l0 0c0.3678589 0 0.72065735 0.14613342 0.9807892 0.40625c0.26011658 0.2601242 0.40625 0.61292267 0.40625 0.9807892l0 17.351906c0 0.766037 -0.6210022 1.3870392 -1.3870392 1.3870392l-1.2259216 0c-0.766037 0 -1.3870392 -0.6210022 -1.3870392 -1.3870392z" fill-rule="evenodd"/><path fill="#6f42c1" d="m171.18684 116.081276l0 0c0 -0.7660446 0.6210022 -1.3870392 1.3870392 -1.3870392l1.2259216 0l0 0c0.36787415 0 0.7206726 0.14613342 0.9807892 0.40625c0.26011658 0.2601242 0.40625 0.61292267 0.40625 0.9807892l0 14.70623c0 0.766037 -0.6210022 1.3870392 -1.3870392 1.3870392l-1.2259216 0c-0.766037 0 -1.3870392 -0.6210022 -1.3870392 -1.3870392z" fill-rule="evenodd"/><path fill="#6f42c1" d="m177.68932 111.095505l0 0c0 -0.766037 0.62098694 -1.3870392 1.3870392 -1.3870392l1.2259064 0l0 0c0.36787415 0 0.7206726 0.14613342 0.9807892 0.40625763c0.26011658 0.26011658 0.40626526 0.61292267 0.40626526 0.98078156l0 24.375534c0 0.766037 -0.6210022 1.3870392 -1.3870544 1.3870392l-1.2259064 0c-0.76605225 0 -1.3870392 -0.6210022 -1.3870392 -1.3870392z" fill-rule="evenodd"/><path fill="#6f42c1" d="m184.48927 105.95786l0 0c0 -0.766037 0.62098694 -1.3870392 1.3870392 -1.3870392l1.2259216 0l0 0c0.3678589 0 0.72065735 0.14613342 0.9807739 0.40625763c0.26013184 0.26011658 0.40626526 0.61291504 0.40626526 0.98078156l0 35.367653c0 0.766037 -0.6210022 1.3870392 -1.3870392 1.3870392l-1.2259216 0c-0.76605225 0 -1.3870392 -0.6210022 -1.3870392 -1.3870392z" fill-rule="evenodd"/><path fill="#6f42c1" d="m190.69423 115.46562l0 0c0 -0.766037 0.6210022 -1.3870392 1.3870392 -1.3870392l1.2259216 0l0 0c0.3678589 0 0.72065735 0.14613342 0.9807892 0.40625763c0.26011658 0.26011658 0.40625 0.61291504 0.40625 0.98078156l0 15.934586c0 0.766037 -0.6210022 1.3870392 -1.3870392 1.3870392l-1.2259216 0c-0.766037 0 -1.3870392 -0.6210022 -1.3870392 -1.3870392z" fill-rule="evenodd"/><path fill="#6f42c1" d="m196.89919 118.218414l0 0c0 -0.766037 0.6210022 -1.3870392 1.3870392 -1.3870392l1.2259216 0l0 0c0.36787415 0 0.7206726 0.14613342 0.9807892 0.40625763c0.26011658 0.26011658 0.40625 0.61291504 0.40625 0.98078156l0 10.454269c0 0.766037 -0.62098694 1.3870392 -1.3870392 1.3870392l-1.2259216 0c-0.766037 0 -1.3870392 -0.6210022 -1.3870392 -1.3870392z" fill-rule="evenodd"/><path fill="#dfd9ff" fill-opacity="0.7025" d="m249.18536 112.88677l0 0c0 -9.579369 7.7655945 -17.344978 17.34497 -17.344978l32.86911 0l0 0c4.6001587 0 9.011932 1.8274155 12.26474 5.0802307c3.2528076 3.2528076 5.0802307 7.6645737 5.0802307 12.264748l0 20.23919c0 9.579361 -7.765625 17.34497 -17.34497 17.34497l-32.86911 0l0 0c-9.579376 0 -17.34497 -7.7656097 -17.34497 -17.34497z" fill-rule="evenodd"/><path fill="#6f42c1" d="m259.8627 120.01492l0 0c0 -0.766037 0.6210022 -1.3870392 1.3870544 -1.3870392l1.2259216 0l0 0c0.3678589 0 0.7206421 0.14613342 0.9807739 0.40625763c0.26013184 0.26011658 0.40625 0.61292267 0.40625 0.98078156l0 6.5172653c0 0.766037 -0.6210022 1.3870392 -1.3870239 1.3870392l-1.2259216 0c-0.76605225 0 -1.3870544 -0.6210022 -1.3870544 -1.3870392z" fill-rule="evenodd"/><path fill="#6f42c1" d="m266.06766 114.28423l0 0c0 -0.766037 0.6210022 -1.3870392 1.3870544 -1.3870392l1.2259216 0l0 0c0.3678589 0 0.7206421 0.14613342 0.9807739 0.40625763c0.26013184 0.26011658 0.40625 0.61291504 0.40625 0.98078156l0 17.351906c0 0.766037 -0.6210022 1.3870392 -1.3870239 1.3870392l-1.2259216 0c-0.76605225 0 -1.3870544 -0.6210022 -1.3870544 -1.3870392z" fill-rule="evenodd"/><path fill="#6f42c1" d="m272.57013 115.715324l0 0c0 -0.766037 0.6210022 -1.3870392 1.3870239 -1.3870392l1.2259216 0l0 0c0.3678894 0 0.7206726 0.14613342 0.98080444 0.40625763c0.26010132 0.26011658 0.40625 0.61291504 0.40625 0.98078156l0 14.70623c0 0.76605225 -0.6210022 1.3870392 -1.3870544 1.3870392l-1.2259216 0c-0.7660217 0 -1.3870239 -0.62098694 -1.3870239 -1.3870392z" fill-rule="evenodd"/><path fill="#6f42c1" d="m279.0726 110.72956l0 0c0 -0.7660446 0.6209717 -1.3870392 1.3870239 -1.3870392l1.2259216 0l0 0c0.3678589 0 0.7206726 0.14613342 0.9807739 0.40625c0.26013184 0.2601242 0.40628052 0.61292267 0.40628052 0.9807892l0 24.375526c0 0.766037 -0.6210022 1.3870392 -1.3870544 1.3870392l-1.2259216 0c-0.76605225 0 -1.3870239 -0.6210022 -1.3870239 -1.3870392z" fill-rule="evenodd"/><path fill="#6f42c1" d="m285.87256 105.59192l0 0c0 -0.7660446 0.6209717 -1.3870392 1.3870239 -1.3870392l1.2259216 0l0 0c0.3678589 0 0.7206726 0.14613342 0.9807739 0.40625c0.26013184 0.2601242 0.40628052 0.61292267 0.40628052 0.9807892l0 35.367645c0 0.76605225 -0.6210022 1.3870392 -1.3870544 1.3870392l-1.2259216 0c-0.76605225 0 -1.3870239 -0.62098694 -1.3870239 -1.3870392z" fill-rule="evenodd"/><path fill="#6f42c1" d="m292.0775 115.09968l0 0c0 -0.7660446 0.6210022 -1.3870392 1.3870239 -1.3870392l1.2259216 0l0 0c0.3678589 0 0.7206726 0.14613342 0.98080444 0.40625c0.26010132 0.2601242 0.40625 0.61292267 0.40625 0.9807892l0 15.934578c0 0.766037 -0.6210022 1.3870392 -1.3870544 1.3870392l-1.2259216 0c-0.7660217 0 -1.3870239 -0.6210022 -1.3870239 -1.3870392z" fill-rule="evenodd"/><path fill="#6f42c1" d="m298.28247 117.85247l0 0c0 -0.7660446 0.6210022 -1.3870392 1.3870239 -1.3870392l1.2259216 0l0 0c0.3678894 0 0.7206726 0.14613342 0.98080444 0.40625c0.26010132 0.2601242 0.40625 0.61292267 0.40625 0.9807892l0 10.454262c0 0.766037 -0.6210022 1.3870392 -1.3870544 1.3870392l-1.2259216 0c-0.7660217 0 -1.3870239 -0.6210022 -1.3870239 -1.3870392z" fill-rule="evenodd"/><path fill="#dfd9ff" fill-opacity="0.7025" d="m349.58295 113.53603l0 0c0 -9.579369 7.7655945 -17.344978 17.34497 -17.344978l32.86911 0l0 0c4.6001587 0 9.011932 1.8274155 12.26474 5.0802307c3.2528076 3.2528076 5.0802307 7.6645737 5.0802307 12.264748l0 20.23919c0 9.579361 -7.765625 17.34497 -17.34497 17.34497l-32.86911 0l0 0c-9.579376 0 -17.34497 -7.7656097 -17.34497 -17.34497z" fill-rule="evenodd"/><path fill="#6f42c1" d="m360.26028 120.66419l0 0c0 -0.7660446 0.6210022 -1.3870468 1.3870239 -1.3870468l1.2259216 0l0 0c0.3678894 0 0.7206726 0.14614105 0.98080444 0.40625763c0.26010132 0.2601242 0.40625 0.61292267 0.40625 0.9807892l0 6.5172577c0 0.766037 -0.6210022 1.3870316 -1.3870544 1.3870316l-1.2259216 0c-0.7660217 0 -1.3870239 -0.62099457 -1.3870239 -1.3870316z" fill-rule="evenodd"/><path fill="#6f42c1" d="m366.46524 114.933495l0 0c0 -0.766037 0.6210022 -1.3870392 1.3870544 -1.3870392l1.2259216 0l0 0c0.3678589 0 0.7206421 0.14613342 0.9807739 0.40625763c0.26013184 0.26011658 0.40625 0.61291504 0.40625 0.98078156l0 17.351906c0 0.766037 -0.6210022 1.3870392 -1.3870239 1.3870392l-1.2259216 0c-0.76605225 0 -1.3870544 -0.6210022 -1.3870544 -1.3870392z" fill-rule="evenodd"/><path fill="#6f42c1" d="m372.9677 116.364586l0 0c0 -0.766037 0.6210022 -1.3870392 1.3870239 -1.3870392l1.2259216 0l0 0c0.3678589 0 0.7206726 0.14613342 0.98080444 0.40625763c0.26010132 0.26011658 0.40625 0.61291504 0.40625 0.98078156l0 14.70623c0 0.76605225 -0.6210022 1.3870544 -1.3870544 1.3870544l-1.2259216 0c-0.7660217 0 -1.3870239 -0.6210022 -1.3870239 -1.3870544z" fill-rule="evenodd"/><path fill="#6f42c1" d="m379.47015 111.37882l0 0c0 -0.7660446 0.6210022 -1.3870392 1.3870544 -1.3870392l1.2259216 0l0 0c0.3678589 0 0.7206726 0.14613342 0.9807739 0.40625763c0.26013184 0.26011658 0.40625 0.61291504 0.40625 0.98078156l0 24.375526c0 0.766037 -0.6210022 1.3870392 -1.3870239 1.3870392l-1.2259216 0c-0.76605225 0 -1.3870544 -0.6210022 -1.3870544 -1.3870392z" fill-rule="evenodd"/><path fill="#6f42c1" d="m386.2701 106.24118l0 0c0 -0.7660446 0.6210022 -1.3870392 1.3870544 -1.3870392l1.2259216 0l0 0c0.3678589 0 0.7206726 0.14613342 0.9807739 0.40625c0.26013184 0.2601242 0.40625 0.61292267 0.40625 0.9807892l0 35.367645c0 0.76605225 -0.6209717 1.3870392 -1.3870239 1.3870392l-1.2259216 0c-0.76605225 0 -1.3870544 -0.62098694 -1.3870544 -1.3870392z" fill-rule="evenodd"/><path fill="#6f42c1" d="m392.4751 115.74894l0 0c0 -0.7660446 0.6210022 -1.3870392 1.3870239 -1.3870392l1.2259216 0l0 0c0.3678589 0 0.7206726 0.14613342 0.9807739 0.40625c0.26013184 0.2601242 0.40628052 0.61292267 0.40628052 0.9807892l0 15.934578c0 0.766037 -0.6210022 1.3870392 -1.3870544 1.3870392l-1.2259216 0c-0.7660217 0 -1.3870239 -0.6210022 -1.3870239 -1.3870392z" fill-rule="evenodd"/><path fill="#6f42c1" d="m398.68005 118.50173l0 0c0 -0.7660446 0.6210022 -1.3870392 1.3870239 -1.3870392l1.2259216 0l0 0c0.3678589 0 0.7206726 0.14613342 0.98080444 0.40625c0.26010132 0.2601242 0.40625 0.61292267 0.40625 0.9807892l0 10.454262c0 0.76605225 -0.6210022 1.3870392 -1.3870544 1.3870392l-1.2259216 0c-0.7660217 0 -1.3870239 -0.62098694 -1.3870239 -1.3870392z" fill-rule="evenodd"/><path fill="#dfd9ff" fill-opacity="0.2549" d="m1014.50714 107.5273l65.921326 -0.03149414l0 38.11023l-65.921326 0.03149414z" fill-rule="evenodd"/><path fill="#000000" d="m1036.6759 128.00064l-1.015625 4.8828125E-4q-0.046875 0.37501526 -0.171875 0.6875763q-0.125 0.31256104 -0.328125 0.5314026q-0.203125 0.23448181 -0.5 0.35961914q-0.296875 0.12513733 -0.6875 0.12532043q-0.375 1.8310547E-4 -0.65625 -0.109054565q-0.265625 -0.12487793 -0.46875 -0.32789612q-0.203125 -0.21865845 -0.34375 -0.4842224q-0.125 -0.26556396 -0.21875 -0.5780182q-0.078125 -0.29683685 -0.125 -0.60931396q-0.03125 -0.32810974 -0.03125 -0.62498474l0 -1.125q0 -0.296875 0.03125 -0.60939026q0.046875 -0.3281479 0.125 -0.62506104q0.09375 -0.31254578 0.21875 -0.5782242q0.140625 -0.26569366 0.34375 -0.48454285q0.203125 -0.20322418 0.46875 -0.31272125q0.28125 -0.12513733 0.65625 -0.1253128q0.390625 -1.9073486E-4 0.6875 0.14029694q0.296875 0.14048004 0.5 0.37475586q0.203125 0.23428345 0.328125 0.5467224q0.125 0.31243896 0.171875 0.6717911l1.015625 -4.8828125E-4q-0.0625 -0.5624695 -0.265625 -1.0311203q-0.203125 -0.48427582 -0.546875 -0.8278656q-0.34375 -0.32795715 -0.828125 -0.5152283q-0.46875 -0.18727875 -1.0625 -0.18698883q-0.5 2.3651123E-4 -0.90625 0.14105225q-0.40625 0.14082336 -0.71875 0.39096832q-0.328125 0.25016022 -0.5625 0.59402466q-0.21875 0.32822418 -0.359375 0.73454285q-0.15625 0.3907013 -0.234375 0.82823944q-0.078125 0.43753815 -0.078125 0.87503815l0 1.125q0 0.453125 0.078125 0.89058685q0.078125 0.42183685 0.234375 0.82801056q0.140625 0.39056396 0.359375 0.73420715q0.234375 0.3280182 0.5625 0.57785034q0.3125 0.24984741 0.71875 0.3902893q0.40625 0.14042664 0.90625 0.1401825q0.578125 -2.746582E-4 1.046875 -0.18798828q0.46875 -0.18772888 0.8125 -0.5160217q0.34375 -0.32829285 0.5625 -0.7971344q0.21875 -0.4688568 0.28125 -1.0313873zm2.6074219 -2.6575012l0 -3.390625l-1.03125 4.9591064E-4l0 8.468742l1.03125 -4.8828125E-4l0 -4.328125q0.109375 -0.1875534 0.25 -0.32824707q0.140625 -0.14068604 0.296875 -0.26576233q0.21875 -0.14073181 0.46875 -0.21897125q0.25 -0.07824707 0.515625 -0.07837677q0.34375 -1.6021729E-4 0.59375 0.09346771q0.265625 0.0936203 0.4375 0.296669q0.15625 0.1717987 0.234375 0.43738556q0.09375 0.26557922 0.09375 0.6249542l0 3.7656326l1.015625 -4.8828125E-4l0 -3.75q0 -0.6093826 -0.15625 -1.0468063q-0.140625 -0.43743134 -0.40625 -0.71855164q-0.265625 -0.29675293 -0.65625 -0.4215622q-0.375 -0.14044952 -0.84375 -0.14022064q-0.359375 1.6784668E-4 -0.6875 0.109703064q-0.3125 0.09389496 -0.578125 0.28152466q-0.15625 0.1250763 -0.3125 0.28139496q-0.140625 0.14069366 -0.265625 0.3282547zm9.685425 5.0735016l0.921875 -4.4250488E-4l0 -5.96875l-1.015625 4.8065186E-4l0 4.2812576q-0.09375 0.18754578 -0.21875 0.3594818q-0.109375 0.15629578 -0.28125 0.28137207q-0.203125 0.14073181 -0.46875 0.21897888q-0.265625 0.07824707 -0.609375 0.07841492q-0.296875 1.373291E-4 -0.515625 -0.07788086q-0.21875 -0.07801819 -0.375 -0.2654419q-0.15625 -0.1874237 -0.234375 -0.4998932q-0.078125 -0.32807922 -0.078125 -0.8124542l0 -3.5625l-1.015625 4.8065186E-4l0 3.546875q0 0.6718826 0.140625 1.1561813q0.140625 0.46868896 0.421875 0.78105164q0.265625 0.29675293 0.640625 0.45281982q0.390625 0.1404419 0.859375 0.14021301q0.578125 -2.746582E-4 1.015625 -0.23486328q0.453125 -0.25021362 0.75 -0.70347595l0.0625 0.8280945zm2.8417969 -0.0013580322l1.03125 -4.8828125E-4l0 -4.2812576q0.09375 -0.18754578 0.234375 -0.34386444q0.140625 -0.17193604 0.3125 -0.29701996q0.203125 -0.12509918 0.4375 -0.20333862q0.25 -0.09386444 0.53125 -0.09400177q0.328125 -1.5258789E-4 0.578125 0.07785034q0.25 0.07800293 0.421875 0.249794q0.171875 0.1717987 0.265625 0.45300293q0.09375 0.26557922 0.09375 0.6718292l0 3.7656326l1.015625 -4.8828125E-4l0 -3.7968826q0 -0.59375 -0.15625 -1.0155487q-0.140625 -0.43743134 -0.40625 -0.71855164q-0.265625 -0.28112793 -0.65625 -0.4059372q-0.375 -0.14044952 -0.84375 -0.14022064q-0.359375 1.6784668E-4 -0.671875 0.109695435q-0.3125 0.09389496 -0.5625 0.26589203q-0.1875 0.10946655 -0.34375 0.28141022q-0.15625 0.1563263 -0.28125 0.34388733l-0.078125 -0.89058685l-0.921875 4.4250488E-4l0 5.96875zm8.57605 -2.785347l2.1875 2.7802048l1.296875 -6.2561035E-4l-2.78125 -3.4830399l2.40625 -2.485527l-1.234375 5.874634E-4l-1.953125 1.9696808l-0.671875 0.71907806l0 -5.1875076l-1.03125 4.9591064E-4l0 8.46875l1.03125 -4.8828125E-4l0 -2.0625l0.75 -0.7191086z" fill-rule="nonzero"/><path fill="#dfd9ff" fill-opacity="0.2549" d="m1107.5444 107.5273l65.921265 -0.03149414l0 38.11023l-65.921265 0.03149414z" fill-rule="evenodd"/><path fill="#000000" d="m1129.7133 128.00064l-1.015625 4.8828125E-4q-0.046875 0.37501526 -0.171875 0.6875763q-0.125 0.31256104 -0.328125 0.5314026q-0.203125 0.23448181 -0.5 0.35961914q-0.296875 0.12513733 -0.6875 0.12532043q-0.375 1.8310547E-4 -0.65625 -0.109054565q-0.265625 -0.12487793 -0.46875 -0.32789612q-0.203125 -0.21865845 -0.34375 -0.4842224q-0.125 -0.26556396 -0.21875 -0.5780182q-0.078125 -0.29683685 -0.125 -0.60931396q-0.03125 -0.32810974 -0.03125 -0.62498474l0 -1.125q0 -0.296875 0.03125 -0.60939026q0.046875 -0.3281479 0.125 -0.62506104q0.09375 -0.31254578 0.21875 -0.5782242q0.140625 -0.26569366 0.34375 -0.48454285q0.203125 -0.20322418 0.46875 -0.31272125q0.28125 -0.12513733 0.65625 -0.1253128q0.390625 -1.9073486E-4 0.6875 0.14029694q0.296875 0.14048004 0.5 0.37475586q0.203125 0.23428345 0.328125 0.5467224q0.125 0.31243896 0.171875 0.6717911l1.015625 -4.8828125E-4q-0.0625 -0.5624695 -0.265625 -1.0311203q-0.203125 -0.48427582 -0.546875 -0.8278656q-0.34375 -0.32795715 -0.828125 -0.5152283q-0.46875 -0.18727875 -1.0625 -0.18698883q-0.5 2.3651123E-4 -0.90625 0.14105225q-0.40625 0.14082336 -0.71875 0.39096832q-0.328125 0.25016022 -0.5625 0.59402466q-0.21875 0.32822418 -0.359375 0.73454285q-0.15625 0.3907013 -0.234375 0.82823944q-0.078125 0.43753815 -0.078125 0.87503815l0 1.125q0 0.453125 0.078125 0.89058685q0.078125 0.42183685 0.234375 0.82801056q0.140625 0.39056396 0.359375 0.73420715q0.234375 0.3280182 0.5625 0.57785034q0.3125 0.24984741 0.71875 0.3902893q0.40625 0.14042664 0.90625 0.1401825q0.578125 -2.746582E-4 1.046875 -0.18798828q0.46875 -0.18772888 0.8125 -0.5160217q0.34375 -0.32829285 0.5625 -0.7971344q0.21875 -0.4688568 0.28125 -1.0313873zm2.6072998 -2.6575012l0 -3.390625l-1.03125 4.9591064E-4l0 8.468742l1.03125 -4.8828125E-4l0 -4.328125q0.109375 -0.1875534 0.25 -0.32824707q0.140625 -0.14068604 0.296875 -0.26576233q0.21875 -0.14073181 0.46875 -0.21897125q0.25 -0.07824707 0.515625 -0.07837677q0.34375 -1.6021729E-4 0.59375 0.09346771q0.265625 0.0936203 0.4375 0.296669q0.15625 0.1717987 0.234375 0.43738556q0.09375 0.26557922 0.09375 0.6249542l0 3.7656326l1.015625 -4.8828125E-4l0 -3.75q0 -0.6093826 -0.15625 -1.0468063q-0.140625 -0.43743134 -0.40625 -0.71855164q-0.265625 -0.29675293 -0.65625 -0.4215622q-0.375 -0.14044952 -0.84375 -0.14022064q-0.359375 1.6784668E-4 -0.6875 0.109703064q-0.3125 0.09389496 -0.578125 0.28152466q-0.15625 0.1250763 -0.3125 0.28139496q-0.140625 0.14069366 -0.265625 0.3282547zm9.685547 5.0735016l0.921875 -4.4250488E-4l0 -5.96875l-1.015625 4.8065186E-4l0 4.2812576q-0.09375 0.18754578 -0.21875 0.3594818q-0.109375 0.15629578 -0.28125 0.28137207q-0.203125 0.14073181 -0.46875 0.21897888q-0.265625 0.07824707 -0.609375 0.07841492q-0.296875 1.373291E-4 -0.515625 -0.07788086q-0.21875 -0.07801819 -0.375 -0.2654419q-0.15625 -0.1874237 -0.234375 -0.4998932q-0.078125 -0.32807922 -0.078125 -0.8124542l0 -3.5625l-1.015625 4.8065186E-4l0 3.546875q0 0.6718826 0.140625 1.1561813q0.140625 0.46868896 0.421875 0.78105164q0.265625 0.29675293 0.640625 0.45281982q0.390625 0.1404419 0.859375 0.14021301q0.578125 -2.746582E-4 1.015625 -0.23486328q0.453125 -0.25021362 0.75 -0.70347595l0.0625 0.8280945zm2.8416748 -0.0013580322l1.03125 -4.8828125E-4l0 -4.2812576q0.09375 -0.18754578 0.234375 -0.34386444q0.140625 -0.17193604 0.3125 -0.29701996q0.203125 -0.12509918 0.4375 -0.20333862q0.25 -0.09386444 0.53125 -0.09400177q0.328125 -1.5258789E-4 0.578125 0.07785034q0.25 0.07800293 0.421875 0.249794q0.171875 0.1717987 0.265625 0.45300293q0.09375 0.26557922 0.09375 0.6718292l0 3.7656326l1.015625 -4.8828125E-4l0 -3.7968826q0 -0.59375 -0.15625 -1.0155487q-0.140625 -0.43743134 -0.40625 -0.71855164q-0.265625 -0.28112793 -0.65625 -0.4059372q-0.375 -0.14044952 -0.84375 -0.14022064q-0.359375 1.6784668E-4 -0.671875 0.109695435q-0.3125 0.09389496 -0.5625 0.26589203q-0.1875 0.10946655 -0.34375 0.28141022q-0.15625 0.1563263 -0.28125 0.34388733l-0.078125 -0.89058685l-0.921875 4.4250488E-4l0 5.96875zm8.576172 -2.785347l2.1875 2.7802048l1.296875 -6.2561035E-4l-2.78125 -3.4830399l2.40625 -2.485527l-1.234375 5.874634E-4l-1.953125 1.9696808l-0.671875 0.71907806l0 -5.1875076l-1.03125 4.9591064E-4l0 8.46875l1.03125 -4.8828125E-4l0 -2.0625l0.75 -0.7191086z" fill-rule="nonzero"/></g></svg>