<svg version="1.1" viewBox="0.0 0.0 1728.0 576.0" fill="none" stroke="none" stroke-linecap="square" stroke-miterlimit="10" xmlns:xlink="http://www.w3.org/1999/xlink" xmlns="http://www.w3.org/2000/svg"><clipPath id="p.0"><path d="m0 0l1728.0 0l0 576.0l-1728.0 0l0 -576.0z" clip-rule="nonzero"/></clipPath><g clip-path="url(#p.0)"><path fill="#ffffff" d="m0 0l1728.0 0l0 576.0l-1728.0 0z" fill-rule="evenodd"/><path fill="#cfe2f3" d="m100.32021 149.31758l285.70078 0l0 190.64568l-285.70078 0z" fill-rule="evenodd"/><path stroke="#000000" stroke-width="1.0" stroke-linejoin="round" stroke-linecap="butt" d="m100.32021 149.31758l285.70078 0l0 190.64568l-285.70078 0z" fill-rule="evenodd"/><path fill="#cfe2f3" d="m1391.4698 131.8521l302.48816 0l0 201.85826l-302.48816 0z" fill-rule="evenodd"/><path stroke="#000000" stroke-width="1.0" stroke-linejoin="round" stroke-linecap="butt" d="m1391.4698 131.8521l302.48816 0l0 201.85826l-302.48816 0z" fill-rule="evenodd"/><path fill="#000000" fill-opacity="0.0" d="m113.16273 349.96326l569.03937 0l0 58.173218l-569.03937 0z" fill-rule="evenodd"/><path fill="#000000" d="m134.89711 370.57388q-1.375 0 -2.484375 0.53125q-1.09375 0.53125 -1.875 1.546875q-0.765625 1.0 -1.171875 2.421875q-0.390625 1.421875 -0.390625 3.25q0 2.40625 0.671875 4.125q0.671875 1.703125 2.03125 2.59375q1.359375 0.890625 3.40625 0.890625q1.515625 0 2.90625 -0.34375q1.390625 -0.359375 2.796875 -0.890625l0 4.15625q-1.4375 0.609375 -2.9375 0.875q-1.484375 0.265625 -3.296875 0.265625q-3.65625 0 -6.015625 -1.453125q-2.3437576 -1.453125 -3.4843826 -4.109375q-1.125 -2.65625 -1.125 -6.140625q0 -2.59375 0.71875 -4.75q0.71875 -2.15625 2.125 -3.71875q1.4062576 -1.578125 3.4531326 -2.4375q2.046875 -0.875 4.734375 -0.875q1.703125 0 3.4375 0.375q1.75 0.359375 3.3125 1.140625l-1.59375 3.890625q-1.15625 -0.53125 -2.453125 -0.9375q-1.296875 -0.40625 -2.765625 -0.40625zm14.981537 19.109375l-4.828125 0l0 -24.3125l4.828125 0l0 24.3125zm9.567276 -17.46875l0 17.46875l-4.828125 0l0 -17.46875l4.828125 0zm-2.40625 -6.890625q1.0625 0 1.84375 0.5q0.78125 0.5 0.78125 1.875q0 1.3125 -0.78125 1.828125q-0.78125 0.515625 -1.84375 0.515625q-1.078125 0 -1.859375 -0.515625q-0.765625 -0.515625 -0.765625 -1.828125q0 -1.375 0.765625 -1.875q0.78125 -0.5 1.859375 -0.5zm14.568024 6.5625q2.421875 0 4.1875 0.921875q1.765625 0.90625 2.703125 2.6875q0.9375 1.765625 0.9375 4.328125l0 2.34375l-11.21875 0q0.0625 1.984375 1.203125 3.125q1.15625 1.125 3.296875 1.125q1.640625 0 2.984375 -0.3125q1.34375 -0.328125 2.75 -0.96875l0 3.625q-1.28125 0.640625 -2.703125 0.9375q-1.421875 0.296875 -3.53125 0.296875q-2.59375 0 -4.59375 -0.953125q-2.0 -0.953125 -3.15625 -2.953125q-1.15625 -2.0 -1.15625 -5.015625q0 -3.078125 1.03125 -5.109375q1.046875 -2.03125 2.921875 -3.046875q1.875 -1.03125 4.34375 -1.03125zm0.125 3.421875q-1.4375 0 -2.34375 0.921875q-0.890625 0.90625 -1.046875 2.703125l6.59375 0q0 -1.0625 -0.359375 -1.859375q-0.34375 -0.796875 -1.078125 -1.28125q-0.71875 -0.484375 -1.765625 -0.484375zm21.49466 -3.421875q2.890625 0 4.546875 1.515625q1.671875 1.5 1.671875 4.890625l0 11.390625l-4.796875 0l0 -10.171875q0 -1.890625 -0.6875 -2.828125q-0.6875 -0.953125 -2.140625 -0.953125q-2.171875 0 -2.953125 1.5q-0.78125 1.484375 -0.78125 4.265625l0 8.1875l-4.828125 0l0 -17.46875l3.703125 0l0.671875 2.328125l0.1875 0q0.578125 -0.859375 1.390625 -1.453125q0.828125 -0.59375 1.828125 -0.890625q1.015625 -0.3125 2.1875 -0.3125zm18.346924 14.3125q0.796875 0 1.53125 -0.15625q0.734375 -0.171875 1.46875 -0.390625l0 3.546875q-0.765625 0.328125 -1.90625 0.5625q-1.125 0.234375 -2.46875 0.234375q-1.578125 0 -2.8125 -0.5q-1.21875 -0.515625 -1.9375 -1.78125q-0.71875 -1.265625 -0.71875 -3.5l0 -8.421875l-2.28125 0l0 -2.015625l2.625 -1.59375l1.375 -3.6875l3.046875 0l0 3.71875l4.890625 0l0 3.578125l-4.890625 0l0 8.421875q0 0.984375 0.5625 1.484375q0.578125 0.5 1.515625 0.5z" fill-rule="nonzero"/><path fill="#000000" fill-opacity="0.0" d="m1391.4698 333.71127l569.0393 0l0 58.17325l-569.0393 0z" fill-rule="evenodd"/><path fill="#000000" d="m1416.8292 367.08752q0 2.03125 -1.0 3.53125q-0.984375 1.5 -2.859375 2.3125q-1.875 0.8125 -4.5625 0.8125q-1.1875 0 -2.328125 -0.15625q-1.125 -0.15625 -2.171875 -0.453125q-1.03125 -0.3125 -1.96875 -0.765625l0 -4.5q1.640625 0.703125 3.375 1.296875q1.75 0.578125 3.46875 0.578125q1.1875 0 1.90625 -0.3125q0.71875 -0.3125 1.046875 -0.859375q0.34375 -0.546875 0.34375 -1.25q0 -0.859375 -0.59375 -1.46875q-0.578125 -0.609375 -1.578125 -1.140625q-0.984375 -0.53125 -2.265625 -1.140625q-0.796875 -0.375 -1.734375 -0.90625q-0.921875 -0.53125 -1.78125 -1.3125q-0.84375 -0.78125 -1.390625 -1.90625q-0.53125 -1.125 -0.53125 -2.6875q0 -2.046875 0.9375 -3.5q0.9375 -1.453125 2.6875 -2.21875q1.75 -0.78125 4.109375 -0.78125q1.796875 0 3.40625 0.421875q1.625 0.40625 3.375 1.1875l-1.5625 3.765625q-1.5625 -0.640625 -2.8125 -0.984375q-1.25 -0.359375 -2.5625 -0.359375q-0.890625 0 -1.53125 0.296875q-0.640625 0.28125 -0.984375 0.796875q-0.328125 0.515625 -0.328125 1.21875q0 0.796875 0.46875 1.359375q0.484375 0.5625 1.4375 1.078125q0.96875 0.5 2.40625 1.203125q1.765625 0.828125 3.0 1.734375q1.234375 0.890625 1.90625 2.109375q0.671875 1.21875 0.671875 3.0zm11.069458 -11.453125q2.421875 0 4.1875 0.921875q1.765625 0.90625 2.703125 2.6875q0.9375 1.765625 0.9375 4.328125l0 2.34375l-11.21875 0q0.0625 1.984375 1.203125 3.125q1.15625 1.125 3.296875 1.125q1.640625 0 2.984375 -0.3125q1.34375 -0.328125 2.75 -0.96875l0 3.625q-1.28125 0.640625 -2.703125 0.9375q-1.421875 0.296875 -3.53125 0.296875q-2.59375 0 -4.59375 -0.953125q-2.0 -0.953125 -3.15625 -2.953125q-1.15625 -2.0 -1.15625 -5.015625q0 -3.078125 1.03125 -5.109375q1.046875 -2.03125 2.921875 -3.046875q1.875 -1.03125 4.34375 -1.03125zm0.125 3.421875q-1.4375 0 -2.34375 0.921875q-0.890625 0.90625 -1.046875 2.703125l6.59375 0q0 -1.0625 -0.359375 -1.859375q-0.34375 -0.796875 -1.078125 -1.28125q-0.71875 -0.484375 -1.765625 -0.484375zm21.182251 -3.421875q0.484375 0 1.03125 0.046875q0.5625 0.046875 0.890625 0.15625l-0.484375 4.5q-0.34375 -0.0625 -0.828125 -0.125q-0.484375 -0.0625 -1.15625 -0.0625q-0.734375 0 -1.484375 0.234375q-0.75 0.21875 -1.390625 0.734375q-0.640625 0.5 -1.03125 1.34375q-0.375 0.828125 -0.375 2.109375l0 8.859375l-4.828125 0l0 -17.46875l3.671875 0l0.703125 2.9375l0.21875 0q0.515625 -0.921875 1.28125 -1.65625q0.765625 -0.734375 1.71875 -1.171875q0.96875 -0.4375 2.0625 -0.4375zm8.960205 17.796875l-6.65625 -17.46875l5.0625 0l3.25 10.296875q0.140625 0.359375 0.28125 0.875q0.140625 0.5 0.265625 1.046875q0.125 0.546875 0.171875 0.96875l0.125 0q0.03125 -0.421875 0.15625 -0.953125q0.125 -0.53125 0.28125 -1.03125q0.171875 -0.515625 0.296875 -0.875l3.328125 -10.328125l5.046875 0l-6.65625 17.46875l-4.953125 0zm21.41272 -17.796875q2.421875 0 4.1875 0.921875q1.765625 0.90625 2.703125 2.6875q0.9375 1.765625 0.9375 4.328125l0 2.34375l-11.21875 0q0.0625 1.984375 1.203125 3.125q1.15625 1.125 3.296875 1.125q1.640625 0 2.984375 -0.3125q1.34375 -0.328125 2.75 -0.96875l0 3.625q-1.28125 0.640625 -2.703125 0.9375q-1.421875 0.296875 -3.53125 0.296875q-2.59375 0 -4.59375 -0.953125q-2.0 -0.953125 -3.15625 -2.953125q-1.15625 -2.0 -1.15625 -5.015625q0 -3.078125 1.03125 -5.109375q1.046875 -2.03125 2.921875 -3.046875q1.875 -1.03125 4.34375 -1.03125zm0.125 3.421875q-1.4375 0 -2.34375 0.921875q-0.890625 0.90625 -1.046875 2.703125l6.59375 0q0 -1.0625 -0.359375 -1.859375q-0.34375 -0.796875 -1.078125 -1.28125q-0.71875 -0.484375 -1.765625 -0.484375zm21.182129 -3.421875q0.484375 0 1.03125 0.046875q0.5625 0.046875 0.890625 0.15625l-0.484375 4.5q-0.34375 -0.0625 -0.828125 -0.125q-0.484375 -0.0625 -1.15625 -0.0625q-0.734375 0 -1.484375 0.234375q-0.75 0.21875 -1.390625 0.734375q-0.640625 0.5 -1.03125 1.34375q-0.375 0.828125 -0.375 2.109375l0 8.859375l-4.828125 0l0 -17.46875l3.671875 0l0.703125 2.9375l0.21875 0q0.515625 -0.921875 1.28125 -1.65625q0.765625 -0.734375 1.71875 -1.171875q0.96875 -0.4375 2.0625 -0.4375z" fill-rule="nonzero"/><path fill="#000000" fill-opacity="0.0" d="m386.021 232.78215l1005.44885 0" fill-rule="evenodd"/><path stroke="#000000" stroke-width="2.0" stroke-linejoin="round" stroke-linecap="butt" d="m386.021 232.78215l993.44885 0" fill-rule="evenodd"/><path fill="#000000" stroke="#000000" stroke-width="2.0" stroke-linecap="butt" d="m1379.4698 236.08562l9.076172 -3.3034668l-9.076172 -3.3034668z" fill-rule="evenodd"/><path fill="#fff2cc" d="m1096.1339 213.44357l229.32275 0l0 38.677155l-229.32275 0z" fill-rule="evenodd"/><path fill="#000000" d="m1133.9159 233.2828l0 -1.265625l-4.9375 0l0 -3.796875l5.671875 0l0 -1.28125l-7.171875 0l0 11.8125l7.25 0l0 -1.28125l-5.75 0l0 -4.1875l4.9375 0zm3.4609375 5.46875l1.515625 0l0 -6.296875q0.140625 -0.28125 0.34375 -0.515625q0.21875 -0.234375 0.453125 -0.421875q0.3125 -0.203125 0.65625 -0.3125q0.359375 -0.125 0.78125 -0.125q0.484375 0 0.84375 0.125q0.375 0.109375 0.625 0.359375q0.265625 0.25 0.390625 0.65625q0.125 0.40625 0.125 0.984375l0 5.546875l1.5 0l0 -5.578125q0 -0.875 -0.21875 -1.515625q-0.203125 -0.640625 -0.609375 -1.046875q-0.390625 -0.421875 -0.953125 -0.609375q-0.5625 -0.203125 -1.265625 -0.203125q-0.5 0.015625 -0.96875 0.15625q-0.453125 0.140625 -0.84375 0.40625q-0.265625 0.171875 -0.5 0.40625q-0.21875 0.21875 -0.421875 0.5l-0.09375 -1.296875l-1.359375 0l0 8.78125zm13.726685 -1.0625q-0.703125 0 -1.1875 -0.265625q-0.46875 -0.28125 -0.75 -0.734375q-0.296875 -0.453125 -0.421875 -1.015625q-0.125 -0.5625 -0.125 -1.140625l0 -0.34375q0 -0.5625 0.125 -1.125q0.125 -0.5625 0.421875 -1.015625q0.28125 -0.453125 0.75 -0.734375q0.484375 -0.28125 1.1875 -0.28125q0.453125 0 0.84375 0.15625q0.390625 0.15625 0.6875 0.421875q0.28125 0.265625 0.4375 0.625q0.171875 0.359375 0.1875 0.75l1.40625 0q0 -0.65625 -0.265625 -1.234375q-0.265625 -0.59375 -0.734375 -1.03125q-0.484375 -0.421875 -1.140625 -0.671875q-0.640625 -0.25 -1.421875 -0.25q-1.0 0 -1.75 0.359375q-0.75 0.359375 -1.234375 0.96875q-0.5 0.609375 -0.765625 1.40625q-0.25 0.78125 -0.25 1.65625l0 0.34375q0 0.875 0.25 1.671875q0.265625 0.78125 0.765625 1.390625q0.484375 0.609375 1.234375 0.96875q0.75 0.34375 1.75 0.34375q0.703125 0 1.34375 -0.234375q0.640625 -0.234375 1.125 -0.640625q0.5 -0.40625 0.796875 -0.9375q0.296875 -0.53125 0.296875 -1.109375l-1.40625 0q-0.015625 0.359375 -0.203125 0.671875q-0.171875 0.3125 -0.484375 0.546875q-0.296875 0.234375 -0.6875 0.359375q-0.375 0.125 -0.78125 0.125zm5.8046875 -3.40625l0 0.171875q0 0.953125 0.28125 1.765625q0.28125 0.8125 0.796875 1.40625q0.515625 0.609375 1.25 0.953125q0.75 0.328125 1.6875 0.328125q0.921875 0 1.65625 -0.328125q0.734375 -0.34375 1.265625 -0.953125q0.5 -0.59375 0.78125 -1.40625q0.28125 -0.8125 0.28125 -1.765625l0 -0.171875q0 -0.953125 -0.28125 -1.765625q-0.28125 -0.8125 -0.78125 -1.421875q-0.53125 -0.59375 -1.28125 -0.9375q-0.734375 -0.359375 -1.671875 -0.359375q-0.921875 0 -1.65625 0.359375q-0.734375 0.34375 -1.25 0.9375q-0.515625 0.609375 -0.796875 1.421875q-0.28125 0.8125 -0.28125 1.765625zm1.5 0.171875l0 -0.171875q0 -0.640625 0.15625 -1.234375q0.15625 -0.59375 0.484375 -1.03125q0.296875 -0.453125 0.75 -0.71875q0.46875 -0.265625 1.09375 -0.265625q0.625 0 1.09375 0.265625q0.46875 0.265625 0.78125 0.71875q0.3125 0.4375 0.46875 1.03125q0.15625 0.59375 0.15625 1.234375l0 0.171875q0 0.65625 -0.15625 1.25q-0.140625 0.578125 -0.453125 1.03125q-0.3125 0.4375 -0.78125 0.703125q-0.46875 0.25 -1.078125 0.25q-0.625 0 -1.109375 -0.25q-0.46875 -0.265625 -0.765625 -0.703125q-0.328125 -0.453125 -0.484375 -1.03125q-0.15625 -0.59375 -0.15625 -1.25zm8.61731 -0.171875l0 0.171875q0 0.9375 0.25 1.765625q0.25 0.8125 0.71875 1.40625q0.453125 0.609375 1.09375 0.953125q0.640625 0.328125 1.4375 0.328125q0.8125 0 1.421875 -0.265625q0.609375 -0.28125 1.046875 -0.8125l0.0625 0.921875l1.390625 0l0 -12.46875l-1.515625 0l0 4.546875q-0.421875 -0.5 -1.015625 -0.765625q-0.578125 -0.265625 -1.375 -0.265625q-0.796875 0 -1.453125 0.34375q-0.640625 0.328125 -1.09375 0.921875q-0.46875 0.59375 -0.71875 1.421875q-0.25 0.8125 -0.25 1.796875zm1.5 0.171875l0 -0.171875q0 -0.640625 0.140625 -1.21875q0.140625 -0.578125 0.4375 -1.03125q0.28125 -0.4375 0.734375 -0.6875q0.453125 -0.265625 1.078125 -0.265625q0.734375 0 1.234375 0.34375q0.5 0.34375 0.78125 0.875l0 4.078125q-0.28125 0.578125 -0.78125 0.921875q-0.5 0.34375 -1.25 0.34375q-0.625 0 -1.078125 -0.25q-0.4375 -0.265625 -0.71875 -0.703125q-0.296875 -0.4375 -0.4375 -1.015625q-0.140625 -0.578125 -0.140625 -1.21875zm12.6484375 4.453125q1.28125 0 2.15625 -0.515625q0.875 -0.515625 1.3125 -1.171875l-0.921875 -0.71875q-0.421875 0.53125 -1.046875 0.859375q-0.625 0.328125 -1.421875 0.328125q-0.609375 0 -1.109375 -0.21875q-0.5 -0.234375 -0.859375 -0.640625q-0.359375 -0.375 -0.5625 -0.859375q-0.1875 -0.484375 -0.25 -1.125l0 -0.0625l6.28125 0l0 -0.671875q0 -0.90625 -0.234375 -1.6875q-0.234375 -0.796875 -0.703125 -1.390625q-0.46875 -0.5625 -1.1875 -0.890625q-0.703125 -0.34375 -1.65625 -0.34375q-0.75 0 -1.46875 0.3125q-0.71875 0.3125 -1.28125 0.890625q-0.5625 0.578125 -0.90625 1.421875q-0.34375 0.84375 -0.34375 1.90625l0 0.34375q0 0.90625 0.3125 1.6875q0.3125 0.78125 0.859375 1.34375q0.546875 0.578125 1.328125 0.890625q0.78125 0.3125 1.703125 0.3125zm-0.203125 -7.875q0.578125 0 1.0 0.21875q0.421875 0.203125 0.6875 0.546875q0.28125 0.34375 0.4375 0.8125q0.15625 0.46875 0.15625 0.875l0 0.0625l-4.734375 0q0.09375 -0.59375 0.3125 -1.0625q0.234375 -0.46875 0.546875 -0.796875q0.328125 -0.3125 0.734375 -0.484375q0.40625 -0.171875 0.859375 -0.171875zm6.0079346 3.25l0 0.171875q0 0.9375 0.25 1.765625q0.25 0.8125 0.71875 1.40625q0.453125 0.609375 1.09375 0.953125q0.640625 0.328125 1.4375 0.328125q0.8125 0 1.421875 -0.265625q0.609375 -0.28125 1.046875 -0.8125l0.0625 0.921875l1.390625 0l0 -12.46875l-1.515625 0l0 4.546875q-0.421875 -0.5 -1.015625 -0.765625q-0.578125 -0.265625 -1.375 -0.265625q-0.796875 0 -1.453125 0.34375q-0.640625 0.328125 -1.09375 0.921875q-0.46875 0.59375 -0.71875 1.421875q-0.25 0.8125 -0.25 1.796875zm1.5 0.171875l0 -0.171875q0 -0.640625 0.140625 -1.21875q0.140625 -0.578125 0.4375 -1.03125q0.28125 -0.4375 0.734375 -0.6875q0.453125 -0.265625 1.078125 -0.265625q0.734375 0 1.234375 0.34375q0.5 0.34375 0.78125 0.875l0 4.078125q-0.28125 0.578125 -0.78125 0.921875q-0.5 0.34375 -1.25 0.34375q-0.625 0 -1.078125 -0.25q-0.4375 -0.265625 -0.71875 -0.703125q-0.296875 -0.4375 -0.4375 -1.015625q-0.140625 -0.578125 -0.140625 -1.21875zm11.6640625 4.296875l1.3125 0l3.71875 -11.8125l-1.59375 0l-2.625 8.796875l-0.171875 0.59375l-0.171875 -0.578125l-2.59375 -8.8125l-1.609375 0l3.734375 11.8125zm7.3048096 -8.78125l0 1.3125l3.0 0l0 6.171875l-3.0 0l0 1.296875l7.359375 0l0 -1.296875l-2.859375 0l0 -7.484375l-4.5 0zm2.796875 -2.3125q0 0.375 0.21875 0.625q0.234375 0.234375 0.6875 0.234375q0.4375 0 0.671875 -0.234375q0.234375 -0.25 0.234375 -0.625q0 -0.203125 -0.078125 -0.359375q-0.0625 -0.171875 -0.1875 -0.296875q-0.109375 -0.109375 -0.28125 -0.15625q-0.15625 -0.0625 -0.359375 -0.0625q-0.21875 0 -0.390625 0.0625q-0.15625 0.046875 -0.265625 0.15625q-0.125 0.125 -0.1875 0.296875q-0.0625 0.171875 -0.0625 0.359375zm6.6640625 6.625l0 0.171875q0 0.9375 0.25 1.765625q0.25 0.8125 0.71875 1.40625q0.453125 0.609375 1.09375 0.953125q0.640625 0.328125 1.4375 0.328125q0.8125 0 1.421875 -0.265625q0.609375 -0.28125 1.046875 -0.8125l0.0625 0.921875l1.390625 0l0 -12.46875l-1.515625 0l0 4.546875q-0.421875 -0.5 -1.015625 -0.765625q-0.578125 -0.265625 -1.375 -0.265625q-0.796875 0 -1.453125 0.34375q-0.640625 0.328125 -1.09375 0.921875q-0.46875 0.59375 -0.71875 1.421875q-0.25 0.8125 -0.25 1.796875zm1.5 0.171875l0 -0.171875q0 -0.640625 0.140625 -1.21875q0.140625 -0.578125 0.4375 -1.03125q0.28125 -0.4375 0.734375 -0.6875q0.453125 -0.265625 1.078125 -0.265625q0.734375 0 1.234375 0.34375q0.5 0.34375 0.78125 0.875l0 4.078125q-0.28125 0.578125 -0.78125 0.921875q-0.5 0.34375 -1.25 0.34375q-0.625 0 -1.078125 -0.25q-0.4375 -0.265625 -0.71875 -0.703125q-0.296875 -0.4375 -0.4375 -1.015625q-0.140625 -0.578125 -0.140625 -1.21875zm12.64856 4.453125q1.28125 0 2.15625 -0.515625q0.875 -0.515625 1.3125 -1.171875l-0.921875 -0.71875q-0.421875 0.53125 -1.046875 0.859375q-0.625 0.328125 -1.421875 0.328125q-0.609375 0 -1.109375 -0.21875q-0.5 -0.234375 -0.859375 -0.640625q-0.359375 -0.375 -0.5625 -0.859375q-0.1875 -0.484375 -0.25 -1.125l0 -0.0625l6.28125 0l0 -0.671875q0 -0.90625 -0.234375 -1.6875q-0.234375 -0.796875 -0.703125 -1.390625q-0.46875 -0.5625 -1.1875 -0.890625q-0.703125 -0.34375 -1.65625 -0.34375q-0.75 0 -1.46875 0.3125q-0.71875 0.3125 -1.28125 0.890625q-0.5625 0.578125 -0.90625 1.421875q-0.34375 0.84375 -0.34375 1.90625l0 0.34375q0 0.90625 0.3125 1.6875q0.3125 0.78125 0.859375 1.34375q0.546875 0.578125 1.328125 0.890625q0.78125 0.3125 1.703125 0.3125zm-0.203125 -7.875q0.578125 0 1.0 0.21875q0.421875 0.203125 0.6875 0.546875q0.28125 0.34375 0.4375 0.8125q0.15625 0.46875 0.15625 0.875l0 0.0625l-4.734375 0q0.09375 -0.59375 0.3125 -1.0625q0.234375 -0.46875 0.546875 -0.796875q0.328125 -0.3125 0.734375 -0.484375q0.40625 -0.171875 0.859375 -0.171875zm5.8671875 3.25l0 0.171875q0 0.953125 0.28125 1.765625q0.28125 0.8125 0.796875 1.40625q0.515625 0.609375 1.25 0.953125q0.75 0.328125 1.6875 0.328125q0.921875 0 1.65625 -0.328125q0.734375 -0.34375 1.265625 -0.953125q0.5 -0.59375 0.78125 -1.40625q0.28125 -0.8125 0.28125 -1.765625l0 -0.171875q0 -0.953125 -0.28125 -1.765625q-0.28125 -0.8125 -0.78125 -1.421875q-0.53125 -0.59375 -1.28125 -0.9375q-0.734375 -0.359375 -1.671875 -0.359375q-0.921875 0 -1.65625 0.359375q-0.734375 0.34375 -1.25 0.9375q-0.515625 0.609375 -0.796875 1.421875q-0.28125 0.8125 -0.28125 1.765625zm1.5 0.171875l0 -0.171875q0 -0.640625 0.15625 -1.234375q0.15625 -0.59375 0.484375 -1.03125q0.296875 -0.453125 0.75 -0.71875q0.46875 -0.265625 1.09375 -0.265625q0.625 0 1.09375 0.265625q0.46875 0.265625 0.78125 0.71875q0.3125 0.4375 0.46875 1.03125q0.15625 0.59375 0.15625 1.234375l0 0.171875q0 0.65625 -0.15625 1.25q-0.140625 0.578125 -0.453125 1.03125q-0.3125 0.4375 -0.78125 0.703125q-0.46875 0.25 -1.078125 0.25q-0.625 0 -1.109375 -0.25q-0.46875 -0.265625 -0.765625 -0.703125q-0.328125 -0.453125 -0.484375 -1.03125q-0.15625 -0.59375 -0.15625 -1.25zm16.55481 0.734375l-1.5 0q-0.0625 0.546875 -0.25 1.0q-0.171875 0.453125 -0.484375 0.796875q-0.296875 0.34375 -0.734375 0.53125q-0.421875 0.171875 -1.015625 0.171875q-0.546875 0 -0.953125 -0.171875q-0.40625 -0.171875 -0.703125 -0.484375q-0.296875 -0.296875 -0.5 -0.6875q-0.1875 -0.40625 -0.3125 -0.859375q-0.125 -0.4375 -0.1875 -0.90625q-0.046875 -0.46875 -0.046875 -0.90625l0 -1.671875q0 -0.4375 0.046875 -0.90625q0.0625 -0.46875 0.1875 -0.90625q0.125 -0.453125 0.3125 -0.84375q0.203125 -0.40625 0.5 -0.703125q0.296875 -0.296875 0.703125 -0.46875q0.40625 -0.171875 0.953125 -0.171875q0.59375 0 1.015625 0.203125q0.4375 0.1875 0.734375 0.53125q0.3125 0.359375 0.484375 0.828125q0.1875 0.453125 0.25 0.984375l1.5 0q-0.09375 -0.84375 -0.40625 -1.53125q-0.296875 -0.703125 -0.796875 -1.203125q-0.5 -0.5 -1.203125 -0.765625q-0.703125 -0.28125 -1.578125 -0.28125q-0.75 0 -1.34375 0.21875q-0.578125 0.203125 -1.046875 0.5625q-0.46875 0.359375 -0.8125 0.859375q-0.328125 0.5 -0.546875 1.09375q-0.234375 0.578125 -0.34375 1.21875q-0.109375 0.640625 -0.109375 1.296875l0 1.65625q0 0.65625 0.109375 1.296875q0.109375 0.640625 0.34375 1.21875q0.21875 0.59375 0.546875 1.09375q0.34375 0.484375 0.8125 0.859375q0.46875 0.359375 1.0625 0.5625q0.59375 0.203125 1.328125 0.203125q0.84375 0 1.53125 -0.265625q0.703125 -0.265625 1.21875 -0.765625q0.5 -0.484375 0.8125 -1.171875q0.328125 -0.6875 0.421875 -1.515625zm3.8359375 -3.90625l0 -5.0l-1.515625 0l0 12.46875l1.515625 0l0 -6.375q0.15625 -0.265625 0.359375 -0.484375q0.203125 -0.21875 0.453125 -0.375q0.3125 -0.203125 0.671875 -0.3125q0.359375 -0.125 0.765625 -0.125q0.5 0 0.875 0.140625q0.390625 0.140625 0.640625 0.421875q0.234375 0.265625 0.359375 0.65625q0.125 0.390625 0.125 0.90625l0 5.546875l1.5 0l0 -5.53125q0 -0.875 -0.21875 -1.515625q-0.21875 -0.65625 -0.609375 -1.078125q-0.40625 -0.421875 -0.96875 -0.625q-0.5625 -0.203125 -1.25 -0.203125q-0.53125 0.015625 -1.0 0.171875q-0.453125 0.140625 -0.84375 0.421875q-0.25 0.171875 -0.46875 0.390625q-0.21875 0.21875 -0.390625 0.5zm14.257935 7.46875l1.359375 0l0 -8.78125l-1.515625 0l0 6.296875q-0.109375 0.28125 -0.296875 0.53125q-0.1875 0.234375 -0.421875 0.40625q-0.296875 0.203125 -0.703125 0.328125q-0.390625 0.109375 -0.890625 0.109375q-0.4375 0 -0.765625 -0.109375q-0.328125 -0.109375 -0.546875 -0.390625q-0.234375 -0.28125 -0.34375 -0.75q-0.109375 -0.46875 -0.109375 -1.1875l0 -5.234375l-1.5 0l0 5.21875q0 0.984375 0.203125 1.6875q0.21875 0.703125 0.625 1.15625q0.390625 0.453125 0.953125 0.671875q0.5625 0.203125 1.25 0.203125q0.859375 0 1.515625 -0.359375q0.65625 -0.359375 1.09375 -1.0l0.09375 1.203125zm4.1796875 0l1.515625 0l0 -6.296875q0.140625 -0.28125 0.34375 -0.515625q0.21875 -0.234375 0.453125 -0.421875q0.3125 -0.203125 0.65625 -0.3125q0.359375 -0.125 0.78125 -0.125q0.484375 0 0.84375 0.125q0.375 0.109375 0.625 0.359375q0.265625 0.25 0.390625 0.65625q0.125 0.40625 0.125 0.984375l0 5.546875l1.5 0l0 -5.578125q0 -0.875 -0.21875 -1.515625q-0.203125 -0.640625 -0.609375 -1.046875q-0.390625 -0.421875 -0.953125 -0.609375q-0.5625 -0.203125 -1.265625 -0.203125q-0.5 0.015625 -0.96875 0.15625q-0.453125 0.140625 -0.84375 0.40625q-0.265625 0.171875 -0.5 0.40625q-0.21875 0.21875 -0.421875 0.5l-0.09375 -1.296875l-1.359375 0l0 8.78125zm12.61731 -4.09375l3.21875 4.09375l1.90625 0l-4.09375 -5.125l3.546875 -3.65625l-1.828125 0l-2.875 2.890625l-0.984375 1.046875l0 -7.625l-1.515625 0l0 12.46875l1.515625 0l0 -3.03125l1.109375 -1.0625z" fill-rule="nonzero"/><path fill="#fff2cc" d="m801.34906 213.44357l229.32281 0l0 38.677155l-229.32281 0z" fill-rule="evenodd"/><path fill="#000000" d="m839.13104 233.2828l0 -1.265625l-4.9375 0l0 -3.796875l5.671875 0l0 -1.28125l-7.171875 0l0 11.8125l7.25 0l0 -1.28125l-5.75 0l0 -4.1875l4.9375 0zm3.4609985 5.46875l1.515625 0l0 -6.296875q0.140625 -0.28125 0.34375 -0.515625q0.21875 -0.234375 0.453125 -0.421875q0.3125 -0.203125 0.65625 -0.3125q0.359375 -0.125 0.78125 -0.125q0.484375 0 0.84375 0.125q0.375 0.109375 0.625 0.359375q0.265625 0.25 0.390625 0.65625q0.125 0.40625 0.125 0.984375l0 5.546875l1.5 0l0 -5.578125q0 -0.875 -0.21875 -1.515625q-0.203125 -0.640625 -0.609375 -1.046875q-0.390625 -0.421875 -0.953125 -0.609375q-0.5625 -0.203125 -1.265625 -0.203125q-0.5 0.015625 -0.96875 0.15625q-0.453125 0.140625 -0.84375 0.40625q-0.265625 0.171875 -0.5 0.40625q-0.21875 0.21875 -0.421875 0.5l-0.09375 -1.296875l-1.359375 0l0 8.78125zm13.726624 -1.0625q-0.703125 0 -1.1875 -0.265625q-0.46875 -0.28125 -0.75 -0.734375q-0.296875 -0.453125 -0.421875 -1.015625q-0.125 -0.5625 -0.125 -1.140625l0 -0.34375q0 -0.5625 0.125 -1.125q0.125 -0.5625 0.421875 -1.015625q0.28125 -0.453125 0.75 -0.734375q0.484375 -0.28125 1.1875 -0.28125q0.453125 0 0.84375 0.15625q0.390625 0.15625 0.6875 0.421875q0.28125 0.265625 0.4375 0.625q0.171875 0.359375 0.1875 0.75l1.40625 0q0 -0.65625 -0.265625 -1.234375q-0.265625 -0.59375 -0.734375 -1.03125q-0.484375 -0.421875 -1.140625 -0.671875q-0.640625 -0.25 -1.421875 -0.25q-1.0 0 -1.75 0.359375q-0.75 0.359375 -1.234375 0.96875q-0.5 0.609375 -0.765625 1.40625q-0.25 0.78125 -0.25 1.65625l0 0.34375q0 0.875 0.25 1.671875q0.265625 0.78125 0.765625 1.390625q0.484375 0.609375 1.234375 0.96875q0.75 0.34375 1.75 0.34375q0.703125 0 1.34375 -0.234375q0.640625 -0.234375 1.125 -0.640625q0.5 -0.40625 0.796875 -0.9375q0.296875 -0.53125 0.296875 -1.109375l-1.40625 0q-0.015625 0.359375 -0.203125 0.671875q-0.171875 0.3125 -0.484375 0.546875q-0.296875 0.234375 -0.6875 0.359375q-0.375 0.125 -0.78125 0.125zm5.8047485 -3.40625l0 0.171875q0 0.953125 0.28125 1.765625q0.28125 0.8125 0.796875 1.40625q0.515625 0.609375 1.25 0.953125q0.75 0.328125 1.6875 0.328125q0.921875 0 1.65625 -0.328125q0.734375 -0.34375 1.265625 -0.953125q0.5 -0.59375 0.78125 -1.40625q0.28125 -0.8125 0.28125 -1.765625l0 -0.171875q0 -0.953125 -0.28125 -1.765625q-0.28125 -0.8125 -0.78125 -1.421875q-0.53125 -0.59375 -1.28125 -0.9375q-0.734375 -0.359375 -1.671875 -0.359375q-0.921875 0 -1.65625 0.359375q-0.734375 0.34375 -1.25 0.9375q-0.515625 0.609375 -0.796875 1.421875q-0.28125 0.8125 -0.28125 1.765625zm1.5 0.171875l0 -0.171875q0 -0.640625 0.15625 -1.234375q0.15625 -0.59375 0.484375 -1.03125q0.296875 -0.453125 0.75 -0.71875q0.46875 -0.265625 1.09375 -0.265625q0.625 0 1.09375 0.265625q0.46875 0.265625 0.78125 0.71875q0.3125 0.4375 0.46875 1.03125q0.15625 0.59375 0.15625 1.234375l0 0.171875q0 0.65625 -0.15625 1.25q-0.140625 0.578125 -0.453125 1.03125q-0.3125 0.4375 -0.78125 0.703125q-0.46875 0.25 -1.078125 0.25q-0.625 0 -1.109375 -0.25q-0.46875 -0.265625 -0.765625 -0.703125q-0.328125 -0.453125 -0.484375 -1.03125q-0.15625 -0.59375 -0.15625 -1.25zm8.617249 -0.171875l0 0.171875q0 0.9375 0.25 1.765625q0.25 0.8125 0.71875 1.40625q0.453125 0.609375 1.09375 0.953125q0.640625 0.328125 1.4375 0.328125q0.8125 0 1.421875 -0.265625q0.609375 -0.28125 1.046875 -0.8125l0.0625 0.921875l1.390625 0l0 -12.46875l-1.515625 0l0 4.546875q-0.421875 -0.5 -1.015625 -0.765625q-0.578125 -0.265625 -1.375 -0.265625q-0.796875 0 -1.453125 0.34375q-0.640625 0.328125 -1.09375 0.921875q-0.46875 0.59375 -0.71875 1.421875q-0.25 0.8125 -0.25 1.796875zm1.5 0.171875l0 -0.171875q0 -0.640625 0.140625 -1.21875q0.140625 -0.578125 0.4375 -1.03125q0.28125 -0.4375 0.734375 -0.6875q0.453125 -0.265625 1.078125 -0.265625q0.734375 0 1.234375 0.34375q0.5 0.34375 0.78125 0.875l0 4.078125q-0.28125 0.578125 -0.78125 0.921875q-0.5 0.34375 -1.25 0.34375q-0.625 0 -1.078125 -0.25q-0.4375 -0.265625 -0.71875 -0.703125q-0.296875 -0.4375 -0.4375 -1.015625q-0.140625 -0.578125 -0.140625 -1.21875zm12.648499 4.453125q1.28125 0 2.15625 -0.515625q0.875 -0.515625 1.3125 -1.171875l-0.921875 -0.71875q-0.421875 0.53125 -1.046875 0.859375q-0.625 0.328125 -1.421875 0.328125q-0.609375 0 -1.109375 -0.21875q-0.5 -0.234375 -0.859375 -0.640625q-0.359375 -0.375 -0.5625 -0.859375q-0.1875 -0.484375 -0.25 -1.125l0 -0.0625l6.28125 0l0 -0.671875q0 -0.90625 -0.234375 -1.6875q-0.234375 -0.796875 -0.703125 -1.390625q-0.46875 -0.5625 -1.1875 -0.890625q-0.703125 -0.34375 -1.65625 -0.34375q-0.75 0 -1.46875 0.3125q-0.71875 0.3125 -1.28125 0.890625q-0.5625 0.578125 -0.90625 1.421875q-0.34375 0.84375 -0.34375 1.90625l0 0.34375q0 0.90625 0.3125 1.6875q0.3125 0.78125 0.859375 1.34375q0.546875 0.578125 1.328125 0.890625q0.78125 0.3125 1.703125 0.3125zm-0.203125 -7.875q0.578125 0 1.0 0.21875q0.421875 0.203125 0.6875 0.546875q0.28125 0.34375 0.4375 0.8125q0.15625 0.46875 0.15625 0.875l0 0.0625l-4.734375 0q0.09375 -0.59375 0.3125 -1.0625q0.234375 -0.46875 0.546875 -0.796875q0.328125 -0.3125 0.734375 -0.484375q0.40625 -0.171875 0.859375 -0.171875zm6.0078735 3.25l0 0.171875q0 0.9375 0.25 1.765625q0.25 0.8125 0.71875 1.40625q0.453125 0.609375 1.09375 0.953125q0.640625 0.328125 1.4375 0.328125q0.8125 0 1.421875 -0.265625q0.609375 -0.28125 1.046875 -0.8125l0.0625 0.921875l1.390625 0l0 -12.46875l-1.515625 0l0 4.546875q-0.421875 -0.5 -1.015625 -0.765625q-0.578125 -0.265625 -1.375 -0.265625q-0.796875 0 -1.453125 0.34375q-0.640625 0.328125 -1.09375 0.921875q-0.46875 0.59375 -0.71875 1.421875q-0.25 0.8125 -0.25 1.796875zm1.5 0.171875l0 -0.171875q0 -0.640625 0.140625 -1.21875q0.140625 -0.578125 0.4375 -1.03125q0.28125 -0.4375 0.734375 -0.6875q0.453125 -0.265625 1.078125 -0.265625q0.734375 0 1.234375 0.34375q0.5 0.34375 0.78125 0.875l0 4.078125q-0.28125 0.578125 -0.78125 0.921875q-0.5 0.34375 -1.25 0.34375q-0.625 0 -1.078125 -0.25q-0.4375 -0.265625 -0.71875 -0.703125q-0.296875 -0.4375 -0.4375 -1.015625q-0.140625 -0.578125 -0.140625 -1.21875zm11.664124 4.296875l1.3125 0l3.71875 -11.8125l-1.59375 0l-2.625 8.796875l-0.171875 0.59375l-0.171875 -0.578125l-2.59375 -8.8125l-1.609375 0l3.734375 11.8125zm7.3047485 -8.78125l0 1.3125l3.0 0l0 6.171875l-3.0 0l0 1.296875l7.359375 0l0 -1.296875l-2.859375 0l0 -7.484375l-4.5 0zm2.796875 -2.3125q0 0.375 0.21875 0.625q0.234375 0.234375 0.6875 0.234375q0.4375 0 0.671875 -0.234375q0.234375 -0.25 0.234375 -0.625q0 -0.203125 -0.078125 -0.359375q-0.0625 -0.171875 -0.1875 -0.296875q-0.109375 -0.109375 -0.28125 -0.15625q-0.15625 -0.0625 -0.359375 -0.0625q-0.21875 0 -0.390625 0.0625q-0.15625 0.046875 -0.265625 0.15625q-0.125 0.125 -0.1875 0.296875q-0.0625 0.171875 -0.0625 0.359375zm6.6641235 6.625l0 0.171875q0 0.9375 0.25 1.765625q0.25 0.8125 0.71875 1.40625q0.453125 0.609375 1.09375 0.953125q0.640625 0.328125 1.4375 0.328125q0.8125 0 1.421875 -0.265625q0.609375 -0.28125 1.046875 -0.8125l0.0625 0.921875l1.390625 0l0 -12.46875l-1.515625 0l0 4.546875q-0.421875 -0.5 -1.015625 -0.765625q-0.578125 -0.265625 -1.375 -0.265625q-0.796875 0 -1.453125 0.34375q-0.640625 0.328125 -1.09375 0.921875q-0.46875 0.59375 -0.71875 1.421875q-0.25 0.8125 -0.25 1.796875zm1.5 0.171875l0 -0.171875q0 -0.640625 0.140625 -1.21875q0.140625 -0.578125 0.4375 -1.03125q0.28125 -0.4375 0.734375 -0.6875q0.453125 -0.265625 1.078125 -0.265625q0.734375 0 1.234375 0.34375q0.5 0.34375 0.78125 0.875l0 4.078125q-0.28125 0.578125 -0.78125 0.921875q-0.5 0.34375 -1.25 0.34375q-0.625 0 -1.078125 -0.25q-0.4375 -0.265625 -0.71875 -0.703125q-0.296875 -0.4375 -0.4375 -1.015625q-0.140625 -0.578125 -0.140625 -1.21875zm12.648499 4.453125q1.28125 0 2.15625 -0.515625q0.875 -0.515625 1.3125 -1.171875l-0.921875 -0.71875q-0.421875 0.53125 -1.046875 0.859375q-0.625 0.328125 -1.421875 0.328125q-0.609375 0 -1.109375 -0.21875q-0.5 -0.234375 -0.859375 -0.640625q-0.359375 -0.375 -0.5625 -0.859375q-0.1875 -0.484375 -0.25 -1.125l0 -0.0625l6.28125 0l0 -0.671875q0 -0.90625 -0.234375 -1.6875q-0.234375 -0.796875 -0.703125 -1.390625q-0.46875 -0.5625 -1.1875 -0.890625q-0.703125 -0.34375 -1.65625 -0.34375q-0.75 0 -1.46875 0.3125q-0.71875 0.3125 -1.28125 0.890625q-0.5625 0.578125 -0.90625 1.421875q-0.34375 0.84375 -0.34375 1.90625l0 0.34375q0 0.90625 0.3125 1.6875q0.3125 0.78125 0.859375 1.34375q0.546875 0.578125 1.328125 0.890625q0.78125 0.3125 1.703125 0.3125zm-0.203125 -7.875q0.578125 0 1.0 0.21875q0.421875 0.203125 0.6875 0.546875q0.28125 0.34375 0.4375 0.8125q0.15625 0.46875 0.15625 0.875l0 0.0625l-4.734375 0q0.09375 -0.59375 0.3125 -1.0625q0.234375 -0.46875 0.546875 -0.796875q0.328125 -0.3125 0.734375 -0.484375q0.40625 -0.171875 0.859375 -0.171875zm5.8672485 3.25l0 0.171875q0 0.953125 0.28125 1.765625q0.28125 0.8125 0.796875 1.40625q0.515625 0.609375 1.25 0.953125q0.75 0.328125 1.6875 0.328125q0.921875 0 1.65625 -0.328125q0.734375 -0.34375 1.265625 -0.953125q0.5 -0.59375 0.78125 -1.40625q0.28125 -0.8125 0.28125 -1.765625l0 -0.171875q0 -0.953125 -0.28125 -1.765625q-0.28125 -0.8125 -0.78125 -1.421875q-0.53125 -0.59375 -1.28125 -0.9375q-0.734375 -0.359375 -1.671875 -0.359375q-0.921875 0 -1.65625 0.359375q-0.734375 0.34375 -1.25 0.9375q-0.515625 0.609375 -0.796875 1.421875q-0.28125 0.8125 -0.28125 1.765625zm1.5 0.171875l0 -0.171875q0 -0.640625 0.15625 -1.234375q0.15625 -0.59375 0.484375 -1.03125q0.296875 -0.453125 0.75 -0.71875q0.46875 -0.265625 1.09375 -0.265625q0.625 0 1.09375 0.265625q0.46875 0.265625 0.78125 0.71875q0.3125 0.4375 0.46875 1.03125q0.15625 0.59375 0.15625 1.234375l0 0.171875q0 0.65625 -0.15625 1.25q-0.140625 0.578125 -0.453125 1.03125q-0.3125 0.4375 -0.78125 0.703125q-0.46875 0.25 -1.078125 0.25q-0.625 0 -1.109375 -0.25q-0.46875 -0.265625 -0.765625 -0.703125q-0.328125 -0.453125 -0.484375 -1.03125q-0.15625 -0.59375 -0.15625 -1.25zm16.554749 0.734375l-1.5 0q-0.0625 0.546875 -0.25 1.0q-0.171875 0.453125 -0.484375 0.796875q-0.296875 0.34375 -0.734375 0.53125q-0.421875 0.171875 -1.015625 0.171875q-0.546875 0 -0.953125 -0.171875q-0.40625 -0.171875 -0.703125 -0.484375q-0.296875 -0.296875 -0.5 -0.6875q-0.1875 -0.40625 -0.3125 -0.859375q-0.125 -0.4375 -0.1875 -0.90625q-0.046875 -0.46875 -0.046875 -0.90625l0 -1.671875q0 -0.4375 0.046875 -0.90625q0.0625 -0.46875 0.1875 -0.90625q0.125 -0.453125 0.3125 -0.84375q0.203125 -0.40625 0.5 -0.703125q0.296875 -0.296875 0.703125 -0.46875q0.40625 -0.171875 0.953125 -0.171875q0.59375 0 1.015625 0.203125q0.4375 0.1875 0.734375 0.53125q0.3125 0.359375 0.484375 0.828125q0.1875 0.453125 0.25 0.984375l1.5 0q-0.09375 -0.84375 -0.40625 -1.53125q-0.296875 -0.703125 -0.796875 -1.203125q-0.5 -0.5 -1.203125 -0.765625q-0.703125 -0.28125 -1.578125 -0.28125q-0.75 0 -1.34375 0.21875q-0.578125 0.203125 -1.046875 0.5625q-0.46875 0.359375 -0.8125 0.859375q-0.328125 0.5 -0.546875 1.09375q-0.234375 0.578125 -0.34375 1.21875q-0.109375 0.640625 -0.109375 1.296875l0 1.65625q0 0.65625 0.109375 1.296875q0.109375 0.640625 0.34375 1.21875q0.21875 0.59375 0.546875 1.09375q0.34375 0.484375 0.8125 0.859375q0.46875 0.359375 1.0625 0.5625q0.59375 0.203125 1.328125 0.203125q0.84375 0 1.53125 -0.265625q0.703125 -0.265625 1.21875 -0.765625q0.5 -0.484375 0.8125 -1.171875q0.328125 -0.6875 0.421875 -1.515625zm3.8359985 -3.90625l0 -5.0l-1.515625 0l0 12.46875l1.515625 0l0 -6.375q0.15625 -0.265625 0.359375 -0.484375q0.203125 -0.21875 0.453125 -0.375q0.3125 -0.203125 0.671875 -0.3125q0.359375 -0.125 0.765625 -0.125q0.5 0 0.875 0.140625q0.390625 0.140625 0.640625 0.421875q0.234375 0.265625 0.359375 0.65625q0.125 0.390625 0.125 0.90625l0 5.546875l1.5 0l0 -5.53125q0 -0.875 -0.21875 -1.515625q-0.21875 -0.65625 -0.609375 -1.078125q-0.40625 -0.421875 -0.96875 -0.625q-0.5625 -0.203125 -1.25 -0.203125q-0.53125 0.015625 -1.0 0.171875q-0.453125 0.140625 -0.84375 0.421875q-0.25 0.171875 -0.46875 0.390625q-0.21875 0.21875 -0.390625 0.5zm14.257874 7.46875l1.359375 0l0 -8.78125l-1.515625 0l0 6.296875q-0.109375 0.28125 -0.296875 0.53125q-0.1875 0.234375 -0.421875 0.40625q-0.296875 0.203125 -0.703125 0.328125q-0.390625 0.109375 -0.890625 0.109375q-0.4375 0 -0.765625 -0.109375q-0.328125 -0.109375 -0.546875 -0.390625q-0.234375 -0.28125 -0.34375 -0.75q-0.109375 -0.46875 -0.109375 -1.1875l0 -5.234375l-1.5 0l0 5.21875q0 0.984375 0.203125 1.6875q0.21875 0.703125 0.625 1.15625q0.390625 0.453125 0.953125 0.671875q0.5625 0.203125 1.25 0.203125q0.859375 0 1.515625 -0.359375q0.65625 -0.359375 1.09375 -1.0l0.09375 1.203125zm4.1797485 0l1.515625 0l0 -6.296875q0.140625 -0.28125 0.34375 -0.515625q0.21875 -0.234375 0.453125 -0.421875q0.3125 -0.203125 0.65625 -0.3125q0.359375 -0.125 0.78125 -0.125q0.484375 0 0.84375 0.125q0.375 0.109375 0.625 0.359375q0.265625 0.25 0.390625 0.65625q0.125 0.40625 0.125 0.984375l0 5.546875l1.5 0l0 -5.578125q0 -0.875 -0.21875 -1.515625q-0.203125 -0.640625 -0.609375 -1.046875q-0.390625 -0.421875 -0.953125 -0.609375q-0.5625 -0.203125 -1.265625 -0.203125q-0.5 0.015625 -0.96875 0.15625q-0.453125 0.140625 -0.84375 0.40625q-0.265625 0.171875 -0.5 0.40625q-0.21875 0.21875 -0.421875 0.5l-0.09375 -1.296875l-1.359375 0l0 8.78125zm12.617249 -4.09375l3.21875 4.09375l1.90625 0l-4.09375 -5.125l3.546875 -3.65625l-1.828125 0l-2.875 2.890625l-0.984375 1.046875l0 -7.625l-1.515625 0l0 12.46875l1.515625 0l0 -3.03125l1.109375 -1.0625z" fill-rule="nonzero"/><path fill="#fff2cc" d="m506.5643 213.44357l229.32285 0l0 38.677155l-229.32285 0z" fill-rule="evenodd"/><path fill="#000000" d="m544.3463 233.2828l0 -1.265625l-4.9375 0l0 -3.796875l5.671875 0l0 -1.28125l-7.171875 0l0 11.8125l7.25 0l0 -1.28125l-5.75 0l0 -4.1875l4.9375 0zm3.4609985 5.46875l1.515625 0l0 -6.296875q0.140625 -0.28125 0.34375 -0.515625q0.21875 -0.234375 0.453125 -0.421875q0.3125 -0.203125 0.65625 -0.3125q0.359375 -0.125 0.78125 -0.125q0.484375 0 0.84375 0.125q0.375 0.109375 0.625 0.359375q0.265625 0.25 0.390625 0.65625q0.125 0.40625 0.125 0.984375l0 5.546875l1.5 0l0 -5.578125q0 -0.875 -0.21875 -1.515625q-0.203125 -0.640625 -0.609375 -1.046875q-0.390625 -0.421875 -0.953125 -0.609375q-0.5625 -0.203125 -1.265625 -0.203125q-0.5 0.015625 -0.96875 0.15625q-0.453125 0.140625 -0.84375 0.40625q-0.265625 0.171875 -0.5 0.40625q-0.21875 0.21875 -0.421875 0.5l-0.09375 -1.296875l-1.359375 0l0 8.78125zm13.726624 -1.0625q-0.703125 0 -1.1875 -0.265625q-0.46875 -0.28125 -0.75 -0.734375q-0.296875 -0.453125 -0.421875 -1.015625q-0.125 -0.5625 -0.125 -1.140625l0 -0.34375q0 -0.5625 0.125 -1.125q0.125 -0.5625 0.421875 -1.015625q0.28125 -0.453125 0.75 -0.734375q0.484375 -0.28125 1.1875 -0.28125q0.453125 0 0.84375 0.15625q0.390625 0.15625 0.6875 0.421875q0.28125 0.265625 0.4375 0.625q0.171875 0.359375 0.1875 0.75l1.40625 0q0 -0.65625 -0.265625 -1.234375q-0.265625 -0.59375 -0.734375 -1.03125q-0.484375 -0.421875 -1.140625 -0.671875q-0.640625 -0.25 -1.421875 -0.25q-1.0 0 -1.75 0.359375q-0.75 0.359375 -1.234375 0.96875q-0.5 0.609375 -0.765625 1.40625q-0.25 0.78125 -0.25 1.65625l0 0.34375q0 0.875 0.25 1.671875q0.265625 0.78125 0.765625 1.390625q0.484375 0.609375 1.234375 0.96875q0.75 0.34375 1.75 0.34375q0.703125 0 1.34375 -0.234375q0.640625 -0.234375 1.125 -0.640625q0.5 -0.40625 0.796875 -0.9375q0.296875 -0.53125 0.296875 -1.109375l-1.40625 0q-0.015625 0.359375 -0.203125 0.671875q-0.171875 0.3125 -0.484375 0.546875q-0.296875 0.234375 -0.6875 0.359375q-0.375 0.125 -0.78125 0.125zm5.8047485 -3.40625l0 0.171875q0 0.953125 0.28125 1.765625q0.28125 0.8125 0.796875 1.40625q0.515625 0.609375 1.25 0.953125q0.75 0.328125 1.6875 0.328125q0.921875 0 1.65625 -0.328125q0.734375 -0.34375 1.265625 -0.953125q0.5 -0.59375 0.78125 -1.40625q0.28125 -0.8125 0.28125 -1.765625l0 -0.171875q0 -0.953125 -0.28125 -1.765625q-0.28125 -0.8125 -0.78125 -1.421875q-0.53125 -0.59375 -1.28125 -0.9375q-0.734375 -0.359375 -1.671875 -0.359375q-0.921875 0 -1.65625 0.359375q-0.734375 0.34375 -1.25 0.9375q-0.515625 0.609375 -0.796875 1.421875q-0.28125 0.8125 -0.28125 1.765625zm1.5 0.171875l0 -0.171875q0 -0.640625 0.15625 -1.234375q0.15625 -0.59375 0.484375 -1.03125q0.296875 -0.453125 0.75 -0.71875q0.46875 -0.265625 1.09375 -0.265625q0.625 0 1.09375 0.265625q0.46875 0.265625 0.78125 0.71875q0.3125 0.4375 0.46875 1.03125q0.15625 0.59375 0.15625 1.234375l0 0.171875q0 0.65625 -0.15625 1.25q-0.140625 0.578125 -0.453125 1.03125q-0.3125 0.4375 -0.78125 0.703125q-0.46875 0.25 -1.078125 0.25q-0.625 0 -1.109375 -0.25q-0.46875 -0.265625 -0.765625 -0.703125q-0.328125 -0.453125 -0.484375 -1.03125q-0.15625 -0.59375 -0.15625 -1.25zm8.617249 -0.171875l0 0.171875q0 0.9375 0.25 1.765625q0.25 0.8125 0.71875 1.40625q0.453125 0.609375 1.09375 0.953125q0.640625 0.328125 1.4375 0.328125q0.8125 0 1.421875 -0.265625q0.609375 -0.28125 1.046875 -0.8125l0.0625 0.921875l1.390625 0l0 -12.46875l-1.515625 0l0 4.546875q-0.421875 -0.5 -1.015625 -0.765625q-0.578125 -0.265625 -1.375 -0.265625q-0.796875 0 -1.453125 0.34375q-0.640625 0.328125 -1.09375 0.921875q-0.46875 0.59375 -0.71875 1.421875q-0.25 0.8125 -0.25 1.796875zm1.5 0.171875l0 -0.171875q0 -0.640625 0.140625 -1.21875q0.140625 -0.578125 0.4375 -1.03125q0.28125 -0.4375 0.734375 -0.6875q0.453125 -0.265625 1.078125 -0.265625q0.734375 0 1.234375 0.34375q0.5 0.34375 0.78125 0.875l0 4.078125q-0.28125 0.578125 -0.78125 0.921875q-0.5 0.34375 -1.25 0.34375q-0.625 0 -1.078125 -0.25q-0.4375 -0.265625 -0.71875 -0.703125q-0.296875 -0.4375 -0.4375 -1.015625q-0.140625 -0.578125 -0.140625 -1.21875zm12.648499 4.453125q1.28125 0 2.15625 -0.515625q0.875 -0.515625 1.3125 -1.171875l-0.921875 -0.71875q-0.421875 0.53125 -1.046875 0.859375q-0.625 0.328125 -1.421875 0.328125q-0.609375 0 -1.109375 -0.21875q-0.5 -0.234375 -0.859375 -0.640625q-0.359375 -0.375 -0.5625 -0.859375q-0.1875 -0.484375 -0.25 -1.125l0 -0.0625l6.28125 0l0 -0.671875q0 -0.90625 -0.234375 -1.6875q-0.234375 -0.796875 -0.703125 -1.390625q-0.46875 -0.5625 -1.1875 -0.890625q-0.703125 -0.34375 -1.65625 -0.34375q-0.75 0 -1.46875 0.3125q-0.71875 0.3125 -1.28125 0.890625q-0.5625 0.578125 -0.90625 1.421875q-0.34375 0.84375 -0.34375 1.90625l0 0.34375q0 0.90625 0.3125 1.6875q0.3125 0.78125 0.859375 1.34375q0.546875 0.578125 1.328125 0.890625q0.78125 0.3125 1.703125 0.3125zm-0.203125 -7.875q0.578125 0 1.0 0.21875q0.421875 0.203125 0.6875 0.546875q0.28125 0.34375 0.4375 0.8125q0.15625 0.46875 0.15625 0.875l0 0.0625l-4.734375 0q0.09375 -0.59375 0.3125 -1.0625q0.234375 -0.46875 0.546875 -0.796875q0.328125 -0.3125 0.734375 -0.484375q0.40625 -0.171875 0.859375 -0.171875zm6.0078735 3.25l0 0.171875q0 0.9375 0.25 1.765625q0.25 0.8125 0.71875 1.40625q0.453125 0.609375 1.09375 0.953125q0.640625 0.328125 1.4375 0.328125q0.8125 0 1.421875 -0.265625q0.609375 -0.28125 1.046875 -0.8125l0.0625 0.921875l1.390625 0l0 -12.46875l-1.515625 0l0 4.546875q-0.421875 -0.5 -1.015625 -0.765625q-0.578125 -0.265625 -1.375 -0.265625q-0.796875 0 -1.453125 0.34375q-0.640625 0.328125 -1.09375 0.921875q-0.46875 0.59375 -0.71875 1.421875q-0.25 0.8125 -0.25 1.796875zm1.5 0.171875l0 -0.171875q0 -0.640625 0.140625 -1.21875q0.140625 -0.578125 0.4375 -1.03125q0.28125 -0.4375 0.734375 -0.6875q0.453125 -0.265625 1.078125 -0.265625q0.734375 0 1.234375 0.34375q0.5 0.34375 0.78125 0.875l0 4.078125q-0.28125 0.578125 -0.78125 0.921875q-0.5 0.34375 -1.25 0.34375q-0.625 0 -1.078125 -0.25q-0.4375 -0.265625 -0.71875 -0.703125q-0.296875 -0.4375 -0.4375 -1.015625q-0.140625 -0.578125 -0.140625 -1.21875zm11.664124 4.296875l1.3125 0l3.71875 -11.8125l-1.59375 0l-2.625 8.796875l-0.171875 0.59375l-0.171875 -0.578125l-2.59375 -8.8125l-1.609375 0l3.734375 11.8125zm7.3047485 -8.78125l0 1.3125l3.0 0l0 6.171875l-3.0 0l0 1.296875l7.359375 0l0 -1.296875l-2.859375 0l0 -7.484375l-4.5 0zm2.796875 -2.3125q0 0.375 0.21875 0.625q0.234375 0.234375 0.6875 0.234375q0.4375 0 0.671875 -0.234375q0.234375 -0.25 0.234375 -0.625q0 -0.203125 -0.078125 -0.359375q-0.0625 -0.171875 -0.1875 -0.296875q-0.109375 -0.109375 -0.28125 -0.15625q-0.15625 -0.0625 -0.359375 -0.0625q-0.21875 0 -0.390625 0.0625q-0.15625 0.046875 -0.265625 0.15625q-0.125 0.125 -0.1875 0.296875q-0.0625 0.171875 -0.0625 0.359375zm6.6641235 6.625l0 0.171875q0 0.9375 0.25 1.765625q0.25 0.8125 0.71875 1.40625q0.453125 0.609375 1.09375 0.953125q0.640625 0.328125 1.4375 0.328125q0.8125 0 1.421875 -0.265625q0.609375 -0.28125 1.046875 -0.8125l0.0625 0.921875l1.390564 0l0 -12.46875l-1.515564 0l0 4.546875q-0.421875 -0.5 -1.015625 -0.765625q-0.578125 -0.265625 -1.375 -0.265625q-0.796875 0 -1.453125 0.34375q-0.640625 0.328125 -1.09375 0.921875q-0.46875 0.59375 -0.71875 1.421875q-0.25 0.8125 -0.25 1.796875zm1.5 0.171875l0 -0.171875q0 -0.640625 0.140625 -1.21875q0.140625 -0.578125 0.4375 -1.03125q0.28125 -0.4375 0.734375 -0.6875q0.453125 -0.265625 1.078125 -0.265625q0.734375 0 1.234375 0.34375q0.5 0.34375 0.78125 0.875l0 4.078125q-0.28125 0.578125 -0.78125 0.921875q-0.5 0.34375 -1.25 0.34375q-0.625 0 -1.078125 -0.25q-0.4375 -0.265625 -0.71875 -0.703125q-0.296875 -0.4375 -0.4375 -1.015625q-0.140625 -0.578125 -0.140625 -1.21875zm12.6484375 4.453125q1.28125 0 2.15625 -0.515625q0.875 -0.515625 1.3125 -1.171875l-0.921875 -0.71875q-0.421875 0.53125 -1.046875 0.859375q-0.625 0.328125 -1.421875 0.328125q-0.609375 0 -1.109375 -0.21875q-0.5 -0.234375 -0.859375 -0.640625q-0.359375 -0.375 -0.5625 -0.859375q-0.1875 -0.484375 -0.25 -1.125l0 -0.0625l6.28125 0l0 -0.671875q0 -0.90625 -0.234375 -1.6875q-0.234375 -0.796875 -0.703125 -1.390625q-0.46875 -0.5625 -1.1875 -0.890625q-0.703125 -0.34375 -1.65625 -0.34375q-0.75 0 -1.46875 0.3125q-0.71875 0.3125 -1.28125 0.890625q-0.5625 0.578125 -0.90625 1.421875q-0.34375 0.84375 -0.34375 1.90625l0 0.34375q0 0.90625 0.3125 1.6875q0.3125 0.78125 0.859375 1.34375q0.546875 0.578125 1.328125 0.890625q0.78125 0.3125 1.703125 0.3125zm-0.203125 -7.875q0.578125 0 1.0 0.21875q0.421875 0.203125 0.6875 0.546875q0.28125 0.34375 0.4375 0.8125q0.15625 0.46875 0.15625 0.875l0 0.0625l-4.734375 0q0.09375 -0.59375 0.3125 -1.0625q0.234375 -0.46875 0.546875 -0.796875q0.328125 -0.3125 0.734375 -0.484375q0.40625 -0.171875 0.859375 -0.171875zm5.8672485 3.25l0 0.171875q0 0.953125 0.28125 1.765625q0.28125 0.8125 0.796875 1.40625q0.515625 0.609375 1.25 0.953125q0.75 0.328125 1.6875 0.328125q0.921875 0 1.65625 -0.328125q0.734375 -0.34375 1.265625 -0.953125q0.5 -0.59375 0.78125 -1.40625q0.28125 -0.8125 0.28125 -1.765625l0 -0.171875q0 -0.953125 -0.28125 -1.765625q-0.28125 -0.8125 -0.78125 -1.421875q-0.53125 -0.59375 -1.28125 -0.9375q-0.734375 -0.359375 -1.671875 -0.359375q-0.921875 0 -1.65625 0.359375q-0.734375 0.34375 -1.25 0.9375q-0.515625 0.609375 -0.796875 1.421875q-0.28125 0.8125 -0.28125 1.765625zm1.5 0.171875l0 -0.171875q0 -0.640625 0.15625 -1.234375q0.15625 -0.59375 0.484375 -1.03125q0.296875 -0.453125 0.75 -0.71875q0.46875 -0.265625 1.09375 -0.265625q0.625 0 1.09375 0.265625q0.46875 0.265625 0.78125 0.71875q0.3125 0.4375 0.46875 1.03125q0.15625 0.59375 0.15625 1.234375l0 0.171875q0 0.65625 -0.15625 1.25q-0.140625 0.578125 -0.453125 1.03125q-0.3125 0.4375 -0.78125 0.703125q-0.46875 0.25 -1.078125 0.25q-0.625 0 -1.109375 -0.25q-0.46875 -0.265625 -0.765625 -0.703125q-0.328125 -0.453125 -0.484375 -1.03125q-0.15625 -0.59375 -0.15625 -1.25zm16.554749 0.734375l-1.5 0q-0.0625 0.546875 -0.25 1.0q-0.171875 0.453125 -0.484375 0.796875q-0.296875 0.34375 -0.734375 0.53125q-0.421875 0.171875 -1.015625 0.171875q-0.546875 0 -0.953125 -0.171875q-0.40625 -0.171875 -0.703125 -0.484375q-0.296875 -0.296875 -0.5 -0.6875q-0.1875 -0.40625 -0.3125 -0.859375q-0.125 -0.4375 -0.1875 -0.90625q-0.046875 -0.46875 -0.046875 -0.90625l0 -1.671875q0 -0.4375 0.046875 -0.90625q0.0625 -0.46875 0.1875 -0.90625q0.125 -0.453125 0.3125 -0.84375q0.203125 -0.40625 0.5 -0.703125q0.296875 -0.296875 0.703125 -0.46875q0.40625 -0.171875 0.953125 -0.171875q0.59375 0 1.015625 0.203125q0.4375 0.1875 0.734375 0.53125q0.3125 0.359375 0.484375 0.828125q0.1875 0.453125 0.25 0.984375l1.5 0q-0.09375 -0.84375 -0.40625 -1.53125q-0.296875 -0.703125 -0.796875 -1.203125q-0.5 -0.5 -1.203125 -0.765625q-0.703125 -0.28125 -1.578125 -0.28125q-0.75 0 -1.34375 0.21875q-0.578125 0.203125 -1.046875 0.5625q-0.46875 0.359375 -0.8125 0.859375q-0.328125 0.5 -0.546875 1.09375q-0.234375 0.578125 -0.34375 1.21875q-0.109375 0.640625 -0.109375 1.296875l0 1.65625q0 0.65625 0.109375 1.296875q0.109375 0.640625 0.34375 1.21875q0.21875 0.59375 0.546875 1.09375q0.34375 0.484375 0.8125 0.859375q0.46875 0.359375 1.0625 0.5625q0.59375 0.203125 1.328125 0.203125q0.84375 0 1.53125 -0.265625q0.703125 -0.265625 1.21875 -0.765625q0.5 -0.484375 0.8125 -1.171875q0.328125 -0.6875 0.421875 -1.515625zm3.8359985 -3.90625l0 -5.0l-1.515625 0l0 12.46875l1.515625 0l0 -6.375q0.15625 -0.265625 0.359375 -0.484375q0.203125 -0.21875 0.453125 -0.375q0.3125 -0.203125 0.671875 -0.3125q0.359375 -0.125 0.765625 -0.125q0.5 0 0.875 0.140625q0.390625 0.140625 0.640625 0.421875q0.234375 0.265625 0.359375 0.65625q0.125 0.390625 0.125 0.90625l0 5.546875l1.5 0l0 -5.53125q0 -0.875 -0.21875 -1.515625q-0.21875 -0.65625 -0.609375 -1.078125q-0.40625 -0.421875 -0.96875 -0.625q-0.5625 -0.203125 -1.25 -0.203125q-0.53125 0.015625 -1.0 0.171875q-0.453125 0.140625 -0.84375 0.421875q-0.25 0.171875 -0.46875 0.390625q-0.21875 0.21875 -0.390625 0.5zm14.257874 7.46875l1.359375 0l0 -8.78125l-1.515625 0l0 6.296875q-0.109375 0.28125 -0.296875 0.53125q-0.1875 0.234375 -0.421875 0.40625q-0.296875 0.203125 -0.703125 0.328125q-0.390625 0.109375 -0.890625 0.109375q-0.4375 0 -0.765625 -0.109375q-0.328125 -0.109375 -0.546875 -0.390625q-0.234375 -0.28125 -0.34375 -0.75q-0.109375 -0.46875 -0.109375 -1.1875l0 -5.234375l-1.5 0l0 5.21875q0 0.984375 0.203125 1.6875q0.21875 0.703125 0.625 1.15625q0.390625 0.453125 0.953125 0.671875q0.5625 0.203125 1.25 0.203125q0.859375 0 1.515625 -0.359375q0.65625 -0.359375 1.09375 -1.0l0.09375 1.203125zm4.1797485 0l1.515625 0l0 -6.296875q0.140625 -0.28125 0.34375 -0.515625q0.21875 -0.234375 0.453125 -0.421875q0.3125 -0.203125 0.65625 -0.3125q0.359375 -0.125 0.78125 -0.125q0.484375 0 0.84375 0.125q0.375 0.109375 0.625 0.359375q0.265625 0.25 0.390625 0.65625q0.125 0.40625 0.125 0.984375l0 5.546875l1.5 0l0 -5.578125q0 -0.875 -0.21875 -1.515625q-0.203125 -0.640625 -0.609375 -1.046875q-0.390625 -0.421875 -0.953125 -0.609375q-0.5625 -0.203125 -1.265625 -0.203125q-0.5 0.015625 -0.96875 0.15625q-0.453125 0.140625 -0.84375 0.40625q-0.265625 0.171875 -0.5 0.40625q-0.21875 0.21875 -0.421875 0.5l-0.09375 -1.296875l-1.359375 0l0 8.78125zm12.617249 -4.09375l3.21875 4.09375l1.90625 0l-4.09375 -5.125l3.546875 -3.65625l-1.828125 0l-2.875 2.890625l-0.984375 1.046875l0 -7.625l-1.515625 0l0 12.46875l1.515625 0l0 -3.03125l1.109375 -1.0625z" fill-rule="nonzero"/></g></svg>