<svg version="1.1" viewBox="0.0 0.0 960.0 720.0" fill="none" stroke="none" stroke-linecap="square" stroke-miterlimit="10" xmlns:xlink="http://www.w3.org/1999/xlink" xmlns="http://www.w3.org/2000/svg"><clipPath id="p.0"><path d="m0 0l960.0 0l0 720.0l-960.0 0l0 -720.0z" clip-rule="nonzero"/></clipPath><g clip-path="url(#p.0)"><path fill="#ffffff" d="m0 0l960.0 0l0 720.0l-960.0 0z" fill-rule="evenodd"/><path fill="#cfe2f3" d="m47.225723 282.9882l176.31496 0l0 117.63779l-176.31496 0z" fill-rule="evenodd"/><path stroke="#000000" stroke-width="0.6167979002624672" stroke-linejoin="round" stroke-linecap="butt" d="m47.225723 282.9882l176.31496 0l0 117.63779l-176.31496 0z" fill-rule="evenodd"/><path fill="#cfe2f3" d="m341.979 278.56372l189.48029 0l0 126.42517l-189.48029 0z" fill-rule="evenodd"/><path stroke="#000000" stroke-width="0.6246719160104987" stroke-linejoin="round" stroke-linecap="butt" d="m341.979 278.56372l189.48029 0l0 126.42517l-189.48029 0z" fill-rule="evenodd"/><path fill="#000000" fill-opacity="0.0" d="m65.289276 412.6719l140.18898 0l0 35.905518l-140.18898 0z" fill-rule="evenodd"/><path fill="#000000" d="m76.383026 422.5347q2.734375 0 4.03125 1.140625q1.296875 1.125 1.296875 3.203125q0 0.921875 -0.28125 1.78125q-0.265625 0.84375 -0.90625 1.53125q-0.640625 0.671875 -1.6875 1.0625q-1.046875 0.375 -2.5625 0.375l-1.28125 0l0 5.0l-3.03125 0l0 -14.09375l4.421875 0zm-0.09375 2.46875l-1.296875 0l0 4.140625l1.0 0q0.828125 0 1.421875 -0.203125q0.609375 -0.203125 0.9375 -0.6875q0.328125 -0.484375 0.328125 -1.28125q0 -0.9375 -0.59375 -1.453125q-0.578125 -0.515625 -1.796875 -0.515625zm17.614426 0.84375l0 10.78125l-2.28125 0l-0.375 -1.375l-0.171875 0q-0.34375 0.546875 -0.875 0.90625q-0.515625 0.34375 -1.140625 0.5q-0.609375 0.171875 -1.3125 0.171875q-1.140625 0 -2.0 -0.40625q-0.859375 -0.421875 -1.34375 -1.296875q-0.484375 -0.875 -0.484375 -2.25l0 -7.03125l3.0 0l0 6.28125q0 1.140625 0.40625 1.734375q0.40625 0.578125 1.296875 0.578125q0.90625 0 1.40625 -0.40625q0.515625 -0.40625 0.703125 -1.1875q0.203125 -0.796875 0.203125 -1.9375l0 -5.0625l2.96875 0zm5.889847 -0.71875q0 0.609375 -0.03125 1.171875q-0.03125 0.546875 -0.09375 0.953125l0.125 0q0.4375 -0.671875 1.15625 -1.125q0.734375 -0.46875 1.90625 -0.46875q1.796875 0 2.921875 1.40625q1.125 1.40625 1.125 4.15625q0 1.828125 -0.515625 3.09375q-0.515625 1.25 -1.453125 1.890625q-0.9375 0.625 -2.15625 0.625q-1.1875 0 -1.875 -0.421875q-0.671875 -0.4375 -1.109375 -0.953125l-0.203125 0l-0.484375 1.171875l-2.296875 0l0 -15.0l2.984375 0l0 3.5zm2.09375 2.890625q-0.75 0 -1.21875 0.328125q-0.46875 0.3125 -0.671875 0.953125q-0.203125 0.640625 -0.203125 1.671875l0 0.34375q0 1.53125 0.453125 2.328125q0.46875 0.78125 1.671875 0.78125q0.96875 0 1.453125 -0.828125q0.5 -0.84375 0.5 -2.421875q0 -1.546875 -0.484375 -2.34375q-0.484375 -0.8125 -1.5 -0.8125zm10.378387 8.609375l-2.984375 0l0 -15.0l2.984375 0l0 15.0zm5.896469 -10.78125l0 10.78125l-2.984375 0l0 -10.78125l2.984375 0zm-1.484375 -4.234375q0.65625 0 1.140625 0.3125q0.484375 0.296875 0.484375 1.140625q0 0.8125 -0.484375 1.140625q-0.484375 0.3125 -1.140625 0.3125q-0.65625 0 -1.140625 -0.3125q-0.46875 -0.328125 -0.46875 -1.140625q0 -0.84375 0.46875 -1.140625q0.484375 -0.3125 1.140625 -0.3125zm12.025574 11.84375q0 1.015625 -0.484375 1.78125q-0.484375 0.765625 -1.46875 1.1875q-0.984375 0.40625 -2.5 0.40625q-1.15625 0 -2.03125 -0.15625q-0.859375 -0.140625 -1.671875 -0.484375l0 -2.46875q0.875 0.421875 1.875 0.65625q1.015625 0.234375 1.734375 0.234375q0.921875 0 1.3125 -0.25q0.40625 -0.265625 0.40625 -0.6875q0 -0.296875 -0.203125 -0.53125q-0.203125 -0.25 -0.734375 -0.5q-0.515625 -0.265625 -1.484375 -0.640625q-0.96875 -0.390625 -1.625 -0.8125q-0.640625 -0.421875 -0.96875 -1.015625q-0.328125 -0.59375 -0.328125 -1.484375q0 -1.46875 1.171875 -2.25q1.171875 -0.78125 3.109375 -0.78125q1.046875 0 1.9375 0.21875q0.90625 0.21875 1.828125 0.609375l-0.859375 2.03125q-0.75 -0.34375 -1.546875 -0.546875q-0.78125 -0.21875 -1.390625 -0.21875q-0.671875 0 -1.046875 0.203125q-0.375 0.203125 -0.375 0.578125q0 0.28125 0.203125 0.5q0.203125 0.21875 0.71875 0.453125q0.53125 0.234375 1.484375 0.609375q0.96875 0.375 1.625 0.796875q0.65625 0.421875 0.984375 1.03125q0.328125 0.59375 0.328125 1.53125zm5.250412 -8.8125q0 0.875 -0.046875 1.546875q-0.046875 0.65625 -0.09375 1.046875l0.15625 0q0.359375 -0.578125 0.828125 -0.90625q0.484375 -0.34375 1.0625 -0.5q0.578125 -0.171875 1.234375 -0.171875q1.15625 0 2.015625 0.421875q0.875 0.40625 1.359375 1.265625q0.484375 0.859375 0.484375 2.25l0 7.03125l-2.96875 0l0 -6.28125q0 -1.15625 -0.421875 -1.734375q-0.40625 -0.59375 -1.296875 -0.59375q-0.875 0 -1.375 0.421875q-0.5 0.40625 -0.71875 1.203125q-0.21875 0.78125 -0.21875 1.9375l0 5.046875l-2.984375 0l0 -15.0l2.984375 0l0 3.015625zm14.436722 1.015625q1.5 0 2.578125 0.5625q1.09375 0.5625 1.671875 1.65625q0.59375 1.09375 0.59375 2.671875l0 1.4375l-6.921875 0q0.03125 1.234375 0.734375 1.9375q0.71875 0.6875 2.046875 0.6875q1.0 0 1.828125 -0.1875q0.828125 -0.203125 1.703125 -0.59375l0 2.21875q-0.796875 0.40625 -1.671875 0.59375q-0.875 0.1875 -2.1875 0.1875q-1.59375 0 -2.828125 -0.59375q-1.234375 -0.59375 -1.953125 -1.828125q-0.703125 -1.234375 -0.703125 -3.09375q0 -1.890625 0.640625 -3.140625q0.640625 -1.25 1.796875 -1.875q1.15625 -0.640625 2.671875 -0.640625zm0.09375 2.109375q-0.890625 0 -1.453125 0.5625q-0.546875 0.5625 -0.640625 1.671875l4.0625 0q0 -0.65625 -0.21875 -1.140625q-0.21875 -0.5 -0.671875 -0.796875q-0.4375 -0.296875 -1.078125 -0.296875zm13.062683 -2.109375q0.296875 0 0.640625 0.03125q0.34375 0.03125 0.53125 0.078125l-0.296875 2.78125q-0.203125 -0.03125 -0.5 -0.0625q-0.296875 -0.046875 -0.71875 -0.046875q-0.453125 0 -0.921875 0.140625q-0.453125 0.140625 -0.859375 0.453125q-0.390625 0.3125 -0.625 0.828125q-0.234375 0.515625 -0.234375 1.296875l0 5.46875l-2.984375 0l0 -10.78125l2.265625 0l0.4375 1.828125l0.140625 0q0.3125 -0.578125 0.78125 -1.03125q0.484375 -0.453125 1.078125 -0.71875q0.59375 -0.265625 1.265625 -0.265625z" fill-rule="nonzero"/><path fill="#000000" fill-opacity="0.0" d="m366.83203 403.30447l155.30707 0l0 36.440918l-155.30707 0z" fill-rule="evenodd"/><path fill="#000000" d="m423.32684 414.24854q1.875 0 3.109375 0.46875q1.25 0.46875 1.859375 1.390625q0.609375 0.921875 0.609375 2.296875q0 0.96875 -0.34375 1.71875q-0.328125 0.734375 -0.921875 1.25q-0.578125 0.515625 -1.3125 0.859375l4.0625 6.3125l-3.5 0l-3.1875 -5.484375l-1.703125 0l0 5.484375l-3.0625 0l0 -14.296875l4.390625 0zm-0.0625 2.375l-1.265625 0l0 4.0625l1.265625 0q1.21875 0 1.875 -0.5q0.671875 -0.5 0.671875 -1.640625q0 -0.640625 -0.28125 -1.0625q-0.265625 -0.421875 -0.828125 -0.640625q-0.5625 -0.21875 -1.4375 -0.21875zm13.234222 0.78125q1.53125 0 2.625 0.578125q1.109375 0.5625 1.6875 1.6875q0.59375 1.109375 0.59375 2.703125l0 1.46875l-7.03125 0q0.046875 1.234375 0.765625 1.953125q0.71875 0.703125 2.0625 0.703125q1.03125 0 1.859375 -0.1875q0.84375 -0.203125 1.734375 -0.609375l0 2.265625q-0.8125 0.390625 -1.703125 0.578125q-0.890625 0.203125 -2.203125 0.203125q-1.625 0 -2.875 -0.59375q-1.25 -0.609375 -1.984375 -1.859375q-0.71875 -1.25 -0.71875 -3.140625q0 -1.921875 0.65625 -3.1875q0.65625 -1.28125 1.828125 -1.921875q1.171875 -0.640625 2.703125 -0.640625zm0.078125 2.140625q-0.890625 0 -1.453125 0.578125q-0.5625 0.5625 -0.65625 1.6875l4.125 0q0 -0.65625 -0.234375 -1.15625q-0.21875 -0.5 -0.671875 -0.796875q-0.4375 -0.3125 -1.109375 -0.3125zm10.239899 9.0l-3.015625 0l0 -15.21875l3.015625 0l0 15.21875zm7.8286743 -11.140625q2.0625 0 3.140625 0.984375q1.09375 0.96875 1.09375 2.859375l0 7.296875l-2.109375 0l-0.578125 -1.484375l-0.078125 0q-0.46875 0.578125 -0.953125 0.96875q-0.484375 0.375 -1.125 0.546875q-0.640625 0.171875 -1.5625 0.171875q-0.96875 0 -1.734375 -0.375q-0.75 -0.375 -1.203125 -1.125q-0.4375 -0.765625 -0.4375 -1.921875q0 -1.734375 1.234375 -2.59375q1.25 -0.859375 3.71875 -0.953125l1.828125 -0.0625l0 -0.34375q0 -0.984375 -0.453125 -1.375q-0.4375 -0.390625 -1.234375 -0.390625q-0.75 0 -1.53125 0.25q-0.78125 0.234375 -1.53125 0.578125l-0.890625 -2.0625q0.859375 -0.4375 1.96875 -0.703125q1.125 -0.265625 2.4375 -0.265625zm0.09375 6.140625q-1.4375 0.03125 -2.0 0.453125q-0.546875 0.421875 -0.546875 1.1875q0 0.6875 0.390625 1.03125q0.390625 0.328125 1.046875 0.328125q0.9375 0 1.59375 -0.5625q0.65625 -0.5625 0.65625 -1.609375l0 -0.890625l-1.140625 0.0625zm5.5611877 -5.9375l3.1875 0l2.0625 6.25q0.09375 0.296875 0.1875 0.609375q0.09375 0.3125 0.15625 0.640625q0.078125 0.3125 0.109375 0.609375l0.078125 0q0.0625 -0.421875 0.21875 -0.921875q0.15625 -0.5 0.296875 -0.9375l2.015625 -6.25l3.125 0l-4.484375 11.9375q-0.4375 1.21875 -1.0625 2.0625q-0.609375 0.859375 -1.484375 1.296875q-0.875 0.453125 -2.1875 0.453125q-0.5 0 -0.875 -0.0625q-0.375 -0.046875 -0.640625 -0.109375l0 -2.375q0.21875 0.03125 0.53125 0.078125q0.3125 0.046875 0.65625 0.046875q0.609375 0 1.03125 -0.25q0.421875 -0.25 0.703125 -0.671875q0.28125 -0.40625 0.484375 -0.921875l0.234375 -0.625l-4.34375 -10.859375z" fill-rule="nonzero"/><path fill="#cfe2f3" d="m723.20996 66.18575l189.48035 0l0 126.42519l-189.48035 0z" fill-rule="evenodd"/><path stroke="#000000" stroke-width="0.6246719160104987" stroke-linejoin="round" stroke-linecap="butt" d="m723.20996 66.18575l189.48035 0l0 126.42519l-189.48035 0z" fill-rule="evenodd"/><path fill="#cfe2f3" d="m723.20996 278.56372l189.48035 0l0 126.42517l-189.48035 0z" fill-rule="evenodd"/><path stroke="#000000" stroke-width="0.6246719160104987" stroke-linejoin="round" stroke-linecap="butt" d="m723.20996 278.56372l189.48035 0l0 126.42517l-189.48035 0z" fill-rule="evenodd"/><path fill="#cfe2f3" d="m723.20996 473.79468l189.48035 0l0 126.42517l-189.48035 0z" fill-rule="evenodd"/><path stroke="#000000" stroke-width="0.6246719160104987" stroke-linejoin="round" stroke-linecap="butt" d="m723.20996 473.79468l189.48035 0l0 126.42517l-189.48035 0z" fill-rule="evenodd"/><path fill="#000000" fill-opacity="0.0" d="m531.4593 341.7763l95.87598 0l0 -212.37796l95.87207 0" fill-rule="evenodd"/><path stroke="#000000" stroke-width="1.0" stroke-linejoin="round" stroke-linecap="butt" d="m531.4593 341.7763l95.87598 0l0 -212.37794l89.87207 0" fill-rule="evenodd"/><path fill="#000000" stroke="#000000" stroke-width="1.0" stroke-linecap="butt" d="m717.20734 131.0501l4.538086 -1.6517334l-4.538086 -1.651741z" fill-rule="evenodd"/><path fill="#000000" fill-opacity="0.0" d="m531.4593 341.7763l95.87598 0l0 195.24408l95.87207 0" fill-rule="evenodd"/><path stroke="#000000" stroke-width="1.0" stroke-linejoin="round" stroke-linecap="butt" d="m531.4593 341.7763l95.87598 0l0 195.24408l89.87207 0" fill-rule="evenodd"/><path fill="#000000" stroke="#000000" stroke-width="1.0" stroke-linecap="butt" d="m717.20734 538.6721l4.538086 -1.6517334l-4.538086 -1.6517334z" fill-rule="evenodd"/><path fill="#000000" fill-opacity="0.0" d="m531.4593 341.7763l95.87598 0l0 0.06298828l95.87207 0" fill-rule="evenodd"/><path stroke="#000000" stroke-width="1.0" stroke-linejoin="round" stroke-linecap="butt" d="m531.4593 341.7763l95.87598 0l0 0.06298828l89.87207 0" fill-rule="evenodd"/><path fill="#000000" stroke="#000000" stroke-width="1.0" stroke-linecap="butt" d="m717.20734 343.49103l4.538086 -1.6517334l-4.538086 -1.6517334z" fill-rule="evenodd"/><path fill="#000000" fill-opacity="0.0" d="m223.54068 341.8071l118.4252 -0.03149414" fill-rule="evenodd"/><path stroke="#000000" stroke-width="1.0" stroke-linejoin="round" stroke-linecap="butt" d="m223.54068 341.8071l112.4252 -0.029907227" fill-rule="evenodd"/><path fill="#000000" stroke="#000000" stroke-width="1.0" stroke-linecap="butt" d="m335.9663 343.42892l4.5376587 -1.6529541l-4.538513 -1.6505127z" fill-rule="evenodd"/><path fill="#000000" fill-opacity="0.0" d="m731.5544 192.61154l140.18896 0l0 35.905518l-140.18896 0z" fill-rule="evenodd"/><path fill="#000000" d="m746.6325 212.66185q0 1.234375 -0.609375 2.171875q-0.609375 0.921875 -1.765625 1.4375q-1.15625 0.5 -2.8125 0.5q-0.734375 0 -1.4375 -0.109375q-0.6875 -0.09375 -1.328125 -0.28125q-0.640625 -0.1875 -1.21875 -0.46875l0 -2.78125q1.015625 0.4375 2.078125 0.8125q1.078125 0.359375 2.140625 0.359375q0.734375 0 1.171875 -0.203125q0.453125 -0.203125 0.65625 -0.53125q0.203125 -0.328125 0.203125 -0.765625q0 -0.53125 -0.359375 -0.90625q-0.359375 -0.375 -0.984375 -0.703125q-0.609375 -0.328125 -1.390625 -0.703125q-0.5 -0.234375 -1.078125 -0.5625q-0.5625 -0.328125 -1.09375 -0.8125q-0.515625 -0.484375 -0.859375 -1.171875q-0.328125 -0.6875 -0.328125 -1.65625q0 -1.265625 0.578125 -2.15625q0.59375 -0.90625 1.65625 -1.375q1.078125 -0.46875 2.546875 -0.46875q1.109375 0 2.09375 0.25q1.0 0.25 2.09375 0.734375l-0.96875 2.328125q-0.96875 -0.390625 -1.75 -0.609375q-0.765625 -0.21875 -1.5625 -0.21875q-0.5625 0 -0.953125 0.171875q-0.390625 0.171875 -0.609375 0.5q-0.203125 0.3125 -0.203125 0.75q0 0.484375 0.296875 0.828125q0.296875 0.34375 0.890625 0.671875q0.59375 0.3125 1.484375 0.75q1.078125 0.5 1.828125 1.0625q0.765625 0.546875 1.171875 1.296875q0.421875 0.75 0.421875 1.859375zm12.154846 -6.875l0 10.78125l-2.28125 0l-0.375 -1.375l-0.171875 0q-0.34375 0.546875 -0.875 0.90625q-0.515625 0.34375 -1.140625 0.5q-0.609375 0.171875 -1.3125 0.171875q-1.140625 0 -2.0 -0.40625q-0.859375 -0.421875 -1.34375 -1.296875q-0.484375 -0.875 -0.484375 -2.25l0 -7.03125l3.0 0l0 6.28125q0 1.140625 0.40625 1.734375q0.40625 0.578125 1.296875 0.578125q0.90625 0 1.40625 -0.40625q0.515625 -0.40625 0.703125 -1.1875q0.203125 -0.796875 0.203125 -1.9375l0 -5.0625l2.96875 0zm5.8898926 -0.71875q0 0.609375 -0.03125 1.171875q-0.03125 0.546875 -0.09375 0.953125l0.125 0q0.4375 -0.671875 1.15625 -1.125q0.734375 -0.46875 1.90625 -0.46875q1.796875 0 2.921875 1.40625q1.125 1.40625 1.125 4.15625q0 1.828125 -0.515625 3.09375q-0.515625 1.25 -1.453125 1.890625q-0.9375 0.625 -2.15625 0.625q-1.1875 0 -1.875 -0.421875q-0.671875 -0.4375 -1.109375 -0.953125l-0.203125 0l-0.484375 1.171875l-2.296875 0l0 -15.0l2.984375 0l0 3.5zm2.09375 2.890625q-0.75 0 -1.21875 0.328125q-0.46875 0.3125 -0.671875 0.953125q-0.203125 0.640625 -0.203125 1.671875l0 0.34375q0 1.53125 0.453125 2.328125q0.46875 0.78125 1.671875 0.78125q0.96875 0 1.453125 -0.828125q0.5 -0.84375 0.5 -2.421875q0 -1.546875 -0.484375 -2.34375q-0.484375 -0.8125 -1.5 -0.8125zm15.034607 5.4375q0 1.015625 -0.484375 1.78125q-0.484375 0.765625 -1.46875 1.1875q-0.984375 0.40625 -2.5 0.40625q-1.15625 0 -2.03125 -0.15625q-0.859375 -0.140625 -1.671875 -0.484375l0 -2.46875q0.875 0.421875 1.875 0.65625q1.015625 0.234375 1.734375 0.234375q0.921875 0 1.3125 -0.25q0.40625 -0.265625 0.40625 -0.6875q0 -0.296875 -0.203125 -0.53125q-0.203125 -0.25 -0.734375 -0.5q-0.515625 -0.265625 -1.484375 -0.640625q-0.96875 -0.390625 -1.625 -0.8125q-0.640625 -0.421875 -0.96875 -1.015625q-0.328125 -0.59375 -0.328125 -1.484375q0 -1.46875 1.171875 -2.25q1.171875 -0.78125 3.109375 -0.78125q1.046875 0 1.9375 0.21875q0.90625 0.21875 1.828125 0.609375l-0.859375 2.03125q-0.75 -0.34375 -1.546875 -0.546875q-0.78125 -0.21875 -1.390625 -0.21875q-0.671875 0 -1.046875 0.203125q-0.375 0.203125 -0.375 0.578125q0 0.28125 0.203125 0.5q0.203125 0.21875 0.71875 0.453125q0.53125 0.234375 1.484375 0.609375q0.96875 0.375 1.625 0.796875q0.65625 0.421875 0.984375 1.03125q0.328125 0.59375 0.328125 1.53125zm6.9691772 3.375q-1.5625 0 -2.734375 -0.578125q-1.171875 -0.59375 -1.828125 -1.828125q-0.65625 -1.234375 -0.65625 -3.125q0 -2.0 0.703125 -3.234375q0.71875 -1.25 1.9375 -1.828125q1.234375 -0.578125 2.796875 -0.578125q0.9375 0 1.78125 0.203125q0.84375 0.1875 1.484375 0.53125l-0.875 2.234375q-0.59375 -0.25 -1.203125 -0.40625q-0.59375 -0.171875 -1.1875 -0.171875q-0.78125 0 -1.3125 0.359375q-0.53125 0.34375 -0.8125 1.0625q-0.265625 0.71875 -0.265625 1.8125q0 1.0625 0.265625 1.75q0.28125 0.6875 0.8125 1.046875q0.53125 0.34375 1.265625 0.34375q0.84375 0 1.59375 -0.234375q0.75 -0.234375 1.421875 -0.609375l0 2.4375q-0.609375 0.375 -1.375 0.59375q-0.765625 0.21875 -1.8125 0.21875zm11.448547 -11.171875q0.296875 0 0.640625 0.03125q0.34375 0.03125 0.53125 0.078125l-0.296875 2.78125q-0.203125 -0.03125 -0.5 -0.0625q-0.296875 -0.046875 -0.71875 -0.046875q-0.453125 0 -0.921875 0.140625q-0.453125 0.140625 -0.859375 0.453125q-0.390625 0.3125 -0.625 0.828125q-0.234375 0.515625 -0.234375 1.296875l0 5.46875l-2.984375 0l0 -10.78125l2.265625 0l0.4375 1.828125l0.140625 0q0.3125 -0.578125 0.78125 -1.03125q0.484375 -0.453125 1.078125 -0.71875q0.59375 -0.265625 1.265625 -0.265625zm5.852539 0.1875l0 10.78125l-2.984375 0l0 -10.78125l2.984375 0zm-1.484375 -4.234375q0.65625 0 1.140625 0.3125q0.484375 0.296875 0.484375 1.140625q0 0.8125 -0.484375 1.140625q-0.484375 0.3125 -1.140625 0.3125q-0.65625 0 -1.140625 -0.3125q-0.46875 -0.328125 -0.46875 -1.140625q0 -0.84375 0.46875 -1.140625q0.484375 -0.3125 1.140625 -0.3125zm7.3693237 3.515625q0 0.609375 -0.03125 1.171875q-0.03125 0.546875 -0.09375 0.953125l0.125 0q0.4375 -0.671875 1.15625 -1.125q0.734375 -0.46875 1.90625 -0.46875q1.796875 0 2.921875 1.40625q1.125 1.40625 1.125 4.15625q0 1.828125 -0.515625 3.09375q-0.515625 1.25 -1.453125 1.890625q-0.9375 0.625 -2.15625 0.625q-1.1875 0 -1.875 -0.421875q-0.671875 -0.4375 -1.109375 -0.953125l-0.203125 0l-0.484375 1.171875l-2.296875 0l0 -15.0l2.984375 0l0 3.5zm2.09375 2.890625q-0.75 0 -1.21875 0.328125q-0.46875 0.3125 -0.671875 0.953125q-0.203125 0.640625 -0.203125 1.671875l0 0.34375q0 1.53125 0.453125 2.328125q0.46875 0.78125 1.671875 0.78125q0.96875 0 1.453125 -0.828125q0.5 -0.84375 0.5 -2.421875q0 -1.546875 -0.484375 -2.34375q-0.484375 -0.8125 -1.5 -0.8125zm11.987732 -2.359375q1.5 0 2.578125 0.5625q1.09375 0.5625 1.671875 1.65625q0.59375 1.09375 0.59375 2.671875l0 1.4375l-6.921875 0q0.03125 1.234375 0.734375 1.9375q0.71875 0.6875 2.046875 0.6875q1.0 0 1.828125 -0.1875q0.828125 -0.203125 1.703125 -0.59375l0 2.21875q-0.796875 0.40625 -1.671875 0.59375q-0.875 0.1875 -2.1875 0.1875q-1.59375 0 -2.828125 -0.59375q-1.234375 -0.59375 -1.953125 -1.828125q-0.703125 -1.234375 -0.703125 -3.09375q0 -1.890625 0.640625 -3.140625q0.640625 -1.25 1.796875 -1.875q1.15625 -0.640625 2.671875 -0.640625zm0.09375 2.109375q-0.890625 0 -1.453125 0.5625q-0.546875 0.5625 -0.640625 1.671875l4.0625 0q0 -0.65625 -0.21875 -1.140625q-0.21875 -0.5 -0.671875 -0.796875q-0.4375 -0.296875 -1.078125 -0.296875zm13.062683 -2.109375q0.296875 0 0.640625 0.03125q0.34375 0.03125 0.53125 0.078125l-0.296875 2.78125q-0.203125 -0.03125 -0.5 -0.0625q-0.296875 -0.046875 -0.71875 -0.046875q-0.453125 0 -0.921875 0.140625q-0.453125 0.140625 -0.859375 0.453125q-0.390625 0.3125 -0.625 0.828125q-0.234375 0.515625 -0.234375 1.296875l0 5.46875l-2.984375 0l0 -10.78125l2.265625 0l0.4375 1.828125l0.140625 0q0.3125 -0.578125 0.78125 -1.03125q0.484375 -0.453125 1.078125 -0.71875q0.59375 -0.265625 1.265625 -0.265625z" fill-rule="nonzero"/><path fill="#000000" fill-opacity="0.0" d="m723.2105 404.9895l140.18903 0l0 35.905518l-140.18903 0z" fill-rule="evenodd"/><path fill="#000000" d="m738.28864 425.0398q0 1.234375 -0.609375 2.171875q-0.609375 0.921875 -1.765625 1.4375q-1.15625 0.5 -2.8125 0.5q-0.734375 0 -1.4375 -0.109375q-0.6875 -0.09375 -1.328125 -0.28125q-0.640625 -0.1875 -1.21875 -0.46875l0 -2.78125q1.015625 0.4375 2.078125 0.8125q1.078125 0.359375 2.140625 0.359375q0.734375 0 1.171875 -0.203125q0.453125 -0.203125 0.65625 -0.53125q0.203125 -0.328125 0.203125 -0.765625q0 -0.53125 -0.359375 -0.90625q-0.359375 -0.375 -0.984375 -0.703125q-0.609375 -0.328125 -1.390625 -0.703125q-0.5 -0.234375 -1.078125 -0.5625q-0.5625 -0.328125 -1.09375 -0.8125q-0.515625 -0.484375 -0.859375 -1.171875q-0.328125 -0.6875 -0.328125 -1.65625q0 -1.265625 0.578125 -2.15625q0.59375 -0.90625 1.65625 -1.375q1.078125 -0.46875 2.546875 -0.46875q1.109375 0 2.09375 0.25q1.0 0.25 2.09375 0.734375l-0.96875 2.328125q-0.96875 -0.390625 -1.75 -0.609375q-0.765625 -0.21875 -1.5625 -0.21875q-0.5625 0 -0.953125 0.171875q-0.390625 0.171875 -0.609375 0.5q-0.203125 0.3125 -0.203125 0.75q0 0.484375 0.296875 0.828125q0.296875 0.34375 0.890625 0.671875q0.59375 0.3125 1.484375 0.75q1.078125 0.5 1.828125 1.0625q0.765625 0.546875 1.171875 1.296875q0.421875 0.75 0.421875 1.859375zm12.154907 -6.875l0 10.78125l-2.28125 0l-0.375 -1.375l-0.171875 0q-0.34375 0.546875 -0.875 0.90625q-0.515625 0.34375 -1.140625 0.5q-0.609375 0.171875 -1.3125 0.171875q-1.140625 0 -2.0 -0.40625q-0.859375 -0.421875 -1.34375 -1.296875q-0.484375 -0.875 -0.484375 -2.25l0 -7.03125l3.0 0l0 6.28125q0 1.140625 0.40625 1.734375q0.40625 0.578125 1.296875 0.578125q0.90625 0 1.40625 -0.40625q0.515625 -0.40625 0.703125 -1.1875q0.203125 -0.796875 0.203125 -1.9375l0 -5.0625l2.96875 0zm5.8898315 -0.71875q0 0.609375 -0.03125 1.171875q-0.03125 0.546875 -0.09375 0.953125l0.125 0q0.4375 -0.671875 1.15625 -1.125q0.734375 -0.46875 1.90625 -0.46875q1.796875 0 2.921875 1.40625q1.125 1.40625 1.125 4.15625q0 1.828125 -0.515625 3.09375q-0.515625 1.25 -1.453125 1.890625q-0.9375 0.625 -2.15625 0.625q-1.1875 0 -1.875 -0.421875q-0.671875 -0.4375 -1.109375 -0.953125l-0.203125 0l-0.484375 1.171875l-2.296875 0l0 -15.0l2.984375 0l0 3.5zm2.09375 2.890625q-0.75 0 -1.21875 0.328125q-0.46875 0.3125 -0.671875 0.953125q-0.203125 0.640625 -0.203125 1.671875l0 0.34375q0 1.53125 0.453125 2.328125q0.46875 0.78125 1.671875 0.78125q0.96875 0 1.453125 -0.828125q0.5 -0.84375 0.5 -2.421875q0 -1.546875 -0.484375 -2.34375q-0.484375 -0.8125 -1.5 -0.8125zm15.034668 5.4375q0 1.015625 -0.484375 1.78125q-0.484375 0.765625 -1.46875 1.1875q-0.984375 0.40625 -2.5 0.40625q-1.15625 0 -2.03125 -0.15625q-0.859375 -0.140625 -1.671875 -0.484375l0 -2.46875q0.875 0.421875 1.875 0.65625q1.015625 0.234375 1.734375 0.234375q0.921875 0 1.3125 -0.25q0.40625 -0.265625 0.40625 -0.6875q0 -0.296875 -0.203125 -0.53125q-0.203125 -0.25 -0.734375 -0.5q-0.515625 -0.265625 -1.484375 -0.640625q-0.96875 -0.390625 -1.625 -0.8125q-0.640625 -0.421875 -0.96875 -1.015625q-0.328125 -0.59375 -0.328125 -1.484375q0 -1.46875 1.171875 -2.25q1.171875 -0.78125 3.109375 -0.78125q1.046875 0 1.9375 0.21875q0.90625 0.21875 1.828125 0.609375l-0.859375 2.03125q-0.75 -0.34375 -1.546875 -0.546875q-0.78125 -0.21875 -1.390625 -0.21875q-0.671875 0 -1.046875 0.203125q-0.375 0.203125 -0.375 0.578125q0 0.28125 0.203125 0.5q0.203125 0.21875 0.71875 0.453125q0.53125 0.234375 1.484375 0.609375q0.96875 0.375 1.625 0.796875q0.65625 0.421875 0.984375 1.03125q0.328125 0.59375 0.328125 1.53125zm6.9691772 3.375q-1.5625 0 -2.734375 -0.578125q-1.171875 -0.59375 -1.828125 -1.828125q-0.65625 -1.234375 -0.65625 -3.125q0 -2.0 0.703125 -3.234375q0.71875 -1.25 1.9375 -1.828125q1.234375 -0.578125 2.796875 -0.578125q0.9375 0 1.78125 0.203125q0.84375 0.1875 1.484375 0.53125l-0.875 2.234375q-0.59375 -0.25 -1.203125 -0.40625q-0.59375 -0.171875 -1.1875 -0.171875q-0.78125 0 -1.3125 0.359375q-0.53125 0.34375 -0.8125 1.0625q-0.265625 0.71875 -0.265625 1.8125q0 1.0625 0.265625 1.75q0.28125 0.6875 0.8125 1.046875q0.53125 0.34375 1.265625 0.34375q0.84375 0 1.59375 -0.234375q0.75 -0.234375 1.421875 -0.609375l0 2.4375q-0.609375 0.375 -1.375 0.59375q-0.765625 0.21875 -1.8125 0.21875zm11.448547 -11.171875q0.296875 0 0.640625 0.03125q0.34375 0.03125 0.53125 0.078125l-0.296875 2.78125q-0.203125 -0.03125 -0.5 -0.0625q-0.296875 -0.046875 -0.71875 -0.046875q-0.453125 0 -0.921875 0.140625q-0.453125 0.140625 -0.859375 0.453125q-0.390625 0.3125 -0.625 0.828125q-0.234375 0.515625 -0.234375 1.296875l0 5.46875l-2.984375 0l0 -10.78125l2.265625 0l0.4375 1.828125l0.140625 0q0.3125 -0.578125 0.78125 -1.03125q0.484375 -0.453125 1.078125 -0.71875q0.59375 -0.265625 1.265625 -0.265625zm5.852539 0.1875l0 10.78125l-2.984375 0l0 -10.78125l2.984375 0zm-1.484375 -4.234375q0.65625 0 1.140625 0.3125q0.484375 0.296875 0.484375 1.140625q0 0.8125 -0.484375 1.140625q-0.484375 0.3125 -1.140625 0.3125q-0.65625 0 -1.140625 -0.3125q-0.46875 -0.328125 -0.46875 -1.140625q0 -0.84375 0.46875 -1.140625q0.484375 -0.3125 1.140625 -0.3125zm7.3693237 3.515625q0 0.609375 -0.03125 1.171875q-0.03125 0.546875 -0.09375 0.953125l0.125 0q0.4375 -0.671875 1.15625 -1.125q0.734375 -0.46875 1.90625 -0.46875q1.796875 0 2.921875 1.40625q1.125 1.40625 1.125 4.15625q0 1.828125 -0.515625 3.09375q-0.515625 1.25 -1.453125 1.890625q-0.9375 0.625 -2.15625 0.625q-1.1875 0 -1.875 -0.421875q-0.671875 -0.4375 -1.109375 -0.953125l-0.203125 0l-0.484375 1.171875l-2.296875 0l0 -15.0l2.984375 0l0 3.5zm2.09375 2.890625q-0.75 0 -1.21875 0.328125q-0.46875 0.3125 -0.671875 0.953125q-0.203125 0.640625 -0.203125 1.671875l0 0.34375q0 1.53125 0.453125 2.328125q0.46875 0.78125 1.671875 0.78125q0.96875 0 1.453125 -0.828125q0.5 -0.84375 0.5 -2.421875q0 -1.546875 -0.484375 -2.34375q-0.484375 -0.8125 -1.5 -0.8125zm11.987732 -2.359375q1.5 0 2.578125 0.5625q1.09375 0.5625 1.671875 1.65625q0.59375 1.09375 0.59375 2.671875l0 1.4375l-6.921875 0q0.03125 1.234375 0.734375 1.9375q0.71875 0.6875 2.046875 0.6875q1.0 0 1.828125 -0.1875q0.828125 -0.203125 1.703125 -0.59375l0 2.21875q-0.796875 0.40625 -1.671875 0.59375q-0.875 0.1875 -2.1875 0.1875q-1.59375 0 -2.828125 -0.59375q-1.234375 -0.59375 -1.953125 -1.828125q-0.703125 -1.234375 -0.703125 -3.09375q0 -1.890625 0.640625 -3.140625q0.640625 -1.25 1.796875 -1.875q1.15625 -0.640625 2.671875 -0.640625zm0.09375 2.109375q-0.890625 0 -1.453125 0.5625q-0.546875 0.5625 -0.640625 1.671875l4.0625 0q0 -0.65625 -0.21875 -1.140625q-0.21875 -0.5 -0.671875 -0.796875q-0.4375 -0.296875 -1.078125 -0.296875zm13.062683 -2.109375q0.296875 0 0.640625 0.03125q0.34375 0.03125 0.53125 0.078125l-0.296875 2.78125q-0.203125 -0.03125 -0.5 -0.0625q-0.296875 -0.046875 -0.71875 -0.046875q-0.453125 0 -0.921875 0.140625q-0.453125 0.140625 -0.859375 0.453125q-0.390625 0.3125 -0.625 0.828125q-0.234375 0.515625 -0.234375 1.296875l0 5.46875l-2.984375 0l0 -10.78125l2.265625 0l0.4375 1.828125l0.140625 0q0.3125 -0.578125 0.78125 -1.03125q0.484375 -0.453125 1.078125 -0.71875q0.59375 -0.265625 1.265625 -0.265625z" fill-rule="nonzero"/><path fill="#000000" fill-opacity="0.0" d="m723.2105 600.22046l140.18903 0l0 35.905518l-140.18903 0z" fill-rule="evenodd"/><path fill="#000000" d="m738.28864 620.27075q0 1.234375 -0.609375 2.171875q-0.609375 0.921875 -1.765625 1.4375q-1.15625 0.5 -2.8125 0.5q-0.734375 0 -1.4375 -0.109375q-0.6875 -0.09375 -1.328125 -0.28125q-0.640625 -0.1875 -1.21875 -0.46875l0 -2.78125q1.015625 0.4375 2.078125 0.8125q1.078125 0.359375 2.140625 0.359375q0.734375 0 1.171875 -0.203125q0.453125 -0.203125 0.65625 -0.53125q0.203125 -0.328125 0.203125 -0.765625q0 -0.53125 -0.359375 -0.90625q-0.359375 -0.375 -0.984375 -0.703125q-0.609375 -0.328125 -1.390625 -0.703125q-0.5 -0.234375 -1.078125 -0.5625q-0.5625 -0.328125 -1.09375 -0.8125q-0.515625 -0.484375 -0.859375 -1.171875q-0.328125 -0.6875 -0.328125 -1.65625q0 -1.265625 0.578125 -2.15625q0.59375 -0.90625 1.65625 -1.375q1.078125 -0.46875 2.546875 -0.46875q1.109375 0 2.09375 0.25q1.0 0.25 2.09375 0.734375l-0.96875 2.328125q-0.96875 -0.390625 -1.75 -0.609375q-0.765625 -0.21875 -1.5625 -0.21875q-0.5625 0 -0.953125 0.171875q-0.390625 0.171875 -0.609375 0.5q-0.203125 0.3125 -0.203125 0.75q0 0.484375 0.296875 0.828125q0.296875 0.34375 0.890625 0.671875q0.59375 0.3125 1.484375 0.75q1.078125 0.5 1.828125 1.0625q0.765625 0.546875 1.171875 1.296875q0.421875 0.75 0.421875 1.859375zm12.154907 -6.875l0 10.78125l-2.28125 0l-0.375 -1.375l-0.171875 0q-0.34375 0.546875 -0.875 0.90625q-0.515625 0.34375 -1.140625 0.5q-0.609375 0.171875 -1.3125 0.171875q-1.140625 0 -2.0 -0.40625q-0.859375 -0.421875 -1.34375 -1.296875q-0.484375 -0.875 -0.484375 -2.25l0 -7.03125l3.0 0l0 6.28125q0 1.140625 0.40625 1.734375q0.40625 0.578125 1.296875 0.578125q0.90625 0 1.40625 -0.40625q0.515625 -0.40625 0.703125 -1.1875q0.203125 -0.796875 0.203125 -1.9375l0 -5.0625l2.96875 0zm5.8898315 -0.71875q0 0.609375 -0.03125 1.171875q-0.03125 0.546875 -0.09375 0.953125l0.125 0q0.4375 -0.671875 1.15625 -1.125q0.734375 -0.46875 1.90625 -0.46875q1.796875 0 2.921875 1.40625q1.125 1.40625 1.125 4.15625q0 1.828125 -0.515625 3.09375q-0.515625 1.25 -1.453125 1.890625q-0.9375 0.625 -2.15625 0.625q-1.1875 0 -1.875 -0.421875q-0.671875 -0.4375 -1.109375 -0.953125l-0.203125 0l-0.484375 1.171875l-2.296875 0l0 -15.0l2.984375 0l0 3.5zm2.09375 2.890625q-0.75 0 -1.21875 0.328125q-0.46875 0.3125 -0.671875 0.953125q-0.203125 0.640625 -0.203125 1.671875l0 0.34375q0 1.53125 0.453125 2.328125q0.46875 0.78125 1.671875 0.78125q0.96875 0 1.453125 -0.828125q0.5 -0.84375 0.5 -2.421875q0 -1.546875 -0.484375 -2.34375q-0.484375 -0.8125 -1.5 -0.8125zm15.034668 5.4375q0 1.015625 -0.484375 1.78125q-0.484375 0.765625 -1.46875 1.1875q-0.984375 0.40625 -2.5 0.40625q-1.15625 0 -2.03125 -0.15625q-0.859375 -0.140625 -1.671875 -0.484375l0 -2.46875q0.875 0.421875 1.875 0.65625q1.015625 0.234375 1.734375 0.234375q0.921875 0 1.3125 -0.25q0.40625 -0.265625 0.40625 -0.6875q0 -0.296875 -0.203125 -0.53125q-0.203125 -0.25 -0.734375 -0.5q-0.515625 -0.265625 -1.484375 -0.640625q-0.96875 -0.390625 -1.625 -0.8125q-0.640625 -0.421875 -0.96875 -1.015625q-0.328125 -0.59375 -0.328125 -1.484375q0 -1.46875 1.171875 -2.25q1.171875 -0.78125 3.109375 -0.78125q1.046875 0 1.9375 0.21875q0.90625 0.21875 1.828125 0.609375l-0.859375 2.03125q-0.75 -0.34375 -1.546875 -0.546875q-0.78125 -0.21875 -1.390625 -0.21875q-0.671875 0 -1.046875 0.203125q-0.375 0.203125 -0.375 0.578125q0 0.28125 0.203125 0.5q0.203125 0.21875 0.71875 0.453125q0.53125 0.234375 1.484375 0.609375q0.96875 0.375 1.625 0.796875q0.65625 0.421875 0.984375 1.03125q0.328125 0.59375 0.328125 1.53125zm6.9691772 3.375q-1.5625 0 -2.734375 -0.578125q-1.171875 -0.59375 -1.828125 -1.828125q-0.65625 -1.234375 -0.65625 -3.125q0 -2.0 0.703125 -3.234375q0.71875 -1.25 1.9375 -1.828125q1.234375 -0.578125 2.796875 -0.578125q0.9375 0 1.78125 0.203125q0.84375 0.1875 1.484375 0.53125l-0.875 2.234375q-0.59375 -0.25 -1.203125 -0.40625q-0.59375 -0.171875 -1.1875 -0.171875q-0.78125 0 -1.3125 0.359375q-0.53125 0.34375 -0.8125 1.0625q-0.265625 0.71875 -0.265625 1.8125q0 1.0625 0.265625 1.75q0.28125 0.6875 0.8125 1.046875q0.53125 0.34375 1.265625 0.34375q0.84375 0 1.59375 -0.234375q0.75 -0.234375 1.421875 -0.609375l0 2.4375q-0.609375 0.375 -1.375 0.59375q-0.765625 0.21875 -1.8125 0.21875zm11.448547 -11.171875q0.296875 0 0.640625 0.03125q0.34375 0.03125 0.53125 0.078125l-0.296875 2.78125q-0.203125 -0.03125 -0.5 -0.0625q-0.296875 -0.046875 -0.71875 -0.046875q-0.453125 0 -0.921875 0.140625q-0.453125 0.140625 -0.859375 0.453125q-0.390625 0.3125 -0.625 0.828125q-0.234375 0.515625 -0.234375 1.296875l0 5.46875l-2.984375 0l0 -10.78125l2.265625 0l0.4375 1.828125l0.140625 0q0.3125 -0.578125 0.78125 -1.03125q0.484375 -0.453125 1.078125 -0.71875q0.59375 -0.265625 1.265625 -0.265625zm5.852539 0.1875l0 10.78125l-2.984375 0l0 -10.78125l2.984375 0zm-1.484375 -4.234375q0.65625 0 1.140625 0.3125q0.484375 0.296875 0.484375 1.140625q0 0.8125 -0.484375 1.140625q-0.484375 0.3125 -1.140625 0.3125q-0.65625 0 -1.140625 -0.3125q-0.46875 -0.328125 -0.46875 -1.140625q0 -0.84375 0.46875 -1.140625q0.484375 -0.3125 1.140625 -0.3125zm7.3693237 3.515625q0 0.609375 -0.03125 1.171875q-0.03125 0.546875 -0.09375 0.953125l0.125 0q0.4375 -0.671875 1.15625 -1.125q0.734375 -0.46875 1.90625 -0.46875q1.796875 0 2.921875 1.40625q1.125 1.40625 1.125 4.15625q0 1.828125 -0.515625 3.09375q-0.515625 1.25 -1.453125 1.890625q-0.9375 0.625 -2.15625 0.625q-1.1875 0 -1.875 -0.421875q-0.671875 -0.4375 -1.109375 -0.953125l-0.203125 0l-0.484375 1.171875l-2.296875 0l0 -15.0l2.984375 0l0 3.5zm2.09375 2.890625q-0.75 0 -1.21875 0.328125q-0.46875 0.3125 -0.671875 0.953125q-0.203125 0.640625 -0.203125 1.671875l0 0.34375q0 1.53125 0.453125 2.328125q0.46875 0.78125 1.671875 0.78125q0.96875 0 1.453125 -0.828125q0.5 -0.84375 0.5 -2.421875q0 -1.546875 -0.484375 -2.34375q-0.484375 -0.8125 -1.5 -0.8125zm11.987732 -2.359375q1.5 0 2.578125 0.5625q1.09375 0.5625 1.671875 1.65625q0.59375 1.09375 0.59375 2.671875l0 1.4375l-6.921875 0q0.03125 1.234375 0.734375 1.9375q0.71875 0.6875 2.046875 0.6875q1.0 0 1.828125 -0.1875q0.828125 -0.203125 1.703125 -0.59375l0 2.21875q-0.796875 0.40625 -1.671875 0.59375q-0.875 0.1875 -2.1875 0.1875q-1.59375 0 -2.828125 -0.59375q-1.234375 -0.59375 -1.953125 -1.828125q-0.703125 -1.234375 -0.703125 -3.09375q0 -1.890625 0.640625 -3.140625q0.640625 -1.25 1.796875 -1.875q1.15625 -0.640625 2.671875 -0.640625zm0.09375 2.109375q-0.890625 0 -1.453125 0.5625q-0.546875 0.5625 -0.640625 1.671875l4.0625 0q0 -0.65625 -0.21875 -1.140625q-0.21875 -0.5 -0.671875 -0.796875q-0.4375 -0.296875 -1.078125 -0.296875zm13.062683 -2.109375q0.296875 0 0.640625 0.03125q0.34375 0.03125 0.53125 0.078125l-0.296875 2.78125q-0.203125 -0.03125 -0.5 -0.0625q-0.296875 -0.046875 -0.71875 -0.046875q-0.453125 0 -0.921875 0.140625q-0.453125 0.140625 -0.859375 0.453125q-0.390625 0.3125 -0.625 0.828125q-0.234375 0.515625 -0.234375 1.296875l0 5.46875l-2.984375 0l0 -10.78125l2.265625 0l0.4375 1.828125l0.140625 0q0.3125 -0.578125 0.78125 -1.03125q0.484375 -0.453125 1.078125 -0.71875q0.59375 -0.265625 1.265625 -0.265625z" fill-rule="nonzero"/><path fill="#000000" d="m238.6378 334.01312l13.448807 7.763794l-13.448807 7.7637634z" fill-rule="evenodd"/><path fill="#000000" d="m270.23883 334.01312l13.448822 7.763794l-13.448822 7.7637634z" fill-rule="evenodd"/><path fill="#000000" d="m298.80316 334.04462l13.448822 7.763794l-13.448822 7.7637634z" fill-rule="evenodd"/><path fill="#000000" d="m582.2887 334.04462l13.448853 7.763794l-13.448853 7.7637634z" fill-rule="evenodd"/><path fill="#000000" d="m663.5066 121.63517l13.4487915 7.7637863l-13.4487915 7.7637787z" fill-rule="evenodd"/><path fill="#000000" d="m663.5066 334.04462l13.4487915 7.763794l-13.4487915 7.7637634z" fill-rule="evenodd"/><path fill="#000000" d="m663.5066 529.2441l13.4487915 7.763794l-13.4487915 7.763794z" fill-rule="evenodd"/></g></svg>