<svg version="1.1" viewBox="0.0 0.0 1152.0 576.0" fill="none" stroke="none" stroke-linecap="square" stroke-miterlimit="10" xmlns:xlink="http://www.w3.org/1999/xlink" xmlns="http://www.w3.org/2000/svg"><clipPath id="p.0"><path d="m0 0l1152.0 0l0 576.0l-1152.0 0l0 -576.0z" clip-rule="nonzero"/></clipPath><g clip-path="url(#p.0)"><path fill="#ffffff" d="m0 0l1152.0 0l0 576.0l-1152.0 0z" fill-rule="evenodd"/><path fill="#000000" fill-opacity="0.0" d="m264.97113 400.33334l467.937 0l0 97.5748l-467.937 0z" fill-rule="evenodd"/><path stroke="#000000" stroke-width="1.0" stroke-linejoin="round" stroke-linecap="butt" d="m264.97113 400.33334l467.937 0l0 97.5748l-467.937 0z" fill-rule="evenodd"/><path fill="#d9ead3" d="m320.4147 117.62205l51.968506 0l0 32.472435l-51.968506 0z" fill-rule="evenodd"/><path fill="#000000" d="m337.64062 137.59827l0 -7.578125l-0.078125 0l-2.875 1.109375l0 0.875l1.984375 -0.75l0 6.34375l0.96875 0zm4.9416504 -0.625q0 0.296875 0.1875 0.515625q0.1875 0.203125 0.5625 0.203125q0.375 0 0.5625 -0.203125q0.203125 -0.203125 0.203125 -0.515625q0 -0.3125 -0.203125 -0.53125q-0.1875 -0.21875 -0.5625 -0.21875q-0.375 0 -0.5625 0.21875q-0.1875 0.21875 -0.1875 0.53125zm7.004181 -6.375l-0.96875 0l0 1.375l-1.484375 0l0 0.734375l1.484375 0l0 3.0625q0 0.515625 0.140625 0.890625q0.140625 0.359375 0.375 0.59375q0.234375 0.234375 0.5625 0.34375q0.328125 0.109375 0.703125 0.109375q0.21875 0 0.4375 -0.03125q0.234375 -0.015625 0.4375 -0.0625q0.203125 -0.03125 0.375 -0.078125q0.171875 -0.0625 0.296875 -0.140625l-0.140625 -0.671875q-0.09375 0.015625 -0.234375 0.046875q-0.125 0.03125 -0.28125 0.046875q-0.171875 0.03125 -0.34375 0.046875q-0.15625 0.015625 -0.3125 0.015625q-0.21875 0 -0.40625 -0.046875q-0.1875 -0.046875 -0.328125 -0.1875q-0.15625 -0.125 -0.234375 -0.328125q-0.078125 -0.21875 -0.078125 -0.546875l0 -3.0625l2.140625 0l0 -0.734375l-2.140625 0l0 -1.375zm7.8479004 5.5q0 0.140625 -0.046875 0.265625q-0.046875 0.109375 -0.15625 0.21875q-0.15625 0.15625 -0.453125 0.25q-0.28125 0.09375 -0.65625 0.09375q-0.25 0 -0.5 -0.046875q-0.25 -0.0625 -0.453125 -0.1875q-0.203125 -0.125 -0.34375 -0.328125q-0.140625 -0.203125 -0.15625 -0.5l-0.96875 0q0 0.359375 0.15625 0.703125q0.171875 0.328125 0.484375 0.578125q0.3125 0.25 0.75 0.40625q0.453125 0.15625 1.03125 0.15625q0.5 0 0.921875 -0.125q0.421875 -0.125 0.71875 -0.34375q0.296875 -0.21875 0.46875 -0.515625q0.171875 -0.3125 0.171875 -0.6875q0 -0.34375 -0.15625 -0.609375q-0.140625 -0.265625 -0.421875 -0.46875q-0.28125 -0.203125 -0.703125 -0.34375q-0.40625 -0.140625 -0.921875 -0.25q-0.390625 -0.078125 -0.65625 -0.15625q-0.25 -0.09375 -0.40625 -0.1875q-0.15625 -0.109375 -0.21875 -0.234375q-0.0625 -0.140625 -0.0625 -0.296875q0 -0.171875 0.078125 -0.3125q0.078125 -0.15625 0.234375 -0.265625q0.15625 -0.125 0.375 -0.1875q0.234375 -0.0625 0.546875 -0.0625q0.296875 0 0.53125 0.078125q0.234375 0.078125 0.40625 0.21875q0.171875 0.140625 0.265625 0.3125q0.09375 0.171875 0.09375 0.359375l0.953125 0q0 -0.375 -0.15625 -0.6875q-0.15625 -0.328125 -0.453125 -0.5625q-0.28125 -0.25 -0.703125 -0.375q-0.421875 -0.140625 -0.9375 -0.140625q-0.484375 0 -0.890625 0.140625q-0.390625 0.125 -0.6875 0.34375q-0.296875 0.21875 -0.453125 0.53125q-0.15625 0.296875 -0.15625 0.640625q0 0.34375 0.15625 0.609375q0.15625 0.265625 0.4375 0.453125q0.28125 0.203125 0.671875 0.34375q0.40625 0.125 0.890625 0.234375q0.390625 0.078125 0.65625 0.171875q0.265625 0.09375 0.421875 0.203125q0.171875 0.125 0.234375 0.265625q0.0625 0.125 0.0625 0.296875z" fill-rule="nonzero"/><path fill="#d9ead3" d="m379.6483 117.62205l51.968506 0l0 32.472435l-51.968506 0z" fill-rule="evenodd"/><path fill="#000000" d="m398.38983 137.59827l0 -0.78125l-3.796875 0l2.03125 -2.203125q0.28125 -0.3125 0.53125 -0.625q0.265625 -0.328125 0.46875 -0.640625q0.1875 -0.328125 0.296875 -0.65625q0.125 -0.328125 0.125 -0.671875q0 -0.453125 -0.15625 -0.828125q-0.15625 -0.390625 -0.453125 -0.671875q-0.296875 -0.28125 -0.734375 -0.4375q-0.421875 -0.171875 -0.96875 -0.171875q-0.578125 0 -1.03125 0.1875q-0.453125 0.1875 -0.765625 0.515625q-0.3125 0.3125 -0.484375 0.734375q-0.171875 0.421875 -0.171875 0.90625l0.96875 0q0 -0.359375 0.09375 -0.640625q0.09375 -0.28125 0.28125 -0.484375q0.1875 -0.203125 0.453125 -0.3125q0.28125 -0.109375 0.65625 -0.109375q0.3125 0 0.5625 0.109375q0.25 0.109375 0.421875 0.28125q0.171875 0.1875 0.265625 0.4375q0.09375 0.25 0.09375 0.53125q0 0.21875 -0.0625 0.4375q-0.046875 0.21875 -0.1875 0.453125q-0.140625 0.25 -0.359375 0.546875q-0.21875 0.28125 -0.5625 0.640625l-2.46875 2.765625l0 0.6875l4.953125 0zm3.426056 -0.625q0 0.296875 0.1875 0.515625q0.1875 0.203125 0.5625 0.203125q0.375 0 0.5625 -0.203125q0.203125 -0.203125 0.203125 -0.515625q0 -0.3125 -0.203125 -0.53125q-0.1875 -0.21875 -0.5625 -0.21875q-0.375 0 -0.5625 0.21875q-0.1875 0.21875 -0.1875 0.53125zm7.0041504 -6.375l-0.96875 0l0 1.375l-1.484375 0l0 0.734375l1.484375 0l0 3.0625q0 0.515625 0.140625 0.890625q0.140625 0.359375 0.375 0.59375q0.234375 0.234375 0.5625 0.34375q0.328125 0.109375 0.703125 0.109375q0.21875 0 0.4375 -0.03125q0.234375 -0.015625 0.4375 -0.0625q0.203125 -0.03125 0.375 -0.078125q0.171875 -0.0625 0.296875 -0.140625l-0.140625 -0.671875q-0.09375 0.015625 -0.234375 0.046875q-0.125 0.03125 -0.28125 0.046875q-0.171875 0.03125 -0.34375 0.046875q-0.15625 0.015625 -0.3125 0.015625q-0.21875 0 -0.40625 -0.046875q-0.1875 -0.046875 -0.328125 -0.1875q-0.15625 -0.125 -0.234375 -0.328125q-0.078125 -0.21875 -0.078125 -0.546875l0 -3.0625l2.140625 0l0 -0.734375l-2.140625 0l0 -1.375zm7.847931 5.5q0 0.140625 -0.046875 0.265625q-0.046875 0.109375 -0.15625 0.21875q-0.15625 0.15625 -0.453125 0.25q-0.28125 0.09375 -0.65625 0.09375q-0.25 0 -0.5 -0.046875q-0.25 -0.0625 -0.453125 -0.1875q-0.203125 -0.125 -0.34375 -0.328125q-0.140625 -0.203125 -0.15625 -0.5l-0.96875 0q0 0.359375 0.15625 0.703125q0.171875 0.328125 0.484375 0.578125q0.3125 0.25 0.75 0.40625q0.453125 0.15625 1.03125 0.15625q0.5 0 0.921875 -0.125q0.421875 -0.125 0.71875 -0.34375q0.296875 -0.21875 0.46875 -0.515625q0.171875 -0.3125 0.171875 -0.6875q0 -0.34375 -0.15625 -0.609375q-0.140625 -0.265625 -0.421875 -0.46875q-0.28125 -0.203125 -0.703125 -0.34375q-0.40625 -0.140625 -0.921875 -0.25q-0.390625 -0.078125 -0.65625 -0.15625q-0.25 -0.09375 -0.40625 -0.1875q-0.15625 -0.109375 -0.21875 -0.234375q-0.0625 -0.140625 -0.0625 -0.296875q0 -0.171875 0.078125 -0.3125q0.078125 -0.15625 0.234375 -0.265625q0.15625 -0.125 0.375 -0.1875q0.234375 -0.0625 0.546875 -0.0625q0.296875 0 0.53125 0.078125q0.234375 0.078125 0.40625 0.21875q0.171875 0.140625 0.265625 0.3125q0.09375 0.171875 0.09375 0.359375l0.953125 0q0 -0.375 -0.15625 -0.6875q-0.15625 -0.328125 -0.453125 -0.5625q-0.28125 -0.25 -0.703125 -0.375q-0.421875 -0.140625 -0.9375 -0.140625q-0.484375 0 -0.890625 0.140625q-0.390625 0.125 -0.6875 0.34375q-0.296875 0.21875 -0.453125 0.53125q-0.15625 0.296875 -0.15625 0.640625q0 0.34375 0.15625 0.609375q0.15625 0.265625 0.4375 0.453125q0.28125 0.203125 0.671875 0.34375q0.40625 0.125 0.890625 0.234375q0.390625 0.078125 0.65625 0.171875q0.265625 0.09375 0.421875 0.203125q0.171875 0.125 0.234375 0.265625q0.0625 0.125 0.0625 0.296875z" fill-rule="nonzero"/><path fill="#d9ead3" d="m438.8819 117.62205l51.968506 0l0 32.472435l-51.968506 0z" fill-rule="evenodd"/><path fill="#000000" d="m454.10782 133.34827l0 0.78125l0.6875 0q0.359375 0 0.65625 0.09375q0.296875 0.078125 0.515625 0.25q0.203125 0.171875 0.3125 0.421875q0.125 0.25 0.125 0.609375q0 0.359375 -0.109375 0.625q-0.09375 0.265625 -0.28125 0.4375q-0.1875 0.171875 -0.453125 0.265625q-0.265625 0.078125 -0.59375 0.078125q-0.328125 0 -0.59375 -0.09375q-0.265625 -0.09375 -0.453125 -0.265625q-0.1875 -0.171875 -0.296875 -0.40625q-0.09375 -0.25 -0.09375 -0.546875l-0.96875 0q0 0.5 0.1875 0.890625q0.203125 0.390625 0.515625 0.65625q0.328125 0.28125 0.765625 0.421875q0.4375 0.140625 0.9375 0.140625q0.515625 0 0.953125 -0.140625q0.4375 -0.15625 0.765625 -0.453125q0.3125 -0.28125 0.5 -0.6875q0.1875 -0.40625 0.1875 -0.9375q0 -0.265625 -0.0625 -0.53125q-0.0625 -0.265625 -0.203125 -0.5q-0.15625 -0.234375 -0.40625 -0.421875q-0.25 -0.203125 -0.609375 -0.328125q0.296875 -0.125 0.515625 -0.3125q0.234375 -0.203125 0.375 -0.421875q0.140625 -0.21875 0.203125 -0.453125q0.0625 -0.234375 0.0625 -0.453125q0 -0.53125 -0.171875 -0.921875q-0.15625 -0.40625 -0.453125 -0.6875q-0.3125 -0.265625 -0.734375 -0.40625q-0.421875 -0.140625 -0.921875 -0.140625q-0.53125 0 -0.96875 0.171875q-0.421875 0.15625 -0.71875 0.4375q-0.3125 0.296875 -0.484375 0.6875q-0.171875 0.375 -0.171875 0.796875l0.96875 0q0 -0.296875 0.09375 -0.53125q0.109375 -0.234375 0.296875 -0.40625q0.171875 -0.171875 0.421875 -0.265625q0.25 -0.09375 0.5625 -0.09375q0.3125 0 0.5625 0.078125q0.25 0.078125 0.40625 0.25q0.171875 0.15625 0.265625 0.421875q0.09375 0.25 0.09375 0.578125q0 0.296875 -0.109375 0.53125q-0.09375 0.234375 -0.28125 0.40625q-0.1875 0.171875 -0.46875 0.28125q-0.28125 0.09375 -0.640625 0.09375l-0.6875 0zm6.9416504 3.625q0 0.296875 0.1875 0.515625q0.1875 0.203125 0.5625 0.203125q0.375 0 0.5625 -0.203125q0.203125 -0.203125 0.203125 -0.515625q0 -0.3125 -0.203125 -0.53125q-0.1875 -0.21875 -0.5625 -0.21875q-0.375 0 -0.5625 0.21875q-0.1875 0.21875 -0.1875 0.53125zm7.004181 -6.375l-0.96875 0l0 1.375l-1.484375 0l0 0.734375l1.484375 0l0 3.0625q0 0.515625 0.140625 0.890625q0.140625 0.359375 0.375 0.59375q0.234375 0.234375 0.5625 0.34375q0.328125 0.109375 0.703125 0.109375q0.21875 0 0.4375 -0.03125q0.234375 -0.015625 0.4375 -0.0625q0.203125 -0.03125 0.375 -0.078125q0.171875 -0.0625 0.296875 -0.140625l-0.140625 -0.671875q-0.09375 0.015625 -0.234375 0.046875q-0.125 0.03125 -0.28125 0.046875q-0.171875 0.03125 -0.34375 0.046875q-0.15625 0.015625 -0.3125 0.015625q-0.21875 0 -0.40625 -0.046875q-0.1875 -0.046875 -0.328125 -0.1875q-0.15625 -0.125 -0.234375 -0.328125q-0.078125 -0.21875 -0.078125 -0.546875l0 -3.0625l2.140625 0l0 -0.734375l-2.140625 0l0 -1.375zm7.8479004 5.5q0 0.140625 -0.046875 0.265625q-0.046875 0.109375 -0.15625 0.21875q-0.15625 0.15625 -0.453125 0.25q-0.28125 0.09375 -0.65625 0.09375q-0.25 0 -0.5 -0.046875q-0.25 -0.0625 -0.453125 -0.1875q-0.203125 -0.125 -0.34375 -0.328125q-0.140625 -0.203125 -0.15625 -0.5l-0.96875 0q0 0.359375 0.15625 0.703125q0.171875 0.328125 0.484375 0.578125q0.3125 0.25 0.75 0.40625q0.453125 0.15625 1.03125 0.15625q0.5 0 0.921875 -0.125q0.421875 -0.125 0.71875 -0.34375q0.296875 -0.21875 0.46875 -0.515625q0.171875 -0.3125 0.171875 -0.6875q0 -0.34375 -0.15625 -0.609375q-0.140625 -0.265625 -0.421875 -0.46875q-0.28125 -0.203125 -0.703125 -0.34375q-0.40625 -0.140625 -0.921875 -0.25q-0.390625 -0.078125 -0.65625 -0.15625q-0.25 -0.09375 -0.40625 -0.1875q-0.15625 -0.109375 -0.21875 -0.234375q-0.0625 -0.140625 -0.0625 -0.296875q0 -0.171875 0.078125 -0.3125q0.078125 -0.15625 0.234375 -0.265625q0.15625 -0.125 0.375 -0.1875q0.234375 -0.0625 0.546875 -0.0625q0.296875 0 0.53125 0.078125q0.234375 0.078125 0.40625 0.21875q0.171875 0.140625 0.265625 0.3125q0.09375 0.171875 0.09375 0.359375l0.953125 0q0 -0.375 -0.15625 -0.6875q-0.15625 -0.328125 -0.453125 -0.5625q-0.28125 -0.25 -0.703125 -0.375q-0.421875 -0.140625 -0.9375 -0.140625q-0.484375 0 -0.890625 0.140625q-0.390625 0.125 -0.6875 0.34375q-0.296875 0.21875 -0.453125 0.53125q-0.15625 0.296875 -0.15625 0.640625q0 0.34375 0.15625 0.609375q0.15625 0.265625 0.4375 0.453125q0.28125 0.203125 0.671875 0.34375q0.40625 0.125 0.890625 0.234375q0.390625 0.078125 0.65625 0.171875q0.265625 0.09375 0.421875 0.203125q0.171875 0.125 0.234375 0.265625q0.0625 0.125 0.0625 0.296875z" fill-rule="nonzero"/><path fill="#d9ead3" d="m498.11548 117.62205l51.968506 0l0 32.472435l-51.968506 0z" fill-rule="evenodd"/><path fill="#000000" d="m516.1227 135.05139l0 -5.03125l-1.03125 0l-3.3906555 5.25l0 0.5625l3.4531555 0l0 1.765625l0.96875 0l0 -1.765625l1.046875 0l0 -0.78125l-1.046875 0zm-3.359375 0l2.234375 -3.453125l0.15625 -0.296875l0 3.75l-2.390625 0zm7.5197754 1.921875q0 0.296875 0.1875 0.515625q0.1875 0.203125 0.5625 0.203125q0.375 0 0.5625 -0.203125q0.203125 -0.203125 0.203125 -0.515625q0 -0.3125 -0.203125 -0.53125q-0.1875 -0.21875 -0.5625 -0.21875q-0.375 0 -0.5625 0.21875q-0.1875 0.21875 -0.1875 0.53125zm7.0041504 -6.375l-0.96875 0l0 1.375l-1.484375 0l0 0.734375l1.484375 0l0 3.0625q0 0.515625 0.140625 0.890625q0.140625 0.359375 0.375 0.59375q0.234375 0.234375 0.5625 0.34375q0.328125 0.109375 0.703125 0.109375q0.21875 0 0.4375 -0.03125q0.234375 -0.015625 0.4375 -0.0625q0.203125 -0.03125 0.375 -0.078125q0.171875 -0.0625 0.296875 -0.140625l-0.140625 -0.671875q-0.09375 0.015625 -0.234375 0.046875q-0.125 0.03125 -0.28125 0.046875q-0.171875 0.03125 -0.34375 0.046875q-0.15625 0.015625 -0.3125 0.015625q-0.21875 0 -0.40625 -0.046875q-0.1875 -0.046875 -0.328125 -0.1875q-0.15625 -0.125 -0.234375 -0.328125q-0.078125 -0.21875 -0.078125 -0.546875l0 -3.0625l2.140625 0l0 -0.734375l-2.140625 0l0 -1.375zm7.8479004 5.5q0 0.140625 -0.046875 0.265625q-0.046875 0.109375 -0.15625 0.21875q-0.15625 0.15625 -0.453125 0.25q-0.28125 0.09375 -0.65625 0.09375q-0.25 0 -0.5 -0.046875q-0.25 -0.0625 -0.453125 -0.1875q-0.203125 -0.125 -0.34375 -0.328125q-0.140625 -0.203125 -0.15625 -0.5l-0.96875 0q0 0.359375 0.15625 0.703125q0.171875 0.328125 0.484375 0.578125q0.3125 0.25 0.75 0.40625q0.453125 0.15625 1.03125 0.15625q0.5 0 0.921875 -0.125q0.421875 -0.125 0.71875 -0.34375q0.296875 -0.21875 0.46875 -0.515625q0.171875 -0.3125 0.171875 -0.6875q0 -0.34375 -0.15625 -0.609375q-0.140625 -0.265625 -0.421875 -0.46875q-0.28125 -0.203125 -0.703125 -0.34375q-0.40625 -0.140625 -0.921875 -0.25q-0.390625 -0.078125 -0.65625 -0.15625q-0.25 -0.09375 -0.40625 -0.1875q-0.15625 -0.109375 -0.21875 -0.234375q-0.0625 -0.140625 -0.0625 -0.296875q0 -0.171875 0.078125 -0.3125q0.078125 -0.15625 0.234375 -0.265625q0.15625 -0.125 0.375 -0.1875q0.234375 -0.0625 0.546875 -0.0625q0.296875 0 0.53125 0.078125q0.234375 0.078125 0.40625 0.21875q0.171875 0.140625 0.265625 0.3125q0.09375 0.171875 0.09375 0.359375l0.953125 0q0 -0.375 -0.15625 -0.6875q-0.15625 -0.328125 -0.453125 -0.5625q-0.28125 -0.25 -0.703125 -0.375q-0.421875 -0.140625 -0.9375 -0.140625q-0.484375 0 -0.890625 0.140625q-0.390625 0.125 -0.6875 0.34375q-0.296875 0.21875 -0.453125 0.53125q-0.15625 0.296875 -0.15625 0.640625q0 0.34375 0.15625 0.609375q0.15625 0.265625 0.4375 0.453125q0.28125 0.203125 0.671875 0.34375q0.40625 0.125 0.890625 0.234375q0.390625 0.078125 0.65625 0.171875q0.265625 0.09375 0.421875 0.203125q0.171875 0.125 0.234375 0.265625q0.0625 0.125 0.0625 0.296875z" fill-rule="nonzero"/><path fill="#d9ead3" d="m557.34906 117.62205l51.968506 0l0 32.472435l-51.968506 0z" fill-rule="evenodd"/><path fill="#000000" d="m571.79376 133.80139l0.765625 0.203125q0.140625 -0.125 0.25 -0.203125q0.125 -0.09375 0.265625 -0.15625q0.140625 -0.0625 0.3125 -0.09375q0.171875 -0.03125 0.421875 -0.03125q0.359375 0 0.640625 0.125q0.28125 0.125 0.46875 0.359375q0.203125 0.21875 0.296875 0.53125q0.109375 0.3125 0.109375 0.65625q0 0.390625 -0.09375 0.71875q-0.09375 0.3125 -0.265625 0.53125q-0.1875 0.234375 -0.453125 0.359375q-0.265625 0.109375 -0.609375 0.109375q-0.609375 0 -1.0 -0.328125q-0.375 -0.328125 -0.46875 -0.984375l-0.921875 0q0.0625 0.53125 0.265625 0.9375q0.203125 0.390625 0.53125 0.640625q0.3125 0.265625 0.71875 0.40625q0.40625 0.125 0.875 0.125q0.609375 0 1.046875 -0.1875q0.453125 -0.203125 0.75 -0.53125q0.296875 -0.34375 0.4375 -0.796875q0.140625 -0.46875 0.140625 -1.015625q0 -0.5625 -0.15625 -1.03125q-0.15625 -0.46875 -0.4375 -0.796875q-0.296875 -0.328125 -0.71875 -0.515625q-0.40625 -0.1875 -0.9375 -0.1875q-0.40625 0 -0.71875 0.109375q-0.3125 0.09375 -0.53125 0.21875l0.203125 -2.015625l3.078125 0l0 -0.9375l-3.890625 0l-0.375 3.78125zm7.7229004 3.171875q0 0.296875 0.1875 0.515625q0.1875 0.203125 0.5625 0.203125q0.375 0 0.5625 -0.203125q0.203125 -0.203125 0.203125 -0.515625q0 -0.3125 -0.203125 -0.53125q-0.1875 -0.21875 -0.5625 -0.21875q-0.375 0 -0.5625 0.21875q-0.1875 0.21875 -0.1875 0.53125zm7.0041504 -6.375l-0.96875 0l0 1.375l-1.484375 0l0 0.734375l1.484375 0l0 3.0625q0 0.515625 0.140625 0.890625q0.140625 0.359375 0.375 0.59375q0.234375 0.234375 0.5625 0.34375q0.328125 0.109375 0.703125 0.109375q0.21875 0 0.4375 -0.03125q0.234375 -0.015625 0.4375 -0.0625q0.203125 -0.03125 0.375 -0.078125q0.171875 -0.0625 0.296875 -0.140625l-0.140625 -0.671875q-0.09375 0.015625 -0.234375 0.046875q-0.125 0.03125 -0.28125 0.046875q-0.171875 0.03125 -0.34375 0.046875q-0.15625 0.015625 -0.3125 0.015625q-0.21875 0 -0.40625 -0.046875q-0.1875 -0.046875 -0.328125 -0.1875q-0.15625 -0.125 -0.234375 -0.328125q-0.078125 -0.21875 -0.078125 -0.546875l0 -3.0625l2.140625 0l0 -0.734375l-2.140625 0l0 -1.375zm7.8479614 5.5q0 0.140625 -0.046875 0.265625q-0.046875 0.109375 -0.15625 0.21875q-0.15625 0.15625 -0.453125 0.25q-0.28125 0.09375 -0.65625 0.09375q-0.25 0 -0.5 -0.046875q-0.25 -0.0625 -0.453125 -0.1875q-0.203125 -0.125 -0.34375 -0.328125q-0.140625 -0.203125 -0.15625 -0.5l-0.96875 0q0 0.359375 0.15625 0.703125q0.171875 0.328125 0.484375 0.578125q0.3125 0.25 0.75 0.40625q0.453125 0.15625 1.03125 0.15625q0.5 0 0.921875 -0.125q0.421875 -0.125 0.71875 -0.34375q0.296875 -0.21875 0.46875 -0.515625q0.171875 -0.3125 0.171875 -0.6875q0 -0.34375 -0.15625 -0.609375q-0.140625 -0.265625 -0.421875 -0.46875q-0.28125 -0.203125 -0.703125 -0.34375q-0.40625 -0.140625 -0.921875 -0.25q-0.390625 -0.078125 -0.65625 -0.15625q-0.25 -0.09375 -0.40625 -0.1875q-0.15625 -0.109375 -0.21875 -0.234375q-0.0625 -0.140625 -0.0625 -0.296875q0 -0.171875 0.078125 -0.3125q0.078125 -0.15625 0.234375 -0.265625q0.15625 -0.125 0.375 -0.1875q0.234375 -0.0625 0.546875 -0.0625q0.296875 0 0.53125 0.078125q0.234375 0.078125 0.40625 0.21875q0.171875 0.140625 0.265625 0.3125q0.09375 0.171875 0.09375 0.359375l0.953125 0q0 -0.375 -0.15625 -0.6875q-0.15625 -0.328125 -0.453125 -0.5625q-0.28125 -0.25 -0.703125 -0.375q-0.421875 -0.140625 -0.9375 -0.140625q-0.484375 0 -0.890625 0.140625q-0.390625 0.125 -0.6875 0.34375q-0.296875 0.21875 -0.453125 0.53125q-0.15625 0.296875 -0.15625 0.640625q0 0.34375 0.15625 0.609375q0.15625 0.265625 0.4375 0.453125q0.28125 0.203125 0.671875 0.34375q0.40625 0.125 0.890625 0.234375q0.390625 0.078125 0.65625 0.171875q0.265625 0.09375 0.421875 0.203125q0.171875 0.125 0.234375 0.265625q0.0625 0.125 0.0625 0.296875z" fill-rule="nonzero"/><path fill="#d9ead3" d="m616.5827 117.62205l51.968506 0l0 32.472435l-51.968506 0z" fill-rule="evenodd"/><path fill="#000000" d="m634.23047 130.02014l-0.078125 0q-0.8125 0 -1.453125 0.234375q-0.640625 0.21875 -1.09375 0.65625q-0.640625 0.65625 -0.875 1.578125q-0.21875 0.90625 -0.21875 1.859375l0 0.453125q0 0.546875 0.15625 1.09375q0.171875 0.546875 0.515625 0.96875q0.296875 0.375 0.734375 0.609375q0.453125 0.234375 1.03125 0.234375q0.578125 0 1.015625 -0.203125q0.4375 -0.203125 0.734375 -0.5625q0.296875 -0.34375 0.4375 -0.8125q0.15625 -0.46875 0.15625 -1.0q0 -0.46875 -0.125 -0.90625q-0.125 -0.453125 -0.390625 -0.8125q-0.265625 -0.34375 -0.671875 -0.5625q-0.40625 -0.21875 -0.984375 -0.21875q-0.25 0 -0.484375 0.0625q-0.234375 0.0625 -0.4375 0.15625q-0.21875 0.109375 -0.390625 0.25q-0.171875 0.125 -0.3125 0.296875q0.03125 -0.5 0.203125 -0.96875q0.171875 -0.484375 0.5 -0.828125q0.296875 -0.328125 0.78125 -0.515625q0.484375 -0.203125 1.171875 -0.203125l0.078125 0l0 -0.859375zm-1.265625 3.40625q0.359375 0 0.609375 0.15625q0.265625 0.140625 0.4375 0.390625q0.171875 0.234375 0.25 0.5625q0.09375 0.3125 0.09375 0.640625q0 0.375 -0.09375 0.703125q-0.09375 0.3125 -0.265625 0.53125q-0.1875 0.234375 -0.453125 0.375q-0.25 0.125 -0.59375 0.125q-0.296875 0 -0.5625 -0.140625q-0.25 -0.140625 -0.453125 -0.40625q-0.203125 -0.265625 -0.328125 -0.65625q-0.125 -0.390625 -0.125 -0.875l0 -0.328125q0.09375 -0.234375 0.234375 -0.4375q0.15625 -0.203125 0.359375 -0.34375q0.203125 -0.140625 0.421875 -0.21875q0.234375 -0.078125 0.46875 -0.078125zm5.7854004 3.546875q0 0.296875 0.1875 0.515625q0.1875 0.203125 0.5625 0.203125q0.375 0 0.5625 -0.203125q0.203125 -0.203125 0.203125 -0.515625q0 -0.3125 -0.203125 -0.53125q-0.1875 -0.21875 -0.5625 -0.21875q-0.375 0 -0.5625 0.21875q-0.1875 0.21875 -0.1875 0.53125zm7.0042114 -6.375l-0.96875 0l0 1.375l-1.484375 0l0 0.734375l1.484375 0l0 3.0625q0 0.515625 0.140625 0.890625q0.140625 0.359375 0.375 0.59375q0.234375 0.234375 0.5625 0.34375q0.328125 0.109375 0.703125 0.109375q0.21875 0 0.4375 -0.03125q0.234375 -0.015625 0.4375 -0.0625q0.203125 -0.03125 0.375 -0.078125q0.171875 -0.0625 0.296875 -0.140625l-0.140625 -0.671875q-0.09375 0.015625 -0.234375 0.046875q-0.125 0.03125 -0.28125 0.046875q-0.171875 0.03125 -0.34375 0.046875q-0.15625 0.015625 -0.3125 0.015625q-0.21875 0 -0.40625 -0.046875q-0.1875 -0.046875 -0.328125 -0.1875q-0.15625 -0.125 -0.234375 -0.328125q-0.078125 -0.21875 -0.078125 -0.546875l0 -3.0625l2.140625 0l0 -0.734375l-2.140625 0l0 -1.375zm7.8479004 5.5q0 0.140625 -0.046875 0.265625q-0.046875 0.109375 -0.15625 0.21875q-0.15625 0.15625 -0.453125 0.25q-0.28125 0.09375 -0.65625 0.09375q-0.25 0 -0.5 -0.046875q-0.25 -0.0625 -0.453125 -0.1875q-0.203125 -0.125 -0.34375 -0.328125q-0.140625 -0.203125 -0.15625 -0.5l-0.96875 0q0 0.359375 0.15625 0.703125q0.171875 0.328125 0.484375 0.578125q0.3125 0.25 0.75 0.40625q0.453125 0.15625 1.03125 0.15625q0.5 0 0.921875 -0.125q0.421875 -0.125 0.71875 -0.34375q0.296875 -0.21875 0.46875 -0.515625q0.171875 -0.3125 0.171875 -0.6875q0 -0.34375 -0.15625 -0.609375q-0.140625 -0.265625 -0.421875 -0.46875q-0.28125 -0.203125 -0.703125 -0.34375q-0.40625 -0.140625 -0.921875 -0.25q-0.390625 -0.078125 -0.65625 -0.15625q-0.25 -0.09375 -0.40625 -0.1875q-0.15625 -0.109375 -0.21875 -0.234375q-0.0625 -0.140625 -0.0625 -0.296875q0 -0.171875 0.078125 -0.3125q0.078125 -0.15625 0.234375 -0.265625q0.15625 -0.125 0.375 -0.1875q0.234375 -0.0625 0.546875 -0.0625q0.296875 0 0.53125 0.078125q0.234375 0.078125 0.40625 0.21875q0.171875 0.140625 0.265625 0.3125q0.09375 0.171875 0.09375 0.359375l0.953125 0q0 -0.375 -0.15625 -0.6875q-0.15625 -0.328125 -0.453125 -0.5625q-0.28125 -0.25 -0.703125 -0.375q-0.421875 -0.140625 -0.9375 -0.140625q-0.484375 0 -0.890625 0.140625q-0.390625 0.125 -0.6875 0.34375q-0.296875 0.21875 -0.453125 0.53125q-0.15625 0.296875 -0.15625 0.640625q0 0.34375 0.15625 0.609375q0.15625 0.265625 0.4375 0.453125q0.28125 0.203125 0.671875 0.34375q0.40625 0.125 0.890625 0.234375q0.390625 0.078125 0.65625 0.171875q0.265625 0.09375 0.421875 0.203125q0.171875 0.125 0.234375 0.265625q0.0625 0.125 0.0625 0.296875z" fill-rule="nonzero"/><path fill="#d9ead3" d="m675.8163 117.62205l51.968506 0l0 32.472435l-51.968506 0z" fill-rule="evenodd"/><path fill="#000000" d="m694.71405 130.56702l0 -0.546875l-5.125 0l0 0.84375l4.109375 0l-3.125 6.734375l1.0 0l3.140625 -7.03125zm3.2698364 6.40625q0 0.296875 0.1875 0.515625q0.1875 0.203125 0.5625 0.203125q0.375 0 0.5625 -0.203125q0.203125 -0.203125 0.203125 -0.515625q0 -0.3125 -0.203125 -0.53125q-0.1875 -0.21875 -0.5625 -0.21875q-0.375 0 -0.5625 0.21875q-0.1875 0.21875 -0.1875 0.53125zm7.0041504 -6.375l-0.96875 0l0 1.375l-1.484375 0l0 0.734375l1.484375 0l0 3.0625q0 0.515625 0.140625 0.890625q0.140625 0.359375 0.375 0.59375q0.234375 0.234375 0.5625 0.34375q0.328125 0.109375 0.703125 0.109375q0.21875 0 0.4375 -0.03125q0.234375 -0.015625 0.4375 -0.0625q0.203125 -0.03125 0.375 -0.078125q0.171875 -0.0625 0.296875 -0.140625l-0.140625 -0.671875q-0.09375 0.015625 -0.234375 0.046875q-0.125 0.03125 -0.28125 0.046875q-0.171875 0.03125 -0.34375 0.046875q-0.15625 0.015625 -0.3125 0.015625q-0.21875 0 -0.40625 -0.046875q-0.1875 -0.046875 -0.328125 -0.1875q-0.15625 -0.125 -0.234375 -0.328125q-0.078125 -0.21875 -0.078125 -0.546875l0 -3.0625l2.140625 0l0 -0.734375l-2.140625 0l0 -1.375zm7.8479004 5.5q0 0.140625 -0.046875 0.265625q-0.046875 0.109375 -0.15625 0.21875q-0.15625 0.15625 -0.453125 0.25q-0.28125 0.09375 -0.65625 0.09375q-0.25 0 -0.5 -0.046875q-0.25 -0.0625 -0.453125 -0.1875q-0.203125 -0.125 -0.34375 -0.328125q-0.140625 -0.203125 -0.15625 -0.5l-0.96875 0q0 0.359375 0.15625 0.703125q0.171875 0.328125 0.484375 0.578125q0.3125 0.25 0.75 0.40625q0.453125 0.15625 1.03125 0.15625q0.5 0 0.921875 -0.125q0.421875 -0.125 0.71875 -0.34375q0.296875 -0.21875 0.46875 -0.515625q0.171875 -0.3125 0.171875 -0.6875q0 -0.34375 -0.15625 -0.609375q-0.140625 -0.265625 -0.421875 -0.46875q-0.28125 -0.203125 -0.703125 -0.34375q-0.40625 -0.140625 -0.921875 -0.25q-0.390625 -0.078125 -0.65625 -0.15625q-0.25 -0.09375 -0.40625 -0.1875q-0.15625 -0.109375 -0.21875 -0.234375q-0.0625 -0.140625 -0.0625 -0.296875q0 -0.171875 0.078125 -0.3125q0.078125 -0.15625 0.234375 -0.265625q0.15625 -0.125 0.375 -0.1875q0.234375 -0.0625 0.546875 -0.0625q0.296875 0 0.53125 0.078125q0.234375 0.078125 0.40625 0.21875q0.171875 0.140625 0.265625 0.3125q0.09375 0.171875 0.09375 0.359375l0.953125 0q0 -0.375 -0.15625 -0.6875q-0.15625 -0.328125 -0.453125 -0.5625q-0.28125 -0.25 -0.703125 -0.375q-0.421875 -0.140625 -0.9375 -0.140625q-0.484375 0 -0.890625 0.140625q-0.390625 0.125 -0.6875 0.34375q-0.296875 0.21875 -0.453125 0.53125q-0.15625 0.296875 -0.15625 0.640625q0 0.34375 0.15625 0.609375q0.15625 0.265625 0.4375 0.453125q0.28125 0.203125 0.671875 0.34375q0.40625 0.125 0.890625 0.234375q0.390625 0.078125 0.65625 0.171875q0.265625 0.09375 0.421875 0.203125q0.171875 0.125 0.234375 0.265625q0.0625 0.125 0.0625 0.296875z" fill-rule="nonzero"/><path fill="#000000" fill-opacity="0.0" d="m257.6168 76.03412l510.14175 0l0 159.65355l-510.14175 0z" fill-rule="evenodd"/><path stroke="#000000" stroke-width="1.0" stroke-linejoin="round" stroke-linecap="butt" d="m257.6168 76.03412l510.14175 0l0 159.65355l-510.14175 0z" fill-rule="evenodd"/><path fill="#000000" fill-opacity="0.0" d="m257.6168 38.354332l401.66928 0l0 42.015747l-401.66928 0z" fill-rule="evenodd"/><path fill="#000000" d="m274.03867 54.133705q-0.796875 0 -1.453125 0.3125q-0.640625 0.3125 -1.09375 0.90625q-0.4375 0.578125 -0.671875 1.40625q-0.234375 0.828125 -0.234375 1.890625q0 1.40625 0.390625 2.40625q0.390625 0.984375 1.1875 1.515625q0.796875 0.515625 1.984375 0.515625q0.875 0 1.6875 -0.203125q0.8125 -0.203125 1.640625 -0.515625l0 2.421875q-0.84375 0.359375 -1.71875 0.515625q-0.859375 0.15625 -1.921875 0.15625q-2.125 0 -3.5 -0.84375q-1.375 -0.859375 -2.03125 -2.40625q-0.65625 -1.546875 -0.65625 -3.578125q0 -1.515625 0.40625 -2.765625q0.421875 -1.265625 1.234375 -2.171875q0.828125 -0.921875 2.015625 -1.421875q1.203125 -0.5 2.78125 -0.5q0.984375 0 2.0 0.21875q1.015625 0.203125 1.9375 0.65625l-0.9375 2.265625q-0.671875 -0.3125 -1.4375 -0.546875q-0.75 -0.234375 -1.609375 -0.234375zm17.2117 4.25q0 2.296875 -0.859375 3.828125q-0.859375 1.53125 -2.421875 2.296875q-1.5625 0.765625 -3.71875 0.765625l-4.078125 0l0 -13.328125l4.40625 0q2.109375 0 3.59375 0.75q1.484375 0.734375 2.28125 2.171875q0.796875 1.4375 0.796875 3.515625zm-3.0 0.125q0 -1.4375 -0.421875 -2.375q-0.40625 -0.9375 -1.25 -1.390625q-0.84375 -0.453125 -2.078125 -0.453125l-1.46875 0l0 8.640625l1.203125 0q2.046875 0 3.03125 -1.09375q0.984375 -1.109375 0.984375 -3.328125zm17.484497 6.765625l-3.578125 0l-5.796875 -10.078125l-0.078125 0q0.03125 0.640625 0.0625 1.28125q0.03125 0.625 0.046875 1.265625q0.03125 0.625 0.0625 1.265625l0 6.265625l-2.53125 0l0 -13.328125l3.578125 0l5.78125 9.984375l0.046875 0q-0.015625 -0.609375 -0.03125 -1.21875q-0.015625 -0.625 -0.046875 -1.234375q-0.03125 -0.609375 -0.046875 -1.21875l0 -6.3125l2.53125 0l0 13.328125z" fill-rule="nonzero"/><path fill="#000000" fill-opacity="0.0" d="m257.6168 352.74014l401.66928 0l0 42.015778l-401.66928 0z" fill-rule="evenodd"/><path fill="#000000" d="m276.14804 375.97266q0 1.171875 -0.578125 2.046875q-0.578125 0.875 -1.671875 1.359375q-1.09375 0.46875 -2.65625 0.46875q-0.6875 0 -1.359375 -0.09375q-0.65625 -0.09375 -1.265625 -0.265625q-0.59375 -0.1875 -1.140625 -0.4375l0 -2.640625q0.953125 0.421875 1.96875 0.765625q1.015625 0.34375 2.015625 0.34375q0.703125 0 1.109375 -0.1875q0.421875 -0.1875 0.609375 -0.5q0.203125 -0.328125 0.203125 -0.734375q0 -0.5 -0.34375 -0.859375q-0.34375 -0.359375 -0.921875 -0.65625q-0.578125 -0.3125 -1.328125 -0.671875q-0.453125 -0.21875 -1.0 -0.515625q-0.546875 -0.3125 -1.046875 -0.765625q-0.484375 -0.46875 -0.8125 -1.125q-0.3125 -0.65625 -0.3125 -1.5625q0 -1.1875 0.546875 -2.03125q0.5625 -0.859375 1.578125 -1.296875q1.015625 -0.453125 2.390625 -0.453125q1.046875 0 1.984375 0.25q0.953125 0.234375 1.984375 0.671875l-0.921875 2.203125q-0.90625 -0.375 -1.640625 -0.578125q-0.734375 -0.203125 -1.5 -0.203125q-0.515625 0 -0.890625 0.171875q-0.375 0.15625 -0.578125 0.46875q-0.1875 0.296875 -0.1875 0.703125q0 0.46875 0.28125 0.796875q0.28125 0.328125 0.84375 0.625q0.5625 0.296875 1.390625 0.703125q1.03125 0.484375 1.75 1.015625q0.71875 0.515625 1.109375 1.234375q0.390625 0.703125 0.390625 1.75zm11.498352 -6.5l0 10.1875l-2.171875 0l-0.34375 -1.3125l-0.171875 0q-0.3125 0.53125 -0.8125 0.875q-0.5 0.328125 -1.09375 0.46875q-0.578125 0.15625 -1.234375 0.15625q-1.078125 0 -1.890625 -0.390625q-0.8125 -0.390625 -1.265625 -1.203125q-0.453125 -0.828125 -0.453125 -2.140625l0 -6.640625l2.828125 0l0 5.9375q0 1.078125 0.375 1.625q0.390625 0.546875 1.234375 0.546875q0.859375 0 1.328125 -0.375q0.484375 -0.375 0.65625 -1.125q0.1875 -0.75 0.1875 -1.828125l0 -4.78125l2.828125 0zm5.548462 -0.6875q0 0.578125 -0.03125 1.109375q-0.015625 0.515625 -0.078125 0.90625l0.109375 0q0.421875 -0.640625 1.109375 -1.078125q0.6875 -0.4375 1.796875 -0.4375q1.6875 0 2.75 1.34375q1.0625 1.328125 1.0625 3.921875q0 1.734375 -0.484375 2.921875q-0.484375 1.1875 -1.375 1.78125q-0.875 0.59375 -2.03125 0.59375q-1.125 0 -1.765625 -0.390625q-0.640625 -0.40625 -1.0625 -0.890625l-0.171875 0l-0.46875 1.09375l-2.171875 0l0 -14.171875l2.8125 0l0 3.296875zm1.984375 2.734375q-0.703125 0 -1.140625 0.3125q-0.4375 0.296875 -0.640625 0.90625q-0.203125 0.59375 -0.203125 1.5625l0 0.34375q0 1.4375 0.4375 2.1875q0.453125 0.734375 1.578125 0.734375q0.921875 0 1.390625 -0.78125q0.46875 -0.78125 0.46875 -2.28125q0 -1.46875 -0.46875 -2.21875q-0.453125 -0.765625 -1.421875 -0.765625zm14.212616 5.140625q0 0.96875 -0.453125 1.6875q-0.453125 0.71875 -1.390625 1.109375q-0.9375 0.390625 -2.375 0.390625q-1.078125 0 -1.90625 -0.140625q-0.8125 -0.140625 -1.578125 -0.453125l0 -2.34375q0.828125 0.40625 1.765625 0.625q0.953125 0.21875 1.65625 0.21875q0.859375 0 1.234375 -0.234375q0.375 -0.25 0.375 -0.65625q0 -0.28125 -0.203125 -0.5q-0.1875 -0.234375 -0.6875 -0.46875q-0.484375 -0.25 -1.390625 -0.59375q-0.921875 -0.375 -1.546875 -0.78125q-0.609375 -0.40625 -0.921875 -0.953125q-0.296875 -0.5625 -0.296875 -1.40625q0 -1.40625 1.109375 -2.140625q1.109375 -0.734375 2.9375 -0.734375q0.984375 0 1.828125 0.203125q0.859375 0.203125 1.734375 0.578125l-0.8125 1.921875q-0.71875 -0.3125 -1.46875 -0.515625q-0.734375 -0.203125 -1.3125 -0.203125q-0.640625 0 -1.0 0.203125q-0.34375 0.1875 -0.34375 0.53125q0 0.265625 0.1875 0.46875q0.203125 0.203125 0.6875 0.4375q0.5 0.21875 1.390625 0.578125q0.921875 0.34375 1.546875 0.75q0.625 0.40625 0.921875 0.984375q0.3125 0.5625 0.3125 1.4375zm6.584198 3.1875q-1.46875 0 -2.578125 -0.546875q-1.109375 -0.5625 -1.734375 -1.71875q-0.609375 -1.171875 -0.609375 -2.953125q0 -1.890625 0.671875 -3.0625q0.671875 -1.171875 1.828125 -1.71875q1.15625 -0.5625 2.625 -0.5625q0.90625 0 1.6875 0.1875q0.796875 0.1875 1.421875 0.5l-0.84375 2.125q-0.5625 -0.234375 -1.140625 -0.390625q-0.5625 -0.15625 -1.125 -0.15625q-0.71875 0 -1.234375 0.34375q-0.5 0.328125 -0.765625 1.015625q-0.25 0.671875 -0.25 1.6875q0 1.015625 0.25 1.671875q0.265625 0.640625 0.765625 0.96875q0.515625 0.328125 1.203125 0.328125q0.796875 0 1.5 -0.203125q0.71875 -0.21875 1.359375 -0.578125l0 2.296875q-0.578125 0.359375 -1.3125 0.5625q-0.71875 0.203125 -1.71875 0.203125zm10.829742 -10.5625q0.28125 0 0.59375 0.03125q0.328125 0.03125 0.515625 0.078125l-0.28125 2.640625q-0.203125 -0.046875 -0.484375 -0.078125q-0.265625 -0.046875 -0.671875 -0.046875q-0.421875 0 -0.859375 0.140625q-0.4375 0.125 -0.8125 0.421875q-0.375 0.296875 -0.609375 0.796875q-0.21875 0.484375 -0.21875 1.21875l0 5.171875l-2.8125 0l0 -10.1875l2.140625 0l0.421875 1.71875l0.125 0q0.296875 -0.546875 0.75 -0.96875q0.453125 -0.4375 1.0 -0.6875q0.5625 -0.25 1.203125 -0.25zm5.5424805 0.1875l0 10.1875l-2.828125 0l0 -10.1875l2.828125 0zm-1.40625 -4.015625q0.625 0 1.078125 0.296875q0.453125 0.28125 0.453125 1.09375q0 0.765625 -0.453125 1.0625q-0.453125 0.296875 -1.078125 0.296875q-0.625 0 -1.078125 -0.296875q-0.453125 -0.296875 -0.453125 -1.0625q0 -0.8125 0.453125 -1.09375q0.453125 -0.296875 1.078125 -0.296875zm6.9532166 3.328125q0 0.578125 -0.03125 1.109375q-0.015625 0.515625 -0.078125 0.90625l0.109375 0q0.421875 -0.640625 1.109375 -1.078125q0.6875 -0.4375 1.796875 -0.4375q1.6875 0 2.75 1.34375q1.0625 1.328125 1.0625 3.921875q0 1.734375 -0.484375 2.921875q-0.484375 1.1875 -1.375 1.78125q-0.875 0.59375 -2.03125 0.59375q-1.125 0 -1.765625 -0.390625q-0.640625 -0.40625 -1.0625 -0.890625l-0.171875 0l-0.46875 1.09375l-2.171875 0l0 -14.171875l2.8125 0l0 3.296875zm1.984375 2.734375q-0.703125 0 -1.140625 0.3125q-0.4375 0.296875 -0.640625 0.90625q-0.203125 0.59375 -0.203125 1.5625l0 0.34375q0 1.4375 0.4375 2.1875q0.453125 0.734375 1.578125 0.734375q0.921875 0 1.390625 -0.78125q0.46875 -0.78125 0.46875 -2.28125q0 -1.46875 -0.46875 -2.21875q-0.453125 -0.765625 -1.421875 -0.765625zm11.337616 -2.234375q1.421875 0 2.4375 0.53125q1.03125 0.53125 1.578125 1.578125q0.5625 1.03125 0.5625 2.515625l0 1.359375l-6.546875 0q0.03125 1.15625 0.703125 1.828125q0.671875 0.65625 1.921875 0.65625q0.953125 0 1.734375 -0.1875q0.78125 -0.1875 1.609375 -0.5625l0 2.109375q-0.75 0.375 -1.578125 0.546875q-0.828125 0.1875 -2.0625 0.1875q-1.515625 0 -2.6875 -0.5625q-1.15625 -0.5625 -1.828125 -1.71875q-0.671875 -1.171875 -0.671875 -2.921875q0 -1.796875 0.609375 -2.96875q0.609375 -1.1875 1.6875 -1.78125q1.09375 -0.609375 2.53125 -0.609375zm0.078125 2.0q-0.84375 0 -1.359375 0.53125q-0.515625 0.53125 -0.609375 1.578125l3.84375 0q0 -0.625 -0.21875 -1.078125q-0.203125 -0.46875 -0.625 -0.75q-0.40625 -0.28125 -1.03125 -0.28125zm12.356537 -2.0q0.28125 0 0.59375 0.03125q0.328125 0.03125 0.515625 0.078125l-0.28125 2.640625q-0.203125 -0.046875 -0.484375 -0.078125q-0.265625 -0.046875 -0.671875 -0.046875q-0.421875 0 -0.859375 0.140625q-0.4375 0.125 -0.8125 0.421875q-0.375 0.296875 -0.609375 0.796875q-0.21875 0.484375 -0.21875 1.21875l0 5.171875l-2.8125 0l0 -10.1875l2.140625 0l0.421875 1.71875l0.125 0q0.296875 -0.546875 0.75 -0.96875q0.453125 -0.4375 1.0 -0.6875q0.5625 -0.25 1.203125 -0.25z" fill-rule="nonzero"/><path fill="#ead1dc" d="m457.45407 414.937l205.66928 0l0 62.740143l-205.66928 0z" fill-rule="evenodd"/><path fill="#000000" d="m535.2859 453.22708l0 -13.359375l5.046875 0q1.328125 0 2.03125 0.125q0.96875 0.171875 1.640625 0.640625q0.671875 0.453125 1.078125 1.28125q0.40625 0.828125 0.40625 1.828125q0 1.703125 -1.09375 2.890625q-1.078125 1.171875 -3.921875 1.171875l-3.421875 0l0 5.421875l-1.765625 0zm1.765625 -7.0l3.453125 0q1.71875 0 2.4375 -0.640625q0.71875 -0.640625 0.71875 -1.796875q0 -0.84375 -0.421875 -1.4375q-0.421875 -0.59375 -1.125 -0.78125q-0.4375 -0.125 -1.640625 -0.125l-3.421875 0l0 4.78125zm10.4279785 7.0l0 -13.359375l1.640625 0l0 13.359375l-1.640625 0zm10.50415 -1.1875q-0.921875 0.765625 -1.765625 1.09375q-0.828125 0.3125 -1.796875 0.3125q-1.59375 0 -2.453125 -0.78125q-0.859375 -0.78125 -0.859375 -1.984375q0 -0.71875 0.328125 -1.296875q0.328125 -0.59375 0.84375 -0.9375q0.53125 -0.359375 1.1875 -0.546875q0.46875 -0.125 1.453125 -0.25q1.984375 -0.234375 2.921875 -0.5625q0.015625 -0.34375 0.015625 -0.421875q0 -1.0 -0.46875 -1.421875q-0.625 -0.546875 -1.875 -0.546875q-1.15625 0 -1.703125 0.40625q-0.546875 0.40625 -0.8125 1.421875l-1.609375 -0.21875q0.21875 -1.015625 0.71875 -1.640625q0.5 -0.640625 1.453125 -0.984375q0.953125 -0.34375 2.1875 -0.34375q1.25 0 2.015625 0.296875q0.78125 0.28125 1.140625 0.734375q0.375 0.4375 0.515625 1.109375q0.078125 0.421875 0.078125 1.515625l0 2.1875q0 2.28125 0.109375 2.890625q0.109375 0.59375 0.40625 1.15625l-1.703125 0q-0.265625 -0.515625 -0.328125 -1.1875zm-0.140625 -3.671875q-0.890625 0.375 -2.671875 0.625q-1.015625 0.140625 -1.4375 0.328125q-0.421875 0.1875 -0.65625 0.53125q-0.21875 0.34375 -0.21875 0.78125q0 0.65625 0.5 1.09375q0.5 0.4375 1.453125 0.4375q0.9375 0 1.671875 -0.40625q0.75 -0.421875 1.09375 -1.140625q0.265625 -0.5625 0.265625 -1.640625l0 -0.609375zm4.1257324 8.578125l-0.1875 -1.53125q0.546875 0.140625 0.9375 0.140625q0.546875 0 0.875 -0.1875q0.328125 -0.171875 0.546875 -0.5q0.15625 -0.25 0.5 -1.21875q0.046875 -0.140625 0.140625 -0.40625l-3.671875 -9.6875l1.765625 0l2.015625 5.59375q0.390625 1.078125 0.703125 2.25q0.28125 -1.125 0.671875 -2.203125l2.078125 -5.640625l1.640625 0l-3.6875 9.828125q-0.59375 1.609375 -0.921875 2.203125q-0.4375 0.8125 -1.0 1.1875q-0.5625 0.375 -1.34375 0.375q-0.484375 0 -1.0625 -0.203125zm16.03125 -6.828125l1.6875 0.203125q-0.40625 1.484375 -1.484375 2.3125q-1.078125 0.8125 -2.765625 0.8125q-2.125 0 -3.375 -1.296875q-1.234375 -1.3125 -1.234375 -3.671875q0 -2.453125 1.25 -3.796875q1.265625 -1.34375 3.265625 -1.34375q1.9375 0 3.15625 1.328125q1.234375 1.3125 1.234375 3.703125q0 0.15625 0 0.4375l-7.21875 0q0.09375 1.59375 0.90625 2.453125q0.8125 0.84375 2.015625 0.84375q0.90625 0 1.546875 -0.46875q0.640625 -0.484375 1.015625 -1.515625zm-5.390625 -2.65625l5.40625 0q-0.109375 -1.21875 -0.625 -1.828125q-0.78125 -0.953125 -2.03125 -0.953125q-1.125 0 -1.90625 0.765625q-0.765625 0.75 -0.84375 2.015625zm9.125732 5.765625l0 -9.671875l1.46875 0l0 1.46875q0.5625 -1.03125 1.03125 -1.359375q0.484375 -0.328125 1.0625 -0.328125q0.828125 0 1.6875 0.53125l-0.5625 1.515625q-0.609375 -0.359375 -1.203125 -0.359375q-0.546875 0 -0.96875 0.328125q-0.421875 0.328125 -0.609375 0.890625q-0.28125 0.875 -0.28125 1.921875l0 5.0625l-1.625 0z" fill-rule="nonzero"/><path fill="#000000" fill-opacity="0.0" d="m506.96326 405.60236l0 -246.17322" fill-rule="evenodd"/><path stroke="#000000" stroke-width="1.0" stroke-linejoin="round" stroke-linecap="butt" d="m506.96326 405.60236l0 -240.17322" fill-rule="evenodd"/><path fill="#000000" stroke="#000000" stroke-width="1.0" stroke-linecap="butt" d="m508.615 165.42914l-1.6517334 -4.538101l-1.6517334 4.538101z" fill-rule="evenodd"/><path fill="#000000" fill-opacity="0.0" d="m527.147 159.42914l0 244.31494" fill-rule="evenodd"/><path stroke="#000000" stroke-width="1.0" stroke-linejoin="round" stroke-linecap="butt" d="m527.147 159.42914l0 238.31494" fill-rule="evenodd"/><path fill="#000000" stroke="#000000" stroke-width="1.0" stroke-linecap="butt" d="m525.49524 397.74408l1.6517334 4.5381165l1.6517334 -4.5381165z" fill-rule="evenodd"/></g></svg>