<svg version="1.1" viewBox="0.0 0.0 960.0 720.0" fill="none" stroke="none" stroke-linecap="square" stroke-miterlimit="10" xmlns:xlink="http://www.w3.org/1999/xlink" xmlns="http://www.w3.org/2000/svg"><clipPath id="p.0"><path d="m0 0l960.0 0l0 720.0l-960.0 0l0 -720.0z" clip-rule="nonzero"/></clipPath><g clip-path="url(#p.0)"><path fill="#ffffff" d="m0 0l960.0 0l0 720.0l-960.0 0z" fill-rule="evenodd"/><path fill="#000000" fill-opacity="0.0" d="m464.6063 152.02362l239.71652 0l0 329.70078l-239.71652 0z" fill-rule="evenodd"/><path stroke="#000000" stroke-width="1.0" stroke-linejoin="round" stroke-linecap="butt" stroke-dasharray="4.0,3.0" d="m464.6063 152.02362l239.71652 0l0 329.70078l-239.71652 0z" fill-rule="evenodd"/><path fill="#cfe2f3" d="m183.29921 164.5853l130.5197 0l0 45.322845l-130.5197 0z" fill-rule="evenodd"/><path stroke="#000000" stroke-width="1.0" stroke-linejoin="round" stroke-linecap="butt" d="m183.29921 164.5853l130.5197 0l0 45.322845l-130.5197 0z" fill-rule="evenodd"/><path fill="#000000" d="m198.1453 194.16672l0 -13.359375l5.046875 0q1.328125 0 2.03125 0.125q0.96875 0.171875 1.640625 0.640625q0.671875 0.453125 1.078125 1.28125q0.40625 0.828125 0.40625 1.828125q0 1.703125 -1.09375 2.890625q-1.078125 1.171875 -3.921875 1.171875l-3.421875 0l0 5.421875l-1.765625 0zm1.765625 -7.0l3.453125 0q1.71875 0 2.4375 -0.640625q0.71875 -0.640625 0.71875 -1.796875q0 -0.84375 -0.421875 -1.4375q-0.421875 -0.59375 -1.125 -0.78125q-0.4375 -0.125 -1.640625 -0.125l-3.421875 0l0 4.78125zm16.787323 5.8125q-0.921875 0.765625 -1.765625 1.09375q-0.828125 0.3125 -1.796875 0.3125q-1.59375 0 -2.453125 -0.78125q-0.859375 -0.78125 -0.859375 -1.984375q0 -0.71875 0.328125 -1.296875q0.328125 -0.59375 0.84375 -0.9375q0.53125 -0.359375 1.1875 -0.546875q0.46875 -0.125 1.453125 -0.25q1.984375 -0.234375 2.921875 -0.5625q0.015625 -0.34375 0.015625 -0.421875q0 -1.0 -0.46875 -1.421875q-0.625 -0.546875 -1.875 -0.546875q-1.15625 0 -1.703125 0.40625q-0.546875 0.40625 -0.8125 1.421875l-1.609375 -0.21875q0.21875 -1.015625 0.71875 -1.640625q0.5 -0.640625 1.453125 -0.984375q0.953125 -0.34375 2.1875 -0.34375q1.25 0 2.015625 0.296875q0.78125 0.28125 1.140625 0.734375q0.375 0.4375 0.515625 1.109375q0.078125 0.421875 0.078125 1.515625l0 2.1875q0 2.28125 0.109375 2.890625q0.109375 0.59375 0.40625 1.15625l-1.703125 0q-0.265625 -0.515625 -0.328125 -1.1875zm-0.140625 -3.671875q-0.890625 0.375 -2.671875 0.625q-1.015625 0.140625 -1.4375 0.328125q-0.421875 0.1875 -0.65625 0.53125q-0.21875 0.34375 -0.21875 0.78125q0 0.65625 0.5 1.09375q0.5 0.4375 1.453125 0.4375q0.9375 0 1.671875 -0.40625q0.75 -0.421875 1.09375 -1.140625q0.265625 -0.5625 0.265625 -1.640625l0 -0.609375zm4.188217 4.859375l0 -9.671875l1.46875 0l0 1.46875q0.5625 -1.03125 1.03125 -1.359375q0.484375 -0.328125 1.0625 -0.328125q0.828125 0 1.6875 0.53125l-0.5625 1.515625q-0.609375 -0.359375 -1.203125 -0.359375q-0.546875 0 -0.96875 0.328125q-0.421875 0.328125 -0.609375 0.890625q-0.28125 0.875 -0.28125 1.921875l0 5.0625l-1.625 0zm9.806427 -1.46875l0.234375 1.453125q-0.6875 0.140625 -1.234375 0.140625q-0.890625 0 -1.390625 -0.28125q-0.484375 -0.28125 -0.6875 -0.734375q-0.203125 -0.46875 -0.203125 -1.9375l0 -5.578125l-1.203125 0l0 -1.265625l1.203125 0l0 -2.390625l1.625 -0.984375l0 3.375l1.65625 0l0 1.265625l-1.65625 0l0 5.671875q0 0.6875 0.078125 0.890625q0.09375 0.203125 0.28125 0.328125q0.203125 0.109375 0.578125 0.109375q0.265625 0 0.71875 -0.0625zm1.6051788 -10.0l0 -1.890625l1.640625 0l0 1.890625l-1.640625 0zm0 11.46875l0 -9.671875l1.640625 0l0 9.671875l-1.640625 0zm10.457321 -3.546875l1.609375 0.21875q-0.265625 1.65625 -1.359375 2.609375q-1.078125 0.9375 -2.671875 0.9375q-1.984375 0 -3.1875 -1.296875q-1.203125 -1.296875 -1.203125 -3.71875q0 -1.578125 0.515625 -2.75q0.515625 -1.171875 1.578125 -1.75q1.0625 -0.59375 2.3125 -0.59375q1.578125 0 2.578125 0.796875q1.0 0.796875 1.28125 2.265625l-1.59375 0.234375q-0.234375 -0.96875 -0.8125 -1.453125q-0.578125 -0.5 -1.390625 -0.5q-1.234375 0 -2.015625 0.890625q-0.78125 0.890625 -0.78125 2.8125q0 1.953125 0.75 2.84375q0.75 0.875 1.953125 0.875q0.96875 0 1.609375 -0.59375q0.65625 -0.59375 0.828125 -1.828125zm3.015625 -7.921875l0 -1.890625l1.640625 0l0 1.890625l-1.640625 0zm0 11.46875l0 -9.671875l1.640625 0l0 9.671875l-1.640625 0zm4.144821 3.703125l0 -13.375l1.484375 0l0 1.25q0.53125 -0.734375 1.1875 -1.09375q0.671875 -0.375 1.625 -0.375q1.234375 0 2.171875 0.640625q0.953125 0.625 1.4375 1.796875q0.484375 1.15625 0.484375 2.546875q0 1.484375 -0.53125 2.671875q-0.53125 1.1875 -1.546875 1.828125q-1.015625 0.625 -2.140625 0.625q-0.8125 0 -1.46875 -0.34375q-0.65625 -0.34375 -1.0625 -0.875l0 4.703125l-1.640625 0zm1.484375 -8.484375q0 1.859375 0.75 2.765625q0.765625 0.890625 1.828125 0.890625q1.09375 0 1.875 -0.921875q0.78125 -0.9375 0.78125 -2.875q0 -1.84375 -0.765625 -2.765625q-0.75 -0.921875 -1.8125 -0.921875q-1.046875 0 -1.859375 0.984375q-0.796875 0.96875 -0.796875 2.84375zm15.203857 3.59375q-0.921875 0.765625 -1.765625 1.09375q-0.828125 0.3125 -1.796875 0.3125q-1.59375 0 -2.453125 -0.78125q-0.859375 -0.78125 -0.859375 -1.984375q0 -0.71875 0.328125 -1.296875q0.328125 -0.59375 0.84375 -0.9375q0.53125 -0.359375 1.1875 -0.546875q0.46875 -0.125 1.453125 -0.25q1.984375 -0.234375 2.921875 -0.5625q0.015625 -0.34375 0.015625 -0.421875q0 -1.0 -0.46875 -1.421875q-0.625 -0.546875 -1.875 -0.546875q-1.15625 0 -1.703125 0.40625q-0.546875 0.40625 -0.8125 1.421875l-1.609375 -0.21875q0.21875 -1.015625 0.71875 -1.640625q0.5 -0.640625 1.453125 -0.984375q0.953125 -0.34375 2.1875 -0.34375q1.25 0 2.015625 0.296875q0.78125 0.28125 1.140625 0.734375q0.375 0.4375 0.515625 1.109375q0.078125 0.421875 0.078125 1.515625l0 2.1875q0 2.28125 0.109375 2.890625q0.109375 0.59375 0.40625 1.15625l-1.703125 0q-0.265625 -0.515625 -0.328125 -1.1875zm-0.140625 -3.671875q-0.890625 0.375 -2.671875 0.625q-1.015625 0.140625 -1.4375 0.328125q-0.421875 0.1875 -0.65625 0.53125q-0.21875 0.34375 -0.21875 0.78125q0 0.65625 0.5 1.09375q0.5 0.4375 1.453125 0.4375q0.9375 0 1.671875 -0.40625q0.75 -0.421875 1.09375 -1.140625q0.265625 -0.5625 0.265625 -1.640625l0 -0.609375zm4.203827 4.859375l0 -9.671875l1.46875 0l0 1.375q1.0625 -1.59375 3.078125 -1.59375q0.875 0 1.609375 0.3125q0.734375 0.3125 1.09375 0.828125q0.375 0.5 0.515625 1.203125q0.09375 0.453125 0.09375 1.59375l0 5.953125l-1.640625 0l0 -5.890625q0 -1.0 -0.203125 -1.484375q-0.1875 -0.5 -0.671875 -0.796875q-0.484375 -0.296875 -1.140625 -0.296875q-1.046875 0 -1.8125 0.671875q-0.75 0.65625 -0.75 2.515625l0 5.28125l-1.640625 0zm13.953857 -1.46875l0.234375 1.453125q-0.6875 0.140625 -1.234375 0.140625q-0.890625 0 -1.390625 -0.28125q-0.484375 -0.28125 -0.6875 -0.734375q-0.203125 -0.46875 -0.203125 -1.9375l0 -5.578125l-1.203125 0l0 -1.265625l1.203125 0l0 -2.390625l1.625 -0.984375l0 3.375l1.65625 0l0 1.265625l-1.65625 0l0 5.671875q0 0.6875 0.078125 0.890625q0.09375 0.203125 0.28125 0.328125q0.203125 0.109375 0.578125 0.109375q0.265625 0 0.71875 -0.0625zm12.507233 1.46875l-1.640625 0l0 -10.453125q-0.59375 0.5625 -1.5625 1.140625q-0.953125 0.5625 -1.71875 0.84375l0 -1.59375q1.375 -0.640625 2.40625 -1.5625q1.03125 -0.921875 1.453125 -1.78125l1.0625 0l0 13.40625z" fill-rule="nonzero"/><path fill="#cfe2f3" d="m531.2992 538.3832l106.33075 0l0 51.748047l-106.33075 0z" fill-rule="evenodd"/><path stroke="#000000" stroke-width="1.0" stroke-linejoin="round" stroke-linecap="butt" d="m531.2992 538.3832l106.33075 0l0 51.748047l-106.33075 0z" fill-rule="evenodd"/><path fill="#000000" d="m566.78455 571.17725l0 -13.359375l1.765625 0l0 5.484375l6.9375 0l0 -5.484375l1.765625 0l0 13.359375l-1.765625 0l0 -6.296875l-6.9375 0l0 6.296875l-1.765625 0zm12.5979 -4.84375q0 -2.6875 1.484375 -3.96875q1.25 -1.078125 3.046875 -1.078125q2.0 0 3.265625 1.3125q1.265625 1.296875 1.265625 3.609375q0 1.859375 -0.5625 2.9375q-0.5625 1.0625 -1.640625 1.65625q-1.0625 0.59375 -2.328125 0.59375q-2.03125 0 -3.28125 -1.296875q-1.25 -1.3125 -1.25 -3.765625zm1.6875 0q0 1.859375 0.796875 2.796875q0.8125 0.921875 2.046875 0.921875q1.21875 0 2.03125 -0.921875q0.8125 -0.9375 0.8125 -2.84375q0 -1.796875 -0.8125 -2.71875q-0.8125 -0.921875 -2.03125 -0.921875q-1.234375 0 -2.046875 0.921875q-0.796875 0.90625 -0.796875 2.765625zm8.641357 1.953125l1.625 -0.25q0.125 0.96875 0.75 1.5q0.625 0.515625 1.75 0.515625q1.125 0 1.671875 -0.453125q0.546875 -0.46875 0.546875 -1.09375q0 -0.546875 -0.484375 -0.875q-0.328125 -0.21875 -1.671875 -0.546875q-1.8125 -0.46875 -2.515625 -0.796875q-0.6875 -0.328125 -1.046875 -0.90625q-0.359375 -0.59375 -0.359375 -1.3125q0 -0.640625 0.296875 -1.1875q0.296875 -0.5625 0.8125 -0.921875q0.375 -0.28125 1.03125 -0.46875q0.671875 -0.203125 1.421875 -0.203125q1.140625 0 2.0 0.328125q0.859375 0.328125 1.265625 0.890625q0.421875 0.5625 0.578125 1.5l-1.609375 0.21875q-0.109375 -0.75 -0.640625 -1.171875q-0.515625 -0.421875 -1.46875 -0.421875q-1.140625 0 -1.625 0.375q-0.46875 0.375 -0.46875 0.875q0 0.3125 0.1875 0.578125q0.203125 0.265625 0.640625 0.4375q0.234375 0.09375 1.4375 0.421875q1.75 0.453125 2.4375 0.75q0.6875 0.296875 1.078125 0.859375q0.390625 0.5625 0.390625 1.40625q0 0.828125 -0.484375 1.546875q-0.46875 0.71875 -1.375 1.125q-0.90625 0.390625 -2.046875 0.390625q-1.875 0 -2.875 -0.78125q-0.984375 -0.78125 -1.25 -2.328125zm13.5625 1.421875l0.234375 1.453125q-0.6875 0.140625 -1.234375 0.140625q-0.890625 0 -1.390625 -0.28125q-0.484375 -0.28125 -0.6875 -0.734375q-0.203125 -0.46875 -0.203125 -1.9375l0 -5.578125l-1.203125 0l0 -1.265625l1.203125 0l0 -2.390625l1.625 -0.984375l0 3.375l1.65625 0l0 1.265625l-1.65625 0l0 5.671875q0 0.6875 0.078125 0.890625q0.09375 0.203125 0.28125 0.328125q0.203125 0.109375 0.578125 0.109375q0.265625 0 0.71875 -0.0625z" fill-rule="nonzero"/><path fill="#000000" fill-opacity="0.0" d="m465.6404 103.77165l258.01578 0l0 37.16536l-258.01578 0z" fill-rule="evenodd"/><path fill="#000000" d="m475.8748 126.851654l3.328125 0q0.671875 0 1.296875 -0.203125q0.625 -0.203125 1.109375 -0.578125q0.46875 -0.375 0.75 -0.9375q0.296875 -0.5625 0.296875 -1.28125q0 -0.46875 -0.140625 -0.859375q-0.140625 -0.40625 -0.390625 -0.734375q-0.234375 -0.296875 -0.609375 -0.53125q-0.359375 -0.25 -0.75 -0.34375l0 -0.015625q0.375 -0.171875 0.640625 -0.359375q0.265625 -0.1875 0.484375 -0.453125q0.21875 -0.265625 0.34375 -0.59375q0.125 -0.34375 0.140625 -0.75q0 -0.734375 -0.296875 -1.25q-0.28125 -0.53125 -0.75 -0.859375q-0.484375 -0.34375 -1.109375 -0.5q-0.609375 -0.15625 -1.25 -0.171875l-3.09375 0l0 10.421875zm1.328125 -4.875l2.109375 0q0.421875 0.015625 0.78125 0.15625q0.375 0.125 0.640625 0.359375q0.28125 0.234375 0.421875 0.578125q0.15625 0.34375 0.15625 0.796875q0 0.421875 -0.171875 0.765625q-0.171875 0.34375 -0.453125 0.59375q-0.28125 0.234375 -0.65625 0.375q-0.375 0.125 -0.796875 0.125l-2.03125 0l0 -3.75zm0 -1.09375l0 -3.3125l1.8125 0q0.390625 0 0.75 0.09375q0.375 0.09375 0.65625 0.28125q0.28125 0.203125 0.4375 0.515625q0.171875 0.296875 0.171875 0.734375q0 0.40625 -0.171875 0.71875q-0.171875 0.3125 -0.4375 0.515625q-0.28125 0.21875 -0.640625 0.328125q-0.359375 0.109375 -0.734375 0.125l-1.84375 0zm12.576447 5.96875l1.203125 0l0 -7.75l-1.328125 0l0 5.5625q-0.109375 0.25 -0.265625 0.46875q-0.15625 0.203125 -0.375 0.359375q-0.265625 0.171875 -0.625 0.28125q-0.34375 0.109375 -0.78125 0.109375q-0.375 0 -0.671875 -0.09375q-0.28125 -0.109375 -0.484375 -0.359375q-0.203125 -0.25 -0.3125 -0.65625q-0.09375 -0.421875 -0.09375 -1.046875l0 -4.625l-1.328125 0l0 4.609375q0 0.859375 0.1875 1.484375q0.203125 0.625 0.546875 1.015625q0.359375 0.40625 0.84375 0.59375q0.5 0.1875 1.109375 0.1875q0.75 0 1.328125 -0.3125q0.578125 -0.328125 0.96875 -0.890625l0.078125 1.0625zm8.842041 -2.046875q0 0.171875 -0.078125 0.34375q-0.0625 0.171875 -0.203125 0.296875q-0.21875 0.21875 -0.609375 0.34375q-0.390625 0.125 -0.921875 0.125q-0.34375 0 -0.6875 -0.0625q-0.34375 -0.078125 -0.625 -0.25q-0.28125 -0.171875 -0.46875 -0.4375q-0.1875 -0.28125 -0.21875 -0.703125l-1.328125 0q0 0.5 0.21875 0.96875q0.234375 0.453125 0.65625 0.796875q0.4375 0.34375 1.046875 0.5625q0.609375 0.203125 1.40625 0.203125q0.6875 0 1.265625 -0.15625q0.578125 -0.171875 0.984375 -0.46875q0.421875 -0.296875 0.65625 -0.71875q0.234375 -0.421875 0.234375 -0.9375q0 -0.484375 -0.203125 -0.84375q-0.203125 -0.375 -0.59375 -0.65625q-0.390625 -0.265625 -0.953125 -0.453125q-0.5625 -0.203125 -1.28125 -0.359375q-0.546875 -0.109375 -0.90625 -0.21875q-0.34375 -0.109375 -0.546875 -0.265625q-0.21875 -0.140625 -0.3125 -0.3125q-0.078125 -0.1875 -0.078125 -0.40625q0 -0.21875 0.109375 -0.421875q0.109375 -0.21875 0.3125 -0.375q0.21875 -0.15625 0.53125 -0.25q0.3125 -0.09375 0.734375 -0.09375q0.40625 0 0.734375 0.125q0.328125 0.109375 0.5625 0.28125q0.21875 0.1875 0.34375 0.4375q0.140625 0.234375 0.140625 0.484375l1.328125 0q0 -0.5 -0.21875 -0.9375q-0.21875 -0.453125 -0.625 -0.78125q-0.40625 -0.328125 -0.984375 -0.515625q-0.5625 -0.1875 -1.28125 -0.1875q-0.65625 0 -1.21875 0.1875q-0.546875 0.171875 -0.953125 0.484375q-0.40625 0.3125 -0.625 0.71875q-0.21875 0.40625 -0.21875 0.875q0 0.484375 0.21875 0.84375q0.21875 0.359375 0.609375 0.625q0.390625 0.28125 0.9375 0.46875q0.546875 0.1875 1.203125 0.328125q0.546875 0.109375 0.90625 0.25q0.375 0.125 0.59375 0.28125q0.21875 0.15625 0.3125 0.34375q0.09375 0.1875 0.09375 0.4375zm3.8576965 -5.703125l0 1.15625l2.640625 0l0 5.453125l-2.640625 0l0 1.140625l6.484375 0l0 -1.140625l-2.53125 0l0 -6.609375l-3.953125 0zm2.46875 -2.03125q0 0.328125 0.1875 0.546875q0.203125 0.203125 0.59375 0.203125q0.40625 0 0.59375 -0.203125q0.203125 -0.21875 0.203125 -0.546875q0 -0.171875 -0.0625 -0.3125q-0.046875 -0.15625 -0.15625 -0.265625q-0.09375 -0.09375 -0.25 -0.140625q-0.140625 -0.0625 -0.328125 -0.0625q-0.1875 0 -0.328125 0.0625q-0.140625 0.046875 -0.234375 0.140625q-0.125 0.109375 -0.171875 0.265625q-0.046875 0.140625 -0.046875 0.3125zm6.123291 9.78125l1.3125305 0l0 -5.546875q0.140625 -0.25 0.3125 -0.453125q0.1875 -0.21875 0.40625 -0.375q0.265625 -0.1875 0.578125 -0.28125q0.3125 -0.109375 0.6875 -0.109375q0.421875 0 0.75 0.109375q0.328125 0.09375 0.546875 0.3125q0.21875 0.21875 0.328125 0.578125q0.125 0.359375 0.125 0.875l0 4.890625l1.328125 0l0 -4.921875q0 -0.765625 -0.1875 -1.328125q-0.1875 -0.5625 -0.546875 -0.921875q-0.34375 -0.375 -0.84375 -0.546875q-0.5 -0.171875 -1.109375 -0.171875q-0.453125 0.015625 -0.859375 0.140625q-0.40625 0.125 -0.75 0.34375q-0.21875 0.15625 -0.421875 0.359375q-0.203125 0.203125 -0.375 0.453125l-0.09375 -1.15625l-1.1875305 0l0 7.75zm12.217072 0.140625q1.125 0 1.890625 -0.453125q0.765625 -0.453125 1.15625 -1.046875l-0.8125 -0.625q-0.359375 0.46875 -0.90625 0.765625q-0.546875 0.28125 -1.265625 0.28125q-0.53125 0 -0.984375 -0.203125q-0.4375 -0.203125 -0.75 -0.546875q-0.3125 -0.328125 -0.484375 -0.75q-0.171875 -0.4375 -0.21875 -1.0l0 -0.0625l5.53125 0l0 -0.59375q0 -0.796875 -0.21875 -1.484375q-0.203125 -0.703125 -0.609375 -1.21875q-0.421875 -0.515625 -1.046875 -0.796875q-0.625 -0.296875 -1.453125 -0.296875q-0.671875 0 -1.3125 0.28125q-0.625 0.265625 -1.125 0.78125q-0.5 0.515625 -0.796875 1.25q-0.296875 0.734375 -0.296875 1.671875l0 0.3125q0 0.796875 0.265625 1.484375q0.28125 0.6875 0.765625 1.1875q0.484375 0.5 1.15625 0.78125q0.6875 0.28125 1.515625 0.28125zm-0.171875 -6.9375q0.5 0 0.859375 0.1875q0.375 0.1875 0.625 0.484375q0.234375 0.296875 0.375 0.71875q0.140625 0.40625 0.140625 0.765625l0 0.0625l-4.171875 0q0.078125 -0.53125 0.28125 -0.9375q0.203125 -0.421875 0.484375 -0.703125q0.28125 -0.28125 0.640625 -0.421875q0.359375 -0.15625 0.765625 -0.15625zm10.685791 4.75q0 0.171875 -0.078125 0.34375q-0.0625 0.171875 -0.203125 0.296875q-0.21875 0.21875 -0.609375 0.34375q-0.390625 0.125 -0.921875 0.125q-0.34375 0 -0.6875 -0.0625q-0.34375 -0.078125 -0.625 -0.25q-0.28125 -0.171875 -0.46875 -0.4375q-0.1875 -0.28125 -0.21875 -0.703125l-1.328125 0q0 0.5 0.21875 0.96875q0.234375 0.453125 0.65625 0.796875q0.4375 0.34375 1.046875 0.5625q0.609375 0.203125 1.40625 0.203125q0.6875 0 1.265625 -0.15625q0.578125 -0.171875 0.984375 -0.46875q0.421875 -0.296875 0.65625 -0.71875q0.234375 -0.421875 0.234375 -0.9375q0 -0.484375 -0.203125 -0.84375q-0.203125 -0.375 -0.59375 -0.65625q-0.390625 -0.265625 -0.953125 -0.453125q-0.5625 -0.203125 -1.28125 -0.359375q-0.546875 -0.109375 -0.90625 -0.21875q-0.34375 -0.109375 -0.546875 -0.265625q-0.21875 -0.140625 -0.3125 -0.3125q-0.078125 -0.1875 -0.078125 -0.40625q0 -0.21875 0.109375 -0.421875q0.109375 -0.21875 0.3125 -0.375q0.21875 -0.15625 0.53125 -0.25q0.3125 -0.09375 0.734375 -0.09375q0.40625 0 0.734375 0.125q0.328125 0.109375 0.5625 0.28125q0.21875 0.1875 0.34375 0.4375q0.140625 0.234375 0.140625 0.484375l1.328125 0q0 -0.5 -0.21875 -0.9375q-0.21875 -0.453125 -0.625 -0.78125q-0.40625 -0.328125 -0.984375 -0.515625q-0.5625 -0.1875 -1.28125 -0.1875q-0.65625 0 -1.21875 0.1875q-0.546875 0.171875 -0.953125 0.484375q-0.40625 0.3125 -0.625 0.71875q-0.21875 0.40625 -0.21875 0.875q0 0.484375 0.21875 0.84375q0.21875 0.359375 0.609375 0.625q0.390625 0.28125 0.9375 0.46875q0.546875 0.1875 1.203125 0.328125q0.546875 0.109375 0.90625 0.25q0.375 0.125 0.59375 0.28125q0.21875 0.15625 0.3125 0.34375q0.09375 0.1875 0.09375 0.4375zm8.795166 0q0 0.171875 -0.078125 0.34375q-0.0625 0.171875 -0.203125 0.296875q-0.21875 0.21875 -0.609375 0.34375q-0.390625 0.125 -0.921875 0.125q-0.34375 0 -0.6875 -0.0625q-0.34375 -0.078125 -0.625 -0.25q-0.28125 -0.171875 -0.46875 -0.4375q-0.1875 -0.28125 -0.21875 -0.703125l-1.328125 0q0 0.5 0.21875 0.96875q0.234375 0.453125 0.65625 0.796875q0.4375 0.34375 1.046875 0.5625q0.609375 0.203125 1.40625 0.203125q0.6875 0 1.265625 -0.15625q0.578125 -0.171875 0.984375 -0.46875q0.421875 -0.296875 0.65625 -0.71875q0.234375 -0.421875 0.234375 -0.9375q0 -0.484375 -0.203125 -0.84375q-0.203125 -0.375 -0.59375 -0.65625q-0.390625 -0.265625 -0.953125 -0.453125q-0.5625 -0.203125 -1.28125 -0.359375q-0.546875 -0.109375 -0.90625 -0.21875q-0.34375 -0.109375 -0.546875 -0.265625q-0.21875 -0.140625 -0.3125 -0.3125q-0.078125 -0.1875 -0.078125 -0.40625q0 -0.21875 0.109375 -0.421875q0.109375 -0.21875 0.3125 -0.375q0.21875 -0.15625 0.53125 -0.25q0.3125 -0.09375 0.734375 -0.09375q0.40625 0 0.734375 0.125q0.328125 0.109375 0.5625 0.28125q0.21875 0.1875 0.34375 0.4375q0.140625 0.234375 0.140625 0.484375l1.328125 0q0 -0.5 -0.21875 -0.9375q-0.21875 -0.453125 -0.625 -0.78125q-0.40625 -0.328125 -0.984375 -0.515625q-0.5625 -0.1875 -1.28125 -0.1875q-0.65625 0 -1.21875 0.1875q-0.546875 0.171875 -0.953125 0.484375q-0.40625 0.3125 -0.625 0.71875q-0.21875 0.40625 -0.21875 0.875q0 0.484375 0.21875 0.84375q0.21875 0.359375 0.609375 0.625q0.390625 0.28125 0.9375 0.46875q0.546875 0.1875 1.203125 0.328125q0.546875 0.109375 0.90625 0.25q0.375 0.125 0.59375 0.28125q0.21875 0.15625 0.3125 0.34375q0.09375 0.1875 0.09375 0.4375zm15.887268 -2.203125l2.046875 4.25l1.40625 0l0 -0.078125l-2.203125 -4.453125q0.421875 -0.1875 0.78125 -0.453125q0.359375 -0.265625 0.609375 -0.609375q0.265625 -0.34375 0.40625 -0.765625q0.15625 -0.421875 0.15625 -0.9375q0 -0.78125 -0.28125 -1.359375q-0.28125 -0.59375 -0.75 -0.96875q-0.484375 -0.390625 -1.140625 -0.578125q-0.640625 -0.203125 -1.375 -0.21875l-3.046875 0l0 10.421875l1.3125 0l0 -4.25l2.078125 0zm-2.078125 -1.09375l0 -3.984375l1.734375 0q0.484375 0 0.890625 0.140625q0.40625 0.125 0.703125 0.375q0.28125 0.25 0.453125 0.625q0.171875 0.375 0.171875 0.875q0 0.484375 -0.171875 0.84375q-0.171875 0.359375 -0.46875 0.609375q-0.296875 0.25 -0.703125 0.390625q-0.390625 0.125 -0.828125 0.125l-1.78125 0zm7.060791 1.40625l0 0.15625q0 0.828125 0.234375 1.546875q0.25 0.71875 0.703125 1.25q0.453125 0.53125 1.109375 0.828125q0.65625 0.296875 1.484375 0.296875q0.8125 0 1.453125 -0.296875q0.65625 -0.296875 1.125 -0.828125q0.4375 -0.53125 0.6875 -1.25q0.25 -0.71875 0.25 -1.546875l0 -0.15625q0 -0.84375 -0.25 -1.5625q-0.25 -0.71875 -0.6875 -1.25q-0.46875 -0.53125 -1.125 -0.828125q-0.65625 -0.3125 -1.46875 -0.3125q-0.8125 0 -1.46875 0.3125q-0.65625 0.296875 -1.109375 0.828125q-0.453125 0.53125 -0.703125 1.25q-0.234375 0.71875 -0.234375 1.5625zm1.328125 0.15625l0 -0.15625q0 -0.578125 0.125 -1.09375q0.140625 -0.515625 0.421875 -0.90625q0.265625 -0.390625 0.671875 -0.625q0.40625 -0.234375 0.96875 -0.234375q0.546875 0 0.953125 0.234375q0.421875 0.234375 0.703125 0.625q0.265625 0.390625 0.40625 0.90625q0.140625 0.515625 0.140625 1.09375l0 0.15625q0 0.5625 -0.140625 1.09375q-0.140625 0.515625 -0.40625 0.90625q-0.28125 0.390625 -0.703125 0.625q-0.40625 0.21875 -0.9375 0.21875q-0.5625 0 -0.984375 -0.21875q-0.40625 -0.234375 -0.671875 -0.625q-0.28125 -0.390625 -0.421875 -0.90625q-0.125 -0.53125 -0.125 -1.09375zm12.935791 3.78125l1.203125 0l0 -7.75l-1.328125 0l0 5.5625q-0.109375 0.25 -0.265625 0.46875q-0.15625 0.203125 -0.375 0.359375q-0.265625 0.171875 -0.625 0.28125q-0.34375 0.109375 -0.78125 0.109375q-0.375 0 -0.671875 -0.09375q-0.28125 -0.109375 -0.484375 -0.359375q-0.203125 -0.25 -0.3125 -0.65625q-0.09375 -0.421875 -0.09375 -1.046875l0 -4.625l-1.328125 0l0 4.609375q0 0.859375 0.1875 1.484375q0.203125 0.625 0.546875 1.015625q0.359375 0.40625 0.84375 0.59375q0.5 0.1875 1.109375 0.1875q0.75 0 1.328125 -0.3125q0.578125 -0.328125 0.96875 -0.890625l0.078125 1.0625zm6.826477 -9.625l-1.328125 0l0 1.875l-2.03125 0l0 1.03125l2.03125 0l0 4.203125q0 0.71875 0.1875 1.234375q0.1875 0.5 0.515625 0.8125q0.34375 0.3125 0.78125 0.46875q0.453125 0.140625 0.96875 0.140625q0.296875 0 0.609375 -0.03125q0.3125 -0.03125 0.59375 -0.078125q0.28125 -0.046875 0.515625 -0.125q0.234375 -0.078125 0.40625 -0.171875l-0.1875 -0.9375q-0.125 0.015625 -0.3125 0.0625q-0.1875 0.03125 -0.40625 0.078125q-0.21875 0.03125 -0.453125 0.0625q-0.21875 0.015625 -0.4375 0.015625q-0.296875 0 -0.5625 -0.0625q-0.25 -0.078125 -0.453125 -0.25q-0.203125 -0.171875 -0.328125 -0.46875q-0.109375 -0.296875 -0.109375 -0.75l0 -4.203125l2.953125 0l0 -1.03125l-2.953125 0l0 -1.875zm5.873291 1.875l0 1.15625l2.640625 0l0 5.453125l-2.640625 0l0 1.140625l6.484375 0l0 -1.140625l-2.53125 0l0 -6.609375l-3.953125 0zm2.46875 -2.03125q0 0.328125 0.1875 0.546875q0.203125 0.203125 0.59375 0.203125q0.40625 0 0.59375 -0.203125q0.203125 -0.21875 0.203125 -0.546875q0 -0.171875 -0.0625 -0.3125q-0.046875 -0.15625 -0.15625 -0.265625q-0.09375 -0.09375 -0.25 -0.140625q-0.140625 -0.0625 -0.328125 -0.0625q-0.1875 0 -0.328125 0.0625q-0.140625 0.046875 -0.234375 0.140625q-0.125 0.109375 -0.171875 0.265625q-0.046875 0.140625 -0.046875 0.3125zm6.123291 9.78125l1.3125 0l0 -5.546875q0.140625 -0.25 0.3125 -0.453125q0.1875 -0.21875 0.40625 -0.375q0.265625 -0.1875 0.578125 -0.28125q0.3125 -0.109375 0.6875 -0.109375q0.421875 0 0.75 0.109375q0.328125 0.09375 0.546875 0.3125q0.21875 0.21875 0.328125 0.578125q0.125 0.359375 0.125 0.875l0 4.890625l1.328125 0l0 -4.921875q0 -0.765625 -0.1875 -1.328125q-0.1875 -0.5625 -0.546875 -0.921875q-0.34375 -0.375 -0.84375 -0.546875q-0.5 -0.171875 -1.109375 -0.171875q-0.453125 0.015625 -0.859375 0.140625q-0.40625 0.125 -0.75 0.34375q-0.21875 0.15625 -0.421875 0.359375q-0.203125 0.203125 -0.375 0.453125l-0.09375 -1.15625l-1.1875 0l0 7.75zm8.545166 -3.9375l0 0.15625q0 0.828125 0.21875 1.546875q0.21875 0.71875 0.609375 1.25q0.390625 0.53125 0.96875 0.828125q0.578125 0.296875 1.28125 0.296875q0.421875 0 0.78125 -0.09375q0.375 -0.078125 0.671875 -0.25q0.1875 -0.109375 0.359375 -0.25q0.171875 -0.140625 0.328125 -0.3125l0 0.671875q0 0.5 -0.15625 0.875q-0.140625 0.390625 -0.40625 0.65625q-0.265625 0.265625 -0.65625 0.390625q-0.375 0.140625 -0.84375 0.140625q-0.265625 0 -0.53125 -0.0625q-0.265625 -0.046875 -0.53125 -0.171875q-0.265625 -0.109375 -0.53125 -0.328125q-0.25 -0.203125 -0.484375 -0.484375l-0.6875 0.78125q0.265625 0.390625 0.625 0.640625q0.375 0.265625 0.78125 0.40625q0.390625 0.15625 0.765625 0.21875q0.390625 0.078125 0.703125 0.078125q0.71875 0 1.3125 -0.21875q0.609375 -0.203125 1.046875 -0.625q0.4375 -0.40625 0.671875 -1.015625q0.234375 -0.59375 0.234375 -1.359375l0 -7.578125l-1.203125 0l-0.0625 0.84375q-0.125 -0.171875 -0.28125 -0.3125q-0.15625 -0.140625 -0.328125 -0.25q-0.3125 -0.203125 -0.703125 -0.3125q-0.390625 -0.109375 -0.859375 -0.109375q-0.71875 0 -1.296875 0.296875q-0.578125 0.296875 -0.96875 0.8125q-0.40625 0.53125 -0.625 1.265625q-0.203125 0.71875 -0.203125 1.578125zm1.328125 0.15625l0 -0.15625q0 -0.5625 0.109375 -1.078125q0.125 -0.515625 0.375 -0.90625q0.25 -0.390625 0.640625 -0.609375q0.40625 -0.234375 0.96875 -0.234375q0.328125 0 0.59375 0.09375q0.28125 0.078125 0.5 0.21875q0.21875 0.140625 0.390625 0.34375q0.171875 0.203125 0.3125 0.453125l0 3.546875q-0.140625 0.25 -0.3125 0.453125q-0.171875 0.203125 -0.375 0.359375q-0.234375 0.15625 -0.515625 0.234375q-0.265625 0.078125 -0.609375 0.078125q-0.546875 0 -0.953125 -0.21875q-0.390625 -0.234375 -0.640625 -0.609375q-0.25 -0.390625 -0.375 -0.890625q-0.109375 -0.515625 -0.109375 -1.078125zm17.996643 2.65625l0 -9.296875l-1.3125 0l0 10.421875l6.421875 0l0 -1.125l-5.109375 0zm6.935791 -2.8125l0 0.15625q0 0.828125 0.234375 1.546875q0.25 0.71875 0.703125 1.25q0.453125 0.53125 1.109375 0.828125q0.65625 0.296875 1.484375 0.296875q0.8125 0 1.453125 -0.296875q0.65625 -0.296875 1.125 -0.828125q0.4375 -0.53125 0.6875 -1.25q0.25 -0.71875 0.25 -1.546875l0 -0.15625q0 -0.84375 -0.25 -1.5625q-0.25 -0.71875 -0.6875 -1.25q-0.46875 -0.53125 -1.125 -0.828125q-0.65625 -0.3125 -1.46875 -0.3125q-0.8125 0 -1.46875 0.3125q-0.65625 0.296875 -1.109375 0.828125q-0.453125 0.53125 -0.703125 1.25q-0.234375 0.71875 -0.234375 1.5625zm1.328125 0.15625l0 -0.15625q0 -0.578125 0.125 -1.09375q0.140625 -0.515625 0.421875 -0.90625q0.265625 -0.390625 0.671875 -0.625q0.40625 -0.234375 0.96875 -0.234375q0.546875 0 0.953125 0.234375q0.421875 0.234375 0.703125 0.625q0.265625 0.390625 0.40625 0.90625q0.140625 0.515625 0.140625 1.09375l0 0.15625q0 0.5625 -0.140625 1.09375q-0.140625 0.515625 -0.40625 0.90625q-0.28125 0.390625 -0.703125 0.625q-0.40625 0.21875 -0.9375 0.21875q-0.5625 0 -0.984375 -0.21875q-0.40625 -0.234375 -0.671875 -0.625q-0.28125 -0.390625 -0.421875 -0.90625q-0.125 -0.53125 -0.125 -1.09375zm7.592041 -0.15625l0 0.15625q0 0.828125 0.21875 1.546875q0.21875 0.71875 0.609375 1.25q0.390625 0.53125 0.96875 0.828125q0.578125 0.296875 1.28125 0.296875q0.421875 0 0.78125 -0.09375q0.375 -0.078125 0.671875 -0.25q0.1875 -0.109375 0.359375 -0.25q0.171875 -0.140625 0.328125 -0.3125l0 0.671875q0 0.5 -0.15625 0.875q-0.140625 0.390625 -0.40625 0.65625q-0.265625 0.265625 -0.65625 0.390625q-0.375 0.140625 -0.84375 0.140625q-0.265625 0 -0.53125 -0.0625q-0.265625 -0.046875 -0.53125 -0.171875q-0.265625 -0.109375 -0.53125 -0.328125q-0.25 -0.203125 -0.484375 -0.484375l-0.6875 0.78125q0.265625 0.390625 0.625 0.640625q0.375 0.265625 0.78125 0.40625q0.390625 0.15625 0.765625 0.21875q0.390625 0.078125 0.703125 0.078125q0.71875 0 1.3125 -0.21875q0.609375 -0.203125 1.046875 -0.625q0.4375 -0.40625 0.671875 -1.015625q0.234375 -0.59375 0.234375 -1.359375l0 -7.578125l-1.203125 0l-0.0625 0.84375q-0.125 -0.171875 -0.28125 -0.3125q-0.15625 -0.140625 -0.328125 -0.25q-0.3125 -0.203125 -0.703125 -0.3125q-0.390625 -0.109375 -0.859375 -0.109375q-0.71875 0 -1.296875 0.296875q-0.578125 0.296875 -0.96875 0.8125q-0.40625 0.53125 -0.625 1.265625q-0.203125 0.71875 -0.203125 1.578125zm1.328125 0.15625l0 -0.15625q0 -0.5625 0.109375 -1.078125q0.125 -0.515625 0.375 -0.90625q0.25 -0.390625 0.640625 -0.609375q0.40625 -0.234375 0.96875 -0.234375q0.328125 0 0.59375 0.09375q0.28125 0.078125 0.5 0.21875q0.21875 0.140625 0.390625 0.34375q0.171875 0.203125 0.3125 0.453125l0 3.546875q-0.140625 0.25 -0.3125 0.453125q-0.171875 0.203125 -0.375 0.359375q-0.234375 0.15625 -0.515625 0.234375q-0.265625 0.078125 -0.609375 0.078125q-0.546875 0 -0.953125 -0.21875q-0.390625 -0.234375 -0.640625 -0.609375q-0.25 -0.390625 -0.375 -0.890625q-0.109375 -0.515625 -0.109375 -1.078125zm7.920227 -3.96875l0 1.15625l2.640625 0l0 5.453125l-2.640625 0l0 1.140625l6.484375 0l0 -1.140625l-2.53125 0l0 -6.609375l-3.953125 0zm2.46875 -2.03125q0 0.328125 0.1875 0.546875q0.203125 0.203125 0.59375 0.203125q0.40625 0 0.59375 -0.203125q0.203125 -0.21875 0.203125 -0.546875q0 -0.171875 -0.0625 -0.3125q-0.046875 -0.15625 -0.15625 -0.265625q-0.09375 -0.09375 -0.25 -0.140625q-0.140625 -0.0625 -0.328125 -0.0625q-0.1875 0 -0.328125 0.0625q-0.140625 0.046875 -0.234375 0.140625q-0.125 0.109375 -0.171875 0.265625q-0.046875 0.140625 -0.046875 0.3125zm9.420166 8.84375q-0.625 0 -1.046875 -0.234375q-0.421875 -0.25 -0.671875 -0.65625q-0.25 -0.390625 -0.359375 -0.890625q-0.109375 -0.5 -0.109375 -1.0l0 -0.296875q0 -0.5 0.109375 -1.0q0.109375 -0.5 0.359375 -0.890625q0.265625 -0.40625 0.671875 -0.640625q0.421875 -0.25 1.046875 -0.25q0.390625 0 0.734375 0.140625q0.359375 0.125 0.609375 0.359375q0.25 0.25 0.390625 0.5625q0.15625 0.296875 0.15625 0.65625l1.25 0q0 -0.59375 -0.234375 -1.109375q-0.234375 -0.515625 -0.640625 -0.890625q-0.421875 -0.375 -1.0 -0.59375q-0.578125 -0.21875 -1.265625 -0.21875q-0.875 0 -1.546875 0.328125q-0.65625 0.3125 -1.09375 0.828125q-0.4375 0.546875 -0.671875 1.25q-0.21875 0.703125 -0.21875 1.46875l0 0.296875q0 0.765625 0.21875 1.46875q0.234375 0.703125 0.671875 1.234375q0.4375 0.53125 1.09375 0.84375q0.671875 0.3125 1.546875 0.3125q0.609375 0 1.171875 -0.203125q0.578125 -0.21875 1.015625 -0.578125q0.421875 -0.34375 0.6875 -0.8125q0.265625 -0.46875 0.265625 -0.984375l-1.25 0q0 0.3125 -0.171875 0.59375q-0.15625 0.28125 -0.421875 0.484375q-0.265625 0.203125 -0.609375 0.3125q-0.328125 0.109375 -0.6875 0.109375z" fill-rule="nonzero"/><path fill="#000000" d="m458.4987 178.27034l0 0c0 -3.2615204 2.643982 -5.9055176 5.9055176 -5.9055176l0 0c1.5662231 0 3.0683289 0.6221924 4.175812 1.7296906c1.1075134 1.1074982 1.7297058 2.6095886 1.7297058 4.175827l0 0c0 3.2615204 -2.6440125 5.9055176 -5.9055176 5.9055176l0 0c-3.2615356 0 -5.9055176 -2.6439972 -5.9055176 -5.9055176z" fill-rule="evenodd"/><path stroke="#000000" stroke-width="1.0" stroke-linejoin="round" stroke-linecap="butt" d="m458.4987 178.27034l0 0c0 -3.2615204 2.643982 -5.9055176 5.9055176 -5.9055176l0 0c1.5662231 0 3.0683289 0.6221924 4.175812 1.7296906c1.1075134 1.1074982 1.7297058 2.6095886 1.7297058 4.175827l0 0c0 3.2615204 -2.6440125 5.9055176 -5.9055176 5.9055176l0 0c-3.2615356 0 -5.9055176 -2.6439972 -5.9055176 -5.9055176z" fill-rule="evenodd"/><path fill="#000000" d="m458.4987 198.6378l0 0c0 -3.2615356 2.643982 -5.9055176 5.9055176 -5.9055176l0 0c1.5662231 0 3.0683289 0.6221924 4.175812 1.7296906c1.1075134 1.1074982 1.7297058 2.6095886 1.7297058 4.175827l0 0c0 3.2615204 -2.6440125 5.9055023 -5.9055176 5.9055023l0 0c-3.2615356 0 -5.9055176 -2.643982 -5.9055176 -5.9055023z" fill-rule="evenodd"/><path stroke="#000000" stroke-width="1.0" stroke-linejoin="round" stroke-linecap="butt" d="m458.4987 198.6378l0 0c0 -3.2615356 2.643982 -5.9055176 5.9055176 -5.9055176l0 0c1.5662231 0 3.0683289 0.6221924 4.175812 1.7296906c1.1075134 1.1074982 1.7297058 2.6095886 1.7297058 4.175827l0 0c0 3.2615204 -2.6440125 5.9055023 -5.9055176 5.9055023l0 0c-3.2615356 0 -5.9055176 -2.643982 -5.9055176 -5.9055023z" fill-rule="evenodd"/><path fill="#000000" d="m458.4987 241.87665l0 0c0 -3.2615356 2.643982 -5.9055176 5.9055176 -5.9055176l0 0c1.5662231 0 3.0683289 0.6221771 4.175812 1.7296753c1.1075134 1.1074982 1.7297058 2.6095886 1.7297058 4.1758423l0 0c0 3.2615204 -2.6440125 5.9055023 -5.9055176 5.9055023l0 0c-3.2615356 0 -5.9055176 -2.643982 -5.9055176 -5.9055023z" fill-rule="evenodd"/><path stroke="#000000" stroke-width="1.0" stroke-linejoin="round" stroke-linecap="butt" d="m458.4987 241.87665l0 0c0 -3.2615356 2.643982 -5.9055176 5.9055176 -5.9055176l0 0c1.5662231 0 3.0683289 0.6221771 4.175812 1.7296753c1.1075134 1.1074982 1.7297058 2.6095886 1.7297058 4.1758423l0 0c0 3.2615204 -2.6440125 5.9055023 -5.9055176 5.9055023l0 0c-3.2615356 0 -5.9055176 -2.643982 -5.9055176 -5.9055023z" fill-rule="evenodd"/><path fill="#000000" d="m458.4987 262.24408l0 0c0 -3.2615051 2.643982 -5.905487 5.9055176 -5.905487l0 0c1.5662231 0 3.0683289 0.62216187 4.175812 1.7296753c1.1075134 1.1074829 1.7297058 2.6095886 1.7297058 4.175812l0 0c0 3.2615356 -2.6440125 5.9055176 -5.9055176 5.9055176l0 0c-3.2615356 0 -5.9055176 -2.643982 -5.9055176 -5.9055176z" fill-rule="evenodd"/><path stroke="#000000" stroke-width="1.0" stroke-linejoin="round" stroke-linecap="butt" d="m458.4987 262.24408l0 0c0 -3.2615051 2.643982 -5.905487 5.9055176 -5.905487l0 0c1.5662231 0 3.0683289 0.62216187 4.175812 1.7296753c1.1075134 1.1074829 1.7297058 2.6095886 1.7297058 4.175812l0 0c0 3.2615356 -2.6440125 5.9055176 -5.9055176 5.9055176l0 0c-3.2615356 0 -5.9055176 -2.643982 -5.9055176 -5.9055176z" fill-rule="evenodd"/><path fill="#000000" d="m458.4987 306.69028l0 0c0 -3.2615051 2.643982 -5.905487 5.9055176 -5.905487l0 0c1.5662231 0 3.0683289 0.62216187 4.175812 1.7296753c1.1075134 1.1074829 1.7297058 2.6095886 1.7297058 4.175812l0 0c0 3.2615356 -2.6440125 5.9055176 -5.9055176 5.9055176l0 0c-3.2615356 0 -5.9055176 -2.643982 -5.9055176 -5.9055176z" fill-rule="evenodd"/><path stroke="#000000" stroke-width="1.0" stroke-linejoin="round" stroke-linecap="butt" d="m458.4987 306.69028l0 0c0 -3.2615051 2.643982 -5.905487 5.9055176 -5.905487l0 0c1.5662231 0 3.0683289 0.62216187 4.175812 1.7296753c1.1075134 1.1074829 1.7297058 2.6095886 1.7297058 4.175812l0 0c0 3.2615356 -2.6440125 5.9055176 -5.9055176 5.9055176l0 0c-3.2615356 0 -5.9055176 -2.643982 -5.9055176 -5.9055176z" fill-rule="evenodd"/><path fill="#000000" d="m458.4987 327.05774l0 0c0 -3.2615356 2.643982 -5.9055176 5.9055176 -5.9055176l0 0c1.5662231 0 3.0683289 0.6221924 4.175812 1.7297058c1.1075134 1.1074829 1.7297058 2.6095886 1.7297058 4.175812l0 0c0 3.2615356 -2.6440125 5.9055176 -5.9055176 5.9055176l0 0c-3.2615356 0 -5.9055176 -2.643982 -5.9055176 -5.9055176z" fill-rule="evenodd"/><path stroke="#000000" stroke-width="1.0" stroke-linejoin="round" stroke-linecap="butt" d="m458.4987 327.05774l0 0c0 -3.2615356 2.643982 -5.9055176 5.9055176 -5.9055176l0 0c1.5662231 0 3.0683289 0.6221924 4.175812 1.7297058c1.1075134 1.1074829 1.7297058 2.6095886 1.7297058 4.175812l0 0c0 3.2615356 -2.6440125 5.9055176 -5.9055176 5.9055176l0 0c-3.2615356 0 -5.9055176 -2.643982 -5.9055176 -5.9055176z" fill-rule="evenodd"/><path fill="#000000" d="m458.4987 371.50394l0 0c0 -3.2615356 2.643982 -5.9055176 5.9055176 -5.9055176l0 0c1.5662231 0 3.0683289 0.6221924 4.175812 1.7296753c1.1075134 1.1075134 1.7297058 2.6095886 1.7297058 4.1758423l0 0c0 3.2615356 -2.6440125 5.9055176 -5.9055176 5.9055176l0 0c-3.2615356 0 -5.9055176 -2.643982 -5.9055176 -5.9055176z" fill-rule="evenodd"/><path stroke="#000000" stroke-width="1.0" stroke-linejoin="round" stroke-linecap="butt" d="m458.4987 371.50394l0 0c0 -3.2615356 2.643982 -5.9055176 5.9055176 -5.9055176l0 0c1.5662231 0 3.0683289 0.6221924 4.175812 1.7296753c1.1075134 1.1075134 1.7297058 2.6095886 1.7297058 4.1758423l0 0c0 3.2615356 -2.6440125 5.9055176 -5.9055176 5.9055176l0 0c-3.2615356 0 -5.9055176 -2.643982 -5.9055176 -5.9055176z" fill-rule="evenodd"/><path fill="#000000" d="m458.4987 391.8714l0 0c0 -3.2615356 2.643982 -5.9055176 5.9055176 -5.9055176l0 0c1.5662231 0 3.0683289 0.6221924 4.175812 1.7296753c1.1075134 1.1075134 1.7297058 2.6095886 1.7297058 4.1758423l0 0c0 3.2615051 -2.6440125 5.9055176 -5.9055176 5.9055176l0 0c-3.2615356 0 -5.9055176 -2.6440125 -5.9055176 -5.9055176z" fill-rule="evenodd"/><path stroke="#000000" stroke-width="1.0" stroke-linejoin="round" stroke-linecap="butt" d="m458.4987 391.8714l0 0c0 -3.2615356 2.643982 -5.9055176 5.9055176 -5.9055176l0 0c1.5662231 0 3.0683289 0.6221924 4.175812 1.7296753c1.1075134 1.1075134 1.7297058 2.6095886 1.7297058 4.1758423l0 0c0 3.2615051 -2.6440125 5.9055176 -5.9055176 5.9055176l0 0c-3.2615356 0 -5.9055176 -2.6440125 -5.9055176 -5.9055176z" fill-rule="evenodd"/><path fill="#000000" d="m458.4987 438.7533l0 0c0 -3.2615356 2.643982 -5.9055176 5.9055176 -5.9055176l0 0c1.5662231 0 3.0683289 0.62216187 4.175812 1.7296753c1.1075134 1.1074829 1.7297058 2.6095886 1.7297058 4.1758423l0 0c0 3.2615051 -2.6440125 5.905487 -5.9055176 5.905487l0 0c-3.2615356 0 -5.9055176 -2.643982 -5.9055176 -5.905487z" fill-rule="evenodd"/><path stroke="#000000" stroke-width="1.0" stroke-linejoin="round" stroke-linecap="butt" d="m458.4987 438.7533l0 0c0 -3.2615356 2.643982 -5.9055176 5.9055176 -5.9055176l0 0c1.5662231 0 3.0683289 0.62216187 4.175812 1.7296753c1.1075134 1.1074829 1.7297058 2.6095886 1.7297058 4.1758423l0 0c0 3.2615051 -2.6440125 5.905487 -5.9055176 5.905487l0 0c-3.2615356 0 -5.9055176 -2.643982 -5.9055176 -5.905487z" fill-rule="evenodd"/><path fill="#000000" d="m458.4987 459.12073l0 0c0 -3.2615051 2.643982 -5.9055176 5.9055176 -5.9055176l0 0c1.5662231 0 3.0683289 0.6221924 4.175812 1.7297058c1.1075134 1.1074829 1.7297058 2.6095886 1.7297058 4.175812l0 0c0 3.2615356 -2.6440125 5.9055176 -5.9055176 5.9055176l0 0c-3.2615356 0 -5.9055176 -2.643982 -5.9055176 -5.9055176z" fill-rule="evenodd"/><path stroke="#000000" stroke-width="1.0" stroke-linejoin="round" stroke-linecap="butt" d="m458.4987 459.12073l0 0c0 -3.2615051 2.643982 -5.9055176 5.9055176 -5.9055176l0 0c1.5662231 0 3.0683289 0.6221924 4.175812 1.7297058c1.1075134 1.1074829 1.7297058 2.6095886 1.7297058 4.175812l0 0c0 3.2615356 -2.6440125 5.9055176 -5.9055176 5.9055176l0 0c-3.2615356 0 -5.9055176 -2.643982 -5.9055176 -5.9055176z" fill-rule="evenodd"/><path fill="#000000" fill-opacity="0.0" d="m317.82678 197.82677l130.86612 0" fill-rule="evenodd"/><path stroke="#000000" stroke-width="1.0" stroke-linejoin="round" stroke-linecap="butt" d="m317.82678 197.82677l124.86612 0" fill-rule="evenodd"/><path fill="#000000" stroke="#000000" stroke-width="1.0" stroke-linecap="butt" d="m442.6929 199.4785l4.5381165 -1.6517334l-4.5381165 -1.6517334z" fill-rule="evenodd"/><path fill="#000000" fill-opacity="0.0" d="m449.5643 178.27034l-130.51968 0" fill-rule="evenodd"/><path stroke="#000000" stroke-width="1.0" stroke-linejoin="round" stroke-linecap="butt" d="m449.5643 178.27034l-124.519684 0" fill-rule="evenodd"/><path fill="#000000" stroke="#000000" stroke-width="1.0" stroke-linecap="butt" d="m325.04462 176.6186l-4.538086 1.6517334l4.538086 1.6517334z" fill-rule="evenodd"/><path fill="#000000" fill-opacity="0.0" d="m323.34384 261.8386l130.86612 0" fill-rule="evenodd"/><path stroke="#000000" stroke-width="1.0" stroke-linejoin="round" stroke-linecap="butt" d="m323.34384 261.8386l124.86612 0" fill-rule="evenodd"/><path fill="#000000" stroke="#000000" stroke-width="1.0" stroke-linecap="butt" d="m448.20996 263.49033l4.5381165 -1.6517334l-4.5381165 -1.6517334z" fill-rule="evenodd"/><path fill="#000000" fill-opacity="0.0" d="m455.08136 242.28215l-130.51968 0" fill-rule="evenodd"/><path stroke="#000000" stroke-width="1.0" stroke-linejoin="round" stroke-linecap="butt" d="m455.08136 242.28215l-124.519684 0" fill-rule="evenodd"/><path fill="#000000" stroke="#000000" stroke-width="1.0" stroke-linecap="butt" d="m330.56168 240.63042l-4.538086 1.6517334l4.538086 1.6517334z" fill-rule="evenodd"/><path fill="#000000" fill-opacity="0.0" d="m318.4357 326.65222l130.86615 0" fill-rule="evenodd"/><path stroke="#000000" stroke-width="1.0" stroke-linejoin="round" stroke-linecap="butt" d="m318.4357 326.65222l124.86615 0" fill-rule="evenodd"/><path fill="#000000" stroke="#000000" stroke-width="1.0" stroke-linecap="butt" d="m443.30185 328.30396l4.538086 -1.6517334l-4.538086 -1.6517334z" fill-rule="evenodd"/><path fill="#000000" fill-opacity="0.0" d="m450.17322 307.0958l-130.51968 0" fill-rule="evenodd"/><path stroke="#000000" stroke-width="1.0" stroke-linejoin="round" stroke-linecap="butt" d="m450.17322 307.0958l-124.519684 0" fill-rule="evenodd"/><path fill="#000000" stroke="#000000" stroke-width="1.0" stroke-linecap="butt" d="m325.65353 305.44406l-4.538086 1.6517334l4.538086 1.6517334z" fill-rule="evenodd"/><path fill="#000000" fill-opacity="0.0" d="m320.29004 389.93045l130.86612 0" fill-rule="evenodd"/><path stroke="#000000" stroke-width="1.0" stroke-linejoin="round" stroke-linecap="butt" d="m320.29004 389.93045l124.86612 0" fill-rule="evenodd"/><path fill="#000000" stroke="#000000" stroke-width="1.0" stroke-linecap="butt" d="m445.15616 391.58218l4.5381165 -1.6517334l-4.5381165 -1.6517334z" fill-rule="evenodd"/><path fill="#000000" fill-opacity="0.0" d="m452.02756 370.37402l-130.51968 0" fill-rule="evenodd"/><path stroke="#000000" stroke-width="1.0" stroke-linejoin="round" stroke-linecap="butt" d="m452.02756 370.37402l-124.519684 0" fill-rule="evenodd"/><path fill="#000000" stroke="#000000" stroke-width="1.0" stroke-linecap="butt" d="m327.50787 368.7223l-4.538086 1.6517334l4.538086 1.6517334z" fill-rule="evenodd"/><path fill="#000000" fill-opacity="0.0" d="m320.90027 455.48032l130.86615 0" fill-rule="evenodd"/><path stroke="#000000" stroke-width="1.0" stroke-linejoin="round" stroke-linecap="butt" d="m320.90027 455.48032l124.86615 0" fill-rule="evenodd"/><path fill="#000000" stroke="#000000" stroke-width="1.0" stroke-linecap="butt" d="m445.76642 457.13205l4.538086 -1.6517334l-4.538086 -1.6517334z" fill-rule="evenodd"/><path fill="#000000" fill-opacity="0.0" d="m452.6378 435.9239l-130.51968 0" fill-rule="evenodd"/><path stroke="#000000" stroke-width="1.0" stroke-linejoin="round" stroke-linecap="butt" d="m452.6378 435.9239l-124.519684 0" fill-rule="evenodd"/><path fill="#000000" stroke="#000000" stroke-width="1.0" stroke-linecap="butt" d="m328.1181 434.27216l-4.538086 1.6517334l4.538086 1.6517334z" fill-rule="evenodd"/><path fill="#000000" d="m594.6483 475.5538l0 0c3.2614746 0 5.9055176 2.643982 5.9055176 5.9055176l0 0c0 1.5662231 -0.6221924 3.0683289 -1.7297363 4.175812c-1.1074829 1.1075134 -2.609558 1.7297058 -4.1757812 1.7297058l0 0c-3.2615356 0 -5.9055176 -2.643982 -5.9055176 -5.9055176l0 0c0 -3.2615356 2.643982 -5.9055176 5.9055176 -5.9055176z" fill-rule="evenodd"/><path stroke="#000000" stroke-width="1.0" stroke-linejoin="round" stroke-linecap="butt" d="m594.6483 475.5538l0 0c3.2614746 0 5.9055176 2.643982 5.9055176 5.9055176l0 0c0 1.5662231 -0.6221924 3.0683289 -1.7297363 4.175812c-1.1074829 1.1075134 -2.609558 1.7297058 -4.1757812 1.7297058l0 0c-3.2615356 0 -5.9055176 -2.643982 -5.9055176 -5.9055176l0 0c0 -3.2615356 2.643982 -5.9055176 5.9055176 -5.9055176z" fill-rule="evenodd"/><path fill="#000000" d="m574.2808 475.5538l0 0c3.2615356 0 5.9055176 2.643982 5.9055176 5.9055176l0 0c0 1.5662231 -0.6221924 3.0683289 -1.7296753 4.175812c-1.1074829 1.1075134 -2.609558 1.7297058 -4.1758423 1.7297058l0 0c-3.2615356 0 -5.9055176 -2.643982 -5.9055176 -5.9055176l0 0c0 -3.2615356 2.643982 -5.9055176 5.9055176 -5.9055176z" fill-rule="evenodd"/><path stroke="#000000" stroke-width="1.0" stroke-linejoin="round" stroke-linecap="butt" d="m574.2808 475.5538l0 0c3.2615356 0 5.9055176 2.643982 5.9055176 5.9055176l0 0c0 1.5662231 -0.6221924 3.0683289 -1.7296753 4.175812c-1.1074829 1.1075134 -2.609558 1.7297058 -4.1758423 1.7297058l0 0c-3.2615356 0 -5.9055176 -2.643982 -5.9055176 -5.9055176l0 0c0 -3.2615356 2.643982 -5.9055176 5.9055176 -5.9055176z" fill-rule="evenodd"/><path fill="#000000" fill-opacity="0.0" d="m574.2808 530.43567l0 -34.992096" fill-rule="evenodd"/><path stroke="#000000" stroke-width="1.0" stroke-linejoin="round" stroke-linecap="butt" d="m574.2808 530.43567l0 -28.992096" fill-rule="evenodd"/><path fill="#000000" stroke="#000000" stroke-width="1.0" stroke-linecap="butt" d="m575.93256 501.44357l-1.6517334 -4.538086l-1.6517334 4.538086z" fill-rule="evenodd"/><path fill="#000000" fill-opacity="0.0" d="m594.6483 494.44882l0 36.850372" fill-rule="evenodd"/><path stroke="#000000" stroke-width="1.0" stroke-linejoin="round" stroke-linecap="butt" d="m594.6483 494.44882l0 30.850372" fill-rule="evenodd"/><path fill="#000000" stroke="#000000" stroke-width="1.0" stroke-linecap="butt" d="m592.9966 525.2992l1.6517334 4.538086l1.6517334 -4.538086z" fill-rule="evenodd"/><path fill="#cfe2f3" d="m182.42783 230.14961l130.51968 0l0 45.32283l-130.51968 0z" fill-rule="evenodd"/><path stroke="#000000" stroke-width="1.0" stroke-linejoin="round" stroke-linecap="butt" d="m182.42783 230.14961l130.51968 0l0 45.32283l-130.51968 0z" fill-rule="evenodd"/><path fill="#000000" d="m197.27391 259.73102l0 -13.359375l5.046875 0q1.328125 0 2.03125 0.125q0.96875 0.171875 1.640625 0.640625q0.671875 0.453125 1.078125 1.28125q0.40625 0.828125 0.40625 1.828125q0 1.703125 -1.09375 2.890625q-1.078125 1.171875 -3.921875 1.171875l-3.421875 0l0 5.421875l-1.765625 0zm1.765625 -7.0l3.453125 0q1.71875 0 2.4375 -0.640625q0.71875 -0.640625 0.71875 -1.796875q0 -0.84375 -0.421875 -1.4375q-0.421875 -0.59375 -1.125 -0.78125q-0.4375 -0.125 -1.640625 -0.125l-3.421875 0l0 4.78125zm16.787323 5.8125q-0.921875 0.765625 -1.765625 1.09375q-0.828125 0.3125 -1.796875 0.3125q-1.59375 0 -2.453125 -0.78125q-0.859375 -0.78125 -0.859375 -1.984375q0 -0.71875 0.328125 -1.296875q0.328125 -0.59375 0.84375 -0.9375q0.53125 -0.359375 1.1875 -0.546875q0.46875 -0.125 1.453125 -0.25q1.984375 -0.234375 2.921875 -0.5625q0.015625 -0.34375 0.015625 -0.421875q0 -1.0 -0.46875 -1.421875q-0.625 -0.546875 -1.875 -0.546875q-1.15625 0 -1.703125 0.40625q-0.546875 0.40625 -0.8125 1.421875l-1.609375 -0.21875q0.21875 -1.015625 0.71875 -1.640625q0.5 -0.640625 1.453125 -0.984375q0.953125 -0.34375 2.1875 -0.34375q1.25 0 2.015625 0.296875q0.78125 0.28125 1.140625 0.734375q0.375 0.4375 0.515625 1.109375q0.078125 0.421875 0.078125 1.515625l0 2.1875q0 2.28125 0.109375 2.890625q0.109375 0.59375 0.40625 1.15625l-1.703125 0q-0.265625 -0.515625 -0.328125 -1.1875zm-0.140625 -3.671875q-0.890625 0.375 -2.671875 0.625q-1.015625 0.140625 -1.4375 0.328125q-0.421875 0.1875 -0.65625 0.53125q-0.21875 0.34375 -0.21875 0.78125q0 0.65625 0.5 1.09375q0.5 0.4375 1.453125 0.4375q0.9375 0 1.671875 -0.40625q0.75 -0.421875 1.09375 -1.140625q0.265625 -0.5625 0.265625 -1.640625l0 -0.609375zm4.188217 4.859375l0 -9.671875l1.46875 0l0 1.46875q0.5625 -1.03125 1.03125 -1.359375q0.484375 -0.328125 1.0625 -0.328125q0.828125 0 1.6875 0.53125l-0.5625 1.515625q-0.609375 -0.359375 -1.203125 -0.359375q-0.546875 0 -0.96875 0.328125q-0.421875 0.328125 -0.609375 0.890625q-0.28125 0.875 -0.28125 1.921875l0 5.0625l-1.625 0zm9.806427 -1.46875l0.234375 1.453125q-0.6875 0.140625 -1.234375 0.140625q-0.890625 0 -1.390625 -0.28125q-0.484375 -0.28125 -0.6875 -0.734375q-0.203125 -0.46875 -0.203125 -1.9375l0 -5.578125l-1.203125 0l0 -1.265625l1.203125 0l0 -2.390625l1.625 -0.984375l0 3.375l1.65625 0l0 1.265625l-1.65625 0l0 5.671875q0 0.6875 0.078125 0.890625q0.09375 0.203125 0.28125 0.328125q0.203125 0.109375 0.578125 0.109375q0.265625 0 0.71875 -0.0625zm1.6051788 -10.0l0 -1.890625l1.640625 0l0 1.890625l-1.640625 0zm0 11.46875l0 -9.671875l1.640625 0l0 9.671875l-1.640625 0zm10.457321 -3.546875l1.609375 0.21875q-0.265625 1.65625 -1.359375 2.609375q-1.078125 0.9375 -2.671875 0.9375q-1.984375 0 -3.1875 -1.296875q-1.203125 -1.296875 -1.203125 -3.71875q0 -1.578125 0.515625 -2.75q0.515625 -1.171875 1.578125 -1.75q1.0625 -0.59375 2.3125 -0.59375q1.578125 0 2.578125 0.796875q1.0 0.796875 1.28125 2.265625l-1.59375 0.234375q-0.234375 -0.96875 -0.8125 -1.453125q-0.578125 -0.5 -1.390625 -0.5q-1.234375 0 -2.015625 0.890625q-0.78125 0.890625 -0.78125 2.8125q0 1.953125 0.75 2.84375q0.75 0.875 1.953125 0.875q0.96875 0 1.609375 -0.59375q0.65625 -0.59375 0.828125 -1.828125zm3.015625 -7.921875l0 -1.890625l1.640625 0l0 1.890625l-1.640625 0zm0 11.46875l0 -9.671875l1.640625 0l0 9.671875l-1.640625 0zm4.144821 3.703125l0 -13.375l1.484375 0l0 1.25q0.53125 -0.734375 1.1875 -1.09375q0.671875 -0.375 1.625 -0.375q1.234375 0 2.171875 0.640625q0.95310974 0.625 1.4374847 1.796875q0.484375 1.15625 0.484375 2.546875q0 1.484375 -0.53125 2.671875q-0.53125 1.1875 -1.5468597 1.828125q-1.015625 0.625 -2.140625 0.625q-0.8125 0 -1.46875 -0.34375q-0.65625 -0.34375 -1.0625 -0.875l0 4.703125l-1.640625 0zm1.484375 -8.484375q0 1.859375 0.75 2.765625q0.765625 0.890625 1.828125 0.890625q1.09375 0 1.875 -0.921875q0.78125 -0.9375 0.78125 -2.875q0 -1.84375 -0.765625 -2.765625q-0.75 -0.921875 -1.8125 -0.921875q-1.046875 0 -1.859375 0.984375q-0.796875 0.96875 -0.796875 2.84375zm15.203842 3.59375q-0.921875 0.765625 -1.765625 1.09375q-0.828125 0.3125 -1.796875 0.3125q-1.59375 0 -2.453125 -0.78125q-0.859375 -0.78125 -0.859375 -1.984375q0 -0.71875 0.328125 -1.296875q0.328125 -0.59375 0.84375 -0.9375q0.53125 -0.359375 1.1875 -0.546875q0.46875 -0.125 1.453125 -0.25q1.984375 -0.234375 2.921875 -0.5625q0.015625 -0.34375 0.015625 -0.421875q0 -1.0 -0.46875 -1.421875q-0.625 -0.546875 -1.875 -0.546875q-1.15625 0 -1.703125 0.40625q-0.546875 0.40625 -0.8125 1.421875l-1.609375 -0.21875q0.21875 -1.015625 0.71875 -1.640625q0.5 -0.640625 1.453125 -0.984375q0.953125 -0.34375 2.1875 -0.34375q1.25 0 2.015625 0.296875q0.78125 0.28125 1.140625 0.734375q0.375 0.4375 0.515625 1.109375q0.078125 0.421875 0.078125 1.515625l0 2.1875q0 2.28125 0.109375 2.890625q0.109375 0.59375 0.40625 1.15625l-1.703125 0q-0.265625 -0.515625 -0.328125 -1.1875zm-0.140625 -3.671875q-0.890625 0.375 -2.671875 0.625q-1.015625 0.140625 -1.4375 0.328125q-0.421875 0.1875 -0.65625 0.53125q-0.21875 0.34375 -0.21875 0.78125q0 0.65625 0.5 1.09375q0.5 0.4375 1.453125 0.4375q0.9375 0 1.671875 -0.40625q0.75 -0.421875 1.09375 -1.140625q0.265625 -0.5625 0.265625 -1.640625l0 -0.609375zm4.203827 4.859375l0 -9.671875l1.46875 0l0 1.375q1.0625 -1.59375 3.078125 -1.59375q0.875 0 1.609375 0.3125q0.734375 0.3125 1.09375 0.828125q0.375 0.5 0.515625 1.203125q0.09375 0.453125 0.09375 1.59375l0 5.953125l-1.640625 0l0 -5.890625q0 -1.0 -0.203125 -1.484375q-0.1875 -0.5 -0.671875 -0.796875q-0.484375 -0.296875 -1.140625 -0.296875q-1.046875 0 -1.8125 0.671875q-0.75 0.65625 -0.75 2.515625l0 5.28125l-1.640625 0zm13.953857 -1.46875l0.234375 1.453125q-0.6875 0.140625 -1.234375 0.140625q-0.890625 0 -1.390625 -0.28125q-0.484375 -0.28125 -0.6875 -0.734375q-0.203125 -0.46875 -0.203125 -1.9375l0 -5.578125l-1.203125 0l0 -1.265625l1.203125 0l0 -2.390625l1.625 -0.984375l0 3.375l1.65625 0l0 1.265625l-1.65625 0l0 5.671875q0 0.6875 0.078125 0.890625q0.09375 0.203125 0.28125 0.328125q0.203125 0.109375 0.578125 0.109375q0.265625 0 0.71875 -0.0625zm14.944733 -0.109375l0 1.578125l-8.828125 0q-0.015625 -0.59375 0.1875 -1.140625q0.34375 -0.90625 1.078125 -1.78125q0.75 -0.875 2.15625 -2.015625q2.171875 -1.78125 2.9375 -2.828125q0.765625 -1.046875 0.765625 -1.96875q0 -0.984375 -0.703125 -1.640625q-0.6875 -0.671875 -1.8125 -0.671875q-1.1875 0 -1.90625 0.71875q-0.703125 0.703125 -0.703125 1.953125l-1.6875 -0.171875q0.171875 -1.890625 1.296875 -2.875q1.140625 -0.984375 3.03125 -0.984375q1.921875 0 3.046875 1.0625q1.125 1.0625 1.125 2.640625q0 0.796875 -0.328125 1.578125q-0.328125 0.78125 -1.09375 1.640625q-0.75 0.84375 -2.53125 2.34375q-1.46875 1.234375 -1.890625 1.6875q-0.421875 0.4375 -0.6875 0.875l6.546875 0z" fill-rule="nonzero"/><path fill="#cfe2f3" d="m178.71916 295.7139l130.51967 0l0 45.322845l-130.51967 0z" fill-rule="evenodd"/><path stroke="#000000" stroke-width="1.0" stroke-linejoin="round" stroke-linecap="butt" d="m178.71916 295.7139l130.51967 0l0 45.322845l-130.51967 0z" fill-rule="evenodd"/><path fill="#000000" d="m193.56525 325.29532l0 -13.359375l5.046875 0q1.328125 0 2.03125 0.125q0.96875 0.171875 1.640625 0.640625q0.671875 0.453125 1.078125 1.28125q0.40625 0.828125 0.40625 1.828125q0 1.703125 -1.09375 2.890625q-1.078125 1.171875 -3.921875 1.171875l-3.421875 0l0 5.421875l-1.765625 0zm1.765625 -7.0l3.453125 0q1.71875 0 2.4375 -0.640625q0.71875 -0.640625 0.71875 -1.796875q0 -0.84375 -0.421875 -1.4375q-0.421875 -0.59375 -1.125 -0.78125q-0.4375 -0.125 -1.640625 -0.125l-3.421875 0l0 4.78125zm16.787323 5.8125q-0.921875 0.765625 -1.765625 1.09375q-0.828125 0.3125 -1.796875 0.3125q-1.59375 0 -2.453125 -0.78125q-0.859375 -0.78125 -0.859375 -1.984375q0 -0.71875 0.328125 -1.296875q0.328125 -0.59375 0.84375 -0.9375q0.53125 -0.359375 1.1875 -0.546875q0.46875 -0.125 1.453125 -0.25q1.984375 -0.234375 2.921875 -0.5625q0.015625 -0.34375 0.015625 -0.421875q0 -1.0 -0.46875 -1.421875q-0.625 -0.546875 -1.875 -0.546875q-1.15625 0 -1.703125 0.40625q-0.546875 0.40625 -0.8125 1.421875l-1.609375 -0.21875q0.21875 -1.015625 0.71875 -1.640625q0.5 -0.640625 1.453125 -0.984375q0.953125 -0.34375 2.1875 -0.34375q1.25 0 2.015625 0.296875q0.78125 0.28125 1.140625 0.734375q0.375 0.4375 0.515625 1.109375q0.078125 0.421875 0.078125 1.515625l0 2.1875q0 2.28125 0.109375 2.890625q0.109375 0.59375 0.40625 1.15625l-1.703125 0q-0.265625 -0.515625 -0.328125 -1.1875zm-0.140625 -3.671875q-0.890625 0.375 -2.671875 0.625q-1.015625 0.140625 -1.4375 0.328125q-0.421875 0.1875 -0.65625 0.53125q-0.21875 0.34375 -0.21875 0.78125q0 0.65625 0.5 1.09375q0.5 0.4375 1.453125 0.4375q0.9375 0 1.671875 -0.40625q0.75 -0.421875 1.09375 -1.140625q0.265625 -0.5625 0.265625 -1.640625l0 -0.609375zm4.188217 4.859375l0 -9.671875l1.46875 0l0 1.46875q0.5625 -1.03125 1.03125 -1.359375q0.484375 -0.328125 1.0625 -0.328125q0.828125 0 1.6875 0.53125l-0.5625 1.515625q-0.609375 -0.359375 -1.203125 -0.359375q-0.546875 0 -0.96875 0.328125q-0.421875 0.328125 -0.609375 0.890625q-0.28125 0.875 -0.28125 1.921875l0 5.0625l-1.625 0zm9.806427 -1.46875l0.234375 1.453125q-0.6875 0.140625 -1.234375 0.140625q-0.890625 0 -1.390625 -0.28125q-0.484375 -0.28125 -0.6875 -0.734375q-0.203125 -0.46875 -0.203125 -1.9375l0 -5.578125l-1.203125 0l0 -1.265625l1.203125 0l0 -2.390625l1.625 -0.984375l0 3.375l1.65625 0l0 1.265625l-1.65625 0l0 5.671875q0 0.6875 0.078125 0.890625q0.09375 0.203125 0.28125 0.328125q0.203125 0.109375 0.578125 0.109375q0.265625 0 0.71875 -0.0625zm1.6051788 -10.0l0 -1.890625l1.640625 0l0 1.890625l-1.640625 0zm0 11.46875l0 -9.671875l1.640625 0l0 9.671875l-1.640625 0zm10.457321 -3.546875l1.609375 0.21875q-0.265625 1.65625 -1.359375 2.609375q-1.078125 0.9375 -2.671875 0.9375q-1.984375 0 -3.1875 -1.296875q-1.203125 -1.296875 -1.203125 -3.71875q0 -1.578125 0.515625 -2.75q0.515625 -1.171875 1.578125 -1.75q1.0625 -0.59375 2.3125 -0.59375q1.578125 0 2.578125 0.796875q1.0 0.796875 1.28125 2.265625l-1.59375 0.234375q-0.234375 -0.96875 -0.8125 -1.453125q-0.578125 -0.5 -1.390625 -0.5q-1.234375 0 -2.015625 0.890625q-0.78125 0.890625 -0.78125 2.8125q0 1.953125 0.75 2.84375q0.75 0.875 1.953125 0.875q0.96875 0 1.609375 -0.59375q0.65625 -0.59375 0.828125 -1.828125zm3.015625 -7.921875l0 -1.890625l1.640625 0l0 1.890625l-1.640625 0zm0 11.46875l0 -9.671875l1.640625 0l0 9.671875l-1.640625 0zm4.144821 3.703125l0 -13.375l1.484375 0l0 1.25q0.53125 -0.734375 1.1875 -1.09375q0.671875 -0.375 1.625 -0.375q1.234375 0 2.171875 0.640625q0.953125 0.625 1.4375 1.796875q0.484375 1.15625 0.484375 2.546875q0 1.484375 -0.53125 2.671875q-0.53125 1.1875 -1.546875 1.828125q-1.015625 0.625 -2.140625 0.625q-0.8125 0 -1.46875 -0.34375q-0.65625 -0.34375 -1.0625 -0.875l0 4.703125l-1.640625 0zm1.484375 -8.484375q0 1.859375 0.75 2.765625q0.765625 0.890625 1.828125 0.890625q1.09375 0 1.875 -0.921875q0.78125 -0.9375 0.78125 -2.875q0 -1.84375 -0.765625 -2.765625q-0.75 -0.921875 -1.8125 -0.921875q-1.046875 0 -1.859375 0.984375q-0.796875 0.96875 -0.796875 2.84375zm15.203827 3.59375q-0.921875 0.765625 -1.765625 1.09375q-0.828125 0.3125 -1.796875 0.3125q-1.59375 0 -2.4531097 -0.78125q-0.859375 -0.78125 -0.859375 -1.984375q0 -0.71875 0.328125 -1.296875q0.328125 -0.59375 0.84373474 -0.9375q0.53125 -0.359375 1.1875 -0.546875q0.46875 -0.125 1.453125 -0.25q1.984375 -0.234375 2.921875 -0.5625q0.015625 -0.34375 0.015625 -0.421875q0 -1.0 -0.46875 -1.421875q-0.625 -0.546875 -1.875 -0.546875q-1.15625 0 -1.703125 0.40625q-0.546875 0.40625 -0.8125 1.421875l-1.6093597 -0.21875q0.21875 -1.015625 0.71873474 -1.640625q0.5 -0.640625 1.453125 -0.984375q0.953125 -0.34375 2.1875 -0.34375q1.25 0 2.015625 0.296875q0.78125 0.28125 1.140625 0.734375q0.375 0.4375 0.515625 1.109375q0.078125 0.421875 0.078125 1.515625l0 2.1875q0 2.28125 0.109375 2.890625q0.109375 0.59375 0.40625 1.15625l-1.703125 0q-0.265625 -0.515625 -0.328125 -1.1875zm-0.140625 -3.671875q-0.890625 0.375 -2.671875 0.625q-1.015625 0.140625 -1.4375 0.328125q-0.421875 0.1875 -0.65625 0.53125q-0.21875 0.34375 -0.21875 0.78125q0 0.65625 0.5 1.09375q0.5 0.4375 1.453125 0.4375q0.9375 0 1.671875 -0.40625q0.75 -0.421875 1.09375 -1.140625q0.265625 -0.5625 0.265625 -1.640625l0 -0.609375zm4.2038574 4.859375l0 -9.671875l1.46875 0l0 1.375q1.0625 -1.59375 3.078125 -1.59375q0.875 0 1.609375 0.3125q0.734375 0.3125 1.09375 0.828125q0.375 0.5 0.515625 1.203125q0.09375 0.453125 0.09375 1.59375l0 5.953125l-1.640625 0l0 -5.890625q0 -1.0 -0.203125 -1.484375q-0.1875 -0.5 -0.671875 -0.796875q-0.484375 -0.296875 -1.140625 -0.296875q-1.046875 0 -1.8125 0.671875q-0.75 0.65625 -0.75 2.515625l0 5.28125l-1.640625 0zm13.953827 -1.46875l0.234375 1.453125q-0.6875 0.140625 -1.234375 0.140625q-0.890625 0 -1.390625 -0.28125q-0.484375 -0.28125 -0.6875 -0.734375q-0.203125 -0.46875 -0.203125 -1.9375l0 -5.578125l-1.203125 0l0 -1.265625l1.203125 0l0 -2.390625l1.625 -0.984375l0 3.375l1.65625 0l0 1.265625l-1.65625 0l0 5.671875q0 0.6875 0.078125 0.890625q0.09375 0.203125 0.28125 0.328125q0.203125 0.109375 0.578125 0.109375q0.265625 0 0.71875 -0.0625zm6.3353577 -2.0625l1.640625 -0.21875q0.28125 1.40625 0.953125 2.015625q0.6875 0.609375 1.65625 0.609375q1.15625 0 1.953125 -0.796875q0.796875 -0.796875 0.796875 -1.984375q0 -1.125 -0.734375 -1.859375q-0.734375 -0.734375 -1.875 -0.734375q-0.46875 0 -1.15625 0.171875l0.1875 -1.4375q0.15625 0.015625 0.265625 0.015625q1.046875 0 1.875 -0.546875q0.84375 -0.546875 0.84375 -1.671875q0 -0.90625 -0.609375 -1.5q-0.609375 -0.59375 -1.578125 -0.59375q-0.953125 0 -1.59375 0.609375q-0.640625 0.59375 -0.8125 1.796875l-1.640625 -0.296875q0.296875 -1.640625 1.359375 -2.546875q1.0625 -0.90625 2.65625 -0.90625q1.09375 0 2.0 0.46875q0.921875 0.46875 1.40625 1.28125q0.5 0.8125 0.5 1.71875q0 0.859375 -0.46875 1.578125q-0.46875 0.703125 -1.375 1.125q1.1875 0.28125 1.84375 1.140625q0.65625 0.859375 0.65625 2.15625q0 1.734375 -1.28125 2.953125q-1.265625 1.21875 -3.21875 1.21875q-1.765625 0 -2.921875 -1.046875q-1.15625 -1.046875 -1.328125 -2.71875z" fill-rule="nonzero"/><path fill="#cfe2f3" d="m176.32283 360.0l130.5197 0l0 45.322845l-130.5197 0z" fill-rule="evenodd"/><path stroke="#000000" stroke-width="1.0" stroke-linejoin="round" stroke-linecap="butt" d="m176.32283 360.0l130.5197 0l0 45.322845l-130.5197 0z" fill-rule="evenodd"/><path fill="#000000" d="m191.16891 389.58142l0 -13.359375l5.046875 0q1.328125 0 2.03125 0.125q0.96875 0.171875 1.640625 0.640625q0.671875 0.453125 1.078125 1.28125q0.40625 0.828125 0.40625 1.828125q0 1.703125 -1.09375 2.890625q-1.078125 1.171875 -3.921875 1.171875l-3.421875 0l0 5.421875l-1.765625 0zm1.765625 -7.0l3.453125 0q1.71875 0 2.4375 -0.640625q0.71875 -0.640625 0.71875 -1.796875q0 -0.84375 -0.421875 -1.4375q-0.421875 -0.59375 -1.125 -0.78125q-0.4375 -0.125 -1.640625 -0.125l-3.421875 0l0 4.78125zm16.787323 5.8125q-0.921875 0.765625 -1.765625 1.09375q-0.828125 0.3125 -1.796875 0.3125q-1.59375 0 -2.453125 -0.78125q-0.859375 -0.78125 -0.859375 -1.984375q0 -0.71875 0.328125 -1.296875q0.328125 -0.59375 0.84375 -0.9375q0.53125 -0.359375 1.1875 -0.546875q0.46875 -0.125 1.453125 -0.25q1.984375 -0.234375 2.921875 -0.5625q0.015625 -0.34375 0.015625 -0.421875q0 -1.0 -0.46875 -1.421875q-0.625 -0.546875 -1.875 -0.546875q-1.15625 0 -1.703125 0.40625q-0.546875 0.40625 -0.8125 1.421875l-1.609375 -0.21875q0.21875 -1.015625 0.71875 -1.640625q0.5 -0.640625 1.453125 -0.984375q0.953125 -0.34375 2.1875 -0.34375q1.25 0 2.015625 0.296875q0.78125 0.28125 1.140625 0.734375q0.375 0.4375 0.515625 1.109375q0.078125 0.421875 0.078125 1.515625l0 2.1875q0 2.28125 0.109375 2.890625q0.109375 0.59375 0.40625 1.15625l-1.703125 0q-0.265625 -0.515625 -0.328125 -1.1875zm-0.140625 -3.671875q-0.890625 0.375 -2.671875 0.625q-1.015625 0.140625 -1.4375 0.328125q-0.421875 0.1875 -0.65625 0.53125q-0.21875 0.34375 -0.21875 0.78125q0 0.65625 0.5 1.09375q0.5 0.4375 1.453125 0.4375q0.9375 0 1.671875 -0.40625q0.75 -0.421875 1.09375 -1.140625q0.265625 -0.5625 0.265625 -1.640625l0 -0.609375zm4.188217 4.859375l0 -9.671875l1.46875 0l0 1.46875q0.5625 -1.03125 1.03125 -1.359375q0.484375 -0.328125 1.0625 -0.328125q0.828125 0 1.6875 0.53125l-0.5625 1.515625q-0.609375 -0.359375 -1.203125 -0.359375q-0.546875 0 -0.96875 0.328125q-0.421875 0.328125 -0.609375 0.890625q-0.28125 0.875 -0.28125 1.921875l0 5.0625l-1.625 0zm9.806427 -1.46875l0.234375 1.453125q-0.6875 0.140625 -1.234375 0.140625q-0.890625 0 -1.390625 -0.28125q-0.484375 -0.28125 -0.6875 -0.734375q-0.203125 -0.46875 -0.203125 -1.9375l0 -5.578125l-1.203125 0l0 -1.265625l1.203125 0l0 -2.390625l1.625 -0.984375l0 3.375l1.65625 0l0 1.265625l-1.65625 0l0 5.671875q0 0.6875 0.078125 0.890625q0.09375 0.203125 0.28125 0.328125q0.203125 0.109375 0.578125 0.109375q0.265625 0 0.71875 -0.0625zm1.6051788 -10.0l0 -1.890625l1.640625 0l0 1.890625l-1.640625 0zm0 11.46875l0 -9.671875l1.640625 0l0 9.671875l-1.640625 0zm10.457321 -3.546875l1.609375 0.21875q-0.265625 1.65625 -1.359375 2.609375q-1.078125 0.9375 -2.671875 0.9375q-1.984375 0 -3.1875 -1.296875q-1.203125 -1.296875 -1.203125 -3.71875q0 -1.578125 0.515625 -2.75q0.515625 -1.171875 1.578125 -1.75q1.0625 -0.59375 2.3125 -0.59375q1.578125 0 2.578125 0.796875q1.0 0.796875 1.28125 2.265625l-1.59375 0.234375q-0.234375 -0.96875 -0.8125 -1.453125q-0.578125 -0.5 -1.390625 -0.5q-1.234375 0 -2.015625 0.890625q-0.78125 0.890625 -0.78125 2.8125q0 1.953125 0.75 2.84375q0.75 0.875 1.953125 0.875q0.96875 0 1.609375 -0.59375q0.65625 -0.59375 0.828125 -1.828125zm3.015625 -7.921875l0 -1.890625l1.640625 0l0 1.890625l-1.640625 0zm0 11.46875l0 -9.671875l1.640625 0l0 9.671875l-1.640625 0zm4.144821 3.703125l0 -13.375l1.484375 0l0 1.25q0.53125 -0.734375 1.1875 -1.09375q0.671875 -0.375 1.625 -0.375q1.234375 0 2.171875 0.640625q0.953125 0.625 1.4375 1.796875q0.484375 1.15625 0.484375 2.546875q0 1.484375 -0.53125 2.671875q-0.53125 1.1875 -1.546875 1.828125q-1.015625 0.625 -2.140625 0.625q-0.8125 0 -1.46875 -0.34375q-0.65625 -0.34375 -1.0625 -0.875l0 4.703125l-1.640625 0zm1.484375 -8.484375q0 1.859375 0.75 2.765625q0.765625 0.890625 1.828125 0.890625q1.09375 0 1.875 -0.921875q0.78125 -0.9375 0.78125 -2.875q0 -1.84375 -0.765625 -2.765625q-0.75 -0.921875 -1.8125 -0.921875q-1.046875 0 -1.859375 0.984375q-0.796875 0.96875 -0.796875 2.84375zm15.203857 3.59375q-0.921875 0.765625 -1.765625 1.09375q-0.828125 0.3125 -1.7968903 0.3125q-1.59375 0 -2.453125 -0.78125q-0.859375 -0.78125 -0.859375 -1.984375q0 -0.71875 0.328125 -1.296875q0.328125 -0.59375 0.84375 -0.9375q0.53125 -0.359375 1.1875 -0.546875q0.46875 -0.125 1.4531403 -0.25q1.984375 -0.234375 2.921875 -0.5625q0.015625 -0.34375 0.015625 -0.421875q0 -1.0 -0.46875 -1.421875q-0.625 -0.546875 -1.875 -0.546875q-1.1562653 0 -1.7031403 0.40625q-0.546875 0.40625 -0.8125 1.421875l-1.609375 -0.21875q0.21875 -1.015625 0.71875 -1.640625q0.5 -0.640625 1.453125 -0.984375q0.95314026 -0.34375 2.1875153 -0.34375q1.25 0 2.015625 0.296875q0.78125 0.28125 1.140625 0.734375q0.375 0.4375 0.515625 1.109375q0.078125 0.421875 0.078125 1.515625l0 2.1875q0 2.28125 0.109375 2.890625q0.109375 0.59375 0.40625 1.15625l-1.703125 0q-0.265625 -0.515625 -0.328125 -1.1875zm-0.140625 -3.671875q-0.890625 0.375 -2.671875 0.625q-1.0156403 0.140625 -1.4375153 0.328125q-0.421875 0.1875 -0.65625 0.53125q-0.21875 0.34375 -0.21875 0.78125q0 0.65625 0.5 1.09375q0.5 0.4375 1.4531403 0.4375q0.9375 0 1.671875 -0.40625q0.75 -0.421875 1.09375 -1.140625q0.265625 -0.5625 0.265625 -1.640625l0 -0.609375zm4.203827 4.859375l0 -9.671875l1.46875 0l0 1.375q1.0625 -1.59375 3.078125 -1.59375q0.875 0 1.609375 0.3125q0.734375 0.3125 1.09375 0.828125q0.375 0.5 0.515625 1.203125q0.09375 0.453125 0.09375 1.59375l0 5.953125l-1.640625 0l0 -5.890625q0 -1.0 -0.203125 -1.484375q-0.1875 -0.5 -0.671875 -0.796875q-0.484375 -0.296875 -1.140625 -0.296875q-1.046875 0 -1.8125 0.671875q-0.75 0.65625 -0.75 2.515625l0 5.28125l-1.640625 0zm13.953857 -1.46875l0.234375 1.453125q-0.6875 0.140625 -1.234375 0.140625q-0.890625 0 -1.390625 -0.28125q-0.484375 -0.28125 -0.6875 -0.734375q-0.203125 -0.46875 -0.203125 -1.9375l0 -5.578125l-1.203125 0l0 -1.265625l1.203125 0l0 -2.390625l1.625 -0.984375l0 3.375l1.65625 0l0 1.265625l-1.65625 0l0 5.671875q0 0.6875 0.078125 0.890625q0.09375 0.203125 0.28125 0.328125q0.203125 0.109375 0.578125 0.109375q0.265625 0 0.71875 -0.0625zm11.585358 1.46875l0 -3.203125l-5.796875 0l0 -1.5l6.09375 -8.65625l1.34375 0l0 8.65625l1.796875 0l0 1.5l-1.796875 0l0 3.203125l-1.640625 0zm0 -4.703125l0 -6.015625l-4.1875 6.015625l4.1875 0z" fill-rule="nonzero"/><path fill="#cfe2f3" d="m177.54068 424.2861l130.51968 0l0 45.322815l-130.51968 0z" fill-rule="evenodd"/><path stroke="#000000" stroke-width="1.0" stroke-linejoin="round" stroke-linecap="butt" d="m177.54068 424.2861l130.51968 0l0 45.322815l-130.51968 0z" fill-rule="evenodd"/><path fill="#000000" d="m192.38676 453.8675l0 -13.359375l5.046875 0q1.328125 0 2.03125 0.125q0.96875 0.171875 1.640625 0.640625q0.671875 0.453125 1.078125 1.28125q0.40625 0.828125 0.40625 1.828125q0 1.703125 -1.09375 2.890625q-1.078125 1.171875 -3.921875 1.171875l-3.421875 0l0 5.421875l-1.765625 0zm1.765625 -7.0l3.453125 0q1.71875 0 2.4375 -0.640625q0.71875 -0.640625 0.71875 -1.796875q0 -0.84375 -0.421875 -1.4375q-0.421875 -0.59375 -1.125 -0.78125q-0.4375 -0.125 -1.640625 -0.125l-3.421875 0l0 4.78125zm16.787323 5.8125q-0.921875 0.765625 -1.765625 1.09375q-0.828125 0.3125 -1.796875 0.3125q-1.59375 0 -2.453125 -0.78125q-0.859375 -0.78125 -0.859375 -1.984375q0 -0.71875 0.328125 -1.296875q0.328125 -0.59375 0.84375 -0.9375q0.53125 -0.359375 1.1875 -0.546875q0.46875 -0.125 1.453125 -0.25q1.984375 -0.234375 2.921875 -0.5625q0.015625 -0.34375 0.015625 -0.421875q0 -1.0 -0.46875 -1.421875q-0.625 -0.546875 -1.875 -0.546875q-1.15625 0 -1.703125 0.40625q-0.546875 0.40625 -0.8125 1.421875l-1.609375 -0.21875q0.21875 -1.015625 0.71875 -1.640625q0.5 -0.640625 1.453125 -0.984375q0.953125 -0.34375 2.1875 -0.34375q1.25 0 2.015625 0.296875q0.78125 0.28125 1.140625 0.734375q0.375 0.4375 0.515625 1.109375q0.078125 0.421875 0.078125 1.515625l0 2.1875q0 2.28125 0.109375 2.890625q0.109375 0.59375 0.40625 1.15625l-1.703125 0q-0.265625 -0.515625 -0.328125 -1.1875zm-0.140625 -3.671875q-0.890625 0.375 -2.671875 0.625q-1.015625 0.140625 -1.4375 0.328125q-0.421875 0.1875 -0.65625 0.53125q-0.21875 0.34375 -0.21875 0.78125q0 0.65625 0.5 1.09375q0.5 0.4375 1.453125 0.4375q0.9375 0 1.671875 -0.40625q0.75 -0.421875 1.09375 -1.140625q0.265625 -0.5625 0.265625 -1.640625l0 -0.609375zm4.188217 4.859375l0 -9.671875l1.46875 0l0 1.46875q0.5625 -1.03125 1.03125 -1.359375q0.484375 -0.328125 1.0625 -0.328125q0.828125 0 1.6875 0.53125l-0.5625 1.515625q-0.609375 -0.359375 -1.203125 -0.359375q-0.546875 0 -0.96875 0.328125q-0.421875 0.328125 -0.609375 0.890625q-0.28125 0.875 -0.28125 1.921875l0 5.0625l-1.625 0zm9.806427 -1.46875l0.234375 1.453125q-0.6875 0.140625 -1.234375 0.140625q-0.890625 0 -1.390625 -0.28125q-0.484375 -0.28125 -0.6875 -0.734375q-0.203125 -0.46875 -0.203125 -1.9375l0 -5.578125l-1.203125 0l0 -1.265625l1.203125 0l0 -2.390625l1.625 -0.984375l0 3.375l1.65625 0l0 1.265625l-1.65625 0l0 5.671875q0 0.6875 0.078125 0.890625q0.09375 0.203125 0.28125 0.328125q0.203125 0.109375 0.578125 0.109375q0.265625 0 0.71875 -0.0625zm1.6051788 -10.0l0 -1.890625l1.640625 0l0 1.890625l-1.640625 0zm0 11.46875l0 -9.671875l1.640625 0l0 9.671875l-1.640625 0zm10.457321 -3.546875l1.609375 0.21875q-0.265625 1.65625 -1.359375 2.609375q-1.078125 0.9375 -2.671875 0.9375q-1.984375 0 -3.1875 -1.296875q-1.203125 -1.296875 -1.203125 -3.71875q0 -1.578125 0.515625 -2.75q0.515625 -1.171875 1.578125 -1.75q1.0625 -0.59375 2.3125 -0.59375q1.578125 0 2.578125 0.796875q1.0 0.796875 1.28125 2.265625l-1.59375 0.234375q-0.234375 -0.96875 -0.8125 -1.453125q-0.578125 -0.5 -1.390625 -0.5q-1.234375 0 -2.015625 0.890625q-0.78125 0.890625 -0.78125 2.8125q0 1.953125 0.75 2.84375q0.75 0.875 1.953125 0.875q0.96875 0 1.609375 -0.59375q0.65625 -0.59375 0.828125 -1.828125zm3.015625 -7.921875l0 -1.890625l1.640625 0l0 1.890625l-1.640625 0zm0 11.46875l0 -9.671875l1.640625 0l0 9.671875l-1.640625 0zm4.144821 3.703125l0 -13.375l1.484375 0l0 1.25q0.53125 -0.734375 1.1875 -1.09375q0.671875 -0.375 1.625 -0.375q1.234375 0 2.171875 0.640625q0.953125 0.625 1.4375 1.796875q0.484375 1.15625 0.484375 2.546875q0 1.484375 -0.53125 2.671875q-0.53125 1.1875 -1.546875 1.828125q-1.015625 0.625 -2.140625 0.625q-0.8125 0 -1.46875 -0.34375q-0.65625 -0.34375 -1.0625 -0.875l0 4.703125l-1.640625 0zm1.484375 -8.484375q0 1.859375 0.75 2.765625q0.765625 0.890625 1.828125 0.890625q1.09375 0 1.875 -0.921875q0.78125 -0.9375 0.78125 -2.875q0 -1.84375 -0.765625 -2.765625q-0.75 -0.921875 -1.8125 -0.921875q-1.046875 0 -1.859375 0.984375q-0.796875 0.96875 -0.796875 2.84375zm15.203842 3.59375q-0.921875 0.765625 -1.765625 1.09375q-0.828125 0.3125 -1.796875 0.3125q-1.59375 0 -2.453125 -0.78125q-0.859375 -0.78125 -0.859375 -1.984375q0 -0.71875 0.328125 -1.296875q0.328125 -0.59375 0.84375 -0.9375q0.53125 -0.359375 1.1875 -0.546875q0.46875 -0.125 1.453125 -0.25q1.984375 -0.234375 2.921875 -0.5625q0.015625 -0.34375 0.015625 -0.421875q0 -1.0 -0.46875 -1.421875q-0.625 -0.546875 -1.875 -0.546875q-1.15625 0 -1.703125 0.40625q-0.546875 0.40625 -0.8125 1.421875l-1.609375 -0.21875q0.21875 -1.015625 0.71875 -1.640625q0.5 -0.640625 1.453125 -0.984375q0.953125 -0.34375 2.1875 -0.34375q1.25 0 2.015625 0.296875q0.78125 0.28125 1.140625 0.734375q0.375 0.4375 0.515625 1.109375q0.078125 0.421875 0.078125 1.515625l0 2.1875q0 2.28125 0.109375 2.890625q0.109375 0.59375 0.40625 1.15625l-1.703125 0q-0.265625 -0.515625 -0.328125 -1.1875zm-0.140625 -3.671875q-0.890625 0.375 -2.671875 0.625q-1.015625 0.140625 -1.4375 0.328125q-0.421875 0.1875 -0.65625 0.53125q-0.21875 0.34375 -0.21875 0.78125q0 0.65625 0.5 1.09375q0.5 0.4375 1.453125 0.4375q0.9375 0 1.671875 -0.40625q0.75 -0.421875 1.09375 -1.140625q0.265625 -0.5625 0.265625 -1.640625l0 -0.609375zm4.2038574 4.859375l0 -9.671875l1.46875 0l0 1.375q1.0625 -1.59375 3.078125 -1.59375q0.875 0 1.609375 0.3125q0.734375 0.3125 1.09375 0.828125q0.375 0.5 0.515625 1.203125q0.09375 0.453125 0.09375 1.59375l0 5.953125l-1.640625 0l0 -5.890625q0 -1.0 -0.203125 -1.484375q-0.1875 -0.5 -0.671875 -0.796875q-0.484375 -0.296875 -1.140625 -0.296875q-1.046875 0 -1.8125 0.671875q-0.75 0.65625 -0.75 2.515625l0 5.28125l-1.640625 0zm13.953827 -1.46875l0.234375 1.453125q-0.6875 0.140625 -1.234375 0.140625q-0.890625 0 -1.390625 -0.28125q-0.484375 -0.28125 -0.6875 -0.734375q-0.203125 -0.46875 -0.203125 -1.9375l0 -5.578125l-1.203125 0l0 -1.265625l1.203125 0l0 -2.390625l1.625 -0.984375l0 3.375l1.65625 0l0 1.265625l-1.65625 0l0 5.671875q0 0.6875 0.078125 0.890625q0.09375 0.203125 0.28125 0.328125q0.203125 0.109375 0.578125 0.109375q0.265625 0 0.71875 -0.0625zm6.3353577 -2.03125l1.71875 -0.140625q0.1875 1.25 0.875 1.890625q0.703125 0.625 1.6875 0.625q1.1875 0 2.0 -0.890625q0.828125 -0.890625 0.828125 -2.359375q0 -1.40625 -0.796875 -2.21875q-0.78125 -0.8125 -2.0625 -0.8125q-0.78125 0 -1.421875 0.359375q-0.640625 0.359375 -1.0 0.9375l-1.546875 -0.203125l1.296875 -6.859375l6.640625 0l0 1.5625l-5.328125 0l-0.71875 3.59375q1.203125 -0.84375 2.515625 -0.84375q1.75 0 2.953125 1.21875q1.203125 1.203125 1.203125 3.109375q0 1.8125 -1.046875 3.140625q-1.296875 1.625 -3.515625 1.625q-1.8125 0 -2.96875 -1.015625q-1.15625 -1.03125 -1.3125 -2.71875z" fill-rule="nonzero"/><path fill="#000000" fill-opacity="0.0" d="m594.6483 475.5538l0 -297.29132l-124.346466 0" fill-rule="evenodd"/><path stroke="#cccccc" stroke-width="1.0" stroke-linejoin="round" stroke-linecap="butt" stroke-dasharray="1.0,3.0" d="m594.6483 475.5538l0 -297.29132l-118.346466 0" fill-rule="evenodd"/><path fill="#cccccc" stroke="#cccccc" stroke-width="1.0" stroke-linecap="butt" d="m476.30185 176.61073l-4.5381165 1.6517334l4.5381165 1.6517334z" fill-rule="evenodd"/><path fill="#000000" fill-opacity="0.0" d="m594.6483 475.5538l0 -233.66928l-124.346466 0" fill-rule="evenodd"/><path stroke="#cccccc" stroke-width="1.0" stroke-linejoin="round" stroke-linecap="butt" stroke-dasharray="1.0,3.0" d="m594.6483 475.5538l0 -233.66928l-124.346466 0" fill-rule="evenodd"/><path fill="#000000" fill-opacity="0.0" d="m594.6483 475.5538l0 -168.8504l-124.346466 0" fill-rule="evenodd"/><path stroke="#cccccc" stroke-width="1.0" stroke-linejoin="round" stroke-linecap="butt" stroke-dasharray="1.0,3.0" d="m594.6483 475.5538l0 -168.8504l-124.346466 0" fill-rule="evenodd"/><path fill="#000000" fill-opacity="0.0" d="m594.6483 475.5538l0 -104.06299l-124.346466 0" fill-rule="evenodd"/><path stroke="#cccccc" stroke-width="1.0" stroke-linejoin="round" stroke-linecap="butt" stroke-dasharray="1.0,3.0" d="m594.6483 475.5538l0 -104.06299l-124.346466 0" fill-rule="evenodd"/><path fill="#000000" fill-opacity="0.0" d="m594.6483 475.5538l0 -36.787384l-124.346466 0" fill-rule="evenodd"/><path stroke="#cccccc" stroke-width="1.0" stroke-linejoin="round" stroke-linecap="butt" stroke-dasharray="1.0,3.0" d="m594.6483 475.5538l0 -36.787384l-124.346466 0" fill-rule="evenodd"/><path fill="#000000" fill-opacity="0.0" d="m470.30972 198.6378l103.968475 0l0 276.9134" fill-rule="evenodd"/><path stroke="#cccccc" stroke-width="1.0" stroke-linejoin="round" stroke-linecap="butt" stroke-dasharray="1.0,3.0" d="m470.30972 198.6378l103.968475 0l0 270.9134" fill-rule="evenodd"/><path fill="#cccccc" stroke="#cccccc" stroke-width="1.0" stroke-linecap="butt" d="m572.62646 469.55118l1.6517334 4.538086l1.6517334 -4.538086z" fill-rule="evenodd"/><path fill="#000000" fill-opacity="0.0" d="m470.30972 327.05774l103.968475 0l0 148.50394" fill-rule="evenodd"/><path stroke="#cccccc" stroke-width="1.0" stroke-linejoin="round" stroke-linecap="butt" stroke-dasharray="1.0,3.0" d="m470.30972 327.05774l103.968475 0l0 148.50394" fill-rule="evenodd"/><path fill="#000000" fill-opacity="0.0" d="m470.30972 262.24408l25.0 0l0 64.81891l-24.937012 0" fill-rule="evenodd"/><path stroke="#cccccc" stroke-width="1.0" stroke-linejoin="round" stroke-linecap="butt" stroke-dasharray="1.0,3.0" d="m470.30972 262.24408l25.0 0l0 64.81891l-18.937012 0" fill-rule="evenodd"/><path fill="#cccccc" stroke="#cccccc" stroke-width="1.0" stroke-linecap="butt" d="m476.3727 325.41125l-4.5381165 1.6517334l4.5381165 1.6517334z" fill-rule="evenodd"/><path fill="#000000" fill-opacity="0.0" d="m470.30972 459.12073l25.0 0l0 -87.62204l-24.937012 0" fill-rule="evenodd"/><path stroke="#cccccc" stroke-width="1.0" stroke-linejoin="round" stroke-linecap="butt" stroke-dasharray="1.0,3.0" d="m470.30972 459.12073l25.0 0l0 -87.62204l-18.937012 0" fill-rule="evenodd"/><path fill="#cccccc" stroke="#cccccc" stroke-width="1.0" stroke-linecap="butt" d="m476.3727 369.84695l-4.5381165 1.6517334l4.5381165 1.6517334z" fill-rule="evenodd"/><path fill="#000000" fill-opacity="0.0" d="m470.30972 262.24408l103.968475 0l0 213.32285" fill-rule="evenodd"/><path stroke="#cccccc" stroke-width="1.0" stroke-linejoin="round" stroke-linecap="butt" stroke-dasharray="1.0,3.0" d="m470.30972 262.24408l103.968475 0l0 213.32285" fill-rule="evenodd"/><path fill="#000000" fill-opacity="0.0" d="m470.30972 438.7533l25.0 0l0 -240.12599l-24.937012 0" fill-rule="evenodd"/><path stroke="#cccccc" stroke-width="1.0" stroke-linejoin="round" stroke-linecap="butt" stroke-dasharray="1.0,3.0" d="m476.30972 438.7533l19.0 0l0 -240.12599l-24.937012 0" fill-rule="evenodd"/><path fill="#cccccc" stroke="#cccccc" stroke-width="1.0" stroke-linecap="butt" d="m476.30972 437.10156l-4.5381165 1.6517334l4.5381165 1.6517029z" fill-rule="evenodd"/><path fill="#000000" fill-opacity="0.0" d="m470.30972 391.8714l103.968475 0l0 83.68503" fill-rule="evenodd"/><path stroke="#cccccc" stroke-width="1.0" stroke-linejoin="round" stroke-linecap="butt" stroke-dasharray="1.0,3.0" d="m470.30972 391.8714l103.968475 0l0 83.68503" fill-rule="evenodd"/></g></svg>