<svg version="1.1" viewBox="0.0 0.0 960.0 720.0" fill="none" stroke="none" stroke-linecap="square" stroke-miterlimit="10" xmlns:xlink="http://www.w3.org/1999/xlink" xmlns="http://www.w3.org/2000/svg"><clipPath id="p.0"><path d="m0 0l960.0 0l0 720.0l-960.0 0l0 -720.0z" clip-rule="nonzero"/></clipPath><g clip-path="url(#p.0)"><path fill="#ffffff" d="m0 0l960.0 0l0 720.0l-960.0 0z" fill-rule="evenodd"/><path fill="#000000" fill-opacity="0.0" d="m324.91864 317.0654l216.47241 0l0 202.26773l-216.47241 0z" fill-rule="evenodd"/><path stroke="#000000" stroke-width="0.9028871391076115" stroke-linejoin="round" stroke-linecap="butt" stroke-dasharray="3.611548556430446,2.7086614173228347" d="m324.91864 317.0654l216.47241 0l0 202.26773l-216.47241 0z" fill-rule="evenodd"/><path fill="#000000" fill-opacity="0.0" d="m318.43045 98.46982l222.9606 0l0 154.4567l-222.9606 0z" fill-rule="evenodd"/><path stroke="#000000" stroke-width="0.9028871391076115" stroke-linejoin="round" stroke-linecap="butt" stroke-dasharray="3.611548556430446,2.7086614173228347" d="m318.43045 98.46982l222.9606 0l0 154.4567l-222.9606 0z" fill-rule="evenodd"/><path fill="#cfe2f3" d="m64.39322 103.03612l117.85826 0l0 40.91339l-117.85826 0z" fill-rule="evenodd"/><path stroke="#000000" stroke-width="0.9028871391076115" stroke-linejoin="round" stroke-linecap="butt" d="m64.39322 103.03612l117.85826 0l0 40.91339l-117.85826 0z" fill-rule="evenodd"/><path fill="#000000" d="m77.80544 129.6756l0 -12.0625l4.546875 0q1.203125 0 1.84375 0.125q0.875 0.140625 1.46875 0.5625q0.609375 0.40625 0.96875 1.15625q0.375 0.75 0.375 1.65625q0 1.53125 -0.984375 2.59375q-0.96875 1.0625 -3.53125 1.0625l-3.09375 0l0 4.90625l-1.59375 0zm1.59375 -6.328125l3.125 0q1.546875 0 2.1875 -0.5625q0.65625 -0.578125 0.65625 -1.625q0 -0.765625 -0.390625 -1.296875q-0.375 -0.546875 -1.0 -0.71875q-0.40625 -0.109375 -1.484375 -0.109375l-3.09375 0l0 4.3125zm15.156525 5.25q-0.828125 0.703125 -1.59375 1.0q-0.75 0.28125 -1.625 0.28125q-1.4375 0 -2.21875 -0.703125q-0.765625 -0.703125 -0.765625 -1.796875q0 -0.640625 0.28125 -1.171875q0.296875 -0.53125 0.765625 -0.84375q0.484375 -0.328125 1.078125 -0.5q0.4375 -0.109375 1.3125 -0.21875q1.796875 -0.21875 2.640625 -0.515625q0 -0.296875 0 -0.390625q0 -0.890625 -0.40625 -1.265625q-0.578125 -0.5 -1.6875 -0.5q-1.046875 0 -1.546875 0.375q-0.5 0.359375 -0.734375 1.28125l-1.453125 -0.203125q0.203125 -0.921875 0.65625 -1.484375q0.453125 -0.578125 1.296875 -0.890625q0.859375 -0.3125 1.984375 -0.3125q1.125 0 1.8125 0.265625q0.703125 0.265625 1.03125 0.671875q0.34375 0.390625 0.46875 1.0q0.078125 0.375 0.078125 1.359375l0 1.984375q0 2.0625 0.09375 2.609375q0.09375 0.546875 0.375 1.046875l-1.546875 0q-0.234375 -0.453125 -0.296875 -1.078125zm-0.125 -3.3125q-0.8125 0.34375 -2.421875 0.5625q-0.90625 0.140625 -1.296875 0.3125q-0.375 0.15625 -0.578125 0.46875q-0.203125 0.3125 -0.203125 0.703125q0 0.59375 0.4375 0.984375q0.453125 0.390625 1.328125 0.390625q0.84375 0 1.515625 -0.359375q0.671875 -0.375 0.984375 -1.03125q0.234375 -0.5 0.234375 -1.484375l0 -0.546875zm3.773941 4.390625l0 -8.734375l1.328125 0l0 1.328125q0.515625 -0.9375 0.9375 -1.234375q0.4375 -0.296875 0.953125 -0.296875q0.75 0 1.53125 0.484375l-0.515625 1.375q-0.546875 -0.328125 -1.078125 -0.328125q-0.484375 0 -0.875 0.296875q-0.390625 0.296875 -0.546875 0.8125q-0.25 0.78125 -0.25 1.71875l0 4.578125l-1.484375 0zm8.8591 -1.328125l0.21875 1.3125q-0.625 0.125 -1.125 0.125q-0.8125 0 -1.25 -0.25q-0.4375 -0.25 -0.625 -0.65625q-0.1875 -0.421875 -0.1875 -1.765625l0 -5.015625l-1.078125 0l0 -1.15625l1.078125 0l0 -2.15625l1.484375 -0.890625l0 3.046875l1.484375 0l0 1.15625l-1.484375 0l0 5.109375q0 0.625 0.078125 0.8125q0.078125 0.171875 0.25 0.28125q0.171875 0.109375 0.5 0.109375q0.25 0 0.65625 -0.0625zm1.4609833 -9.03125l0 -1.703125l1.46875 0l0 1.703125l-1.46875 0zm0 10.359375l0 -8.734375l1.46875 0l0 8.734375l-1.46875 0zm9.429642 -3.203125l1.453125 0.1875q-0.234375 1.515625 -1.21875 2.375q-0.984375 0.84375 -2.421875 0.84375q-1.78125 0 -2.875 -1.171875q-1.09375 -1.171875 -1.09375 -3.359375q0 -1.421875 0.46875 -2.484375q0.46875 -1.0625 1.421875 -1.59375q0.96875 -0.53125 2.09375 -0.53125q1.421875 0 2.328125 0.71875q0.90625 0.71875 1.15625 2.046875l-1.4375 0.21875q-0.203125 -0.875 -0.734375 -1.3125q-0.515625 -0.453125 -1.25 -0.453125q-1.125 0 -1.828125 0.8125q-0.703125 0.796875 -0.703125 2.53125q0 1.765625 0.671875 2.5625q0.6875 0.796875 1.765625 0.796875q0.875 0 1.453125 -0.53125q0.59375 -0.546875 0.75 -1.65625zm2.734375 -7.15625l0 -1.703125l1.46875 0l0 1.703125l-1.46875 0zm0 10.359375l0 -8.734375l1.46875 0l0 8.734375l-1.46875 0zm3.7265167 3.34375l0 -12.078125l1.34375 0l0 1.140625q0.484375 -0.671875 1.078125 -1.0q0.609375 -0.34375 1.4687576 -0.34375q1.109375 0 1.96875 0.578125q0.859375 0.578125 1.28125 1.625q0.4375 1.046875 0.4375 2.296875q0 1.34375 -0.484375 2.421875q-0.46875 1.0625 -1.390625 1.640625q-0.921875 0.578125 -1.921875 0.578125q-0.7500076 0 -1.3437576 -0.3125q-0.578125 -0.3125 -0.953125 -0.796875l0 4.25l-1.484375 0zm1.34375 -7.65625q0 1.6875 0.671875 2.5q0.6875 0.796875 1.6562576 0.796875q1.0 0 1.703125 -0.828125q0.703125 -0.84375 0.703125 -2.59375q0 -1.671875 -0.6875 -2.5q-0.6875 -0.828125 -1.640625 -0.828125q-0.9531326 0 -1.6875076 0.890625q-0.71875 0.875 -0.71875 2.5625zm13.727074 3.234375q-0.828125 0.703125 -1.59375 1.0q-0.75 0.28125 -1.625 0.28125q-1.4375 0 -2.21875 -0.703125q-0.765625 -0.703125 -0.765625 -1.796875q0 -0.640625 0.28125 -1.171875q0.296875 -0.53125 0.765625 -0.84375q0.484375 -0.328125 1.078125 -0.5q0.4375 -0.109375 1.3125 -0.21875q1.796875 -0.21875 2.640625 -0.515625q0 -0.296875 0 -0.390625q0 -0.890625 -0.40625 -1.265625q-0.578125 -0.5 -1.6875 -0.5q-1.046875 0 -1.546875 0.375q-0.5 0.359375 -0.734375 1.28125l-1.453125 -0.203125q0.203125 -0.921875 0.65625 -1.484375q0.453125 -0.578125 1.296875 -0.890625q0.859375 -0.3125 1.984375 -0.3125q1.125 0 1.8125 0.265625q0.703125 0.265625 1.03125 0.671875q0.34375 0.390625 0.46875 1.0q0.078125 0.375 0.078125 1.359375l0 1.984375q0 2.0625 0.09375 2.609375q0.09375 0.546875 0.375 1.046875l-1.546875 0q-0.234375 -0.453125 -0.296875 -1.078125zm-0.125 -3.3125q-0.8125 0.34375 -2.421875 0.5625q-0.90625 0.140625 -1.296875 0.3125q-0.375 0.15625 -0.578125 0.46875q-0.203125 0.3125 -0.203125 0.703125q0 0.59375 0.4375 0.984375q0.453125 0.390625 1.328125 0.390625q0.84375 0 1.515625 -0.359375q0.671875 -0.375 0.984375 -1.03125q0.234375 -0.5 0.234375 -1.484375l0 -0.546875zm3.789566 4.390625l0 -8.734375l1.328125 0l0 1.234375q0.96875 -1.4375 2.78125 -1.4375q0.796875 0 1.453125 0.296875q0.671875 0.28125 1.0 0.75q0.328125 0.453125 0.453125 1.078125q0.078125 0.40625 0.078125 1.4375l0 5.375l-1.46875 0l0 -5.3125q0 -0.90625 -0.1875 -1.34375q-0.171875 -0.453125 -0.609375 -0.71875q-0.4375 -0.28125 -1.03125 -0.28125q-0.9375 0 -1.625 0.609375q-0.6875 0.59375 -0.6875 2.28125l0 4.765625l-1.484375 0zm12.602066 -1.328125l0.21875 1.3125q-0.625 0.125 -1.125 0.125q-0.8125 0 -1.25 -0.25q-0.4375 -0.25 -0.625 -0.65625q-0.1875 -0.421875 -0.1875 -1.765625l0 -5.015625l-1.078125 0l0 -1.15625l1.078125 0l0 -2.15625l1.484375 -0.890625l0 3.046875l1.484375 0l0 1.15625l-1.484375 0l0 5.109375q0 0.625 0.078125 0.8125q0.078125 0.171875 0.25 0.28125q0.171875 0.109375 0.5 0.109375q0.25 0 0.65625 -0.0625zm11.296967 1.328125l-1.484375 0l0 -9.4375q-0.53125 0.515625 -1.40625 1.03125q-0.859375 0.5 -1.5625 0.75l0 -1.421875q1.25 -0.578125 2.171875 -1.40625q0.9375 -0.84375 1.328125 -1.625l0.953125 0l0 12.109375z" fill-rule="nonzero"/><path fill="#cfe2f3" d="m385.1381 360.83542l96.031494 0l0 46.740173l-96.031494 0z" fill-rule="evenodd"/><path stroke="#000000" stroke-width="0.9028871391076115" stroke-linejoin="round" stroke-linecap="butt" d="m385.1381 360.83542l96.031494 0l0 46.740173l-96.031494 0z" fill-rule="evenodd"/><path fill="#000000" d="m399.8445 390.38828l0 -12.0625l5.34375 0q1.609375 0 2.4375 0.328125q0.84375 0.328125 1.34375 1.15625q0.515625 0.8125 0.515625 1.8125q0 1.28125 -0.84375 2.171875q-0.828125 0.875 -2.5625 1.109375q0.640625 0.296875 0.96875 0.59375q0.703125 0.640625 1.328125 1.609375l2.09375 3.28125l-2.015625 0l-1.59375 -2.515625q-0.6875 -1.078125 -1.140625 -1.65625q-0.453125 -0.578125 -0.8125 -0.796875q-0.359375 -0.234375 -0.734375 -0.328125q-0.265625 -0.0625 -0.890625 -0.0625l-1.84375 0l0 5.359375l-1.59375 0zm1.59375 -6.734375l3.421875 0q1.09375 0 1.703125 -0.21875q0.625 -0.234375 0.9375 -0.734375q0.328125 -0.5 0.328125 -1.078125q0 -0.859375 -0.625 -1.40625q-0.609375 -0.546875 -1.953125 -0.546875l-3.8125 0l0 3.984375zm16.335907 3.921875l1.53125 0.1875q-0.375 1.34375 -1.359375 2.09375q-0.96875 0.734375 -2.484375 0.734375q-1.921875 0 -3.046875 -1.171875q-1.125 -1.1875 -1.125 -3.328125q0 -2.203125 1.140625 -3.421875q1.140625 -1.21875 2.953125 -1.21875q1.75 0 2.859375 1.203125q1.109375 1.1875 1.109375 3.34375q0 0.140625 -0.015625 0.40625l-6.515625 0q0.09375 1.4375 0.8125 2.203125q0.734375 0.765625 1.828125 0.765625q0.8125 0 1.390625 -0.421875q0.578125 -0.4375 0.921875 -1.375zm-4.859375 -2.390625l4.875 0q-0.109375 -1.109375 -0.5625 -1.65625q-0.703125 -0.859375 -1.828125 -0.859375q-1.03125 0 -1.734375 0.6875q-0.6875 0.6875 -0.75 1.828125zm13.945801 2.0l1.453125 0.1875q-0.234375 1.515625 -1.21875 2.375q-0.984375 0.84375 -2.421875 0.84375q-1.78125 0 -2.875 -1.171875q-1.09375 -1.171875 -1.09375 -3.359375q0 -1.421875 0.46875 -2.484375q0.46875 -1.0625 1.421875 -1.59375q0.96875 -0.53125 2.09375 -0.53125q1.421875 0 2.328125 0.71875q0.90625 0.71875 1.15625 2.046875l-1.4375 0.21875q-0.203125 -0.875 -0.734375 -1.3125q-0.515625 -0.453125 -1.25 -0.453125q-1.125 0 -1.828125 0.8125q-0.703125 0.796875 -0.703125 2.53125q0 1.765625 0.671875 2.5625q0.6875 0.796875 1.765625 0.796875q0.875 0 1.453125 -0.53125q0.59375 -0.546875 0.75 -1.65625zm2.171875 -1.171875q0 -2.421875 1.34375 -3.59375q1.125 -0.96875 2.75 -0.96875q1.796875 0 2.9375 1.1875q1.15625 1.171875 1.15625 3.265625q0 1.6875 -0.515625 2.65625q-0.5 0.953125 -1.46875 1.5q-0.96875 0.53125 -2.109375 0.53125q-1.828125 0 -2.96875 -1.171875q-1.125 -1.1875 -1.125 -3.40625zm1.515625 0q0 1.6875 0.734375 2.53125q0.734375 0.828125 1.84375 0.828125q1.09375 0 1.828125 -0.84375q0.734375 -0.84375 0.734375 -2.5625q0 -1.609375 -0.734375 -2.4375q-0.734375 -0.84375 -1.828125 -0.84375q-1.109375 0 -1.84375 0.828125q-0.734375 0.828125 -0.734375 2.5zm8.383331 4.375l0 -8.734375l1.328125 0l0 1.328125q0.515625 -0.9375 0.9375 -1.234375q0.4375 -0.296875 0.953125 -0.296875q0.75 0 1.53125 0.484375l-0.515625 1.375q-0.546875 -0.328125 -1.078125 -0.328125q-0.484375 0 -0.875 0.296875q-0.390625 0.296875 -0.546875 0.8125q-0.25 0.78125 -0.25 1.71875l0 4.578125l-1.484375 0zm11.2966 0l0 -1.109375q-0.828125 1.3125 -2.453125 1.3125q-1.03125 0 -1.921875 -0.578125q-0.875 -0.578125 -1.359375 -1.609375q-0.46875 -1.03125 -0.46875 -2.375q0 -1.3125 0.4375 -2.375q0.4375 -1.0625 1.296875 -1.625q0.875 -0.578125 1.953125 -0.578125q0.796875 0 1.40625 0.34375q0.625 0.328125 1.0 0.859375l0 -4.328125l1.484375 0l0 12.0625l-1.375 0zm-4.6875 -4.359375q0 1.671875 0.703125 2.515625q0.71875 0.828125 1.671875 0.828125q0.96875 0 1.640625 -0.796875q0.6875 -0.796875 0.6875 -2.421875q0 -1.796875 -0.6875 -2.625q-0.6875 -0.84375 -1.703125 -0.84375q-0.984375 0 -1.65625 0.8125q-0.65625 0.796875 -0.65625 2.53125zm14.367676 1.546875l1.53125 0.1875q-0.375 1.34375 -1.359375 2.09375q-0.96875 0.734375 -2.484375 0.734375q-1.921875 0 -3.046875 -1.171875q-1.125 -1.1875 -1.125 -3.328125q0 -2.203125 1.140625 -3.421875q1.140625 -1.21875 2.953125 -1.21875q1.75 0 2.859375 1.203125q1.109375 1.1875 1.109375 3.34375q0 0.140625 -0.015625 0.40625l-6.515625 0q0.09375 1.4375 0.8125 2.203125q0.734375 0.765625 1.828125 0.765625q0.8125 0 1.390625 -0.421875q0.578125 -0.4375 0.921875 -1.375zm-4.859375 -2.390625l4.875 0q-0.109375 -1.109375 -0.5625 -1.65625q-0.703125 -0.859375 -1.828125 -0.859375q-1.03125 0 -1.734375 0.6875q-0.6875 0.6875 -0.75 1.828125zm8.227081 5.203125l0 -8.734375l1.328125 0l0 1.328125q0.515625 -0.9375 0.9375 -1.234375q0.4375 -0.296875 0.953125 -0.296875q0.75 0 1.53125 0.484375l-0.515625 1.375q-0.546875 -0.328125 -1.078125 -0.328125q-0.484375 0 -0.875 0.296875q-0.390625 0.296875 -0.546875 0.8125q-0.25 0.78125 -0.25 1.71875l0 4.578125l-1.484375 0z" fill-rule="nonzero"/><path fill="#000000" fill-opacity="0.0" d="m329.22226 61.270214l233.0079 0l0 33.574802l-233.0079 0z" fill-rule="evenodd"/><path fill="#000000" d="m338.14413 81.98522l0 -9.53125l3.9375 0q0.140625 0 0.359375 0.015625q0.21875 0 0.40625 0.046875q0.828125 0.125 1.359375 0.546875q0.546875 0.421875 0.796875 1.0625q0.265625 0.640625 0.265625 1.4375q0 1.15625 -0.59375 2.0q-0.578125 0.828125 -1.796875 1.03125l-0.6875 0.0625l-2.453125 0l0 3.328125l-1.59375 0zm5.484375 0l-1.890625 -3.875l1.625 -0.359375l2.0625 4.234375l-1.796875 0zm-3.890625 -4.8125l2.28125 0q0.140625 0 0.296875 -0.015625q0.171875 -0.015625 0.3125 -0.0625q0.390625 -0.09375 0.609375 -0.34375q0.234375 -0.25 0.328125 -0.5625q0.09375 -0.328125 0.09375 -0.625q0 -0.3125 -0.09375 -0.625q-0.09375 -0.328125 -0.328125 -0.578125q-0.21875 -0.25 -0.609375 -0.34375q-0.140625 -0.046875 -0.3125 -0.046875q-0.15625 -0.015625 -0.296875 -0.015625l-2.28125 0l0 3.21875zm10.297028 5.015625q-1.0625 0 -1.875 -0.484375q-0.796875 -0.484375 -1.234375 -1.328125q-0.4375 -0.859375 -0.4375 -1.96875q0 -1.125 0.4375 -1.96875q0.453125 -0.84375 1.25 -1.3125q0.8125 -0.484375 1.859375 -0.484375q1.078125 0 1.875 0.484375q0.8125 0.484375 1.25 1.34375q0.453125 0.84375 0.453125 1.9375q0 1.109375 -0.453125 1.96875q-0.453125 0.84375 -1.25 1.328125q-0.796875 0.484375 -1.875 0.484375zm0 -1.5q0.953125 0 1.421875 -0.625q0.46875 -0.640625 0.46875 -1.65625q0 -1.03125 -0.484375 -1.640625q-0.46875 -0.625 -1.40625 -0.625q-0.640625 0 -1.0625 0.28125q-0.40625 0.28125 -0.609375 0.796875q-0.1875 0.515625 -0.1875 1.1875q0 1.046875 0.46875 1.671875q0.46875 0.609375 1.390625 0.609375zm7.709961 1.5q-0.796875 0 -1.3125 -0.265625q-0.515625 -0.265625 -0.828125 -0.671875q-0.296875 -0.40625 -0.453125 -0.875q-0.140625 -0.46875 -0.1875 -0.875q-0.03125 -0.40625 -0.03125 -0.671875l0 -3.984375l1.609375 0l0 3.4375q0 0.328125 0.046875 0.75q0.046875 0.40625 0.21875 0.796875q0.171875 0.375 0.5 0.625q0.328125 0.234375 0.90625 0.234375q0.296875 0 0.59375 -0.09375q0.296875 -0.109375 0.53125 -0.34375q0.25 -0.25 0.390625 -0.671875q0.15625 -0.421875 0.15625 -1.0625l0.953125 0.390625q0 0.921875 -0.359375 1.671875q-0.359375 0.734375 -1.046875 1.171875q-0.6875 0.4375 -1.6875 0.4375zm2.328125 -0.203125l0 -2.21875l-0.1875 0l0 -4.921875l1.609375 0l0 7.140625l-1.421875 0zm7.449829 0q-0.703125 0.125 -1.390625 0.109375q-0.671875 -0.015625 -1.203125 -0.25q-0.53125 -0.234375 -0.8125 -0.734375q-0.25 -0.46875 -0.265625 -0.953125q-0.015625 -0.484375 -0.015625 -1.09375l0 -6.203125l1.59375 0l0 6.109375q0 0.4375 0 0.765625q0.015625 0.3125 0.140625 0.515625q0.25 0.40625 0.765625 0.453125q0.53125 0.046875 1.1875 -0.0625l0 1.34375zm-4.984375 -5.890625l0 -1.25l4.984375 0l0 1.25l-4.984375 0zm9.413025 6.09375q-1.078125 0 -1.90625 -0.46875q-0.8125 -0.46875 -1.28125 -1.296875q-0.453125 -0.84375 -0.453125 -1.9375q0 -1.171875 0.4375 -2.03125q0.453125 -0.859375 1.25 -1.328125q0.8125 -0.484375 1.859375 -0.484375q1.109375 0 1.890625 0.515625q0.78125 0.515625 1.15625 1.46875q0.375 0.953125 0.28125 2.234375l-1.578125 0l0 -0.59375q0 -1.15625 -0.40625 -1.6875q-0.40625 -0.546875 -1.265625 -0.546875q-0.984375 0 -1.46875 0.609375q-0.46875 0.609375 -0.46875 1.765625q0 1.09375 0.46875 1.6875q0.484375 0.59375 1.390625 0.59375q0.59375 0 1.015625 -0.25q0.4375 -0.265625 0.65625 -0.765625l1.578125 0.46875q-0.40625 0.96875 -1.265625 1.515625q-0.859375 0.53125 -1.890625 0.53125zm-2.453125 -3.328125l0 -1.203125l4.90625 0l0 1.203125l-4.90625 0zm7.1700745 3.125l0 -7.140625l1.40625 0l0 1.734375l-0.171875 -0.21875q0.140625 -0.359375 0.359375 -0.65625q0.21875 -0.296875 0.53125 -0.484375q0.265625 -0.1875 0.578125 -0.28125q0.328125 -0.109375 0.65625 -0.125q0.34375 -0.03125 0.671875 0.03125l0 1.484375q-0.328125 -0.09375 -0.734375 -0.0625q-0.40625 0.03125 -0.75 0.234375q-0.328125 0.171875 -0.546875 0.453125q-0.203125 0.28125 -0.296875 0.640625q-0.09375 0.34375 -0.09375 0.765625l0 3.625l-1.609375 0zm11.458496 0.203125q-1.046875 0 -1.890625 -0.359375q-0.828125 -0.375 -1.375 -1.046875q-0.53125 -0.6875 -0.671875 -1.609375l1.640625 -0.265625q0.21875 0.859375 0.875 1.328125q0.65625 0.453125 1.515625 0.453125q0.515625 0 0.96875 -0.15625q0.453125 -0.15625 0.734375 -0.453125q0.28125 -0.3125 0.28125 -0.765625q0 -0.1875 -0.078125 -0.359375q-0.0625 -0.171875 -0.1875 -0.296875q-0.125 -0.140625 -0.328125 -0.25q-0.203125 -0.109375 -0.46875 -0.1875l-2.46875 -0.734375q-0.3125 -0.078125 -0.6875 -0.234375q-0.359375 -0.15625 -0.6875 -0.4375q-0.328125 -0.28125 -0.546875 -0.703125q-0.203125 -0.421875 -0.203125 -1.046875q0 -0.921875 0.46875 -1.546875q0.46875 -0.625 1.25 -0.9375q0.796875 -0.3125 1.765625 -0.3125q0.984375 0.015625 1.75 0.34375q0.765625 0.328125 1.28125 0.953125q0.515625 0.609375 0.734375 1.5l-1.71875 0.296875q-0.109375 -0.515625 -0.40625 -0.859375q-0.296875 -0.359375 -0.734375 -0.546875q-0.4375 -0.1875 -0.921875 -0.1875q-0.484375 -0.015625 -0.890625 0.140625q-0.40625 0.140625 -0.65625 0.421875q-0.25 0.28125 -0.25 0.65625q0 0.34375 0.21875 0.5625q0.21875 0.21875 0.53125 0.359375q0.3125 0.125 0.640625 0.203125l1.703125 0.484375q0.34375 0.09375 0.78125 0.25q0.4375 0.15625 0.84375 0.453125q0.40625 0.28125 0.65625 0.75q0.265625 0.453125 0.265625 1.171875q0 0.734375 -0.3125 1.296875q-0.296875 0.5625 -0.828125 0.9375q-0.515625 0.359375 -1.1875 0.546875q-0.671875 0.1875 -1.40625 0.1875zm8.420197 0q-1.078125 0 -1.90625 -0.46875q-0.8125 -0.46875 -1.28125 -1.296875q-0.453125 -0.84375 -0.453125 -1.9375q0 -1.171875 0.4375 -2.03125q0.453125 -0.859375 1.25 -1.328125q0.8125 -0.484375 1.859375 -0.484375q1.109375 0 1.890625 0.515625q0.78125 0.515625 1.15625 1.46875q0.375 0.953125 0.28125 2.234375l-1.578125 0l0 -0.59375q0 -1.15625 -0.40625 -1.6875q-0.40625 -0.546875 -1.265625 -0.546875q-0.984375 0 -1.46875 0.609375q-0.46875 0.609375 -0.46875 1.765625q0 1.09375 0.46875 1.6875q0.484375 0.59375 1.390625 0.59375q0.59375 0 1.015625 -0.25q0.4375 -0.265625 0.65625 -0.765625l1.578125 0.46875q-0.40625 0.96875 -1.265625 1.515625q-0.859375 0.53125 -1.890625 0.53125zm-2.453125 -3.328125l0 -1.203125l4.90625 0l0 1.203125l-4.90625 0zm7.1700745 3.125l0 -7.140625l1.40625 0l0 1.734375l-0.171875 -0.21875q0.140625 -0.359375 0.359375 -0.65625q0.21875 -0.296875 0.53125 -0.484375q0.265625 -0.1875 0.578125 -0.28125q0.328125 -0.109375 0.65625 -0.125q0.34375 -0.03125 0.671875 0.03125l0 1.484375q-0.328125 -0.09375 -0.734375 -0.0625q-0.40625 0.03125 -0.75 0.234375q-0.328125 0.171875 -0.546875 0.453125q-0.203125 0.28125 -0.296875 0.640625q-0.09375 0.34375 -0.09375 0.765625l0 3.625l-1.609375 0zm7.217926 0l-2.59375 -7.140625l1.59375 0l1.796875 5.171875l1.796875 -5.171875l1.59375 0l-2.59375 7.140625l-1.59375 0zm8.366089 0.203125q-1.078125 0 -1.90625 -0.46875q-0.8125 -0.46875 -1.28125 -1.296875q-0.453125 -0.84375 -0.453125 -1.9375q0 -1.171875 0.4375 -2.03125q0.453125 -0.859375 1.25 -1.328125q0.8125 -0.484375 1.859375 -0.484375q1.109375 0 1.890625 0.515625q0.78125 0.515625 1.15625 1.46875q0.375 0.953125 0.28125 2.234375l-1.578125 0l0 -0.59375q0 -1.15625 -0.40625 -1.6875q-0.40625 -0.546875 -1.265625 -0.546875q-0.984375 0 -1.46875 0.609375q-0.46875 0.609375 -0.46875 1.765625q0 1.09375 0.46875 1.6875q0.484375 0.59375 1.390625 0.59375q0.59375 0 1.015625 -0.25q0.4375 -0.265625 0.65625 -0.765625l1.578125 0.46875q-0.40625 0.96875 -1.265625 1.515625q-0.859375 0.53125 -1.890625 0.53125zm-2.453125 -3.328125l0 -1.203125l4.90625 0l0 1.203125l-4.90625 0zm7.1700745 3.125l0 -7.140625l1.40625 0l0 1.734375l-0.171875 -0.21875q0.140625 -0.359375 0.359375 -0.65625q0.21875 -0.296875 0.53125 -0.484375q0.265625 -0.1875 0.578125 -0.28125q0.328125 -0.109375 0.65625 -0.125q0.34375 -0.03125 0.671875 0.03125l0 1.484375q-0.328125 -0.09375 -0.734375 -0.0625q-0.40625 0.03125 -0.75 0.234375q-0.328125 0.171875 -0.546875 0.453125q-0.203125 0.28125 -0.296875 0.640625q-0.09375 0.34375 -0.09375 0.765625l0 3.625l-1.609375 0z" fill-rule="nonzero"/><path fill="#6aa84f" d="m312.91458 115.40005l0 0c0 -2.9484177 2.3901672 -5.3385773 5.3385925 -5.3385773l0 0c1.4158936 0 2.7737732 0.5624542 3.7749634 1.5636292c1.0011597 1.0011826 1.5636292 2.3590698 1.5636292 3.7749481l0 0c0 2.9484177 -2.3901672 5.338585 -5.3385925 5.338585l0 0c-2.9484253 0 -5.3385925 -2.3901672 -5.3385925 -5.338585z" fill-rule="evenodd"/><path stroke="#000000" stroke-width="0.9028871391076115" stroke-linejoin="round" stroke-linecap="butt" d="m312.91458 115.40005l0 0c0 -2.9484177 2.3901672 -5.3385773 5.3385925 -5.3385773l0 0c1.4158936 0 2.7737732 0.5624542 3.7749634 1.5636292c1.0011597 1.0011826 1.5636292 2.3590698 1.5636292 3.7749481l0 0c0 2.9484177 -2.3901672 5.338585 -5.3385925 5.338585l0 0c-2.9484253 0 -5.3385925 -2.3901672 -5.3385925 -5.338585z" fill-rule="evenodd"/><path fill="#6aa84f" d="m312.91458 133.793l0 0c0 -2.94841 2.3901672 -5.3385773 5.3385925 -5.3385773l0 0c1.4158936 0 2.7737732 0.5624542 3.7749634 1.5636292c1.0011597 1.0011749 1.5636292 2.3590698 1.5636292 3.7749481l0 0c0 2.9484253 -2.3901672 5.3385925 -5.3385925 5.3385925l0 0c-2.9484253 0 -5.3385925 -2.3901672 -5.3385925 -5.3385925z" fill-rule="evenodd"/><path stroke="#000000" stroke-width="0.9028871391076115" stroke-linejoin="round" stroke-linecap="butt" d="m312.91458 133.793l0 0c0 -2.94841 2.3901672 -5.3385773 5.3385925 -5.3385773l0 0c1.4158936 0 2.7737732 0.5624542 3.7749634 1.5636292c1.0011597 1.0011749 1.5636292 2.3590698 1.5636292 3.7749481l0 0c0 2.9484253 -2.3901672 5.3385925 -5.3385925 5.3385925l0 0c-2.9484253 0 -5.3385925 -2.3901672 -5.3385925 -5.3385925z" fill-rule="evenodd"/><path fill="#6aa84f" d="m312.91458 172.8401l0 0c0 -2.94841 2.3901672 -5.3385773 5.3385925 -5.3385773l0 0c1.4158936 0 2.7737732 0.5624542 3.7749634 1.5636292c1.0011597 1.0011749 1.5636292 2.3590698 1.5636292 3.7749481l0 0c0 2.9484253 -2.3901672 5.3385773 -5.3385925 5.3385773l0 0c-2.9484253 0 -5.3385925 -2.390152 -5.3385925 -5.3385773z" fill-rule="evenodd"/><path stroke="#000000" stroke-width="0.9028871391076115" stroke-linejoin="round" stroke-linecap="butt" d="m312.91458 172.8401l0 0c0 -2.94841 2.3901672 -5.3385773 5.3385925 -5.3385773l0 0c1.4158936 0 2.7737732 0.5624542 3.7749634 1.5636292c1.0011597 1.0011749 1.5636292 2.3590698 1.5636292 3.7749481l0 0c0 2.9484253 -2.3901672 5.3385773 -5.3385925 5.3385773l0 0c-2.9484253 0 -5.3385925 -2.390152 -5.3385925 -5.3385773z" fill-rule="evenodd"/><path fill="#6aa84f" d="m312.91458 191.23306l0 0c0 -2.9484253 2.3901672 -5.3385925 5.3385925 -5.3385925l0 0c1.4158936 0 2.7737732 0.5624542 3.7749634 1.5636444c1.0011597 1.0011749 1.5636292 2.3590698 1.5636292 3.7749481l0 0c0 2.94841 -2.3901672 5.3385773 -5.3385925 5.3385773l0 0c-2.9484253 0 -5.3385925 -2.3901672 -5.3385925 -5.3385773z" fill-rule="evenodd"/><path stroke="#000000" stroke-width="0.9028871391076115" stroke-linejoin="round" stroke-linecap="butt" d="m312.91458 191.23306l0 0c0 -2.9484253 2.3901672 -5.3385925 5.3385925 -5.3385925l0 0c1.4158936 0 2.7737732 0.5624542 3.7749634 1.5636444c1.0011597 1.0011749 1.5636292 2.3590698 1.5636292 3.7749481l0 0c0 2.94841 -2.3901672 5.3385773 -5.3385925 5.3385773l0 0c-2.9484253 0 -5.3385925 -2.3901672 -5.3385925 -5.3385773z" fill-rule="evenodd"/><path fill="#000000" fill-opacity="0.0" d="m185.87955 133.05502l118.17322 0" fill-rule="evenodd"/><path stroke="#6aa84f" stroke-width="0.9028871391076115" stroke-linejoin="round" stroke-linecap="butt" d="m185.87955 133.05502l112.75592 0" fill-rule="evenodd"/><path fill="#6aa84f" stroke="#6aa84f" stroke-width="0.9028871391076115" stroke-linecap="butt" d="m298.63547 134.54636l4.0973816 -1.491333l-4.0973816 -1.491333z" fill-rule="evenodd"/><path fill="#000000" fill-opacity="0.0" d="m304.8463 115.39448l-117.85826 0" fill-rule="evenodd"/><path stroke="#6aa84f" stroke-width="0.9028871391076115" stroke-linejoin="round" stroke-linecap="butt" d="m304.8463 115.39448l-112.44095 0" fill-rule="evenodd"/><path fill="#6aa84f" stroke="#6aa84f" stroke-width="0.9028871391076115" stroke-linecap="butt" d="m192.40536 113.90315l-4.0973816 1.4913254l4.0973816 1.491333z" fill-rule="evenodd"/><path fill="#000000" fill-opacity="0.0" d="m190.86177 190.86128l118.17323 0" fill-rule="evenodd"/><path stroke="#6aa84f" stroke-width="0.9028871391076115" stroke-linejoin="round" stroke-linecap="butt" d="m190.86177 190.86128l112.755905 0" fill-rule="evenodd"/><path fill="#6aa84f" stroke="#6aa84f" stroke-width="0.9028871391076115" stroke-linecap="butt" d="m303.61768 192.35262l4.0973816 -1.491333l-4.0973816 -1.491333z" fill-rule="evenodd"/><path fill="#000000" fill-opacity="0.0" d="m309.82855 173.20073l-117.85828 0" fill-rule="evenodd"/><path stroke="#6aa84f" stroke-width="0.9028871391076115" stroke-linejoin="round" stroke-linecap="butt" d="m309.82855 173.20073l-112.44095 0" fill-rule="evenodd"/><path fill="#6aa84f" stroke="#6aa84f" stroke-width="0.9028871391076115" stroke-linecap="butt" d="m197.3876 171.7094l-4.0973816 1.491333l4.0973816 1.4913177z" fill-rule="evenodd"/><path fill="#6aa84f" d="m433.15414 311.4408l0 0c2.9483948 0 5.338562 2.3901672 5.338562 5.3385925l0 0c0 1.415863 -0.56243896 2.7737427 -1.5636292 3.7749329c-1.0011902 1.0011902 -2.3590698 1.5636292 -3.7749329 1.5636292l0 0c-2.9484253 0 -5.3385925 -2.3901672 -5.3385925 -5.338562l0 0c0 -2.9484253 2.3901672 -5.3385925 5.3385925 -5.3385925z" fill-rule="evenodd"/><path stroke="#000000" stroke-width="0.9028871391076115" stroke-linejoin="round" stroke-linecap="butt" d="m433.15414 311.4408l0 0c2.9483948 0 5.338562 2.3901672 5.338562 5.3385925l0 0c0 1.415863 -0.56243896 2.7737427 -1.5636292 3.7749329c-1.0011902 1.0011902 -2.3590698 1.5636292 -3.7749329 1.5636292l0 0c-2.9484253 0 -5.3385925 -2.3901672 -5.3385925 -5.338562l0 0c0 -2.9484253 2.3901672 -5.3385925 5.3385925 -5.3385925z" fill-rule="evenodd"/><path fill="#6aa84f" d="m432.5564 245.87123l0 0c2.9484253 0 5.3385925 2.3901672 5.3385925 5.3385925l0 0c0 1.4158783 -0.5624695 2.7737732 -1.5636597 3.7749481c-1.0011597 1.0011749 -2.3590698 1.5636292 -3.7749329 1.5636292l0 0c-2.9484253 0 -5.3385925 -2.3901672 -5.3385925 -5.3385773l0 0c0 -2.9484253 2.3901672 -5.3385925 5.3385925 -5.3385925z" fill-rule="evenodd"/><path stroke="#000000" stroke-width="0.9028871391076115" stroke-linejoin="round" stroke-linecap="butt" d="m432.5564 245.87123l0 0c2.9484253 0 5.3385925 2.3901672 5.3385925 5.3385925l0 0c0 1.4158783 -0.5624695 2.7737732 -1.5636597 3.7749481c-1.0011597 1.0011749 -2.3590698 1.5636292 -3.7749329 1.5636292l0 0c-2.9484253 0 -5.3385925 -2.3901672 -5.3385925 -5.3385773l0 0c0 -2.9484253 2.3901672 -5.3385925 5.3385925 -5.3385925z" fill-rule="evenodd"/><path fill="#000000" fill-opacity="0.0" d="m432.5564 256.5484l0.5984192 54.897644" fill-rule="evenodd"/><path stroke="#6aa84f" stroke-width="0.9028871391076115" stroke-linejoin="round" stroke-linecap="butt" d="m432.5564 256.5484l0.5393677 49.48065" fill-rule="evenodd"/><path fill="#6aa84f" stroke="#6aa84f" stroke-width="0.9028871391076115" stroke-linecap="butt" d="m431.60452 306.04532l1.5359192 4.0808716l1.4465637 -4.1134033z" fill-rule="evenodd"/><path fill="#cfe2f3" d="m63.6063 162.24435l117.85827 0l0 40.91339l-117.85827 0z" fill-rule="evenodd"/><path stroke="#000000" stroke-width="0.9028871391076115" stroke-linejoin="round" stroke-linecap="butt" d="m63.6063 162.24435l117.85827 0l0 40.91339l-117.85827 0z" fill-rule="evenodd"/><path fill="#000000" d="m77.018524 188.88383l0 -12.0625l4.546875 0q1.203125 0 1.84375 0.125q0.875 0.140625 1.46875 0.5625q0.609375 0.40625 0.96875 1.15625q0.375 0.75 0.375 1.65625q0 1.53125 -0.984375 2.59375q-0.96875 1.0625 -3.53125 1.0625l-3.09375 0l0 4.90625l-1.59375 0zm1.59375 -6.328125l3.125 0q1.546875 0 2.1875 -0.5625q0.65625 -0.578125 0.65625 -1.625q0 -0.765625 -0.390625 -1.296875q-0.375 -0.546875 -1.0 -0.71875q-0.40625 -0.109375 -1.484375 -0.109375l-3.09375 0l0 4.3125zm15.156525 5.25q-0.828125 0.703125 -1.59375 1.0q-0.75 0.28125 -1.625 0.28125q-1.4375 0 -2.21875 -0.703125q-0.765625 -0.703125 -0.765625 -1.796875q0 -0.640625 0.28125 -1.171875q0.296875 -0.53125 0.765625 -0.84375q0.484375 -0.328125 1.078125 -0.5q0.4375 -0.109375 1.3125 -0.21875q1.796875 -0.21875 2.640625 -0.515625q0 -0.296875 0 -0.390625q0 -0.890625 -0.40625 -1.265625q-0.578125 -0.5 -1.6875 -0.5q-1.046875 0 -1.546875 0.375q-0.5 0.359375 -0.734375 1.28125l-1.453125 -0.203125q0.203125 -0.921875 0.65625 -1.484375q0.453125 -0.578125 1.296875 -0.890625q0.859375 -0.3125 1.984375 -0.3125q1.125 0 1.8125 0.265625q0.703125 0.265625 1.03125 0.671875q0.34375 0.390625 0.46875 1.0q0.078125 0.375 0.078125 1.359375l0 1.984375q0 2.0625 0.09375 2.609375q0.09375 0.546875 0.375 1.046875l-1.546875 0q-0.234375 -0.453125 -0.296875 -1.078125zm-0.125 -3.3125q-0.8125 0.34375 -2.421875 0.5625q-0.90625 0.140625 -1.296875 0.3125q-0.375 0.15625 -0.578125 0.46875q-0.203125 0.3125 -0.203125 0.703125q0 0.59375 0.4375 0.984375q0.453125 0.390625 1.328125 0.390625q0.84375 0 1.515625 -0.359375q0.671875 -0.375 0.984375 -1.03125q0.234375 -0.5 0.234375 -1.484375l0 -0.546875zm3.773941 4.390625l0 -8.734375l1.328125 0l0 1.328125q0.515625 -0.9375 0.9375 -1.234375q0.4375 -0.296875 0.953125 -0.296875q0.75 0 1.53125 0.484375l-0.515625 1.375q-0.546875 -0.328125 -1.078125 -0.328125q-0.484375 0 -0.875 0.296875q-0.390625 0.296875 -0.546875 0.8125q-0.25 0.78125 -0.25 1.71875l0 4.578125l-1.484375 0zm8.8591 -1.328125l0.21875 1.3125q-0.625 0.125 -1.125 0.125q-0.8125 0 -1.25 -0.25q-0.4375 -0.25 -0.625 -0.65625q-0.1875 -0.421875 -0.1875 -1.765625l0 -5.015625l-1.078125 0l0 -1.15625l1.078125 0l0 -2.15625l1.484375 -0.890625l0 3.046875l1.484375 0l0 1.15625l-1.484375 0l0 5.109375q0 0.625 0.078125 0.8125q0.078125 0.171875 0.25 0.28125q0.171875 0.109375 0.5 0.109375q0.25 0 0.65625 -0.0625zm1.4609833 -9.03125l0 -1.703125l1.46875 0l0 1.703125l-1.46875 0zm0 10.359375l0 -8.734375l1.46875 0l0 8.734375l-1.46875 0zm9.429642 -3.203125l1.453125 0.1875q-0.234375 1.515625 -1.21875 2.375q-0.984375 0.84375 -2.421875 0.84375q-1.78125 0 -2.875 -1.171875q-1.09375 -1.171875 -1.09375 -3.359375q0 -1.421875 0.46875 -2.484375q0.46875 -1.0625 1.421875 -1.59375q0.96875 -0.53125 2.09375 -0.53125q1.421875 0 2.328125 0.71875q0.90625 0.71875 1.15625 2.046875l-1.4375 0.21875q-0.203125 -0.875 -0.734375 -1.3125q-0.515625 -0.453125 -1.25 -0.453125q-1.125 0 -1.828125 0.8125q-0.703125 0.796875 -0.703125 2.53125q0 1.765625 0.671875 2.5625q0.6875 0.796875 1.765625 0.796875q0.875 0 1.453125 -0.53125q0.59375 -0.546875 0.75 -1.65625zm2.734375 -7.15625l0 -1.703125l1.46875 0l0 1.703125l-1.46875 0zm0 10.359375l0 -8.734375l1.46875 0l0 8.734375l-1.46875 0zm3.7265167 3.34375l0 -12.078125l1.34375 0l0 1.140625q0.484375 -0.671875 1.078125 -1.0q0.609375 -0.34375 1.46875 -0.34375q1.109375 0 1.96875 0.578125q0.859375 0.578125 1.28125 1.625q0.4375 1.046875 0.4375 2.296875q0 1.34375 -0.484375 2.421875q-0.46875 1.0625 -1.390625 1.640625q-0.921875 0.578125 -1.921875 0.578125q-0.75 0 -1.34375 -0.3125q-0.578125 -0.3125 -0.953125 -0.796875l0 4.25l-1.484375 0zm1.34375 -7.65625q0 1.6875 0.671875 2.5q0.6875 0.796875 1.65625 0.796875q1.0 0 1.703125 -0.828125q0.703125 -0.84375 0.703125 -2.59375q0 -1.671875 -0.6875 -2.5q-0.6875 -0.828125 -1.640625 -0.828125q-0.953125 0 -1.6875 0.890625q-0.71875 0.875 -0.71875 2.5625zm13.727066 3.234375q-0.828125 0.703125 -1.59375 1.0q-0.75 0.28125 -1.625 0.28125q-1.4375 0 -2.21875 -0.703125q-0.765625 -0.703125 -0.765625 -1.796875q0 -0.640625 0.28125 -1.171875q0.296875 -0.53125 0.765625 -0.84375q0.484375 -0.328125 1.078125 -0.5q0.4375 -0.109375 1.3125 -0.21875q1.796875 -0.21875 2.640625 -0.515625q0 -0.296875 0 -0.390625q0 -0.890625 -0.40625 -1.265625q-0.578125 -0.5 -1.6875 -0.5q-1.046875 0 -1.546875 0.375q-0.5 0.359375 -0.734375 1.28125l-1.453125 -0.203125q0.203125 -0.921875 0.65625 -1.484375q0.453125 -0.578125 1.296875 -0.890625q0.859375 -0.3125 1.984375 -0.3125q1.125 0 1.8125 0.265625q0.703125 0.265625 1.03125 0.671875q0.34375 0.390625 0.46875 1.0q0.078125 0.375 0.078125 1.359375l0 1.984375q0 2.0625 0.09375 2.609375q0.09375 0.546875 0.375 1.046875l-1.546875 0q-0.234375 -0.453125 -0.296875 -1.078125zm-0.125 -3.3125q-0.8125 0.34375 -2.421875 0.5625q-0.90625 0.140625 -1.296875 0.3125q-0.375 0.15625 -0.578125 0.46875q-0.203125 0.3125 -0.203125 0.703125q0 0.59375 0.4375 0.984375q0.453125 0.390625 1.328125 0.390625q0.84375 0 1.515625 -0.359375q0.671875 -0.375 0.984375 -1.03125q0.234375 -0.5 0.234375 -1.484375l0 -0.546875zm3.789566 4.390625l0 -8.734375l1.328125 0l0 1.234375q0.96875 -1.4375 2.78125 -1.4375q0.796875 0 1.453125 0.296875q0.671875 0.28125 1.0 0.75q0.328125 0.453125 0.453125 1.078125q0.078125 0.40625 0.078125 1.4375l0 5.375l-1.46875 0l0 -5.3125q0 -0.90625 -0.1875 -1.34375q-0.171875 -0.453125 -0.609375 -0.71875q-0.4375 -0.28125 -1.03125 -0.28125q-0.9375 0 -1.625 0.609375q-0.6875 0.59375 -0.6875 2.28125l0 4.765625l-1.484375 0zm12.602066 -1.328125l0.21875 1.3125q-0.625 0.125 -1.125 0.125q-0.8125 0 -1.25 -0.25q-0.4375 -0.25 -0.625 -0.65625q-0.1875 -0.421875 -0.1875 -1.765625l0 -5.015625l-1.078125 0l0 -1.15625l1.078125 0l0 -2.15625l1.484375 -0.890625l0 3.046875l1.484375 0l0 1.15625l-1.484375 0l0 5.109375q0 0.625 0.078125 0.8125q0.078125 0.171875 0.25 0.28125q0.171875 0.109375 0.5 0.109375q0.25 0 0.65625 -0.0625zm13.500092 -0.09375l0 1.421875l-7.96875 0q-0.015625 -0.53125 0.171875 -1.03125q0.296875 -0.8125 0.96875 -1.59375q0.671875 -0.796875 1.9375 -1.828125q1.96875 -1.609375 2.65625 -2.546875q0.6875 -0.953125 0.6875 -1.796875q0 -0.875 -0.625 -1.46875q-0.625 -0.609375 -1.640625 -0.609375q-1.0625 0 -1.71875 0.640625q-0.640625 0.640625 -0.640625 1.765625l-1.515625 -0.15625q0.15625 -1.703125 1.171875 -2.59375q1.015625 -0.890625 2.734375 -0.890625q1.734375 0 2.75 0.96875q1.015625 0.953125 1.015625 2.375q0 0.734375 -0.296875 1.4375q-0.296875 0.6875 -0.984375 1.46875q-0.6875 0.765625 -2.28125 2.125q-1.34375 1.109375 -1.71875 1.515625q-0.375 0.390625 -0.625 0.796875l5.921875 0z" fill-rule="nonzero"/><path fill="#000000" fill-opacity="0.0" d="m323.59177 133.793l108.97638 0l0 112.063" fill-rule="evenodd"/><path stroke="#6aa84f" stroke-width="0.9028871391076115" stroke-linejoin="round" stroke-linecap="butt" d="m323.59177 133.793l108.97635 0l0 106.645676" fill-rule="evenodd"/><path fill="#6aa84f" stroke="#6aa84f" stroke-width="0.9028871391076115" stroke-linecap="butt" d="m431.07678 240.43867l1.491333 4.0973816l1.491333 -4.0973816z" fill-rule="evenodd"/><path fill="#000000" fill-opacity="0.0" d="m433.15414 322.11795l0 38.70868" fill-rule="evenodd"/><path stroke="#93c47d" stroke-width="1.0" stroke-linejoin="round" stroke-linecap="butt" d="m433.1541 322.11798l0 32.70862" fill-rule="evenodd"/><path fill="#93c47d" stroke="#93c47d" stroke-width="1.0" stroke-linecap="butt" d="m431.50238 354.8266l1.6517334 4.5381165l1.6517334 -4.5381165z" fill-rule="evenodd"/><path fill="#cfe2f3" d="m385.1381 438.72256l96.031494 0l0 46.740173l-96.031494 0z" fill-rule="evenodd"/><path stroke="#000000" stroke-width="0.9028871391076115" stroke-linejoin="round" stroke-linecap="butt" d="m385.1381 438.72256l96.031494 0l0 46.740173l-96.031494 0z" fill-rule="evenodd"/><path fill="#000000" d="m403.11377 468.27542l0 -12.0625l8.71875 0l0 1.421875l-7.125 0l0 3.703125l6.671875 0l0 1.40625l-6.671875 0l0 4.109375l7.40625 0l0 1.421875l-9.0 0zm11.0159 0l0 -8.734375l1.328125 0l0 1.234375q0.96875 -1.4375 2.78125 -1.4375q0.796875 0 1.453125 0.296875q0.671875 0.28125 1.0 0.75q0.328125 0.453125 0.453125 1.078125q0.078125 0.40625 0.078125 1.4375l0 5.375l-1.46875 0l0 -5.3125q0 -0.90625 -0.1875 -1.34375q-0.171875 -0.453125 -0.609375 -0.71875q-0.4375 -0.28125 -1.03125 -0.28125q-0.9375 0 -1.625 0.609375q-0.6875 0.59375 -0.6875 2.28125l0 4.765625l-1.484375 0zm15.070801 -3.203125l1.453125 0.1875q-0.234375 1.515625 -1.21875 2.375q-0.984375 0.84375 -2.421875 0.84375q-1.78125 0 -2.875 -1.171875q-1.09375 -1.171875 -1.09375 -3.359375q0 -1.421875 0.46875 -2.484375q0.46875 -1.0625 1.421875 -1.59375q0.96875 -0.53125 2.09375 -0.53125q1.421875 0 2.328125 0.71875q0.90625 0.71875 1.15625 2.046875l-1.4375 0.21875q-0.203125 -0.875 -0.734375 -1.3125q-0.515625 -0.453125 -1.25 -0.453125q-1.125 0 -1.828125 0.8125q-0.703125 0.796875 -0.703125 2.53125q0 1.765625 0.671875 2.5625q0.6875 0.796875 1.765625 0.796875q0.875 0 1.453125 -0.53125q0.59375 -0.546875 0.75 -1.65625zm2.171875 -1.171875q0 -2.421875 1.34375 -3.59375q1.125 -0.96875 2.75 -0.96875q1.796875 0 2.9375 1.1875q1.15625 1.171875 1.15625 3.265625q0 1.6875 -0.515625 2.65625q-0.5 0.953125 -1.46875 1.5q-0.96875 0.53125 -2.109375 0.53125q-1.828125 0 -2.96875 -1.171875q-1.125 -1.1875 -1.125 -3.40625zm1.515625 0q0 1.6875 0.734375 2.53125q0.734375 0.828125 1.84375 0.828125q1.09375 0 1.828125 -0.84375q0.734375 -0.84375 0.734375 -2.5625q0 -1.609375 -0.734375 -2.4375q-0.734375 -0.84375 -1.828125 -0.84375q-1.109375 0 -1.84375 0.828125q-0.734375 0.828125 -0.734375 2.5zm14.070831 4.375l0 -1.109375q-0.828125 1.3125 -2.453125 1.3125q-1.03125 0 -1.921875 -0.578125q-0.875 -0.578125 -1.359375 -1.609375q-0.46875 -1.03125 -0.46875 -2.375q0 -1.3125 0.4375 -2.375q0.4375 -1.0625 1.296875 -1.625q0.875 -0.578125 1.953125 -0.578125q0.796875 0 1.40625 0.34375q0.625 0.328125 1.0 0.859375l0 -4.328125l1.484375 0l0 12.0625l-1.375 0zm-4.6875 -4.359375q0 1.671875 0.703125 2.515625q0.71875 0.828125 1.671875 0.828125q0.96875 0 1.640625 -0.796875q0.6875 -0.796875 0.6875 -2.421875q0 -1.796875 -0.6875 -2.625q-0.6875 -0.84375 -1.703125 -0.84375q-0.984375 0 -1.65625 0.8125q-0.65625 0.796875 -0.65625 2.53125zm14.367676 1.546875l1.53125 0.1875q-0.375 1.34375 -1.359375 2.09375q-0.96875 0.734375 -2.484375 0.734375q-1.921875 0 -3.046875 -1.171875q-1.125 -1.1875 -1.125 -3.328125q0 -2.203125 1.140625 -3.421875q1.140625 -1.21875 2.953125 -1.21875q1.75 0 2.859375 1.203125q1.109375 1.1875 1.109375 3.34375q0 0.140625 -0.015625 0.40625l-6.515625 0q0.09375 1.4375 0.8125 2.203125q0.734375 0.765625 1.828125 0.765625q0.8125 0 1.390625 -0.421875q0.578125 -0.4375 0.921875 -1.375zm-4.859375 -2.390625l4.875 0q-0.109375 -1.109375 -0.5625 -1.65625q-0.703125 -0.859375 -1.828125 -0.859375q-1.03125 0 -1.734375 0.6875q-0.6875 0.6875 -0.75 1.828125zm8.227081 5.203125l0 -8.734375l1.328125 0l0 1.328125q0.515625 -0.9375 0.9375 -1.234375q0.4375 -0.296875 0.953125 -0.296875q0.75 0 1.53125 0.484375l-0.515625 1.375q-0.546875 -0.328125 -1.078125 -0.328125q-0.484375 0 -0.875 0.296875q-0.390625 0.296875 -0.546875 0.8125q-0.25 0.78125 -0.25 1.71875l0 4.578125l-1.484375 0z" fill-rule="nonzero"/><path fill="#000000" fill-opacity="0.0" d="m433.15384 407.5756l0 31.149597" fill-rule="evenodd"/><path stroke="#000000" stroke-width="1.0" stroke-linejoin="round" stroke-linecap="butt" d="m433.15384 407.5756l0 25.149597" fill-rule="evenodd"/><path fill="#000000" stroke="#000000" stroke-width="1.0" stroke-linecap="butt" d="m431.5021 432.7252l1.6517334 4.538086l1.6517334 -4.538086z" fill-rule="evenodd"/><path fill="#000000" fill-opacity="0.0" d="m481.1696 462.09265l279.14957 0" fill-rule="evenodd"/><path stroke="#a61c00" stroke-width="1.0" stroke-linejoin="round" stroke-linecap="butt" d="m481.1696 462.09265l273.14957 0" fill-rule="evenodd"/><path fill="#a61c00" stroke="#a61c00" stroke-width="1.0" stroke-linecap="butt" d="m754.31915 463.7444l4.538086 -1.6517334l-4.538086 -1.6517334z" fill-rule="evenodd"/><path fill="#000000" fill-opacity="0.0" d="m333.51886 530.65735l233.00787 0l0 33.57483l-233.00787 0z" fill-rule="evenodd"/><path fill="#000000" d="m342.44073 551.3724l0 -9.53125l3.9375 0q0.140625 0 0.359375 0.015625q0.21875 0 0.40625 0.046875q0.828125 0.125 1.359375 0.546875q0.546875 0.421875 0.796875 1.0625q0.265625 0.640625 0.265625 1.4375q0 1.15625 -0.59375 2.0q-0.578125 0.828125 -1.796875 1.03125l-0.6875 0.0625l-2.453125 0l0 3.328125l-1.59375 0zm5.484375 0l-1.890625 -3.875l1.625 -0.359375l2.0625 4.234375l-1.796875 0zm-3.890625 -4.8125l2.28125 0q0.140625 0 0.296875 -0.015625q0.171875 -0.015625 0.3125 -0.0625q0.390625 -0.09375 0.609375 -0.34375q0.234375 -0.25 0.328125 -0.5625q0.09375 -0.328125 0.09375 -0.625q0 -0.3125 -0.09375 -0.625q-0.09375 -0.328125 -0.328125 -0.578125q-0.21875 -0.25 -0.609375 -0.34375q-0.140625 -0.046875 -0.3125 -0.046875q-0.15625 -0.015625 -0.296875 -0.015625l-2.28125 0l0 3.21875zm10.390778 5.015625q-1.078125 0 -1.90625 -0.46875q-0.8125 -0.46875 -1.28125 -1.296875q-0.453125 -0.84375 -0.453125 -1.9375q0 -1.171875 0.4375 -2.03125q0.453125 -0.859375 1.25 -1.328125q0.8125 -0.484375 1.859375 -0.484375q1.109375 0 1.890625 0.515625q0.78125 0.515625 1.15625 1.46875q0.375 0.953125 0.28125 2.234375l-1.578125 0l0 -0.59375q0 -1.15625 -0.40625 -1.6875q-0.40625 -0.546875 -1.265625 -0.546875q-0.984375 0 -1.46875 0.609375q-0.46875 0.609375 -0.46875 1.765625q0 1.09375 0.46875 1.6875q0.484375 0.59375 1.390625 0.59375q0.59375 0 1.015625 -0.25q0.4375 -0.265625 0.65625 -0.765625l1.578125 0.46875q-0.40625 0.96875 -1.265625 1.515625q-0.859375 0.53125 -1.890625 0.53125zm-2.453125 -3.328125l0 -1.203125l4.90625 0l0 1.203125l-4.90625 0zm10.279449 3.328125q-1.109375 0 -1.890625 -0.484375q-0.78125 -0.5 -1.203125 -1.359375q-0.40625 -0.859375 -0.40625 -1.9375q0 -1.09375 0.421875 -1.9375q0.4375 -0.859375 1.21875 -1.34375q0.796875 -0.484375 1.875 -0.484375q1.21875 0 2.0625 0.609375q0.84375 0.609375 1.109375 1.671875l-1.59375 0.4375q-0.1875 -0.578125 -0.625 -0.890625q-0.421875 -0.328125 -0.96875 -0.328125q-0.625 0 -1.03125 0.296875q-0.40625 0.28125 -0.59375 0.796875q-0.1875 0.515625 -0.1875 1.171875q0 1.03125 0.453125 1.65625q0.453125 0.625 1.359375 0.625q0.640625 0 1.0 -0.28125q0.375 -0.296875 0.546875 -0.84375l1.640625 0.359375q-0.34375 1.09375 -1.171875 1.6875q-0.8125 0.578125 -2.015625 0.578125zm7.464447 0q-1.0625 0 -1.875 -0.484375q-0.796875 -0.484375 -1.234375 -1.328125q-0.4375 -0.859375 -0.4375 -1.96875q0 -1.125 0.4375 -1.96875q0.453125 -0.84375 1.25 -1.3125q0.8125 -0.484375 1.859375 -0.484375q1.078125 0 1.875 0.484375q0.8125 0.484375 1.25 1.34375q0.453125 0.84375 0.453125 1.9375q0 1.109375 -0.453125 1.96875q-0.453125 0.84375 -1.25 1.328125q-0.796875 0.484375 -1.875 0.484375zm0 -1.5q0.953125 0 1.421875 -0.625q0.46875 -0.640625 0.46875 -1.65625q0 -1.03125 -0.484375 -1.640625q-0.46875 -0.625 -1.40625 -0.625q-0.640625 0 -1.0625 0.28125q-0.40625 0.28125 -0.609375 0.796875q-0.1875 0.515625 -0.1875 1.1875q0 1.046875 0.46875 1.671875q0.46875 0.609375 1.390625 0.609375zm5.0224304 1.296875l0 -7.140625l1.40625 0l0 1.734375l-0.171875 -0.21875q0.140625 -0.359375 0.359375 -0.65625q0.21875 -0.296875 0.53125 -0.484375q0.265625 -0.1875 0.578125 -0.28125q0.328125 -0.109375 0.65625 -0.125q0.34375 -0.03125 0.671875 0.03125l0 1.484375q-0.328125 -0.09375 -0.734375 -0.0625q-0.40625 0.03125 -0.75 0.234375q-0.328125 0.171875 -0.546875 0.453125q-0.203125 0.28125 -0.296875 0.640625q-0.09375 0.34375 -0.09375 0.765625l0 3.625l-1.609375 0zm8.02298 0.203125q-0.984375 0 -1.71875 -0.5q-0.734375 -0.5 -1.140625 -1.34375q-0.40625 -0.859375 -0.40625 -1.9375q0 -1.078125 0.40625 -1.921875q0.40625 -0.859375 1.15625 -1.34375q0.75 -0.5 1.75 -0.5q1.03125 0 1.71875 0.5q0.6875 0.484375 1.046875 1.34375q0.359375 0.84375 0.359375 1.921875q0 1.0625 -0.359375 1.921875q-0.359375 0.859375 -1.0625 1.359375q-0.703125 0.5 -1.75 0.5zm0.234375 -1.4375q0.640625 0 1.03125 -0.28125q0.40625 -0.296875 0.578125 -0.828125q0.1875 -0.53125 0.1875 -1.234375q0 -0.703125 -0.1875 -1.21875q-0.171875 -0.53125 -0.5625 -0.828125q-0.375 -0.296875 -0.984375 -0.296875q-0.640625 0 -1.0625 0.328125q-0.421875 0.3125 -0.625 0.84375q-0.1875 0.53125 -0.1875 1.171875q0 0.65625 0.1875 1.1875q0.203125 0.53125 0.609375 0.84375q0.40625 0.3125 1.015625 0.3125zm1.796875 1.234375l0 -5.015625l-0.203125 0l0 -4.515625l1.609375 0l0 9.53125l-1.40625 0zm3.3998413 -8.234375l0 -1.453125l1.59375 0l0 1.453125l-1.59375 0zm0 8.234375l0 -7.140625l1.59375 0l0 7.140625l-1.59375 0zm8.524689 0l0 -3.4375q0 -0.34375 -0.046875 -0.75q-0.046875 -0.40625 -0.21875 -0.78125q-0.171875 -0.390625 -0.515625 -0.625q-0.328125 -0.25 -0.890625 -0.25q-0.3125 0 -0.609375 0.09375q-0.296875 0.09375 -0.546875 0.34375q-0.234375 0.234375 -0.375 0.65625q-0.140625 0.421875 -0.140625 1.078125l-0.953125 -0.40625q0 -0.90625 0.359375 -1.640625q0.359375 -0.75 1.046875 -1.1875q0.6875 -0.453125 1.6875 -0.453125q0.796875 0 1.3125 0.265625q0.515625 0.265625 0.8125 0.6875q0.3125 0.40625 0.453125 0.875q0.140625 0.453125 0.1875 0.875q0.046875 0.40625 0.046875 0.671875l0 3.984375l-1.609375 0zm-4.96875 0l0 -7.140625l1.421875 0l0 2.203125l0.203125 0l0 4.9375l-1.625 0zm11.309204 3.375q-0.609375 0 -1.15625 -0.1875q-0.53125 -0.1875 -0.96875 -0.53125q-0.4375 -0.34375 -0.71875 -0.84375l1.46875 -0.71875q0.203125 0.390625 0.578125 0.578125q0.375 0.1875 0.796875 0.1875q0.5 0 0.890625 -0.171875q0.390625 -0.171875 0.59375 -0.515625q0.21875 -0.34375 0.203125 -0.859375l0 -2.03125l0.203125 0l0 -5.421875l1.390625 0l0 7.484375q0 0.265625 -0.03125 0.515625q-0.015625 0.25 -0.0625 0.484375q-0.15625 0.703125 -0.609375 1.140625q-0.453125 0.453125 -1.125 0.671875q-0.65625 0.21875 -1.453125 0.21875zm-0.140625 -3.171875q-0.984375 0 -1.71875 -0.5q-0.734375 -0.5 -1.140625 -1.34375q-0.40625 -0.859375 -0.40625 -1.9375q0 -1.078125 0.40625 -1.921875q0.40625 -0.859375 1.15625 -1.34375q0.75 -0.5 1.75 -0.5q1.03125 0 1.71875 0.5q0.6875 0.484375 1.046875 1.34375q0.359375 0.84375 0.359375 1.921875q0 1.0625 -0.359375 1.921875q-0.359375 0.859375 -1.0625 1.359375q-0.703125 0.5 -1.75 0.5zm0.234375 -1.4375q0.640625 0 1.03125 -0.28125q0.40625 -0.296875 0.578125 -0.828125q0.1875 -0.53125 0.1875 -1.234375q0 -0.703125 -0.1875 -1.21875q-0.171875 -0.53125 -0.5625 -0.828125q-0.375 -0.296875 -0.984375 -0.296875q-0.640625 0 -1.0625 0.328125q-0.421875 0.3125 -0.625 0.84375q-0.1875 0.53125 -0.1875 1.171875q0 0.65625 0.1875 1.1875q0.203125 0.53125 0.609375 0.84375q0.40625 0.3125 1.015625 0.3125zm11.220947 1.4375q-1.046875 0 -1.890625 -0.359375q-0.828125 -0.375 -1.375 -1.046875q-0.53125 -0.6875 -0.671875 -1.609375l1.640625 -0.265625q0.21875 0.859375 0.875 1.328125q0.65625 0.453125 1.515625 0.453125q0.515625 0 0.96875 -0.15625q0.453125 -0.15625 0.734375 -0.453125q0.28125 -0.3125 0.28125 -0.765625q0 -0.1875 -0.078125 -0.359375q-0.0625 -0.171875 -0.1875 -0.296875q-0.125 -0.140625 -0.328125 -0.25q-0.203125 -0.109375 -0.46875 -0.1875l-2.46875 -0.734375q-0.3125 -0.078125 -0.6875 -0.234375q-0.359375 -0.15625 -0.6875 -0.4375q-0.328125 -0.28125 -0.546875 -0.703125q-0.203125 -0.421875 -0.203125 -1.046875q0 -0.921875 0.46875 -1.546875q0.46875 -0.625 1.25 -0.9375q0.796875 -0.3125 1.765625 -0.3125q0.984375 0.015625 1.75 0.34375q0.765625 0.328125 1.28125 0.953125q0.515625 0.609375 0.734375 1.5l-1.71875 0.296875q-0.109375 -0.515625 -0.40625 -0.859375q-0.296875 -0.359375 -0.734375 -0.546875q-0.4375 -0.1875 -0.921875 -0.1875q-0.484375 -0.015625 -0.890625 0.140625q-0.40625 0.140625 -0.65625 0.421875q-0.25 0.28125 -0.25 0.65625q0 0.34375 0.21875 0.5625q0.21875 0.21875 0.53125 0.359375q0.3125 0.125 0.640625 0.203125l1.703125 0.484375q0.34375 0.09375 0.78125 0.25q0.4375 0.15625 0.84375 0.453125q0.40625 0.28125 0.65625 0.75q0.265625 0.453125 0.265625 1.171875q0 0.734375 -0.3125 1.296875q-0.296875 0.5625 -0.828125 0.9375q-0.515625 0.359375 -1.1875 0.546875q-0.671875 0.1875 -1.40625 0.1875zm8.420197 0q-1.078125 0 -1.90625 -0.46875q-0.8125 -0.46875 -1.28125 -1.296875q-0.453125 -0.84375 -0.453125 -1.9375q0 -1.171875 0.4375 -2.03125q0.453125 -0.859375 1.25 -1.328125q0.8125 -0.484375 1.859375 -0.484375q1.109375 0 1.890625 0.515625q0.78125 0.515625 1.15625 1.46875q0.375 0.953125 0.28125 2.234375l-1.578125 0l0 -0.59375q0 -1.15625 -0.40625 -1.6875q-0.40625 -0.546875 -1.265625 -0.546875q-0.984375 0 -1.46875 0.609375q-0.46875 0.609375 -0.46875 1.765625q0 1.09375 0.46875 1.6875q0.484375 0.59375 1.390625 0.59375q0.59375 0 1.015625 -0.25q0.4375 -0.265625 0.65625 -0.765625l1.578125 0.46875q-0.40625 0.96875 -1.265625 1.515625q-0.859375 0.53125 -1.890625 0.53125zm-2.453125 -3.328125l0 -1.203125l4.90625 0l0 1.203125l-4.90625 0zm7.1700745 3.125l0 -7.140625l1.40625 0l0 1.734375l-0.171875 -0.21875q0.140625 -0.359375 0.359375 -0.65625q0.21875 -0.296875 0.53125 -0.484375q0.265625 -0.1875 0.578125 -0.28125q0.328125 -0.109375 0.65625 -0.125q0.34375 -0.03125 0.671875 0.03125l0 1.484375q-0.328125 -0.09375 -0.734375 -0.0625q-0.40625 0.03125 -0.75 0.234375q-0.328125 0.171875 -0.546875 0.453125q-0.203125 0.28125 -0.296875 0.640625q-0.09375 0.34375 -0.09375 0.765625l0 3.625l-1.609375 0zm7.217926 0l-2.59375 -7.140625l1.59375 0l1.796875 5.171875l1.796875 -5.171875l1.59375 0l-2.59375 7.140625l-1.59375 0zm8.366089 0.203125q-1.078125 0 -1.90625 -0.46875q-0.8125 -0.46875 -1.28125 -1.296875q-0.453125 -0.84375 -0.453125 -1.9375q0 -1.171875 0.4375 -2.03125q0.453125 -0.859375 1.25 -1.328125q0.8125 -0.484375 1.859375 -0.484375q1.109375 0 1.890625 0.515625q0.78125 0.515625 1.15625 1.46875q0.375 0.953125 0.28125 2.234375l-1.578125 0l0 -0.59375q0 -1.15625 -0.40625 -1.6875q-0.40625 -0.546875 -1.265625 -0.546875q-0.984375 0 -1.46875 0.609375q-0.46875 0.609375 -0.46875 1.765625q0 1.09375 0.46875 1.6875q0.484375 0.59375 1.390625 0.59375q0.59375 0 1.015625 -0.25q0.4375 -0.265625 0.65625 -0.765625l1.578125 0.46875q-0.40625 0.96875 -1.265625 1.515625q-0.859375 0.53125 -1.890625 0.53125zm-2.453125 -3.328125l0 -1.203125l4.90625 0l0 1.203125l-4.90625 0zm7.1700745 3.125l0 -7.140625l1.40625 0l0 1.734375l-0.171875 -0.21875q0.140625 -0.359375 0.359375 -0.65625q0.21875 -0.296875 0.53125 -0.484375q0.265625 -0.1875 0.578125 -0.28125q0.328125 -0.109375 0.65625 -0.125q0.34375 -0.03125 0.671875 0.03125l0 1.484375q-0.328125 -0.09375 -0.734375 -0.0625q-0.40625 0.03125 -0.75 0.234375q-0.328125 0.171875 -0.546875 0.453125q-0.203125 0.28125 -0.296875 0.640625q-0.09375 0.34375 -0.09375 0.765625l0 3.625l-1.609375 0z" fill-rule="nonzero"/><path fill="#000000" fill-opacity="0.0" d="m323.59177 191.23306l25.0 0l0 -75.84252l-24.937012 0" fill-rule="evenodd"/><path stroke="#6aa84f" stroke-width="1.0" stroke-linejoin="round" stroke-linecap="butt" d="m323.59177 191.23306l24.99997 0l0 -75.84252l-18.936981 0" fill-rule="evenodd"/><path fill="#6aa84f" stroke="#6aa84f" stroke-width="1.0" stroke-linecap="butt" d="m329.65475 113.73881l-4.538086 1.6517334l4.538086 1.6517334z" fill-rule="evenodd"/><path fill="#000000" fill-opacity="0.0" d="m323.59177 133.793l25.0 0l0 39.055115l-24.937012 0" fill-rule="evenodd"/><path stroke="#6aa84f" stroke-width="1.0" stroke-linejoin="round" stroke-linecap="butt" d="m323.59177 133.793l24.99997 0l0 39.055115l-18.936981 0" fill-rule="evenodd"/><path fill="#6aa84f" stroke="#6aa84f" stroke-width="1.0" stroke-linecap="butt" d="m329.65475 171.19638l-4.538086 1.6517334l4.538086 1.6517334z" fill-rule="evenodd"/><path fill="#000000" fill-opacity="0.0" d="m323.59177 191.23306l108.97638 0l0 54.64566" fill-rule="evenodd"/><path stroke="#6aa84f" stroke-width="1.0" stroke-linejoin="round" stroke-linecap="butt" d="m323.59177 191.23306l108.97635 0l0 48.645676" fill-rule="evenodd"/><path fill="#6aa84f" stroke="#6aa84f" stroke-width="1.0" stroke-linecap="butt" d="m430.91638 239.87874l1.6517334 4.538086l1.6517334 -4.538086z" fill-rule="evenodd"/><path fill="#000000" fill-opacity="0.0" d="m444.55118 257.46063l502.07877 0l0 42.015747l-502.07877 0z" fill-rule="evenodd"/><path fill="#6aa84f" d="m471.59805 271.0525l-3.40625 13.328125l-3.203125 0l-1.8125 -7.0q-0.046875 -0.203125 -0.140625 -0.609375q-0.078125 -0.40625 -0.1875 -0.890625q-0.09375 -0.5 -0.171875 -0.9375q-0.078125 -0.4375 -0.109375 -0.671875q-0.015625 0.234375 -0.109375 0.671875q-0.078125 0.4375 -0.171875 0.921875q-0.09375 0.46875 -0.1875 0.890625q-0.09375 0.421875 -0.15625 0.640625l-1.78125 6.984375l-3.21875 0l-3.390625 -13.328125l2.78125 0l1.703125 7.28125q0.0625 0.3125 0.15625 0.78125q0.09375 0.453125 0.1875 0.953125q0.09375 0.484375 0.171875 0.953125q0.09375 0.46875 0.125 0.796875q0.046875 -0.34375 0.109375 -0.796875q0.078125 -0.46875 0.171875 -0.9375q0.09375 -0.484375 0.171875 -0.890625q0.09375 -0.421875 0.171875 -0.671875l1.9375 -7.46875l2.671875 0l1.9375 7.46875q0.046875 0.25 0.140625 0.671875q0.09375 0.40625 0.1875 0.890625q0.09375 0.484375 0.171875 0.953125q0.078125 0.453125 0.109375 0.78125q0.0625 -0.453125 0.171875 -1.09375q0.109375 -0.65625 0.25 -1.296875q0.140625 -0.65625 0.234375 -1.09375l1.703125 -7.28125l2.78125 0zm5.323517 2.953125q1.421875 0 2.4375 0.53125q1.03125 0.53125 1.578125 1.578125q0.5625 1.03125 0.5625 2.515625l0 1.359375l-6.546875 0q0.03125 1.15625 0.703125 1.828125q0.671875 0.65625 1.921875 0.65625q0.953125 0 1.734375 -0.1875q0.78125 -0.1875 1.609375 -0.5625l0 2.109375q-0.75 0.375 -1.578125 0.546875q-0.828125 0.1875 -2.0625 0.1875q-1.515625 0 -2.6875 -0.5625q-1.15625 -0.5625 -1.828125 -1.71875q-0.671875 -1.171875 -0.671875 -2.921875q0 -1.796875 0.609375 -2.96875q0.609375 -1.1875 1.6875 -1.78125q1.09375 -0.609375 2.53125 -0.609375zm0.078125 2.0q-0.84375 0 -1.359375 0.53125q-0.515625 0.53125 -0.609375 1.578125l3.84375 0q0 -0.625 -0.21875 -1.078125q-0.203125 -0.46875 -0.625 -0.75q-0.40625 -0.28125 -1.03125 -0.28125zm9.528412 -2.5q0 0.578125 -0.03125 1.109375q-0.015625 0.515625 -0.078125 0.90625l0.109375 0q0.421875 -0.640625 1.109375 -1.078125q0.6875 -0.4375 1.796875 -0.4375q1.6875 0 2.75 1.34375q1.0625 1.328125 1.0625 3.921875q0 1.734375 -0.484375 2.921875q-0.484375 1.1875 -1.375 1.78125q-0.875 0.59375 -2.03125 0.59375q-1.125 0 -1.765625 -0.390625q-0.640625 -0.40625 -1.0625 -0.890625l-0.171875 0l-0.46875 1.09375l-2.171875 0l0 -14.171875l2.8125 0l0 3.296875zm1.984375 2.734375q-0.703125 0 -1.140625 0.3125q-0.4375 0.296875 -0.640625 0.90625q-0.203125 0.59375 -0.203125 1.5625l0 0.34375q0 1.4375 0.4375 2.1875q0.453125 0.734375 1.578125 0.734375q0.921875 0 1.390625 -0.78125q0.46875 -0.78125 0.46875 -2.28125q0 -1.46875 -0.46875 -2.21875q-0.453125 -0.765625 -1.421875 -0.765625zm11.3063965 -5.1875q1.75 0 2.90625 0.453125q1.15625 0.4375 1.71875 1.296875q0.578125 0.84375 0.578125 2.140625q0 0.890625 -0.3125 1.59375q-0.3125 0.6875 -0.859375 1.171875q-0.546875 0.484375 -1.234375 0.796875l3.78125 5.875l-3.25 0l-2.96875 -5.109375l-1.59375 0l0 5.109375l-2.859375 0l0 -13.328125l4.09375 0zm-0.0625 2.234375l-1.171875 0l0 3.78125l1.171875 0q1.140625 0 1.75 -0.46875q0.625 -0.46875 0.625 -1.53125q0 -0.59375 -0.25 -0.984375q-0.25 -0.390625 -0.78125 -0.59375q-0.515625 -0.203125 -1.34375 -0.203125zm13.44162 11.09375l-2.859375 0l0 -10.953125l-3.59375 0l0 -2.375l10.046875 0l0 2.375l-3.59375 0l0 10.953125zm11.000732 -11.140625q-0.796875 0 -1.453125 0.3125q-0.640625 0.3125 -1.09375 0.90625q-0.4375 0.578125 -0.671875 1.40625q-0.234375 0.828125 -0.234375 1.890625q0 1.40625 0.390625 2.40625q0.390625 0.984375 1.1875 1.515625q0.796875 0.515625 1.984375 0.515625q0.875 0 1.6875 -0.203125q0.8125 -0.203125 1.640625 -0.515625l0 2.421875q-0.84375 0.359375 -1.71875 0.515625q-0.859375 0.15625 -1.921875 0.15625q-2.125 0 -3.5 -0.84375q-1.375 -0.859375 -2.03125 -2.40625q-0.65625 -1.546875 -0.65625 -3.578125q0 -1.515625 0.40625 -2.765625q0.421875 -1.265625 1.234375 -2.171875q0.828125 -0.921875 2.015625 -1.421875q1.203125 -0.5 2.78125 -0.5q0.984375 0 2.0 0.21875q1.015625 0.203125 1.9375 0.65625l-0.9375 2.265625q-0.671875 -0.3125 -1.4375 -0.546875q-0.75 -0.234375 -1.609375 -0.234375z" fill-rule="nonzero"/><path fill="#000000" fill-opacity="0.0" d="m557.30444 413.10236l502.07874 0l0 42.015747l-502.07874 0z" fill-rule="evenodd"/><path fill="#980000" d="m571.9763 426.69424q1.75 0 2.90625 0.453125q1.15625 0.4375 1.71875 1.296875q0.578125 0.84375 0.578125 2.140625q0 0.890625 -0.3125 1.59375q-0.3125 0.6875 -0.859375 1.171875q-0.546875 0.484375 -1.234375 0.796875l3.78125 5.875l-3.25 0l-2.96875 -5.109375l-1.59375 0l0 5.109375l-2.859375 0l0 -13.328125l4.09375 0zm-0.0625 2.234375l-1.171875 0l0 3.78125l1.171875 0q1.140625 0 1.75 -0.46875q0.625 -0.46875 0.625 -1.53125q0 -0.59375 -0.25 -0.984375q-0.25 -0.390625 -0.78125 -0.59375q-0.515625 -0.203125 -1.34375 -0.203125zm13.44165 11.09375l-2.859375 0l0 -10.953125l-3.59375 0l0 -2.375l10.046875 0l0 2.375l-3.59375 0l0 10.953125zm11.264648 0l-3.203125 -10.453125l-0.078125 0q0.015625 0.375 0.046875 1.125q0.046875 0.75 0.078125 1.59375q0.046875 0.84375 0.046875 1.546875l0 6.1875l-2.53125 0l0 -13.328125l3.84375 0l3.15625 10.1875l0.0625 0l3.34375 -10.1875l3.828125 0l0 13.328125l-2.625 0l0 -6.3125q0 -0.625 0.03125 -1.4375q0.03125 -0.828125 0.046875 -1.5625q0.03125 -0.75 0.046875 -1.109375l-0.0625 0l-3.4375 10.421875l-2.59375 0zm16.04602 -13.328125q2.578125 0 3.796875 1.078125q1.234375 1.078125 1.234375 3.03125q0 0.875 -0.265625 1.6875q-0.25 0.796875 -0.859375 1.4375q-0.609375 0.640625 -1.59375 1.015625q-0.984375 0.359375 -2.421875 0.359375l-1.21875 0l0 4.71875l-2.859375 0l0 -13.328125l4.1875 0zm-0.09375 2.34375l-1.234375 0l0 3.90625l0.953125 0q0.78125 0 1.34375 -0.1875q0.578125 -0.203125 0.875 -0.65625q0.3125 -0.453125 0.3125 -1.203125q0 -0.890625 -0.546875 -1.375q-0.546875 -0.484375 -1.703125 -0.484375z" fill-rule="nonzero"/><path fill="#cfe2f3" d="m760.32855 369.8609l137.48029 0l0 46.740143l-137.48029 0z" fill-rule="evenodd"/><path stroke="#000000" stroke-width="0.9028871391076115" stroke-linejoin="round" stroke-linecap="butt" d="m760.32855 369.8609l137.48029 0l0 46.740143l-137.48029 0z" fill-rule="evenodd"/><path fill="#000000" d="m781.2078 399.41376l0 -12.0625l4.15625 0q1.40625 0 2.140625 0.171875q1.046875 0.25 1.78125 0.875q0.953125 0.796875 1.421875 2.0625q0.46875 1.25 0.46875 2.859375q0 1.375 -0.328125 2.4375q-0.3125 1.0625 -0.8125 1.765625q-0.5 0.6875 -1.09375 1.09375q-0.59375 0.390625 -1.4375 0.59375q-0.84375 0.203125 -1.9375 0.203125l-4.359375 0zm1.59375 -1.421875l2.578125 0q1.1875 0 1.859375 -0.21875q0.6875 -0.21875 1.09375 -0.625q0.5625 -0.578125 0.875 -1.53125q0.328125 -0.953125 0.328125 -2.328125q0 -1.890625 -0.625 -2.90625q-0.625 -1.015625 -1.5 -1.359375q-0.65625 -0.25 -2.078125 -0.25l-2.53125 0l0 9.21875zm16.367126 -1.390625l1.53125 0.1875q-0.375 1.34375 -1.359375 2.09375q-0.96875 0.734375 -2.484375 0.734375q-1.921875 0 -3.046875 -1.171875q-1.125 -1.1875 -1.125 -3.328125q0 -2.203125 1.140625 -3.421875q1.140625 -1.21875 2.953125 -1.21875q1.75 0 2.859375 1.203125q1.109375 1.1875 1.109375 3.34375q0 0.140625 -0.015625 0.40625l-6.515625 0q0.09375 1.4375 0.8125 2.203125q0.734375 0.765625 1.828125 0.765625q0.8125 0 1.390625 -0.421875q0.578125 -0.4375 0.921875 -1.375zm-4.859375 -2.390625l4.875 0q-0.109375 -1.109375 -0.5625 -1.65625q-0.703125 -0.859375 -1.828125 -0.859375q-1.03125 0 -1.734375 0.6875q-0.6875 0.6875 -0.75 1.828125zm7.648926 2.59375l1.46875 -0.234375q0.125 0.890625 0.6875 1.359375q0.5625 0.46875 1.578125 0.46875q1.015625 0 1.5 -0.40625q0.5 -0.421875 0.5 -0.984375q0 -0.5 -0.4375 -0.796875q-0.296875 -0.1875 -1.515625 -0.5q-1.625 -0.40625 -2.25 -0.703125q-0.625 -0.3125 -0.953125 -0.84375q-0.328125 -0.53125 -0.328125 -1.171875q0 -0.578125 0.265625 -1.078125q0.265625 -0.5 0.734375 -0.828125q0.34375 -0.25 0.9375 -0.421875q0.59375 -0.1875 1.28125 -0.1875q1.03125 0 1.796875 0.296875q0.78125 0.296875 1.140625 0.8125q0.375 0.5 0.515625 1.34375l-1.4375 0.203125q-0.109375 -0.671875 -0.578125 -1.046875q-0.46875 -0.390625 -1.328125 -0.390625q-1.03125 0 -1.46875 0.34375q-0.421875 0.328125 -0.421875 0.78125q0 0.296875 0.171875 0.53125q0.1875 0.234375 0.5625 0.390625q0.234375 0.078125 1.3125 0.375q1.578125 0.421875 2.1875 0.6875q0.625 0.265625 0.96875 0.78125q0.359375 0.5 0.359375 1.265625q0 0.734375 -0.4375 1.390625q-0.421875 0.65625 -1.234375 1.015625q-0.8125 0.359375 -1.84375 0.359375q-1.703125 0 -2.59375 -0.703125q-0.890625 -0.71875 -1.140625 -2.109375zm12.25 1.28125l0.21875 1.3125q-0.625 0.125 -1.125 0.125q-0.8125 0 -1.25 -0.25q-0.4375 -0.25 -0.625 -0.65625q-0.1875 -0.421875 -0.1875 -1.765625l0 -5.015625l-1.078125 0l0 -1.15625l1.078125 0l0 -2.15625l1.484375 -0.890625l0 3.046875l1.484375 0l0 1.15625l-1.484375 0l0 5.109375q0 0.625 0.078125 0.8125q0.078125 0.171875 0.25 0.28125q0.171875 0.109375 0.5 0.109375q0.25 0 0.65625 -0.0625zm1.4609985 -9.03125l0 -1.703125l1.46875 0l0 1.703125l-1.46875 0zm0 10.359375l0 -8.734375l1.46875 0l0 8.734375l-1.46875 0zm3.7265015 0l0 -8.734375l1.328125 0l0 1.234375q0.96875 -1.4375 2.78125 -1.4375q0.796875 0 1.453125 0.296875q0.671875 0.28125 1.0 0.75q0.328125 0.453125 0.453125 1.078125q0.078125 0.40625 0.078125 1.4375l0 5.375l-1.46875 0l0 -5.3125q0 -0.90625 -0.1875 -1.34375q-0.171875 -0.453125 -0.609375 -0.71875q-0.4375 -0.28125 -1.03125 -0.28125q-0.9375 0 -1.625 0.609375q-0.6875 0.59375 -0.6875 2.28125l0 4.765625l-1.484375 0zm15.070801 -1.078125q-0.828125 0.703125 -1.59375 1.0q-0.75 0.28125 -1.625 0.28125q-1.4375 0 -2.21875 -0.703125q-0.765625 -0.703125 -0.765625 -1.796875q0 -0.640625 0.28125 -1.171875q0.296875 -0.53125 0.765625 -0.84375q0.484375 -0.328125 1.078125 -0.5q0.4375 -0.109375 1.3125 -0.21875q1.796875 -0.21875 2.640625 -0.515625q0 -0.296875 0 -0.390625q0 -0.890625 -0.40625 -1.265625q-0.578125 -0.5 -1.6875 -0.5q-1.046875 0 -1.546875 0.375q-0.5 0.359375 -0.734375 1.28125l-1.453125 -0.203125q0.203125 -0.921875 0.65625 -1.484375q0.453125 -0.578125 1.296875 -0.890625q0.859375 -0.3125 1.984375 -0.3125q1.125 0 1.8125 0.265625q0.703125 0.265625 1.03125 0.671875q0.34375 0.390625 0.46875 1.0q0.078125 0.375 0.078125 1.359375l0 1.984375q0 2.0625 0.09375 2.609375q0.09375 0.546875 0.375 1.046875l-1.546875 0q-0.234375 -0.453125 -0.296875 -1.078125zm-0.125 -3.3125q-0.8125 0.34375 -2.421875 0.5625q-0.90625 0.140625 -1.296875 0.3125q-0.375 0.15625 -0.578125 0.46875q-0.203125 0.3125 -0.203125 0.703125q0 0.59375 0.4375 0.984375q0.453125 0.390625 1.328125 0.390625q0.84375 0 1.515625 -0.359375q0.671875 -0.375 0.984375 -1.03125q0.234375 -0.5 0.234375 -1.484375l0 -0.546875zm7.023987 3.0625l0.21875 1.3125q-0.625 0.125 -1.125 0.125q-0.8125 0 -1.25 -0.25q-0.4375 -0.25 -0.625 -0.65625q-0.1875 -0.421875 -0.1875 -1.765625l0 -5.015625l-1.078125 0l0 -1.15625l1.078125 0l0 -2.15625l1.484375 -0.890625l0 3.046875l1.484375 0l0 1.15625l-1.484375 0l0 5.109375q0 0.625 0.078125 0.8125q0.078125 0.171875 0.25 0.28125q0.171875 0.109375 0.5 0.109375q0.25 0 0.65625 -0.0625zm1.4609375 -9.03125l0 -1.703125l1.46875 0l0 1.703125l-1.46875 0zm0 10.359375l0 -8.734375l1.46875 0l0 8.734375l-1.46875 0zm3.1796875 -4.375q0 -2.421875 1.34375 -3.59375q1.125 -0.96875 2.75 -0.96875q1.796875 0 2.9375 1.1875q1.15625 1.171875 1.15625 3.265625q0 1.6875 -0.515625 2.65625q-0.5 0.953125 -1.46875 1.5q-0.96875 0.53125 -2.109375 0.53125q-1.828125 0 -2.96875 -1.171875q-1.125 -1.1875 -1.125 -3.40625zm1.515625 0q0 1.6875 0.734375 2.53125q0.734375 0.828125 1.84375 0.828125q1.09375 0 1.828125 -0.84375q0.734375 -0.84375 0.734375 -2.5625q0 -1.609375 -0.734375 -2.4375q-0.734375 -0.84375 -1.828125 -0.84375q-1.109375 0 -1.84375 0.828125q-0.734375 0.828125 -0.734375 2.5zm8.398926 4.375l0 -8.734375l1.328125 0l0 1.234375q0.96875 -1.4375 2.78125 -1.4375q0.796875 0 1.453125 0.296875q0.671875 0.28125 1.0 0.75q0.328125 0.453125 0.453125 1.078125q0.078125 0.40625 0.078125 1.4375l0 5.375l-1.46875 0l0 -5.3125q0 -0.90625 -0.1875 -1.34375q-0.171875 -0.453125 -0.609375 -0.71875q-0.4375 -0.28125 -1.03125 -0.28125q-0.9375 0 -1.625 0.609375q-0.6875 0.59375 -0.6875 2.28125l0 4.765625l-1.484375 0zm19.2193 0l-1.484375 0l0 -9.4375q-0.53125 0.515625 -1.40625 1.03125q-0.859375 0.5 -1.5625 0.75l0 -1.421875q1.25 -0.578125 2.171875 -1.40625q0.9375 -0.84375 1.328125 -1.625l0.953125 0l0 12.109375z" fill-rule="nonzero"/><path fill="#cfe2f3" d="m760.32855 438.72177l137.48029 0l0 46.740173l-137.48029 0z" fill-rule="evenodd"/><path stroke="#000000" stroke-width="0.9028871391076115" stroke-linejoin="round" stroke-linecap="butt" d="m760.32855 438.72177l137.48029 0l0 46.740173l-137.48029 0z" fill-rule="evenodd"/><path fill="#000000" d="m781.2078 468.27466l0 -12.0625l4.15625 0q1.40625 0 2.140625 0.171875q1.046875 0.25 1.78125 0.875q0.953125 0.796875 1.421875 2.0625q0.46875 1.25 0.46875 2.859375q0 1.375 -0.328125 2.4375q-0.3125 1.0625 -0.8125 1.765625q-0.5 0.6875 -1.09375 1.09375q-0.59375 0.390625 -1.4375 0.59375q-0.84375 0.203125 -1.9375 0.203125l-4.359375 0zm1.59375 -1.421875l2.578125 0q1.1875 0 1.859375 -0.21875q0.6875 -0.21875 1.09375 -0.625q0.5625 -0.578125 0.875 -1.53125q0.328125 -0.953125 0.328125 -2.328125q0 -1.890625 -0.625 -2.90625q-0.625 -1.015625 -1.5 -1.359375q-0.65625 -0.25 -2.078125 -0.25l-2.53125 0l0 9.21875zm16.367126 -1.390625l1.53125 0.1875q-0.375 1.34375 -1.359375 2.09375q-0.96875 0.734375 -2.484375 0.734375q-1.921875 0 -3.046875 -1.171875q-1.125 -1.1875 -1.125 -3.328125q0 -2.203125 1.140625 -3.421875q1.140625 -1.21875 2.953125 -1.21875q1.75 0 2.859375 1.203125q1.109375 1.1875 1.109375 3.34375q0 0.140625 -0.015625 0.40625l-6.515625 0q0.09375 1.4375 0.8125 2.203125q0.734375 0.765625 1.828125 0.765625q0.8125 0 1.390625 -0.421875q0.578125 -0.4375 0.921875 -1.375zm-4.859375 -2.390625l4.875 0q-0.109375 -1.109375 -0.5625 -1.65625q-0.703125 -0.859375 -1.828125 -0.859375q-1.03125 0 -1.734375 0.6875q-0.6875 0.6875 -0.75 1.828125zm7.648926 2.59375l1.46875 -0.234375q0.125 0.890625 0.6875 1.359375q0.5625 0.46875 1.578125 0.46875q1.015625 0 1.5 -0.40625q0.5 -0.421875 0.5 -0.984375q0 -0.5 -0.4375 -0.796875q-0.296875 -0.1875 -1.515625 -0.5q-1.625 -0.40625 -2.25 -0.703125q-0.625 -0.3125 -0.953125 -0.84375q-0.328125 -0.53125 -0.328125 -1.171875q0 -0.578125 0.265625 -1.078125q0.265625 -0.5 0.734375 -0.828125q0.34375 -0.25 0.9375 -0.421875q0.59375 -0.1875 1.28125 -0.1875q1.03125 0 1.796875 0.296875q0.78125 0.296875 1.140625 0.8125q0.375 0.5 0.515625 1.34375l-1.4375 0.203125q-0.109375 -0.671875 -0.578125 -1.046875q-0.46875 -0.390625 -1.328125 -0.390625q-1.03125 0 -1.46875 0.34375q-0.421875 0.328125 -0.421875 0.78125q0 0.296875 0.171875 0.53125q0.1875 0.234375 0.5625 0.390625q0.234375 0.078125 1.3125 0.375q1.578125 0.421875 2.1875 0.6875q0.625 0.265625 0.96875 0.78125q0.359375 0.5 0.359375 1.265625q0 0.734375 -0.4375 1.390625q-0.421875 0.65625 -1.234375 1.015625q-0.8125 0.359375 -1.84375 0.359375q-1.703125 0 -2.59375 -0.703125q-0.890625 -0.71875 -1.140625 -2.109375zm12.25 1.28125l0.21875 1.3125q-0.625 0.125 -1.125 0.125q-0.8125 0 -1.25 -0.25q-0.4375 -0.25 -0.625 -0.65625q-0.1875 -0.421875 -0.1875 -1.765625l0 -5.015625l-1.078125 0l0 -1.15625l1.078125 0l0 -2.15625l1.484375 -0.890625l0 3.046875l1.484375 0l0 1.15625l-1.484375 0l0 5.109375q0 0.625 0.078125 0.8125q0.078125 0.171875 0.25 0.28125q0.171875 0.109375 0.5 0.109375q0.25 0 0.65625 -0.0625zm1.4609985 -9.03125l0 -1.703125l1.46875 0l0 1.703125l-1.46875 0zm0 10.359375l0 -8.734375l1.46875 0l0 8.734375l-1.46875 0zm3.7265015 0l0 -8.734375l1.328125 0l0 1.234375q0.96875 -1.4375 2.78125 -1.4375q0.796875 0 1.453125 0.296875q0.671875 0.28125 1.0 0.75q0.328125 0.453125 0.453125 1.078125q0.078125 0.40625 0.078125 1.4375l0 5.375l-1.46875 0l0 -5.3125q0 -0.90625 -0.1875 -1.34375q-0.171875 -0.453125 -0.609375 -0.71875q-0.4375 -0.28125 -1.03125 -0.28125q-0.9375 0 -1.625 0.609375q-0.6875 0.59375 -0.6875 2.28125l0 4.765625l-1.484375 0zm15.070801 -1.078125q-0.828125 0.703125 -1.59375 1.0q-0.75 0.28125 -1.625 0.28125q-1.4375 0 -2.21875 -0.703125q-0.765625 -0.703125 -0.765625 -1.796875q0 -0.640625 0.28125 -1.171875q0.296875 -0.53125 0.765625 -0.84375q0.484375 -0.328125 1.078125 -0.5q0.4375 -0.109375 1.3125 -0.21875q1.796875 -0.21875 2.640625 -0.515625q0 -0.296875 0 -0.390625q0 -0.890625 -0.40625 -1.265625q-0.578125 -0.5 -1.6875 -0.5q-1.046875 0 -1.546875 0.375q-0.5 0.359375 -0.734375 1.28125l-1.453125 -0.203125q0.203125 -0.921875 0.65625 -1.484375q0.453125 -0.578125 1.296875 -0.890625q0.859375 -0.3125 1.984375 -0.3125q1.125 0 1.8125 0.265625q0.703125 0.265625 1.03125 0.671875q0.34375 0.390625 0.46875 1.0q0.078125 0.375 0.078125 1.359375l0 1.984375q0 2.0625 0.09375 2.609375q0.09375 0.546875 0.375 1.046875l-1.546875 0q-0.234375 -0.453125 -0.296875 -1.078125zm-0.125 -3.3125q-0.8125 0.34375 -2.421875 0.5625q-0.90625 0.140625 -1.296875 0.3125q-0.375 0.15625 -0.578125 0.46875q-0.203125 0.3125 -0.203125 0.703125q0 0.59375 0.4375 0.984375q0.453125 0.390625 1.328125 0.390625q0.84375 0 1.515625 -0.359375q0.671875 -0.375 0.984375 -1.03125q0.234375 -0.5 0.234375 -1.484375l0 -0.546875zm7.023987 3.0625l0.21875 1.3125q-0.625 0.125 -1.125 0.125q-0.8125 0 -1.25 -0.25q-0.4375 -0.25 -0.625 -0.65625q-0.1875 -0.421875 -0.1875 -1.765625l0 -5.015625l-1.078125 0l0 -1.15625l1.078125 0l0 -2.15625l1.484375 -0.890625l0 3.046875l1.484375 0l0 1.15625l-1.484375 0l0 5.109375q0 0.625 0.078125 0.8125q0.078125 0.171875 0.25 0.28125q0.171875 0.109375 0.5 0.109375q0.25 0 0.65625 -0.0625zm1.4609375 -9.03125l0 -1.703125l1.46875 0l0 1.703125l-1.46875 0zm0 10.359375l0 -8.734375l1.46875 0l0 8.734375l-1.46875 0zm3.1796875 -4.375q0 -2.421875 1.34375 -3.59375q1.125 -0.96875 2.75 -0.96875q1.796875 0 2.9375 1.1875q1.15625 1.171875 1.15625 3.265625q0 1.6875 -0.515625 2.65625q-0.5 0.953125 -1.46875 1.5q-0.96875 0.53125 -2.109375 0.53125q-1.828125 0 -2.96875 -1.171875q-1.125 -1.1875 -1.125 -3.40625zm1.515625 0q0 1.6875 0.734375 2.53125q0.734375 0.828125 1.84375 0.828125q1.09375 0 1.828125 -0.84375q0.734375 -0.84375 0.734375 -2.5625q0 -1.609375 -0.734375 -2.4375q-0.734375 -0.84375 -1.828125 -0.84375q-1.109375 0 -1.84375 0.828125q-0.734375 0.828125 -0.734375 2.5zm8.398926 4.375l0 -8.734375l1.328125 0l0 1.234375q0.96875 -1.4375 2.78125 -1.4375q0.796875 0 1.453125 0.296875q0.671875 0.28125 1.0 0.75q0.328125 0.453125 0.453125 1.078125q0.078125 0.40625 0.078125 1.4375l0 5.375l-1.46875 0l0 -5.3125q0 -0.90625 -0.1875 -1.34375q-0.171875 -0.453125 -0.609375 -0.71875q-0.4375 -0.28125 -1.03125 -0.28125q-0.9375 0 -1.625 0.609375q-0.6875 0.59375 -0.6875 2.28125l0 4.765625l-1.484375 0zm21.422424 -1.421875l0 1.421875l-7.96875 0q-0.015625 -0.53125 0.171875 -1.03125q0.296875 -0.8125 0.96875 -1.59375q0.671875 -0.796875 1.9375 -1.828125q1.96875 -1.609375 2.65625 -2.546875q0.6875 -0.953125 0.6875 -1.796875q0 -0.875 -0.625 -1.46875q-0.625 -0.609375 -1.640625 -0.609375q-1.0625 0 -1.71875 0.640625q-0.640625 0.640625 -0.640625 1.765625l-1.515625 -0.15625q0.15625 -1.703125 1.171875 -2.59375q1.015625 -0.890625 2.734375 -0.890625q1.734375 0 2.75 0.96875q1.015625 0.953125 1.015625 2.375q0 0.734375 -0.296875 1.4375q-0.296875 0.6875 -0.984375 1.46875q-0.6875 0.765625 -2.28125 2.125q-1.34375 1.109375 -1.71875 1.515625q-0.375 0.390625 -0.625 0.796875l5.921875 0z" fill-rule="nonzero"/><path fill="#cfe2f3" d="m760.32855 519.3333l137.48029 0l0 46.740173l-137.48029 0z" fill-rule="evenodd"/><path stroke="#000000" stroke-width="0.9028871391076115" stroke-linejoin="round" stroke-linecap="butt" d="m760.32855 519.3333l137.48029 0l0 46.740173l-137.48029 0z" fill-rule="evenodd"/><path fill="#000000" d="m781.2078 548.88617l0 -12.0625l4.15625 0q1.40625 0 2.140625 0.171875q1.046875 0.25 1.78125 0.875q0.953125 0.796875 1.421875 2.0625q0.46875 1.25 0.46875 2.859375q0 1.375 -0.328125 2.4375q-0.3125 1.0625 -0.8125 1.765625q-0.5 0.6875 -1.09375 1.09375q-0.59375 0.390625 -1.4375 0.59375q-0.84375 0.203125 -1.9375 0.203125l-4.359375 0zm1.59375 -1.421875l2.578125 0q1.1875 0 1.859375 -0.21875q0.6875 -0.21875 1.09375 -0.625q0.5625 -0.578125 0.875 -1.53125q0.328125 -0.953125 0.328125 -2.328125q0 -1.890625 -0.625 -2.90625q-0.625 -1.015625 -1.5 -1.359375q-0.65625 -0.25 -2.078125 -0.25l-2.53125 0l0 9.21875zm16.367126 -1.390625l1.53125 0.1875q-0.375 1.34375 -1.359375 2.09375q-0.96875 0.734375 -2.484375 0.734375q-1.921875 0 -3.046875 -1.171875q-1.125 -1.1875 -1.125 -3.328125q0 -2.203125 1.140625 -3.421875q1.140625 -1.21875 2.953125 -1.21875q1.75 0 2.859375 1.203125q1.109375 1.1875 1.109375 3.34375q0 0.140625 -0.015625 0.40625l-6.515625 0q0.09375 1.4375 0.8125 2.203125q0.734375 0.765625 1.828125 0.765625q0.8125 0 1.390625 -0.421875q0.578125 -0.4375 0.921875 -1.375zm-4.859375 -2.390625l4.875 0q-0.109375 -1.109375 -0.5625 -1.65625q-0.703125 -0.859375 -1.828125 -0.859375q-1.03125 0 -1.734375 0.6875q-0.6875 0.6875 -0.75 1.828125zm7.648926 2.59375l1.46875 -0.234375q0.125 0.890625 0.6875 1.359375q0.5625 0.46875 1.578125 0.46875q1.015625 0 1.5 -0.40625q0.5 -0.421875 0.5 -0.984375q0 -0.5 -0.4375 -0.796875q-0.296875 -0.1875 -1.515625 -0.5q-1.625 -0.40625 -2.25 -0.703125q-0.625 -0.3125 -0.953125 -0.84375q-0.328125 -0.53125 -0.328125 -1.171875q0 -0.578125 0.265625 -1.078125q0.265625 -0.5 0.734375 -0.828125q0.34375 -0.25 0.9375 -0.421875q0.59375 -0.1875 1.28125 -0.1875q1.03125 0 1.796875 0.296875q0.78125 0.296875 1.140625 0.8125q0.375 0.5 0.515625 1.34375l-1.4375 0.203125q-0.109375 -0.671875 -0.578125 -1.046875q-0.46875 -0.390625 -1.328125 -0.390625q-1.03125 0 -1.46875 0.34375q-0.421875 0.328125 -0.421875 0.78125q0 0.296875 0.171875 0.53125q0.1875 0.234375 0.5625 0.390625q0.234375 0.078125 1.3125 0.375q1.578125 0.421875 2.1875 0.6875q0.625 0.265625 0.96875 0.78125q0.359375 0.5 0.359375 1.265625q0 0.734375 -0.4375 1.390625q-0.421875 0.65625 -1.234375 1.015625q-0.8125 0.359375 -1.84375 0.359375q-1.703125 0 -2.59375 -0.703125q-0.890625 -0.71875 -1.140625 -2.109375zm12.25 1.28125l0.21875 1.3125q-0.625 0.125 -1.125 0.125q-0.8125 0 -1.25 -0.25q-0.4375 -0.25 -0.625 -0.65625q-0.1875 -0.421875 -0.1875 -1.765625l0 -5.015625l-1.078125 0l0 -1.15625l1.078125 0l0 -2.15625l1.484375 -0.890625l0 3.046875l1.484375 0l0 1.15625l-1.484375 0l0 5.109375q0 0.625 0.078125 0.8125q0.078125 0.171875 0.25 0.28125q0.171875 0.109375 0.5 0.109375q0.25 0 0.65625 -0.0625zm1.4609985 -9.03125l0 -1.703125l1.46875 0l0 1.703125l-1.46875 0zm0 10.359375l0 -8.734375l1.46875 0l0 8.734375l-1.46875 0zm3.7265015 0l0 -8.734375l1.328125 0l0 1.234375q0.96875 -1.4375 2.78125 -1.4375q0.796875 0 1.453125 0.296875q0.671875 0.28125 1.0 0.75q0.328125 0.453125 0.453125 1.078125q0.078125 0.40625 0.078125 1.4375l0 5.375l-1.46875 0l0 -5.3125q0 -0.90625 -0.1875 -1.34375q-0.171875 -0.453125 -0.609375 -0.71875q-0.4375 -0.28125 -1.03125 -0.28125q-0.9375 0 -1.625 0.609375q-0.6875 0.59375 -0.6875 2.28125l0 4.765625l-1.484375 0zm15.070801 -1.078125q-0.828125 0.703125 -1.59375 1.0q-0.75 0.28125 -1.625 0.28125q-1.4375 0 -2.21875 -0.703125q-0.765625 -0.703125 -0.765625 -1.796875q0 -0.640625 0.28125 -1.171875q0.296875 -0.53125 0.765625 -0.84375q0.484375 -0.328125 1.078125 -0.5q0.4375 -0.109375 1.3125 -0.21875q1.796875 -0.21875 2.640625 -0.515625q0 -0.296875 0 -0.390625q0 -0.890625 -0.40625 -1.265625q-0.578125 -0.5 -1.6875 -0.5q-1.046875 0 -1.546875 0.375q-0.5 0.359375 -0.734375 1.28125l-1.453125 -0.203125q0.203125 -0.921875 0.65625 -1.484375q0.453125 -0.578125 1.296875 -0.890625q0.859375 -0.3125 1.984375 -0.3125q1.125 0 1.8125 0.265625q0.703125 0.265625 1.03125 0.671875q0.34375 0.390625 0.46875 1.0q0.078125 0.375 0.078125 1.359375l0 1.984375q0 2.0625 0.09375 2.609375q0.09375 0.546875 0.375 1.046875l-1.546875 0q-0.234375 -0.453125 -0.296875 -1.078125zm-0.125 -3.3125q-0.8125 0.34375 -2.421875 0.5625q-0.90625 0.140625 -1.296875 0.3125q-0.375 0.15625 -0.578125 0.46875q-0.203125 0.3125 -0.203125 0.703125q0 0.59375 0.4375 0.984375q0.453125 0.390625 1.328125 0.390625q0.84375 0 1.515625 -0.359375q0.671875 -0.375 0.984375 -1.03125q0.234375 -0.5 0.234375 -1.484375l0 -0.546875zm7.023987 3.0625l0.21875 1.3125q-0.625 0.125 -1.125 0.125q-0.8125 0 -1.25 -0.25q-0.4375 -0.25 -0.625 -0.65625q-0.1875 -0.421875 -0.1875 -1.765625l0 -5.015625l-1.078125 0l0 -1.15625l1.078125 0l0 -2.15625l1.484375 -0.890625l0 3.046875l1.484375 0l0 1.15625l-1.484375 0l0 5.109375q0 0.625 0.078125 0.8125q0.078125 0.171875 0.25 0.28125q0.171875 0.109375 0.5 0.109375q0.25 0 0.65625 -0.0625zm1.4609375 -9.03125l0 -1.703125l1.46875 0l0 1.703125l-1.46875 0zm0 10.359375l0 -8.734375l1.46875 0l0 8.734375l-1.46875 0zm3.1796875 -4.375q0 -2.421875 1.34375 -3.59375q1.125 -0.96875 2.75 -0.96875q1.796875 0 2.9375 1.1875q1.15625 1.171875 1.15625 3.265625q0 1.6875 -0.515625 2.65625q-0.5 0.953125 -1.46875 1.5q-0.96875 0.53125 -2.109375 0.53125q-1.828125 0 -2.96875 -1.171875q-1.125 -1.1875 -1.125 -3.40625zm1.515625 0q0 1.6875 0.734375 2.53125q0.734375 0.828125 1.84375 0.828125q1.09375 0 1.828125 -0.84375q0.734375 -0.84375 0.734375 -2.5625q0 -1.609375 -0.734375 -2.4375q-0.734375 -0.84375 -1.828125 -0.84375q-1.109375 0 -1.84375 0.828125q-0.734375 0.828125 -0.734375 2.5zm8.398926 4.375l0 -8.734375l1.328125 0l0 1.234375q0.96875 -1.4375 2.78125 -1.4375q0.796875 0 1.453125 0.296875q0.671875 0.28125 1.0 0.75q0.328125 0.453125 0.453125 1.078125q0.078125 0.40625 0.078125 1.4375l0 5.375l-1.46875 0l0 -5.3125q0 -0.90625 -0.1875 -1.34375q-0.171875 -0.453125 -0.609375 -0.71875q-0.4375 -0.28125 -1.03125 -0.28125q-0.9375 0 -1.625 0.609375q-0.6875 0.59375 -0.6875 2.28125l0 4.765625l-1.484375 0zm13.641174 -3.1875l1.484375 -0.1875q0.25 1.25 0.859375 1.8125q0.625 0.546875 1.5 0.546875q1.046875 0 1.765625 -0.71875q0.71875 -0.71875 0.71875 -1.796875q0 -1.015625 -0.671875 -1.671875q-0.65625 -0.671875 -1.6875 -0.671875q-0.421875 0 -1.046875 0.171875l0.171875 -1.296875q0.140625 0.015625 0.234375 0.015625q0.9375 0 1.6875 -0.5q0.765625 -0.5 0.765625 -1.515625q0 -0.8125 -0.546875 -1.34375q-0.546875 -0.546875 -1.421875 -0.546875q-0.859375 0 -1.4375 0.546875q-0.578125 0.546875 -0.75 1.625l-1.46875 -0.265625q0.265625 -1.484375 1.21875 -2.296875q0.96875 -0.828125 2.40625 -0.828125q0.984375 0 1.8125 0.421875q0.828125 0.421875 1.265625 1.15625q0.453125 0.734375 0.453125 1.5625q0 0.78125 -0.421875 1.421875q-0.421875 0.640625 -1.25 1.015625q1.078125 0.25 1.671875 1.03125q0.59375 0.765625 0.59375 1.9375q0 1.578125 -1.15625 2.6875q-1.15625 1.09375 -2.90625 1.09375q-1.59375 0 -2.640625 -0.9375q-1.046875 -0.953125 -1.203125 -2.46875z" fill-rule="nonzero"/><path fill="#000000" fill-opacity="0.0" d="m481.1696 462.09265l139.58035 0l0 -68.8504l139.56921 0" fill-rule="evenodd"/><path stroke="#a61c00" stroke-width="1.0" stroke-linejoin="round" stroke-linecap="butt" d="m481.1696 462.09265l139.58035 0l0 -68.8504l133.56921 0" fill-rule="evenodd"/><path fill="#a61c00" stroke="#a61c00" stroke-width="1.0" stroke-linecap="butt" d="m754.31915 394.89398l4.538086 -1.6517334l-4.538086 -1.6517334z" fill-rule="evenodd"/><path fill="#000000" fill-opacity="0.0" d="m481.1696 462.09265l139.58035 0l0 80.59845l139.56921 0" fill-rule="evenodd"/><path stroke="#a61c00" stroke-width="1.0" stroke-linejoin="round" stroke-linecap="butt" d="m481.1696 462.09265l139.58035 0l0 80.59839l133.56921 0" fill-rule="evenodd"/><path fill="#a61c00" stroke="#a61c00" stroke-width="1.0" stroke-linecap="butt" d="m754.31915 544.3428l4.538086 -1.6517334l-4.538086 -1.6517334z" fill-rule="evenodd"/></g></svg>