<svg version="1.1" viewBox="0.0 0.0 960.0 720.0" fill="none" stroke="none" stroke-linecap="square" stroke-miterlimit="10" xmlns:xlink="http://www.w3.org/1999/xlink" xmlns="http://www.w3.org/2000/svg"><clipPath id="p.0"><path d="m0 0l960.0 0l0 720.0l-960.0 0l0 -720.0z" clip-rule="nonzero"/></clipPath><g clip-path="url(#p.0)"><path fill="#ffffff" d="m0 0l960.0 0l0 720.0l-960.0 0z" fill-rule="evenodd"/><path fill="#000000" fill-opacity="0.0" d="m58.98163 53.333332l430.4252 0l0 296.37793l-430.4252 0z" fill-rule="evenodd"/><path stroke="#000000" stroke-width="1.0" stroke-linejoin="round" stroke-linecap="butt" d="m58.98163 53.333332l430.4252 0l0 296.37793l-430.4252 0z" fill-rule="evenodd"/><path fill="#000000" fill-opacity="0.0" d="m58.98163 391.00262l430.4252 0l0 296.37793l-430.4252 0z" fill-rule="evenodd"/><path stroke="#000000" stroke-width="1.0" stroke-linejoin="round" stroke-linecap="butt" d="m58.98163 391.00262l430.4252 0l0 296.37793l-430.4252 0z" fill-rule="evenodd"/><path fill="#000000" d="m267.57275 542.12726l-1.6875 0q-0.078125 0.59375 -0.28125 1.109375q-0.203125 0.515625 -0.53125 0.890625q-0.34375 0.375 -0.828125 0.59375q-0.484375 0.203125 -1.15625 0.203125q-0.609375 0 -1.0625 -0.1875q-0.453125 -0.203125 -0.796875 -0.546875q-0.328125 -0.34375 -0.546875 -0.78125q-0.21875 -0.453125 -0.359375 -0.953125q-0.140625 -0.5 -0.203125 -1.015625q-0.046875 -0.53125 -0.046875 -1.03125l0 -1.859375q0 -0.5 0.046875 -1.015625q0.0625 -0.53125 0.203125 -1.03125q0.140625 -0.5 0.359375 -0.9375q0.21875 -0.453125 0.5625 -0.796875q0.328125 -0.328125 0.78125 -0.515625q0.46875 -0.203125 1.0625 -0.203125q0.671875 0 1.15625 0.21875q0.484375 0.21875 0.828125 0.609375q0.328125 0.390625 0.53125 0.921875q0.203125 0.515625 0.28125 1.109375l1.6875 0q-0.109375 -0.9375 -0.453125 -1.71875q-0.34375 -0.796875 -0.90625 -1.359375q-0.5625 -0.546875 -1.34375 -0.859375q-0.78125 -0.3125 -1.78125 -0.3125q-0.828125 0 -1.5 0.234375q-0.65625 0.234375 -1.171875 0.640625q-0.53125 0.421875 -0.90625 0.984375q-0.375 0.546875 -0.625 1.203125q-0.25 0.65625 -0.375 1.375q-0.125 0.71875 -0.140625 1.46875l0 1.84375q0.015625 0.734375 0.140625 1.453125q0.125 0.71875 0.375 1.375q0.25 0.65625 0.625 1.21875q0.375 0.546875 0.90625 0.96875q0.515625 0.40625 1.1875 0.640625q0.671875 0.234375 1.484375 0.234375q0.96875 0 1.734375 -0.296875q0.78125 -0.3125 1.359375 -0.875q0.5625 -0.546875 0.921875 -1.3125q0.359375 -0.765625 0.46875 -1.6875zm4.4455566 -1.328125l2.625 0q0.890625 -0.015625 1.6875 -0.28125q0.796875 -0.265625 1.390625 -0.765625q0.609375 -0.5 0.953125 -1.234375q0.359375 -0.734375 0.359375 -1.6875q0 -0.953125 -0.359375 -1.6875q-0.34375 -0.75 -0.953125 -1.25q-0.59375 -0.5 -1.390625 -0.765625q-0.796875 -0.265625 -1.6875 -0.28125l-4.3125 0l0 13.265625l1.6875 0l0 -5.3125zm0 -1.390625l0 -5.171875l2.625 0q0.578125 0 1.0625 0.1875q0.5 0.1875 0.875 0.515625q0.34375 0.34375 0.546875 0.828125q0.21875 0.484375 0.21875 1.078125q0 0.609375 -0.21875 1.078125q-0.203125 0.46875 -0.5625 0.796875q-0.359375 0.328125 -0.859375 0.5q-0.484375 0.171875 -1.0625 0.1875l-2.625 0zm17.679962 -6.5625l-1.625 0l-0.03125 8.984375q-0.015625 0.59375 -0.1875 1.140625q-0.171875 0.546875 -0.5 0.96875q-0.34375 0.421875 -0.84375 0.671875q-0.484375 0.25 -1.125 0.25q-0.640625 0 -1.140625 -0.25q-0.5 -0.265625 -0.828125 -0.671875q-0.34375 -0.421875 -0.515625 -0.96875q-0.171875 -0.546875 -0.1875 -1.140625l-0.03125 -8.984375l-1.609375 0l-0.015625 8.984375q0.015625 0.921875 0.328125 1.75q0.3125 0.8125 0.890625 1.40625q0.5625 0.609375 1.34375 0.96875q0.796875 0.34375 1.765625 0.34375q0.953125 0 1.734375 -0.34375q0.796875 -0.359375 1.375 -0.96875q0.578125 -0.609375 0.890625 -1.421875q0.328125 -0.8125 0.328125 -1.734375l-0.015625 -8.984375z" fill-rule="nonzero"/><path fill="#000000" fill-opacity="0.0" d="m588.5696 386.1496l275.9685 0l0 140.34644l-275.9685 0z" fill-rule="evenodd"/><path stroke="#000000" stroke-width="1.0" stroke-linejoin="round" stroke-linecap="butt" d="m588.5696 386.1496l275.9685 0l0 140.34644l-275.9685 0z" fill-rule="evenodd"/><path fill="#000000" d="m715.7292 457.83658l2.609375 5.40625l1.78125 0l0 -0.109375l-2.8125 -5.671875q0.546875 -0.234375 1.0 -0.5625q0.46875 -0.34375 0.796875 -0.78125q0.328125 -0.4375 0.5 -0.96875q0.1875 -0.546875 0.1875 -1.1875q0 -1.0 -0.34375 -1.734375q-0.34375 -0.75 -0.953125 -1.25q-0.625 -0.484375 -1.453125 -0.734375q-0.8125 -0.25 -1.75 -0.265625l-3.875 0l0 13.265625l1.671875 0l0 -5.40625l2.640625 0zm-2.640625 -1.390625l0 -5.078125l2.203125 0q0.625 0 1.125 0.171875q0.515625 0.15625 0.890625 0.484375q0.375 0.328125 0.578125 0.8125q0.21875 0.46875 0.21875 1.109375q0 0.59375 -0.21875 1.0625q-0.21875 0.453125 -0.59375 0.78125q-0.375 0.3125 -0.875 0.484375q-0.5 0.15625 -1.078125 0.171875l-2.25 0zm15.789368 3.359375l1.046875 3.4375l1.671875 0l-4.203125 -13.265625l-1.421875 0l-4.28125 13.265625l1.6875 0l1.0625 -3.4375l4.4375 0zm-3.984375 -1.46875l1.78125 -5.75l1.75 5.75l-3.53125 0zm10.695557 -8.359375l-2.09375 0l0 13.265625l1.640625 0l0 -5.296875l-0.140625 -5.34375l2.25 6.953125l0.96875 0l2.453125 -7.140625l-0.140625 5.53125l0 5.296875l1.640625 0l0 -13.265625l-2.09375 0l-2.328125 6.640625l-2.15625 -6.640625z" fill-rule="nonzero"/><path fill="#000000" fill-opacity="0.0" d="m292.3517 242.49081l134.2362 0l0 88.91339l-134.2362 0z" fill-rule="evenodd"/><path stroke="#000000" stroke-width="1.0" stroke-linejoin="round" stroke-linecap="butt" d="m292.3517 242.49081l134.2362 0l0 88.91339l-134.2362 0z" fill-rule="evenodd"/><path fill="#000000" d="m324.8594 281.13312l-0.03125 -4.875l-4.296875 0l0 1.421875l2.6875 0l-0.015625 2.984375q-0.203125 0.296875 -0.515625 0.484375q-0.3125 0.1875 -0.671875 0.296875q-0.34375 0.109375 -0.734375 0.15625q-0.375 0.03125 -0.71875 0.015625q-0.59375 0 -1.078125 -0.203125q-0.46875 -0.21875 -0.828125 -0.5625q-0.359375 -0.34375 -0.625 -0.796875q-0.25 -0.453125 -0.40625 -0.96875q-0.171875 -0.515625 -0.25 -1.046875q-0.078125 -0.53125 -0.078125 -1.03125l0 -1.5625q0 -0.484375 0.0625 -1.015625q0.0625 -0.53125 0.203125 -1.03125q0.15625 -0.515625 0.375 -0.96875q0.234375 -0.46875 0.578125 -0.8125q0.34375 -0.34375 0.796875 -0.546875q0.46875 -0.203125 1.078125 -0.203125q0.625 0 1.09375 0.203125q0.484375 0.1875 0.828125 0.53125q0.34375 0.34375 0.546875 0.828125q0.203125 0.484375 0.3125 1.0625l1.65625 0q-0.078125 -0.921875 -0.4375 -1.671875q-0.34375 -0.765625 -0.9375 -1.296875q-0.578125 -0.53125 -1.359375 -0.8125q-0.78125 -0.296875 -1.71875 -0.296875q-0.828125 0 -1.515625 0.25q-0.671875 0.25 -1.1875 0.671875q-0.546875 0.421875 -0.9375 1.0q-0.375 0.578125 -0.625 1.25q-0.25 0.6875 -0.375 1.421875q-0.125 0.71875 -0.140625 1.46875l0 1.53125q0.015625 0.75 0.15625 1.484375q0.140625 0.734375 0.421875 1.390625q0.28125 0.671875 0.6875 1.25q0.40625 0.578125 0.953125 1.0q0.546875 0.421875 1.234375 0.671875q0.6875 0.234375 1.5 0.25q0.8125 0 1.546875 -0.1875q0.75 -0.1875 1.390625 -0.5625q0.375 -0.21875 0.71875 -0.515625q0.34375 -0.296875 0.65625 -0.65625zm9.070557 -8.296875q-1.078125 0 -1.921875 0.46875q-0.84375 0.46875 -1.4375 1.265625l-0.015625 -0.234375l-0.078125 -1.328125l-1.59375 0l0 9.859375l1.6875 0l0 -6.328125q0.171875 -0.453125 0.421875 -0.8125q0.25 -0.375 0.578125 -0.625q0.375 -0.296875 0.875 -0.4375q0.5 -0.15625 1.125 -0.15625q0.484375 0 0.921875 0.046875q0.453125 0.046875 0.9375 0.15625l0.234375 -1.640625q-0.265625 -0.109375 -0.765625 -0.171875q-0.5 -0.0625 -0.96875 -0.0625zm11.211212 10.03125l1.75 0l0 -0.140625q-0.15625 -0.421875 -0.25 -0.96875q-0.09375 -0.546875 -0.09375 -1.046875l0 -4.578125q0 -0.828125 -0.296875 -1.4375q-0.296875 -0.625 -0.8125 -1.046875q-0.53125 -0.40625 -1.25 -0.609375q-0.71875 -0.203125 -1.5625 -0.203125q-0.921875 0 -1.65625 0.25q-0.71875 0.25 -1.21875 0.65625q-0.5 0.421875 -0.78125 0.953125q-0.265625 0.515625 -0.265625 1.046875l1.6875 0q0 -0.3125 0.140625 -0.59375q0.15625 -0.28125 0.4375 -0.5q0.265625 -0.203125 0.65625 -0.328125q0.40625 -0.140625 0.90625 -0.140625q0.546875 0 0.96875 0.140625q0.4375 0.140625 0.734375 0.390625q0.296875 0.25 0.453125 0.609375q0.171875 0.34375 0.171875 0.796875l0 0.78125l-1.828125 0q-1.03125 0 -1.875 0.203125q-0.828125 0.1875 -1.421875 0.59375q-0.59375 0.40625 -0.921875 1.015625q-0.3125 0.609375 -0.3125 1.421875q0 0.625 0.234375 1.15625q0.25 0.53125 0.6875 0.90625q0.4375 0.40625 1.0625 0.640625q0.640625 0.21875 1.4375 0.21875q0.46875 0 0.890625 -0.109375q0.4375 -0.09375 0.828125 -0.265625q0.375 -0.171875 0.6875 -0.390625q0.3125 -0.234375 0.5625 -0.5q0.03125 0.3125 0.09375 0.609375q0.0625 0.28125 0.15625 0.46875zm-2.984375 -1.28125q-0.484375 0 -0.859375 -0.125q-0.375 -0.140625 -0.625 -0.359375q-0.234375 -0.21875 -0.359375 -0.53125q-0.125 -0.3125 -0.125 -0.671875q0 -0.390625 0.140625 -0.6875q0.140625 -0.296875 0.40625 -0.515625q0.390625 -0.3125 1.03125 -0.453125q0.65625 -0.15625 1.53125 -0.15625l1.5625 0l0 2.0q-0.140625 0.28125 -0.40625 0.5625q-0.25 0.265625 -0.59375 0.46875q-0.34375 0.203125 -0.78125 0.34375q-0.421875 0.125 -0.921875 0.125zm7.6955566 5.078125l1.6875 0l0 -4.75q0.171875 0.203125 0.375 0.375q0.21875 0.171875 0.453125 0.3125q0.390625 0.21875 0.875 0.328125q0.5 0.125 1.0625 0.125q0.921875 0 1.640625 -0.375q0.734375 -0.390625 1.234375 -1.0625q0.484375 -0.6875 0.734375 -1.59375q0.265625 -0.921875 0.265625 -1.96875l0 -0.203125q0 -1.09375 -0.265625 -2.015625q-0.25 -0.9375 -0.734375 -1.59375q-0.5 -0.671875 -1.234375 -1.03125q-0.71875 -0.375 -1.671875 -0.375q-0.53125 0 -1.0 0.109375q-0.46875 0.109375 -0.859375 0.328125q-0.265625 0.140625 -0.515625 0.359375q-0.234375 0.203125 -0.421875 0.453125l-0.09375 -1.078125l-1.53125 0l0 13.65625zm6.640625 -8.8125l0 0.203125q0 0.71875 -0.171875 1.375q-0.15625 0.65625 -0.484375 1.15625q-0.328125 0.5 -0.84375 0.796875q-0.5 0.296875 -1.203125 0.296875q-0.4375 0 -0.796875 -0.109375q-0.359375 -0.109375 -0.640625 -0.3125q-0.265625 -0.15625 -0.46875 -0.390625q-0.1875 -0.234375 -0.34375 -0.515625l0 -4.75q0.171875 -0.296875 0.390625 -0.546875q0.234375 -0.265625 0.53125 -0.4375q0.265625 -0.171875 0.59375 -0.265625q0.328125 -0.09375 0.71875 -0.09375q0.71875 0 1.21875 0.296875q0.515625 0.28125 0.84375 0.78125q0.328125 0.5 0.484375 1.15625q0.171875 0.640625 0.171875 1.359375zm6.242462 -3.375l0 -5.609375l-1.6875 0l0 14.0l1.6875 0l0 -7.15625q0.1875 -0.296875 0.421875 -0.53125q0.234375 -0.25 0.5 -0.421875q0.34375 -0.25 0.75 -0.375q0.421875 -0.125 0.875 -0.125q0.5625 -0.015625 0.984375 0.15625q0.421875 0.15625 0.703125 0.46875q0.265625 0.296875 0.40625 0.734375q0.140625 0.4375 0.140625 1.03125l0 6.21875l1.6875 0l0 -6.203125q0 -1.0 -0.25 -1.71875q-0.234375 -0.71875 -0.6875 -1.203125q-0.4375 -0.46875 -1.078125 -0.6875q-0.625 -0.21875 -1.40625 -0.21875q-0.59375 0 -1.125 0.171875q-0.515625 0.15625 -0.953125 0.484375q-0.265625 0.1875 -0.515625 0.4375q-0.25 0.25 -0.453125 0.546875zm9.773682 -1.46875l0 1.46875l3.359375 0l0 6.9375l-3.359375 0l0 1.453125l8.265625 0l0 -1.453125l-3.21875 0l0 -8.40625l-5.046875 0zm3.140625 -2.578125q0 0.40625 0.25 0.6875q0.25 0.265625 0.765625 0.265625q0.5 0 0.75 -0.265625q0.25 -0.28125 0.25 -0.6875q0 -0.234375 -0.078125 -0.421875q-0.0625 -0.1875 -0.203125 -0.328125q-0.125 -0.109375 -0.3125 -0.171875q-0.171875 -0.078125 -0.40625 -0.078125q-0.25 0 -0.4375 0.078125q-0.171875 0.0625 -0.296875 0.171875q-0.140625 0.140625 -0.21875 0.34375q-0.0625 0.1875 -0.0625 0.40625zm11.992462 11.25q-0.796875 0 -1.328125 -0.3125q-0.53125 -0.3125 -0.84375 -0.828125q-0.328125 -0.5 -0.46875 -1.125q-0.140625 -0.640625 -0.140625 -1.28125l0 -0.390625q0 -0.625 0.140625 -1.25q0.140625 -0.640625 0.46875 -1.15625q0.328125 -0.5 0.859375 -0.8125q0.53125 -0.3125 1.3125 -0.3125q0.515625 0 0.953125 0.171875q0.4375 0.171875 0.765625 0.484375q0.3125 0.296875 0.5 0.6875q0.1875 0.390625 0.203125 0.84375l1.59375 0q0 -0.75 -0.3125 -1.40625q-0.296875 -0.65625 -0.828125 -1.140625q-0.53125 -0.46875 -1.265625 -0.734375q-0.734375 -0.28125 -1.609375 -0.28125q-1.109375 0 -1.953125 0.40625q-0.84375 0.390625 -1.390625 1.0625q-0.5625 0.6875 -0.859375 1.578125q-0.28125 0.890625 -0.28125 1.859375l0 0.390625q0 0.984375 0.28125 1.875q0.296875 0.875 0.859375 1.5625q0.546875 0.671875 1.390625 1.078125q0.84375 0.40625 1.953125 0.40625q0.78125 0 1.5 -0.265625q0.71875 -0.28125 1.28125 -0.734375q0.5625 -0.4375 0.890625 -1.03125q0.328125 -0.609375 0.34375 -1.265625l-1.59375 0q-0.015625 0.40625 -0.21875 0.765625q-0.203125 0.34375 -0.546875 0.609375q-0.328125 0.265625 -0.765625 0.40625q-0.4375 0.140625 -0.890625 0.140625zm13.554932 -1.421875q0 0.234375 -0.09375 0.453125q-0.09375 0.203125 -0.265625 0.375q-0.28125 0.28125 -0.78125 0.4375q-0.5 0.15625 -1.171875 0.15625q-0.4375 0 -0.875 -0.078125q-0.4375 -0.09375 -0.796875 -0.3125q-0.359375 -0.21875 -0.609375 -0.578125q-0.234375 -0.359375 -0.265625 -0.875l-1.6875 0q0 0.625 0.28125 1.21875q0.296875 0.578125 0.84375 1.015625q0.53125 0.4375 1.3125 0.71875q0.78125 0.265625 1.796875 0.265625q0.875 0 1.609375 -0.203125q0.734375 -0.21875 1.265625 -0.609375q0.53125 -0.375 0.8125 -0.90625q0.296875 -0.546875 0.296875 -1.203125q0 -0.609375 -0.265625 -1.0625q-0.25 -0.46875 -0.734375 -0.828125q-0.5 -0.34375 -1.21875 -0.59375q-0.71875 -0.25 -1.625 -0.453125q-0.6875 -0.125 -1.140625 -0.265625q-0.453125 -0.15625 -0.71875 -0.34375q-0.28125 -0.171875 -0.390625 -0.40625q-0.109375 -0.234375 -0.109375 -0.515625q0 -0.28125 0.140625 -0.546875q0.140625 -0.265625 0.40625 -0.46875q0.265625 -0.203125 0.671875 -0.3125q0.40625 -0.125 0.953125 -0.125q0.515625 0 0.921875 0.15625q0.421875 0.140625 0.71875 0.375q0.28125 0.234375 0.4375 0.546875q0.171875 0.296875 0.171875 0.625l1.6875 0q0 -0.65625 -0.28125 -1.21875q-0.265625 -0.5625 -0.78125 -0.96875q-0.515625 -0.421875 -1.25 -0.65625q-0.71875 -0.234375 -1.625 -0.234375q-0.859375 0 -1.5625 0.234375q-0.703125 0.21875 -1.21875 0.609375q-0.5 0.390625 -0.78125 0.921875q-0.28125 0.515625 -0.28125 1.109375q0 0.609375 0.265625 1.078125q0.28125 0.453125 0.78125 0.796875q0.484375 0.34375 1.171875 0.59375q0.703125 0.234375 1.5625 0.421875q0.6875 0.125 1.140625 0.296875q0.46875 0.171875 0.75 0.375q0.28125 0.203125 0.40625 0.4375q0.125 0.234375 0.125 0.546875z" fill-rule="nonzero"/><path fill="#000000" d="m329.3206 291.60187l-2.09375 0l0 13.265625l1.640625 0l0 -5.296875l-0.140625 -5.34375l2.25 6.953125l0.96875 0l2.453125 -7.140625l-0.140625 5.53125l0 5.296875l1.640625 0l0 -13.265625l-2.09375 0l-2.328125 6.640625l-2.15625 -6.640625zm13.695587 13.453125q1.4375 0 2.421875 -0.578125q0.984375 -0.578125 1.46875 -1.328125l-1.03125 -0.796875q-0.46875 0.59375 -1.171875 0.96875q-0.6875 0.359375 -1.59375 0.359375q-0.6875 0 -1.25 -0.25q-0.5625 -0.265625 -0.96875 -0.71875q-0.390625 -0.40625 -0.609375 -0.953125q-0.21875 -0.546875 -0.28125 -1.265625l0 -0.078125l7.03125 0l0 -0.75q0 -1.03125 -0.265625 -1.90625q-0.25 -0.890625 -0.78125 -1.546875q-0.53125 -0.640625 -1.328125 -1.0q-0.796875 -0.375 -1.859375 -0.375q-0.84375 0 -1.65625 0.34375q-0.796875 0.34375 -1.4375 0.984375q-0.625 0.65625 -1.015625 1.609375q-0.375 0.9375 -0.375 2.125l0 0.390625q0 1.03125 0.34375 1.90625q0.34375 0.875 0.96875 1.5q0.609375 0.640625 1.484375 1.0q0.875 0.359375 1.90625 0.359375zm-0.21875 -8.84375q0.65625 0 1.125 0.234375q0.46875 0.234375 0.765625 0.625q0.3125 0.375 0.484375 0.90625q0.171875 0.515625 0.171875 0.984375l0 0.078125l-5.296875 0q0.09375 -0.6875 0.34375 -1.203125q0.265625 -0.53125 0.625 -0.890625q0.359375 -0.359375 0.8125 -0.546875q0.453125 -0.1875 0.96875 -0.1875zm7.8361816 -1.203125l-1.515625 0l0 9.859375l1.609375 0l0 -7.84375q0.046875 -0.140625 0.125 -0.265625q0.09375 -0.140625 0.21875 -0.234375q0.15625 -0.125 0.375 -0.1875q0.21875 -0.078125 0.53125 -0.078125q0.265625 0 0.46875 0.078125q0.203125 0.0625 0.34375 0.203125q0.15625 0.15625 0.21875 0.390625q0.0625 0.234375 0.0625 0.546875l0 7.390625l1.609375 0l0 -7.375q0 -0.0625 0 -0.09375q0 -0.046875 0 -0.09375q0.03125 -0.21875 0.109375 -0.40625q0.078125 -0.1875 0.21875 -0.34375q0.15625 -0.125 0.375 -0.203125q0.21875 -0.09375 0.515625 -0.09375q0.28125 0 0.484375 0.078125q0.21875 0.0625 0.375 0.21875q0.140625 0.15625 0.203125 0.390625q0.078125 0.234375 0.078125 0.546875l0 7.375l1.59375 0l0 -7.359375q0 -0.71875 -0.171875 -1.234375q-0.15625 -0.53125 -0.453125 -0.859375q-0.28125 -0.28125 -0.703125 -0.421875q-0.40625 -0.15625 -0.921875 -0.15625q-0.359375 0 -0.6875 0.09375q-0.3125 0.09375 -0.5625 0.25q-0.203125 0.125 -0.375 0.3125q-0.171875 0.1875 -0.296875 0.390625q-0.109375 -0.21875 -0.25 -0.40625q-0.140625 -0.1875 -0.3125 -0.3125q-0.234375 -0.15625 -0.546875 -0.234375q-0.3125 -0.09375 -0.703125 -0.09375q-0.6875 0 -1.1875 0.296875q-0.484375 0.28125 -0.78125 0.8125l-0.046875 -0.9375zm9.945587 4.84375l0 0.203125q0 1.0625 0.3125 1.96875q0.3125 0.90625 0.890625 1.59375q0.578125 0.671875 1.40625 1.0625q0.84375 0.375 1.890625 0.375q1.03125 0 1.859375 -0.375q0.828125 -0.390625 1.40625 -1.0625q0.578125 -0.6875 0.890625 -1.59375q0.3125 -0.90625 0.3125 -1.96875l0 -0.203125q0 -1.0625 -0.3125 -1.984375q-0.3125 -0.921875 -0.890625 -1.59375q-0.578125 -0.671875 -1.421875 -1.046875q-0.828125 -0.390625 -1.875 -0.390625q-1.03125 0 -1.859375 0.390625q-0.828125 0.375 -1.40625 1.046875q-0.578125 0.671875 -0.890625 1.59375q-0.3125 0.921875 -0.3125 1.984375zm1.6875 0.203125l0 -0.203125q0 -0.71875 0.171875 -1.375q0.171875 -0.671875 0.53125 -1.171875q0.34375 -0.5 0.859375 -0.796875q0.515625 -0.296875 1.21875 -0.296875q0.703125 0 1.21875 0.296875q0.53125 0.296875 0.890625 0.796875q0.34375 0.5 0.515625 1.171875q0.1875 0.65625 0.1875 1.375l0 0.203125q0 0.71875 -0.171875 1.390625q-0.171875 0.65625 -0.515625 1.15625q-0.359375 0.5 -0.890625 0.796875q-0.515625 0.28125 -1.203125 0.28125q-0.703125 0 -1.234375 -0.28125q-0.53125 -0.296875 -0.875 -0.796875q-0.359375 -0.5 -0.53125 -1.15625q-0.171875 -0.671875 -0.171875 -1.390625zm16.445557 -5.21875q-1.078125 0 -1.921875 0.46875q-0.84375 0.46875 -1.4375 1.265625l-0.015625 -0.234375l-0.078125 -1.328125l-1.59375 0l0 9.859375l1.6875 0l0 -6.328125q0.171875 -0.453125 0.421875 -0.8125q0.25 -0.375 0.578125 -0.625q0.375 -0.296875 0.875 -0.4375q0.5 -0.15625 1.125 -0.15625q0.484375 0 0.921875 0.046875q0.453125 0.046875 0.9375 0.15625l0.234375 -1.640625q-0.265625 -0.109375 -0.765625 -0.171875q-0.5 -0.0625 -0.96875 -0.0625zm5.523712 14.015625q0.671875 0 1.171875 -0.25q0.515625 -0.25 0.90625 -0.609375q0.375 -0.359375 0.640625 -0.796875q0.265625 -0.421875 0.4375 -0.8125l5.015625 -11.375l-1.890625 0l-2.546875 6.390625l-0.46875 1.15625l-0.4375 -1.1875l-2.703125 -6.359375l-1.875 0l4.234375 9.390625l-0.671875 1.3125q-0.09375 0.1875 -0.25 0.46875q-0.15625 0.28125 -0.375 0.546875q-0.234375 0.265625 -0.515625 0.453125q-0.28125 0.1875 -0.640625 0.1875q-0.125 0 -0.34375 -0.015625q-0.21875 0 -0.453125 -0.03125l-0.265625 1.375q0.15625 0.046875 0.46875 0.09375q0.328125 0.0625 0.5625 0.0625z" fill-rule="nonzero"/><path fill="#000000" fill-opacity="0.0" d="m121.80052 242.49081l156.88188 0l0 88.91339l-156.88188 0z" fill-rule="evenodd"/><path stroke="#000000" stroke-width="1.0" stroke-linejoin="round" stroke-linecap="butt" d="m121.80052 242.49081l156.88188 0l0 88.91339l-156.88188 0z" fill-rule="evenodd"/><path fill="#000000" d="m137.15074 282.5875l1.359375 0l3.875 -12.3125l-1.65625 0l-2.734375 9.171875l-0.1875 0.625l-0.171875 -0.609375l-2.703125 -9.1875l-1.6875 0l3.90625 12.3125zm7.617325 -9.15625l0 1.359375l3.109375 0l0 6.4375l-3.109375 0l0 1.359375l7.671875 0l0 -1.359375l-3.0 0l0 -7.796875l-4.671875 0zm2.90625 -2.40625q0 0.390625 0.234375 0.640625q0.234375 0.25 0.703125 0.25q0.46875 0 0.703125 -0.25q0.234375 -0.25 0.234375 -0.640625q0 -0.203125 -0.0625 -0.375q-0.0625 -0.1875 -0.203125 -0.3125q-0.109375 -0.109375 -0.28125 -0.171875q-0.171875 -0.0625 -0.390625 -0.0625q-0.21875 0 -0.390625 0.0625q-0.171875 0.0625 -0.28125 0.171875q-0.140625 0.140625 -0.203125 0.3125q-0.0625 0.171875 -0.0625 0.375zm6.94545 6.90625l0 0.1875q0 0.96875 0.265625 1.828125q0.265625 0.84375 0.734375 1.46875q0.46875 0.625 1.140625 0.984375q0.6875 0.359375 1.515625 0.359375q0.84375 0 1.46875 -0.28125q0.640625 -0.296875 1.09375 -0.859375l0.078125 0.96875l1.4375 0l0 -13.0l-1.578125 0l0 4.75q-0.4375 -0.53125 -1.0625 -0.796875q-0.609375 -0.28125 -1.421875 -0.28125q-0.84375 0 -1.53125 0.359375q-0.671875 0.34375 -1.140625 0.953125q-0.484375 0.625 -0.75 1.484375q-0.25 0.859375 -0.25 1.875zm1.5625 0.1875l0 -0.1875q0 -0.671875 0.140625 -1.265625q0.15625 -0.609375 0.453125 -1.078125q0.296875 -0.453125 0.765625 -0.71875q0.46875 -0.28125 1.140625 -0.28125q0.765625 0 1.28125 0.359375q0.515625 0.359375 0.8125 0.921875l0 4.25q-0.296875 0.59375 -0.8125 0.953125q-0.515625 0.359375 -1.296875 0.359375q-0.65625 0 -1.125 -0.265625q-0.46875 -0.265625 -0.765625 -0.734375q-0.296875 -0.453125 -0.453125 -1.046875q-0.140625 -0.609375 -0.140625 -1.265625zm13.179825 4.640625q1.34375 0 2.25 -0.53125q0.90625 -0.546875 1.359375 -1.234375l-0.953125 -0.75q-0.4375 0.5625 -1.09375 0.90625q-0.640625 0.328125 -1.484375 0.328125q-0.625 0 -1.15625 -0.234375q-0.515625 -0.234375 -0.890625 -0.65625q-0.359375 -0.390625 -0.578125 -0.890625q-0.203125 -0.515625 -0.265625 -1.171875l0 -0.0625l6.546875 0l0 -0.703125q0 -0.953125 -0.25 -1.765625q-0.234375 -0.828125 -0.71875 -1.4375q-0.5 -0.609375 -1.25 -0.953125q-0.734375 -0.34375 -1.71875 -0.34375q-0.78125 0 -1.53125 0.328125q-0.75 0.3125 -1.34375 0.921875q-0.578125 0.609375 -0.9375 1.484375q-0.359375 0.875 -0.359375 1.984375l0 0.359375q0 0.953125 0.3125 1.765625q0.328125 0.8125 0.90625 1.40625q0.578125 0.59375 1.375 0.921875q0.8125 0.328125 1.78125 0.328125zm-0.203125 -8.203125q0.609375 0 1.03125 0.21875q0.4375 0.21875 0.734375 0.5625q0.28125 0.359375 0.4375 0.84375q0.171875 0.484375 0.171875 0.921875l0 0.0625l-4.921875 0q0.078125 -0.625 0.3125 -1.109375q0.234375 -0.484375 0.578125 -0.828125q0.34375 -0.328125 0.765625 -0.5q0.421875 -0.171875 0.890625 -0.171875zm6.117325 3.375l0 0.1875q0 0.984375 0.28125 1.828125q0.296875 0.84375 0.84375 1.46875q0.53125 0.625 1.296875 0.984375q0.78125 0.359375 1.75 0.359375q0.96875 0 1.734375 -0.359375q0.765625 -0.359375 1.3125 -0.984375q0.53125 -0.625 0.8125 -1.46875q0.296875 -0.84375 0.296875 -1.828125l0 -0.1875q0 -1.0 -0.296875 -1.84375q-0.28125 -0.859375 -0.8125 -1.484375q-0.546875 -0.625 -1.328125 -0.984375q-0.765625 -0.359375 -1.734375 -0.359375q-0.96875 0 -1.734375 0.359375q-0.765625 0.359375 -1.296875 0.984375q-0.546875 0.625 -0.84375 1.484375q-0.28125 0.84375 -0.28125 1.84375zm1.5625 0.1875l0 -0.1875q0 -0.671875 0.15625 -1.28125q0.171875 -0.625 0.5 -1.078125q0.328125 -0.46875 0.796875 -0.734375q0.484375 -0.28125 1.140625 -0.28125q0.65625 0 1.140625 0.28125q0.484375 0.265625 0.8125 0.734375q0.328125 0.453125 0.484375 1.078125q0.171875 0.609375 0.171875 1.28125l0 0.1875q0 0.671875 -0.171875 1.28125q-0.15625 0.609375 -0.46875 1.078125q-0.34375 0.46875 -0.828125 0.75q-0.484375 0.265625 -1.125 0.265625q-0.65625 0 -1.140625 -0.265625q-0.484375 -0.28125 -0.8125 -0.75q-0.328125 -0.46875 -0.5 -1.078125q-0.15625 -0.609375 -0.15625 -1.28125zm26.4534 -1.21875l0 -1.328125l-5.140625 0l0 -3.96875l5.921875 0l0 -1.328125l-7.484375 0l0 12.3125l7.5625 0l0 -1.328125l-6.0 0l0 -4.359375l5.140625 0zm3.6173248 5.6875l1.5625 0l0 -6.5625q0.171875 -0.296875 0.375 -0.546875q0.21875 -0.25 0.484375 -0.421875q0.3125 -0.21875 0.671875 -0.34375q0.375 -0.125 0.8125 -0.125q0.5 0 0.875 0.125q0.390625 0.109375 0.65625 0.375q0.265625 0.265625 0.40625 0.6875q0.140625 0.421875 0.140625 1.03125l0 5.78125l1.5625 0l0 -5.8125q0 -0.90625 -0.234375 -1.578125q-0.21875 -0.671875 -0.640625 -1.09375q-0.40625 -0.4375 -1.0 -0.640625q-0.578125 -0.203125 -1.296875 -0.203125q-0.53125 0.015625 -1.015625 0.171875q-0.484375 0.140625 -0.890625 0.40625q-0.265625 0.171875 -0.515625 0.421875q-0.234375 0.234375 -0.4375 0.53125l-0.109375 -1.359375l-1.40625 0l0 9.15625zm14.304825 -1.09375q-0.734375 0 -1.234375 -0.296875q-0.5 -0.296875 -0.796875 -0.765625q-0.296875 -0.46875 -0.4375 -1.046875q-0.125 -0.59375 -0.125 -1.203125l0 -0.34375q0 -0.59375 0.125 -1.171875q0.140625 -0.59375 0.4375 -1.0625q0.3125 -0.46875 0.796875 -0.75q0.5 -0.296875 1.234375 -0.296875q0.46875 0 0.875 0.15625q0.421875 0.15625 0.71875 0.4375q0.296875 0.28125 0.46875 0.65625q0.171875 0.359375 0.171875 0.78125l1.484375 0q0 -0.703125 -0.28125 -1.3125q-0.28125 -0.609375 -0.765625 -1.0625q-0.5 -0.4375 -1.1875 -0.6875q-0.671875 -0.265625 -1.484375 -0.265625q-1.046875 0 -1.828125 0.375q-0.765625 0.375 -1.28125 1.0q-0.53125 0.640625 -0.796875 1.46875q-0.265625 0.828125 -0.265625 1.734375l0 0.34375q0 0.921875 0.265625 1.75q0.265625 0.8125 0.796875 1.453125q0.515625 0.625 1.28125 1.0q0.78125 0.375 1.828125 0.375q0.71875 0 1.390625 -0.25q0.671875 -0.25 1.1875 -0.671875q0.515625 -0.421875 0.828125 -0.96875q0.3125 -0.5625 0.3125 -1.171875l-1.484375 0q0 0.390625 -0.203125 0.71875q-0.1875 0.3125 -0.5 0.5625q-0.3125 0.234375 -0.71875 0.375q-0.390625 0.140625 -0.8125 0.140625zm6.054825 -3.5625l0 0.1875q0 0.984375 0.28125 1.828125q0.296875 0.84375 0.84375 1.46875q0.53125 0.625 1.296875 0.984375q0.78125 0.359375 1.75 0.359375q0.96875 0 1.734375 -0.359375q0.765625 -0.359375 1.3125 -0.984375q0.53125 -0.625 0.8125 -1.46875q0.296875 -0.84375 0.296875 -1.828125l0 -0.1875q0 -1.0 -0.296875 -1.84375q-0.28125 -0.859375 -0.8125 -1.484375q-0.546875 -0.625 -1.328125 -0.984375q-0.765625 -0.359375 -1.734375 -0.359375q-0.96875 0 -1.734375 0.359375q-0.765625 0.359375 -1.296875 0.984375q-0.546875 0.625 -0.84375 1.484375q-0.28125 0.84375 -0.28125 1.84375zm1.5625 0.1875l0 -0.1875q0 -0.671875 0.15625 -1.28125q0.171875 -0.625 0.5 -1.078125q0.328125 -0.46875 0.796875 -0.734375q0.484375 -0.28125 1.140625 -0.28125q0.65625 0 1.140625 0.28125q0.484375 0.265625 0.8125 0.734375q0.328125 0.453125 0.484375 1.078125q0.171875 0.609375 0.171875 1.28125l0 0.1875q0 0.671875 -0.171875 1.28125q-0.15625 0.609375 -0.46875 1.078125q-0.34375 0.46875 -0.828125 0.75q-0.484375 0.265625 -1.125 0.265625q-0.65625 0 -1.140625 -0.265625q-0.484375 -0.28125 -0.8125 -0.75q-0.328125 -0.46875 -0.5 -1.078125q-0.15625 -0.609375 -0.15625 -1.28125zm8.9767 -0.1875l0 0.1875q0 0.96875 0.265625 1.828125q0.265625 0.84375 0.734375 1.46875q0.46875 0.625 1.140625 0.984375q0.6875 0.359375 1.515625 0.359375q0.84375 0 1.46875 -0.28125q0.640625 -0.296875 1.09375 -0.859375l0.078125 0.96875l1.4375 0l0 -13.0l-1.578125 0l0 4.75q-0.4375 -0.53125 -1.0625 -0.796875q-0.609375 -0.28125 -1.421875 -0.28125q-0.84375 0 -1.53125 0.359375q-0.671875 0.34375 -1.140625 0.953125q-0.484375 0.625 -0.75 1.484375q-0.25 0.859375 -0.25 1.875zm1.5625 0.1875l0 -0.1875q0 -0.671875 0.140625 -1.265625q0.15625 -0.609375 0.453125 -1.078125q0.296875 -0.453125 0.765625 -0.71875q0.46875 -0.28125 1.140625 -0.28125q0.765625 0 1.28125 0.359375q0.515625 0.359375 0.8125 0.921875l0 4.25q-0.296875 0.59375 -0.8125 0.953125q-0.515625 0.359375 -1.296875 0.359375q-0.65625 0 -1.125 -0.265625q-0.46875 -0.265625 -0.765625 -0.734375q-0.296875 -0.453125 -0.453125 -1.046875q-0.140625 -0.609375 -0.140625 -1.265625zm13.17981 4.640625q1.34375 0 2.25 -0.53125q0.90625 -0.546875 1.3593903 -1.234375l-0.95314026 -0.75q-0.4375 0.5625 -1.09375 0.90625q-0.640625 0.328125 -1.484375 0.328125q-0.625 0 -1.15625 -0.234375q-0.515625 -0.234375 -0.890625 -0.65625q-0.359375 -0.390625 -0.578125 -0.890625q-0.203125 -0.515625 -0.26560974 -1.171875l0 -0.0625l6.546875 0l0 -0.703125q0 -0.953125 -0.25 -1.765625q-0.23439026 -0.828125 -0.71876526 -1.4375q-0.5 -0.609375 -1.25 -0.953125q-0.734375 -0.34375 -1.71875 -0.34375q-0.78125 0 -1.53125 0.328125q-0.75 0.3125 -1.3437347 0.921875q-0.578125 0.609375 -0.9375 1.484375q-0.359375 0.875 -0.359375 1.984375l0 0.359375q0 0.953125 0.3125 1.765625q0.328125 0.8125 0.90625 1.40625q0.57810974 0.59375 1.3749847 0.921875q0.8125 0.328125 1.78125 0.328125zm-0.203125 -8.203125q0.609375 0 1.03125 0.21875q0.4375 0.21875 0.734375 0.5625q0.28125 0.359375 0.4375 0.84375q0.171875 0.484375 0.171875 0.921875l0 0.0625l-4.921875 0q0.078125 -0.625 0.3125 -1.109375q0.234375 -0.484375 0.578125 -0.828125q0.34375 -0.328125 0.765625 -0.5q0.421875 -0.171875 0.890625 -0.171875zm12.554855 -1.296875q-1.0 0 -1.78125 0.4375q-0.78125 0.4375 -1.34375 1.1875l0 -0.21875l-0.078125 -1.234375l-1.484375 0l0 9.15625l1.578125 0l0 -5.875q0.15625 -0.421875 0.375 -0.765625q0.234375 -0.34375 0.546875 -0.578125q0.359375 -0.265625 0.8125 -0.40625q0.46875 -0.140625 1.046875 -0.140625q0.453125 0 0.859375 0.046875q0.40625 0.046875 0.859375 0.140625l0.21875 -1.53125q-0.234375 -0.09375 -0.703125 -0.15625q-0.46875 -0.0625 -0.90625 -0.0625z" fill-rule="nonzero"/><path fill="#000000" d="m159.55342 300.43124q0 0.734375 0.25 1.34375q0.265625 0.609375 0.734375 1.046875q0.484375 0.4375 1.15625 0.6875q0.671875 0.25 1.515625 0.25q0.515625 0 1.0 -0.109375q0.484375 -0.109375 0.9375 -0.328125q0.265625 -0.125 0.515625 -0.296875q0.265625 -0.171875 0.5 -0.375l0.703125 0.9375l1.875 0l-1.53125 -2.0q0.59375 -0.75 0.890625 -1.671875q0.3125 -0.9375 0.3125 -2.015625l-1.40625 0q-0.015625 0.75 -0.1875 1.390625q-0.15625 0.640625 -0.453125 1.1875l-2.59375 -3.40625l0.796875 -0.6875q0.359375 -0.28125 0.671875 -0.5625q0.328125 -0.296875 0.578125 -0.609375q0.21875 -0.328125 0.34375 -0.6875q0.140625 -0.375 0.140625 -0.8125q0 -0.53125 -0.1875 -1.0q-0.1875 -0.484375 -0.515625 -0.84375q-0.359375 -0.359375 -0.84375 -0.5625q-0.484375 -0.21875 -1.09375 -0.21875q-0.6875 0 -1.25 0.203125q-0.5625 0.1875 -0.953125 0.5625q-0.40625 0.375 -0.625 0.9375q-0.203125 0.546875 -0.203125 1.265625q0 0.34375 0.0625 0.671875q0.078125 0.3125 0.203125 0.625q0.15625 0.375 0.40625 0.78125q0.25 0.390625 0.5625 0.8125l-0.3125 0.21875q-0.40625 0.3125 -0.75 0.640625q-0.34375 0.3125 -0.609375 0.671875q-0.296875 0.421875 -0.46875 0.90625q-0.171875 0.484375 -0.171875 1.046875zm3.65625 2.0625q-0.515625 0 -0.90625 -0.15625q-0.390625 -0.171875 -0.65625 -0.453125q-0.265625 -0.28125 -0.40625 -0.640625q-0.125 -0.375 -0.125 -0.8125q0 -0.15625 0.046875 -0.390625q0.046875 -0.25 0.1875 -0.546875q0.140625 -0.28125 0.40625 -0.609375q0.265625 -0.34375 0.6875 -0.6875l0.234375 -0.203125l2.734375 3.640625q-0.203125 0.171875 -0.421875 0.3125q-0.21875 0.140625 -0.453125 0.25q-0.3125 0.140625 -0.65625 0.21875q-0.328125 0.078125 -0.671875 0.078125zm-1.015625 -8.453125q0 -0.328125 0.09375 -0.625q0.09375 -0.3125 0.28125 -0.546875q0.1875 -0.21875 0.453125 -0.34375q0.28125 -0.140625 0.640625 -0.140625q0.28125 0 0.5 0.109375q0.21875 0.109375 0.375 0.28125q0.15625 0.1875 0.234375 0.4375q0.078125 0.234375 0.078125 0.5q0 0.1875 -0.03125 0.390625q-0.03125 0.203125 -0.125 0.390625q-0.09375 0.203125 -0.265625 0.40625q-0.171875 0.1875 -0.4375 0.375l-0.984375 0.78125q-0.21875 -0.296875 -0.375 -0.578125q-0.15625 -0.296875 -0.265625 -0.578125q-0.078125 -0.21875 -0.125 -0.421875q-0.046875 -0.21875 -0.046875 -0.4375zm18.562775 9.546875l2.84375 0q0.890625 -0.015625 1.65625 -0.21875q0.765625 -0.203125 1.375 -0.578125q0.578125 -0.359375 1.046875 -0.875q0.46875 -0.515625 0.765625 -1.15625q0.296875 -0.609375 0.453125 -1.328125q0.15625 -0.734375 0.15625 -1.546875l0 -0.90625q0 -0.84375 -0.171875 -1.578125q-0.171875 -0.75 -0.484375 -1.375q-0.34375 -0.75 -0.921875 -1.3125q-0.578125 -0.5625 -1.328125 -0.90625q-0.546875 -0.25 -1.1875 -0.390625q-0.640625 -0.140625 -1.359375 -0.140625l-2.84375 0l0 12.3125zm1.59375 -11.03125l1.25 0q0.59375 0 1.078125 0.125q0.5 0.125 0.890625 0.34375q0.5625 0.296875 0.9375 0.78125q0.390625 0.46875 0.625 1.0625q0.171875 0.453125 0.25 0.984375q0.09375 0.53125 0.109375 1.109375l0 0.921875q-0.015625 0.5625 -0.09375 1.09375q-0.078125 0.515625 -0.25 0.96875q-0.203125 0.546875 -0.53125 1.0q-0.328125 0.4375 -0.796875 0.734375q-0.421875 0.296875 -0.984375 0.46875q-0.546875 0.15625 -1.234375 0.15625l-1.25 0l0 -9.75zm13.00795 11.203125q1.34375 0 2.25 -0.53125q0.90625 -0.546875 1.359375 -1.234375l-0.953125 -0.75q-0.4375 0.5625 -1.09375 0.90625q-0.640625 0.328125 -1.484375 0.328125q-0.625 0 -1.15625 -0.234375q-0.515625 -0.234375 -0.890625 -0.65625q-0.359375 -0.390625 -0.578125 -0.890625q-0.203125 -0.515625 -0.265625 -1.171875l0 -0.0625l6.546875 0l0 -0.703125q0 -0.953125 -0.25 -1.765625q-0.234375 -0.828125 -0.71875 -1.4375q-0.5 -0.609375 -1.25 -0.953125q-0.734375 -0.34375 -1.71875 -0.34375q-0.78125 0 -1.53125 0.328125q-0.75 0.3125 -1.34375 0.921875q-0.578125 0.609375 -0.9375 1.484375q-0.359375 0.875 -0.359375 1.984375l0 0.359375q0 0.953125 0.3125 1.765625q0.328125 0.8125 0.90625 1.40625q0.578125 0.59375 1.375 0.921875q0.8125 0.328125 1.78125 0.328125zm-0.203125 -8.203125q0.609375 0 1.03125 0.21875q0.4375 0.21875 0.734375 0.5625q0.28125 0.359375 0.4375 0.84375q0.171875 0.484375 0.171875 0.921875l0 0.0625l-4.921875 0q0.078125 -0.625 0.3125 -1.109375q0.234375 -0.484375 0.578125 -0.828125q0.34375 -0.328125 0.765625 -0.5q0.421875 -0.171875 0.890625 -0.171875zm10.461075 6.9375q-0.734375 0 -1.234375 -0.296875q-0.5 -0.296875 -0.796875 -0.765625q-0.296875 -0.46875 -0.4375 -1.046875q-0.125 -0.59375 -0.125 -1.203125l0 -0.34375q0 -0.59375 0.125 -1.171875q0.140625 -0.59375 0.4375 -1.0625q0.3125 -0.46875 0.796875 -0.75q0.5 -0.296875 1.234375 -0.296875q0.46875 0 0.875 0.15625q0.421875 0.15625 0.71875 0.4375q0.296875 0.28125 0.46875 0.65625q0.171875 0.359375 0.171875 0.78125l1.484375 0q0 -0.703125 -0.28125 -1.3125q-0.28125 -0.609375 -0.765625 -1.0625q-0.5 -0.4375 -1.1875 -0.6875q-0.671875 -0.265625 -1.484375 -0.265625q-1.046875 0 -1.828125 0.375q-0.765625 0.375 -1.28125 1.0q-0.53125 0.640625 -0.796875 1.46875q-0.265625 0.828125 -0.265625 1.734375l0 0.34375q0 0.921875 0.265625 1.75q0.265625 0.8125 0.796875 1.453125q0.515625 0.625 1.28125 1.0q0.78125 0.375 1.828125 0.375q0.71875 0 1.390625 -0.25q0.671875 -0.25 1.1875 -0.671875q0.515625 -0.421875 0.828125 -0.96875q0.3125 -0.5625 0.3125 -1.171875l-1.484375 0q0 0.390625 -0.203125 0.71875q-0.1875 0.3125 -0.5 0.5625q-0.3125 0.234375 -0.71875 0.375q-0.390625 0.140625 -0.8125 0.140625zm6.054825 -3.5625l0 0.1875q0 0.984375 0.28125 1.828125q0.296875 0.84375 0.84375 1.46875q0.53125 0.625 1.296875 0.984375q0.78125 0.359375 1.75 0.359375q0.96875 0 1.734375 -0.359375q0.765625 -0.359375 1.3125 -0.984375q0.53125 -0.625 0.8125 -1.46875q0.296875 -0.84375 0.296875 -1.828125l0 -0.1875q0 -1.0 -0.296875 -1.84375q-0.28125 -0.859375 -0.8125 -1.484375q-0.546875 -0.625 -1.328125 -0.984375q-0.765625 -0.359375 -1.734375 -0.359375q-0.96875 0 -1.734375 0.359375q-0.765625 0.359375 -1.296875 0.984375q-0.546875 0.625 -0.84375 1.484375q-0.28125 0.84375 -0.28125 1.84375zm1.5625 0.1875l0 -0.1875q0 -0.671875 0.15625 -1.28125q0.171875 -0.625 0.5 -1.078125q0.328125 -0.46875 0.796875 -0.734375q0.484375 -0.28125 1.140625 -0.28125q0.65625 0 1.140625 0.28125q0.484375 0.265625 0.8125 0.734375q0.328125 0.453125 0.484375 1.078125q0.171875 0.609375 0.171875 1.28125l0 0.1875q0 0.671875 -0.171875 1.28125q-0.15625 0.609375 -0.46875 1.078125q-0.34375 0.46875 -0.828125 0.75q-0.484375 0.265625 -1.125 0.265625q-0.65625 0 -1.140625 -0.265625q-0.484375 -0.28125 -0.8125 -0.75q-0.328125 -0.46875 -0.5 -1.078125q-0.15625 -0.609375 -0.15625 -1.28125zm8.9767 -0.1875l0 0.1875q0 0.96875 0.265625 1.828125q0.265625 0.84375 0.734375 1.46875q0.46875 0.625 1.140625 0.984375q0.6875 0.359375 1.515625 0.359375q0.84375 0 1.46875 -0.28125q0.640625 -0.296875 1.09375 -0.859375l0.078125 0.96875l1.4375 0l0 -13.0l-1.578125 0l0 4.75q-0.4375 -0.53125 -1.0625 -0.796875q-0.609375 -0.28125 -1.421875 -0.28125q-0.84375 0 -1.53125 0.359375q-0.671875 0.34375 -1.140625 0.953125q-0.484375 0.625 -0.75 1.484375q-0.25 0.859375 -0.25 1.875zm1.5625 0.1875l0 -0.1875q0 -0.671875 0.140625 -1.265625q0.15625 -0.609375 0.453125 -1.078125q0.296875 -0.453125 0.765625 -0.71875q0.46875 -0.28125 1.140625 -0.28125q0.765625 0 1.28125 0.359375q0.515625 0.359375 0.8125 0.921875l0 4.25q-0.296875 0.59375 -0.8125 0.953125q-0.515625 0.359375 -1.296875 0.359375q-0.65625 0 -1.125 -0.265625q-0.46875 -0.265625 -0.765625 -0.734375q-0.296875 -0.453125 -0.453125 -1.046875q-0.140625 -0.609375 -0.140625 -1.265625zm13.179825 4.640625q1.34375 0 2.25 -0.53125q0.90625 -0.546875 1.359375 -1.234375l-0.953125 -0.75q-0.4375 0.5625 -1.09375 0.90625q-0.640625 0.328125 -1.484375 0.328125q-0.625 0 -1.15625 -0.234375q-0.515625 -0.234375 -0.890625 -0.65625q-0.359375 -0.390625 -0.578125 -0.890625q-0.203125 -0.515625 -0.265625 -1.171875l0 -0.0625l6.546875 0l0 -0.703125q0 -0.953125 -0.25 -1.765625q-0.234375 -0.828125 -0.71875 -1.4375q-0.5 -0.609375 -1.25 -0.953125q-0.734375 -0.34375 -1.71875 -0.34375q-0.78125 0 -1.53125 0.328125q-0.75 0.3125 -1.34375 0.921875q-0.578125 0.609375 -0.9375 1.484375q-0.359375 0.875 -0.359375 1.984375l0 0.359375q0 0.953125 0.3125 1.765625q0.328125 0.8125 0.90625 1.40625q0.578125 0.59375 1.375 0.921875q0.8125 0.328125 1.78125 0.328125zm-0.203125 -8.203125q0.609375 0 1.03125 0.21875q0.4375 0.21875 0.734375 0.5625q0.28125 0.359375 0.4375 0.84375q0.171875 0.484375 0.171875 0.921875l0 0.0625l-4.921875 0q0.078125 -0.625 0.3125 -1.109375q0.234375 -0.484375 0.578125 -0.828125q0.34375 -0.328125 0.765625 -0.5q0.421875 -0.171875 0.890625 -0.171875zm12.554825 -1.296875q-1.0 0 -1.78125 0.4375q-0.78125 0.4375 -1.34375 1.1875l0 -0.21875l-0.078125 -1.234375l-1.484375 0l0 9.15625l1.578125 0l0 -5.875q0.15625 -0.421875 0.375 -0.765625q0.234375 -0.34375 0.546875 -0.578125q0.359375 -0.265625 0.8125 -0.40625q0.46875 -0.140625 1.046875 -0.140625q0.453125 0 0.859375 0.046875q0.40625 0.046875 0.859375 0.140625l0.21875 -1.53125q-0.234375 -0.09375 -0.703125 -0.15625q-0.46875 -0.0625 -0.90625 -0.0625z" fill-rule="nonzero"/><path fill="#000000" fill-opacity="0.0" d="m121.80052 85.72441l304.7874 0l0 132.18898l-304.7874 0z" fill-rule="evenodd"/><path stroke="#000000" stroke-width="1.0" stroke-linejoin="round" stroke-linecap="butt" d="m121.80052 85.72441l304.7874 0l0 132.18898l-304.7874 0z" fill-rule="evenodd"/><path fill="#000000" d="m183.60596 157.00452l-0.03125 -4.875l-4.296875 0l0 1.421875l2.6875 0l-0.015625 2.984375q-0.203125 0.296875 -0.515625 0.484375q-0.3125 0.1875 -0.671875 0.296875q-0.34375 0.109375 -0.734375 0.15625q-0.375 0.03125 -0.71875 0.015625q-0.59375 0 -1.078125 -0.203125q-0.46875 -0.21875 -0.828125 -0.5625q-0.359375 -0.34375 -0.625 -0.796875q-0.25 -0.453125 -0.40625 -0.96875q-0.171875 -0.515625 -0.25 -1.046875q-0.078125 -0.53125 -0.078125 -1.03125l0 -1.5625q0 -0.484375 0.0625 -1.015625q0.0625 -0.53125 0.203125 -1.03125q0.15625 -0.515625 0.375 -0.96875q0.234375 -0.46875 0.578125 -0.8125q0.34375 -0.34375 0.796875 -0.546875q0.46875 -0.203125 1.078125 -0.203125q0.625 0 1.09375 0.203125q0.484375 0.1875 0.828125 0.53125q0.34375 0.34375 0.546875 0.828125q0.203125 0.484375 0.3125 1.0625l1.65625 0q-0.078125 -0.921875 -0.4375 -1.671875q-0.34375 -0.765625 -0.9375 -1.296875q-0.578125 -0.53125 -1.359375 -0.8125q-0.78125 -0.296875 -1.71875 -0.296875q-0.828125 0 -1.515625 0.25q-0.671875 0.25 -1.1875 0.671875q-0.546875 0.421875 -0.9375 1.0q-0.375 0.578125 -0.625 1.25q-0.25 0.6875 -0.375 1.421875q-0.125 0.71875 -0.140625 1.46875l0 1.53125q0.015625 0.75 0.15625 1.484375q0.140625 0.734375 0.421875 1.390625q0.28125 0.671875 0.6875 1.25q0.40625 0.578125 0.953125 1.0q0.546875 0.421875 1.234375 0.671875q0.6875 0.234375 1.5 0.25q0.8125 0 1.546875 -0.1875q0.75 -0.1875 1.390625 -0.5625q0.375 -0.21875 0.71875 -0.515625q0.34375 -0.296875 0.65625 -0.65625zm9.070572 -8.296875q-1.078125 0 -1.921875 0.46875q-0.84375 0.46875 -1.4375 1.265625l-0.015625 -0.234375l-0.078125 -1.328125l-1.59375 0l0 9.859375l1.6875 0l0 -6.328125q0.171875 -0.453125 0.421875 -0.8125q0.25 -0.375 0.578125 -0.625q0.375 -0.296875 0.875 -0.4375q0.5 -0.15625 1.125 -0.15625q0.484375 0 0.921875 0.046875q0.453125 0.046875 0.9375 0.15625l0.234375 -1.640625q-0.265625 -0.109375 -0.765625 -0.171875q-0.5 -0.0625 -0.96875 -0.0625zm11.211197 10.03125l1.75 0l0 -0.140625q-0.15625 -0.421875 -0.25 -0.96875q-0.09375 -0.546875 -0.09375 -1.046875l0 -4.578125q0 -0.828125 -0.296875 -1.4375q-0.296875 -0.625 -0.8125 -1.046875q-0.53125 -0.40625 -1.25 -0.609375q-0.71875 -0.203125 -1.5625 -0.203125q-0.921875 0 -1.65625 0.25q-0.71875 0.25 -1.21875 0.65625q-0.5 0.421875 -0.78125 0.953125q-0.265625 0.515625 -0.265625 1.046875l1.6875 0q0 -0.3125 0.140625 -0.59375q0.15625 -0.28125 0.4375 -0.5q0.265625 -0.203125 0.65625 -0.328125q0.40625 -0.140625 0.90625 -0.140625q0.546875 0 0.96875 0.140625q0.4375 0.140625 0.734375 0.390625q0.296875 0.25 0.453125 0.609375q0.171875 0.34375 0.171875 0.796875l0 0.78125l-1.828125 0q-1.03125 0 -1.875 0.203125q-0.828125 0.1875 -1.421875 0.59375q-0.59375 0.40625 -0.921875 1.015625q-0.3125 0.609375 -0.3125 1.421875q0 0.625 0.234375 1.15625q0.25 0.53125 0.6875 0.90625q0.4375 0.40625 1.0625 0.640625q0.640625 0.21875 1.4375 0.21875q0.46875 0 0.890625 -0.109375q0.4375 -0.09375 0.828125 -0.265625q0.375 -0.171875 0.6875 -0.390625q0.3125 -0.234375 0.5625 -0.5q0.03125 0.3125 0.09375 0.609375q0.0625 0.28125 0.15625 0.46875zm-2.984375 -1.28125q-0.484375 0 -0.859375 -0.125q-0.375 -0.140625 -0.625 -0.359375q-0.234375 -0.21875 -0.359375 -0.53125q-0.125 -0.3125 -0.125 -0.671875q0 -0.390625 0.140625 -0.6875q0.140625 -0.296875 0.40625 -0.515625q0.390625 -0.3125 1.03125 -0.453125q0.65625 -0.15625 1.53125 -0.15625l1.5625 0l0 2.0q-0.140625 0.28125 -0.40625 0.5625q-0.25 0.265625 -0.59375 0.46875q-0.34375 0.203125 -0.78125 0.34375q-0.421875 0.125 -0.921875 0.125zm7.695572 5.078125l1.6875 0l0 -4.75q0.171875 0.203125 0.375 0.375q0.21875 0.171875 0.453125 0.3125q0.390625 0.21875 0.875 0.328125q0.5 0.125 1.0625 0.125q0.921875 0 1.640625 -0.375q0.734375 -0.390625 1.234375 -1.0625q0.484375 -0.6875 0.734375 -1.59375q0.265625 -0.921875 0.265625 -1.96875l0 -0.203125q0 -1.09375 -0.265625 -2.015625q-0.25 -0.9375 -0.734375 -1.59375q-0.5 -0.671875 -1.234375 -1.03125q-0.71875 -0.375 -1.671875 -0.375q-0.53125 0 -1.0 0.109375q-0.46875 0.109375 -0.859375 0.328125q-0.265625 0.140625 -0.515625 0.359375q-0.234375 0.203125 -0.421875 0.453125l-0.09375 -1.078125l-1.53125 0l0 13.65625zm6.640625 -8.8125l0 0.203125q0 0.71875 -0.171875 1.375q-0.15625 0.65625 -0.484375 1.15625q-0.328125 0.5 -0.84375 0.796875q-0.5 0.296875 -1.203125 0.296875q-0.4375 0 -0.796875 -0.109375q-0.359375 -0.109375 -0.640625 -0.3125q-0.265625 -0.15625 -0.46875 -0.390625q-0.1875 -0.234375 -0.34375 -0.515625l0 -4.75q0.171875 -0.296875 0.390625 -0.546875q0.234375 -0.265625 0.53125 -0.4375q0.265625 -0.171875 0.59375 -0.265625q0.328125 -0.09375 0.71875 -0.09375q0.71875 0 1.21875 0.296875q0.515625 0.28125 0.84375 0.78125q0.328125 0.5 0.484375 1.15625q0.171875 0.640625 0.171875 1.359375zm6.242447 -3.375l0 -5.609375l-1.6875 0l0 14.0l1.6875 0l0 -7.15625q0.1875 -0.296875 0.421875 -0.53125q0.234375 -0.25 0.5 -0.421875q0.34375 -0.25 0.75 -0.375q0.421875 -0.125 0.875 -0.125q0.5625 -0.015625 0.984375 0.15625q0.421875 0.15625 0.703125 0.46875q0.265625 0.296875 0.40625 0.734375q0.140625 0.4375 0.140625 1.03125l0 6.21875l1.6875 0l0 -6.203125q0 -1.0 -0.25 -1.71875q-0.234375 -0.71875 -0.6875 -1.203125q-0.4375 -0.46875 -1.078125 -0.6875q-0.625 -0.21875 -1.40625 -0.21875q-0.59375 0 -1.125 0.171875q-0.515625 0.15625 -0.953125 0.484375q-0.265625 0.1875 -0.515625 0.4375q-0.25 0.25 -0.453125 0.546875zm9.773697 -1.46875l0 1.46875l3.359375 0l0 6.9375l-3.359375 0l0 1.453125l8.265625 0l0 -1.453125l-3.21875 0l0 -8.40625l-5.046875 0zm3.140625 -2.578125q0 0.40625 0.25 0.6875q0.25 0.265625 0.765625 0.265625q0.5 0 0.75 -0.265625q0.25 -0.28125 0.25 -0.6875q0 -0.234375 -0.078125 -0.421875q-0.0625 -0.1875 -0.203125 -0.328125q-0.125 -0.109375 -0.3125 -0.171875q-0.171875 -0.078125 -0.40625 -0.078125q-0.25 0 -0.4375 0.078125q-0.171875 0.0625 -0.296875 0.171875q-0.140625 0.140625 -0.21875 0.34375q-0.0625 0.1875 -0.0625 0.40625zm11.992447 11.25q-0.796875 0 -1.328125 -0.3125q-0.53125 -0.3125 -0.84375 -0.828125q-0.328125 -0.5 -0.46875 -1.125q-0.140625 -0.640625 -0.140625 -1.28125l0 -0.390625q0 -0.625 0.140625 -1.25q0.140625 -0.640625 0.46875 -1.15625q0.328125 -0.5 0.859375 -0.8125q0.53125 -0.3125 1.3125 -0.3125q0.515625 0 0.953125 0.171875q0.4375 0.171875 0.765625 0.484375q0.3125 0.296875 0.5 0.6875q0.1875 0.390625 0.203125 0.84375l1.59375 0q0 -0.75 -0.3125 -1.40625q-0.296875 -0.65625 -0.828125 -1.140625q-0.53125 -0.46875 -1.265625 -0.734375q-0.734375 -0.28125 -1.609375 -0.28125q-1.109375 0 -1.953125 0.40625q-0.84375 0.390625 -1.390625 1.0625q-0.5625 0.6875 -0.859375 1.578125q-0.28125 0.890625 -0.28125 1.859375l0 0.390625q0 0.984375 0.28125 1.875q0.296875 0.875 0.859375 1.5625q0.546875 0.671875 1.390625 1.078125q0.84375 0.40625 1.953125 0.40625q0.78125 0 1.5 -0.265625q0.71875 -0.28125 1.28125 -0.734375q0.5625 -0.4375 0.890625 -1.03125q0.328125 -0.609375 0.34375 -1.265625l-1.59375 0q-0.015625 0.40625 -0.21875 0.765625q-0.203125 0.34375 -0.546875 0.609375q-0.328125 0.265625 -0.765625 0.40625q-0.4375 0.140625 -0.890625 0.140625zm13.554962 -1.421875q0 0.234375 -0.09375 0.453125q-0.09375 0.203125 -0.265625 0.375q-0.28125 0.28125 -0.78125 0.4375q-0.5 0.15625 -1.171875 0.15625q-0.4375 0 -0.875 -0.078125q-0.4375 -0.09375 -0.79689026 -0.3125q-0.359375 -0.21875 -0.609375 -0.578125q-0.234375 -0.359375 -0.265625 -0.875l-1.6875 0q0 0.625 0.28125 1.21875q0.296875 0.578125 0.84375 1.015625q0.53125 0.4375 1.3125 0.71875q0.78126526 0.265625 1.7968903 0.265625q0.875 0 1.609375 -0.203125q0.734375 -0.21875 1.265625 -0.609375q0.53125 -0.375 0.8125 -0.90625q0.296875 -0.546875 0.296875 -1.203125q0 -0.609375 -0.265625 -1.0625q-0.25 -0.46875 -0.734375 -0.828125q-0.5 -0.34375 -1.21875 -0.59375q-0.71875 -0.25 -1.625 -0.453125q-0.6875 -0.125 -1.140625 -0.265625q-0.453125 -0.15625 -0.71876526 -0.34375q-0.28125 -0.171875 -0.390625 -0.40625q-0.109375 -0.234375 -0.109375 -0.515625q0 -0.28125 0.140625 -0.546875q0.140625 -0.265625 0.40625 -0.46875q0.26564026 -0.203125 0.67189026 -0.3125q0.40625 -0.125 0.953125 -0.125q0.515625 0 0.921875 0.15625q0.421875 0.140625 0.71875 0.375q0.28125 0.234375 0.4375 0.546875q0.171875 0.296875 0.171875 0.625l1.6875 0q0 -0.65625 -0.28125 -1.21875q-0.265625 -0.5625 -0.78125 -0.96875q-0.515625 -0.421875 -1.25 -0.65625q-0.71875 -0.234375 -1.625 -0.234375q-0.859375 0 -1.5625 0.234375q-0.70314026 0.21875 -1.2187653 0.609375q-0.5 0.390625 -0.78125 0.921875q-0.28125 0.515625 -0.28125 1.109375q0 0.609375 0.265625 1.078125q0.28125 0.453125 0.78125 0.796875q0.484375 0.34375 1.171875 0.59375q0.70314026 0.234375 1.5625153 0.421875q0.6875 0.125 1.140625 0.296875q0.46875 0.171875 0.75 0.375q0.28125 0.203125 0.40625 0.4375q0.125 0.234375 0.125 0.546875zm17.672394 -2.703125l2.625 0q0.890625 -0.015625 1.6875 -0.28125q0.796875 -0.265625 1.390625 -0.765625q0.609375 -0.5 0.953125 -1.234375q0.359375 -0.734375 0.359375 -1.6875q0 -0.953125 -0.359375 -1.6875q-0.34375 -0.75 -0.953125 -1.25q-0.59375 -0.5 -1.390625 -0.765625q-0.796875 -0.265625 -1.6875 -0.28125l-4.3125 0l0 13.265625l1.6875 0l0 -5.3125zm0 -1.390625l0 -5.171875l2.625 0q0.578125 0 1.0625 0.1875q0.5 0.1875 0.875 0.515625q0.34375 0.34375 0.546875 0.828125q0.21875 0.484375 0.21875 1.078125q0 0.609375 -0.21875 1.078125q-0.203125 0.46875 -0.5625 0.796875q-0.359375 0.328125 -0.859375 0.5q-0.484375 0.171875 -1.0625 0.1875l-2.625 0zm15.820557 -3.328125q-1.078125 0 -1.921875 0.46875q-0.84375 0.46875 -1.4375 1.265625l-0.015625 -0.234375l-0.078125 -1.328125l-1.59375 0l0 9.859375l1.6875 0l0 -6.328125q0.171875 -0.453125 0.421875 -0.8125q0.25 -0.375 0.578125 -0.625q0.375 -0.296875 0.875 -0.4375q0.5 -0.15625 1.125 -0.15625q0.484375 0 0.921875 0.046875q0.453125 0.046875 0.9375 0.15625l0.234375 -1.640625q-0.265625 -0.109375 -0.765625 -0.171875q-0.5 -0.0625 -0.96875 -0.0625zm4.258087 5.015625l0 0.203125q0 1.0625 0.3125 1.96875q0.3125 0.90625 0.890625 1.59375q0.578125 0.671875 1.40625 1.0625q0.84375 0.375 1.890625 0.375q1.03125 0 1.859375 -0.375q0.828125 -0.390625 1.40625 -1.0625q0.578125 -0.6875 0.890625 -1.59375q0.3125 -0.90625 0.3125 -1.96875l0 -0.203125q0 -1.0625 -0.3125 -1.984375q-0.3125 -0.921875 -0.890625 -1.59375q-0.578125 -0.671875 -1.421875 -1.046875q-0.828125 -0.390625 -1.875 -0.390625q-1.03125 0 -1.859375 0.390625q-0.828125 0.375 -1.40625 1.046875q-0.578125 0.671875 -0.890625 1.59375q-0.3125 0.921875 -0.3125 1.984375zm1.6875 0.203125l0 -0.203125q0 -0.71875 0.171875 -1.375q0.171875 -0.671875 0.53125 -1.171875q0.34375 -0.5 0.859375 -0.796875q0.515625 -0.296875 1.21875 -0.296875q0.703125 0 1.21875 0.296875q0.53125 0.296875 0.890625 0.796875q0.34375 0.5 0.515625 1.171875q0.1875 0.65625 0.1875 1.375l0 0.203125q0 0.71875 -0.171875 1.390625q-0.171875 0.65625 -0.515625 1.15625q-0.359375 0.5 -0.890625 0.796875q-0.515625 0.28125 -1.203125 0.28125q-0.703125 0 -1.234375 -0.28125q-0.53125 -0.296875 -0.875 -0.796875q-0.359375 -0.5 -0.53125 -1.15625q-0.171875 -0.671875 -0.171875 -1.390625zm14.179932 3.625q-0.796875 0 -1.328125 -0.3125q-0.53125 -0.3125 -0.84375 -0.828125q-0.328125 -0.5 -0.46875 -1.125q-0.140625 -0.640625 -0.140625 -1.28125l0 -0.390625q0 -0.625 0.140625 -1.25q0.140625 -0.640625 0.46875 -1.15625q0.328125 -0.5 0.859375 -0.8125q0.53125 -0.3125 1.3125 -0.3125q0.515625 0 0.953125 0.171875q0.4375 0.171875 0.765625 0.484375q0.3125 0.296875 0.5 0.6875q0.1875 0.390625 0.203125 0.84375l1.59375 0q0 -0.75 -0.3125 -1.40625q-0.296875 -0.65625 -0.828125 -1.140625q-0.53125 -0.46875 -1.265625 -0.734375q-0.734375 -0.28125 -1.609375 -0.28125q-1.109375 0 -1.953125 0.40625q-0.84375 0.390625 -1.390625 1.0625q-0.5625 0.6875 -0.859375 1.578125q-0.28125 0.890625 -0.28125 1.859375l0 0.390625q0 0.984375 0.28125 1.875q0.296875 0.875 0.859375 1.5625q0.546875 0.671875 1.390625 1.078125q0.84375 0.40625 1.953125 0.40625q0.78125 0 1.5 -0.265625q0.71875 -0.28125 1.28125 -0.734375q0.5625 -0.4375 0.890625 -1.03125q0.328125 -0.609375 0.34375 -1.265625l-1.59375 0q-0.015625 0.40625 -0.21875 0.765625q-0.203125 0.34375 -0.546875 0.609375q-0.328125 0.265625 -0.765625 0.40625q-0.4375 0.140625 -0.890625 0.140625zm11.351837 1.375q1.4375 0 2.421875 -0.578125q0.984375 -0.578125 1.46875 -1.328125l-1.03125 -0.796875q-0.46875 0.59375 -1.171875 0.96875q-0.6875 0.359375 -1.59375 0.359375q-0.6875 0 -1.25 -0.25q-0.5625 -0.265625 -0.96875 -0.71875q-0.390625 -0.40625 -0.609375 -0.953125q-0.21875 -0.546875 -0.28125 -1.265625l0 -0.078125l7.03125 0l0 -0.75q0 -1.03125 -0.265625 -1.90625q-0.25 -0.890625 -0.78125 -1.546875q-0.53125 -0.640625 -1.328125 -1.0q-0.796875 -0.375 -1.859375 -0.375q-0.84375 0 -1.65625 0.34375q-0.796875 0.34375 -1.4375 0.984375q-0.625 0.65625 -1.015625 1.609375q-0.375 0.9375 -0.375 2.125l0 0.390625q0 1.03125 0.34375 1.90625q0.34375 0.875 0.96875 1.5q0.609375 0.640625 1.484375 1.0q0.875 0.359375 1.90625 0.359375zm-0.21875 -8.84375q0.65625 0 1.125 0.234375q0.46875 0.234375 0.765625 0.625q0.3125 0.375 0.484375 0.90625q0.171875 0.515625 0.171875 0.984375l0 0.078125l-5.296875 0q0.09375 -0.6875 0.34375 -1.203125q0.265625 -0.53125 0.625 -0.890625q0.359375 -0.359375 0.8125 -0.546875q0.453125 -0.1875 0.96875 -0.1875zm13.617432 6.046875q0 0.234375 -0.09375 0.453125q-0.09375 0.203125 -0.265625 0.375q-0.28125 0.28125 -0.78125 0.4375q-0.5 0.15625 -1.171875 0.15625q-0.4375 0 -0.875 -0.078125q-0.4375 -0.09375 -0.796875 -0.3125q-0.359375 -0.21875 -0.609375 -0.578125q-0.234375 -0.359375 -0.265625 -0.875l-1.6875 0q0 0.625 0.28125 1.21875q0.296875 0.578125 0.84375 1.015625q0.53125 0.4375 1.3125 0.71875q0.78125 0.265625 1.796875 0.265625q0.875 0 1.609375 -0.203125q0.734375 -0.21875 1.265625 -0.609375q0.53125 -0.375 0.8125 -0.90625q0.296875 -0.546875 0.296875 -1.203125q0 -0.609375 -0.265625 -1.0625q-0.25 -0.46875 -0.734375 -0.828125q-0.5 -0.34375 -1.21875 -0.59375q-0.71875 -0.25 -1.625 -0.453125q-0.6875 -0.125 -1.140625 -0.265625q-0.453125 -0.15625 -0.71875 -0.34375q-0.28125 -0.171875 -0.390625 -0.40625q-0.109375 -0.234375 -0.109375 -0.515625q0 -0.28125 0.140625 -0.546875q0.140625 -0.265625 0.40625 -0.46875q0.265625 -0.203125 0.671875 -0.3125q0.40625 -0.125 0.953125 -0.125q0.515625 0 0.921875 0.15625q0.421875 0.140625 0.71875 0.375q0.28125 0.234375 0.4375 0.546875q0.171875 0.296875 0.171875 0.625l1.6875 0q0 -0.65625 -0.28125 -1.21875q-0.265625 -0.5625 -0.78125 -0.96875q-0.515625 -0.421875 -1.25 -0.65625q-0.71875 -0.234375 -1.625 -0.234375q-0.859375 0 -1.5625 0.234375q-0.703125 0.21875 -1.21875 0.609375q-0.5 0.390625 -0.78125 0.921875q-0.28125 0.515625 -0.28125 1.109375q0 0.609375 0.265625 1.078125q0.28125 0.453125 0.78125 0.796875q0.484375 0.34375 1.171875 0.59375q0.703125 0.234375 1.5625 0.421875q0.6875 0.125 1.140625 0.296875q0.46875 0.171875 0.75 0.375q0.28125 0.203125 0.40625 0.4375q0.125 0.234375 0.125 0.546875zm11.195587 0q0 0.234375 -0.09375 0.453125q-0.09375 0.203125 -0.265625 0.375q-0.28125 0.28125 -0.78125 0.4375q-0.5 0.15625 -1.171875 0.15625q-0.4375 0 -0.875 -0.078125q-0.4375 -0.09375 -0.796875 -0.3125q-0.359375 -0.21875 -0.609375 -0.578125q-0.234375 -0.359375 -0.265625 -0.875l-1.6875 0q0 0.625 0.28125 1.21875q0.296875 0.578125 0.84375 1.015625q0.53125 0.4375 1.3125 0.71875q0.78125 0.265625 1.796875 0.265625q0.875 0 1.609375 -0.203125q0.734375 -0.21875 1.265625 -0.609375q0.53125 -0.375 0.8125 -0.90625q0.296875 -0.546875 0.296875 -1.203125q0 -0.609375 -0.265625 -1.0625q-0.25 -0.46875 -0.734375 -0.828125q-0.5 -0.34375 -1.21875 -0.59375q-0.71875 -0.25 -1.625 -0.453125q-0.6875 -0.125 -1.140625 -0.265625q-0.453125 -0.15625 -0.71875 -0.34375q-0.28125 -0.171875 -0.390625 -0.40625q-0.109375 -0.234375 -0.109375 -0.515625q0 -0.28125 0.140625 -0.546875q0.140625 -0.265625 0.40625 -0.46875q0.265625 -0.203125 0.671875 -0.3125q0.40625 -0.125 0.953125 -0.125q0.515625 0 0.921875 0.15625q0.421875 0.140625 0.71875 0.375q0.28125 0.234375 0.4375 0.546875q0.171875 0.296875 0.171875 0.625l1.6875 0q0 -0.65625 -0.28125 -1.21875q-0.265625 -0.5625 -0.78125 -0.96875q-0.515625 -0.421875 -1.25 -0.65625q-0.71875 -0.234375 -1.625 -0.234375q-0.859375 0 -1.5625 0.234375q-0.703125 0.21875 -1.21875 0.609375q-0.5 0.390625 -0.78125 0.921875q-0.28125 0.515625 -0.28125 1.109375q0 0.609375 0.265625 1.078125q0.28125 0.453125 0.78125 0.796875q0.484375 0.34375 1.171875 0.59375q0.703125 0.234375 1.5625 0.421875q0.6875 0.125 1.140625 0.296875q0.46875 0.171875 0.75 0.375q0.28125 0.203125 0.40625 0.4375q0.125 0.234375 0.125 0.546875zm4.1643066 -2.40625l0 0.203125q0 1.0625 0.3125 1.96875q0.3125 0.90625 0.890625 1.59375q0.578125 0.671875 1.40625 1.0625q0.84375 0.375 1.890625 0.375q1.03125 0 1.859375 -0.375q0.828125 -0.390625 1.40625 -1.0625q0.578125 -0.6875 0.890625 -1.59375q0.3125 -0.90625 0.3125 -1.96875l0 -0.203125q0 -1.0625 -0.3125 -1.984375q-0.3125 -0.921875 -0.890625 -1.59375q-0.578125 -0.671875 -1.421875 -1.046875q-0.828125 -0.390625 -1.875 -0.390625q-1.03125 0 -1.859375 0.390625q-0.828125 0.375 -1.40625 1.046875q-0.578125 0.671875 -0.890625 1.59375q-0.3125 0.921875 -0.3125 1.984375zm1.6875 0.203125l0 -0.203125q0 -0.71875 0.171875 -1.375q0.171875 -0.671875 0.53125 -1.171875q0.34375 -0.5 0.859375 -0.796875q0.515625 -0.296875 1.21875 -0.296875q0.703125 0 1.21875 0.296875q0.53125 0.296875 0.890625 0.796875q0.34375 0.5 0.515625 1.171875q0.1875 0.65625 0.1875 1.375l0 0.203125q0 0.71875 -0.171875 1.390625q-0.171875 0.65625 -0.515625 1.15625q-0.359375 0.5 -0.890625 0.796875q-0.515625 0.28125 -1.203125 0.28125q-0.703125 0 -1.234375 -0.28125q-0.53125 -0.296875 -0.875 -0.796875q-0.359375 -0.5 -0.53125 -1.15625q-0.171875 -0.671875 -0.171875 -1.390625zm16.445587 -5.21875q-1.078125 0 -1.921875 0.46875q-0.84375 0.46875 -1.4375 1.265625l-0.015625 -0.234375l-0.078125 -1.328125l-1.59375 0l0 9.859375l1.6875 0l0 -6.328125q0.171875 -0.453125 0.421875 -0.8125q0.25 -0.375 0.578125 -0.625q0.375 -0.296875 0.875 -0.4375q0.5 -0.15625 1.125 -0.15625q0.484375 0 0.921875 0.046875q0.453125 0.046875 0.9375 0.15625l0.234375 -1.640625q-0.265625 -0.109375 -0.765625 -0.171875q-0.5 -0.0625 -0.96875 -0.0625z" fill-rule="nonzero"/><path fill="#000000" fill-opacity="0.0" d="m588.5696 53.333332l275.9685 0l0 296.37793l-275.9685 0z" fill-rule="evenodd"/><path stroke="#000000" stroke-width="1.0" stroke-linejoin="round" stroke-linecap="butt" d="m588.5696 53.333332l275.9685 0l0 296.37793l-275.9685 0z" fill-rule="evenodd"/><path fill="#000000" d="m688.7756 208.4423l3.078125 0q0.953125 -0.015625 1.78125 -0.234375q0.828125 -0.21875 1.484375 -0.625q0.609375 -0.390625 1.109375 -0.9375q0.5 -0.5625 0.828125 -1.25q0.328125 -0.65625 0.484375 -1.4375q0.171875 -0.78125 0.171875 -1.65625l0 -0.96875q0 -0.921875 -0.1875 -1.71875q-0.171875 -0.796875 -0.515625 -1.46875q-0.359375 -0.796875 -0.984375 -1.40625q-0.625 -0.609375 -1.4375 -0.984375q-0.59375 -0.265625 -1.28125 -0.40625q-0.6875 -0.15625 -1.453125 -0.171875l-3.078125 0l0 13.265625zm1.71875 -11.875l1.359375 0q0.625 0 1.15625 0.140625q0.53125 0.125 0.953125 0.359375q0.609375 0.328125 1.015625 0.84375q0.421875 0.515625 0.65625 1.15625q0.203125 0.484375 0.296875 1.0625q0.09375 0.5625 0.09375 1.1875l0 0.984375q0 0.609375 -0.09375 1.171875q-0.09375 0.5625 -0.265625 1.046875q-0.21875 0.59375 -0.578125 1.078125q-0.359375 0.46875 -0.84375 0.796875q-0.46875 0.3125 -1.078125 0.484375q-0.59375 0.171875 -1.3125 0.1875l-1.359375 0l0 -10.5zm9.914307 2.015625l0 1.46875l3.359375 0l0 6.9375l-3.359375 0l0 1.453125l8.265625 0l0 -1.453125l-3.21875 0l0 -8.40625l-5.046875 0zm3.140625 -2.578125q0 0.40625 0.25 0.6875q0.25 0.265625 0.765625 0.265625q0.5 0 0.75 -0.265625q0.25 -0.28125 0.25 -0.6875q0 -0.234375 -0.078125 -0.421875q-0.0625 -0.1875 -0.203125 -0.328125q-0.125 -0.109375 -0.3125 -0.171875q-0.171875 -0.078125 -0.40625 -0.078125q-0.25 0 -0.4375 0.078125q-0.171875 0.0625 -0.296875 0.171875q-0.140625 0.140625 -0.21875 0.34375q-0.0625 0.1875 -0.0625 0.40625zm14.351807 9.828125q0 0.234375 -0.09375 0.453125q-0.09375 0.203125 -0.265625 0.375q-0.28125 0.28125 -0.78125 0.4375q-0.5 0.15625 -1.171875 0.15625q-0.4375 0 -0.875 -0.078125q-0.4375 -0.09375 -0.796875 -0.3125q-0.359375 -0.21875 -0.609375 -0.578125q-0.234375 -0.359375 -0.265625 -0.875l-1.6875 0q0 0.625 0.28125 1.21875q0.296875 0.578125 0.84375 1.015625q0.53125 0.4375 1.3125 0.71875q0.78125 0.265625 1.796875 0.265625q0.875 0 1.609375 -0.203125q0.734375 -0.21875 1.265625 -0.609375q0.53125 -0.375 0.8125 -0.90625q0.296875 -0.546875 0.296875 -1.203125q0 -0.609375 -0.265625 -1.0625q-0.25 -0.46875 -0.734375 -0.828125q-0.5 -0.34375 -1.21875 -0.59375q-0.71875 -0.25 -1.625 -0.453125q-0.6875 -0.125 -1.140625 -0.265625q-0.453125 -0.15625 -0.71875 -0.34375q-0.28125 -0.171875 -0.390625 -0.40625q-0.109375 -0.234375 -0.109375 -0.515625q0 -0.28125 0.140625 -0.546875q0.140625 -0.265625 0.40625 -0.46875q0.265625 -0.203125 0.671875 -0.3125q0.40625 -0.125 0.953125 -0.125q0.515625 0 0.921875 0.15625q0.421875 0.140625 0.71875 0.375q0.28125 0.234375 0.4375 0.546875q0.171875 0.296875 0.171875 0.625l1.6875 0q0 -0.65625 -0.28125 -1.21875q-0.265625 -0.5625 -0.78125 -0.96875q-0.515625 -0.421875 -1.25 -0.65625q-0.71875 -0.234375 -1.625 -0.234375q-0.859375 0 -1.5625 0.234375q-0.703125 0.21875 -1.21875 0.609375q-0.5 0.390625 -0.78125 0.921875q-0.28125 0.515625 -0.28125 1.109375q0 0.609375 0.265625 1.078125q0.28125 0.453125 0.78125 0.796875q0.484375 0.34375 1.171875 0.59375q0.703125 0.234375 1.5625 0.421875q0.6875 0.125 1.140625 0.296875q0.46875 0.171875 0.75 0.375q0.28125 0.203125 0.40625 0.4375q0.125 0.234375 0.125 0.546875zm4.6331177 6.40625l1.6875 0l0 -4.75q0.171875 0.203125 0.375 0.375q0.21875 0.171875 0.453125 0.3125q0.390625 0.21875 0.875 0.328125q0.5 0.125 1.0625 0.125q0.921875 0 1.640625 -0.375q0.734375 -0.390625 1.234375 -1.0625q0.484375 -0.6875 0.734375 -1.59375q0.265625 -0.921875 0.265625 -1.96875l0 -0.203125q0 -1.09375 -0.265625 -2.015625q-0.25 -0.9375 -0.734375 -1.59375q-0.5 -0.671875 -1.234375 -1.03125q-0.71875 -0.375 -1.671875 -0.375q-0.53125 0 -1.0 0.109375q-0.46875 0.109375 -0.859375 0.328125q-0.265625 0.140625 -0.515625 0.359375q-0.234375 0.203125 -0.421875 0.453125l-0.09375 -1.078125l-1.53125 0l0 13.65625zm6.640625 -8.8125l0 0.203125q0 0.71875 -0.171875 1.375q-0.15625 0.65625 -0.484375 1.15625q-0.328125 0.5 -0.84375 0.796875q-0.5 0.296875 -1.203125 0.296875q-0.4375 0 -0.796875 -0.109375q-0.359375 -0.109375 -0.640625 -0.3125q-0.265625 -0.15625 -0.46875 -0.390625q-0.1875 -0.234375 -0.34375 -0.515625l0 -4.75q0.171875 -0.296875 0.390625 -0.546875q0.234375 -0.265625 0.53125 -0.4375q0.265625 -0.171875 0.59375 -0.265625q0.328125 -0.09375 0.71875 -0.09375q0.71875 0 1.21875 0.296875q0.515625 0.28125 0.84375 0.78125q0.328125 0.5 0.484375 1.15625q0.171875 0.640625 0.171875 1.359375zm4.8205566 -8.984375l0 1.46875l3.359375 0l0 11.078125l-3.359375 0l0 1.453125l8.265625 0l0 -1.453125l-3.21875 0l0 -12.546875l-5.046875 0zm17.414307 14.0l1.75 0l0 -0.140625q-0.15625 -0.421875 -0.25 -0.96875q-0.09375 -0.546875 -0.09375 -1.046875l0 -4.578125q0 -0.828125 -0.296875 -1.4375q-0.296875 -0.625 -0.8125 -1.046875q-0.53125 -0.40625 -1.25 -0.609375q-0.71875 -0.203125 -1.5625 -0.203125q-0.921875 0 -1.65625 0.25q-0.71875 0.25 -1.21875 0.65625q-0.5 0.421875 -0.78125 0.953125q-0.265625 0.515625 -0.265625 1.046875l1.6875 0q0 -0.3125 0.140625 -0.59375q0.15625 -0.28125 0.4375 -0.5q0.265625 -0.203125 0.65625 -0.328125q0.40625 -0.140625 0.90625 -0.140625q0.546875 0 0.96875 0.140625q0.4375 0.140625 0.734375 0.390625q0.296875 0.25 0.453125 0.609375q0.171875 0.34375 0.171875 0.796875l0 0.78125l-1.828125 0q-1.03125 0 -1.875 0.203125q-0.828125 0.1875 -1.421875 0.59375q-0.59375 0.40625 -0.921875 1.015625q-0.3125 0.609375 -0.3125 1.421875q0 0.625 0.234375 1.15625q0.25 0.53125 0.6875 0.90625q0.4375 0.40625 1.0625 0.640625q0.640625 0.21875 1.4375 0.21875q0.46875 0 0.890625 -0.109375q0.4375 -0.09375 0.828125 -0.265625q0.375 -0.171875 0.6875 -0.390625q0.3125 -0.234375 0.5625 -0.5q0.03125 0.3125 0.09375 0.609375q0.0625 0.28125 0.15625 0.46875zm-2.984375 -1.28125q-0.484375 0 -0.859375 -0.125q-0.375 -0.140625 -0.625 -0.359375q-0.234375 -0.21875 -0.359375 -0.53125q-0.125 -0.3125 -0.125 -0.671875q0 -0.390625 0.140625 -0.6875q0.140625 -0.296875 0.40625 -0.515625q0.390625 -0.3125 1.03125 -0.453125q0.65625 -0.15625 1.53125 -0.15625l1.5625 0l0 2.0q-0.140625 0.28125 -0.40625 0.5625q-0.25 0.265625 -0.59375 0.46875q-0.34375 0.203125 -0.78125 0.34375q-0.421875 0.125 -0.921875 0.125zm8.492432 5.265625q0.671875 0 1.171875 -0.25q0.515625 -0.25 0.90625 -0.609375q0.375 -0.359375 0.640625 -0.796875q0.265625 -0.421875 0.4375 -0.8125l5.015625 -11.375l-1.890625 0l-2.546875 6.390625l-0.46875 1.15625l-0.4375 -1.1875l-2.703125 -6.359375l-1.875 0l4.234375 9.390625l-0.671875 1.3125q-0.09375 0.1875 -0.25 0.46875q-0.15625 0.28125 -0.375 0.546875q-0.234375 0.265625 -0.515625 0.453125q-0.28125 0.1875 -0.640625 0.1875q-0.125 0 -0.34375 -0.015625q-0.21875 0 -0.453125 -0.03125l-0.265625 1.375q0.15625 0.046875 0.46875 0.09375q0.328125 0.0625 0.5625 0.0625z" fill-rule="nonzero"/><path fill="#000000" fill-opacity="0.0" d="m588.5696 543.1706l275.9685 0l0 140.3465l-275.9685 0z" fill-rule="evenodd"/><path stroke="#000000" stroke-width="1.0" stroke-linejoin="round" stroke-linecap="butt" d="m588.5696 543.1706l275.9685 0l0 140.3465l-275.9685 0z" fill-rule="evenodd"/><path fill="#000000" d="m686.07996 620.26385l0 -13.265625l-1.59375 0l0 5.703125l-5.4375 0l0 -5.703125l-1.59375 0l0 13.265625l1.59375 0l0 -6.125l5.4375 0l0 6.125l1.59375 0zm9.351868 0l1.75 0l0 -0.140625q-0.15625 -0.421875 -0.25 -0.96875q-0.09375 -0.546875 -0.09375 -1.046875l0 -4.578125q0 -0.828125 -0.296875 -1.4375q-0.296875 -0.625 -0.8125 -1.046875q-0.53125 -0.40625 -1.25 -0.609375q-0.71875 -0.203125 -1.5625 -0.203125q-0.921875 0 -1.65625 0.25q-0.71875 0.25 -1.21875 0.65625q-0.5 0.421875 -0.78125 0.953125q-0.265625 0.515625 -0.265625 1.046875l1.6875 0q0 -0.3125 0.140625 -0.59375q0.15625 -0.28125 0.4375 -0.5q0.265625 -0.203125 0.65625 -0.328125q0.40625 -0.140625 0.90625 -0.140625q0.546875 0 0.96875 0.140625q0.4375 0.140625 0.734375 0.390625q0.296875 0.25 0.453125 0.609375q0.171875 0.34375 0.171875 0.796875l0 0.78125l-1.828125 0q-1.03125 0 -1.875 0.203125q-0.828125 0.1875 -1.421875 0.59375q-0.59375 0.40625 -0.921875 1.015625q-0.3125 0.609375 -0.3125 1.421875q0 0.625 0.234375 1.15625q0.25 0.53125 0.6875 0.90625q0.4375 0.40625 1.0625 0.640625q0.640625 0.21875 1.4375 0.21875q0.46875 0 0.890625 -0.109375q0.4375 -0.09375 0.828125 -0.265625q0.375 -0.171875 0.6875 -0.390625q0.3125 -0.234375 0.5625 -0.5q0.03125 0.3125 0.09375 0.609375q0.0625 0.28125 0.15625 0.46875zm-2.984375 -1.28125q-0.484375 0 -0.859375 -0.125q-0.375 -0.140625 -0.625 -0.359375q-0.234375 -0.21875 -0.359375 -0.53125q-0.125 -0.3125 -0.125 -0.671875q0 -0.390625 0.140625 -0.6875q0.140625 -0.296875 0.40625 -0.515625q0.390625 -0.3125 1.03125 -0.453125q0.65625 -0.15625 1.53125 -0.15625l1.5625 0l0 2.0q-0.140625 0.28125 -0.40625 0.5625q-0.25 0.265625 -0.59375 0.46875q-0.34375 0.203125 -0.78125 0.34375q-0.421875 0.125 -0.921875 0.125zm14.164307 -8.75q-1.078125 0 -1.921875 0.46875q-0.84375 0.46875 -1.4375 1.265625l-0.015625 -0.234375l-0.078125 -1.328125l-1.59375 0l0 9.859375l1.6875 0l0 -6.328125q0.171875 -0.453125 0.421875 -0.8125q0.25 -0.375 0.578125 -0.625q0.375 -0.296875 0.875 -0.4375q0.5 -0.15625 1.125 -0.15625q0.484375 0 0.921875 0.046875q0.453125 0.046875 0.9375 0.15625l0.234375 -1.640625q-0.265625 -0.109375 -0.765625 -0.171875q-0.5 -0.0625 -0.96875 -0.0625zm4.4143066 5.015625l0 0.203125q0 1.046875 0.28125 1.96875q0.28125 0.90625 0.796875 1.59375q0.5 0.671875 1.21875 1.0625q0.734375 0.375 1.625 0.375q0.921875 0 1.59375 -0.3125q0.6875 -0.3125 1.1875 -0.90625l0.0625 1.03125l1.546875 0l0 -14.0l-1.6875 0l0 5.125q-0.46875 -0.578125 -1.140625 -0.859375q-0.65625 -0.296875 -1.546875 -0.296875q-0.890625 0 -1.625 0.375q-0.734375 0.359375 -1.234375 1.03125q-0.515625 0.65625 -0.796875 1.59375q-0.28125 0.921875 -0.28125 2.015625zm1.6875 0.203125l0 -0.203125q0 -0.71875 0.15625 -1.359375q0.15625 -0.65625 0.484375 -1.15625q0.3125 -0.5 0.8125 -0.78125q0.515625 -0.296875 1.21875 -0.296875q0.828125 0 1.375 0.390625q0.5625 0.390625 0.890625 0.984375l0 4.578125q-0.328125 0.640625 -0.890625 1.03125q-0.546875 0.375 -1.390625 0.375q-0.703125 0 -1.203125 -0.28125q-0.5 -0.296875 -0.8125 -0.78125q-0.328125 -0.5 -0.484375 -1.140625q-0.15625 -0.640625 -0.15625 -1.359375zm20.8443 4.8125l3.078125 0q0.953125 -0.015625 1.78125 -0.234375q0.828125 -0.21875 1.484375 -0.625q0.609375 -0.390625 1.109375 -0.9375q0.5 -0.5625 0.828125 -1.25q0.328125 -0.65625 0.484375 -1.4375q0.171875 -0.78125 0.171875 -1.65625l0 -0.96875q0 -0.921875 -0.1875 -1.71875q-0.171875 -0.796875 -0.515625 -1.46875q-0.359375 -0.796875 -0.984375 -1.40625q-0.625 -0.609375 -1.4375 -0.984375q-0.59375 -0.265625 -1.28125 -0.40625q-0.6875 -0.15625 -1.453125 -0.171875l-3.078125 0l0 13.265625zm1.71875 -11.875l1.359375 0q0.625 0 1.15625 0.140625q0.53125 0.125 0.953125 0.359375q0.609375 0.328125 1.015625 0.84375q0.421875 0.515625 0.65625 1.15625q0.203125 0.484375 0.296875 1.0625q0.09375 0.5625 0.09375 1.1875l0 0.984375q0 0.609375 -0.09375 1.171875q-0.09375 0.5625 -0.265625 1.046875q-0.21875 0.59375 -0.578125 1.078125q-0.359375 0.46875 -0.84375 0.796875q-0.46875 0.3125 -1.078125 0.484375q-0.59375 0.171875 -1.3125 0.1875l-1.359375 0l0 -10.5zm9.914307 2.015625l0 1.46875l3.359375 0l0 6.9375l-3.359375 0l0 1.453125l8.265625 0l0 -1.453125l-3.21875 0l0 -8.40625l-5.046875 0zm3.140625 -2.578125q0 0.40625 0.25 0.6875q0.25 0.265625 0.765625 0.265625q0.5 0 0.75 -0.265625q0.25 -0.28125 0.25 -0.6875q0 -0.234375 -0.078125 -0.421875q-0.0625 -0.1875 -0.203125 -0.328125q-0.125 -0.109375 -0.3125 -0.171875q-0.171875 -0.078125 -0.40625 -0.078125q-0.25 0 -0.4375 0.078125q-0.171875 0.0625 -0.296875 0.171875q-0.140625 0.140625 -0.21875 0.34375q-0.0625 0.1875 -0.0625 0.40625zm14.351807 9.828125q0 0.234375 -0.09375 0.453125q-0.09375 0.203125 -0.265625 0.375q-0.28125 0.28125 -0.78125 0.4375q-0.5 0.15625 -1.171875 0.15625q-0.4375 0 -0.875 -0.078125q-0.4375 -0.09375 -0.796875 -0.3125q-0.359375 -0.21875 -0.609375 -0.578125q-0.234375 -0.359375 -0.265625 -0.875l-1.6875 0q0 0.625 0.28125 1.21875q0.296875 0.578125 0.84375 1.015625q0.53125 0.4375 1.3125 0.71875q0.78125 0.265625 1.796875 0.265625q0.875 0 1.609375 -0.203125q0.734375 -0.21875 1.265625 -0.609375q0.53125 -0.375 0.8125 -0.90625q0.296875 -0.546875 0.296875 -1.203125q0 -0.609375 -0.265625 -1.0625q-0.25 -0.46875 -0.734375 -0.828125q-0.5 -0.34375 -1.21875 -0.59375q-0.71875 -0.25 -1.625 -0.453125q-0.6875 -0.125 -1.140625 -0.265625q-0.453125 -0.15625 -0.71875 -0.34375q-0.28125 -0.171875 -0.390625 -0.40625q-0.109375 -0.234375 -0.109375 -0.515625q0 -0.28125 0.140625 -0.546875q0.140625 -0.265625 0.40625 -0.46875q0.265625 -0.203125 0.671875 -0.3125q0.40625 -0.125 0.953125 -0.125q0.515625 0 0.921875 0.15625q0.421875 0.140625 0.71875 0.375q0.28125 0.234375 0.4375 0.546875q0.171875 0.296875 0.171875 0.625l1.6875 0q0 -0.65625 -0.28125 -1.21875q-0.265625 -0.5625 -0.78125 -0.96875q-0.515625 -0.421875 -1.25 -0.65625q-0.71875 -0.234375 -1.625 -0.234375q-0.859375 0 -1.5625 0.234375q-0.703125 0.21875 -1.21875 0.609375q-0.5 0.390625 -0.78125 0.921875q-0.28125 0.515625 -0.28125 1.109375q0 0.609375 0.265625 1.078125q0.28125 0.453125 0.78125 0.796875q0.484375 0.34375 1.171875 0.59375q0.703125 0.234375 1.5625 0.421875q0.6875 0.125 1.140625 0.296875q0.46875 0.171875 0.75 0.375q0.28125 0.203125 0.40625 0.4375q0.125 0.234375 0.125 0.546875zm7.5862427 -1.984375l3.625 4.59375l2.140625 0l-4.609375 -5.75l4.0 -4.109375l-2.046875 0l-3.234375 3.25l-1.109375 1.1875l0 -8.578125l-1.6875 0l0 14.0l1.6875 0l0 -3.40625l1.234375 -1.1875z" fill-rule="nonzero"/></g></svg>