<svg version="1.1" viewBox="0.0 0.0 960.0 384.0" fill="none" stroke="none" stroke-linecap="square" stroke-miterlimit="10" xmlns:xlink="http://www.w3.org/1999/xlink" xmlns="http://www.w3.org/2000/svg"><clipPath id="p.0"><path d="m0 0l960.0 0l0 384.0l-960.0 0l0 -384.0z" clip-rule="nonzero"/></clipPath><g clip-path="url(#p.0)"><path fill="#ffffff" d="m0 0l960.0 0l0 384.0l-960.0 0z" fill-rule="evenodd"/><path fill="#1155cc" d="m225.03674 110.82546l32.91339 0l0 215.43307l-32.91339 0z" fill-rule="evenodd"/><path fill="#ffffff" d="m244.29456 224.60301l-5.609375 0l0 -1.484375l1.5 -0.6875l0 -7.96875l-1.5 -0.6875l0 -1.484375l5.609375 0l0 1.484375l-1.5 0.6875l0 7.96875l1.5 0.6875l0 1.484375z" fill-rule="nonzero"/><path fill="#d9ead3" d="m294.53815 110.82546l32.91339 0l0 215.43307l-32.91339 0z" fill-rule="evenodd"/><path fill="#000000" d="m310.7123 212.29051q2.53125 0 3.6875 0.75q1.15625 0.75 1.15625 2.3125q0 0.78125 -0.28125 1.34375q-0.28125 0.5625 -0.765625 0.90625q-0.46875 0.34375 -1.03125 0.46875l0 0.078125q0.59375 0.125 1.140625 0.4375q0.5625 0.3125 0.90625 0.90625q0.34375 0.578125 0.34375 1.53125q0 1.125 -0.5625 1.9375q-0.546875 0.796875 -1.5625 1.21875q-1.0 0.421875 -2.40625 0.421875l-4.609375 0l0 -12.3125l3.984375 0zm0.140625 4.921875q1.140625 0 1.5625 -0.40625q0.4375 -0.421875 0.4375 -1.09375q0 -0.703125 -0.515625 -1.03125q-0.5 -0.34375 -1.609375 -0.34375l-1.359375 0l0 2.875l1.484375 0zm-1.484375 1.984375l0 3.3125l1.671875 0q1.171875 0 1.625 -0.46875q0.453125 -0.46875 0.453125 -1.21875q0 -0.46875 -0.203125 -0.828125q-0.1875 -0.359375 -0.671875 -0.578125q-0.46875 -0.21875 -1.296875 -0.21875l-1.578125 0z" fill-rule="nonzero"/><path fill="#d9d2e9" d="m364.0392 110.82546l32.91339 0l0 215.43307l-32.91339 0z" fill-rule="evenodd"/><path fill="#000000" d="m380.4679 212.29051q2.375 0 3.515625 1.0q1.140625 0.984375 1.140625 2.796875q0 0.8125 -0.25 1.546875q-0.234375 0.734375 -0.796875 1.34375q-0.546875 0.59375 -1.46875 0.9375q-0.90625 0.328125 -2.234375 0.328125l-1.125 0l0 4.359375l-2.640625 0l0 -12.3125l3.859375 0zm-0.078125 2.15625l-1.140625 0l0 3.625l0.875 0q0.71875 0 1.25 -0.1875q0.53125 -0.1875 0.8125 -0.609375q0.28125 -0.421875 0.28125 -1.109375q0 -0.828125 -0.515625 -1.265625q-0.5 -0.453125 -1.5625 -0.453125z" fill-rule="nonzero"/><path fill="#d9d2e9" d="m503.03897 110.82546l32.91336 0l0 215.43307l-32.91336 0z" fill-rule="evenodd"/><path fill="#000000" d="m519.46765 212.29051q2.375 0 3.515625 1.0q1.140625 0.984375 1.140625 2.796875q0 0.8125 -0.25 1.546875q-0.234375 0.734375 -0.796875 1.34375q-0.546875 0.59375 -1.46875 0.9375q-0.90625 0.328125 -2.234375 0.328125l-1.125 0l0 4.359375l-2.640625 0l0 -12.3125l3.859375 0zm-0.078125 2.15625l-1.140625 0l0 3.625l0.875 0q0.71875 0 1.25 -0.1875q0.53125 -0.1875 0.8125 -0.609375q0.28125 -0.421875 0.28125 -1.109375q0 -0.828125 -0.515625 -1.265625q-0.5 -0.453125 -1.5625 -0.453125z" fill-rule="nonzero"/><path fill="#000000" d="m374.34122 332.60236l0 20.26773l0 0c0 8.706085 -7.0577087 15.763763 -15.763794 15.763763l-113.52338 0c-4.1808167 0 -8.190399 -1.6608276 -11.146683 -4.617096c-2.9562836 -2.9562683 -4.617096 -6.965851 -4.617096 -11.1466675l0 -11.259857l-6.79158 0l9.007874 -9.007874l9.007874 9.007874l-6.79158 0l0 11.259857c0 6.258026 5.0731506 11.331177 11.331192 11.331177l113.52338 0l0 0c6.2580566 0 11.331177 -5.0731506 11.331177 -11.331177l0 -20.26773z" fill-rule="evenodd"/><path fill="#000000" d="m373.29895 332.5866l0 14.899597l0 0c0 6.4002075 -5.188385 11.588593 -11.588593 11.588593l-37.49936 0l0 0c-3.0734863 0 -6.0210876 -1.2209167 -8.194366 -3.394226c-2.1732788 -2.1732788 -3.394226 -5.12088 -3.394226 -8.194366l0 -8.277557l-4.9927673 0l6.6220703 -6.62204l6.62204 6.62204l-4.9927673 0l0 8.277557c0 4.6005554 3.7294617 8.330017 8.330017 8.330017l37.49936 0l0 0c4.600525 0 8.330017 -3.7294617 8.330017 -8.330017l0 -14.899597z" fill-rule="evenodd"/><path fill="#000000" d="m441.57333 332.5866l0 14.899597l0 0c0 6.4002075 -5.188385 11.588593 -11.588593 11.588593l-37.49936 0l0 0c-3.0734863 0 -6.0210876 -1.2209167 -8.194366 -3.394226c-2.1732788 -2.1732788 -3.3941956 -5.12088 -3.3941956 -8.194366l0 -8.277557l-4.9927673 0l6.62204 -6.62204l6.62204 6.62204l-4.992737 0l0 8.277557c0 4.6005554 3.7294617 8.330017 8.329987 8.330017l37.49936 0l0 0c4.6005554 0 8.330017 -3.7294617 8.330017 -8.330017l0 -14.899597z" fill-rule="evenodd"/><path fill="#000000" d="m448.59552 332.5866l0 14.899597l0 0c0 6.4002075 5.188385 11.588593 11.588593 11.588593l37.49936 0l0 0c3.0734863 0 6.0210876 -1.2209167 8.194366 -3.394226c2.1732788 -2.1732788 3.394226 -5.12088 3.394226 -8.194366l0 -8.277557l4.9927673 0l-6.6220703 -6.62204l-6.62204 6.62204l4.9927673 0l0 8.277557c0 4.6005554 -3.7294617 8.330017 -8.330017 8.330017l-37.49936 0l0 0c-4.600525 0 -8.330017 -3.7294617 -8.330017 -8.330017l0 -14.899597z" fill-rule="evenodd"/><path fill="#000000" d="m242.43958 42.143204l-1.390625 0l0 -7.984375q0 -0.46875 0 -0.78125q0.015625 -0.328125 0.03125 -0.59375q0.03125 -0.28125 0.046875 -0.59375q-0.265625 0.25 -0.46875 0.4375q-0.203125 0.171875 -0.53125 0.4375l-1.21875 1.0l-0.734375 -0.953125l3.09375 -2.390625l1.171875 0l0 11.421875z" fill-rule="nonzero"/><path fill="#000000" d="m314.6427 33.393204q0 0.765625 -0.296875 1.328125q-0.28125 0.5625 -0.828125 0.921875q-0.53125 0.34375 -1.25 0.484375l0 0.0625q1.375 0.15625 2.046875 0.859375q0.671875 0.703125 0.671875 1.84375q0 1.0 -0.46875 1.78125q-0.453125 0.765625 -1.421875 1.203125q-0.96875 0.421875 -2.484375 0.421875q-0.90625 0 -1.671875 -0.140625q-0.765625 -0.125 -1.46875 -0.484375l0 -1.3125q0.71875 0.359375 1.546875 0.5625q0.84375 0.1875 1.609375 0.1875q1.53125 0 2.203125 -0.59375q0.6875 -0.59375 0.6875 -1.65625q0 -0.71875 -0.375 -1.15625q-0.375 -0.4375 -1.09375 -0.640625q-0.71875 -0.21875 -1.734375 -0.21875l-1.09375 0l0 -1.203125l1.109375 0q0.953125 0 1.578125 -0.265625q0.640625 -0.28125 0.96875 -0.765625q0.328125 -0.484375 0.328125 -1.125q0 -0.828125 -0.5625 -1.28125q-0.5625 -0.46875 -1.515625 -0.46875q-0.609375 0 -1.109375 0.125q-0.5 0.125 -0.921875 0.34375q-0.421875 0.203125 -0.859375 0.5l-0.703125 -0.96875q0.609375 -0.46875 1.515625 -0.8125q0.90625 -0.359375 2.0625 -0.359375q1.78125 0 2.65625 0.796875q0.875 0.796875 0.875 2.03125z" fill-rule="nonzero"/><path fill="#000000" d="m385.06458 42.143204l-7.546875 0l0 -1.171875l3.0 -3.015625q0.859375 -0.875 1.453125 -1.546875q0.59375 -0.671875 0.890625 -1.3125q0.3125 -0.65625 0.3125 -1.421875q0 -0.9375 -0.5625 -1.421875q-0.5625 -0.5 -1.453125 -0.5q-0.84375 0 -1.484375 0.296875q-0.625 0.28125 -1.28125 0.796875l-0.75 -0.9375q0.453125 -0.390625 0.984375 -0.6875q0.546875 -0.3125 1.171875 -0.484375q0.640625 -0.171875 1.359375 -0.171875q1.0625 0 1.828125 0.375q0.78125 0.359375 1.203125 1.046875q0.421875 0.671875 0.421875 1.609375q0 0.90625 -0.375 1.6875q-0.359375 0.78125 -1.015625 1.546875q-0.65625 0.75 -1.546875 1.609375l-2.375 2.359375l0 0.0625l5.765625 0l0 1.28125z" fill-rule="nonzero"/><path fill="#000000" d="m451.15833 35.12758q1.15625 0 2.015625 0.40625q0.875 0.40625 1.34375 1.15625q0.46875 0.734375 0.46875 1.8125q0 1.171875 -0.515625 2.03125q-0.5 0.859375 -1.453125 1.3125q-0.953125 0.453125 -2.296875 0.453125q-0.875 0 -1.65625 -0.15625q-0.78125 -0.15625 -1.296875 -0.46875l0 -1.328125q0.5625 0.359375 1.390625 0.5625q0.828125 0.1875 1.578125 0.1875q0.84375 0 1.46875 -0.25q0.640625 -0.265625 0.984375 -0.8125q0.359375 -0.5625 0.359375 -1.390625q0 -1.125 -0.6875 -1.71875q-0.6875 -0.609375 -2.171875 -0.609375q-0.453125 0 -1.03125 0.09375q-0.5625 0.078125 -0.921875 0.15625l-0.703125 -0.453125l0.4375 -5.390625l5.71875 0l0 1.28125l-4.53125 0l-0.265625 3.3125q0.265625 -0.046875 0.734375 -0.109375q0.46875 -0.078125 1.03125 -0.078125z" fill-rule="nonzero"/><path fill="#000000" d="m525.5802 39.549454l-1.65625 0l0 2.59375l-1.359375 0l0 -2.59375l-5.46875 0l0 -1.203125l5.375 -7.6875l1.453125 0l0 7.625l1.65625 0l0 1.265625zm-3.015625 -4.859375q0 -0.421875 0 -0.765625q0.015625 -0.34375 0.03125 -0.640625q0.015625 -0.3125 0.015625 -0.59375q0.015625 -0.28125 0.03125 -0.53125l-0.0625 0q-0.125 0.296875 -0.328125 0.65625q-0.1875 0.359375 -0.359375 0.59375l-3.421875 4.875l4.09375 0l0 -3.59375z" fill-rule="nonzero"/><path fill="#000000" d="m587.6271 37.268204q0 -1.0 0.140625 -1.953125q0.140625 -0.96875 0.46875 -1.8125q0.34375 -0.859375 0.9375 -1.515625q0.59375 -0.671875 1.484375 -1.046875q0.90625 -0.375 2.203125 -0.375q0.34375 0 0.75 0.03125q0.40625 0.03125 0.65625 0.109375l0 1.203125q-0.28125 -0.109375 -0.640625 -0.15625q-0.359375 -0.046875 -0.734375 -0.046875q-1.09375 0 -1.84375 0.375q-0.734375 0.359375 -1.15625 1.0q-0.421875 0.640625 -0.609375 1.484375q-0.1875 0.828125 -0.25 1.765625l0.109375 0q0.234375 -0.375 0.59375 -0.671875q0.375 -0.3125 0.890625 -0.484375q0.53125 -0.1875 1.21875 -0.1875q0.984375 0 1.71875 0.40625q0.75 0.40625 1.171875 1.1875q0.421875 0.78125 0.421875 1.875q0 1.1875 -0.453125 2.0625q-0.453125 0.859375 -1.265625 1.328125q-0.796875 0.453125 -1.921875 0.453125q-0.8125 0 -1.515625 -0.296875q-0.703125 -0.3125 -1.25 -0.9375q-0.53125 -0.625 -0.828125 -1.5625q-0.296875 -0.953125 -0.296875 -2.234375zm3.875 3.84375q1.015625 0 1.640625 -0.640625q0.625 -0.640625 0.625 -2.015625q0 -1.078125 -0.5625 -1.71875q-0.546875 -0.640625 -1.65625 -0.640625q-0.75 0 -1.3125 0.3125q-0.5625 0.3125 -0.875 0.796875q-0.3125 0.46875 -0.3125 0.984375q0 0.53125 0.15625 1.046875q0.15625 0.5 0.46875 0.9375q0.3125 0.4375 0.765625 0.6875q0.453125 0.25 1.0625 0.25z" fill-rule="nonzero"/><path fill="#000000" d="m661.3146 30.565079q1.0 0 1.765625 0.3125q0.78125 0.3125 1.21875 0.921875q0.4375 0.59375 0.4375 1.5q0 0.6875 -0.296875 1.203125q-0.296875 0.5 -0.796875 0.890625q-0.484375 0.390625 -1.078125 0.703125q0.703125 0.328125 1.265625 0.765625q0.578125 0.421875 0.921875 0.984375q0.359375 0.546875 0.359375 1.34375q0 0.953125 -0.46875 1.65625q-0.46875 0.6875 -1.3125 1.078125q-0.828125 0.375 -1.96875 0.375q-1.234375 0 -2.09375 -0.359375q-0.859375 -0.375 -1.296875 -1.046875q-0.4375 -0.6875 -0.4375 -1.65625q0 -0.796875 0.328125 -1.359375q0.328125 -0.578125 0.875 -1.0q0.546875 -0.421875 1.171875 -0.703125q-0.5625 -0.3125 -1.015625 -0.71875q-0.453125 -0.421875 -0.71875 -0.9375q-0.265625 -0.53125 -0.265625 -1.234375q0 -0.890625 0.4375 -1.484375q0.453125 -0.59375 1.21875 -0.90625q0.765625 -0.328125 1.75 -0.328125zm-2.40625 8.6875q0 0.828125 0.59375 1.390625q0.59375 0.546875 1.828125 0.546875q1.171875 0 1.78125 -0.546875q0.609375 -0.5625 0.609375 -1.4375q0 -0.5625 -0.296875 -0.984375q-0.28125 -0.4375 -0.828125 -0.765625q-0.53125 -0.34375 -1.265625 -0.609375l-0.265625 -0.09375q-0.703125 0.296875 -1.1875 0.65625q-0.46875 0.34375 -0.71875 0.796875q-0.25 0.453125 -0.25 1.046875zm2.390625 -7.5625q-0.890625 0 -1.453125 0.4375q-0.5625 0.421875 -0.5625 1.21875q0 0.59375 0.28125 1.0q0.28125 0.390625 0.75 0.671875q0.484375 0.28125 1.0625 0.53125q0.5625 -0.234375 1.0 -0.515625q0.4375 -0.296875 0.703125 -0.703125q0.265625 -0.40625 0.265625 -0.984375q0 -0.796875 -0.5625 -1.21875q-0.5625 -0.4375 -1.484375 -0.4375z" fill-rule="nonzero"/><path fill="#000000" d="m728.92395 42.143204l4.6875 -10.140625l-6.15625 0l0 -1.28125l7.671875 0l0 1.078125l-4.640625 10.34375l-1.5625 0z" fill-rule="nonzero"/><path fill="#000000" d="m797.8636 42.143204l-1.390625 0l0 -7.984375q0 -0.46875 0 -0.78125q0.015625 -0.328125 0.03125 -0.59375q0.03125 -0.28125 0.046875 -0.59375q-0.265625 0.25 -0.46875 0.4375q-0.203125 0.171875 -0.53125 0.4375l-1.21875 1.0l-0.734375 -0.953125l3.09375 -2.390625l1.171875 0l0 11.421875zm11.839478 -5.734375q0 1.390625 -0.21875 2.484375q-0.203125 1.09375 -0.65625 1.859375q-0.453125 0.75 -1.1875 1.15625q-0.734375 0.390625 -1.75 0.390625q-1.28125 0 -2.125 -0.703125q-0.84375 -0.703125 -1.25 -2.015625q-0.40625 -1.328125 -0.40625 -3.171875q0 -1.84375 0.375 -3.15625q0.375 -1.3125 1.203125 -2.0q0.84375 -0.703125 2.203125 -0.703125q1.28125 0 2.125 0.703125q0.84375 0.6875 1.265625 2.0q0.421875 1.3125 0.421875 3.15625zm-6.1875 0q0 1.578125 0.234375 2.625q0.234375 1.03125 0.75 1.546875q0.53125 0.515625 1.390625 0.515625q0.859375 0 1.375 -0.5q0.53125 -0.515625 0.765625 -1.5625q0.234375 -1.046875 0.234375 -2.625q0 -1.5625 -0.234375 -2.59375q-0.234375 -1.03125 -0.765625 -1.546875q-0.515625 -0.53125 -1.375 -0.53125q-0.859375 0 -1.390625 0.53125q-0.515625 0.515625 -0.75 1.546875q-0.234375 1.03125 -0.234375 2.59375z" fill-rule="nonzero"/><path fill="#000000" d="m875.0646 35.59633q0 0.984375 -0.140625 1.953125q-0.125 0.96875 -0.46875 1.828125q-0.328125 0.84375 -0.921875 1.515625q-0.59375 0.65625 -1.5 1.03125q-0.90625 0.375 -2.203125 0.375q-0.328125 0 -0.75 -0.046875q-0.421875 -0.03125 -0.703125 -0.109375l0 -1.203125q0.296875 0.09375 0.671875 0.15625q0.390625 0.0625 0.75 0.0625q1.109375 0 1.828125 -0.375q0.734375 -0.375 1.171875 -1.0q0.4375 -0.625 0.625 -1.46875q0.1875 -0.84375 0.21875 -1.765625l-0.09375 0q-0.234375 0.359375 -0.609375 0.671875q-0.359375 0.296875 -0.890625 0.484375q-0.515625 0.171875 -1.21875 0.171875q-0.96875 0 -1.71875 -0.40625q-0.75 -0.421875 -1.15625 -1.1875q-0.40625 -0.765625 -0.40625 -1.875q0 -1.1875 0.453125 -2.046875q0.46875 -0.875 1.28125 -1.328125q0.8125 -0.46875 1.921875 -0.46875q0.8125 0 1.515625 0.3125q0.703125 0.3125 1.234375 0.9375q0.53125 0.609375 0.8125 1.5625q0.296875 0.9375 0.296875 2.21875zm-3.859375 -3.859375q-1.0 0 -1.640625 0.65625q-0.625 0.65625 -0.625 2.0q0 1.109375 0.53125 1.75q0.546875 0.625 1.671875 0.625q0.765625 0 1.3125 -0.3125q0.5625 -0.3125 0.875 -0.78125q0.3125 -0.484375 0.3125 -1.0q0 -0.515625 -0.15625 -1.03125q-0.140625 -0.53125 -0.453125 -0.953125q-0.296875 -0.4375 -0.765625 -0.6875q-0.453125 -0.265625 -1.0625 -0.265625z" fill-rule="nonzero"/><path fill="#000000" d="m242.43958 84.17732l-1.390625 0l0 -7.984375q0 -0.46875 0 -0.78125q0.015625 -0.328125 0.03125 -0.59375q0.03125 -0.28125 0.046875 -0.59375q-0.265625 0.25 -0.46875 0.4375q-0.203125 0.171875 -0.53125 0.4375l-1.21875 1.0l-0.734375 -0.953125l3.09375 -2.390625l1.171875 0l0 11.421875z" fill-rule="nonzero"/><path fill="#000000" d="m315.06458 84.17732l-7.546875 0l0 -1.171875l3.0 -3.015625q0.859375 -0.875 1.453125 -1.546875q0.59375 -0.671875 0.890625 -1.3125q0.3125 -0.65625 0.3125 -1.421875q0 -0.9375 -0.5625 -1.421875q-0.5625 -0.5 -1.453125 -0.5q-0.84375 0 -1.484375 0.296875q-0.625 0.28125 -1.28125 0.796875l-0.75 -0.9375q0.453125 -0.390625 0.984375 -0.6875q0.546875 -0.3125 1.171875 -0.484375q0.640625 -0.171875 1.359375 -0.171875q1.0625 0 1.828125 0.375q0.78125 0.359375 1.203125 1.046875q0.421875 0.671875 0.421875 1.609375q0 0.90625 -0.375 1.6875q-0.359375 0.78125 -1.015625 1.546875q-0.65625 0.75 -1.546875 1.609375l-2.375 2.359375l0 0.0625l5.765625 0l0 1.28125z" fill-rule="nonzero"/><path fill="#000000" d="m384.6427 75.42732q0 0.765625 -0.296875 1.328125q-0.28125 0.5625 -0.828125 0.921875q-0.53125 0.34375 -1.25 0.484375l0 0.0625q1.375 0.15625 2.046875 0.859375q0.671875 0.703125 0.671875 1.84375q0 1.0 -0.46875 1.78125q-0.453125 0.765625 -1.421875 1.203125q-0.96875 0.421875 -2.484375 0.421875q-0.90625 0 -1.671875 -0.140625q-0.765625 -0.125 -1.46875 -0.484375l0 -1.3125q0.71875 0.359375 1.546875 0.5625q0.84375 0.1875 1.609375 0.1875q1.53125 0 2.203125 -0.59375q0.6875 -0.59375 0.6875 -1.65625q0 -0.71875 -0.375 -1.15625q-0.375 -0.4375 -1.09375 -0.640625q-0.71875 -0.21875 -1.734375 -0.21875l-1.09375 0l0 -1.203125l1.109375 0q0.953125 0 1.578125 -0.265625q0.640625 -0.28125 0.96875 -0.765625q0.328125 -0.484375 0.328125 -1.125q0 -0.828125 -0.5625 -1.28125q-0.5625 -0.46875 -1.515625 -0.46875q-0.609375 0 -1.109375 0.125q-0.5 0.125 -0.921875 0.34375q-0.421875 0.203125 -0.859375 0.5l-0.703125 -0.96875q0.609375 -0.46875 1.515625 -0.8125q0.90625 -0.359375 2.0625 -0.359375q1.78125 0 2.65625 0.796875q0.875 0.796875 0.875 2.03125z" fill-rule="nonzero"/><path fill="#000000" d="m455.5802 81.58357l-1.65625 0l0 2.59375l-1.359375 0l0 -2.59375l-5.46875 0l0 -1.203125l5.375 -7.6875l1.453125 0l0 7.625l1.65625 0l0 1.265625zm-3.015625 -4.859375q0 -0.421875 0 -0.765625q0.015625 -0.34375 0.03125 -0.640625q0.015625 -0.3125 0.015625 -0.59375q0.015625 -0.28125 0.03125 -0.53125l-0.0625 0q-0.125 0.296875 -0.328125 0.65625q-0.1875 0.359375 -0.359375 0.59375l-3.421875 4.875l4.09375 0l0 -3.59375z" fill-rule="nonzero"/><path fill="#000000" d="m521.1583 77.1617q1.15625 0 2.015625 0.40625q0.875 0.40625 1.34375 1.15625q0.46875 0.734375 0.46875 1.8125q0 1.171875 -0.515625 2.03125q-0.5 0.859375 -1.453125 1.3125q-0.953125 0.453125 -2.296875 0.453125q-0.875 0 -1.65625 -0.15625q-0.78125 -0.15625 -1.296875 -0.46875l0 -1.328125q0.5625 0.359375 1.390625 0.5625q0.828125 0.1875 1.578125 0.1875q0.84375 0 1.46875 -0.25q0.640625 -0.265625 0.984375 -0.8125q0.359375 -0.5625 0.359375 -1.390625q0 -1.125 -0.6875 -1.71875q-0.6875 -0.609375 -2.171875 -0.609375q-0.453125 0 -1.03125 0.09375q-0.5625 0.078125 -0.921875 0.15625l-0.703125 -0.453125l0.4375 -5.390625l5.71875 0l0 1.28125l-4.53125 0l-0.265625 3.3125q0.265625 -0.046875 0.734375 -0.109375q0.46875 -0.078125 1.03125 -0.078125z" fill-rule="nonzero"/><path fill="#000000" d="m587.6271 79.30232q0 -1.0 0.140625 -1.953125q0.140625 -0.96875 0.46875 -1.8125q0.34375 -0.859375 0.9375 -1.515625q0.59375 -0.671875 1.484375 -1.046875q0.90625 -0.375 2.203125 -0.375q0.34375 0 0.75 0.03125q0.40625 0.03125 0.65625 0.109375l0 1.203125q-0.28125 -0.109375 -0.640625 -0.15625q-0.359375 -0.046875 -0.734375 -0.046875q-1.09375 0 -1.84375 0.375q-0.734375 0.359375 -1.15625 1.0q-0.421875 0.640625 -0.609375 1.484375q-0.1875 0.828125 -0.25 1.765625l0.109375 0q0.234375 -0.375 0.59375 -0.671875q0.375 -0.3125 0.890625 -0.484375q0.53125 -0.1875 1.21875 -0.1875q0.984375 0 1.71875 0.40625q0.75 0.40625 1.171875 1.1875q0.421875 0.78125 0.421875 1.875q0 1.1875 -0.453125 2.0625q-0.453125 0.859375 -1.265625 1.328125q-0.796875 0.453125 -1.921875 0.453125q-0.8125 0 -1.515625 -0.296875q-0.703125 -0.3125 -1.25 -0.9375q-0.53125 -0.625 -0.828125 -1.5625q-0.296875 -0.953125 -0.296875 -2.234375zm3.875 3.84375q1.015625 0 1.640625 -0.640625q0.625 -0.640625 0.625 -2.015625q0 -1.078125 -0.5625 -1.71875q-0.546875 -0.640625 -1.65625 -0.640625q-0.75 0 -1.3125 0.3125q-0.5625 0.3125 -0.875 0.796875q-0.3125 0.46875 -0.3125 0.984375q0 0.53125 0.15625 1.046875q0.15625 0.5 0.46875 0.9375q0.3125 0.4375 0.765625 0.6875q0.453125 0.25 1.0625 0.25z" fill-rule="nonzero"/><path fill="#000000" d="m658.92395 84.17732l4.6875 -10.140625l-6.15625 0l0 -1.28125l7.671875 0l0 1.078125l-4.640625 10.34375l-1.5625 0z" fill-rule="nonzero"/><path fill="#000000" d="m731.3146 72.5992q1.0 0 1.765625 0.3125q0.78125 0.3125 1.21875 0.921875q0.4375 0.59375 0.4375 1.5q0 0.6875 -0.296875 1.203125q-0.296875 0.5 -0.796875 0.890625q-0.484375 0.390625 -1.078125 0.703125q0.703125 0.328125 1.265625 0.765625q0.578125 0.421875 0.921875 0.984375q0.359375 0.546875 0.359375 1.34375q0 0.953125 -0.46875 1.65625q-0.46875 0.6875 -1.3125 1.078125q-0.828125 0.375 -1.96875 0.375q-1.234375 0 -2.09375 -0.359375q-0.859375 -0.375 -1.296875 -1.046875q-0.4375 -0.6875 -0.4375 -1.65625q0 -0.796875 0.328125 -1.359375q0.328125 -0.578125 0.875 -1.0q0.546875 -0.421875 1.171875 -0.703125q-0.5625 -0.3125 -1.015625 -0.71875q-0.453125 -0.421875 -0.71875 -0.9375q-0.265625 -0.53125 -0.265625 -1.234375q0 -0.890625 0.4375 -1.484375q0.453125 -0.59375 1.21875 -0.90625q0.765625 -0.328125 1.75 -0.328125zm-2.40625 8.6875q0 0.828125 0.59375 1.390625q0.59375 0.546875 1.828125 0.546875q1.171875 0 1.78125 -0.546875q0.609375 -0.5625 0.609375 -1.4375q0 -0.5625 -0.296875 -0.984375q-0.28125 -0.4375 -0.828125 -0.765625q-0.53125 -0.34375 -1.265625 -0.609375l-0.265625 -0.09375q-0.703125 0.296875 -1.1875 0.65625q-0.46875 0.34375 -0.71875 0.796875q-0.25 0.453125 -0.25 1.046875zm2.390625 -7.5625q-0.890625 0 -1.453125 0.4375q-0.5625 0.421875 -0.5625 1.21875q0 0.59375 0.28125 1.0q0.28125 0.390625 0.75 0.671875q0.484375 0.28125 1.0625 0.53125q0.5625 -0.234375 1.0 -0.515625q0.4375 -0.296875 0.703125 -0.703125q0.265625 -0.40625 0.265625 -0.984375q0 -0.796875 -0.5625 -1.21875q-0.5625 -0.4375 -1.484375 -0.4375z" fill-rule="nonzero"/><path fill="#000000" d="m805.0646 77.63045q0 0.984375 -0.140625 1.953125q-0.125 0.96875 -0.46875 1.828125q-0.328125 0.84375 -0.921875 1.515625q-0.59375 0.65625 -1.5 1.03125q-0.90625 0.375 -2.203125 0.375q-0.328125 0 -0.75 -0.046875q-0.421875 -0.03125 -0.703125 -0.109375l0 -1.203125q0.296875 0.09375 0.671875 0.15625q0.390625 0.0625 0.75 0.0625q1.109375 0 1.828125 -0.375q0.734375 -0.375 1.171875 -1.0q0.4375 -0.625 0.625 -1.46875q0.1875 -0.84375 0.21875 -1.765625l-0.09375 0q-0.234375 0.359375 -0.609375 0.671875q-0.359375 0.296875 -0.890625 0.484375q-0.515625 0.171875 -1.21875 0.171875q-0.96875 0 -1.71875 -0.40625q-0.75 -0.421875 -1.15625 -1.1875q-0.40625 -0.765625 -0.40625 -1.875q0 -1.1875 0.453125 -2.046875q0.46875 -0.875 1.28125 -1.328125q0.8125 -0.46875 1.921875 -0.46875q0.8125 0 1.515625 0.3125q0.703125 0.3125 1.234375 0.9375q0.53125 0.609375 0.8125 1.5625q0.296875 0.9375 0.296875 2.21875zm-3.859375 -3.859375q-1.0 0 -1.640625 0.65625q-0.625 0.65625 -0.625 2.0q0 1.109375 0.53125 1.75q0.546875 0.625 1.671875 0.625q0.765625 0 1.3125 -0.3125q0.5625 -0.3125 0.875 -0.78125q0.3125 -0.484375 0.3125 -1.0q0 -0.515625 -0.15625 -1.03125q-0.140625 -0.53125 -0.453125 -0.953125q-0.296875 -0.4375 -0.765625 -0.6875q-0.453125 -0.265625 -1.0625 -0.265625z" fill-rule="nonzero"/><path fill="#000000" d="m867.8636 84.17732l-1.390625 0l0 -7.984375q0 -0.46875 0 -0.78125q0.015625 -0.328125 0.03125 -0.59375q0.03125 -0.28125 0.046875 -0.59375q-0.265625 0.25 -0.46875 0.4375q-0.203125 0.171875 -0.53125 0.4375l-1.21875 1.0l-0.734375 -0.953125l3.09375 -2.390625l1.171875 0l0 11.421875zm11.839478 -5.734375q0 1.390625 -0.21875 2.484375q-0.203125 1.09375 -0.65625 1.859375q-0.453125 0.75 -1.1875 1.15625q-0.734375 0.390625 -1.75 0.390625q-1.28125 0 -2.125 -0.703125q-0.84375 -0.703125 -1.25 -2.015625q-0.40625 -1.328125 -0.40625 -3.171875q0 -1.84375 0.375 -3.15625q0.375 -1.3125 1.203125 -2.0q0.84375 -0.703125 2.203125 -0.703125q1.28125 0 2.125 0.703125q0.84375 0.6875 1.265625 2.0q0.421875 1.3125 0.421875 3.15625zm-6.1875 0q0 1.578125 0.234375 2.625q0.234375 1.03125 0.75 1.546875q0.53125 0.515625 1.390625 0.515625q0.859375 0 1.375 -0.5q0.53125 -0.515625 0.765625 -1.5625q0.234375 -1.046875 0.234375 -2.625q0 -1.5625 -0.234375 -2.59375q-0.234375 -1.03125 -0.765625 -1.546875q-0.515625 -0.53125 -1.375 -0.53125q-0.859375 0 -1.390625 0.53125q-0.515625 0.515625 -0.75 1.546875q-0.234375 1.03125 -0.234375 2.59375z" fill-rule="nonzero"/><path fill="#000000" fill-opacity="0.0" d="m15.2021 23.283464l156.47244 0l0 37.16535l-156.47244 0z" fill-rule="evenodd"/><path fill="#000000" d="m34.1396 40.957214q0 1.796875 -0.671875 3.0q-0.671875 1.203125 -1.90625 1.8125q-1.21875 0.59375 -2.921875 0.59375l-3.1875 0l0 -10.46875l3.453125 0q1.65625 0 2.8125 0.578125q1.171875 0.578125 1.796875 1.71875q0.625 1.125 0.625 2.765625zm-2.34375 0.09375q0 -1.140625 -0.328125 -1.875q-0.328125 -0.734375 -1.0 -1.078125q-0.65625 -0.359375 -1.625 -0.359375l-1.15625 0l0 6.78125l0.9375 0q1.609375 0 2.390625 -0.859375q0.78125 -0.875 0.78125 -2.609375zm7.619034 -2.84375q1.109375 0 1.90625 0.421875q0.8125 0.421875 1.25 1.234375q0.4375 0.8125 0.4375 1.984375l0 1.078125l-5.140625 0q0.015625 0.90625 0.546875 1.421875q0.53125 0.515625 1.515625 0.515625q0.75 0 1.359375 -0.140625q0.609375 -0.140625 1.265625 -0.4375l0 1.65625q-0.59375 0.296875 -1.25 0.421875q-0.640625 0.140625 -1.609375 0.140625q-1.1875 0 -2.109375 -0.4375q-0.90625 -0.4375 -1.4375 -1.34375q-0.53125 -0.921875 -0.53125 -2.296875q0 -1.40625 0.46875 -2.328125q0.484375 -0.9375 1.34375 -1.40625q0.859375 -0.484375 1.984375 -0.484375zm0.0625 1.578125q-0.65625 0 -1.078125 0.421875q-0.40625 0.40625 -0.484375 1.234375l3.03125 0q0 -0.484375 -0.171875 -0.84375q-0.15625 -0.375 -0.484375 -0.59375q-0.328125 -0.21875 -0.8125 -0.21875zm8.765442 6.71875q-1.15625 0 -2.03125 -0.421875q-0.875 -0.4375 -1.359375 -1.34375q-0.484375 -0.921875 -0.484375 -2.328125q0 -1.484375 0.53125 -2.40625q0.53125 -0.921875 1.4375 -1.359375q0.90625 -0.4375 2.0625 -0.4375q0.703125 0 1.328125 0.15625q0.625 0.140625 1.109375 0.390625l-0.65625 1.671875q-0.453125 -0.1875 -0.90625 -0.3125q-0.4375 -0.125 -0.875 -0.125q-0.578125 0 -0.96875 0.265625q-0.390625 0.265625 -0.59375 0.796875q-0.203125 0.53125 -0.203125 1.34375q0 0.78125 0.203125 1.296875q0.203125 0.515625 0.59375 0.78125q0.390625 0.25 0.9375 0.25q0.625 0 1.1875 -0.171875q0.5625 -0.171875 1.0625 -0.4375l0 1.796875q-0.453125 0.28125 -1.03125 0.4375q-0.578125 0.15625 -1.34375 0.15625zm11.453278 -4.15625q0 1.0 -0.265625 1.78125q-0.265625 0.765625 -0.78125 1.296875q-0.5 0.53125 -1.21875 0.8125q-0.71875 0.265625 -1.625 0.265625q-0.859375 0 -1.5625 -0.265625q-0.703125 -0.28125 -1.21875 -0.8125q-0.5 -0.53125 -0.796875 -1.296875q-0.296875 -0.78125 -0.296875 -1.78125q0 -1.328125 0.46875 -2.25q0.46875 -0.9375 1.34375 -1.40625q0.890625 -0.484375 2.109375 -0.484375q1.125 0 1.984375 0.484375q0.859375 0.46875 1.359375 1.40625q0.5 0.921875 0.5 2.25zm-5.5 0q0 0.78125 0.15625 1.34375q0.171875 0.546875 0.53125 0.84375q0.359375 0.296875 0.953125 0.296875q0.5625 0 0.921875 -0.296875q0.359375 -0.296875 0.515625 -0.84375q0.171875 -0.5625 0.171875 -1.34375q0 -0.796875 -0.171875 -1.328125q-0.171875 -0.546875 -0.53125 -0.828125q-0.34375 -0.296875 -0.921875 -0.296875q-0.859375 0 -1.25 0.640625q-0.375 0.625 -0.375 1.8125zm9.894566 4.15625q-1.3125038 0 -2.1562538 -1.046875q-0.84375 -1.046875 -0.84375 -3.078125q0 -2.0625 0.84375 -3.109375q0.859375 -1.0625 2.2343788 -1.0625q0.578125 0 0.984375 0.15625q0.421875 0.15625 0.734375 0.421875q0.3125 0.265625 0.53125 0.609375l0.0625 0q-0.046875 -0.265625 -0.078125 -0.734375q-0.03125 -0.484375 -0.03125 -0.890625l0 -2.546875l2.21875 0l0 11.140625l-1.6875 0l-0.453125 -1.046875l-0.078125 0q-0.203125 0.34375 -0.515625 0.609375q-0.3125 0.265625 -0.75 0.421875q-0.421875 0.15625 -1.015625 0.15625zm0.78125 -1.765625q0.90625 0 1.265625 -0.515625q0.375 -0.53125 0.375 -1.59375l0 -0.234375q0 -1.15625 -0.359375 -1.765625q-0.34375 -0.625 -1.296875 -0.625q-0.71875 0 -1.1250038 0.625q-0.390625 0.609375 -0.390625 1.78125q0 1.171875 0.390625 1.75q0.4062538 0.578125 1.1406288 0.578125zm9.278412 -6.53125q1.109375 0 1.90625 0.421875q0.8125 0.421875 1.25 1.234375q0.4375 0.8125 0.4375 1.984375l0 1.078125l-5.140625 0q0.015625 0.90625 0.546875 1.421875q0.53125 0.515625 1.515625 0.515625q0.75 0 1.359375 -0.140625q0.609375 -0.140625 1.265625 -0.4375l0 1.65625q-0.59375 0.296875 -1.25 0.421875q-0.640625 0.140625 -1.609375 0.140625q-1.1875 0 -2.109375 -0.4375q-0.90625 -0.4375 -1.4375 -1.34375q-0.53125 -0.921875 -0.53125 -2.296875q0 -1.40625 0.46875 -2.328125q0.484375 -0.9375 1.34375 -1.40625q0.859375 -0.484375 1.984375 -0.484375zm0.0625 1.578125q-0.65625 0 -1.078125 0.421875q-0.40625 0.40625 -0.484375 1.234375l3.03125 0q0 -0.484375 -0.171875 -0.84375q-0.15625 -0.375 -0.484375 -0.59375q-0.328125 -0.21875 -0.8125 -0.21875zm18.779205 1.328125q0 1.21875 -0.296875 2.21875q-0.296875 0.984375 -0.90625 1.703125q-0.609375 0.71875 -1.546875 1.09375q-0.9375 0.375 -2.21875 0.375q-1.28125 0 -2.234375 -0.375q-0.9375 -0.375 -1.546875 -1.09375q-0.609375 -0.71875 -0.90625 -1.703125q-0.296875 -1.0 -0.296875 -2.234375q0 -1.625 0.53125 -2.828125q0.53125 -1.203125 1.640625 -1.859375q1.109375 -0.671875 2.8125 -0.671875q1.703125 0 2.8125 0.671875q1.109375 0.65625 1.625 1.875q0.53125 1.203125 0.53125 2.828125zm-7.59375 0q0 1.09375 0.265625 1.890625q0.265625 0.78125 0.84375 1.203125q0.59375 0.40625 1.515625 0.40625q0.9375 0 1.515625 -0.40625q0.578125 -0.421875 0.828125 -1.203125q0.265625 -0.796875 0.265625 -1.890625q0 -1.640625 -0.609375 -2.578125q-0.59375 -0.9375 -2.0 -0.9375q-0.921875 0 -1.515625 0.421875q-0.578125 0.421875 -0.84375 1.21875q-0.265625 0.78125 -0.265625 1.875zm13.921265 -2.90625q0.21875 0 0.46875 0.03125q0.265625 0.015625 0.40625 0.0625l-0.21875 2.0625q-0.15625 -0.03125 -0.375 -0.046875q-0.21875 -0.03125 -0.53125 -0.03125q-0.34375 0 -0.6875 0.109375q-0.34375 0.09375 -0.640625 0.328125q-0.28125 0.234375 -0.46875 0.625q-0.171875 0.375 -0.171875 0.953125l0 4.0625l-2.21875 0l0 -8.0l1.6875 0l0.328125 1.34375l0.109375 0q0.234375 -0.421875 0.578125 -0.75q0.359375 -0.34375 0.796875 -0.546875q0.4375 -0.203125 0.9375 -0.203125zm4.445526 8.296875q-1.3125 0 -2.15625 -1.046875q-0.84375 -1.046875 -0.84375 -3.078125q0 -2.0625 0.84375 -3.109375q0.859375 -1.0625 2.234375 -1.0625q0.578125 0 0.984375 0.15625q0.421875 0.15625 0.734375 0.421875q0.3125 0.265625 0.53125 0.609375l0.0625 0q-0.046875 -0.265625 -0.078125 -0.734375q-0.03125 -0.484375 -0.03125 -0.890625l0 -2.546875l2.21875 0l0 11.140625l-1.6875 0l-0.453125 -1.046875l-0.078125 0q-0.203125 0.34375 -0.515625 0.609375q-0.3125 0.265625 -0.75 0.421875q-0.421875 0.15625 -1.015625 0.15625zm0.78125 -1.765625q0.90625 0 1.265625 -0.515625q0.375 -0.53125 0.375 -1.59375l0 -0.234375q0 -1.15625 -0.359375 -1.765625q-0.34375 -0.625 -1.296875 -0.625q-0.71875 0 -1.125 0.625q-0.390625 0.609375 -0.390625 1.78125q0 1.171875 0.390625 1.75q0.40625 0.578125 1.140625 0.578125zm9.278412 -6.53125q1.109375 0 1.90625 0.421875q0.8125 0.421875 1.25 1.234375q0.4375 0.8125 0.4375 1.984375l0 1.078125l-5.140625 0q0.015625 0.90625 0.546875 1.421875q0.53125 0.515625 1.515625 0.515625q0.75 0 1.359375 -0.140625q0.609375 -0.140625 1.265625 -0.4375l0 1.65625q-0.59375 0.296875 -1.25 0.421875q-0.640625 0.140625 -1.609375 0.140625q-1.1875 0 -2.109375 -0.4375q-0.90625 -0.4375 -1.4375 -1.34375q-0.53125 -0.921875 -0.53125 -2.296875q0 -1.40625 0.46875 -2.328125q0.484375 -0.9375 1.34375 -1.40625q0.859375 -0.484375 1.984375 -0.484375zm0.0625 1.578125q-0.65625 0 -1.078125 0.421875q-0.40625 0.40625 -0.484375 1.234375l3.03125 0q0 -0.484375 -0.171875 -0.84375q-0.15625 -0.375 -0.484375 -0.59375q-0.328125 -0.21875 -0.8125 -0.21875zm9.702942 -1.578125q0.21875 0 0.46875 0.03125q0.265625 0.015625 0.40625 0.0625l-0.21875 2.0625q-0.15625 -0.03125 -0.375 -0.046875q-0.21875 -0.03125 -0.53125 -0.03125q-0.34375 0 -0.6875 0.109375q-0.34375 0.09375 -0.640625 0.328125q-0.28125 0.234375 -0.46875 0.625q-0.171875 0.375 -0.171875 0.953125l0 4.0625l-2.21875 0l0 -8.0l1.6875 0l0.328125 1.34375l0.109375 0q0.234375 -0.421875 0.578125 -0.75q0.359375 -0.34375 0.796875 -0.546875q0.4375 -0.203125 0.9375 -0.203125z" fill-rule="nonzero"/><path fill="#000000" fill-opacity="0.0" d="m15.2021 60.447506l305.82678 0l0 37.165356l-305.82678 0z" fill-rule="evenodd"/><path fill="#000000" d="m34.1396 78.121254q0 1.796875 -0.671875 3.0q-0.671875 1.203125 -1.90625 1.8125q-1.21875 0.59375 -2.921875 0.59375l-3.1875 0l0 -10.46875l3.453125 0q1.65625 0 2.8125 0.578125q1.171875 0.578125 1.796875 1.71875q0.625 1.125 0.625 2.765625zm-2.34375 0.09375q0 -1.140625 -0.328125 -1.875q-0.328125 -0.734375 -1.0 -1.078125q-0.65625 -0.359375 -1.625 -0.359375l-1.15625 0l0 6.78125l0.9375 0q1.609375 0 2.390625 -0.859375q0.78125 -0.875 0.78125 -2.609375zm6.431534 -2.6875l0 8.0l-2.21875 0l0 -8.0l2.21875 0zm-1.09375 -3.15625q0.484375 0 0.84375 0.234375q0.359375 0.21875 0.359375 0.859375q0 0.59375 -0.359375 0.828125q-0.359375 0.234375 -0.84375 0.234375q-0.5 0 -0.859375 -0.234375q-0.34375 -0.234375 -0.34375 -0.828125q0 -0.640625 0.34375 -0.859375q0.359375 -0.234375 0.859375 -0.234375zm8.913483 8.796875q0 0.765625 -0.359375 1.328125q-0.34375 0.5625 -1.078125 0.875q-0.734375 0.296875 -1.875 0.296875q-0.84375 0 -1.484375 -0.109375q-0.640625 -0.109375 -1.25 -0.359375l0 -1.828125q0.640625 0.3125 1.390625 0.484375q0.75 0.171875 1.296875 0.171875q0.671875 0 0.96875 -0.1875q0.296875 -0.1875 0.296875 -0.515625q0 -0.21875 -0.15625 -0.390625q-0.140625 -0.171875 -0.53125 -0.359375q-0.390625 -0.203125 -1.109375 -0.46875q-0.71875 -0.296875 -1.203125 -0.609375q-0.484375 -0.328125 -0.734375 -0.765625q-0.234375 -0.4375 -0.234375 -1.09375q0 -1.09375 0.875 -1.671875q0.875 -0.59375 2.3125 -0.59375q0.765625 0 1.4375 0.171875q0.671875 0.15625 1.359375 0.453125l-0.640625 1.5q-0.5625 -0.234375 -1.15625 -0.390625q-0.578125 -0.171875 -1.03125 -0.171875q-0.5 0 -0.78125 0.15625q-0.28125 0.15625 -0.28125 0.421875q0 0.21875 0.15625 0.375q0.15625 0.15625 0.546875 0.34375q0.390625 0.171875 1.09375 0.453125q0.71875 0.265625 1.203125 0.59375q0.5 0.3125 0.734375 0.765625q0.234375 0.4375 0.234375 1.125zm6.1855927 -5.796875q1.390625 0 2.1875 1.0625q0.8125 1.046875 0.8125 3.078125q0 1.34375 -0.390625 2.28125q-0.390625 0.9375 -1.078125 1.40625q-0.6875 0.46875 -1.59375 0.46875q-0.59375 0 -1.015625 -0.140625q-0.421875 -0.15625 -0.71875 -0.375q-0.28125 -0.234375 -0.484375 -0.484375l-0.09375 0q0.03125 0.265625 0.0625 0.609375q0.03125 0.34375 0.03125 0.703125l0 3.0625l-2.21875 0l0 -11.515625l1.8125 0l0.3125 1.03125l0.09375 0q0.21875 -0.328125 0.515625 -0.59375q0.3125 -0.265625 0.734375 -0.421875q0.4375 -0.171875 1.03125 -0.171875zm-0.734375 1.765625q-0.5625 0 -0.90625 0.234375q-0.328125 0.234375 -0.484375 0.703125q-0.140625 0.46875 -0.15625 1.1875l0 0.234375q0 0.765625 0.140625 1.296875q0.140625 0.53125 0.484375 0.8125q0.34375 0.28125 0.9375 0.28125q0.484375 0 0.8125 -0.28125q0.34375 -0.28125 0.5 -0.8125q0.15625 -0.53125 0.15625 -1.3125q0 -1.1875 -0.375 -1.765625q-0.375 -0.578125 -1.109375 -0.578125zm7.715912 6.390625l-2.21875 0l0 -11.140625l2.21875 0l0 11.140625zm5.726963 -8.15625q1.515625 0 2.296875 0.71875q0.796875 0.703125 0.796875 2.109375l0 5.328125l-1.53125 0l-0.421875 -1.078125l-0.0625 0q-0.34375 0.421875 -0.703125 0.703125q-0.359375 0.265625 -0.828125 0.390625q-0.46875 0.125 -1.1406288 0.125q-0.703125 0 -1.265625 -0.265625q-0.546875 -0.265625 -0.875 -0.828125q-0.3125 -0.5625 -0.3125 -1.40625q0 -1.265625 0.90625 -1.890625q0.90625 -0.625 2.7031288 -0.703125l1.34375 -0.046875l0 -0.25q0 -0.71875 -0.328125 -1.0q-0.328125 -0.28125 -0.90625 -0.28125q-0.546875 0 -1.1250038 0.171875q-0.5625 0.171875 -1.125 0.421875l-0.640625 -1.515625q0.625 -0.3125 1.4375 -0.5q0.8125 -0.203125 1.7812538 -0.203125zm0.0625 4.484375q-1.0312538 0.03125 -1.4531288 0.34375q-0.40625 0.3125 -0.40625 0.859375q0 0.515625 0.28125 0.765625q0.296875 0.234375 0.7812538 0.234375q0.6875 0 1.15625 -0.40625q0.484375 -0.40625 0.484375 -1.171875l0 -0.65625l-0.84375 0.03125zm4.076004 -4.328125l2.328125 0l1.515625 4.578125q0.0625 0.21875 0.125 0.453125q0.078125 0.21875 0.125 0.453125q0.046875 0.234375 0.078125 0.453125l0.0625 0q0.046875 -0.3125 0.15625 -0.671875q0.109375 -0.375 0.21875 -0.6875l1.46875 -4.578125l2.296875 0l-3.296875 8.734375q-0.3125 0.890625 -0.765625 1.515625q-0.4375 0.625 -1.09375 0.9375q-0.640625 0.328125 -1.59375 0.328125q-0.359375 0 -0.640625 -0.046875q-0.28125 -0.03125 -0.46875 -0.0625l0 -1.75q0.15625 0.03125 0.375 0.0625q0.234375 0.03125 0.484375 0.03125q0.453125 0 0.765625 -0.1875q0.3125 -0.1875 0.515625 -0.484375q0.203125 -0.296875 0.34375 -0.6875l0.1875 -0.453125l-3.1875 -7.9375zm22.945007 2.75q0 1.21875 -0.296875 2.21875q-0.296875 0.984375 -0.90625 1.703125q-0.609375 0.71875 -1.546875 1.09375q-0.9375 0.375 -2.21875 0.375q-1.28125 0 -2.234375 -0.375q-0.9375 -0.375 -1.546875 -1.09375q-0.609375 -0.71875 -0.90625 -1.703125q-0.296875 -1.0 -0.296875 -2.234375q0 -1.625 0.53125 -2.828125q0.53125 -1.203125 1.640625 -1.859375q1.109375 -0.671875 2.8125 -0.671875q1.703125 0 2.8125 0.671875q1.109375 0.65625 1.625 1.875q0.53125 1.203125 0.53125 2.828125zm-7.59375 0q0 1.09375 0.265625 1.890625q0.265625 0.78125 0.84375 1.203125q0.59375 0.40625 1.515625 0.40625q0.9375 0 1.515625 -0.40625q0.578125 -0.421875 0.828125 -1.203125q0.265625 -0.796875 0.265625 -1.890625q0 -1.640625 -0.609375 -2.578125q-0.59375 -0.9375 -2.0 -0.9375q-0.921875 0 -1.515625 0.421875q-0.578125 0.421875 -0.84375 1.21875q-0.265625 0.78125 -0.265625 1.875zm13.921265 -2.90625q0.21875 0 0.46875 0.03125q0.265625 0.015625 0.40625 0.0625l-0.21875 2.0625q-0.15625 -0.03125 -0.375 -0.046875q-0.21875 -0.03125 -0.53125 -0.03125q-0.34375 0 -0.6875 0.109375q-0.34375 0.09375 -0.640625 0.328125q-0.28125 0.234375 -0.46875 0.625q-0.171875 0.375 -0.171875 0.953125l0 4.0625l-2.21875 0l0 -8.0l1.6875 0l0.328125 1.34375l0.109375 0q0.234375 -0.421875 0.578125 -0.75q0.359375 -0.34375 0.796875 -0.546875q0.4375 -0.203125 0.9375 -0.203125zm4.445526 8.296875q-1.3125 0 -2.15625 -1.046875q-0.84375 -1.046875 -0.84375 -3.078125q0 -2.0625 0.84375 -3.109375q0.859375 -1.0625 2.234375 -1.0625q0.578125 0 0.984375 0.15625q0.421875 0.15625 0.734375 0.421875q0.3125 0.265625 0.53125 0.609375l0.0625 0q-0.046875 -0.265625 -0.078125 -0.734375q-0.03125 -0.484375 -0.03125 -0.890625l0 -2.546875l2.21875 0l0 11.140625l-1.6875 0l-0.453125 -1.046875l-0.078125 0q-0.203125 0.34375 -0.515625 0.609375q-0.3125 0.265625 -0.75 0.421875q-0.421875 0.15625 -1.015625 0.15625zm0.78125 -1.765625q0.90625 0 1.265625 -0.515625q0.375 -0.53125 0.375 -1.59375l0 -0.234375q0 -1.15625 -0.359375 -1.765625q-0.34375 -0.625 -1.296875 -0.625q-0.71875 0 -1.125 0.625q-0.390625 0.609375 -0.390625 1.78125q0 1.171875 0.390625 1.75q0.40625 0.578125 1.140625 0.578125zm9.278412 -6.53125q1.109375 0 1.90625 0.421875q0.8125 0.421875 1.25 1.234375q0.4375 0.8125 0.4375 1.984375l0 1.078125l-5.140625 0q0.015625 0.90625 0.546875 1.421875q0.53125 0.515625 1.515625 0.515625q0.75 0 1.359375 -0.140625q0.609375 -0.140625 1.265625 -0.4375l0 1.65625q-0.59375 0.296875 -1.25 0.421875q-0.640625 0.140625 -1.609375 0.140625q-1.1875 0 -2.109375 -0.4375q-0.90625 -0.4375 -1.4375 -1.34375q-0.53125 -0.921875 -0.53125 -2.296875q0 -1.40625 0.46875 -2.328125q0.484375 -0.9375 1.34375 -1.40625q0.859375 -0.484375 1.984375 -0.484375zm0.0625 1.578125q-0.65625 0 -1.078125 0.421875q-0.40625 0.40625 -0.484375 1.234375l3.03125 0q0 -0.484375 -0.171875 -0.84375q-0.15625 -0.375 -0.484375 -0.59375q-0.328125 -0.21875 -0.8125 -0.21875zm9.702942 -1.578125q0.21875 0 0.46875 0.03125q0.265625 0.015625 0.40625 0.0625l-0.21875 2.0625q-0.15625 -0.03125 -0.375 -0.046875q-0.21875 -0.03125 -0.53125 -0.03125q-0.34375 0 -0.6875 0.109375q-0.34375 0.09375 -0.640625 0.328125q-0.28125 0.234375 -0.46875 0.625q-0.171875 0.375 -0.171875 0.953125l0 4.0625l-2.21875 0l0 -8.0l1.6875 0l0.328125 1.34375l0.109375 0q0.234375 -0.421875 0.578125 -0.75q0.359375 -0.34375 0.796875 -0.546875q0.4375 -0.203125 0.9375 -0.203125z" fill-rule="nonzero"/><path fill="#000000" d="m241.96036 332.5866l0 14.899597l0 0c0 6.4002075 5.188385 11.588593 11.588577 11.588593l37.499374 0l0 0c3.0734863 0 6.0210876 -1.2209167 8.194366 -3.394226c2.1732788 -2.1732788 3.394226 -5.12088 3.394226 -8.194366l0 -8.277557l4.992737 0l-6.62204 -6.62204l-6.62204 6.62204l4.9927673 0l0 8.277557c0 4.6005554 -3.7294922 8.330017 -8.330017 8.330017l-37.499374 0l0 0c-4.600525 0 -8.330002 -3.7294617 -8.330002 -8.330017l0 -14.899597z" fill-rule="evenodd"/><path fill="#d9ead3" d="m431.81766 110.82546l32.91339 0l0 215.43307l-32.91339 0z" fill-rule="evenodd"/><path fill="#000000" d="m447.99182 212.29051q2.53125 0 3.6875 0.75q1.15625 0.75 1.15625 2.3125q0 0.78125 -0.28125 1.34375q-0.28125 0.5625 -0.765625 0.90625q-0.46875 0.34375 -1.03125 0.46875l0 0.078125q0.59375 0.125 1.140625 0.4375q0.5625 0.3125 0.90625 0.90625q0.34375 0.578125 0.34375 1.53125q0 1.125 -0.5625 1.9375q-0.546875 0.796875 -1.5625 1.21875q-1.0 0.421875 -2.40625 0.421875l-4.609375 0l0 -12.3125l3.984375 0zm0.140625 4.921875q1.140625 0 1.5625 -0.40625q0.4375 -0.421875 0.4375 -1.09375q0 -0.703125 -0.515625 -1.03125q-0.5 -0.34375 -1.609375 -0.34375l-1.359375 0l0 2.875l1.484375 0zm-1.484375 1.984375l0 3.3125l1.671875 0q1.171875 0 1.625 -0.46875q0.453125 -0.46875 0.453125 -1.21875q0 -0.46875 -0.203125 -0.828125q-0.1875 -0.359375 -0.671875 -0.578125q-0.46875 -0.21875 -1.296875 -0.21875l-1.578125 0z" fill-rule="nonzero"/><path fill="#000000" d="m524.2703 330.01968l0 20.26773l0 0c0 8.706085 -7.057678 15.763763 -15.763763 15.763763l-113.52338 0c-4.1808167 0 -8.190399 -1.6608276 -11.1466675 -4.617096c-2.9562988 -2.9562988 -4.6171265 -6.9658813 -4.6171265 -11.1466675l0 -11.259857l-6.791565 0l9.007874 -9.007874l9.007874 9.007874l-6.791565 0l0 11.259857c0 6.258026 5.07312 11.331177 11.331177 11.331177l113.52338 0l0 0c6.258026 0 11.331207 -5.0731506 11.331207 -11.331177l0 -20.26773z" fill-rule="evenodd"/><path fill="#1155cc" d="m571.6378 110.82546l32.91339 0l0 215.43307l-32.91339 0z" fill-rule="evenodd"/><path fill="#ffffff" d="m590.8956 224.60301l-5.609375 0l0 -1.484375l1.5 -0.6875l0 -7.96875l-1.5 -0.6875l0 -1.484375l5.609375 0l0 1.484375l-1.5 0.6875l0 7.96875l1.5 0.6875l0 1.484375z" fill-rule="nonzero"/><path fill="#d9ead3" d="m641.13916 110.82546l32.91339 0l0 215.43307l-32.91339 0z" fill-rule="evenodd"/><path fill="#000000" d="m657.31335 212.29051q2.53125 0 3.6875 0.75q1.15625 0.75 1.15625 2.3125q0 0.78125 -0.28125 1.34375q-0.28125 0.5625 -0.765625 0.90625q-0.46875 0.34375 -1.03125 0.46875l0 0.078125q0.59375 0.125 1.140625 0.4375q0.5625 0.3125 0.90625 0.90625q0.34375 0.578125 0.34375 1.53125q0 1.125 -0.5625 1.9375q-0.546875 0.796875 -1.5625 1.21875q-1.0 0.421875 -2.40625 0.421875l-4.609375 0l0 -12.3125l3.984375 0zm0.140625 4.921875q1.140625 0 1.5625 -0.40625q0.4375 -0.421875 0.4375 -1.09375q0 -0.703125 -0.515625 -1.03125q-0.5 -0.34375 -1.609375 -0.34375l-1.359375 0l0 2.875l1.484375 0zm-1.484375 1.984375l0 3.3125l1.671875 0q1.171875 0 1.625 -0.46875q0.453125 -0.46875 0.453125 -1.21875q0 -0.46875 -0.203125 -0.828125q-0.1875 -0.359375 -0.671875 -0.578125q-0.46875 -0.21875 -1.296875 -0.21875l-1.578125 0z" fill-rule="nonzero"/><path fill="#d9d2e9" d="m710.64026 110.82546l32.91339 0l0 215.43307l-32.91339 0z" fill-rule="evenodd"/><path fill="#000000" d="m727.0689 212.29051q2.375 0 3.515625 1.0q1.140625 0.984375 1.140625 2.796875q0 0.8125 -0.25 1.546875q-0.234375 0.734375 -0.796875 1.34375q-0.546875 0.59375 -1.46875 0.9375q-0.90625 0.328125 -2.234375 0.328125l-1.125 0l0 4.359375l-2.640625 0l0 -12.3125l3.859375 0zm-0.078125 2.15625l-1.140625 0l0 3.625l0.875 0q0.71875 0 1.25 -0.1875q0.53125 -0.1875 0.8125 -0.609375q0.28125 -0.421875 0.28125 -1.109375q0 -0.828125 -0.515625 -1.265625q-0.5 -0.453125 -1.5625 -0.453125z" fill-rule="nonzero"/><path fill="#d9d2e9" d="m849.64 110.82546l32.91339 0l0 215.43307l-32.91339 0z" fill-rule="evenodd"/><path fill="#000000" d="m866.06866 212.29051q2.375 0 3.515625 1.0q1.140625 0.984375 1.140625 2.796875q0 0.8125 -0.25 1.546875q-0.234375 0.734375 -0.796875 1.34375q-0.546875 0.59375 -1.46875 0.9375q-0.90625 0.328125 -2.234375 0.328125l-1.125 0l0 4.359375l-2.640625 0l0 -12.3125l3.859375 0zm-0.078125 2.15625l-1.140625 0l0 3.625l0.875 0q0.71875 0 1.25 -0.1875q0.53125 -0.1875 0.8125 -0.609375q0.28125 -0.421875 0.28125 -1.109375q0 -0.828125 -0.515625 -1.265625q-0.5 -0.453125 -1.5625 -0.453125z" fill-rule="nonzero"/><path fill="#000000" d="m720.94226 332.60236l0 20.26773l0 0c0 8.706085 -7.057678 15.763763 -15.763794 15.763763l-113.52338 0c-4.180786 0 -8.190369 -1.6608276 -11.1466675 -4.617096c-2.9562988 -2.9562683 -4.6171265 -6.965851 -4.6171265 -11.1466675l0 -11.259857l-6.791565 0l9.007874 -9.007874l9.007874 9.007874l-6.791565 0l0 11.259857c0 6.258026 5.07312 11.331177 11.331177 11.331177l113.52338 0l0 0c6.2580566 0 11.331177 -5.0731506 11.331177 -11.331177l0 -20.26773z" fill-rule="evenodd"/><path fill="#000000" d="m719.89996 332.5866l0 14.899597l0 0c0 6.4002075 -5.1883545 11.588593 -11.588562 11.588593l-37.49939 0l0 0c-3.0734253 0 -6.021057 -1.2209167 -8.194336 -3.394226c-2.1732788 -2.1732788 -3.394226 -5.12088 -3.394226 -8.194366l0 -8.277557l-4.992737 0l6.6220093 -6.62204l6.6220703 6.62204l-4.992737 0l0 8.277557c0 4.6005554 3.7294312 8.330017 8.329956 8.330017l37.49939 0l0 0c4.600525 0 8.330017 -3.7294617 8.330017 -8.330017l0 -14.899597z" fill-rule="evenodd"/><path fill="#000000" d="m788.1744 332.5866l0 14.899597l0 0c0 6.4002075 -5.1883545 11.588593 -11.588562 11.588593l-37.49939 0l0 0c-3.0734863 0 -6.021057 -1.2209167 -8.194336 -3.394226c-2.1732788 -2.1732788 -3.394226 -5.12088 -3.394226 -8.194366l0 -8.277557l-4.992737 0l6.6220093 -6.62204l6.6220703 6.62204l-4.992798 0l0 8.277557c0 4.6005554 3.7294922 8.330017 8.330017 8.330017l37.49939 0l0 0c4.600525 0 8.330017 -3.7294617 8.330017 -8.330017l0 -14.899597z" fill-rule="evenodd"/><path fill="#000000" d="m795.1966 332.5866l0 14.899597l0 0c0 6.4002075 5.1883545 11.588593 11.588562 11.588593l37.49939 0l0 0c3.0734863 0 6.021057 -1.2209167 8.194336 -3.394226c2.1732788 -2.1732788 3.394226 -5.12088 3.394226 -8.194366l0 -8.277557l4.992737 0l-6.6220093 -6.62204l-6.6220703 6.62204l4.992798 0l0 8.277557c0 4.6005554 -3.7294922 8.330017 -8.330017 8.330017l-37.49939 0l0 0c-4.600525 0 -8.330017 -3.7294617 -8.330017 -8.330017l0 -14.899597z" fill-rule="evenodd"/><path fill="#000000" d="m588.5614 332.5866l0 14.899597l0 0c0 6.4002075 5.1884155 11.588593 11.588562 11.588593l37.49939 0l0 0c3.0734863 0 6.021118 -1.2209167 8.194397 -3.394226c2.1732788 -2.1732788 3.394165 -5.12088 3.394165 -8.194366l0 -8.277557l4.992798 0l-6.6220703 -6.62204l-6.6220093 6.62204l4.992737 0l0 8.277557c0 4.6005554 -3.7294922 8.330017 -8.330017 8.330017l-37.49939 0l0 0c-4.600525 0 -8.329956 -3.7294617 -8.329956 -8.330017l0 -14.899597z" fill-rule="evenodd"/><path fill="#d9ead3" d="m778.4187 110.82546l32.91339 0l0 215.43307l-32.91339 0z" fill-rule="evenodd"/><path fill="#000000" d="m794.5929 212.29051q2.53125 0 3.6875 0.75q1.15625 0.75 1.15625 2.3125q0 0.78125 -0.28125 1.34375q-0.28125 0.5625 -0.765625 0.90625q-0.46875 0.34375 -1.03125 0.46875l0 0.078125q0.59375 0.125 1.140625 0.4375q0.5625 0.3125 0.90625 0.90625q0.34375 0.578125 0.34375 1.53125q0 1.125 -0.5625 1.9375q-0.546875 0.796875 -1.5625 1.21875q-1.0 0.421875 -2.40625 0.421875l-4.609375 0l0 -12.3125l3.984375 0zm0.140625 4.921875q1.140625 0 1.5625 -0.40625q0.4375 -0.421875 0.4375 -1.09375q0 -0.703125 -0.515625 -1.03125q-0.5 -0.34375 -1.609375 -0.34375l-1.359375 0l0 2.875l1.484375 0zm-1.484375 1.984375l0 3.3125l1.671875 0q1.171875 0 1.625 -0.46875q0.453125 -0.46875 0.453125 -1.21875q0 -0.46875 -0.203125 -0.828125q-0.1875 -0.359375 -0.671875 -0.578125q-0.46875 -0.21875 -1.296875 -0.21875l-1.578125 0z" fill-rule="nonzero"/><path fill="#000000" d="m870.8714 330.01968l0 20.26773l0 0c0 8.706085 -7.057678 15.763763 -15.763794 15.763763l-113.52338 0c-4.180786 0 -8.190369 -1.6608276 -11.1466675 -4.617096c-2.9562988 -2.9562988 -4.6171265 -6.9658813 -4.6171265 -11.1466675l0 -11.259857l-6.791565 0l9.007874 -9.007874l9.007874 9.007874l-6.791565 0l0 11.259857c0 6.258026 5.07312 11.331177 11.331177 11.331177l113.52338 0l0 0c6.2580566 0 11.331177 -5.0731506 11.331177 -11.331177l0 -20.26773z" fill-rule="evenodd"/></g></svg>