<svg version="1.1" viewBox="0.0 0.0 512.0 512.0" fill="none" stroke="none" stroke-linecap="square" stroke-miterlimit="10" xmlns:xlink="http://www.w3.org/1999/xlink" xmlns="http://www.w3.org/2000/svg"><clipPath id="p.0"><path d="m0 0l512.0 0l0 512.0l-512.0 0l0 -512.0z" clip-rule="nonzero"/></clipPath><g clip-path="url(#p.0)"><path fill="#000000" fill-opacity="0.0" d="m0 0l512.0 0l0 512.0l-512.0 0z" fill-rule="evenodd"/><path fill="#ffffff" d="m15.479969 74.3937l223.52756 55.88189l0 258.9134l-223.52756 55.881897z" fill-rule="evenodd"/><path stroke="#8e7cc3" stroke-width="16.385826771653544" stroke-linejoin="round" stroke-linecap="butt" d="m15.479969 74.3937l223.52756 55.88189l0 258.9134l-223.52756 55.881897z" fill-rule="evenodd"/><path fill="#000000" fill-opacity="0.0" d="m19.830206 166.8167l125.259834 0l0 194.83464l-125.259834 0z" fill-rule="evenodd"/><path fill="#674ea7" d="m164.75208 215.61357l-24.265625 95.20314l-22.921867 0l-12.9375 -50.0q-0.40625 -1.46875 -1.0 -4.390625q-0.59375 -2.9375153 -1.328125 -6.4062653q-0.734375 -3.46875 -1.265625 -6.59375q-0.53125 -3.140625 -0.8125 -4.875q-0.125 1.734375 -0.734375 4.875q-0.59375 3.125 -1.265625 6.53125q-0.65625 3.390625 -1.328125 6.3906403q-0.671875 3.0 -1.0625 4.609375l-12.796875 49.859375l-22.9375 0l-24.265625 -95.20314l19.859375 0l12.140625 52.000015q0.53125 2.265625 1.1875 5.53125q0.671875 3.265625 1.34375 6.8125q0.671875 3.53125 1.265625 6.859375q0.609375 3.328125 0.875 5.734375q0.265625 -2.53125 0.796875 -5.796875q0.53125 -3.265625 1.1875 -6.65625q0.671875 -3.40625 1.265625 -6.40625q0.609375 -3.0 1.140625 -4.734375l13.875 -53.343765l19.0625 0l13.859375 53.343765q0.40625 1.734375 1.0625 4.734375q0.671875 3.0 1.34375 6.46875q0.671875 3.453125 1.203125 6.71875q0.53125 3.265625 0.7968674 5.671875q0.390625 -3.328125 1.1875 -7.921875q0.8125 -4.609375 1.8125 -9.265625q1.0 -4.671875 1.65625 -7.75l12.140625 -52.000015l19.859375 0z" fill-rule="nonzero"/><path fill="#ffffff" d="m166.64902 74.3937l202.01575 50.503937l0 269.66928l-202.01575 50.503937z" fill-rule="evenodd"/><path stroke="#8e7cc3" stroke-width="16.385826771653544" stroke-linejoin="round" stroke-linecap="butt" d="m166.64902 74.3937l202.01575 50.503937l0 269.66928l-202.01575 50.503937z" fill-rule="evenodd"/><path fill="#000000" fill-opacity="0.0" d="m176.13155 153.13466l131.11812 0l0 213.19685l-131.11812 0z" fill-rule="evenodd"/><path fill="#674ea7" d="m251.2253 223.05069q-6.375 0 -11.5 2.453125q-5.125 2.4375 -8.6875 7.125q-3.5625 4.671875 -5.421875 11.28125q-1.859375 6.609375 -1.859375 15.0625q0 11.140625 3.109375 19.09375q3.125 7.9375 9.4375 12.09375q6.3125 4.15625 15.8125 4.15625q6.9843903 0 13.437515 -1.625q6.46875 -1.640625 13.0 -4.15625l0 19.296875q-6.6875 2.8125 -13.59375 4.078125q-6.90625 1.265625 -15.35939 1.265625q-16.9375 0 -27.859375 -6.75q-10.90625 -6.765625 -16.171875 -19.078125q-5.265625 -12.328125 -5.265625 -28.515625q0 -12.03125 3.328125 -22.046875q3.34375 -10.03125 9.875 -17.296875q6.546875 -7.28125 16.046875 -11.28125q9.5 -4.015625 21.96875 -4.015625q7.8750153 0 15.968765 1.703125q8.09375 1.703125 15.359375 5.265625l-7.421875 18.125q-5.34375 -2.53125 -11.359375 -4.375q-6.015625 -1.859375 -12.843765 -1.859375z" fill-rule="nonzero"/><path fill="#ffffff" d="m317.8018 74.3937l183.55905 45.889763l0 278.89764l-183.55905 45.88977z" fill-rule="evenodd"/><path stroke="#8e7cc3" stroke-width="16.385826771653544" stroke-linejoin="round" stroke-linecap="butt" d="m317.8018 74.3937l183.55905 45.889763l0 278.89764l-183.55905 45.88977z" fill-rule="evenodd"/><path fill="#000000" fill-opacity="0.0" d="m342.6343 148.97621l174.36221 0l0 221.51183l-174.36221 0z" fill-rule="evenodd"/><path fill="#674ea7" d="m395.7593 314.1125l-23.140625 0l0 -110.92189l63.53125 0l0 19.265625l-40.390625 0l0 28.59375l37.59375 0l0 19.250015l-37.59375 0l0 43.8125z" fill-rule="nonzero"/></g></svg>